<svg width="24" height="24" viewBox="0 0 24 24" fill="none" xmlns="http://www.w3.org/2000/svg">
<path fill-rule="evenodd" clip-rule="evenodd" d="M20.9996 3.75788C21.0015 3.56348 20.9283 3.36849 20.78 3.22016C20.629 3.06918 20.4297 2.99602 20.2318 3.0007L15.0333 3.0007C14.619 3.0007 14.2833 3.33649 14.2833 3.7507C14.2833 4.16491 14.619 4.5007 15.0333 4.5007L18.4388 4.5007L13.9836 8.95588C13.6907 9.24877 13.6907 9.72364 13.9836 10.0165C14.2765 10.3094 14.7514 10.3094 15.0443 10.0165L19.4996 5.56119V8.96707C19.4996 9.38128 19.8354 9.71707 20.2496 9.71707C20.6638 9.71707 20.9996 9.38128 20.9996 8.96707V3.75788ZM4.5015 18.4382L4.5015 15.0328C4.5015 14.6186 4.16571 14.2828 3.7515 14.2828C3.33729 14.2828 3.0015 14.6186 3.0015 15.0328L3.0015 20.2213C2.99401 20.4225 3.06705 20.6262 3.22065 20.7798C3.37164 20.9307 3.571 21.0039 3.76885 20.9992L8.96787 20.9992C9.38208 20.9992 9.71787 20.6634 9.71787 20.2492C9.71787 19.835 9.38208 19.4992 8.96787 19.4992L5.56185 19.4992L10.017 15.044C10.3099 14.7511 10.3099 14.2763 10.017 13.9834C9.72413 13.6905 9.24926 13.6905 8.95637 13.9834L4.5015 18.4382Z" fill="#1E2134"/>
</svg>
