<svg width="24" height="24" viewBox="0 0 24 24" fill="none" xmlns="http://www.w3.org/2000/svg">
<g clip-path="url(#clip0_1476_51944)">
<path d="M12 0C5.37258 0 0 5.37258 0 12C0 18.6274 5.37258 24 12 24C18.6274 24 24 18.6274 24 12C24 5.37258 18.6274 0 12 0Z" fill="#4CAF50"/>
<path fill-rule="evenodd" clip-rule="evenodd" d="M17.5221 7.93858C17.8826 8.29906 17.8826 8.88352 17.5221 9.244L10.4744 16.2917C10.3013 16.4648 10.0665 16.5621 9.8217 16.5621C9.57689 16.5621 9.3421 16.4648 9.16899 16.2917L6.14854 13.2713C5.78805 12.9108 5.78805 12.3263 6.14854 11.9658C6.50902 11.6054 7.09348 11.6054 7.45396 11.9658L9.8217 14.3336L16.2167 7.93858C16.5772 7.57809 17.1616 7.57809 17.5221 7.93858Z" fill="white"/>
</g>
<defs>
<clipPath id="clip0_1476_51944">
<rect width="24" height="24" fill="white"/>
</clipPath>
</defs>
</svg>
