<svg width="24" height="24" viewBox="0 0 24 24" fill="none" xmlns="http://www.w3.org/2000/svg">
<path fill-rule="evenodd" clip-rule="evenodd" d="M5.435 2.25C3.67579 2.25 2.25 3.67579 2.25 5.435V12.131C2.25 13.8902 3.67579 15.316 5.435 15.316H5.902V17C5.902 17.2766 6.05422 17.5307 6.29807 17.6612C6.54192 17.7918 6.83782 17.7775 7.06796 17.6241L8.25 16.8362V17C8.25 18.5192 9.48079 19.75 11 19.75H14.7729L17.584 21.624C17.8141 21.7775 18.11 21.7918 18.3539 21.6613C18.5978 21.5307 18.75 21.2766 18.75 21V19.75H19C20.5192 19.75 21.75 18.5192 21.75 17V11.5C21.75 9.98079 20.5192 8.75 19 8.75H18.359V5.435C18.359 3.67579 16.9332 2.25 15.174 2.25H5.435ZM17.6078 10.25C17.6082 10.25 17.6086 10.25 17.609 10.25C17.6094 10.25 17.6098 10.25 17.6102 10.25H19C19.6908 10.25 20.25 10.8092 20.25 11.5V17C20.25 17.6908 19.6908 18.25 19 18.25H18C17.5858 18.25 17.25 18.5858 17.25 19V19.5986L15.416 18.376C15.2928 18.2938 15.1481 18.25 15 18.25H11C10.3092 18.25 9.75 17.6908 9.75 17V15.4453C9.75011 15.438 9.75011 15.4307 9.75 15.4234V11.5C9.75 10.8092 10.3092 10.25 11 10.25H17.6078ZM16.859 8.75V5.435C16.859 4.50421 16.1048 3.75 15.174 3.75H5.435C4.50421 3.75 3.75 4.50421 3.75 5.435V12.131C3.75 13.0618 4.50421 13.816 5.435 13.816H6.652C7.06621 13.816 7.402 14.1518 7.402 14.566V15.5988L8.25 15.0336V11.5C8.25 9.98079 9.48079 8.75 11 8.75H16.859Z" fill="#1E2134"/>
</svg>
