<svg width="24" height="24" viewBox="0 0 24 24" fill="none" xmlns="http://www.w3.org/2000/svg">
<path fill-rule="evenodd" clip-rule="evenodd" d="M2.24634 7.99634C2.24634 4.8207 4.8207 2.24634 7.99634 2.24634H16.0038C19.1795 2.24634 21.7538 4.8207 21.7538 7.99634V16.0038C21.7538 19.1795 19.1795 21.7538 16.0038 21.7538H7.99634C4.8207 21.7538 2.24634 19.1795 2.24634 16.0038V7.99634ZM7.99634 3.74634C5.64913 3.74634 3.74634 5.64913 3.74634 7.99634V16.0038C3.74634 18.351 5.64913 20.2538 7.99634 20.2538H16.0038C18.351 20.2538 20.2538 18.351 20.2538 16.0038V7.99634C20.2538 5.64913 18.351 3.74634 16.0038 3.74634H7.99634ZM7.74858 8.99884C7.74858 8.30837 8.30832 7.74863 8.99879 7.74863C9.68926 7.74863 10.249 8.30837 10.249 8.99884C10.249 9.68931 9.68926 10.249 8.99879 10.249C8.30832 10.249 7.74858 9.68931 7.74858 8.99884ZM15.0013 7.74863C14.3108 7.74863 13.7511 8.30837 13.7511 8.99884C13.7511 9.68931 14.3108 10.249 15.0013 10.249C15.6918 10.249 16.2515 9.68931 16.2515 8.99884C16.2515 8.30837 15.6918 7.74863 15.0013 7.74863ZM7.74858 15.0013C7.74858 14.3109 8.30832 13.7511 8.99879 13.7511C9.68926 13.7511 10.249 14.3109 10.249 15.0013C10.249 15.6918 9.68926 16.2515 8.99879 16.2515C8.30832 16.2515 7.74858 15.6918 7.74858 15.0013ZM15.0013 13.7511C14.3108 13.7511 13.7511 14.3109 13.7511 15.0013C13.7511 15.6918 14.3108 16.2515 15.0013 16.2515C15.6918 16.2515 16.2515 15.6918 16.2515 15.0013C16.2515 14.3109 15.6918 13.7511 15.0013 13.7511Z" fill="#1E2134"/>
</svg>
