<svg width="24" height="24" viewBox="0 0 24 24" fill="none" xmlns="http://www.w3.org/2000/svg">
<path fill-rule="evenodd" clip-rule="evenodd" d="M18 2.25C17.4517 2.25 16.947 2.54921 16.6839 3.03033L16.6839 3.03036L16.0993 4.09933L15.0304 4.68391L15.0303 4.68393C14.5492 4.94702 14.25 5.45166 14.25 6.00001C14.25 6.54836 14.5492 7.053 15.0303 7.31609L15.0304 7.31611L16.0993 7.90069L16.6839 8.96966C16.947 9.45079 17.4516 9.75002 18 9.75002C18.5484 9.75002 19.053 9.45081 19.3161 8.9697L19.3161 8.96966L19.9007 7.90069L20.9697 7.31611L20.9697 7.31609C21.4508 7.053 21.75 6.54836 21.75 6.00001C21.75 5.45165 21.4508 4.94699 20.9697 4.68391L19.9007 4.09933L19.3161 3.03036L19.3161 3.03033C19.053 2.54921 18.5484 2.25 18 2.25ZM18 3.75004L18.5846 4.81901L18.5846 4.81904C18.7223 5.07076 18.9293 5.27773 19.181 5.41539L19.181 5.4154L20.25 5.99999L20.25 6.00001L20.25 6.00003L19.181 6.58462L19.181 6.58463C18.9293 6.72229 18.7223 6.92926 18.5846 7.18099L18.5846 7.18101L18 8.24999L18 8.25002L18 8.24999L17.4154 7.18101L17.4154 7.18099C17.2777 6.92925 17.0708 6.72229 16.819 6.58463L16.819 6.58462L15.75 6.00003L15.75 6.00001L15.75 5.99999L16.819 5.4154L16.819 5.41539C17.0708 5.27773 17.2777 5.07077 17.4154 4.81904L17.4154 4.81901L18 3.75004L18 3.75L18 3.75004ZM3.7683 16.397C6.06045 14.9783 9.0133 14.25 12 14.25C14.9867 14.25 17.9395 14.9783 20.2317 16.397C20.0315 18.5581 18.2133 20.25 16 20.25H8C5.78667 20.25 3.9685 18.5581 3.7683 16.397ZM2.25001 16.0124C2.25669 19.1823 4.82849 21.75 8 21.75H16C19.1715 21.75 21.7433 19.1823 21.75 16.0123C21.7501 16.0048 21.7501 15.9974 21.75 15.9899V12C21.75 11.5858 21.4142 11.25 21 11.25C20.5858 11.25 20.25 11.5858 20.25 12V14.6788C17.8154 13.3837 14.8939 12.75 12 12.75C9.10608 12.75 6.18461 13.3837 3.75 14.6788V8C3.75 5.65279 5.65279 3.75 8 3.75H12C12.4142 3.75 12.75 3.41421 12.75 3C12.75 2.58579 12.4142 2.25 12 2.25H8C4.82436 2.25 2.25 4.82436 2.25 8V15.9899M6.75 7.99996C6.75 7.30949 7.30974 6.74976 8.00021 6.74976C8.69068 6.74976 9.25042 7.30949 9.25042 7.99996C9.25042 8.69044 8.69068 9.25017 8.00021 9.25017C7.30974 9.25017 6.75 8.69044 6.75 7.99996Z" fill="#1E2134"/>
</svg>
