<svg width="24" height="24" viewBox="0 0 24 24" fill="none" xmlns="http://www.w3.org/2000/svg">
<path fill-rule="evenodd" clip-rule="evenodd" d="M12.8388 2.40636C13.5222 1.72294 14.6302 1.72294 15.3136 2.40636L20.5602 7.65293C21.2436 8.33635 21.2436 9.44439 20.5602 10.1278L14.438 16.25H17.5858C18.0499 16.25 18.4951 16.4344 18.8232 16.7626L22.5304 20.4697C22.7449 20.6842 22.809 21.0068 22.6929 21.287C22.5768 21.5673 22.3034 21.75 22 21.75H2.00002C1.69668 21.75 1.4232 21.5673 1.30711 21.287C1.19103 21.0068 1.25519 20.6842 1.46969 20.4697L5.1768 16.7626C5.50499 16.4344 5.95011 16.25 6.41424 16.25H7.70409L4.58705 13.133C3.90363 12.4495 3.90363 11.3415 4.58705 10.6581L12.8388 2.40636ZM12.3085 18.3795L12.938 17.75H17.5858C17.6521 17.75 17.7157 17.7763 17.7626 17.8232L20.1894 20.25H3.81068L6.23746 17.8232C6.28434 17.7763 6.34793 17.75 6.41424 17.75H9.20409L9.83362 18.3795C10.517 19.0629 11.6251 19.0629 12.3085 18.3795ZM10.8943 17.3189L10.047 16.4716L10.0431 16.4677L5.64771 12.0723C5.55008 11.9747 5.55008 11.8164 5.64771 11.7187L13.8994 3.46702C13.9971 3.36939 14.1554 3.36939 14.253 3.46702L19.4996 8.71359C19.5972 8.81122 19.5972 8.96951 19.4996 9.06714L11.2478 17.3189C11.1502 17.4165 10.9919 17.4165 10.8943 17.3189ZM16.1483 9.15277C16.4411 8.85987 16.4411 8.385 16.1483 8.09211C15.8554 7.79921 15.3805 7.79921 15.0876 8.09211L11.6179 11.5618L10.1482 10.0921C9.85536 9.79921 9.38048 9.79921 9.08759 10.0921C8.7947 10.385 8.7947 10.8599 9.08759 11.1528L11.0876 13.1528C11.3805 13.4457 11.8554 13.4457 12.1483 13.1528L16.1483 9.15277Z" fill="#1E2134"/>
</svg>
