<svg width="24" height="24" viewBox="0 0 24 24" fill="none" xmlns="http://www.w3.org/2000/svg">
<path fill-rule="evenodd" clip-rule="evenodd" d="M9.93229 3.41931C11.0715 2.28015 12.9184 2.28015 14.0576 3.41931C14.803 4.16478 15.0607 5.21335 14.8304 6.16832C14.8287 6.17496 14.8271 6.18161 14.8256 6.18826C14.7021 6.68525 14.4461 7.15607 14.0576 7.54457C12.9184 8.68373 11.0715 8.68373 9.93229 7.54457C9.54416 7.15643 9.28827 6.68612 9.16462 6.18964C9.16343 6.18454 9.16217 6.17944 9.16086 6.17435C8.92811 5.21777 9.18526 4.16635 9.93229 3.41931ZM7.60488 5.97066C7.46241 4.68346 7.88466 3.34562 8.87163 2.35865C10.5966 0.633706 13.3933 0.633706 15.1182 2.35865C16.1037 3.34415 16.5262 4.67949 16.3856 5.96493C18.7931 7.44279 20.3318 10.1012 20.4096 12.932C20.8978 13.1462 21.3552 13.4532 21.7549 13.8529C23.4775 15.5755 23.4775 18.3684 21.7549 20.091C20.1948 21.6511 17.7568 21.7983 16.0311 20.5325C13.5259 21.901 10.4738 21.901 7.9687 20.5325C6.24297 21.7983 3.80495 21.6511 2.24483 20.091C0.52223 18.3684 0.52223 15.5755 2.24483 13.8529C2.64459 13.4532 3.10198 13.1462 3.59026 12.932C3.66798 10.105 5.20256 7.44967 7.60488 5.97066ZM8.05049 7.47239C6.38489 8.6429 5.29197 10.5353 5.1131 12.568C6.32403 12.4995 7.55782 12.9278 8.48293 13.8529C9.99028 15.3603 10.1786 17.6871 9.04802 19.3993C10.9115 20.2788 13.0882 20.2788 14.9517 19.3993C13.8211 17.6871 14.0095 15.3603 15.5168 13.8529C16.4419 12.9278 17.6758 12.4995 18.8867 12.5681C18.7076 10.5322 17.6116 8.63733 15.9419 7.46724C15.7354 7.87766 15.4609 8.26259 15.1182 8.60523C13.3933 10.3302 10.5966 10.3302 8.87163 8.60523C8.53043 8.26402 8.25671 7.88088 8.05049 7.47239ZM19.4425 14.1744C18.4578 13.8914 17.3532 14.1378 16.5775 14.9136C15.4407 16.0504 15.4407 17.8935 16.5775 19.0303C16.5894 19.0423 16.6015 19.0542 16.6136 19.0659C16.6206 19.0723 16.6275 19.0789 16.6343 19.0857C17.7749 20.1669 19.5762 20.1484 20.6943 19.0303C21.8311 17.8935 21.8311 16.0504 20.6943 14.9136C20.3359 14.5552 19.9073 14.3098 19.4528 14.1774C19.4493 14.1764 19.4459 14.1754 19.4425 14.1744ZM7.3868 19.0652C7.3987 19.0537 7.41053 19.0421 7.42227 19.0303C8.55909 17.8935 8.55909 16.0504 7.42227 14.9136C6.64626 14.1376 5.54113 13.8913 4.5562 14.1747C4.55353 14.1755 4.55085 14.1763 4.54817 14.177C4.09321 14.3094 3.66419 14.5549 3.30549 14.9136C2.16868 16.0504 2.16868 17.8935 3.30549 19.0303C4.42334 20.1482 6.22415 20.1668 7.36478 19.0863C7.372 19.0791 7.37934 19.0721 7.3868 19.0652Z" fill="#1E2134"/>
</svg>
