<svg width="24" height="24" viewBox="0 0 24 24" fill="none" xmlns="http://www.w3.org/2000/svg">
<path fill-rule="evenodd" clip-rule="evenodd" d="M7.50005 2.25C7.91426 2.25 8.25005 2.58579 8.25005 3V3.75H15.75V3C15.75 2.58579 16.0858 2.25 16.5 2.25C16.9143 2.25 17.25 2.58579 17.25 3V3.75H18C20.0711 3.75 21.75 5.42893 21.75 7.5V18C21.75 20.0711 20.0711 21.75 18 21.75H6C3.92893 21.75 2.25 20.0711 2.25 18V7.5C2.25 5.42893 3.92893 3.75 6 3.75H6.75005V3C6.75005 2.58579 7.08583 2.25 7.50005 2.25ZM6.75005 5.25H6C4.75736 5.25 3.75 6.25736 3.75 7.5V18C3.75 19.2426 4.75736 20.25 6 20.25H18C19.2426 20.25 20.25 19.2426 20.25 18V7.5C20.25 6.25736 19.2426 5.25 18 5.25H17.25V6C17.25 6.41421 16.9143 6.75 16.5 6.75C16.0858 6.75 15.75 6.41421 15.75 6V5.25H8.25005V6C8.25005 6.41421 7.91426 6.75 7.50005 6.75C7.08583 6.75 6.75005 6.41421 6.75005 6V5.25ZM10.25 11.5C10.25 11.0858 10.5857 10.75 11 10.75H17C17.4142 10.75 17.75 11.0858 17.75 11.5C17.75 11.9142 17.4142 12.25 17 12.25H11C10.5857 12.25 10.25 11.9142 10.25 11.5ZM11 14.75C10.5857 14.75 10.25 15.0858 10.25 15.5C10.25 15.9142 10.5857 16.25 11 16.25H17C17.4142 16.25 17.75 15.9142 17.75 15.5C17.75 15.0858 17.4142 14.75 17 14.75H11ZM6.25005 11.5C6.25005 11.0858 6.58583 10.75 7.00005 10.75H8.00005C8.41426 10.75 8.75005 11.0858 8.75005 11.5C8.75005 11.9142 8.41426 12.25 8.00005 12.25H7.00005C6.58583 12.25 6.25005 11.9142 6.25005 11.5ZM7.00005 14.75C6.58583 14.75 6.25005 15.0858 6.25005 15.5C6.25005 15.9142 6.58583 16.25 7.00005 16.25H8.00005C8.41426 16.25 8.75005 15.9142 8.75005 15.5C8.75005 15.0858 8.41426 14.75 8.00005 14.75H7.00005Z" fill="#1E2134"/>
</svg>
