<svg width="24" height="24" viewBox="0 0 24 24" fill="none" xmlns="http://www.w3.org/2000/svg">
<path fill-rule="evenodd" clip-rule="evenodd" d="M8.342 6.30102C7.65248 5.54633 6.45098 5.50954 5.63033 6.33019C4.78689 7.17362 4.75828 8.39748 5.53033 9.16953C6.33744 9.97664 7.56256 9.97664 8.36967 9.16953C9.17568 8.36352 9.17677 7.14062 8.37295 6.33347C8.36767 6.32825 8.36244 6.32293 8.35729 6.31751C8.35209 6.31208 8.347 6.30658 8.342 6.30102ZM9.44284 5.2821C8.13048 3.85353 5.94358 3.89562 4.56967 5.26953C3.2131 6.62609 3.04172 8.80224 4.46967 10.2302C5.86256 11.6231 8.03744 11.6231 9.43033 10.2302C10.819 8.84148 10.8232 6.67548 9.44284 5.2821ZM18.342 6.30107C17.6522 5.54633 16.351 5.50953 15.5303 6.33019C14.7232 7.1373 14.7232 8.36242 15.5303 9.16953C16.3374 9.97664 17.5626 9.97664 18.3697 9.16953C19.1757 8.36352 19.1768 7.14062 18.3729 6.33347C18.3677 6.32825 18.3624 6.32293 18.3573 6.31751C18.3521 6.31209 18.347 6.30661 18.342 6.30107ZM19.4428 5.28206C18.1298 3.85353 15.8436 3.89563 14.4697 5.26953C13.0768 6.66242 13.0768 8.8373 14.4697 10.2302C15.8626 11.6231 18.0374 11.6231 19.4303 10.2302C20.8191 8.84146 20.8232 6.67544 19.4428 5.28206ZM7 13.2499C3.78579 13.2499 1.25 15.7857 1.25 18.9999C1.25 19.4141 1.58579 19.7499 2 19.7499C2.41421 19.7499 2.75 19.4141 2.75 18.9999C2.75 16.6141 4.61421 14.7499 7 14.7499C9.38579 14.7499 11.25 16.6141 11.25 18.9999C11.25 19.4141 11.5858 19.7499 12 19.7499C12.4142 19.7499 12.75 19.4141 12.75 18.9999C12.75 16.6141 14.6142 14.7499 17 14.7499C19.3858 14.7499 21.25 16.6141 21.25 18.9999C21.25 19.4141 21.5858 19.7499 22 19.7499C22.4142 19.7499 22.75 19.4141 22.75 18.9999C22.75 15.7857 20.2142 13.2499 17 13.2499C14.8379 13.2499 12.9828 14.3972 12 16.1267C11.0172 14.3972 9.16207 13.2499 7 13.2499Z" fill="#1E2134"/>
</svg>
