<svg width="40" height="40" viewBox="0 0 40 40" fill="none" xmlns="http://www.w3.org/2000/svg">
<g clip-path="url(#clip0_1514_57001)">
<g filter="url(#filter0_dd_1514_57001)">
<path d="M20 28.0325C24.4183 28.0325 28 24.4363 28 20.0001C28 15.564 24.4183 11.9678 20 11.9678C15.5817 11.9678 12 15.564 12 20.0001C12 24.4363 15.5817 28.0325 20 28.0325Z" fill="#6822FB"/>
</g>
<g filter="url(#filter1_f_1514_57001)">
<path fill-rule="evenodd" clip-rule="evenodd" d="M34.0712 24.4479C33.6126 24.4035 33.1499 24.466 32.7197 24.6303C32.2894 24.7947 31.9033 25.0565 31.5918 25.3951L31.5912 25.3957L22.8318 34.802C25.4414 34.2949 27.8732 33.214 29.8563 31.4543C31.9618 29.586 33.4999 27.1663 34.2958 24.4701L34.0715 24.4479H34.0712ZM32.5262 24.1265C33.0348 23.9322 33.5817 23.8584 34.1238 23.9108L34.1243 23.9109L34.9889 23.9963L34.9052 24.304C34.1108 27.2226 32.4814 29.8472 30.216 31.8575C27.9437 33.8736 25.1182 35.024 22.1291 35.47L21.3653 35.5839L31.1931 25.0303L31.1936 25.0296C31.5618 24.6298 32.018 24.3207 32.5262 24.1265ZM18.2807 4.99805L8.97597 15.1187C8.55276 15.5787 8.01409 15.9176 7.41561 16.1006C6.81713 16.2836 6.18053 16.3039 5.57154 16.1594L5.57057 16.1592L5.18408 16.0703L5.26905 15.7934C6.11056 13.0548 7.70223 10.605 9.86473 8.72007C12.0272 6.83512 14.6746 5.58994 17.5085 5.12484L18.2807 4.99805ZM5.87554 15.6713C6.36688 15.7565 6.87182 15.7171 7.34394 15.5568C7.81605 15.3966 8.24019 15.1205 8.57738 14.7541L16.8 5.81034C14.2773 6.36664 11.9434 7.56845 10.0279 9.29748C8.11245 11.0265 6.6813 13.2232 5.87554 15.6713ZM34.8875 19.9418C34.8385 17.8291 34.3376 15.7513 33.4182 13.8473L33.9058 13.6132C34.8585 15.5865 35.3776 17.7398 35.4285 19.9293L34.8875 19.9418ZM29.7008 9.02727C28.3418 7.86057 26.7819 6.9494 25.0967 6.33799L25.2817 5.83093C27.0283 6.46464 28.6452 7.40906 30.0538 8.61832L29.7008 9.02727Z" fill="#C5FBFF"/>
<path fill-rule="evenodd" clip-rule="evenodd" d="M8.4739 10.2395C10.8392 7.46001 14.1177 5.60899 17.7245 5.0166L17.8125 5.549C14.4419 6.10256 11.3649 7.79598 9.09838 10.3449C6.83184 12.8937 5.51378 16.1428 5.36557 19.5464L6.59693 18.2042C6.96519 17.8041 7.42156 17.4947 7.93011 17.3005C8.43866 17.1062 8.98548 17.0324 9.52752 17.0847L12.1029 17.3384H12.1033C12.8119 17.4072 13.5269 17.3109 14.1919 17.0571C14.8568 16.8033 15.4536 16.399 15.9352 15.876M15.9353 15.8758L25.3281 5.66102L25.4978 5.72259C27.2445 6.35631 28.8614 7.30076 30.27 8.51008L30.4815 8.69175L21.5956 18.3558L21.5955 18.3559C21.1721 18.8159 20.6333 19.1549 20.0347 19.3379C19.436 19.5208 18.7992 19.541 18.1901 19.3964L18.1891 19.3962L15.9908 18.8568L15.9899 18.8566C15.4746 18.7345 14.936 18.7517 14.4296 18.9065C13.9232 19.0613 13.4674 19.3481 13.1092 19.7372L13.1086 19.738L6.68611 26.6645C7.51768 28.3769 8.77909 29.8704 10.1965 31.1472L19.0138 21.5658C19.3821 21.1657 19.8384 20.8564 20.347 20.6621C20.8555 20.4679 21.4023 20.394 21.9444 20.4464L21.9448 20.4465L24.5225 20.7C25.2313 20.7687 25.9463 20.6723 26.6114 20.4185C27.2764 20.1647 27.8733 19.7604 28.355 19.2374L33.9539 13.1462L34.1272 13.505C35.0799 15.4782 35.5991 17.6316 35.6499 19.821L35.6524 19.9287L34.0211 21.7224L34.0206 21.7229C33.5972 22.1829 33.0584 22.5219 32.4597 22.7048C31.8611 22.8877 31.2243 22.908 30.6152 22.7634L28.4131 22.2373C27.8977 22.115 27.3589 22.1321 26.8524 22.2869C26.3458 22.4416 25.8899 22.7285 25.5316 23.1177L15.3388 34.2027C16.9153 34.752 18.5735 35.0318 20.2435 35.0301H20.2441C20.9497 35.0309 21.6544 34.9805 22.3527 34.8791L22.3534 34.879C25.2338 34.4677 27.93 33.2231 30.1084 31.2992C32.2868 29.3753 33.8518 26.8567 34.6097 24.0549L35.1321 24.1954C34.3467 27.0989 32.7249 29.7092 30.4674 31.703C28.2099 33.6968 25.4157 34.9867 22.4307 35.4132C21.7065 35.5183 20.9756 35.5706 20.2437 35.5697C18.3733 35.5715 16.5181 35.2328 14.7697 34.57L14.3968 34.4288L25.1329 22.753C25.5563 22.2929 26.0951 21.9538 26.6938 21.7709C27.2925 21.588 27.9293 21.5678 28.5384 21.7124L30.7405 22.2385C31.2558 22.3608 31.7944 22.3437 32.3009 22.189C32.8073 22.0343 33.2632 21.7477 33.6215 21.3586L33.6219 21.3581L35.1061 19.7263C35.047 17.785 34.6063 15.8742 33.809 14.1023L28.7536 19.6023L28.7535 19.6024C28.2151 20.1869 27.5481 20.6389 26.8048 20.9225C26.0615 21.2062 25.2623 21.3139 24.4702 21.2371L21.8922 20.9835C21.4335 20.9391 20.9708 21.0015 20.5404 21.1659C20.1101 21.3302 19.7239 21.592 19.4124 21.9307L10.2356 31.9026L10.0367 31.728C8.45768 30.3416 7.0259 28.6778 6.11801 26.7289L6.04157 26.565L12.7107 19.3724C13.134 18.9124 13.6729 18.5734 14.2715 18.3905C14.8702 18.2076 15.5069 18.1873 16.1161 18.3319L16.117 18.3322L18.3154 18.8715L18.3163 18.8717C18.8315 18.9939 19.3702 18.9767 19.8766 18.822C20.383 18.6672 20.8387 18.3804 21.1968 17.9912L21.1969 17.991L29.7036 8.7393C28.4416 7.69651 27.015 6.8696 25.4818 6.29218L16.3339 16.2406L16.3338 16.2408C15.7955 16.8253 15.1284 17.2773 14.3851 17.561C13.6418 17.8446 12.8427 17.9523 12.0505 17.8755L12.0501 17.8754L9.4752 17.6219L9.47498 17.6218C9.01636 17.5775 8.55369 17.64 8.12341 17.8044C7.69313 17.9688 7.30699 18.2305 6.99541 18.5691L4.81055 20.9508V20.1916C4.81024 16.546 6.10856 13.0189 8.4739 10.2395" fill="black"/>
</g>
<path fill-rule="evenodd" clip-rule="evenodd" d="M34.0712 24.4479C33.6126 24.4035 33.1499 24.466 32.7197 24.6303C32.2894 24.7947 31.9033 25.0565 31.5918 25.3951L31.5912 25.3957L22.8318 34.802C25.4414 34.2949 27.8732 33.214 29.8563 31.4543C31.9618 29.586 33.4999 27.1663 34.2958 24.4701L34.0715 24.4479H34.0712ZM32.5262 24.1265C33.0348 23.9322 33.5817 23.8584 34.1238 23.9108L34.1243 23.9109L34.9889 23.9963L34.9052 24.304C34.1108 27.2226 32.4814 29.8472 30.216 31.8575C27.9437 33.8736 25.1182 35.024 22.1291 35.47L21.3653 35.5839L31.1931 25.0303L31.1936 25.0296C31.5618 24.6298 32.018 24.3207 32.5262 24.1265ZM18.2807 4.99805L8.97597 15.1187C8.55276 15.5787 8.01409 15.9176 7.41561 16.1006C6.81713 16.2836 6.18053 16.3039 5.57154 16.1594L5.57057 16.1592L5.18408 16.0703L5.26905 15.7934C6.11056 13.0548 7.70223 10.605 9.86473 8.72007C12.0272 6.83512 14.6746 5.58994 17.5085 5.12484L18.2807 4.99805ZM5.87554 15.6713C6.36688 15.7565 6.87182 15.7171 7.34394 15.5568C7.81605 15.3966 8.24019 15.1205 8.57738 14.7541L16.8 5.81034C14.2773 6.36664 11.9434 7.56845 10.0279 9.29748C8.11245 11.0265 6.6813 13.2232 5.87554 15.6713ZM34.8875 19.9418C34.8385 17.8291 34.3376 15.7513 33.4182 13.8473L33.9058 13.6132C34.8585 15.5865 35.3776 17.7398 35.4285 19.9293L34.8875 19.9418ZM29.7008 9.02727C28.3418 7.86057 26.7819 6.9494 25.0967 6.33799L25.2817 5.83093C27.0283 6.46464 28.6452 7.40906 30.0538 8.61832L29.7008 9.02727Z" fill="black"/>
<path fill-rule="evenodd" clip-rule="evenodd" d="M8.25759 10.3479C10.6229 7.56842 13.9014 5.7174 17.5082 5.125L17.5962 5.6574C14.2256 6.21096 11.1486 7.90438 8.88207 10.4533C6.61553 13.0021 5.29747 16.2512 5.14927 19.6548L6.38062 18.3126C6.74888 17.9125 7.20525 17.6031 7.7138 17.4089C8.22235 17.2146 8.76917 17.1408 9.31121 17.1931L11.8866 17.4468H11.887C12.5956 17.5156 13.3106 17.4193 13.9756 17.1655C14.6405 16.9117 15.2373 16.5074 15.7189 15.9844M15.719 15.9842L25.1118 5.76942L25.2815 5.83098C27.0281 6.46471 28.6451 7.40916 30.0537 8.61848L30.2652 8.80015L21.3793 18.4642L21.3792 18.4643C20.9558 18.9243 20.417 19.2633 19.8183 19.4463C19.2197 19.6292 18.5829 19.6494 17.9738 19.5048L17.9728 19.5046L15.7745 18.9652L15.7736 18.965C15.2583 18.8429 14.7197 18.8601 14.2133 19.0149C13.7069 19.1697 13.2511 19.4565 12.8929 19.8456L12.8923 19.8464L6.46981 26.7729C7.30137 28.4853 8.56278 29.9788 9.98018 31.2556L18.7975 21.6742C19.1658 21.2741 19.6221 20.9648 20.1307 20.7705C20.6392 20.5763 21.186 20.5024 21.7281 20.5548L21.7285 20.5549L24.3062 20.8084C25.015 20.8771 25.73 20.7807 26.395 20.5269C27.0601 20.2731 27.657 19.8688 28.1387 19.3458L33.7376 13.2546L33.9109 13.6134C34.8636 15.5866 35.3828 17.74 35.4336 19.9294L35.4361 20.0371L33.8048 21.8308L33.8043 21.8313C33.3809 22.2913 32.842 22.6303 32.2434 22.8132C31.6448 22.9961 31.008 23.0164 30.3989 22.8718L28.1968 22.3457C27.6814 22.2234 27.1426 22.2405 26.6361 22.3953C26.1295 22.55 25.6736 22.8369 25.3153 23.2261L15.1225 34.3111C16.699 34.8604 18.3572 35.1401 20.0272 35.1385H20.0278C20.7334 35.1393 21.4381 35.0889 22.1364 34.9875L22.137 34.9874C25.0174 34.5761 27.7137 33.3315 29.8921 31.4076C32.0705 29.4837 33.6355 26.9651 34.3934 24.1633L34.9158 24.3038C34.1304 27.2073 32.5086 29.8176 30.2511 31.8114C27.9936 33.8052 25.1994 35.0951 22.2143 35.5215C21.4902 35.6267 20.7592 35.679 20.0274 35.6781C18.1569 35.6799 16.3018 35.3412 14.5534 34.6784L14.1805 34.5372L24.9166 22.8614C25.34 22.4013 25.8788 22.0622 26.4775 21.8793C27.0762 21.6964 27.713 21.6762 28.3221 21.8208L30.5242 22.3469C31.0395 22.4692 31.5781 22.4521 32.0846 22.2974C32.591 22.1427 33.0469 21.8561 33.4052 21.467L33.4056 21.4665L34.8898 19.8346C34.8307 17.8934 34.39 15.9826 33.5927 14.2107L28.5373 19.7107L28.5372 19.7108C27.9988 20.2953 27.3318 20.7473 26.5885 21.0309C25.8452 21.3146 25.046 21.4223 24.2539 21.3455L21.6759 21.0919C21.2172 21.0475 20.7545 21.1099 20.3241 21.2743C19.8938 21.4386 19.5076 21.7004 19.1961 22.0391L10.0193 32.011L9.8204 31.8364C8.24137 30.45 6.80959 28.7862 5.9017 26.8373L5.82527 26.6734L12.4943 19.4808C12.9177 19.0208 13.4566 18.6818 14.0552 18.4989C14.6539 18.3159 15.2906 18.2957 15.8998 18.4403L15.9007 18.4406L18.0991 18.9799L18.1 18.9801C18.6152 19.1023 19.1539 19.0851 19.6603 18.9303C20.1666 18.7756 20.6224 18.4887 20.9805 18.0996L20.9806 18.0994L29.4873 8.8477C28.2253 7.80491 26.7987 6.97799 25.2655 6.40058L16.1176 16.349L16.1175 16.3491C15.5792 16.9337 14.9121 17.3857 14.1688 17.6694C13.4255 17.953 12.6264 18.0607 11.8342 17.9839L11.8338 17.9838L9.25889 17.7303L9.25867 17.7302C8.80005 17.6859 8.33738 17.7484 7.9071 17.9128C7.47682 18.0772 7.09069 18.3389 6.7791 18.6775L4.59424 21.0592V20.3C4.59393 16.6544 5.89225 13.1273 8.25759 10.3479" fill="black"/>
</g>
<defs>
<filter id="filter0_dd_1514_57001" x="0.0323448" y="0.000118256" width="39.9353" height="39.9998" filterUnits="userSpaceOnUse" color-interpolation-filters="sRGB">
<feFlood flood-opacity="0" result="BackgroundImageFix"/>
<feColorMatrix in="SourceAlpha" type="matrix" values="0 0 0 0 0 0 0 0 0 0 0 0 0 0 0 0 0 0 127 0" result="hardAlpha"/>
<feOffset/>
<feGaussianBlur stdDeviation="5.98383"/>
<feComposite in2="hardAlpha" operator="out"/>
<feColorMatrix type="matrix" values="0 0 0 0 0.406608 0 0 0 0 0.135208 0 0 0 0 0.983333 0 0 0 1 0"/>
<feBlend mode="normal" in2="BackgroundImageFix" result="effect1_dropShadow_1514_57001"/>
<feColorMatrix in="SourceAlpha" type="matrix" values="0 0 0 0 0 0 0 0 0 0 0 0 0 0 0 0 0 0 127 0" result="hardAlpha"/>
<feOffset/>
<feGaussianBlur stdDeviation="0.754717"/>
<feComposite in2="hardAlpha" operator="out"/>
<feColorMatrix type="matrix" values="0 0 0 0 0.179167 0 0 0 0 0.45825 0 0 0 0 1 0 0 0 0.65 0"/>
<feBlend mode="normal" in2="effect1_dropShadow_1514_57001" result="effect2_dropShadow_1514_57001"/>
<feBlend mode="normal" in="SourceGraphic" in2="effect2_dropShadow_1514_57001" result="shape"/>
</filter>
<filter id="filter1_f_1514_57001" x="2.65421" y="2.84171" width="35.1545" height="34.8986" filterUnits="userSpaceOnUse" color-interpolation-filters="sRGB">
<feFlood flood-opacity="0" result="BackgroundImageFix"/>
<feBlend mode="normal" in="SourceGraphic" in2="BackgroundImageFix" result="shape"/>
<feGaussianBlur stdDeviation="1.07817" result="effect1_foregroundBlur_1514_57001"/>
</filter>
<clipPath id="clip0_1514_57001">
<rect width="40" height="40" fill="white"/>
</clipPath>
</defs>
</svg>
