<svg width="24" height="24" viewBox="0 0 24 24" fill="none" xmlns="http://www.w3.org/2000/svg">
<path fill-rule="evenodd" clip-rule="evenodd" d="M1.19995 12.0003L12.0038 1.19995L22.8 12.0031L12.0038 22.8L1.19995 12.0003ZM5.17528 8.77779C4.71909 9.29123 3.76424 10.5413 3.76424 12.0003C3.76424 13.4651 4.72658 14.7192 5.18063 15.2289L7.51622 17.5663L7.5272 17.5556C8.46221 16.6413 10.0166 15.4396 11.7886 15.3481C11.3424 15.8454 10.3586 17.1101 10.3586 18.59C10.3586 20.0699 11.3424 21.3345 11.7886 21.8319L12.0038 22.0575L12.2191 21.8319C12.6652 21.3345 13.649 20.0699 13.649 18.59C13.649 17.1101 12.6652 15.8454 12.2191 15.3481C13.998 15.4399 15.5576 16.6507 16.4914 17.5663L18.8821 15.1738L18.8876 15.1674C19.3603 14.6242 20.2514 13.4098 20.2514 12.0003C20.2514 10.5854 19.3533 9.36693 18.8821 8.82693L16.5025 6.4455L16.4916 6.45625C15.5575 7.37179 13.998 8.58249 12.2191 8.67438C12.6652 8.17699 13.649 6.91238 13.649 5.43246C13.649 3.95256 12.6652 2.68793 12.2191 2.19056L12.0038 1.94321L11.7886 2.19056C11.3424 2.68793 10.3586 3.95256 10.3586 5.43246C10.3586 6.91238 11.3424 8.17699 11.7886 8.67438C10.0027 8.58214 8.4379 7.36229 7.50507 6.4455L5.17528 8.77779ZM5.6322 8.75869C8.51565 8.91127 10.8212 12.0003 10.8212 12.0003C10.8212 12.0003 8.51565 15.0894 5.6322 15.242C6.08104 14.7405 7.05977 13.4775 7.05977 12.0003C7.05977 10.5232 6.08104 9.26022 5.6322 8.75869ZM18.3835 8.75869C17.9346 9.26022 16.9559 10.5232 16.9559 12.0003C16.9559 13.4775 17.9346 14.7405 18.3835 15.242C15.5 15.0894 13.1945 12.0003 13.1945 12.0003C13.1945 12.0003 15.5 8.91127 18.3835 8.75869Z" fill="black"/>
</svg>
