<svg width="40" height="40" viewBox="0 0 40 40" fill="none" xmlns="http://www.w3.org/2000/svg">
<path d="M8.48409 10.9543L21.5552 3.1229C22.0063 2.85226 22.561 2.85226 23.0121 3.1229L31.2447 8.05455C32.0725 8.54857 32.2215 9.72564 31.5468 10.4302L28.7571 13.3428C28.2935 13.8282 27.5692 13.927 26.998 13.5833L23.0245 11.2034C22.5651 10.9285 21.998 10.9285 21.5386 11.2034L7.75562 19.546V12.2645C7.75562 11.7232 8.03293 11.2249 8.48409 10.9543Z" fill="#FA8C16"/>
<path d="M31.2736 31.9233L23.008 36.8764C22.5568 37.147 22.0022 37.147 21.5552 36.8764L8.48409 29.045C8.03293 28.7744 7.75562 28.2761 7.75562 27.7348V21.1321L14.4898 17.0811V23.701C14.4898 24.2423 14.7671 24.7406 15.2183 25.0069L21.5552 28.8045C22.0063 29.0751 22.561 29.0751 23.008 28.8045L27.0187 26.4031C27.5899 26.0594 28.3101 26.1582 28.7736 26.6436L31.5716 29.5476C32.2504 30.2479 32.1014 31.4292 31.2736 31.9233Z" fill="white"/>
</svg>
