<svg width="24" height="24" viewBox="0 0 24 24" fill="none" xmlns="http://www.w3.org/2000/svg">
<path d="M5.51995 8.45993C6.56283 8.45993 7.40995 7.61281 7.40995 6.56993C7.40995 5.52706 6.56283 4.67993 5.51995 4.67993C4.47708 4.67993 3.62995 5.52706 3.62995 6.56993C3.62995 7.61281 4.47708 8.45993 5.51995 8.45993Z" fill="black"/>
<path fill-rule="evenodd" clip-rule="evenodd" d="M6.59995 13.8599C6.59995 12.4154 7.23108 11.1161 8.23345 10.2284V10.2251C7.6192 9.79306 6.86995 9.53993 6.05995 9.53993H4.97995C2.89083 9.53993 1.19995 11.2308 1.19995 13.3199C1.19995 14.8286 2.0842 16.1279 3.35995 16.7354V17.6399C3.35995 18.2373 3.84258 18.7199 4.43995 18.7199H6.59995C7.19733 18.7199 7.67995 18.2373 7.67995 17.6399V16.9143C7.00495 16.0807 6.59995 15.0176 6.59995 13.8599ZM2.81995 13.3199C2.81995 12.7732 3.02245 12.2703 3.35995 11.8923V14.7476C3.02245 14.3696 2.81995 13.8667 2.81995 13.3199Z" fill="black"/>
<path d="M17.3186 14.7498C17.925 14.2759 18.6883 13.9935 19.5176 13.9935C19.9097 13.9935 20.287 14.0566 20.64 14.1732V11.8957C20.9775 12.2737 21.18 12.7766 21.18 13.3233C21.18 13.6716 21.0978 14.0008 20.9508 14.2924C21.4589 14.5151 21.9052 14.8525 22.257 15.2718C22.6015 14.7023 22.8 14.0346 22.8 13.3199C22.8 11.2308 21.1091 9.53993 19.02 9.53993H17.94C17.13 9.53993 16.3807 9.79306 15.7665 10.2251C16.7688 11.1161 17.4 12.4154 17.4 13.8599C17.4 14.1639 17.372 14.4613 17.3186 14.7498Z" fill="black"/>
<path d="M18.48 8.45993C19.5228 8.45993 20.37 7.61281 20.37 6.56993C20.37 5.52706 19.5228 4.67993 18.48 4.67993C17.4371 4.67993 16.59 5.52706 16.59 6.56993C16.59 7.61281 17.4371 8.45993 18.48 8.45993Z" fill="black"/>
<path d="M9.83995 6.83993C9.83995 8.03131 10.8086 8.99993 12 8.99993C13.1913 8.99993 14.16 8.03131 14.16 6.83993C14.16 5.64856 13.1913 4.67993 12 4.67993C10.8086 4.67993 9.83995 5.64856 9.83995 6.83993Z" fill="black"/>
<path fill-rule="evenodd" clip-rule="evenodd" d="M14.16 17.2754C15.4357 16.6679 16.32 15.3686 16.32 13.8599C16.32 11.7708 14.6291 10.0799 12.54 10.0799H11.46C9.37083 10.0799 7.67995 11.7708 7.67995 13.8599C7.67995 15.3686 8.5642 16.6679 9.83995 17.2754V18.7199C9.83995 19.3173 10.3226 19.7999 10.92 19.7999H13.08C13.6773 19.7999 14.16 19.3173 14.16 18.7199V17.2754ZM9.83995 15.2876C9.50245 14.9062 9.29995 14.4067 9.29995 13.8599C9.29995 13.3132 9.50245 12.8137 9.83995 12.4323V15.2876ZM14.16 15.2909V12.4357C14.4975 12.8137 14.7 13.3166 14.7 13.8633C14.7 14.4101 14.4975 14.9096 14.16 15.2909Z" fill="black"/>
<circle cx="19.5179" cy="18.0074" r="2.17411" fill="#E6007A"/>
</svg>
