<svg width="40" height="40" viewBox="0 0 40 40" fill="none" xmlns="http://www.w3.org/2000/svg">
<path fill-rule="evenodd" clip-rule="evenodd" d="M28.8881 6.69607C26.257 4.93804 23.1633 3.99981 19.9988 4C17.8981 4 15.8178 4.41385 13.8763 5.21788C11.9356 6.02191 10.1715 7.20035 8.68576 8.68596C7.20005 10.1717 6.0222 11.9353 5.21785 13.8764C4.41349 15.8175 4 17.8981 4 19.999C4 23.1636 4.93791 26.2572 6.69601 28.8886C8.45412 31.5198 10.9532 33.5707 13.8763 34.7818C16.8002 35.993 20.0176 36.3099 23.1211 35.6926C26.2253 35.0753 29.076 33.5513 31.314 31.3136C33.5513 29.0759 35.0755 26.225 35.6927 23.1212C36.3099 20.0174 35.993 16.8003 34.7819 13.8766C33.5709 10.953 31.52 8.45411 28.8881 6.69607ZM19.9988 33.9988C19.9988 33.9988 14.7795 27.7312 14.7795 19.999C14.7795 12.268 19.9988 6.00022 19.9988 6.00022C19.9988 6.00022 25.2187 12.267 25.2187 19.999C25.2187 27.7312 19.9988 33.9988 19.9988 33.9988Z" fill="#4FFFB0"/>
</svg>
