<svg width="24" height="24" viewBox="0 0 24 24" fill="none" xmlns="http://www.w3.org/2000/svg">
<path d="M22.5 12C22.5 6.20101 17.799 1.5 12 1.5C6.20101 1.5 1.5 6.20101 1.5 12C1.5 17.799 6.20101 22.5 12 22.5C17.799 22.5 22.5 17.799 22.5 12Z" fill="#11091B"/>
<path d="M12.0066 16.4343C14.4363 16.4343 16.406 14.4566 16.406 12.0171C16.406 9.5775 14.4363 7.59985 12.0066 7.59985C9.57686 7.59985 7.60718 9.5775 7.60718 12.0171C7.60718 14.4566 9.57686 16.4343 12.0066 16.4343Z" fill="#6822FB"/>
<path fill-rule="evenodd" clip-rule="evenodd" d="M19.7447 14.4628C19.4925 14.4384 19.2381 14.4728 19.0014 14.5632C18.7648 14.6536 18.5525 14.7976 18.3812 14.9838L18.3809 14.9841L13.5638 20.1569C14.9989 19.878 16.3362 19.2836 17.4268 18.3159C18.5847 17.2885 19.4305 15.9578 19.8682 14.475L19.7449 14.4628H19.7447ZM18.8951 14.2861C19.1748 14.1793 19.4755 14.1387 19.7736 14.1675L19.7739 14.1676L20.2494 14.2145L20.2033 14.3837C19.7665 15.9887 18.8704 17.4321 17.6246 18.5376C16.375 19.6463 14.8212 20.279 13.1774 20.5242L12.7574 20.5869L18.1619 14.7831L18.1622 14.7828C18.3647 14.5629 18.6156 14.3929 18.8951 14.2861ZM11.0611 3.76685L5.94415 9.33247C5.71141 9.58542 5.41519 9.77183 5.08607 9.87244C4.75694 9.97305 4.40686 9.98423 4.07196 9.90481L4.07143 9.90469L3.85889 9.85577L3.90562 9.70351C4.36838 8.19748 5.24369 6.85027 6.4329 5.81369C7.62212 4.7771 9.07798 4.09235 10.6364 3.83657L11.0611 3.76685ZM4.23914 9.63633C4.50934 9.68319 4.78702 9.66155 5.04665 9.57342C5.30628 9.48528 5.53953 9.33347 5.72495 9.13194L10.2468 4.21355C8.85952 4.51948 7.57604 5.18038 6.52266 6.13122C5.46928 7.08206 4.68225 8.29006 4.23914 9.63633ZM20.1936 11.9848C20.1667 10.823 19.8912 9.68034 19.3856 8.6333L19.6538 8.50458C20.1776 9.58971 20.4631 10.7739 20.4911 11.9779L20.1936 11.9848ZM17.3413 5.98262C16.594 5.34103 15.7361 4.83995 14.8094 4.50372L14.9111 4.22487C15.8716 4.57337 16.7608 5.09273 17.5354 5.75773L17.3413 5.98262Z" fill="#C5FBFF"/>
<path fill-rule="evenodd" clip-rule="evenodd" d="M5.66814 6.64954C6.96889 5.12104 8.77182 4.10311 10.7553 3.77734L10.8037 4.07012C8.9501 4.37454 7.25799 5.3058 6.01156 6.7075C4.76513 8.1092 4.04029 9.89595 3.95879 11.7677L4.63594 11.0296C4.83846 10.8095 5.08943 10.6394 5.3691 10.5326C5.64876 10.4258 5.94948 10.3851 6.24756 10.4139L7.66381 10.5535H7.66405C8.05375 10.5913 8.44693 10.5383 8.81261 10.3987C9.17829 10.2592 9.50648 10.0368 9.77131 9.74923M9.77137 9.74911L14.9367 4.13173L15.03 4.16558C15.9906 4.51409 16.8798 5.03347 17.6544 5.6985L17.7707 5.79841L12.8841 11.1129L12.8841 11.113C12.6513 11.366 12.3549 11.5524 12.0257 11.653C11.6965 11.7536 11.3463 11.7647 11.0114 11.6852L11.0108 11.6851L9.80187 11.3885L9.8014 11.3883C9.51802 11.3212 9.22181 11.3307 8.94333 11.4158C8.66486 11.5009 8.41421 11.6586 8.21725 11.8726L8.21689 11.873L4.68499 15.6821C5.14229 16.6238 5.83597 17.4451 6.61544 18.1473L11.4643 12.8782C11.6668 12.6582 11.9178 12.4881 12.1975 12.3812C12.4771 12.2744 12.7779 12.2338 13.0759 12.2626L13.0762 12.2626L14.4937 12.4021C14.8835 12.4399 15.2767 12.3869 15.6424 12.2473C16.0082 12.1077 16.3364 11.8854 16.6013 11.5978L19.6803 8.24803L19.7756 8.44535C20.2995 9.53046 20.585 10.7147 20.613 11.9187L20.6143 11.9779L19.7173 12.9643L19.717 12.9646C19.4841 13.2176 19.1878 13.404 18.8586 13.5046C18.5294 13.6052 18.1792 13.6163 17.8442 13.5368L16.6333 13.2475C16.3498 13.1802 16.0535 13.1896 15.775 13.2747C15.4964 13.3599 15.2457 13.5176 15.0487 13.7317L9.44332 19.8276C10.3103 20.1297 11.2222 20.2835 12.1406 20.2826H12.1409C12.5289 20.2831 12.9165 20.2553 13.3005 20.1996L13.3008 20.1995C14.8848 19.9733 16.3676 19.2888 17.5656 18.2309C18.7635 17.1729 19.6242 15.7878 20.0409 14.247L20.3282 14.3243C19.8963 15.921 19.0044 17.3565 17.763 18.4529C16.5215 19.5494 14.9849 20.2587 13.3433 20.4932C12.9451 20.551 12.5431 20.5798 12.1407 20.5793C11.1121 20.5803 10.0919 20.394 9.13037 20.0296L8.92532 19.9519L14.8294 13.5311C15.0622 13.278 15.3585 13.0916 15.6878 12.991C16.017 12.8904 16.3672 12.8793 16.7022 12.9588L17.9132 13.2481C18.1965 13.3154 18.4927 13.306 18.7712 13.2209C19.0498 13.1359 19.3005 12.9782 19.4975 12.7643L19.4977 12.764L20.3139 11.8666C20.2814 10.799 20.0391 9.74825 19.6006 8.77383L16.8205 11.7984L16.8204 11.7985C16.5244 12.1199 16.1575 12.3685 15.7488 12.5245C15.34 12.6805 14.9006 12.7397 14.465 12.6974L13.0472 12.558C12.795 12.5335 12.5405 12.5679 12.3039 12.6583C12.0672 12.7487 11.8548 12.8926 11.6835 13.0789L6.63697 18.5627L6.52757 18.4667C5.65922 17.7042 4.87185 16.7893 4.37257 15.7176L4.33054 15.6274L7.99805 11.672C8.23088 11.419 8.52721 11.2326 8.85642 11.132C9.18564 11.0314 9.53581 11.0203 9.87078 11.0998L9.87131 11.0999L11.0803 11.3965L11.0807 11.3966C11.3641 11.4639 11.6603 11.4544 11.9388 11.3693C12.2173 11.2842 12.4679 11.1264 12.6648 10.9124L12.6649 10.9123L17.343 5.82456C16.6489 5.2511 15.8644 4.79636 15.0212 4.47882L9.99057 9.94975L9.99051 9.94981C9.69448 10.2713 9.32764 10.5198 8.91889 10.6758C8.51014 10.8318 8.07064 10.891 7.63504 10.8488L7.6348 10.8487L6.21878 10.7093L6.21866 10.7093C5.96645 10.6849 5.71202 10.7193 5.4754 10.8097C5.23878 10.9001 5.02643 11.044 4.85508 11.2302L3.65356 12.54V12.1225C3.6534 10.1177 4.36738 8.17804 5.66814 6.64954" fill="white"/>
<path fill-rule="evenodd" clip-rule="evenodd" d="M19.7445 14.4628C19.4923 14.4384 19.2378 14.4728 19.0012 14.5632C18.7646 14.6536 18.5523 14.7976 18.3809 14.9838L18.3806 14.9841L13.5636 20.1569C14.9987 19.878 16.336 19.2836 17.4266 18.3159C18.5845 17.2885 19.4303 15.9578 19.8679 14.475L19.7446 14.4628H19.7445ZM18.8948 14.2861C19.1745 14.1793 19.4753 14.1387 19.7734 14.1675L19.7737 14.1676L20.2492 14.2145L20.2031 14.3837C19.7662 15.9887 18.8702 17.4321 17.6244 18.5376C16.3748 19.6463 14.821 20.279 13.1771 20.5242L12.7571 20.5869L18.1617 14.7831L18.162 14.7828C18.3645 14.5629 18.6153 14.3929 18.8948 14.2861ZM11.0608 3.76685L5.94391 9.33247C5.71117 9.58542 5.41494 9.77183 5.08582 9.87244C4.7567 9.97305 4.40662 9.98423 4.07172 9.90481L4.07118 9.90469L3.85864 9.85577L3.90537 9.70351C4.36814 8.19748 5.24344 6.85027 6.43266 5.81369C7.62187 4.7771 9.07773 4.09235 10.6362 3.83657L11.0608 3.76685ZM4.2389 9.63633C4.5091 9.68319 4.78678 9.66155 5.0464 9.57342C5.30603 9.48528 5.53928 9.33347 5.72471 9.13194L10.2465 4.21355C8.85928 4.51948 7.57579 5.18038 6.52241 6.13122C5.46903 7.08206 4.682 8.29006 4.2389 9.63633ZM20.1934 11.9848C20.1664 10.823 19.891 9.68034 19.3854 8.6333L19.6535 8.50458C20.1774 9.58971 20.4629 10.7739 20.4909 11.9779L20.1934 11.9848ZM17.3411 5.98262C16.5937 5.34103 15.7359 4.83995 14.8092 4.50372L14.9109 4.22487C15.8714 4.57337 16.7606 5.09273 17.5352 5.75773L17.3411 5.98262Z" fill="white"/>
<path fill-rule="evenodd" clip-rule="evenodd" d="M5.54925 6.70862C6.85 5.18013 8.65292 4.1622 10.6364 3.83643L10.6848 4.12921C8.8312 4.43362 7.13909 5.36488 5.89266 6.76658C4.64623 8.16828 3.9214 9.95504 3.83989 11.8268L4.51705 11.0886C4.71956 10.8686 4.97054 10.6985 5.2502 10.5917C5.52986 10.4848 5.83058 10.4442 6.12866 10.473L7.54492 10.6125H7.54515C7.93486 10.6503 8.32804 10.5974 8.69372 10.4578C9.0594 10.3183 9.38758 10.0959 9.65242 9.80831M9.65248 9.80819L14.8178 4.19081L14.9112 4.22467C15.8717 4.57317 16.7609 5.09255 17.5355 5.75758L17.6518 5.85749L12.7652 11.172L12.7652 11.1721C12.5324 11.4251 12.236 11.6115 11.9068 11.7121C11.5776 11.8127 11.2274 11.8238 10.8925 11.7443L10.8919 11.7442L9.68298 11.4475L9.6825 11.4474C9.39912 11.3803 9.10291 11.3897 8.82444 11.4749C8.54596 11.56 8.29531 11.7177 8.09835 11.9317L8.098 11.9321L4.56609 15.7412C5.0234 16.6829 5.71708 17.5042 6.49655 18.2063L11.3454 12.9373C11.5479 12.7173 11.7989 12.5472 12.0786 12.4403C12.3582 12.3335 12.659 12.2929 12.957 12.3217L12.9573 12.3217L14.3748 12.4612C14.7646 12.4989 15.1578 12.4459 15.5235 12.3064C15.8893 12.1668 16.2175 11.9444 16.4824 11.6568L19.5614 8.30711L19.6567 8.50443C20.1806 9.58954 20.4661 10.7737 20.4941 11.9778L20.4954 12.037L19.5984 13.0234L19.5981 13.0237C19.3652 13.2766 19.0689 13.463 18.7397 13.5636C18.4105 13.6642 18.0603 13.6754 17.7254 13.5959L16.5144 13.3066C16.2309 13.2393 15.9346 13.2487 15.6561 13.3338C15.3775 13.4189 15.1268 13.5767 14.9298 13.7907L9.32442 19.8867C10.1914 20.1887 11.1033 20.3426 12.0217 20.3417H12.022C12.41 20.3421 12.7976 20.3144 13.1816 20.2587L13.1819 20.2586C14.766 20.0324 16.2487 19.3479 17.4467 18.2899C18.6446 17.232 19.5053 15.8469 19.922 14.3061L20.2093 14.3834C19.7774 15.9801 18.8855 17.4155 17.6441 18.512C16.4026 19.6085 14.866 20.3178 13.2244 20.5523C12.8262 20.6101 12.4242 20.6389 12.0218 20.6384C10.9932 20.6394 9.973 20.4531 9.01147 20.0887L8.80642 20.011L14.7105 13.5902C14.9433 13.3371 15.2396 13.1507 15.5689 13.0501C15.8981 12.9495 16.2483 12.9384 16.5833 13.0179L17.7943 13.3072C18.0776 13.3745 18.3738 13.3651 18.6524 13.28C18.9309 13.1949 19.1816 13.0373 19.3786 12.8233L19.3788 12.823L20.195 11.9257C20.1625 10.8581 19.9202 9.80733 19.4817 8.83291L16.7016 11.8575L16.7015 11.8575C16.4055 12.179 16.0387 12.4275 15.6299 12.5835C15.2212 12.7395 14.7817 12.7988 14.3461 12.7565L12.9283 12.6171C12.6761 12.5926 12.4216 12.627 12.185 12.7173C11.9483 12.8077 11.736 12.9517 11.5646 13.1379L6.51807 18.6218L6.40868 18.5257C5.54033 17.7633 4.75295 16.8484 4.25368 15.7766L4.21164 15.6865L7.87915 11.7311C8.11199 11.4781 8.40831 11.2917 8.73752 11.1911C9.06674 11.0905 9.41691 11.0794 9.75188 11.1588L9.75241 11.159L10.9614 11.4556L10.9618 11.4557C11.2452 11.5229 11.5414 11.5135 11.8199 11.4284C12.0984 11.3432 12.349 11.1855 12.5459 10.9715L12.546 10.9714L17.2241 5.88364C16.53 5.31018 15.7455 4.85544 14.9024 4.5379L9.87168 10.0088L9.87162 10.0089C9.57559 10.3304 9.20874 10.5789 8.79999 10.7349C8.39124 10.8909 7.95175 10.9501 7.51614 10.9079L7.5159 10.9078L6.09989 10.7684L6.09977 10.7684C5.84756 10.744 5.59312 10.7784 5.3565 10.8688C5.11988 10.9592 4.90753 11.1031 4.73619 11.2893L3.53467 12.5991V12.1816C3.5345 10.1768 4.24848 8.23712 5.54925 6.70862" fill="white"/>
</svg>
