<svg width="24" height="24" viewBox="0 0 24 24" fill="none" xmlns="http://www.w3.org/2000/svg">
<path fill-rule="evenodd" clip-rule="evenodd" d="M17.3328 4.01755C15.7541 2.96272 13.8979 2.39979 11.9992 2.3999C10.7388 2.3999 9.49057 2.64821 8.3257 3.13063C7.16127 3.61305 6.10279 4.32011 5.21136 5.21148C4.31993 6.1029 3.61322 7.1611 3.13061 8.32574C2.648 9.49043 2.3999 10.7387 2.3999 11.9993C2.3999 13.8981 2.96265 15.7542 4.01751 17.333C5.07237 18.9118 6.57182 20.1423 8.3257 20.869C10.08 21.5957 12.0105 21.7859 13.8726 21.4155C15.7351 21.0451 17.4455 20.1307 18.7883 18.7881C20.1307 17.4454 21.0452 15.7349 21.4155 13.8726C21.7858 12.0104 21.5957 10.0801 20.8691 8.32585C20.1424 6.57169 18.9119 5.07237 17.3328 4.01755ZM11.9992 20.3992C11.9992 20.3992 8.86762 16.6386 8.86762 11.9993C8.86762 7.36067 11.9992 3.60003 11.9992 3.60003C11.9992 3.60003 15.1311 7.36011 15.1311 11.9993C15.1311 16.6386 11.9992 20.3992 11.9992 20.3992Z" fill="#4FFFB0"/>
</svg>
