<svg width="24" height="24" viewBox="0 0 24 24" fill="none" xmlns="http://www.w3.org/2000/svg">
<g clip-path="url(#clip0_1532_63417)">
<path d="M22.5 12C22.5 6.20101 17.799 1.5 12 1.5C6.20101 1.5 1.5 6.20101 1.5 12C1.5 17.799 6.20101 22.5 12 22.5C17.799 22.5 22.5 17.799 22.5 12Z" fill="#11091B"/>
<path d="M12.041 13.8867H6.75L14.6865 6.01172H17.332L12.041 13.8867Z" fill="url(#paint0_linear_1532_63417)"/>
<path opacity="0.7" d="M1.5 16.0195C1.5 16.0195 6.29883 17.8607 12.2051 17.8607C18.1113 17.8607 22.5 16.0195 22.5 16.0195V23.3203H1.5V16.0195Z" fill="url(#paint1_linear_1532_63417)"/>
<path d="M1.5 17.9547C1.5 17.9547 7.36523 17.0859 12 17.0859C16.6348 17.0859 22.5 17.9547 22.5 17.9547V23.1562H1.5V17.9547Z" fill="url(#paint2_linear_1532_63417)"/>
<path d="M1.5 18.1188C1.5 18.1188 7.36523 17.25 12 17.25C16.6348 17.25 22.5 18.1188 22.5 18.1188" stroke="url(#paint3_linear_1532_63417)" stroke-width="4.2"/>
<path d="M7.86209 18.3894C7.70128 18.3894 7.54629 18.4096 7.48317 18.4267C7.39131 18.4525 7.36839 18.4927 7.3511 18.5761L6.98655 20.2582C6.98072 20.2926 6.9751 20.3213 6.9751 20.35C6.9751 20.4334 7.02968 20.4877 7.11863 20.4877C7.21632 20.4877 7.25653 20.4246 7.27653 20.3269L7.37985 19.8476C7.45151 19.8561 7.54629 19.8649 7.68128 19.8649C8.2756 19.8649 8.64577 19.5435 8.64577 19.0583C8.64577 18.6333 8.34996 18.3894 7.86209 18.3894ZM7.6669 19.5893C7.57504 19.5893 7.50317 19.5864 7.43734 19.5778L7.62962 18.685C7.68982 18.6765 7.77898 18.6648 7.87084 18.6648C8.18665 18.6648 8.34746 18.8142 8.34746 19.061C8.34725 19.3768 8.11749 19.5893 7.6669 19.5893Z" fill="white"/>
<path d="M17.2143 19.9336C17.1656 19.9336 17.1339 19.9624 17.0737 20.0284C16.9675 20.1376 16.9014 20.1978 16.8183 20.1978C16.7437 20.1978 16.7035 20.1376 16.7035 20.0399C16.7035 19.9853 16.715 19.9193 16.7293 19.8476L16.8356 19.3481H17.1543C17.2547 19.3481 17.3151 19.2906 17.3151 19.1872C17.3151 19.1297 17.2778 19.0868 17.1918 19.0868H16.8929L16.9445 18.8544C16.9504 18.82 16.956 18.7883 16.956 18.7596C16.956 18.6792 16.9014 18.6217 16.8125 18.6217C16.7177 18.6217 16.6748 18.6848 16.6546 18.7825L16.5885 19.0868H16.4535C16.3502 19.0868 16.29 19.1443 16.29 19.2477C16.29 19.3051 16.3302 19.3481 16.4163 19.3481H16.534L16.4277 19.8418C16.4163 19.8963 16.4019 19.9853 16.4019 20.0772C16.4019 20.3096 16.5225 20.479 16.7808 20.479C16.9302 20.479 17.062 20.4044 17.1626 20.3153C17.2603 20.2292 17.332 20.123 17.332 20.054C17.332 19.9882 17.2803 19.9336 17.2143 19.9336Z" fill="white"/>
<path d="M10.612 18.5588C10.612 18.4754 10.5545 18.4209 10.4656 18.4209C10.3708 18.4209 10.3279 18.484 10.3077 18.5817L9.94897 20.2494C9.94043 20.2838 9.9346 20.3125 9.9346 20.3413C9.9346 20.4246 9.99209 20.479 10.0781 20.479C10.1758 20.479 10.2187 20.4159 10.2389 20.3182L10.5977 18.6506C10.6035 18.616 10.612 18.5875 10.612 18.5588Z" fill="white"/>
<path d="M15.7359 19.0581C15.2766 19.0581 14.9637 19.5145 14.9637 19.948C14.9637 19.9561 14.9639 19.9642 14.9641 19.9722C14.892 20.0815 14.8 20.1949 14.7368 20.1949C14.691 20.1949 14.6737 20.1517 14.6737 20.0857C14.6737 20.0053 14.6966 19.8703 14.7225 19.7526L14.9608 18.6502C14.9666 18.6158 14.9722 18.5871 14.9722 18.5583C14.9722 18.475 14.9177 18.4204 14.8287 18.4204C14.731 18.4204 14.691 18.4836 14.6708 18.5813L14.5416 19.1783C14.4727 19.1066 14.3721 19.0577 14.22 19.0577C13.915 19.0577 13.6082 19.2924 13.4886 19.6526C13.357 19.993 13.2393 20.1944 13.1464 20.1944C13.112 20.1944 13.0918 20.1657 13.0918 20.1169C13.0918 19.9734 13.1722 19.6232 13.2066 19.4539C13.218 19.3908 13.2239 19.3649 13.2239 19.3276C13.2239 19.2014 13.0143 19.052 12.7416 19.052C12.4262 19.052 12.1406 19.2518 11.9975 19.5485C11.7848 19.9243 11.5896 20.1944 11.493 20.1944C11.4499 20.1944 11.4355 20.1399 11.424 20.0882L11.3526 19.6926L11.7917 19.3339C11.8319 19.2995 11.8836 19.2506 11.8836 19.1875C11.8836 19.11 11.8319 19.0583 11.7544 19.0583C11.6969 19.0583 11.6482 19.0927 11.5994 19.1329L10.9393 19.6782L11.1603 18.6506C11.1661 18.6163 11.1747 18.5875 11.1747 18.5588C11.1747 18.4754 11.1172 18.4209 11.0282 18.4209C10.9335 18.4209 10.8905 18.484 10.8703 18.5817L10.5116 20.2494C10.5031 20.2838 10.4973 20.3125 10.4973 20.3413C10.4973 20.4246 10.5547 20.479 10.6408 20.479C10.7385 20.479 10.7814 20.4159 10.8016 20.3182L10.8476 20.103L11.1174 19.8849L11.1834 20.2178C11.2093 20.3498 11.2782 20.479 11.4561 20.479C11.6332 20.479 11.7725 20.3173 11.9121 20.0988C11.9544 20.3278 12.1173 20.479 12.3433 20.479C12.5702 20.479 12.7252 20.344 12.8256 20.1632V20.169C12.8256 20.3557 12.9203 20.479 13.0868 20.479C13.2374 20.479 13.3624 20.3882 13.474 20.1953C13.5374 20.3634 13.679 20.479 13.8761 20.479C14.1086 20.479 14.275 20.3384 14.3812 20.1432V20.1605C14.3812 20.3671 14.4846 20.4792 14.6539 20.4792C14.8035 20.4792 14.9306 20.3923 15.0391 20.2511C15.1216 20.3923 15.2695 20.4792 15.4693 20.4792C15.9286 20.4792 16.2415 20.0228 16.2415 19.5864C16.2413 19.2791 16.0546 19.0581 15.7359 19.0581ZM12.8741 19.6409C12.7908 19.9997 12.6129 20.2036 12.4119 20.2036C12.2769 20.2036 12.2023 20.1003 12.2023 19.9453C12.2023 19.6409 12.4233 19.3137 12.7189 19.3137C12.8079 19.3137 12.8768 19.3395 12.937 19.3768L12.8741 19.6409ZM14.4729 19.4889C14.381 19.9109 14.1715 20.2036 13.9419 20.2036C13.8157 20.2036 13.7409 20.1059 13.7409 19.9453C13.7409 19.6382 13.9534 19.3195 14.2375 19.3195C14.3467 19.3195 14.4298 19.3568 14.4902 19.4056L14.4729 19.4889ZM15.5034 20.2036C15.337 20.2036 15.268 20.083 15.268 19.9309C15.268 19.6524 15.4603 19.3339 15.7015 19.3339C15.868 19.3339 15.9369 19.4545 15.9369 19.6066C15.9369 19.8878 15.7447 20.2036 15.5034 20.2036Z" fill="white"/>
<path d="M9.36049 19.0581C8.90116 19.0581 8.58827 19.5145 8.58827 19.948C8.58827 20.258 8.77492 20.479 9.09343 20.479C9.55276 20.479 9.86565 20.0226 9.86565 19.5862C9.86565 19.2791 9.679 19.0581 9.36049 19.0581ZM9.12801 20.2036C8.96157 20.2036 8.89262 20.083 8.89262 19.9309C8.89262 19.6524 9.08489 19.3339 9.32612 19.3339C9.49256 19.3339 9.56151 19.4545 9.56151 19.6066C9.5613 19.8878 9.36903 20.2036 9.12801 20.2036Z" fill="white"/>
</g>
<defs>
<linearGradient id="paint0_linear_1532_63417" x1="12.041" y1="6.01172" x2="12.041" y2="13.8867" gradientUnits="userSpaceOnUse">
<stop stop-color="#7AEDCF"/>
<stop offset="0.201333" stop-color="#68CEFA"/>
<stop offset="0.403244" stop-color="#689CF8"/>
<stop offset="0.602076" stop-color="#AC57C0"/>
<stop offset="0.801867" stop-color="#E65659"/>
<stop offset="1" stop-color="#F2C241"/>
</linearGradient>
<linearGradient id="paint1_linear_1532_63417" x1="1.5" y1="16.0195" x2="22.7871" y2="19.752" gradientUnits="userSpaceOnUse">
<stop stop-color="#9E3BFF"/>
<stop offset="1" stop-color="#6D55FF"/>
</linearGradient>
<linearGradient id="paint2_linear_1532_63417" x1="1.5" y1="16.8932" x2="22.5" y2="16.8932" gradientUnits="userSpaceOnUse">
<stop stop-color="#9E3BFF"/>
<stop offset="1" stop-color="#492CFF"/>
</linearGradient>
<linearGradient id="paint3_linear_1532_63417" x1="1.5" y1="19.2598" x2="22.5" y2="19.1367" gradientUnits="userSpaceOnUse">
<stop stop-color="white" stop-opacity="0"/>
<stop offset="0.500885" stop-color="#9F7BFF"/>
<stop offset="1" stop-color="white" stop-opacity="0"/>
</linearGradient>
<clipPath id="clip0_1532_63417">
<rect x="1.5" y="1.5" width="21" height="21" rx="10.5" fill="white"/>
</clipPath>
</defs>
</svg>
