<svg width="40" height="40" viewBox="0 0 40 40" fill="none" xmlns="http://www.w3.org/2000/svg">
<path fill-rule="evenodd" clip-rule="evenodd" d="M2 20.0006L20.0064 2L38 20.0053L20.0064 38L2 20.0006ZM8.62555 14.6297C7.86523 15.4855 6.27381 17.5689 6.27381 20.0006C6.27381 22.4419 7.87772 24.5321 8.63446 25.3816L12.5271 29.2773L12.5454 29.2594C14.1038 27.7355 16.6943 25.7327 19.6477 25.5802C18.9041 26.4091 17.2645 28.5169 17.2645 30.9834C17.2645 33.4499 18.9041 35.5576 19.6477 36.3866L20.0064 36.7625L20.3652 36.3866C21.1087 35.5576 22.7484 33.4499 22.7484 30.9834C22.7484 28.5169 21.1087 26.4091 20.3652 25.5802C23.3301 25.7333 25.9293 27.7512 27.4858 29.2773L31.4702 25.2897L31.4794 25.2791C32.2673 24.3738 33.7524 22.3497 33.7524 20.0006C33.7524 17.6424 32.2556 15.6116 31.4702 14.7116L27.5043 10.7426L27.486 10.7605C25.9292 12.2864 23.33 14.3042 20.3652 14.4574C21.1087 13.6284 22.7484 11.5207 22.7484 9.05418C22.7484 6.58768 21.1087 4.47996 20.3652 3.65101L20.0064 3.23877L19.6477 3.65101C18.9041 4.47996 17.2645 6.58768 17.2645 9.05418C17.2645 11.5207 18.9041 13.6284 19.6477 14.4574C16.6712 14.3036 14.0633 12.2706 12.5085 10.7426L8.62555 14.6297ZM9.38708 14.5979C14.1928 14.8522 18.0353 20.0006 18.0353 20.0006C18.0353 20.0006 14.1928 25.1491 9.38708 25.4034C10.1352 24.5675 11.7664 22.4626 11.7664 20.0006C11.7664 17.5387 10.1352 15.4338 9.38708 14.5979ZM30.6392 14.5979C29.8911 15.4338 28.2599 17.5387 28.2599 20.0006C28.2599 22.4626 29.8911 24.5675 30.6392 25.4034C25.8335 25.1491 21.9909 20.0006 21.9909 20.0006C21.9909 20.0006 25.8335 14.8522 30.6392 14.5979Z" fill="black"/>
</svg>
