<svg width="24" height="24" viewBox="0 0 24 24" fill="none" xmlns="http://www.w3.org/2000/svg">
<path d="M22 12.6002H2.01773C2.06571 13.4099 2.21011 14.1937 2.43963 14.9402L11.0391 14.9401L11.5772 14.2001H21.7747C21.8914 13.6809 21.9676 13.1465 22 12.6002Z" fill="black"/>
<path d="M21.1223 16.1402H2.89545C3.28314 16.9907 3.78659 17.7775 4.38569 18.4803L8.46485 18.4802L9.00296 17.7402H20.2056C20.558 17.2387 20.8655 16.7035 21.1223 16.1402Z" fill="black"/>
<path d="M18.4191 19.6803H5.59864C7.33503 21.1285 9.57008 22 12.0089 22C14.4476 22 16.6827 21.1285 18.4191 19.6803Z" fill="black"/>
<path d="M2.01771 11.4002C2.06565 10.5905 2.21002 9.80672 2.4395 9.06017H21.5782C21.737 9.5769 21.8551 10.1115 21.9286 10.6601H14.1515L13.6134 11.4001L2.01771 11.4002Z" fill="black"/>
<path d="M16.1876 7.86007L16.7258 7.12007H20.7471C20.4275 6.55002 20.0537 6.01444 19.6325 5.52031H4.38518C3.78621 6.2231 3.28287 7.00975 2.89526 7.86017L16.1876 7.86007Z" fill="black"/>
<path d="M5.59792 4.32031H18.4198C16.6833 2.8717 14.448 2 12.0089 2C9.56974 2 7.33441 2.8717 5.59792 4.32031Z" fill="black"/>
<path d="M2.00009 11.9564C2.00003 11.971 2 11.9855 2 12C2 12.0145 2.00003 12.029 2.00009 12.0436V11.9564Z" fill="black"/>
</svg>
