<svg width="24" height="24" viewBox="0 0 24 24" fill="none" xmlns="http://www.w3.org/2000/svg">
<path d="M5.0904 6.5728L12.9331 1.87398C13.2037 1.7116 13.5365 1.7116 13.8072 1.87398L18.7467 4.83297C19.2434 5.12939 19.3328 5.83563 18.928 6.25834L17.2542 8.00589C16.9761 8.29715 16.5415 8.35644 16.1988 8.15024L13.8147 6.72229C13.539 6.55733 13.1988 6.55733 12.9231 6.72229L4.65332 11.7278V7.35894C4.65332 7.03417 4.81971 6.73518 5.0904 6.5728Z" fill="#FA8C16"/>
<path d="M18.7641 19.154L13.8047 22.1259C13.534 22.2882 13.2013 22.2882 12.9331 22.1259L5.0904 17.427C4.81971 17.2647 4.65332 16.9657 4.65332 16.6409V12.6793L8.69385 10.2487V14.2206C8.69385 14.5454 8.86024 14.8444 9.13093 15.0042L12.9331 17.2827C13.2037 17.4451 13.5365 17.4451 13.8047 17.2827L16.2112 15.8419C16.5539 15.6357 16.986 15.695 17.2641 15.9862L18.9429 17.7286C19.3502 18.1487 19.2608 18.8576 18.7641 19.154Z" fill="white"/>
</svg>
