<svg width="40" height="40" viewBox="0 0 40 40" fill="none" xmlns="http://www.w3.org/2000/svg">
<g clip-path="url(#clip0_1514_57036)">
<mask id="mask0_1514_57036" style="mask-type:alpha" maskUnits="userSpaceOnUse" x="2" y="2" width="36" height="36">
<path d="M20 38C29.9411 38 38 29.9411 38 20C38 10.0589 29.9411 2 20 2C10.0589 2 2 10.0589 2 20C2 29.9411 10.0589 38 20 38Z" fill="white"/>
</mask>
<g mask="url(#mask0_1514_57036)">
<rect x="-1.6001" y="-1.59961" width="43.2" height="43.2" fill="#E6007A"/>
<g filter="url(#filter0_f_1514_57036)">
<path fill-rule="evenodd" clip-rule="evenodd" d="M39.44 -2.13983C32.4199 16.7602 12.819 16.7018 9.73989 26.4802C5.19095 40.9265 29.5644 63.7737 44.2998 45.9203C57.0226 30.5055 44.8312 -16.6546 39.44 -2.13983Z" fill="#921FC0"/>
</g>
<g filter="url(#filter1_f_1514_57036)">
<path fill-rule="evenodd" clip-rule="evenodd" d="M46.9989 11.359C35.6612 23.0839 25.9388 17.839 18.0981 23.9635C12.7544 28.1376 22.9858 39.6535 19.9999 48.6201C17.3019 56.7221 38.9159 61.1961 46.9988 55.6392C60.7097 46.213 56.6576 1.37042 46.9989 11.359Z" fill="url(#paint0_radial_1514_57036)"/>
</g>
</g>
<path d="M11.1616 11.5845V12.8892C11.3396 12.4802 11.6389 12.1357 12.019 11.9024C12.3991 11.6691 12.8418 11.5581 13.287 11.5845H14.4621V13.2348H12.9933C11.6886 13.2348 11.1875 13.8482 11.1875 15.3516V17.7362H13.9523V19.2828H7.2131V17.7362H9.13118V13.1484H7.2131V11.5845H11.1616Z" fill="white"/>
<path d="M20.0003 19.4729C18.1081 19.4729 16.3197 18.3842 16.3197 15.438C16.3197 12.4917 18.1081 11.4204 20.0003 11.4204C21.8925 11.4204 23.6723 12.4917 23.6723 15.438C23.6723 18.3842 21.8752 19.4729 20.0003 19.4729ZM20.0003 12.9324C19.0153 12.9324 18.3846 13.6668 18.3846 15.438C18.3846 17.2092 19.0153 17.9522 20.0003 17.9522C20.9853 17.9522 21.616 17.2092 21.616 15.438C21.616 13.6668 20.9853 12.9324 20.0003 12.9324Z" fill="white"/>
<path d="M32.632 14.3666H30.688C30.567 13.5458 30.1869 12.9324 29.271 12.9324C28.3552 12.9324 27.7763 13.7186 27.7763 15.4466C27.7763 17.1746 28.3465 17.9522 29.2624 17.9522C29.8931 17.9522 30.5325 17.6412 30.7225 16.4661H32.7011C32.616 17.313 32.211 18.0956 31.5689 18.6543C30.9267 19.213 30.0956 19.5057 29.2451 19.4729C26.9987 19.4729 25.7286 17.7449 25.7286 15.4466C25.7286 13.1484 27.0333 11.4204 29.2883 11.4204C30.1173 11.3884 30.9268 11.6764 31.5493 12.2249C32.1717 12.7733 32.5594 13.5402 32.632 14.3666Z" fill="white"/>
<path d="M10.7555 29.9359C8.87198 29.9359 7.0835 28.8473 7.0835 25.901C7.0835 22.9548 8.87198 21.8834 10.7555 21.8834C12.639 21.8834 14.4361 22.9548 14.4361 25.901C14.4361 28.8473 12.6304 29.9359 10.7555 29.9359ZM10.7555 23.3954C9.77054 23.3954 9.13982 24.1298 9.13982 25.901C9.13982 27.6722 9.77054 28.4153 10.7555 28.4153C11.7405 28.4153 12.3798 27.6722 12.3798 25.901C12.3798 24.1298 11.7491 23.3954 10.7555 23.3954Z" fill="white"/>
<path d="M23.3872 24.8297H21.4432C21.3309 24.0089 20.9421 23.3954 20.0262 23.3954C19.1104 23.3954 18.5401 24.1817 18.5401 25.9183C18.5401 27.6549 19.1363 28.4153 20.0003 28.4153C20.631 28.4153 21.279 28.1042 21.4605 26.9292H23.4563C23.3692 27.7753 22.9637 28.5566 22.322 29.1149C21.6802 29.6732 20.8503 29.9667 20.0003 29.9359C17.7539 29.9359 16.4838 28.2079 16.4838 25.9183C16.4838 23.6287 17.7798 21.8834 20.0435 21.8834C20.8736 21.8471 21.6855 22.1336 22.3089 22.6829C22.9323 23.2322 23.3187 24.0016 23.3872 24.8297Z" fill="white"/>
<path d="M29.2365 29.9359C27.3529 29.9359 25.5645 28.8473 25.5645 25.901C25.5645 22.9548 27.3529 21.8834 29.2365 21.8834C31.12 21.8834 32.9603 22.9548 32.9603 25.901C32.9603 28.8473 31.1113 29.9359 29.2365 29.9359ZM29.2365 23.3954C28.2515 23.3954 27.6208 24.1298 27.6208 25.901C27.6208 27.6722 28.2515 28.4153 29.2365 28.4153C30.2214 28.4153 30.8608 27.6722 30.8608 25.901C30.8608 24.1298 30.2301 23.3954 29.2365 23.3954Z" fill="white"/>
</g>
<defs>
<filter id="filter0_f_1514_57036" x="4.18286" y="-9.87891" width="50.7166" height="67.334" filterUnits="userSpaceOnUse" color-interpolation-filters="sRGB">
<feFlood flood-opacity="0" result="BackgroundImageFix"/>
<feBlend mode="normal" in="SourceGraphic" in2="BackgroundImageFix" result="shape"/>
<feGaussianBlur stdDeviation="2.5" result="effect1_foregroundBlur_1514_57036"/>
</filter>
<filter id="filter1_f_1514_57036" x="10.5251" y="3.91699" width="51.3022" height="60.1895" filterUnits="userSpaceOnUse" color-interpolation-filters="sRGB">
<feFlood flood-opacity="0" result="BackgroundImageFix"/>
<feBlend mode="normal" in="SourceGraphic" in2="BackgroundImageFix" result="shape"/>
<feGaussianBlur stdDeviation="3" result="effect1_foregroundBlur_1514_57036"/>
</filter>
<radialGradient id="paint0_radial_1514_57036" cx="0" cy="0" r="1" gradientUnits="userSpaceOnUse" gradientTransform="translate(38.3669 29.4061) rotate(48.005) scale(17.6089 21.9395)">
<stop stop-color="#1AA0FF"/>
<stop offset="1" stop-color="#1AA0FF"/>
</radialGradient>
<clipPath id="clip0_1514_57036">
<rect width="40" height="40" fill="white"/>
</clipPath>
</defs>
</svg>
