<svg width="24" height="24" viewBox="0 0 24 24" fill="none" xmlns="http://www.w3.org/2000/svg">
<path fill-rule="evenodd" clip-rule="evenodd" d="M3.64959 15.8521C3.10016 14.6759 2.79326 13.3636 2.79326 11.9797C2.79326 6.92048 6.8946 2.81916 11.9539 2.81916C14.7709 2.81916 17.2909 4.09085 18.9713 6.09137L19.9739 5.25018C18.0533 2.96385 15.1734 1.5105 11.9539 1.5105C6.17186 1.5105 1.48462 6.19774 1.48462 11.9797C1.48462 13.5614 1.83534 15.0611 2.46326 16.4052L3.64959 15.8521Z" fill="black"/>
<path fill-rule="evenodd" clip-rule="evenodd" d="M11.9537 18.196C8.52066 18.196 5.73762 15.4129 5.73762 11.9798C5.73762 8.54679 8.52066 5.76372 11.9537 5.76372C13.8653 5.76372 15.575 6.62688 16.7153 7.98438L17.7181 7.14298C16.3378 5.49969 14.2677 4.45508 11.9537 4.45508C7.7979 4.45508 4.42896 7.82402 4.42896 11.9798C4.42896 16.1357 7.7979 19.5046 11.9537 19.5046V18.196Z" fill="black"/>
<path fill-rule="evenodd" clip-rule="evenodd" d="M14.2093 13.8723C13.6693 14.5153 12.8593 14.9242 11.9538 14.9242C10.3276 14.9242 9.00935 13.6059 9.00935 11.9797C9.00935 10.3535 10.3276 9.03523 11.9538 9.03523C12.8593 9.03523 13.6693 9.4441 14.2093 10.0871L15.337 9.14083C14.5269 8.17629 13.3121 7.56299 11.9538 7.56299C9.51454 7.56299 7.53711 9.54042 7.53711 11.9797C7.53711 14.4189 9.51454 16.3964 11.9538 16.3964C13.1986 16.3964 14.3226 15.8811 15.1254 15.0526L14.2093 13.8723Z" fill="black"/>
</svg>
