<svg width="24" height="24" viewBox="0 0 24 24" fill="none" xmlns="http://www.w3.org/2000/svg">
<path d="M19.0284 8.01299C18.9571 8.20034 15.9604 6.31977 13.2238 7.60276C11.2341 8.53559 10.4121 10.344 10.4121 11.886C10.4121 13.101 10.8346 14.019 11.2963 14.6172C12.0474 15.5901 12.7461 15.9561 13.3495 16.2814C14.3215 16.8053 15.9745 16.8227 16.4764 16.7967C17.4109 16.7483 18.5089 16.4784 19.4347 16.0467C19.7881 15.8819 20.3622 15.5245 20.865 15.1247C21.7236 14.442 22.5144 13.5832 22.5006 13.6496C22.4788 13.755 22.4876 13.8384 22.0583 14.5909C20.7861 16.8205 18.6711 17.7931 18.6711 17.7931C15.6916 19.3674 13.0474 18.5509 12.5334 18.3549C10.2774 17.4945 9.10068 15.8813 8.82574 15.3683C8.3774 14.5316 7.57363 11.4586 8.65059 9.01594C9.44867 7.20582 11.299 6.31646 11.5033 6.23134C14.7999 4.8571 19.0932 7.84275 19.0284 8.01299Z" fill="url(#paint0_linear_1532_63500)"/>
<path d="M19.1225 7.85726C18.9885 7.98121 18.0261 6.82769 16.4811 5.99465C16.0393 5.75652 14.354 4.90068 12.2956 4.94463C8.88332 5.01713 6.61569 7.51693 6.21132 7.98021C4.19024 10.2957 3.23867 13.8611 4.37544 16.6357C5.85284 20.2411 10.796 22.3149 10.4202 22.3558L9.9877 22.2177C9.46594 22.0122 3.06263 19.1323 2.83326 13.3935C2.70395 10.1598 3.74511 7.54098 4.37544 6.8261C5.47687 5.577 6.36002 4.97566 7.10453 4.57846C8.60053 3.78094 11.4141 3.09754 13.5021 3.41147C15.845 3.76383 17.3157 5.39718 18.0329 6.19373C18.6798 6.91207 19.2307 7.75703 19.1225 7.85726Z" fill="url(#paint1_linear_1532_63500)"/>
<path d="M19.1052 8.01007C19.2634 7.93987 19.0522 5.79258 17.6548 4.15964C17.0912 3.4998 16.4715 2.89981 15.7107 2.47993C12.5655 0.778387 8.69829 2.14669 7.86116 2.47993C7.00364 2.82111 5.17396 3.75346 3.6379 5.66637C1.90642 7.8229 1.64999 10.1365 1.55141 11.1493C1.13016 15.4737 3.38291 18.8697 3.54323 18.8185C3.63667 18.7887 2.61468 16.6279 2.83295 13.3935C2.91608 12.1623 3.08689 9.90702 4.65119 7.74235C5.5988 6.4657 6.69503 5.40303 8.12509 4.70143C8.95257 4.29339 11.9135 2.97821 14.8786 4.0227C15.782 4.34744 16.6137 4.84316 17.3281 5.4825C18.6189 6.66011 18.9757 8.06765 19.1052 8.01007Z" fill="url(#paint2_linear_1532_63500)"/>
<path d="M14.5498 20.1229C14.4756 20.249 9.34554 18.7878 7.41834 15.1866C7.12831 14.6448 5.78885 11.757 6.66763 9.50884C7.03512 8.56848 7.75867 7.51571 8.05092 7.18871C8.52302 6.66062 9.32387 6.18583 10.3408 5.7556C10.7978 5.56683 11.6325 5.37035 12.1229 5.30527C12.609 5.24555 13.3556 5.25835 13.8431 5.30527C14.7909 5.39644 16.0717 6.50103 16.0357 6.50103C16.026 6.50103 15.0191 6.17882 13.978 6.1074C13.115 6.04822 12.1789 6.24823 11.8469 6.36539C11.1144 6.62387 10.1104 7.18871 9.52988 7.90237C8.94935 8.61603 8.45379 9.62474 8.34824 10.9769C8.27086 11.9681 8.37705 13.414 8.80753 14.5412C9.01388 15.0815 9.36926 15.7691 10.0523 16.6747C11.5063 18.6022 14.6036 20.0325 14.5498 20.1229Z" fill="url(#paint3_linear_1532_63500)"/>
<path d="M11.7702 4.85318C12.6601 4.72515 13.4218 4.68098 14.3042 4.85318C15.317 5.0562 15.8771 5.26545 16.5668 5.61752C17.7448 6.21888 19.2358 7.76084 19.1222 7.99225C18.92 8.40479 15.7807 5.08994 11.4681 6.23073C10.2484 6.64623 9.49623 7.03418 8.71735 7.62679C7.39071 8.63609 6.73333 9.96367 6.5256 10.5066C6.16898 11.4387 6.0721 11.9632 6.02895 12.9551C6.02895 14.2907 6.27939 15.0654 6.58224 15.9145C7.01309 17.1232 7.81667 18.5049 7.68759 18.4153C6.21131 17.3918 5.28878 14.2335 5.18685 13.5789C5.08493 12.9244 4.64967 10.0891 6.5256 7.72825C8.2358 5.57605 11.1067 4.94962 11.7702 4.85318Z" fill="url(#paint4_linear_1532_63500)"/>
<defs>
<linearGradient id="paint0_linear_1532_63500" x1="17.1512" y1="5.94038" x2="17.1512" y2="18.7954" gradientUnits="userSpaceOnUse">
<stop stop-color="#FAB961"/>
<stop offset="1"/>
</linearGradient>
<linearGradient id="paint1_linear_1532_63500" x1="10.9792" y1="3.33348" x2="10.9792" y2="22.3876" gradientUnits="userSpaceOnUse">
<stop stop-color="#FAB961"/>
<stop offset="1"/>
</linearGradient>
<linearGradient id="paint2_linear_1532_63500" x1="10.3274" y1="1.75086" x2="10.3274" y2="18.8195" gradientUnits="userSpaceOnUse">
<stop/>
<stop offset="0.414296" stop-color="#FAB961"/>
</linearGradient>
<linearGradient id="paint3_linear_1532_63500" x1="10.5333" y1="5.89131" x2="10.5333" y2="19.7715" gradientUnits="userSpaceOnUse">
<stop/>
<stop offset="1" stop-color="#FAB961"/>
</linearGradient>
<linearGradient id="paint4_linear_1532_63500" x1="12.0993" y1="5.07417" x2="12.0993" y2="18.4194" gradientUnits="userSpaceOnUse">
<stop/>
<stop offset="1" stop-color="#FAB961"/>
</linearGradient>
</defs>
</svg>
