<svg width="24" height="24" viewBox="0 0 24 24" fill="none" xmlns="http://www.w3.org/2000/svg">
<g clip-path="url(#clip0_1532_63515)">
<path d="M22.5 12C22.5 6.20101 17.799 1.5 12 1.5C6.20101 1.5 1.5 6.20101 1.5 12C1.5 17.799 6.20101 22.5 12 22.5C17.799 22.5 22.5 17.799 22.5 12Z" fill="#11091B"/>
<path d="M12.041 13.8867H6.75L14.6865 6.01172H17.332L12.041 13.8867Z" fill="url(#paint0_linear_1532_63515)"/>
<path opacity="0.7" d="M1.5 16.0195C1.5 16.0195 6.29883 17.8607 12.2051 17.8607C18.1113 17.8607 22.5 16.0195 22.5 16.0195V23.3203H1.5V16.0195Z" fill="url(#paint1_linear_1532_63515)"/>
<path d="M1.5 17.9547C1.5 17.9547 7.36523 17.0859 12 17.0859C16.6348 17.0859 22.5 17.9547 22.5 17.9547V23.1562H1.5V17.9547Z" fill="url(#paint2_linear_1532_63515)"/>
<path d="M1.5 18.1188C1.5 18.1188 7.36523 17.25 12 17.25C16.6348 17.25 22.5 18.1188 22.5 18.1188" stroke="url(#paint3_linear_1532_63515)" stroke-width="4.2"/>
<path d="M7.33046 20.4878C7.19158 20.4878 7.07812 20.3753 7.07812 20.2376V19.0294C7.07812 18.8917 7.19158 18.7811 7.33046 18.7811C7.46935 18.7811 7.58281 18.8936 7.58281 19.0313V20.2396C7.58085 20.3753 7.46935 20.4878 7.33046 20.4878Z" fill="white"/>
<path d="M8.39673 20.4878C8.3224 20.4878 8.25002 20.4548 8.20308 20.3986L7.69448 19.7954C7.61624 19.7023 7.61624 19.5685 7.69448 19.4754L8.20308 18.8704C8.29306 18.7637 8.4515 18.7501 8.55713 18.8374C8.66276 18.9247 8.67842 19.0837 8.59039 19.1884L8.21677 19.6345L8.59039 20.0786C8.67842 20.1853 8.66472 20.3423 8.55713 20.4296C8.51215 20.4665 8.45541 20.4878 8.39673 20.4878Z" fill="white"/>
<path d="M10.071 20.4878H9.00483C8.86595 20.4878 8.7525 20.3753 8.7525 20.2376V19.0294C8.7525 18.8917 8.86595 18.7792 9.00483 18.7792C9.14372 18.7792 9.25718 18.8917 9.25718 19.0294V19.9874H9.82051V19.0294C9.82051 18.8917 9.93396 18.7792 10.0728 18.7792C10.2118 18.7792 10.3252 18.8917 10.3252 19.0294V20.2376C10.3233 20.3753 10.2098 20.4878 10.071 20.4878Z" fill="white"/>
<path d="M11.7476 20.4878H10.6815C10.5426 20.4839 10.4331 20.3695 10.437 20.2318C10.4409 20.0999 10.5485 19.9932 10.6815 19.9894H11.4953V19.9757L10.6111 19.7256C10.5035 19.6945 10.4292 19.5976 10.4292 19.4851V19.0294C10.4292 18.8917 10.5426 18.7811 10.6815 18.7811H11.7476C11.8865 18.7811 11.9999 18.8936 11.9999 19.0313C11.9999 19.169 11.8865 19.2815 11.7476 19.2815H10.9338V19.297L11.8181 19.5472C11.9256 19.5782 11.9999 19.6752 11.9999 19.7877V20.2396C11.9999 20.3772 11.8865 20.4878 11.7476 20.4878Z" fill="white"/>
<path d="M15.2507 20.4878C15.1118 20.4878 15.0002 20.3753 15.0002 20.2376V19.5724L14.8829 19.6732C14.789 19.7528 14.6501 19.7528 14.5542 19.6732L14.4369 19.5724V20.2376C14.4369 20.3753 14.3235 20.4878 14.1846 20.4878C14.0457 20.4878 13.9322 20.3753 13.9322 20.2376V19.0294C13.9322 18.8917 14.0457 18.7792 14.1846 18.7792C14.2452 18.7792 14.3019 18.8006 14.3489 18.8393L14.7186 19.1535L15.0863 18.8393C15.1919 18.7501 15.3504 18.7618 15.4424 18.8664C15.4814 18.9111 15.503 18.9692 15.503 19.0294V20.2376C15.5049 20.3753 15.3915 20.4878 15.2507 20.4878Z" fill="white"/>
<path d="M13.5745 20.4878C13.4356 20.4878 13.3222 20.3753 13.3222 20.2376V20.0262L12.6942 19.2796H12.6082V19.9874H12.9877C13.1265 19.9913 13.2361 20.1057 13.2322 20.2434C13.2283 20.3753 13.1207 20.482 12.9877 20.4858H12.3559C12.217 20.4858 12.1055 20.3734 12.1055 20.2356V19.0294C12.1055 18.8917 12.2189 18.7811 12.3559 18.7811H12.8136C12.8879 18.7811 12.9603 18.8141 13.0073 18.8704L13.7682 19.776C13.8053 19.8206 13.8268 19.8769 13.8268 19.9351V20.2376C13.8268 20.3753 13.7154 20.4878 13.5745 20.4878Z" fill="white"/>
<path d="M17.0797 20.4878C16.9408 20.4878 16.8274 20.3753 16.8274 20.2376V20.0262L16.1994 19.2796H16.1114V19.9874H16.4909C16.6298 19.9913 16.7394 20.1057 16.7354 20.2434C16.7315 20.3753 16.6239 20.482 16.4909 20.4858H15.861C15.7222 20.4858 15.6087 20.3734 15.6087 20.2356V19.0294C15.6087 18.8917 15.7222 18.7811 15.861 18.7811H16.3188C16.3931 18.7811 16.4635 18.8141 16.5125 18.8704L17.2734 19.776C17.3105 19.8206 17.332 19.8769 17.332 19.9351V20.2376C17.332 20.3772 17.2186 20.4878 17.0797 20.4878Z" fill="white"/>
<path d="M12.5964 18.1722C12.5787 18.1567 12.5592 18.1451 12.5357 18.1411C12.5064 18.1373 12.477 18.1567 12.4575 18.1702C12.4379 18.1839 12.3988 18.2187 12.3832 18.2323C12.3675 18.2459 12.3284 18.2537 12.2638 18.2924C12.1993 18.3312 11.9489 18.4902 11.9489 18.4902H12.0135L11.722 18.6395H11.7513L11.7103 18.6706C11.7337 18.6765 11.7572 18.6725 11.7787 18.6609V18.6706C11.7787 18.6706 12.1249 18.5349 12.1915 18.5697L12.1504 18.5814C12.1543 18.5814 12.2188 18.5852 12.2188 18.5852C12.2227 18.6124 12.2384 18.6377 12.2618 18.6512C12.301 18.6765 12.3029 18.692 12.3029 18.692C12.3029 18.692 12.2833 18.6997 12.2833 18.7113C12.3205 18.6997 12.3596 18.6997 12.3949 18.7113C12.3949 18.7113 12.3929 18.6997 12.3655 18.692C12.3381 18.6803 12.3147 18.6628 12.297 18.6377C12.2814 18.6163 12.2755 18.5892 12.2853 18.5639C12.2951 18.5387 12.3284 18.5251 12.3968 18.4902C12.477 18.4495 12.4966 18.4185 12.5064 18.3933C12.5161 18.368 12.5357 18.3215 12.5435 18.2982C12.5513 18.2769 12.565 18.2595 12.5827 18.2439C12.6042 18.2323 12.6276 18.2226 12.6492 18.2149C12.6531 18.2168 12.6101 18.1819 12.5964 18.1722Z" fill="white"/>
</g>
<defs>
<linearGradient id="paint0_linear_1532_63515" x1="12.041" y1="6.01172" x2="12.041" y2="13.8867" gradientUnits="userSpaceOnUse">
<stop stop-color="#7AEDCF"/>
<stop offset="0.201333" stop-color="#68CEFA"/>
<stop offset="0.403244" stop-color="#689CF8"/>
<stop offset="0.602076" stop-color="#AC57C0"/>
<stop offset="0.801867" stop-color="#E65659"/>
<stop offset="1" stop-color="#F2C241"/>
</linearGradient>
<linearGradient id="paint1_linear_1532_63515" x1="1.5" y1="16.0195" x2="22.7871" y2="19.752" gradientUnits="userSpaceOnUse">
<stop stop-color="#9E3BFF"/>
<stop offset="1" stop-color="#6D55FF"/>
</linearGradient>
<linearGradient id="paint2_linear_1532_63515" x1="1.5" y1="16.8932" x2="22.5" y2="16.8932" gradientUnits="userSpaceOnUse">
<stop stop-color="#9E3BFF"/>
<stop offset="1" stop-color="#492CFF"/>
</linearGradient>
<linearGradient id="paint3_linear_1532_63515" x1="1.5" y1="19.2598" x2="22.5" y2="19.1367" gradientUnits="userSpaceOnUse">
<stop stop-color="white" stop-opacity="0"/>
<stop offset="0.500885" stop-color="#9F7BFF"/>
<stop offset="1" stop-color="white" stop-opacity="0"/>
</linearGradient>
<clipPath id="clip0_1532_63515">
<rect x="1.5" y="1.5" width="21" height="21" rx="10.5" fill="white"/>
</clipPath>
</defs>
</svg>
