<svg width="24" height="24" viewBox="0 0 24 24" fill="none" xmlns="http://www.w3.org/2000/svg">
<path fill-rule="evenodd" clip-rule="evenodd" d="M3.75024 5.5C3.75024 5.08579 4.08603 4.75 4.50024 4.75L19.5002 4.75C19.9145 4.75 20.2502 5.08579 20.2502 5.5C20.2502 5.91421 19.9145 6.25 19.5002 6.25L4.50024 6.25C4.08603 6.25 3.75024 5.91421 3.75024 5.5ZM3.75024 12.0013C3.75024 11.5871 4.08603 11.2513 4.50024 11.2513L19.5002 11.2513C19.9145 11.2513 20.2502 11.5871 20.2502 12.0013C20.2502 12.4156 19.9145 12.7513 19.5002 12.7513L4.50024 12.7513C4.08603 12.7513 3.75024 12.4156 3.75024 12.0013ZM4.50024 17.75C4.08603 17.75 3.75024 18.0858 3.75024 18.5C3.75024 18.9142 4.08603 19.25 4.50024 19.25H19.5002C19.9145 19.25 20.2502 18.9142 20.2502 18.5C20.2502 18.0858 19.9145 17.75 19.5002 17.75H4.50024Z" fill="#1E2134"/>
</svg>
