<svg width="24" height="24" viewBox="0 0 24 24" fill="none" xmlns="http://www.w3.org/2000/svg">
<path fill-rule="evenodd" clip-rule="evenodd" d="M4 2C2.89543 2 2 2.89543 2 4V20C2 21.1046 2.89543 22 4 22H20C21.1046 22 22 21.1046 22 20V4C22 2.89543 21.1046 2 20 2H4ZM18.2803 8.50113C18.566 8.20118 18.5544 7.72645 18.2544 7.44078C17.9545 7.15512 17.4798 7.1667 17.1941 7.46665L10.0877 14.9284L6.80603 11.4828C6.52036 11.1829 6.04563 11.1713 5.74569 11.457C5.44574 11.7426 5.43418 12.2174 5.71985 12.5173L9.5446 16.5331C9.68616 16.6817 9.88244 16.7659 10.0877 16.7659C10.293 16.7659 10.4892 16.6817 10.6308 16.5331L18.2803 8.50113Z" fill="#6848FF"/>
</svg>
