<svg width="24" height="24" viewBox="0 0 24 24" fill="none" xmlns="http://www.w3.org/2000/svg">
<path fill-rule="evenodd" clip-rule="evenodd" d="M18.7549 3.21393C19.5283 3.05923 20.25 3.65085 20.25 4.43966V19.5604C20.25 20.3492 19.5283 20.9409 18.7549 20.7862L7.75485 18.5862C7.17057 18.4693 6.75 17.9563 6.75 17.3604V15.5C6.75 15.0858 6.41421 14.75 6 14.75C5.58579 14.75 5.25 15.0858 5.25 15.5V17.3604C5.25 18.6713 6.17526 19.8 7.46068 20.057L18.4607 22.257C20.1624 22.5974 21.75 21.2958 21.75 19.5604V4.43966C21.75 2.70428 20.1624 1.40272 18.4607 1.74306L7.46068 3.94306C6.17526 4.20014 5.25 5.32878 5.25 6.63966V8.50005C5.25 8.91426 5.58579 9.25005 6 9.25005C6.41421 9.25005 6.75 8.91426 6.75 8.50005V6.63966C6.75 6.0438 7.17057 5.53079 7.75485 5.41393L18.7549 3.21393ZM10.4697 8.46846C10.7626 8.17557 11.2374 8.17557 11.5303 8.46846L14.5316 11.4697C14.8245 11.7626 14.8245 12.2375 14.5316 12.5304L11.5303 15.5316C11.2374 15.8245 10.7626 15.8245 10.4697 15.5316C10.1768 15.2387 10.1768 14.7639 10.4697 14.471L12.1907 12.75H2.99609C2.58188 12.75 2.24609 12.4142 2.24609 12C2.24609 11.5858 2.58188 11.25 2.99609 11.25H12.1905L10.4697 9.52912C10.1768 9.23623 10.1768 8.76135 10.4697 8.46846Z" fill="#1E2134"/>
</svg>
