<svg width="24" height="24" viewBox="0 0 24 24" fill="none" xmlns="http://www.w3.org/2000/svg">
<path fill-rule="evenodd" clip-rule="evenodd" d="M12.7504 4.6665C12.7504 4.25229 12.4146 3.9165 12.0004 3.9165C11.5862 3.9165 11.2504 4.25229 11.2504 4.6665V11.2498H4.66699C4.25278 11.2498 3.91699 11.5856 3.91699 11.9998C3.91699 12.414 4.25278 12.7498 4.66699 12.7498L11.2504 12.7498L11.2504 19.3332C11.2504 19.7474 11.5862 20.0832 12.0004 20.0832C12.4146 20.0832 12.7504 19.7474 12.7504 19.3332V12.7498H19.3337C19.7479 12.7498 20.0837 12.414 20.0837 11.9998C20.0837 11.5856 19.7479 11.2498 19.3337 11.2498L12.7504 11.2498L12.7504 4.6665Z" fill="#1E2134"/>
</svg>
