<svg width="24" height="24" viewBox="0 0 24 24" fill="none" xmlns="http://www.w3.org/2000/svg">
<path d="M23.5 12C23.5 18.3513 18.3513 23.5 12 23.5C5.64873 23.5 0.5 18.3513 0.5 12C0.5 5.64873 5.64873 0.5 12 0.5C18.3513 0.5 23.5 5.64873 23.5 12Z" fill="white" stroke="#F2F4F7"/>
<path d="M4.69254 15.3799V15.5342C4.69254 15.5342 10.7085 13.3077 11.8781 13.8827L11.1726 14.0773C11.2344 14.0773 12.3777 14.1474 12.3777 14.1474C12.4045 14.3686 12.4833 14.5815 12.6085 14.7707C12.7338 14.9598 12.9023 15.1206 13.1018 15.2414C13.7905 15.6674 13.8036 15.8988 13.8036 15.8988C13.8036 15.8988 13.4461 16.0356 13.4461 16.2091C13.7785 16.12 14.1222 16.0734 14.4678 16.0706C14.7797 16.0811 15.0889 16.1276 15.3885 16.2091C15.3885 16.2091 15.3529 16.0338 14.872 15.8988C14.3911 15.7638 13.9271 15.287 13.6931 15.0223C13.5529 14.853 13.4619 14.6526 13.4291 14.4406C13.3963 14.2285 13.4228 14.0121 13.506 13.8126C13.6726 13.4129 14.2545 13.1902 15.4353 12.6152C16.8368 11.9367 17.1568 11.4283 17.3533 11.0374C17.5498 10.6464 17.8454 9.86275 18.0082 9.49459C18.1436 9.15047 18.3764 8.84742 18.6818 8.61802C18.8896 8.469 19.8364 8.13415 19.8364 8.13415C19.8364 8.13415 19.1141 7.55736 18.8783 7.3838C18.5836 7.12232 18.211 6.9511 17.8099 6.89292C17.3084 6.83156 16.7994 7.14362 16.4551 7.35224C16.1108 7.56087 15.4446 8.17096 15.1752 8.34628C14.9057 8.52159 14.2152 8.69691 13.1168 9.32629C12.0184 9.95566 7.65844 12.5626 7.65844 12.5626L8.78118 12.5731L3.74196 15.0223H4.24533L3.51929 15.5482C3.92141 15.6344 4.34349 15.5743 4.70003 15.3799H4.69254Z" fill="black"/>
</svg>
