<svg width="24" height="24" viewBox="0 0 24 24" fill="none" xmlns="http://www.w3.org/2000/svg">
<path d="M23.5 12C23.5 18.3513 18.3513 23.5 12 23.5C5.64873 23.5 0.5 18.3513 0.5 12C0.5 5.64873 5.64873 0.5 12 0.5C18.3513 0.5 23.5 5.64873 23.5 12Z" fill="white" stroke="#F2F4F7"/>
<path d="M12 23C18.0751 23 23 18.0751 23 12C23 5.92487 18.0751 1 12 1C5.92487 1 1 5.92487 1 12C1 18.0751 5.92487 23 12 23Z" fill="#E6007A"/>
<path d="M12 23C18.0751 23 23 18.0751 23 12C23 5.92487 18.0751 1 12 1C5.92487 1 1 5.92487 1 12C1 18.0751 5.92487 23 12 23Z" fill="url(#paint0_linear_14683_13467)"/>
<path fill-rule="evenodd" clip-rule="evenodd" d="M1.02591 12.7734C1.03292 12.8743 1.04129 12.9747 1.05099 13.0748C1.06199 13.1881 1.07471 13.3009 1.08911 13.4132C1.22825 14.4977 1.5253 15.5328 1.95646 16.4946C1.93548 16.3799 1.91208 16.2671 1.88822 16.1572C1.83914 15.9243 1.76564 15.6495 1.68559 15.3501C1.52323 14.7429 1.33389 14.0348 1.26653 13.3711C1.37853 13.3454 1.49092 13.3216 1.60365 13.2994C3.78368 15.2891 5.93567 17.3093 8.05952 19.3598C7.78475 20.2099 7.4943 21.0551 7.18828 21.8948C7.29251 21.9455 7.39767 21.9947 7.50371 22.0423C7.79624 21.2433 8.07488 20.4391 8.33947 19.6304C8.75148 20.0291 9.16242 20.429 9.5723 20.8301C10.3067 21.5491 11.0378 22.2716 11.7655 22.9976C11.8434 22.9992 11.9214 23 11.9997 23C12.0906 23 12.1813 22.9989 12.2718 22.9967C11.0121 21.7387 9.74199 20.4909 8.46166 19.2535C8.88497 17.9356 9.27104 16.6059 9.61917 15.2669C10.3841 17.3985 11.7713 19.2209 14.0865 19.9816C15.7553 20.5307 17.5698 20.4951 19.2948 20.2333C19.4345 20.1095 19.571 19.9822 19.7041 19.8515C18.9163 19.9776 18.1265 20.052 17.3444 20.0699C15.513 20.1111 13.5934 19.7518 12.1493 18.5496C11.0206 17.6128 10.2946 16.3045 9.84253 14.9169C9.87369 14.9298 9.90493 14.9425 9.93624 14.955C11.4566 15.562 13.0005 15.3793 14.3096 14.3834C15.1333 13.7564 15.7328 12.9908 16.2176 12.1529C17.2863 12.1602 18.355 12.1466 19.4229 12.1121C19.0472 13.0266 18.7023 14.0225 19.1935 14.8843C19.4105 15.2606 19.7228 15.5787 20.026 15.8875C20.0837 15.9462 20.141 16.0046 20.1973 16.0629C20.6376 16.5206 21.0778 16.9737 21.5348 17.4136C21.4537 17.5747 21.3715 17.7354 21.2884 17.8955C21.3834 17.7462 21.4748 17.5945 21.5627 17.4404C21.6238 17.3332 21.6832 17.2248 21.7408 17.1154C21.7742 17.0519 21.807 16.9881 21.8392 16.9239C21.9729 16.6573 22.096 16.3846 22.2082 16.1061C22.2781 15.9323 22.3438 15.7564 22.405 15.5784C22.3402 15.7238 22.2746 15.8688 22.2082 16.0135C22.2112 14.6506 22.3153 13.2915 22.5508 11.9513C22.7006 11.9408 22.8503 11.9298 23 11.9184C22.9992 11.8026 22.9965 11.6872 22.9921 11.5722C22.8667 11.5817 22.7412 11.5909 22.6157 11.5998C22.6933 11.199 22.7829 10.8001 22.8854 10.4034C22.8449 10.1252 22.794 9.85026 22.7332 9.57915C22.5312 10.252 22.3664 10.935 22.2356 11.6258C21.4754 11.676 20.7144 11.7156 19.9531 11.7446C20.6164 9.88571 21.2112 7.98016 21.2295 6.01178C21.1137 5.83377 20.993 5.65931 20.8675 5.4886C20.8855 5.84859 20.8828 6.20844 20.8607 6.56379C20.7609 8.13127 20.3324 9.65747 19.8157 11.1307C19.746 11.3313 19.6602 11.5415 19.57 11.7583C18.5176 11.7934 17.4645 11.8083 16.4116 11.8029C16.8293 11.017 17.1632 10.178 17.4979 9.33704C17.9958 8.08575 18.4955 6.83014 19.2757 5.73881C19.3547 5.62837 19.4365 5.522 19.5209 5.41937C19.9297 5.38994 20.3384 5.35944 20.7471 5.32795C20.6611 5.21544 20.573 5.10463 20.4829 4.99559C20.2746 5.01146 20.0663 5.02706 19.858 5.04238C19.9762 4.9206 20.0983 4.80455 20.224 4.69356C20.1516 4.61212 20.078 4.53176 20.0032 4.45252C19.9857 4.46869 19.9682 4.48496 19.9508 4.50133C19.7586 4.68204 19.5795 4.87388 19.4119 5.07475C17.0697 5.2425 14.7235 5.37476 12.3759 5.4606C12.366 5.0949 12.3192 4.73831 12.2256 4.40116C12.1137 4.00236 11.9188 3.68328 11.6664 3.4371C11.7392 2.62594 11.7986 1.81343 11.8446 1C11.7248 1.00166 11.6054 1.00523 11.4865 1.01069C11.4456 1.73207 11.3939 2.45276 11.3316 3.17245C11.0857 3.01577 10.807 2.90782 10.5103 2.84464C10.5224 2.81345 10.5345 2.7823 10.5467 2.7512C10.78 2.16015 11.0437 1.58317 11.3333 1.01878C11.1963 1.02697 11.0599 1.03767 10.9243 1.05083C10.6431 1.61922 10.3889 2.20026 10.1621 2.79154C9.94455 2.77076 9.72078 2.77153 9.49598 2.79244C8.23246 2.91136 7.02703 3.45518 5.86575 3.97909C5.75292 4.02999 5.64051 4.08071 5.5285 4.13083C5.44181 3.85203 5.35803 3.57224 5.27684 3.29159C5.17371 3.37132 5.07204 3.45285 4.97187 3.53613C5.04481 3.78387 5.11991 4.03097 5.19735 4.27737C4.62012 4.52924 4.04491 4.78719 3.47173 5.05009C3.3432 5.20762 3.21894 5.36879 3.09915 5.53341C3.0644 5.58115 3.03003 5.6292 2.99603 5.67752C2.94963 5.74349 2.90392 5.80999 2.85895 5.87701C3.82379 5.90168 4.78901 5.91601 5.75433 5.92078C6.02058 6.64976 6.31134 7.37136 6.63133 8.08411C6.97767 8.86196 7.35924 9.62212 7.78189 10.3587C8.00314 10.7485 8.26258 11.1627 8.65373 11.3787C7.23548 11.2246 5.82186 11.0361 4.40397 10.8471C4.22879 10.8238 4.05354 10.8004 3.87822 10.7771C3.0153 10.6651 2.06432 10.671 1.42447 11.3605C1.21188 11.5871 1.07791 11.8549 1 12.1413C1.00053 12.1834 1.0013 12.2254 1.0023 12.2674C1.00636 12.4371 1.01426 12.6058 1.02591 12.7734ZM1.24177 12.9697C1.24211 12.9894 1.2426 13.0092 1.24323 13.0291C1.26025 13.0252 1.27729 13.0213 1.29433 13.0175C1.27681 13.0015 1.25929 12.9856 1.24177 12.9697ZM1.72895 12.9288C1.57426 12.7876 1.41944 12.6465 1.26447 12.5056C1.36115 11.7372 1.77622 11.1541 2.83332 11.0717C3.31341 11.032 3.80185 11.1137 4.27752 11.1933C4.36601 11.2081 4.45407 11.2229 4.54154 11.2367C5.18726 11.3369 5.83298 11.4253 6.4787 11.5078C7.27904 11.6104 8.08148 11.7003 8.88605 11.7774C8.95866 12.6032 9.09361 13.4403 9.306 14.2516C9.17078 14.188 9.03633 14.1239 8.90222 14.0599C8.02441 13.6415 7.16098 13.2299 6.19107 13.0046C4.74288 12.6715 3.21111 12.6556 1.72895 12.9288ZM2.04904 13.2214C4.11765 15.1151 6.16173 17.0356 8.18047 18.982C8.62736 17.5732 9.0313 16.1509 9.39181 14.7179C9.15461 14.6074 8.92032 14.4907 8.68612 14.3739C8.26094 14.162 7.83604 13.9502 7.39445 13.7765C6.61959 13.4701 5.80363 13.2697 4.98181 13.1696C4.00924 13.052 3.01951 13.0719 2.04904 13.2214ZM9.57649 13.9671C9.74318 13.2736 9.89973 12.5777 10.0461 11.8797C9.76965 11.8575 9.49346 11.8337 9.21751 11.8085C9.28932 12.5372 9.40791 13.259 9.57649 13.9671ZM9.63889 11.4798C9.79906 11.4952 9.95932 11.5101 10.1197 11.5244C10.1412 11.4192 10.1625 11.3139 10.1835 11.2087C10.0153 11.3318 9.83395 11.426 9.63889 11.4798ZM10.6322 10.7834C10.5826 11.041 10.5316 11.2983 10.4792 11.5553C10.8494 11.5862 11.2202 11.6138 11.5916 11.6374C13.0921 11.7329 14.5955 11.7874 16.0994 11.8007C16.5843 10.9328 16.9592 9.98434 17.3288 9.0494C17.5148 8.57879 17.6995 8.11161 17.8962 7.65984C18.2333 6.88861 18.6227 6.12789 19.1205 5.44786C17.9791 5.52809 16.8372 5.59995 15.6949 5.6622C14.589 5.72187 13.4821 5.77237 12.3745 5.81256C12.3374 6.90393 12.0076 8.04578 11.6386 8.97392C11.4255 9.50711 11.0955 10.2392 10.6322 10.7834ZM11.9918 5.82603C11.9759 6.24898 11.917 6.67189 11.8441 7.05289C11.7032 7.78948 11.4801 8.51429 11.1749 9.19785C11.0641 9.4481 10.9353 9.72511 10.7804 9.99123C11.0297 8.61579 11.2398 7.23295 11.4104 5.8449C11.6043 5.83893 11.7981 5.83264 11.9918 5.82603ZM11.9946 5.47414C11.9812 4.91631 11.878 4.37896 11.6176 3.96039C11.568 4.47151 11.5132 4.98206 11.453 5.49194C11.6335 5.48629 11.8141 5.48035 11.9946 5.47414ZM11.092 5.50286C11.1682 4.8625 11.236 4.22111 11.2952 3.57887C11.0653 3.37858 10.7675 3.23551 10.3865 3.17235C10.1043 3.93971 9.86524 4.7315 9.67405 5.53829C10.1467 5.5285 10.6194 5.51666 11.092 5.50286ZM9.32298 5.54518C9.51004 4.72936 9.74727 3.92497 10.033 3.13764C8.80282 3.0857 7.57236 3.63218 6.44167 4.13435C6.24942 4.21973 6.06006 4.30383 5.87408 4.38349C5.79607 4.41705 5.71811 4.45072 5.64022 4.4845C5.75713 4.84874 5.87926 5.21119 6.00731 5.57159C7.11243 5.57487 8.21774 5.56569 9.32298 5.54518ZM6.13399 5.92217C7.17116 5.92461 8.20842 5.91612 9.24544 5.89765C8.88767 7.59531 8.74654 9.33862 8.83706 11.0774C8.40915 10.8479 8.12335 10.2878 7.89298 9.83625C7.85243 9.75678 7.8136 9.68068 7.77601 9.61033C7.39445 8.89142 7.04224 8.14895 6.71938 7.40056C6.51122 6.91232 6.31671 6.41929 6.13399 5.92217ZM9.16716 11.1791C9.0583 9.41562 9.21546 7.62231 9.59371 5.89108C10.0789 5.88139 10.5641 5.86955 11.0492 5.85564C10.8499 7.46407 10.5971 9.06566 10.2916 10.6571C10.0695 10.8869 9.8095 11.0658 9.50186 11.1483C9.3827 11.1801 9.2714 11.1891 9.16716 11.1791ZM5.62828 5.56998C5.51781 5.25748 5.41168 4.94368 5.30951 4.62869C4.63464 4.92453 3.964 5.22812 3.29602 5.5379C4.07327 5.5551 4.85072 5.56565 5.62828 5.56998ZM15.8952 12.1501C14.0932 12.1308 12.2915 12.0523 10.4939 11.9144C10.4648 11.9122 10.4356 11.91 10.4065 11.9078C10.2895 12.4673 10.1661 13.0255 10.036 13.582C9.96512 13.8839 9.89229 14.1853 9.81754 14.4864C11.1703 15.0774 12.527 15.1592 13.8164 14.3422C14.7124 13.775 15.3684 13.0111 15.8952 12.1501ZM19.8261 12.0981C19.7574 12.2881 19.6884 12.4776 19.6195 12.6667C19.5949 12.7342 19.5703 12.8016 19.5458 12.869C19.3638 13.3699 19.1936 13.9002 19.3755 14.4306C19.493 14.7783 19.7335 15.0493 19.9742 15.3145C20.3676 15.7447 20.7785 16.163 21.1893 16.5755C21.3585 16.7443 21.5292 16.9121 21.7019 17.078C21.747 16.9864 21.7918 16.8946 21.8363 16.8026C21.8012 15.1743 21.9 13.5565 22.1721 11.9772C21.3907 12.0287 20.6087 12.069 19.8261 12.0981Z" fill="#E6007A"/>
<path d="M8.37581 15.6346H10.8344L11.6182 12.7923C11.7263 12.4004 12.2774 12.4006 12.3852 12.7926L13.1663 15.6346H15.6202L17.5017 8.36658H15.1979L14.6095 11.251C14.5241 11.6698 13.9349 11.6814 13.8333 11.2662L13.1241 8.36658H10.8766L10.1857 11.2842C10.087 11.7008 9.4966 11.6927 9.40916 11.2736L9.20168 10.2789C8.9692 9.16444 7.99432 8.36658 6.86501 8.36658H6.49902L8.37581 15.6346Z" fill="white"/>
<defs>
<linearGradient id="paint0_linear_14683_13467" x1="1.52272" y1="11.3714" x2="37.2083" y2="11.3982" gradientUnits="userSpaceOnUse">
<stop stop-color="#F79420" stop-opacity="0.92"/>
<stop offset="1" stop-color="#C4C4C4" stop-opacity="0"/>
</linearGradient>
</defs>
</svg>
