<svg width="24" height="24" viewBox="0 0 24 24" fill="none" xmlns="http://www.w3.org/2000/svg">
<path d="M23.5 12C23.5 18.3513 18.3513 23.5 12 23.5C5.64873 23.5 0.5 18.3513 0.5 12C0.5 5.64873 5.64873 0.5 12 0.5C18.3513 0.5 23.5 5.64873 23.5 12Z" fill="#CBFFA0" stroke="#F2F4F7"/>
<path fill-rule="evenodd" clip-rule="evenodd" d="M12.0047 5.84888C11.475 5.84888 10.9568 5.8694 10.4539 5.90815C10.0273 5.94087 9.6124 5.98767 9.20932 6.04861L9.30134 6.65921C9.68878 6.60064 10.0886 6.5555 10.501 6.52387C10.9883 6.48632 11.4908 6.4664 12.0047 6.4664C14.2659 6.4664 16.2986 6.84796 17.7545 7.45323C18.4832 7.75616 19.0527 8.10902 19.4352 8.48509C19.8168 8.86011 19.995 9.23933 19.995 9.60778C19.995 9.84723 19.9197 10.0912 19.7623 10.3357C19.3133 9.92747 18.7066 9.57039 17.9907 9.27261C16.4431 8.62888 14.3265 8.23788 12.0045 8.23788C11.4747 8.23788 10.9565 8.25841 10.4535 8.29716L10.4538 8.29997C8.74391 8.43139 7.20625 8.77794 6.00909 9.27572C5.23599 9.59718 4.59018 9.9878 4.1329 10.4373C3.67457 10.8879 3.38843 11.4164 3.38843 12.0008C3.38843 12.4329 3.54491 12.8344 3.81174 13.1964C3.54489 13.5585 3.38843 13.9601 3.38843 14.3922C3.38843 14.9767 3.67474 15.5052 4.13321 15.9557C4.59063 16.4052 5.23661 16.7957 6.00981 17.1171C7.55759 17.7605 9.67418 18.1511 11.9953 18.1511C12.5248 18.1511 13.043 18.1311 13.5462 18.0923C13.9725 18.059 14.3874 18.0122 14.7902 17.9519L14.6991 17.3412C14.3114 17.3992 13.9114 17.4444 13.4989 17.4766C13.0117 17.5141 12.5093 17.5336 11.9953 17.5336C9.73499 17.5336 7.7023 17.152 6.24613 16.5468C5.51736 16.2438 4.9477 15.891 4.56498 15.5149C4.1833 15.1398 4.00496 14.7606 4.00496 14.3922C4.00496 14.1525 4.08043 13.9082 4.23824 13.6635C4.6873 14.0714 5.29405 14.4282 6.00981 14.7257C7.55759 15.3691 9.67418 15.7597 11.9953 15.7597C12.5249 15.7597 13.0431 15.7392 13.5461 15.7005C13.9722 15.6678 14.3868 15.6218 14.7895 15.5625C16.0011 15.3863 17.0918 15.0967 17.9906 14.723C18.7637 14.4016 19.4096 14.0111 19.8668 13.5616C20.3252 13.111 20.6113 12.5826 20.6113 11.9982C20.6113 11.5663 20.4551 11.165 20.1886 10.8031C20.4553 10.4411 20.6116 10.0397 20.6116 9.60778C20.6116 9.02337 20.3254 8.49489 19.8671 8.04435C19.4098 7.59485 18.764 7.20429 17.9909 6.88289C16.4433 6.23952 14.3267 5.84888 12.0047 5.84888ZM4.64179 13.1964C5.02226 13.5451 5.56462 13.8721 6.24613 14.1554C7.7023 14.7606 9.73499 15.1422 11.9953 15.1422L12.0045 15.1422V15.1395C14.2657 15.1395 16.2984 14.758 17.7543 14.1527C18.4829 13.8498 19.0524 13.4969 19.435 13.1209C19.8165 12.7458 19.9948 12.3666 19.9948 11.9982C19.9948 11.7588 19.9196 11.5148 19.7622 11.2704C19.3133 11.6784 18.7066 12.0353 17.9909 12.3329C16.4433 12.9764 14.3267 13.3671 12.0047 13.3671V12.7496C14.2659 12.7496 16.2986 12.3679 17.7545 11.7626C18.4362 11.4791 18.9786 11.152 19.3589 10.803C18.9785 10.4539 18.4361 10.1265 17.7542 9.8429C16.2983 9.2373 14.2656 8.8554 12.0045 8.8554L11.9953 8.8554V8.85899C9.73407 8.85899 7.70139 9.24067 6.24548 9.84605C5.51683 10.149 4.94735 10.5019 4.56477 10.8781C4.18324 11.2531 4.00496 11.6324 4.00496 12.0008C4.00496 12.2404 4.08041 12.4846 4.23818 12.7293C4.68708 12.3214 5.29357 11.9646 6.00909 11.6671C7.55666 11.0236 9.67327 10.6329 11.9953 10.6329V11.2504C9.73407 11.2504 7.70139 11.6321 6.24548 12.2374C5.56423 12.5207 5.02211 12.8476 4.64179 13.1964Z" fill="black"/>
</svg>
