<svg width="24" height="24" viewBox="0 0 24 24" fill="none" xmlns="http://www.w3.org/2000/svg">
<path d="M23.5 12C23.5 18.3513 18.3513 23.5 12 23.5C5.64873 23.5 0.5 18.3513 0.5 12C0.5 5.64873 5.64873 0.5 12 0.5C18.3513 0.5 23.5 5.64873 23.5 12Z" fill="#101828" stroke="#172233"/>
<path d="M11.924 13.3912C11.4776 13.3912 11.0435 13.4285 10.6235 13.4996L11.2703 12.3794C11.4886 12.365 11.7072 12.3578 11.924 12.3578C12.4319 12.3578 12.9486 12.3997 13.4482 12.4798L10.9368 8.12997L6.75617 15.3711L6.15869 14.3363L10.9274 6.07657L10.9372 6.09362L10.9467 6.07732L16.7015 16.0451H15.5066L14.1616 13.7154C13.4608 13.5041 12.7116 13.3912 11.924 13.3912Z" fill="url(#paint0_linear_16456_14215)"/>
<path d="M17.0736 15.3886L11.502 5.73819H12.6969L17.6711 14.3537L17.0736 15.3886Z" fill="url(#paint1_linear_16456_14215)"/>
<path d="M11.5435 10.4992L9.2557 14.4618C10.0743 14.2149 11.038 14.1046 11.947 14.1046C12.0205 14.1046 12.0942 14.1055 12.168 14.1072C12.6845 14.1194 13.2062 14.1741 13.7061 14.2674L14.4694 15.5895C13.6881 15.3053 12.8424 15.1381 11.947 15.1381C10.6229 15.1381 9.40687 15.4656 8.34782 16.0353L8.3645 16.0055L8.34163 16.0451H7.14673L10.9461 9.46439L11.5435 10.4992Z" fill="url(#paint2_linear_16456_14215)"/>
<path fill-rule="evenodd" clip-rule="evenodd" d="M12.0002 21.2041C17.0835 21.2041 21.2043 17.0833 21.2043 12C21.2043 6.91673 17.0835 2.7959 12.0002 2.7959C6.91695 2.7959 2.79614 6.91673 2.79614 12C2.79614 17.0833 6.91695 21.2041 12.0002 21.2041ZM12.0227 20.0816C16.4984 20.0816 20.1267 16.4533 20.1267 11.9775C20.1267 7.50178 16.4984 3.87345 12.0227 3.87345C7.54692 3.87345 3.91859 7.50178 3.91859 11.9775C3.91859 16.4533 7.54692 20.0816 12.0227 20.0816Z" fill="url(#paint3_linear_16456_14215)"/>
<path fill-rule="evenodd" clip-rule="evenodd" d="M12 23C18.0751 23 23 18.0752 23 12C23 5.92487 18.0751 1 12 1C5.92487 1 1 5.92487 1 12C1 18.0752 5.92487 23 12 23ZM12.0449 21.9674C17.5497 21.9674 22.0122 17.5048 22.0122 12C22.0122 6.4952 17.5497 2.03266 12.0449 2.03266C6.54009 2.03266 2.07755 6.4952 2.07755 12C2.07755 17.5048 6.54009 21.9674 12.0449 21.9674Z" fill="url(#paint4_linear_16456_14215)"/>
<defs>
<linearGradient id="paint0_linear_16456_14215" x1="20.1713" y1="22.349" x2="7.30804" y2="2.63875" gradientUnits="userSpaceOnUse">
<stop offset="0.0076157" stop-color="#645AFF"/>
<stop offset="0.484678" stop-color="#E40C5B"/>
<stop offset="1" stop-color="#FF4C3B"/>
</linearGradient>
<linearGradient id="paint1_linear_16456_14215" x1="20.1715" y1="22.349" x2="7.30823" y2="2.63881" gradientUnits="userSpaceOnUse">
<stop offset="0.0076157" stop-color="#645AFF"/>
<stop offset="0.484678" stop-color="#E40C5B"/>
<stop offset="1" stop-color="#FF4C3B"/>
</linearGradient>
<linearGradient id="paint2_linear_16456_14215" x1="20.1713" y1="22.349" x2="7.30811" y2="2.63877" gradientUnits="userSpaceOnUse">
<stop offset="0.0076157" stop-color="#645AFF"/>
<stop offset="0.484678" stop-color="#E40C5B"/>
<stop offset="1" stop-color="#FF4C3B"/>
</linearGradient>
<linearGradient id="paint3_linear_16456_14215" x1="20.1716" y1="22.349" x2="7.30838" y2="2.63876" gradientUnits="userSpaceOnUse">
<stop offset="0.0076157" stop-color="#645AFF"/>
<stop offset="0.484678" stop-color="#E40C5B"/>
<stop offset="1" stop-color="#FF4C3B"/>
</linearGradient>
<linearGradient id="paint4_linear_16456_14215" x1="20.1714" y1="22.349" x2="7.30816" y2="2.63878" gradientUnits="userSpaceOnUse">
<stop offset="0.0076157" stop-color="#645AFF"/>
<stop offset="0.484678" stop-color="#E40C5B"/>
<stop offset="1" stop-color="#FF4C3B"/>
</linearGradient>
</defs>
</svg>
