<svg width="24" height="24" viewBox="0 0 24 24" fill="none" xmlns="http://www.w3.org/2000/svg">
<path d="M23.5 12C23.5 18.3513 18.3513 23.5 12 23.5C5.64873 23.5 0.5 18.3513 0.5 12C0.5 5.64873 5.64873 0.5 12 0.5C18.3513 0.5 23.5 5.64873 23.5 12Z" fill="#101828" stroke="#172233"/>
<path d="M12 23C18.0751 23 23 18.0751 23 12C23 5.92487 18.0751 1 12 1C5.92487 1 1 5.92487 1 12C1 18.0751 5.92487 23 12 23Z" fill="#34333D"/>
<path fill-rule="evenodd" clip-rule="evenodd" d="M15.8886 6.17953C14.7374 5.41039 13.384 4.99992 11.9995 5C11.0804 5 10.1703 5.18106 9.32089 5.53282C8.47183 5.88459 7.70002 6.40015 7.05002 7.05011C6.40002 7.7001 5.88471 8.47171 5.53281 9.32092C5.1809 10.1702 5 11.0804 5 11.9996C5 13.3841 5.41033 14.7375 6.17951 15.8887C6.94868 17.0399 8.04202 17.9372 9.32089 18.467C10.6001 18.9969 12.0077 19.1356 13.3655 18.8655C14.7236 18.5954 15.9708 17.9287 16.9499 16.9497C17.9287 15.9707 18.5955 14.7234 18.8655 13.3655C19.1356 12.0076 18.9969 10.6001 18.4671 9.321C17.9373 8.04193 17.04 6.94867 15.8886 6.17953ZM11.9995 18.1245C11.9995 18.1245 9.71604 15.3824 9.71604 11.9996C9.71604 8.61723 11.9995 5.8751 11.9995 5.8751C11.9995 5.8751 14.2832 8.61682 14.2832 11.9996C14.2832 15.3824 11.9995 18.1245 11.9995 18.1245Z" fill="#4FFFB0"/>
</svg>
