<svg width="24" height="24" viewBox="0 0 24 24" fill="none" xmlns="http://www.w3.org/2000/svg">
<path d="M23.5 12C23.5 18.3513 18.3513 23.5 12 23.5C5.64873 23.5 0.5 18.3513 0.5 12C0.5 5.64873 5.64873 0.5 12 0.5C18.3513 0.5 23.5 5.64873 23.5 12Z" fill="white" stroke="#F2F4F7"/>
<path d="M12 23C18.0751 23 23 18.0751 23 12C23 5.92487 18.0751 1 12 1C5.92487 1 1 5.92487 1 12C1 18.0751 5.92487 23 12 23Z" fill="#E6007A"/>
<path d="M12 23C18.0751 23 23 18.0751 23 12C23 5.92487 18.0751 1 12 1C5.92487 1 1 5.92487 1 12C1 18.0751 5.92487 23 12 23Z" fill="url(#paint0_linear_16794_101)"/>
<path fill-rule="evenodd" clip-rule="evenodd" d="M1.02603 12.7734C1.03304 12.8743 1.04141 12.9747 1.05112 13.0748C1.06211 13.1881 1.07483 13.3009 1.08924 13.4132C1.22837 14.4977 1.52542 15.5328 1.95659 16.4946C1.9356 16.3799 1.9122 16.2671 1.88834 16.1572C1.83926 15.9243 1.76576 15.6495 1.68571 15.3501C1.52335 14.7429 1.33401 14.0348 1.26665 13.3711C1.37865 13.3454 1.49104 13.3216 1.60377 13.2994C3.7838 15.2891 5.93579 17.3093 8.05964 19.3598C7.78487 20.2099 7.49442 21.0551 7.1884 21.8948C7.29264 21.9455 7.39779 21.9947 7.50384 22.0423C7.79636 21.2433 8.075 20.4391 8.33959 19.6304C8.7516 20.0291 9.16254 20.429 9.57242 20.8301C10.3068 21.5491 11.0379 22.2716 11.7656 22.9976C11.8435 22.9992 11.9216 23 11.9998 23C12.0908 23 12.1815 22.9989 12.2719 22.9967C11.0122 21.7387 9.74212 20.4909 8.46178 19.2535C8.88509 17.9356 9.27116 16.6059 9.61929 15.2669C10.3842 17.3985 11.7714 19.2209 14.0866 19.9816C15.7554 20.5307 17.5699 20.4951 19.2949 20.2333C19.4346 20.1095 19.5711 19.9822 19.7043 19.8515C18.9164 19.9776 18.1266 20.052 17.3446 20.0699C15.5131 20.1111 13.5935 19.7518 12.1494 18.5496C11.0208 17.6128 10.2947 16.3045 9.84265 14.9169C9.87381 14.9298 9.90505 14.9425 9.93637 14.955C11.4567 15.562 13.0006 15.3793 14.3097 14.3834C15.1334 13.7564 15.7329 12.9908 16.2177 12.1529C17.2864 12.1602 18.3551 12.1466 19.4231 12.1121C19.0473 13.0266 18.7025 14.0225 19.1937 14.8843C19.4106 15.2606 19.723 15.5787 20.0262 15.8875C20.0838 15.9462 20.1411 16.0046 20.1974 16.0629C20.6377 16.5206 21.078 16.9737 21.5349 17.4136C21.4538 17.5747 21.3716 17.7354 21.2885 17.8956C21.3835 17.7462 21.475 17.5945 21.5628 17.4404C21.6239 17.3332 21.6833 17.2248 21.7409 17.1154C21.7743 17.0519 21.8071 16.9881 21.8393 16.9239C21.973 16.6573 22.0962 16.3846 22.2083 16.1061C22.2782 15.9323 22.3439 15.7564 22.4051 15.5784C22.3403 15.7238 22.2747 15.8688 22.2083 16.0135C22.2113 14.6506 22.3154 13.2915 22.5509 11.9513C22.7007 11.9408 22.8504 11.9298 23.0001 11.9184C22.9993 11.8026 22.9967 11.6872 22.9923 11.5722C22.8668 11.5817 22.7413 11.5909 22.6158 11.5998C22.6934 11.199 22.783 10.8001 22.8855 10.4034C22.845 10.1252 22.7942 9.85026 22.7333 9.57915C22.5313 10.252 22.3665 10.935 22.2357 11.6258C21.4755 11.676 20.7146 11.7156 19.9533 11.7446C20.6165 9.88571 21.2114 7.98016 21.2296 6.01178C21.1139 5.83377 20.9931 5.6593 20.8676 5.4886C20.8856 5.84859 20.883 6.20844 20.8608 6.56379C20.761 8.13127 20.3325 9.65747 19.8158 11.1307C19.7461 11.3313 19.6603 11.5415 19.5701 11.7583C18.5177 11.7934 17.4646 11.8083 16.4117 11.8029C16.8295 11.017 17.1634 10.178 17.498 9.33704C17.996 8.08575 18.4956 6.83014 19.2758 5.73881C19.3548 5.62837 19.4366 5.522 19.521 5.41937C19.9298 5.38994 20.3385 5.35944 20.7472 5.32795C20.6612 5.21544 20.5732 5.10463 20.483 4.99559C20.2748 5.01146 20.0665 5.02706 19.8581 5.04238C19.9763 4.9206 20.0984 4.80455 20.2241 4.69356C20.1517 4.61212 20.0781 4.53176 20.0034 4.45252C19.9858 4.46869 19.9683 4.48496 19.9509 4.50133C19.7587 4.68204 19.5797 4.87388 19.412 5.07475C17.0698 5.2425 14.7237 5.37476 12.3761 5.4606C12.3661 5.0949 12.3193 4.73831 12.2257 4.40116C12.1138 4.00236 11.919 3.68328 11.6665 3.4371C11.7393 2.62594 11.7988 1.81343 11.8447 1C11.7249 1.00166 11.6055 1.00523 11.4866 1.01069C11.4457 1.73207 11.394 2.45276 11.3317 3.17245C11.0858 3.01577 10.8071 2.90782 10.5104 2.84464C10.5225 2.81345 10.5346 2.7823 10.5469 2.7512C10.7802 2.16015 11.0438 1.58317 11.3334 1.01878C11.1964 1.02697 11.06 1.03767 10.9244 1.05083C10.6433 1.61922 10.389 2.20026 10.1623 2.79154C9.94467 2.77076 9.7209 2.77153 9.4961 2.79244C8.23258 2.91136 7.02715 3.45518 5.86588 3.97909C5.75305 4.02999 5.64063 4.08071 5.52862 4.13083C5.44193 3.85203 5.35815 3.57224 5.27696 3.29159C5.17383 3.37132 5.07216 3.45285 4.97199 3.53613C5.04493 3.78387 5.12004 4.03097 5.19747 4.27737C4.62024 4.52924 4.04504 4.78719 3.47185 5.05009C3.34332 5.20762 3.21907 5.36879 3.09927 5.53341C3.06452 5.58115 3.03015 5.6292 2.99615 5.67752C2.94975 5.74349 2.90405 5.80999 2.85907 5.87701C3.82391 5.90168 4.78913 5.91601 5.75445 5.92078C6.02071 6.64976 6.31147 7.37136 6.63145 8.08411C6.97779 8.86196 7.35936 9.62212 7.78201 10.3587C8.00326 10.7485 8.2627 11.1627 8.65385 11.3787C7.23561 11.2246 5.82198 11.0361 4.4041 10.8471C4.22891 10.8238 4.05367 10.8004 3.87834 10.7771C3.01542 10.6651 2.06445 10.671 1.42459 11.3605C1.212 11.5871 1.07803 11.8549 1.00012 12.1413C1.00065 12.1834 1.00142 12.2254 1.00243 12.2674C1.00648 12.4371 1.01438 12.6058 1.02603 12.7734ZM1.24189 12.9697C1.24223 12.9894 1.24272 13.0092 1.24335 13.0291C1.26038 13.0252 1.27741 13.0213 1.29445 13.0175C1.27693 13.0015 1.25941 12.9856 1.24189 12.9697ZM1.72907 12.9288C1.57438 12.7876 1.41956 12.6465 1.2646 12.5056C1.36127 11.7372 1.77634 11.1541 2.83344 11.0717C3.31353 11.032 3.80197 11.1137 4.27765 11.1933C4.36614 11.2081 4.45419 11.2229 4.54166 11.2367C5.18738 11.3369 5.83311 11.4253 6.47883 11.5078C7.27916 11.6104 8.08161 11.7003 8.88617 11.7774C8.95879 12.6032 9.09373 13.4403 9.30612 14.2516C9.17091 14.188 9.03646 14.1239 8.90234 14.0599C8.02453 13.6415 7.1611 13.2299 6.19119 13.0046C4.743 12.6715 3.21124 12.6556 1.72907 12.9288ZM2.04916 13.2214C4.11778 15.1151 6.16185 17.0356 8.18059 18.982C8.62748 17.5732 9.03143 16.1509 9.39193 14.7179C9.15473 14.6074 8.92044 14.4907 8.68624 14.3739C8.26107 14.162 7.83616 13.9502 7.39457 13.7765C6.61972 13.4701 5.80375 13.2697 4.98193 13.1696C4.00936 13.052 3.01964 13.0719 2.04916 13.2214ZM9.57661 13.9671C9.7433 13.2736 9.89985 12.5777 10.0462 11.8797C9.76977 11.8575 9.49358 11.8337 9.21764 11.8085C9.28944 12.5372 9.40803 13.259 9.57661 13.9671ZM9.63901 11.4798C9.79919 11.4952 9.95944 11.5101 10.1198 11.5244C10.1413 11.4192 10.1626 11.3139 10.1836 11.2087C10.0155 11.3318 9.83407 11.426 9.63901 11.4798ZM10.6324 10.7834C10.5827 11.041 10.5317 11.2983 10.4793 11.5553C10.8495 11.5862 11.2203 11.6138 11.5918 11.6374C13.0922 11.7329 14.5956 11.7874 16.0995 11.8007C16.5844 10.9328 16.9593 9.98434 17.3289 9.0494C17.5149 8.57879 17.6996 8.11161 17.8963 7.65984C18.2334 6.88861 18.6229 6.12789 19.1206 5.44786C17.9792 5.52809 16.8373 5.59995 15.6951 5.6622C14.5891 5.72187 13.4822 5.77237 12.3746 5.81256C12.3376 6.90393 12.0077 8.04579 11.6387 8.97392C11.4257 9.50711 11.0956 10.2392 10.6324 10.7834ZM11.992 5.82603C11.976 6.24898 11.9172 6.67189 11.8442 7.05289C11.7033 7.78948 11.4802 8.51429 11.175 9.19785C11.0642 9.4481 10.9354 9.72511 10.7805 9.99123C11.0298 8.61579 11.2399 7.23295 11.4106 5.8449C11.6044 5.83893 11.7982 5.83264 11.992 5.82603ZM11.9947 5.47414C11.9813 4.91631 11.8781 4.37896 11.6177 3.96039C11.5681 4.47151 11.5133 4.98206 11.4531 5.49194C11.6336 5.48629 11.8142 5.48035 11.9947 5.47414ZM11.0922 5.50286C11.1684 4.8625 11.2361 4.22111 11.2953 3.57887C11.0654 3.37858 10.7677 3.23551 10.3867 3.17235C10.1044 3.93971 9.86536 4.7315 9.67417 5.53829C10.1469 5.5285 10.6195 5.51666 11.0922 5.50286ZM9.32311 5.54518C9.51016 4.72936 9.74739 3.92497 10.0331 3.13764C8.80294 3.0857 7.57249 3.63218 6.44179 4.13435C6.24954 4.21973 6.06018 4.30383 5.8742 4.38349C5.79619 4.41705 5.71824 4.45072 5.64034 4.4845C5.75725 4.84874 5.87938 5.21119 6.00743 5.57159C7.11255 5.57487 8.21786 5.56569 9.32311 5.54518ZM6.13411 5.92217C7.17128 5.92461 8.20854 5.91612 9.24556 5.89765C8.8878 7.59531 8.74666 9.33862 8.83718 11.0774C8.40927 10.8479 8.12347 10.2878 7.8931 9.83625C7.85255 9.75678 7.81372 9.68068 7.77614 9.61033C7.39457 8.89142 7.04237 8.14895 6.7195 7.40056C6.51134 6.91232 6.31683 6.41929 6.13411 5.92217ZM9.16728 11.1791C9.05842 9.41562 9.21558 7.62231 9.59384 5.89108C10.0791 5.88139 10.5642 5.86955 11.0493 5.85564C10.85 7.46407 10.5972 9.06566 10.2917 10.6571C10.0696 10.8869 9.80962 11.0658 9.50198 11.1483C9.38282 11.1801 9.27152 11.1891 9.16728 11.1791ZM5.6284 5.56998C5.51793 5.25748 5.4118 4.94368 5.30964 4.62869C4.63476 4.92453 3.96412 5.22812 3.29614 5.5379C4.07339 5.5551 4.85084 5.56565 5.6284 5.56998ZM15.8954 12.1501C14.0933 12.1308 12.2916 12.0523 10.494 11.9144C10.4649 11.9122 10.4357 11.91 10.4066 11.9078C10.2897 12.4673 10.1662 13.0255 10.0362 13.582C9.96524 13.8839 9.89241 14.1853 9.81766 14.4864C11.1704 15.0774 12.5271 15.1592 13.8166 14.3422C14.7125 13.775 15.3685 13.0111 15.8954 12.1501ZM19.8263 12.0981C19.7576 12.2881 19.6885 12.4776 19.6196 12.6667C19.595 12.7342 19.5704 12.8016 19.5459 12.869C19.3639 13.3699 19.1937 13.9002 19.3756 14.4306C19.4931 14.7783 19.7337 15.0493 19.9744 15.3145C20.3677 15.7447 20.7786 16.163 21.1895 16.5755C21.3586 16.7443 21.5293 16.9121 21.702 17.078C21.7471 16.9864 21.7919 16.8946 21.8364 16.8026C21.8013 15.1743 21.9002 13.5565 22.1722 11.9772C21.3909 12.0287 20.6088 12.069 19.8263 12.0981Z" fill="#E6007A"/>
<path fill-rule="evenodd" clip-rule="evenodd" d="M14.5959 10.3104C15.7846 9.00498 15.5998 7.05877 14.1832 5.9634C12.8326 4.91915 10.85 5.02517 9.63793 6.16839C8.14342 6.81467 7.39819 8.48051 7.96664 9.99337C8.56107 11.5754 10.367 12.3911 12.0001 11.8154L10.9238 8.95081L10.1402 6.86526L12.0307 8.32705L14.5959 10.3104ZM16.0334 14.0066C16.6019 15.5195 15.8567 17.1853 14.3622 17.8316C13.1502 18.9749 11.1675 19.0809 9.81692 18.0366C8.40023 16.9413 8.21544 14.9951 9.40418 13.6897L11.9693 15.673L13.86 17.1349L13.0763 15.0492L12 12.1847C13.6332 11.6089 15.439 12.4246 16.0334 14.0066Z" fill="white"/>
<defs>
<linearGradient id="paint0_linear_16794_101" x1="1.52272" y1="11.3714" x2="37.2083" y2="11.3982" gradientUnits="userSpaceOnUse">
<stop stop-color="#F79420" stop-opacity="0.92"/>
<stop offset="1" stop-color="#C4C4C4" stop-opacity="0"/>
</linearGradient>
</defs>
</svg>
