<svg width="24" height="24" viewBox="0 0 24 24" fill="none" xmlns="http://www.w3.org/2000/svg">
<path d="M23.5 12C23.5 18.3513 18.3513 23.5 12 23.5C5.64873 23.5 0.5 18.3513 0.5 12C0.5 5.64873 5.64873 0.5 12 0.5C18.3513 0.5 23.5 5.64873 23.5 12Z" fill="white" stroke="#F2F4F7"/>
<path d="M12 23C18.0751 23 23 18.0751 23 12C23 5.92487 18.0751 1 12 1C5.92487 1 1 5.92487 1 12C1 18.0751 5.92487 23 12 23Z" fill="white"/>
<path d="M18.0229 8.82518C17.9618 8.98421 15.3936 7.38787 13.0481 8.47696C11.3429 9.26879 10.6384 10.8039 10.6384 12.1128C10.6384 13.1442 11.0005 13.9235 11.3962 14.4312C12.0399 15.2571 12.6387 15.5678 13.1559 15.8439C13.9889 16.2886 15.4056 16.3035 15.8357 16.2814C16.6366 16.2402 17.5776 16.0111 18.3711 15.6448C18.6741 15.5049 19.166 15.2014 19.5969 14.862C20.3328 14.2825 21.0106 13.5535 20.9987 13.6099C20.98 13.6994 20.9876 13.7701 20.6196 14.4089C19.5293 16.3016 17.7167 17.1272 17.7167 17.1272C15.1631 18.4636 12.897 17.7704 12.4565 17.6041C10.5229 16.8736 9.51445 15.5043 9.27884 15.0689C8.89459 14.3586 8.20573 11.75 9.12872 9.67654C9.81272 8.14 11.3984 7.38505 11.5736 7.3128C14.3989 6.14626 18.0785 8.68067 18.0229 8.82518Z" fill="url(#paint0_linear_16795_199)"/>
<path d="M18.1035 8.69271C17.9887 8.79795 17.1639 7.81876 15.8397 7.1116C15.4611 6.90948 14.0167 6.18299 12.2526 6.22029C9.32815 6.28183 7.38471 8.40381 7.03816 8.79709C5.306 10.7626 4.49047 13.7892 5.46474 16.1444C6.73091 19.2049 10.9674 20.9653 10.6453 21L10.2746 20.8828C9.8275 20.7083 4.33958 18.2637 4.14303 13.3922C4.03221 10.6472 4.9245 8.42423 5.46474 7.81739C6.40869 6.75708 7.16558 6.24662 7.80366 5.90947C9.08581 5.23247 11.4971 4.65235 13.2867 4.91884C15.2947 5.21795 16.5551 6.60445 17.1697 7.28059C17.7241 7.89039 18.1962 8.60765 18.1035 8.69271Z" fill="url(#paint1_linear_16795_199)"/>
<path d="M18.0892 8.82249C18.2248 8.76292 18.0437 6.94015 16.8461 5.55402C16.3631 4.99389 15.832 4.48459 15.18 4.12815C12.4844 2.68379 9.17004 3.84528 8.45259 4.12815C7.71767 4.41778 6.14956 5.2092 4.8331 6.83302C3.34915 8.66364 3.12939 10.6276 3.0449 11.4872C2.68387 15.158 4.61456 18.0409 4.75198 17.9974C4.83206 17.9721 3.95615 16.1378 4.14322 13.3923C4.21448 12.3471 4.36086 10.4328 5.70154 8.59525C6.51366 7.51154 7.45318 6.60948 8.67878 6.01393C9.38799 5.66755 11.9256 4.55115 14.4668 5.43777C15.2411 5.71344 15.9539 6.13422 16.5661 6.67693C17.6724 7.67656 17.9782 8.87136 18.0892 8.82249Z" fill="url(#paint2_linear_16795_199)"/>
<path d="M14.1849 19.1046C14.1212 19.2116 9.72457 17.9712 8.07291 14.9143C7.82432 14.4544 6.67636 12.003 7.4295 10.0947C7.74448 9.29641 8.36459 8.40277 8.61505 8.1252C9.01964 7.6769 9.70602 7.27387 10.5776 6.90866C10.9692 6.74843 11.6846 6.58163 12.1049 6.5264C12.5215 6.47569 13.1614 6.48657 13.5792 6.5264C14.3914 6.60381 15.4892 7.54143 15.4583 7.54143C15.45 7.54143 14.5871 7.26793 13.6948 7.20731C12.9552 7.15707 12.1529 7.32685 11.8684 7.42629C11.2406 7.64571 10.3801 8.1252 9.88256 8.731C9.38502 9.33681 8.96032 10.193 8.86985 11.3409C8.80354 12.1822 8.89455 13.4096 9.26348 14.3665C9.44033 14.8251 9.74491 15.4088 10.3303 16.1775C11.5764 17.8137 14.2309 19.0278 14.1849 19.1046Z" fill="url(#paint3_linear_16795_199)"/>
<path d="M11.8028 6.14252C12.5656 6.03382 13.2184 5.99635 13.9747 6.14252C14.8426 6.31485 15.3226 6.49247 15.9138 6.79133C16.9234 7.30179 18.2012 8.6107 18.1038 8.80716C17.9305 9.15735 15.2401 6.34349 11.5439 7.31187C10.4987 7.66455 9.854 7.99389 9.18645 8.49692C8.04948 9.35368 7.48607 10.4806 7.30804 10.9415C7.00239 11.7327 6.9194 12.1779 6.88239 13.02C6.88239 14.1537 7.09701 14.8113 7.35659 15.5321C7.72586 16.5581 8.41455 17.7309 8.30391 17.655C7.03868 16.7861 6.24803 14.1051 6.16067 13.5495C6.07332 12.9939 5.7003 10.5871 7.30804 8.58305C8.77376 6.75613 11.2343 6.22438 11.8028 6.14252Z" fill="url(#paint4_linear_16795_199)"/>
<defs>
<linearGradient id="paint0_linear_16795_199" x1="16.4141" y1="7.06582" x2="16.4141" y2="17.978" gradientUnits="userSpaceOnUse">
<stop stop-color="#FAB961"/>
<stop offset="1"/>
</linearGradient>
<linearGradient id="paint1_linear_16795_199" x1="11.1244" y1="4.85264" x2="11.1244" y2="21.0271" gradientUnits="userSpaceOnUse">
<stop stop-color="#FAB961"/>
<stop offset="1"/>
</linearGradient>
<linearGradient id="paint2_linear_16795_199" x1="10.5662" y1="3.50927" x2="10.5662" y2="17.9982" gradientUnits="userSpaceOnUse">
<stop/>
<stop offset="0.414296" stop-color="#FAB961"/>
</linearGradient>
<linearGradient id="paint3_linear_16795_199" x1="10.7425" y1="7.02387" x2="10.7425" y2="18.8062" gradientUnits="userSpaceOnUse">
<stop/>
<stop offset="1" stop-color="#FAB961"/>
</linearGradient>
<linearGradient id="paint4_linear_16795_199" x1="12.0849" y1="6.33011" x2="12.0849" y2="17.6584" gradientUnits="userSpaceOnUse">
<stop/>
<stop offset="1" stop-color="#FAB961"/>
</linearGradient>
</defs>
</svg>
