<svg width="24" height="24" viewBox="0 0 24 24" fill="none" xmlns="http://www.w3.org/2000/svg">
<path d="M23.5 12C23.5 18.3513 18.3513 23.5 12 23.5C5.64873 23.5 0.5 18.3513 0.5 12C0.5 5.64873 5.64873 0.5 12 0.5C18.3513 0.5 23.5 5.64873 23.5 12Z" fill="#101828" stroke="#172233"/>
<path d="M12.0001 7.45984C13.5698 7.45984 14.8423 6.72495 14.8423 5.81843C14.8423 4.91191 13.5698 4.17703 12.0001 4.17703C10.4304 4.17703 9.15789 4.91191 9.15789 5.81843C9.15789 6.72495 10.4304 7.45984 12.0001 7.45984Z" fill="#E6007A"/>
<path d="M12.0001 19.823C13.5698 19.823 14.8423 19.0881 14.8423 18.1816C14.8423 17.2751 13.5698 16.5402 12.0001 16.5402C10.4304 16.5402 9.15789 17.2751 9.15789 18.1816C9.15789 19.0881 10.4304 19.823 12.0001 19.823Z" fill="#E6007A"/>
<path d="M8.03866 9.72999C8.82351 8.38075 8.81854 6.91953 8.02756 6.46627C7.23658 6.01301 5.95912 6.73935 5.17427 8.08858C4.38942 9.43782 4.3944 10.899 5.18538 11.3523C5.97636 11.8056 7.25382 11.0792 8.03866 9.72999Z" fill="#E6007A"/>
<path d="M18.826 15.9115C19.6108 14.5623 19.6058 13.1011 18.8148 12.6478C18.0239 12.1946 16.7464 12.9209 15.9616 14.2701C15.1767 15.6194 15.1817 17.0806 15.9727 17.5339C16.7636 17.9871 18.0411 17.2608 18.826 15.9115Z" fill="#E6007A"/>
<path d="M8.02755 17.5338C8.81853 17.0805 8.82351 15.6193 8.03866 14.2701C7.25381 12.9208 5.97635 12.1945 5.18537 12.6478C4.39439 13.101 4.38942 14.5622 5.17427 15.9115C5.95911 17.2607 7.23657 17.987 8.02755 17.5338Z" fill="#E6007A"/>
<path d="M18.8148 11.3523C19.6058 10.8991 19.6107 9.43787 18.8259 8.08863C18.041 6.73939 16.7636 6.01306 15.9726 6.46632C15.1816 6.91958 15.1766 8.3808 15.9615 9.73003C16.7463 11.0793 18.0238 11.8056 18.8148 11.3523Z" fill="#E6007A"/>
</svg>
