<svg width="24" height="24" viewBox="0 0 24 24" fill="none" xmlns="http://www.w3.org/2000/svg">
<path d="M23.5 12C23.5 18.3513 18.3513 23.5 12 23.5C5.64873 23.5 0.5 18.3513 0.5 12C0.5 5.64873 5.64873 0.5 12 0.5C18.3513 0.5 23.5 5.64873 23.5 12Z" fill="#101828" stroke="#172233"/>
<path opacity="0.8" d="M11.9983 3.37701V15.2887L17.2458 12.1599L11.9983 3.37701Z" fill="#5B65CE"/>
<path opacity="0.5" d="M11.9993 3.37701L6.75171 12.1598L11.9993 15.2887V9.75391V3.37701Z" fill="#5B65CE"/>
<path opacity="0.8" d="M11.9982 16.2906L11.9336 16.37V20.4322L11.9982 20.6225L17.2489 13.1633L11.9982 16.2906Z" fill="#5B65CE"/>
<path opacity="0.5" d="M11.9985 20.623V16.2912L6.75098 13.1639L11.9985 20.623Z" fill="#5B65CE"/>
<path d="M11.9985 15.2889L17.246 12.1601L11.9985 9.75418V15.2889Z" fill="#5B65CE"/>
<path opacity="0.8" d="M6.75098 12.1594L11.9984 15.2882V9.75348L6.75098 12.1594Z" fill="#5B65CE"/>
</svg>
