<svg width="24" height="24" viewBox="0 0 24 24" fill="none" xmlns="http://www.w3.org/2000/svg">
<path d="M23.5 12C23.5 18.3513 18.3513 23.5 12 23.5C5.64873 23.5 0.5 18.3513 0.5 12C0.5 5.64873 5.64873 0.5 12 0.5C18.3513 0.5 23.5 5.64873 23.5 12Z" fill="white" stroke="#F2F4F7"/>
<mask id="mask0_16795_219" style="mask-type:alpha" maskUnits="userSpaceOnUse" x="1" y="1" width="22" height="22">
<path d="M12 23C18.0751 23 23 18.0751 23 12C23 5.92487 18.0751 1 12 1C5.92487 1 1 5.92487 1 12C1 18.0751 5.92487 23 12 23Z" fill="white"/>
</mask>
<g mask="url(#mask0_16795_219)">
<rect x="-1.20001" y="-1.19987" width="26.4" height="26.4" fill="#E6007A"/>
<g filter="url(#filter0_f_16795_219)">
<path fill-rule="evenodd" clip-rule="evenodd" d="M23.88 -1.53001C19.59 10.02 7.61163 9.98434 5.72996 15.96C2.95005 24.7883 17.8449 38.7505 26.8499 27.8401C34.625 18.4199 27.1746 -10.4002 23.88 -1.53001Z" fill="#921FC0"/>
</g>
<g filter="url(#filter1_f_16795_219)">
<path fill-rule="evenodd" clip-rule="evenodd" d="M28.4993 6.71946C21.5708 13.8846 15.6293 10.6794 10.8378 14.4222C7.57214 16.973 13.8247 24.0105 12 29.4901C10.3512 34.4414 23.5598 37.1755 28.4993 33.7795C36.8782 28.0191 34.4019 0.615313 28.4993 6.71946Z" fill="url(#paint0_radial_16795_219)"/>
</g>
</g>
<path d="M6.59879 6.85733V7.65461C6.70756 7.40468 6.89046 7.19417 7.12277 7.05158C7.35507 6.90899 7.62557 6.84118 7.89767 6.85733H8.61575V7.86581H7.71815C6.92087 7.86581 6.61463 8.24069 6.61463 9.15941V10.6167H8.30423V11.5618H4.18583V10.6167H5.35799V7.81301H4.18583V6.85733H6.59879Z" fill="white"/>
<path d="M12.0002 11.678C10.8439 11.678 9.75095 11.0127 9.75095 9.21221C9.75095 7.41173 10.8439 6.75701 12.0002 6.75701C13.1565 6.75701 14.2442 7.41173 14.2442 9.21221C14.2442 11.0127 13.146 11.678 12.0002 11.678ZM12.0002 7.68101C11.3983 7.68101 11.0129 8.12981 11.0129 9.21221C11.0129 10.2946 11.3983 10.7487 12.0002 10.7487C12.6021 10.7487 12.9876 10.2946 12.9876 9.21221C12.9876 8.12981 12.6021 7.68101 12.0002 7.68101Z" fill="white"/>
<path d="M19.7196 8.55749H18.5316C18.4577 8.05589 18.2253 7.68101 17.6657 7.68101C17.106 7.68101 16.7522 8.16149 16.7522 9.21749C16.7522 10.2735 17.1007 10.7487 17.6604 10.7487C18.0458 10.7487 18.4365 10.5586 18.5527 9.84053H19.7618C19.7098 10.3581 19.4623 10.8363 19.0699 11.1777C18.6775 11.5192 18.1696 11.6981 17.6498 11.678C16.277 11.678 15.5009 10.622 15.5009 9.21749C15.5009 7.81301 16.2981 6.75701 17.6762 6.75701C18.1828 6.73745 18.6776 6.91348 19.0579 7.24865C19.4383 7.58382 19.6752 8.05245 19.7196 8.55749Z" fill="white"/>
<path d="M6.35063 18.0721C5.19959 18.0721 4.10663 17.4068 4.10663 15.6063C4.10663 13.8058 5.19959 13.1511 6.35063 13.1511C7.50167 13.1511 8.59991 13.8058 8.59991 15.6063C8.59991 17.4068 7.49639 18.0721 6.35063 18.0721ZM6.35063 14.0751C5.74871 14.0751 5.36327 14.5239 5.36327 15.6063C5.36327 16.6887 5.74871 17.1428 6.35063 17.1428C6.95255 17.1428 7.34327 16.6887 7.34327 15.6063C7.34327 14.5239 6.95783 14.0751 6.35063 14.0751Z" fill="white"/>
<path d="M14.07 14.9516H12.882C12.8133 14.45 12.5757 14.0751 12.0161 14.0751C11.4564 14.0751 11.1079 14.5556 11.1079 15.6169C11.1079 16.6781 11.4722 17.1428 12.0002 17.1428C12.3857 17.1428 12.7817 16.9527 12.8925 16.2346H14.1122C14.059 16.7517 13.8112 17.2292 13.419 17.5703C13.0269 17.9115 12.5197 18.0909 12.0002 18.0721C10.6274 18.0721 9.85127 17.0161 9.85127 15.6169C9.85127 14.2177 10.6433 13.1511 12.0266 13.1511C12.5339 13.1289 13.0301 13.304 13.411 13.6397C13.792 13.9754 14.0282 14.4455 14.07 14.9516Z" fill="white"/>
<path d="M17.6445 18.0721C16.4935 18.0721 15.4005 17.4068 15.4005 15.6063C15.4005 13.8058 16.4935 13.1511 17.6445 13.1511C18.7956 13.1511 19.9202 13.8058 19.9202 15.6063C19.9202 17.4068 18.7903 18.0721 17.6445 18.0721ZM17.6445 14.0751C17.0426 14.0751 16.6572 14.5239 16.6572 15.6063C16.6572 16.6887 17.0426 17.1428 17.6445 17.1428C18.2465 17.1428 18.6372 16.6887 18.6372 15.6063C18.6372 14.5239 18.2517 14.0751 17.6445 14.0751Z" fill="white"/>
<defs>
<filter id="filter0_f_16795_219" x="0.389587" y="-8.20393" width="34.8823" height="45.0374" filterUnits="userSpaceOnUse" color-interpolation-filters="sRGB">
<feFlood flood-opacity="0" result="BackgroundImageFix"/>
<feBlend mode="normal" in="SourceGraphic" in2="BackgroundImageFix" result="shape"/>
<feGaussianBlur stdDeviation="2.5" result="effect1_foregroundBlur_16795_219"/>
</filter>
<filter id="filter1_f_16795_219" x="3.87646" y="-0.161758" width="36.0181" height="41.4489" filterUnits="userSpaceOnUse" color-interpolation-filters="sRGB">
<feFlood flood-opacity="0" result="BackgroundImageFix"/>
<feBlend mode="normal" in="SourceGraphic" in2="BackgroundImageFix" result="shape"/>
<feGaussianBlur stdDeviation="3" result="effect1_foregroundBlur_16795_219"/>
</filter>
<radialGradient id="paint0_radial_16795_219" cx="0" cy="0" r="1" gradientUnits="userSpaceOnUse" gradientTransform="translate(23.2242 17.7482) rotate(48.005) scale(10.761 13.4075)">
<stop stop-color="#1AA0FF"/>
<stop offset="1" stop-color="#1AA0FF"/>
</radialGradient>
</defs>
</svg>
