<svg width="24" height="24" viewBox="0 0 24 24" fill="none" xmlns="http://www.w3.org/2000/svg">
<path d="M23.5 12C23.5 18.3513 18.3513 23.5 12 23.5C5.64873 23.5 0.5 18.3513 0.5 12C0.5 5.64873 5.64873 0.5 12 0.5C18.3513 0.5 23.5 5.64873 23.5 12Z" fill="white" stroke="#F2F4F7"/>
<circle cx="12" cy="12" r="11" fill="white"/>
<path d="M16.8466 14.8062C15.8775 16.4765 14.0696 17.6 11.9995 17.6C8.90667 17.6 6.39951 15.0928 6.39951 12C6.39951 8.90716 8.90667 6.4 11.9995 6.4C14.0719 6.4 15.881 7.52583 16.8493 9.19883L18.0611 8.49727C16.8501 6.40661 14.5891 5 11.9995 5C8.13356 5 4.99951 8.13405 4.99951 12C4.99951 15.8659 8.13356 19 11.9995 19C14.5879 19 16.8478 17.5949 18.0592 15.5062L16.8466 14.8062Z" fill="black"/>
<path d="M19.0001 11.3006H13.2111C12.9688 10.8825 12.5177 10.6006 12.0001 10.6006C11.227 10.6006 10.6001 11.2275 10.6001 12.0006C10.6001 12.7737 11.227 13.4006 12.0001 13.4006C12.5181 13.4006 12.9692 13.1187 13.2111 12.7006H19.0001V11.3006Z" fill="black"/>
</svg>
