<svg width="24" height="24" viewBox="0 0 24 24" fill="none" xmlns="http://www.w3.org/2000/svg">
<path d="M23.5 12C23.5 18.3513 18.3513 23.5 12 23.5C5.64873 23.5 0.5 18.3513 0.5 12C0.5 5.64873 5.64873 0.5 12 0.5C18.3513 0.5 23.5 5.64873 23.5 12Z" fill="#101828" stroke="#172233"/>
<path d="M21.4999 12.4421L20.2257 11.2659L18.5647 13.0876C18.4649 13.1963 18.3418 13.2807 18.2048 13.3344C18.0677 13.388 17.9203 13.4095 17.7737 13.3971L16.4116 13.2645C16.314 13.254 16.2153 13.267 16.1236 13.3024C16.032 13.3378 15.9499 13.3945 15.8843 13.4679L10.7168 19.1451L11.9911 20.3124L17.9056 13.8216C17.9814 13.737 18.0789 13.675 18.1874 13.6423C18.2958 13.6095 18.4111 13.6073 18.5207 13.6359L19.7159 13.9277C19.8257 13.9534 19.9402 13.9498 20.0481 13.9172C20.156 13.8847 20.2536 13.8242 20.3311 13.742L21.4999 12.4421Z" fill="url(#paint0_linear_16456_14252)"/>
<path d="M18.767 9.91288L17.4927 8.73676L14.5399 11.9822C14.4401 12.0909 14.317 12.1753 14.18 12.2289C14.0429 12.2826 13.8955 12.304 13.749 12.2917L12.3868 12.159C12.2892 12.1486 12.1905 12.1616 12.0988 12.197C12.0072 12.2323 11.9252 12.289 11.8595 12.3624L7.98389 16.6159L9.25818 17.7921L13.872 12.725C13.9479 12.6404 14.0453 12.5784 14.1538 12.5457C14.2623 12.5129 14.3776 12.5107 14.4872 12.5393L15.6824 12.8311C15.7921 12.8568 15.9066 12.8532 16.0145 12.8206C16.1224 12.7881 16.22 12.7276 16.2975 12.6454L18.767 9.91288Z" fill="url(#paint1_linear_16456_14252)"/>
<path d="M16.0251 7.39277L14.7508 6.21664L10.4973 10.8769C10.3975 10.9857 10.2744 11.0701 10.1374 11.1237C10.0003 11.1773 9.85291 11.1988 9.70636 11.1864L8.34418 11.0538C8.24658 11.0434 8.1479 11.0564 8.05625 11.0917C7.96459 11.1271 7.88257 11.1838 7.81689 11.2572L5.24194 14.087L6.51624 15.2631L9.82939 11.6198C9.90528 11.5352 10.0027 11.4732 10.1112 11.4404C10.2197 11.4077 10.335 11.4055 10.4446 11.4341L11.6398 11.7259C11.7495 11.7516 11.864 11.748 11.9719 11.7154C12.0798 11.6828 12.1774 11.6224 12.2549 11.5402L16.0251 7.39277Z" fill="url(#paint2_linear_16456_14252)"/>
<path d="M13.2919 4.8636L12.0176 3.68747L6.46349 9.78034C6.36373 9.88907 6.24064 9.97347 6.10357 10.0271C5.96651 10.0807 5.8191 10.1022 5.67255 10.0899L4.31037 9.9572C4.21276 9.94679 4.11409 9.95979 4.02244 9.99514C3.93078 10.0305 3.84876 10.0872 3.78308 10.1606L2.5 11.5578L3.77429 12.7339L5.79558 10.5143C5.87147 10.4298 5.96893 10.3677 6.07739 10.335C6.18585 10.3023 6.30114 10.3 6.41076 10.3286L7.60596 10.6204C7.71569 10.6462 7.83019 10.6425 7.93811 10.61C8.04602 10.5774 8.14359 10.517 8.22113 10.4347L13.2919 4.8636Z" fill="url(#paint3_linear_16456_14252)"/>
<defs>
<linearGradient id="paint0_linear_16456_14252" x1="20.2327" y1="11.273" x2="11.9345" y2="20.268" gradientUnits="userSpaceOnUse">
<stop offset="0.21" stop-color="#02C86A"/>
<stop offset="0.34" stop-color="#14EA85"/>
</linearGradient>
<linearGradient id="paint1_linear_16456_14252" x1="17.5024" y1="8.7456" x2="9.2033" y2="17.7415" gradientUnits="userSpaceOnUse">
<stop offset="0.32" stop-color="#02C86A"/>
<stop offset="0.51" stop-color="#11ED85"/>
</linearGradient>
<linearGradient id="paint2_linear_16456_14252" x1="14.7543" y1="6.22018" x2="6.45963" y2="15.2108" gradientUnits="userSpaceOnUse">
<stop offset="0.5" stop-color="#1FD17D"/>
<stop offset="0.64" stop-color="#2CE28C"/>
</linearGradient>
<linearGradient id="paint3_linear_16456_14252" x1="12.0185" y1="3.68835" x2="3.72029" y2="12.6843" gradientUnits="userSpaceOnUse">
<stop offset="0.65" stop-color="#1BC675"/>
<stop offset="0.8" stop-color="#0FD879"/>
</linearGradient>
</defs>
</svg>
