<svg width="24" height="24" viewBox="0 0 24 24" fill="none" xmlns="http://www.w3.org/2000/svg">
<path d="M12 24C18.6274 24 24 18.6274 24 12C24 5.37258 18.6274 0 12 0C5.37258 0 0 5.37258 0 12C0 18.6274 5.37258 24 12 24Z" fill="white"/>
<path d="M12.0937 4.5C14.8337 4.5 17.2259 6.00707 18.5072 8.24708L17.225 8.99878C16.2005 7.20627 14.2864 6.00003 12.0937 6.00003C8.82141 6.00003 6.16878 8.68624 6.16878 12C6.16878 15.3138 8.82141 18 12.0937 18C14.2839 18 16.1968 16.7963 17.2222 15.0067L18.5051 15.7567C17.2234 17.9946 14.8324 19.5 12.0937 19.5C8.00345 19.5 4.6875 16.1421 4.6875 12C4.6875 7.85793 8.00345 4.5 12.0937 4.5ZM12.0937 10.5C12.6414 10.5 13.1187 10.8021 13.3751 11.25H19.5V12.75H13.3751C13.1191 13.1979 12.6418 13.5 12.0937 13.5C11.2758 13.5 10.6125 12.8283 10.6125 12C10.6125 11.1717 11.2758 10.5 12.0937 10.5Z" fill="#282A2C"/>
</svg>
