<svg width="24" height="24" viewBox="0 0 24 24" fill="none" xmlns="http://www.w3.org/2000/svg">
<path d="M23.5 12C23.5 18.3513 18.3513 23.5 12 23.5C5.64873 23.5 0.5 18.3513 0.5 12C0.5 5.64873 5.64873 0.5 12 0.5C18.3513 0.5 23.5 5.64873 23.5 12Z" fill="#101828" stroke="#172233"/>
<g clip-path="url(#clip0_16456_14190)">
<path d="M18.891 16.9614V15.0876L15.6805 11.847H13.7471L18.891 16.9614Z" fill="white"/>
<path d="M5.07715 7.15033V9.02435L8.28756 12.2647H10.221L5.07715 7.15033Z" fill="white"/>
<path d="M6.76318 5.14908H8.63697L11.8776 8.3595L15.0895 5.14908H17.0475L11.8776 10.293L6.76318 5.14908Z" fill="white"/>
<path d="M7.07861 18.8052H8.95239L12.1928 15.5948L15.4042 18.8052H17.3622L12.1928 13.6613L7.07861 18.8052Z" fill="white"/>
<path d="M12 12.8596C12.4748 12.8596 12.8597 12.4748 12.8597 12C12.8597 11.5252 12.4748 11.1404 12 11.1404C11.5253 11.1404 11.1404 11.5252 11.1404 12C11.1404 12.4748 11.5253 12.8596 12 12.8596Z" fill="#E6007A"/>
</g>
<defs>
<clipPath id="clip0_16456_14190">
<rect width="14" height="14" fill="white" transform="translate(5 5)"/>
</clipPath>
</defs>
</svg>
