<svg width="24" height="24" viewBox="0 0 24 24" fill="none" xmlns="http://www.w3.org/2000/svg">
<path d="M23.5 12C23.5 18.3513 18.3513 23.5 12 23.5C5.64873 23.5 0.5 18.3513 0.5 12C0.5 5.64873 5.64873 0.5 12 0.5C18.3513 0.5 23.5 5.64873 23.5 12Z" fill="white" stroke="#F2F4F7"/>
<path d="M12 23C18.0751 23 23 18.0751 23 12C23 5.92487 18.0751 1 12 1C5.92487 1 1 5.92487 1 12C1 18.0751 5.92487 23 12 23Z" fill="#0D106E"/>
<path fill-rule="evenodd" clip-rule="evenodd" d="M4.5 12.0003L12.0027 4.5L19.5 12.0022L12.0027 19.5L4.5 12.0003ZM7.26065 9.76239C6.94384 10.1189 6.28076 10.987 6.28076 12.0003C6.28076 13.0175 6.94905 13.8884 7.26436 14.2423L8.8863 15.8655L8.89392 15.8581C9.54324 15.2231 10.6226 14.3886 11.8532 14.3251C11.5434 14.6705 10.8602 15.5487 10.8602 16.5764C10.8602 17.6041 11.5434 18.4823 11.8532 18.8277L12.0027 18.9844L12.1522 18.8277C12.4619 18.4823 13.1451 17.6041 13.1451 16.5764C13.1451 15.5487 12.4619 14.6705 12.1522 14.3251C13.3875 14.3889 14.4706 15.2297 15.1191 15.8655L16.7792 14.204L16.7831 14.1996C17.1114 13.8224 17.7302 12.979 17.7302 12.0003C17.7302 11.0177 17.1065 10.1715 16.7792 9.79651L15.1268 8.14274L15.1192 8.15021C14.4705 8.786 13.3875 9.62676 12.1522 9.69058C12.4619 9.34516 13.1451 8.46697 13.1451 7.43924C13.1451 6.41153 12.4619 5.53332 12.1522 5.18792L12.0027 5.01615L11.8532 5.18792C11.5434 5.53332 10.8602 6.41153 10.8602 7.43924C10.8602 8.46697 11.5434 9.34516 11.8532 9.69058C10.613 9.62652 9.52635 8.7794 8.87855 8.14274L7.26065 9.76239ZM7.57795 9.74913C9.58035 9.85508 11.1814 12.0003 11.1814 12.0003C11.1814 12.0003 9.58035 14.1454 7.57795 14.2514C7.88965 13.9031 8.56932 13.0261 8.56932 12.0003C8.56932 10.9745 7.88965 10.0974 7.57795 9.74913ZM16.433 9.74913C16.1213 10.0974 15.4416 10.9745 15.4416 12.0003C15.4416 13.0261 16.1213 13.9031 16.433 14.2514C14.4306 14.1454 12.8296 12.0003 12.8296 12.0003C12.8296 12.0003 14.4306 9.85508 16.433 9.74913Z" fill="#52B2ED"/>
</svg>
