<svg width="24" height="24" viewBox="0 0 24 24" fill="none" xmlns="http://www.w3.org/2000/svg">
<path fill-rule="evenodd" clip-rule="evenodd" d="M12 24C18.6274 24 24 18.6274 24 12C24 5.37258 18.6274 0 12 0C5.37258 0 0 5.37258 0 12C0 18.6274 5.37258 24 12 24Z" fill="#141414"/>
<path d="M23.5 12C23.5 18.3513 18.3513 23.5 12 23.5C5.64873 23.5 0.5 18.3513 0.5 12C0.5 5.64873 5.64873 0.5 12 0.5C18.3513 0.5 23.5 5.64873 23.5 12Z" fill="#141414" stroke="#172233"/>
<g filter="url(#filter0_f_16456_14256)">
<path d="M11.9943 15.3165C13.9107 15.3165 15.4643 13.7541 15.4643 11.8267C15.4643 9.89935 13.9107 8.33691 11.9943 8.33691C10.078 8.33691 8.52441 9.89935 8.52441 11.8267C8.52441 13.7541 10.078 15.3165 11.9943 15.3165Z" fill="#2238FB"/>
</g>
<path d="M11.9943 15.3165C13.9107 15.3165 15.4643 13.7541 15.4643 11.8267C15.4643 9.89935 13.9107 8.33691 11.9943 8.33691C10.078 8.33691 8.52441 9.89935 8.52441 11.8267C8.52441 13.7541 10.078 15.3165 11.9943 15.3165Z" fill="#6822FB"/>
<g filter="url(#filter1_f_16456_14256)">
<path fill-rule="evenodd" clip-rule="evenodd" d="M7.0397 9.61946L11.2346 5.02539L10.8862 5.08295C10.3346 5.17409 9.7987 5.33125 9.28928 5.54929C6.58404 6.66659 4.75018 9.34113 5.05933 12.346L6.05327 11.2551C6.19316 11.1021 6.36664 10.9836 6.55985 10.9093C6.75307 10.835 6.96085 10.8067 7.1668 10.8268L8.3277 10.9419C8.68556 10.9768 9.0468 10.9279 9.38261 10.7988C9.71842 10.6698 10.0198 10.4642 10.2631 10.1983L14.3848 5.68508C15.0725 5.9463 15.7126 6.31973 16.279 6.79022L12.4479 10.9855C12.287 11.1615 12.0823 11.2912 11.8548 11.3612C11.6274 11.4311 11.3856 11.4389 11.1542 11.3836L10.1623 11.1386C9.88684 11.0728 9.59886 11.082 9.32811 11.1653C9.05746 11.2485 8.81383 11.4028 8.62238 11.6122L5.61327 14.8799L5.64925 14.9576C6.05895 15.8431 6.70499 16.5988 7.41718 17.2284L7.51058 17.311L11.6509 12.781C11.7908 12.6279 11.9643 12.5095 12.1575 12.4352C12.3508 12.3609 12.5586 12.3326 12.7646 12.3527L13.9266 12.4678C14.2845 12.5027 14.6457 12.4537 14.9815 12.3247C15.3173 12.1957 15.6187 11.9901 15.862 11.7242L18.1359 9.23336C18.4925 10.0339 18.69 10.8972 18.7168 11.7747L18.0492 12.5138C17.8884 12.6896 17.6835 12.8195 17.4561 12.8895C16.9059 13.0587 16.2971 12.8017 15.7626 12.6731C15.4871 12.6073 15.199 12.6164 14.9282 12.6997C14.6575 12.783 14.4138 12.9374 14.2223 13.1469L9.377 18.4525L9.55241 18.5194C10.3412 18.8204 11.1781 18.9743 12.0219 18.9735C12.352 18.9739 12.6817 18.9502 13.0083 18.9024C14.355 18.7088 15.6156 18.1228 16.6341 17.2171C17.6527 16.3114 18.3844 15.1257 18.7387 13.8067L18.725 13.8029C18.7262 13.7982 18.7275 13.7935 18.7288 13.7887L18.7666 13.6488L18.3765 13.6101C18.1322 13.5863 17.8857 13.6198 17.6564 13.7079C17.4273 13.7961 17.2214 13.9367 17.0554 14.1182L12.8491 18.6662C12.5749 18.701 12.2985 18.7183 12.0221 18.718C11.2721 18.7187 10.5275 18.5926 9.81999 18.3453L14.4095 13.3198C14.5704 13.1438 14.7752 13.0141 15.0026 12.9441C15.4385 12.81 15.9111 12.9434 16.3545 13.0686C16.4708 13.1014 16.5851 13.1337 16.6961 13.1604C16.9716 13.2263 17.2598 13.2171 17.5305 13.1338C17.7998 13.051 18.047 12.8953 18.2369 12.6861L18.9735 11.8707L18.9724 11.8196C18.9495 10.825 18.7153 9.84684 18.2854 8.95051L18.204 8.78075L15.6748 11.5512C14.8876 12.3185 13.9924 12.2243 13.0315 12.1233C12.9512 12.1148 12.8704 12.1064 12.7891 12.0983C12.544 12.0744 12.2967 12.108 12.0667 12.1965C11.8367 12.2849 11.6303 12.4258 11.4637 12.6081L7.49223 16.9534C6.85602 16.3757 6.29008 15.7006 5.91628 14.927L8.80908 11.7857C8.96986 11.6104 9.17557 11.4795 9.40251 11.4096C9.62988 11.3397 9.87213 11.332 10.1035 11.3873L11.094 11.6319C11.3687 11.6977 11.6592 11.6886 11.9292 11.6056C12.1999 11.5223 12.4437 11.3678 12.6351 11.1583L16.6448 6.76762L16.5452 6.68156C15.9097 6.13222 15.1803 5.70321 14.3923 5.41535L14.3126 5.38623L10.0758 10.0254C9.85926 10.2622 9.59088 10.4452 9.29183 10.5601C8.99279 10.675 8.67116 10.7186 8.35246 10.6875L7.19145 10.5724C6.94631 10.5485 6.699 10.5822 6.469 10.6706C6.23899 10.7591 6.03245 10.9001 5.86591 11.0824L5.32052 11.681C5.34483 11.1452 5.43268 10.6173 5.58021 10.108C5.83151 10.1552 6.09086 10.1407 6.33603 10.0653C6.6059 9.98222 6.84884 9.82831 7.0397 9.61946ZM5.65328 9.87196C5.85708 9.90571 6.06634 9.89183 6.26464 9.83082C6.49301 9.76056 6.69854 9.63036 6.86001 9.45368L10.5411 5.42229C9.12613 5.74275 7.84896 6.5167 6.90584 7.63257C6.34469 8.29649 5.92172 9.05788 5.65328 9.87196ZM17.7436 13.9369C17.9376 13.8623 18.1462 13.834 18.353 13.8541L18.4541 13.8642C18.0956 15.087 17.4026 16.1855 16.4528 17.0341C15.5588 17.8328 14.4627 18.3234 13.2862 18.5536L17.2346 14.2846C17.3753 14.1314 17.5497 14.0115 17.7436 13.9369Z" fill="#C5FBFF"/>
</g>
<path fill-rule="evenodd" clip-rule="evenodd" d="M7.0397 9.61946L11.2346 5.02539L10.8862 5.08295C10.3346 5.17409 9.7987 5.33125 9.28928 5.54929C6.58404 6.66659 4.75018 9.34113 5.05933 12.346L6.05327 11.2551C6.19316 11.1021 6.36664 10.9836 6.55985 10.9093C6.75307 10.835 6.96085 10.8067 7.1668 10.8268L8.3277 10.9419C8.68556 10.9768 9.0468 10.9279 9.38261 10.7988C9.71842 10.6698 10.0198 10.4642 10.2631 10.1983L14.3848 5.68508C15.0725 5.9463 15.7126 6.31973 16.279 6.79022L12.4479 10.9855C12.287 11.1615 12.0823 11.2912 11.8548 11.3612C11.6274 11.4311 11.3856 11.4389 11.1542 11.3836L10.1623 11.1386C9.88684 11.0728 9.59886 11.082 9.32811 11.1653C9.05746 11.2485 8.81383 11.4028 8.62238 11.6122L5.61327 14.8799L5.64925 14.9576C6.05895 15.8431 6.70499 16.5988 7.41718 17.2284L7.51058 17.311L11.6509 12.781C11.7908 12.6279 11.9643 12.5095 12.1575 12.4352C12.3508 12.3609 12.5586 12.3326 12.7646 12.3527L13.9266 12.4678C14.2845 12.5027 14.6457 12.4537 14.9815 12.3247C15.3173 12.1957 15.6187 11.9901 15.862 11.7242L18.1359 9.23336C18.4925 10.0339 18.69 10.8972 18.7168 11.7747L18.0492 12.5138C17.8884 12.6896 17.6835 12.8195 17.4561 12.8895C16.9059 13.0587 16.2971 12.8017 15.7626 12.6731C15.4871 12.6073 15.199 12.6164 14.9282 12.6997C14.6575 12.783 14.4138 12.9374 14.2223 13.1469L9.377 18.4525L9.55241 18.5194C10.3412 18.8204 11.1781 18.9743 12.0219 18.9735C12.352 18.9739 12.6817 18.9502 13.0083 18.9024C14.355 18.7088 15.6156 18.1228 16.6341 17.2171C17.6527 16.3114 18.3844 15.1257 18.7387 13.8067L18.725 13.8029C18.7262 13.7982 18.7275 13.7935 18.7288 13.7887L18.7666 13.6488L18.3765 13.6101C18.1322 13.5863 17.8857 13.6198 17.6564 13.7079C17.4273 13.7961 17.2214 13.9367 17.0554 14.1182L12.8491 18.6662C12.5749 18.701 12.2985 18.7183 12.0221 18.718C11.2721 18.7187 10.5275 18.5926 9.81999 18.3453L14.4095 13.3198C14.5704 13.1438 14.7752 13.0141 15.0026 12.9441C15.4385 12.81 15.9111 12.9434 16.3545 13.0686C16.4708 13.1014 16.5851 13.1337 16.6961 13.1604C16.9716 13.2263 17.2598 13.2171 17.5305 13.1338C17.7998 13.051 18.047 12.8953 18.2369 12.6861L18.9735 11.8707L18.9724 11.8196C18.9495 10.825 18.7153 9.84684 18.2854 8.95051L18.204 8.78075L15.6748 11.5512C14.8876 12.3185 13.9924 12.2243 13.0315 12.1233C12.9512 12.1148 12.8704 12.1064 12.7891 12.0983C12.544 12.0744 12.2967 12.108 12.0667 12.1965C11.8367 12.2849 11.6303 12.4258 11.4637 12.6081L7.49223 16.9534C6.85602 16.3757 6.29008 15.7006 5.91628 14.927L8.80908 11.7857C8.96986 11.6104 9.17557 11.4795 9.40251 11.4096C9.62988 11.3397 9.87213 11.332 10.1035 11.3873L11.094 11.6319C11.3687 11.6977 11.6592 11.6886 11.9292 11.6056C12.1999 11.5223 12.4437 11.3678 12.6351 11.1583L16.6448 6.76762L16.5452 6.68156C15.9097 6.13222 15.1803 5.70321 14.3923 5.41535L14.3126 5.38623L10.0758 10.0254C9.85926 10.2622 9.59088 10.4452 9.29183 10.5601C8.99279 10.675 8.67116 10.7186 8.35246 10.6875L7.19145 10.5724C6.94631 10.5485 6.699 10.5822 6.469 10.6706C6.23899 10.7591 6.03245 10.9001 5.86591 11.0824L5.32052 11.681C5.34483 11.1452 5.43268 10.6173 5.58021 10.108C5.83151 10.1552 6.09086 10.1407 6.33603 10.0653C6.6059 9.98222 6.84884 9.82831 7.0397 9.61946ZM5.65328 9.87196C5.85708 9.90571 6.06634 9.89183 6.26464 9.83082C6.49301 9.76056 6.69854 9.63036 6.86001 9.45368L10.5411 5.42229C9.12613 5.74275 7.84896 6.5167 6.90584 7.63257C6.34469 8.29649 5.92172 9.05788 5.65328 9.87196ZM17.7436 13.9369C17.9376 13.8623 18.1462 13.834 18.353 13.8541L18.4541 13.8642C18.0956 15.087 17.4026 16.1855 16.4528 17.0341C15.5588 17.8328 14.4627 18.3234 13.2862 18.5536L17.2346 14.2846C17.3753 14.1314 17.5497 14.0115 17.7436 13.9369Z" fill="white"/>
<defs>
<filter id="filter0_f_16456_14256" x="6.52441" y="6.33691" width="10.9399" height="10.9796" filterUnits="userSpaceOnUse" color-interpolation-filters="sRGB">
<feFlood flood-opacity="0" result="BackgroundImageFix"/>
<feBlend mode="normal" in="SourceGraphic" in2="BackgroundImageFix" result="shape"/>
<feGaussianBlur stdDeviation="1" result="effect1_foregroundBlur_16456_14256"/>
</filter>
<filter id="filter1_f_16456_14256" x="3.52539" y="3.52539" width="16.9482" height="16.9482" filterUnits="userSpaceOnUse" color-interpolation-filters="sRGB">
<feFlood flood-opacity="0" result="BackgroundImageFix"/>
<feBlend mode="normal" in="SourceGraphic" in2="BackgroundImageFix" result="shape"/>
<feGaussianBlur stdDeviation="0.75" result="effect1_foregroundBlur_16456_14256"/>
</filter>
</defs>
</svg>
