<svg width="24" height="24" viewBox="0 0 24 24" fill="none" xmlns="http://www.w3.org/2000/svg">
<path d="M23.5 12C23.5 18.3513 18.3513 23.5 12 23.5C5.64873 23.5 0.5 18.3513 0.5 12C0.5 5.64873 5.64873 0.5 12 0.5C18.3513 0.5 23.5 5.64873 23.5 12Z" fill="#101828" stroke="#172233"/>
<mask id="mask0_18592_3000" style="mask-type:alpha" maskUnits="userSpaceOnUse" x="0" y="0" width="24" height="24">
<path fill-rule="evenodd" clip-rule="evenodd" d="M12 24C18.6274 24 24 18.6274 24 12C24 5.37258 18.6274 0 12 0C5.37258 0 0 5.37258 0 12C0 18.6274 5.37258 24 12 24Z" fill="#101828"/>
</mask>
<g mask="url(#mask0_18592_3000)">
<path opacity="0.7" d="M0 14.6124C0 17.0695 0 20.2765 0 22.7336L24 22.7336C24 21.3385 24 11.8705 24 14.6795C21.2553 15.4225 17.1206 16.2488 12.3047 16.2488C7.34342 16.2488 2.90955 15.3719 0 14.6124Z" fill="url(#paint0_linear_18592_3000)"/>
<path d="M0 24.7866C0 24.7866 0 19.4626 0 16.0953C3.1681 15.7334 7.90775 15.2866 12.0009 15.2866C16.0933 15.2866 20.8319 15.7332 24 16.0951C24 19.4626 24 24.7866 24 24.7866H0Z" fill="url(#paint1_linear_18592_3000)"/>
<path d="M0 14.9451C0 15.7854 3.82442e-05 16.6256 0 17.4658C0.457092 17.4129 1.26899 17.3585 1.78222 17.304C4.79675 16.9839 8.63408 16.6675 12.0009 16.6675C15.3677 16.6675 19.2051 16.9839 22.2196 17.304C22.7322 17.3584 24 17.4656 24 17.4656C24 16.6254 24 15.7852 24 14.9449C23.5269 14.8901 23.0206 14.8335 22.4879 14.777C19.4411 14.4535 15.5005 14.1263 12.0009 14.1263C8.50129 14.1263 4.5607 14.4535 1.51392 14.777C0.980566 14.8336 0.473588 14.8902 0 14.9451Z" fill="url(#paint2_linear_18592_3000)"/>
<path d="M7.20008 17.792C7.01344 17.792 6.83357 17.8154 6.76032 17.8353C6.6537 17.8652 6.6271 17.9119 6.60704 18.0086L6.18395 19.9609C6.17718 20.0007 6.17065 20.0341 6.17065 20.0675C6.17065 20.1642 6.234 20.2273 6.33723 20.2273C6.45062 20.2273 6.49728 20.154 6.52049 20.0406L6.6404 19.4843C6.72357 19.4942 6.83357 19.5044 6.99023 19.5044C7.67998 19.5044 8.1096 19.1314 8.1096 18.5683C8.1096 18.0751 7.76629 17.792 7.20008 17.792ZM6.97355 19.1846C6.86693 19.1846 6.78352 19.1812 6.70713 19.1713L6.93028 18.1351C7.00014 18.1251 7.10362 18.1116 7.21024 18.1116C7.57675 18.1116 7.76339 18.2849 7.76339 18.5714C7.76315 18.938 7.49649 19.1846 6.97355 19.1846Z" fill="white"/>
<path d="M18.0541 19.5842C17.9975 19.5842 17.9607 19.6175 17.8909 19.6942C17.7676 19.8209 17.6909 19.8907 17.5945 19.8907C17.5079 19.8907 17.4613 19.8209 17.4613 19.7075C17.4613 19.6441 17.4746 19.5675 17.4912 19.4843L17.6145 18.9046H17.9844C18.101 18.9046 18.1711 18.8379 18.1711 18.7179C18.1711 18.6512 18.1278 18.6014 18.0279 18.6014H17.681L17.741 18.3316C17.7477 18.2917 17.7543 18.255 17.7543 18.2216C17.7543 18.1283 17.6909 18.0616 17.5877 18.0616C17.4777 18.0616 17.4279 18.1348 17.4044 18.2482L17.3278 18.6014H17.1711C17.0512 18.6014 16.9814 18.6681 16.9814 18.7881C16.9814 18.8548 17.028 18.9046 17.1279 18.9046H17.2645L17.1412 19.4776C17.1279 19.5409 17.1112 19.6441 17.1112 19.7508C17.1112 20.0206 17.2512 20.2171 17.5509 20.2171C17.7243 20.2171 17.8773 20.1306 17.9941 20.0271C18.1075 19.9272 18.1907 19.8039 18.1907 19.7239C18.1907 19.6475 18.1307 19.5842 18.0541 19.5842Z" fill="white"/>
<path d="M10.3916 17.9885C10.3916 17.8918 10.3249 17.8285 10.2216 17.8285C10.1116 17.8285 10.0618 17.9018 10.0384 18.0151L9.62207 19.9507C9.61216 19.9906 9.60539 20.024 9.60539 20.0573C9.60539 20.154 9.67212 20.2171 9.77196 20.2171C9.88535 20.2171 9.93516 20.1439 9.95861 20.0305L10.3749 18.0952C10.3817 18.055 10.3916 18.0219 10.3916 17.9885Z" fill="white"/>
<path d="M16.3383 18.5681C15.8052 18.5681 15.442 19.0978 15.442 19.6009C15.442 19.6103 15.4423 19.6197 15.4425 19.6289C15.3589 19.7558 15.252 19.8874 15.1788 19.8874C15.1256 19.8874 15.1055 19.8373 15.1055 19.7607C15.1055 19.6674 15.1321 19.5107 15.1621 19.3741L15.4387 18.0947C15.4454 18.0548 15.452 18.0214 15.452 17.9881C15.452 17.8914 15.3886 17.828 15.2854 17.828C15.172 17.828 15.1256 17.9013 15.1021 18.0147L14.9522 18.7076C14.8722 18.6244 14.7554 18.5676 14.5789 18.5676C14.225 18.5676 13.8689 18.84 13.7301 19.258C13.5773 19.6531 13.4407 19.8869 13.3329 19.8869C13.293 19.8869 13.2696 19.8535 13.2696 19.7969C13.2696 19.6304 13.3629 19.224 13.4028 19.0274C13.4161 18.9541 13.4228 18.9242 13.4228 18.8809C13.4228 18.7344 13.1796 18.561 12.8632 18.561C12.4971 18.561 12.1657 18.7929 11.9996 19.1372C11.7527 19.5733 11.5262 19.8869 11.414 19.8869C11.364 19.8869 11.3473 19.8235 11.334 19.7636L11.2511 19.3045L11.7607 18.8881C11.8074 18.8483 11.8673 18.7914 11.8673 18.7182C11.8673 18.6283 11.8074 18.5683 11.7174 18.5683C11.6507 18.5683 11.5941 18.6082 11.5376 18.6548L10.7714 19.2878L11.0279 18.0952C11.0347 18.0553 11.0446 18.0219 11.0446 17.9885C11.0446 17.8918 10.9779 17.8285 10.8746 17.8285C10.7646 17.8285 10.7148 17.9018 10.6914 18.0151L10.2751 19.9507C10.2652 19.9906 10.2584 20.024 10.2584 20.0573C10.2584 20.154 10.3251 20.2171 10.425 20.2171C10.5384 20.2171 10.5882 20.1439 10.6116 20.0305L10.665 19.7807L10.9781 19.5276L11.0548 19.914C11.0847 20.0672 11.1648 20.2171 11.3712 20.2171C11.5767 20.2171 11.7385 20.0295 11.9005 19.7759C11.9495 20.0416 12.1386 20.2171 12.4009 20.2171C12.6642 20.2171 12.8441 20.0605 12.9606 19.8506V19.8574C12.9606 20.074 13.0706 20.2171 13.2638 20.2171C13.4386 20.2171 13.5836 20.1117 13.7132 19.8878C13.7867 20.0829 13.9511 20.2171 14.1798 20.2171C14.4496 20.2171 14.6428 20.0539 14.7661 19.8274V19.8475C14.7661 20.0873 14.886 20.2174 15.0825 20.2174C15.2561 20.2174 15.4036 20.1165 15.5296 19.9526C15.6253 20.1165 15.797 20.2174 16.0288 20.2174C16.5619 20.2174 16.925 19.6877 16.925 19.1812C16.9248 18.8246 16.7082 18.5681 16.3383 18.5681ZM13.0169 19.2445C12.9202 19.6608 12.7137 19.8975 12.4804 19.8975C12.3238 19.8975 12.2372 19.7776 12.2372 19.5977C12.2372 19.2445 12.4937 18.8647 12.8368 18.8647C12.94 18.8647 13.0201 18.8947 13.0899 18.938L13.0169 19.2445ZM14.8724 19.068C14.7658 19.5578 14.5226 19.8975 14.2562 19.8975C14.1097 19.8975 14.0229 19.7841 14.0229 19.5977C14.0229 19.2414 14.2695 18.8715 14.5993 18.8715C14.7259 18.8715 14.8224 18.9147 14.8925 18.9713L14.8724 19.068ZM16.0685 19.8975C15.8753 19.8975 15.7953 19.7575 15.7953 19.581C15.7953 19.2578 16.0184 18.8881 16.2984 18.8881C16.4915 18.8881 16.5716 19.0281 16.5716 19.2046C16.5716 19.531 16.3484 19.8975 16.0685 19.8975Z" fill="white"/>
<path d="M8.93909 18.5681C8.406 18.5681 8.04287 19.0978 8.04287 19.6009C8.04287 19.9606 8.25949 20.2171 8.62915 20.2171C9.16224 20.2171 9.52537 19.6874 9.52537 19.1809C9.52537 18.8246 9.30875 18.5681 8.93909 18.5681ZM8.66928 19.8975C8.47611 19.8975 8.39609 19.7575 8.39609 19.581C8.39609 19.2578 8.61924 18.8881 8.8992 18.8881C9.09237 18.8881 9.17239 19.0281 9.17239 19.2046C9.17215 19.531 8.949 19.8975 8.66928 19.8975Z" fill="white"/>
</g>
<path d="M23.5 12C23.5 18.3513 18.3513 23.5 12 23.5C5.64873 23.5 0.5 18.3513 0.5 12C0.5 5.64873 5.64873 0.5 12 0.5C18.3513 0.5 23.5 5.64873 23.5 12Z" stroke="#172233"/>
<path d="M17.0273 4H14.3606L6.3606 12H11.6939L17.0273 4Z" fill="url(#paint3_linear_18592_3000)"/>
<defs>
<linearGradient id="paint0_linear_18592_3000" x1="-3.55493" y1="13.521" x2="27.9821" y2="19.0507" gradientUnits="userSpaceOnUse">
<stop stop-color="#9E3BFF"/>
<stop offset="1" stop-color="#6D55FF"/>
</linearGradient>
<linearGradient id="paint1_linear_18592_3000" x1="-3.58551" y1="15.7567" x2="27.5872" y2="15.7567" gradientUnits="userSpaceOnUse">
<stop stop-color="#9E3BFF"/>
<stop offset="1" stop-color="#492CFF"/>
</linearGradient>
<linearGradient id="paint2_linear_18592_3000" x1="-3.54345" y1="21.9362" x2="27.4358" y2="22.5" gradientUnits="userSpaceOnUse">
<stop stop-color="white" stop-opacity="0"/>
<stop offset="0.500885" stop-color="#9F7BFF"/>
<stop offset="1" stop-color="white" stop-opacity="0"/>
</linearGradient>
<linearGradient id="paint3_linear_18592_3000" x1="11.6939" y1="4" x2="11.6939" y2="12" gradientUnits="userSpaceOnUse">
<stop stop-color="#7AEDCF"/>
<stop offset="0.201333" stop-color="#68CEFA"/>
<stop offset="0.403244" stop-color="#689CF8"/>
<stop offset="0.602076" stop-color="#AC57C0"/>
<stop offset="0.801867" stop-color="#E65659"/>
<stop offset="1" stop-color="#F2C241"/>
</linearGradient>
</defs>
</svg>
