<svg width="24" height="24" viewBox="0 0 24 24" fill="none" xmlns="http://www.w3.org/2000/svg">
<path d="M23.5 12C23.5 18.3513 18.3513 23.5 12 23.5C5.64873 23.5 0.5 18.3513 0.5 12C0.5 5.64873 5.64873 0.5 12 0.5C18.3513 0.5 23.5 5.64873 23.5 12Z" fill="white" stroke="#F2F4F7"/>
<path fill-rule="evenodd" clip-rule="evenodd" d="M9.06084 3.28539C7.704 3.75405 6.51974 4.49263 5.5193 5.4941C4.79324 6.22092 4.22097 7.01926 3.77 7.93449C3.26005 8.96942 2.95799 10.0628 2.85711 11.239C2.8343 11.5049 2.82542 12.2009 2.84127 12.4801C2.97143 14.7721 3.91406 16.8793 5.53025 18.4909C6.98237 19.9389 8.86757 20.8574 10.8948 21.1044C11.246 21.1472 11.4456 21.1595 11.8825 21.1652C12.4234 21.1722 12.7414 21.1552 13.2137 21.094C16.5141 20.6661 19.3436 18.4513 20.5658 15.3392C20.6331 15.1678 20.7499 14.842 20.7499 14.8256C20.7499 14.8224 20.689 14.9117 20.6145 15.0241C19.4579 16.7705 17.6928 18.0256 15.6748 18.5365C14.3442 18.8735 12.9244 18.8777 11.5905 18.5487C9.80228 18.1076 8.20855 17.0869 7.04844 15.6397C5.61907 13.8565 4.98373 11.5813 5.278 9.2995C5.4626 7.86813 6.01722 6.51056 6.89246 5.34782C7.14663 5.01014 7.32804 4.80102 7.64169 4.48415C8.06435 4.05713 8.47623 3.71752 8.97003 3.38886C9.08544 3.31204 9.17561 3.24956 9.17042 3.25C9.16522 3.25045 9.11591 3.26636 9.06084 3.28539ZM13.2137 3.44531C13.1876 3.44748 13.1046 3.45416 13.0292 3.46015C12.3002 3.51808 11.5249 3.71244 10.8379 4.00948C9.85739 4.43344 8.96488 5.10235 8.266 5.93705C6.92129 7.54307 6.37527 9.68687 6.78545 11.7502C6.80273 11.8371 6.84271 12.0098 6.8743 12.1339C6.90588 12.258 6.93172 12.3611 6.93172 12.3631C6.93172 12.3652 6.93581 12.3668 6.94081 12.3668C6.9458 12.3668 6.95314 12.3351 6.95711 12.2963C6.99077 11.9678 7.15415 11.3717 7.31624 10.986C7.84865 9.71917 8.81766 8.66503 10.0339 8.02964C10.9821 7.53425 12.1162 7.30769 13.041 7.42892C14.0923 7.56675 14.9241 8.15996 15.3357 9.06551C15.4533 9.32434 15.5414 9.64385 15.5599 9.87923C15.5671 9.96986 15.5774 10.0057 15.5964 10.0057C15.6136 10.0057 16.061 10.2258 16.281 10.3425C16.8366 10.6372 17.4569 11.0095 17.5304 11.0925L17.551 11.1156L17.4772 11.1087C17.0245 11.0664 16.5628 11.079 16.1547 11.1447C15.0341 11.3251 14.2388 11.8591 13.8247 12.7094C13.6693 13.0284 13.5722 13.3528 13.5245 13.7119C13.5048 13.8597 13.502 14.1836 13.5191 14.3221C13.6093 15.0524 13.9828 15.6626 14.588 16.0682C14.8735 16.2596 15.1973 16.3875 15.5641 16.4539C15.7037 16.4791 15.7417 16.4816 16.0016 16.4821C16.306 16.4827 16.3866 16.4746 16.6392 16.4184C16.7931 16.3842 17.0608 16.2958 17.2242 16.2254C17.7228 16.0106 18.2209 15.6439 18.6746 15.1576C19.7627 13.9915 20.3892 12.5894 20.541 10.9807C20.5628 10.7491 20.5596 9.97517 20.5358 9.74747C20.441 8.84038 20.2118 8.0428 19.8225 7.26541C19.1579 5.93814 18.0509 4.83388 16.7183 4.16896C15.9521 3.78669 15.149 3.55681 14.2572 3.46456C14.1036 3.44867 13.3418 3.43461 13.2137 3.44531ZM13.5984 8.66015C13.5288 8.68312 13.4867 8.70903 13.4266 8.76588C13.3228 8.86397 13.2715 9.01257 13.296 9.14413C13.3144 9.24324 13.3622 9.33054 13.4348 9.39778C13.5232 9.47955 13.5895 9.50397 13.7249 9.50452C13.8613 9.50509 13.9259 9.48084 14.0183 9.39435C14.0874 9.32971 14.1237 9.26953 14.1475 9.18001C14.199 8.98687 14.0992 8.77823 13.9111 8.68564C13.8505 8.6558 13.8307 8.65152 13.7415 8.64904C13.6787 8.64729 13.6246 8.65148 13.5984 8.66015Z" fill="url(#paint0_linear_14683_13451)"/>
<defs>
<linearGradient id="paint0_linear_14683_13451" x1="2.83325" y1="3.25" x2="20.7733" y2="21.1894" gradientUnits="userSpaceOnUse">
<stop stop-color="#00D2D3"/>
<stop offset="1" stop-color="#C70CBA"/>
</linearGradient>
</defs>
</svg>
