<svg width="24" height="24" viewBox="0 0 24 24" fill="none" xmlns="http://www.w3.org/2000/svg">
<path d="M23.5 12C23.5 18.3513 18.3513 23.5 12 23.5C5.64873 23.5 0.5 18.3513 0.5 12C0.5 5.64873 5.64873 0.5 12 0.5C18.3513 0.5 23.5 5.64873 23.5 12Z" fill="#101828" stroke="#172233"/>
<mask id="mask0_18592_3023" style="mask-type:alpha" maskUnits="userSpaceOnUse" x="0" y="0" width="24" height="24">
<path fill-rule="evenodd" clip-rule="evenodd" d="M12 24C18.6274 24 24 18.6274 24 12C24 5.37258 18.6274 0 12 0C5.37258 0 0 5.37258 0 12C0 18.6274 5.37258 24 12 24Z" fill="#101828"/>
</mask>
<g mask="url(#mask0_18592_3023)">
<path opacity="0.7" d="M0 14.6124C0 17.0695 0 20.2765 0 22.7336L24 22.7336C24 21.3385 24 11.8705 24 14.6795C21.2553 15.4225 17.1206 16.2488 12.3047 16.2488C7.34342 16.2488 2.90955 15.3719 0 14.6124Z" fill="url(#paint0_linear_18592_3023)"/>
<path d="M0 24.7866C0 24.7866 0 19.4626 0 16.0953C3.1681 15.7334 7.90775 15.2866 12.0009 15.2866C16.0933 15.2866 20.8319 15.7332 24 16.0951C24 19.4626 24 24.7866 24 24.7866H0Z" fill="url(#paint1_linear_18592_3023)"/>
<path d="M0 14.9451C0 15.7854 3.82442e-05 16.6256 0 17.4658C0.457092 17.4129 1.26899 17.3585 1.78222 17.304C4.79675 16.9839 8.63408 16.6675 12.0009 16.6675C15.3677 16.6675 19.2051 16.9839 22.2196 17.304C22.7322 17.3584 24 17.4656 24 17.4656C24 16.6254 24 15.7852 24 14.9449C23.5269 14.8901 23.0206 14.8335 22.4879 14.777C19.4411 14.4535 15.5005 14.1263 12.0009 14.1263C8.50129 14.1263 4.5607 14.4535 1.51392 14.777C0.980566 14.8336 0.473588 14.8902 0 14.9451Z" fill="url(#paint2_linear_18592_3023)"/>
<path d="M6.71833 20.3057C6.56055 20.3057 6.43164 20.1779 6.43164 20.0215V18.6487C6.43164 18.4923 6.56055 18.3667 6.71833 18.3667C6.87613 18.3667 7.00503 18.4945 7.00503 18.6509V20.0237C7.00281 20.1779 6.87613 20.3057 6.71833 20.3057Z" fill="white"/>
<path d="M7.92977 20.3057C7.84533 20.3057 7.7631 20.2682 7.70976 20.2044L7.13192 19.5191C7.04302 19.4133 7.04302 19.2613 7.13192 19.1555L7.70976 18.4681C7.81199 18.3469 7.992 18.3315 8.11202 18.4306C8.23203 18.5298 8.24981 18.7105 8.1498 18.8294L7.72531 19.3362L8.1498 19.8408C8.24981 19.962 8.23425 20.1405 8.11202 20.2396C8.06091 20.2815 7.99645 20.3057 7.92977 20.3057Z" fill="white"/>
<path d="M9.83195 20.3057H8.62068C8.46288 20.3057 8.33398 20.1779 8.33398 20.0215V18.6487C8.33398 18.4923 8.46288 18.3645 8.62068 18.3645C8.77847 18.3645 8.90738 18.4923 8.90738 18.6487V19.7372H9.54741V18.6487C9.54741 18.4923 9.67631 18.3645 9.83409 18.3645C9.99197 18.3645 10.1209 18.4923 10.1209 18.6487V20.0215C10.1186 20.1779 9.98974 20.3057 9.83195 20.3057Z" fill="white"/>
<path d="M11.7369 20.3057H10.5256C10.3679 20.3013 10.2434 20.1713 10.2478 20.0148C10.2523 19.8651 10.3745 19.7438 10.5256 19.7394H11.4502V19.724L10.4457 19.4398C10.3234 19.4045 10.239 19.2943 10.239 19.1665V18.6487C10.239 18.4923 10.3679 18.3667 10.5256 18.3667H11.7369C11.8947 18.3667 12.0235 18.4945 12.0235 18.6509C12.0235 18.8073 11.8947 18.9352 11.7369 18.9352H10.8123V18.9528L11.8169 19.2371C11.9391 19.2723 12.0235 19.3825 12.0235 19.5103V20.0237C12.0235 20.1801 11.8947 20.3057 11.7369 20.3057Z" fill="white"/>
<path d="M15.7169 20.3057C15.5591 20.3057 15.4323 20.1779 15.4323 20.0215V19.2657L15.2991 19.3802C15.1923 19.4706 15.0346 19.4706 14.9256 19.3802L14.7923 19.2657V20.0215C14.7923 20.1779 14.6634 20.3057 14.5056 20.3057C14.3479 20.3057 14.2189 20.1779 14.2189 20.0215V18.6487C14.2189 18.4923 14.3479 18.3645 14.5056 18.3645C14.5745 18.3645 14.6389 18.3888 14.6923 18.4328L15.1124 18.7897L15.5302 18.4328C15.6501 18.3315 15.8302 18.3447 15.9347 18.4636C15.979 18.5143 16.0036 18.5804 16.0036 18.6487V20.0215C16.0058 20.1779 15.8769 20.3057 15.7169 20.3057Z" fill="white"/>
<path d="M13.8125 20.3057C13.6547 20.3057 13.5258 20.1779 13.5258 20.0215V19.7813L12.8124 18.933H12.7146V19.7372H13.1458C13.3036 19.7417 13.4281 19.8716 13.4236 20.0281C13.4191 20.1779 13.2969 20.2991 13.1458 20.3035H12.4279C12.2702 20.3035 12.1435 20.1757 12.1435 20.0192V18.6487C12.1435 18.4923 12.2724 18.3667 12.4279 18.3667H12.948C13.0324 18.3667 13.1146 18.4042 13.168 18.4681L14.0326 19.497C14.0748 19.5477 14.0992 19.6117 14.0992 19.6777V20.0215C14.0992 20.1779 13.9725 20.3057 13.8125 20.3057Z" fill="white"/>
<path d="M17.795 20.3057C17.6372 20.3057 17.5083 20.1779 17.5083 20.0215V19.7813L16.7948 18.933H16.6948V19.7372H17.126C17.2838 19.7417 17.4083 19.8716 17.4038 20.0281C17.3993 20.1779 17.2771 20.2991 17.126 20.3035H16.4104C16.2526 20.3035 16.1237 20.1757 16.1237 20.0192V18.6487C16.1237 18.4923 16.2526 18.3667 16.4104 18.3667H16.9304C17.0149 18.3667 17.0948 18.4042 17.1505 18.4681L18.015 19.497C18.0572 19.5477 18.0816 19.6117 18.0816 19.6777V20.0215C18.0816 20.1801 17.9527 20.3057 17.795 20.3057Z" fill="white"/>
<path d="M12.7012 17.6749C12.6812 17.6572 12.659 17.644 12.6323 17.6395C12.599 17.6352 12.5656 17.6572 12.5434 17.6726C12.5211 17.6881 12.4767 17.7277 12.459 17.7432C12.4412 17.7586 12.3967 17.7674 12.3234 17.8114C12.25 17.8555 11.9656 18.0362 11.9656 18.0362H12.0389L11.7078 18.2058H11.7411L11.6945 18.2411C11.7211 18.2478 11.7478 18.2433 11.7722 18.2301V18.2411C11.7722 18.2411 12.1656 18.0869 12.2412 18.1265L12.1945 18.1397C12.1989 18.1397 12.2722 18.1441 12.2722 18.1441C12.2767 18.175 12.2945 18.2037 12.3211 18.2191C12.3656 18.2478 12.3678 18.2654 12.3678 18.2654C12.3678 18.2654 12.3456 18.2741 12.3456 18.2874C12.3878 18.2741 12.4322 18.2741 12.4723 18.2874C12.4723 18.2874 12.4701 18.2741 12.4389 18.2654C12.4078 18.2521 12.3812 18.2323 12.3611 18.2037C12.3434 18.1794 12.3367 18.1486 12.3478 18.1199C12.3589 18.0913 12.3967 18.0758 12.4744 18.0362C12.5656 17.9899 12.5879 17.9546 12.599 17.926C12.6101 17.8973 12.6323 17.8445 12.6412 17.818C12.65 17.7938 12.6656 17.774 12.6856 17.7563C12.7101 17.7432 12.7367 17.7321 12.7612 17.7233C12.7656 17.7255 12.7168 17.6859 12.7012 17.6749Z" fill="white"/>
</g>
<path d="M23.5 12C23.5 18.3513 18.3513 23.5 12 23.5C5.64873 23.5 0.5 18.3513 0.5 12C0.5 5.64873 5.64873 0.5 12 0.5C18.3513 0.5 23.5 5.64873 23.5 12Z" stroke="#172233"/>
<path d="M17.0273 4H14.3606L6.3606 12H11.6939L17.0273 4Z" fill="url(#paint3_linear_18592_3023)"/>
<defs>
<linearGradient id="paint0_linear_18592_3023" x1="-3.55493" y1="13.521" x2="27.9821" y2="19.0507" gradientUnits="userSpaceOnUse">
<stop stop-color="#9E3BFF"/>
<stop offset="1" stop-color="#6D55FF"/>
</linearGradient>
<linearGradient id="paint1_linear_18592_3023" x1="-3.58551" y1="15.7567" x2="27.5872" y2="15.7567" gradientUnits="userSpaceOnUse">
<stop stop-color="#9E3BFF"/>
<stop offset="1" stop-color="#492CFF"/>
</linearGradient>
<linearGradient id="paint2_linear_18592_3023" x1="-3.54345" y1="21.9362" x2="27.4358" y2="22.5" gradientUnits="userSpaceOnUse">
<stop stop-color="white" stop-opacity="0"/>
<stop offset="0.500885" stop-color="#9F7BFF"/>
<stop offset="1" stop-color="white" stop-opacity="0"/>
</linearGradient>
<linearGradient id="paint3_linear_18592_3023" x1="11.6939" y1="4" x2="11.6939" y2="12" gradientUnits="userSpaceOnUse">
<stop stop-color="#7AEDCF"/>
<stop offset="0.201333" stop-color="#68CEFA"/>
<stop offset="0.403244" stop-color="#689CF8"/>
<stop offset="0.602076" stop-color="#AC57C0"/>
<stop offset="0.801867" stop-color="#E65659"/>
<stop offset="1" stop-color="#F2C241"/>
</linearGradient>
</defs>
</svg>
