<svg width="24" height="24" viewBox="0 0 24 24" fill="none" xmlns="http://www.w3.org/2000/svg">
<path d="M23.5 12C23.5 18.3513 18.3513 23.5 12 23.5C5.64873 23.5 0.5 18.3513 0.5 12C0.5 5.64873 5.64873 0.5 12 0.5C18.3513 0.5 23.5 5.64873 23.5 12Z" fill="white" stroke="#F2F4F7"/>
<path fill-rule="evenodd" clip-rule="evenodd" d="M14.596 10.3103C15.7847 9.00495 15.6 7.05874 14.1833 5.96337C12.8327 4.91912 10.8501 5.02514 9.63805 6.16836C8.14354 6.81464 7.39831 8.48048 7.96677 9.99334C8.56119 11.5754 10.3671 12.3911 12.0002 11.8153L10.9239 8.95078L10.1403 6.86523L12.0308 8.32702L14.596 10.3103ZM16.0335 14.0065C16.602 15.5194 15.8568 17.1853 14.3623 17.8316C13.1503 18.9749 11.1676 19.0809 9.81705 18.0366C8.40035 16.9413 8.21556 14.995 9.40431 13.6896L11.9694 15.6729L13.8601 17.1348L13.0765 15.0492L12.0001 12.1846C13.6333 11.6089 15.4391 12.4246 16.0335 14.0065Z" fill="#E6007A"/>
</svg>
