<svg width="24" height="24" viewBox="0 0 24 24" fill="none" xmlns="http://www.w3.org/2000/svg">
<path d="M23.5 12C23.5 18.3513 18.3513 23.5 12 23.5C5.64873 23.5 0.5 18.3513 0.5 12C0.5 5.64873 5.64873 0.5 12 0.5C18.3513 0.5 23.5 5.64873 23.5 12Z" fill="#101828" stroke="#172233"/>
<path fill-rule="evenodd" clip-rule="evenodd" d="M5.16807 15.1518C4.71853 14.1894 4.46744 13.1157 4.46744 11.9835C4.46744 7.84407 7.82307 4.48845 11.9625 4.48845C14.2674 4.48845 16.3291 5.52892 17.704 7.16571L18.5243 6.47746C16.953 4.60683 14.5967 3.41772 11.9625 3.41772C7.23174 3.41772 3.39673 7.25274 3.39673 11.9835C3.39673 13.2775 3.68368 14.5045 4.19744 15.6043L5.16807 15.1518Z" fill="white"/>
<path fill-rule="evenodd" clip-rule="evenodd" d="M11.9625 17.0694C9.15367 17.0694 6.87663 14.7923 6.87663 11.9835C6.87663 9.17461 9.15367 6.89755 11.9625 6.89755C13.5266 6.89755 14.9254 7.60377 15.8584 8.71445L16.6789 8.02603C15.5495 6.68153 13.8558 5.82684 11.9625 5.82684C8.56232 5.82684 5.80591 8.58325 5.80591 11.9835C5.80591 15.3837 8.56232 18.1401 11.9625 18.1401V17.0694Z" fill="white"/>
<path fill-rule="evenodd" clip-rule="evenodd" d="M13.8077 13.5317C13.3658 14.0578 12.7031 14.3923 11.9623 14.3923C10.6318 14.3923 9.5532 13.3138 9.5532 11.9832C9.5532 10.6527 10.6318 9.5741 11.9623 9.5741C12.7031 9.5741 13.3658 9.90863 13.8077 10.4347L14.7304 9.6605C14.0675 8.87133 13.0736 8.36954 11.9623 8.36954C9.96653 8.36954 8.34863 9.98743 8.34863 11.9832C8.34863 13.979 9.96653 15.5969 11.9623 15.5969C12.9808 15.5969 13.9004 15.1753 14.5573 14.4974L13.8077 13.5317Z" fill="white"/>
</svg>
