<svg width="24" height="24" viewBox="0 0 24 24" fill="none" xmlns="http://www.w3.org/2000/svg">
<path d="M23.5 12C23.5 18.3513 18.3513 23.5 12 23.5C5.64873 23.5 0.5 18.3513 0.5 12C0.5 5.64873 5.64873 0.5 12 0.5C18.3513 0.5 23.5 5.64873 23.5 12Z" fill="#101828" stroke="#172233"/>
<circle cx="12" cy="12" r="11" fill="url(#paint0_linear_16795_309)"/>
<circle cx="12" cy="12" r="11" fill="url(#paint1_linear_16795_309)"/>
<path fill-rule="evenodd" clip-rule="evenodd" d="M12.6868 15.0804C13.1801 15.1084 13.6525 15.1673 14.104 15.2571L14.4741 16.407L14.4954 15.3437L14.6667 15.3878C15.1138 15.552 15.561 15.6543 16.0082 15.6946L15.5296 18H13.6097L12.6868 15.0804ZM11.1256 15.0926L10.252 18H8.3986L7.94148 15.7113C8.45039 15.6924 8.91434 15.5845 9.33333 15.3878C9.40022 15.3699 9.46761 15.3527 9.5355 15.3363L9.59541 16.407L9.91369 15.2536C10.3022 15.1771 10.7061 15.1235 11.1256 15.0926ZM7.70213 6L9.4381 14.0221C9.40285 14.0414 9.36793 14.0613 9.33333 14.0816C8.83387 14.2993 8.31536 14.4082 7.77778 14.4082C7.74553 14.4082 7.71308 14.4078 7.68043 14.407L6 6H7.70213ZM16.0426 6L18 6.09375L16.2762 14.4045C15.7988 14.3837 15.2623 14.2761 14.6667 14.0816C14.6544 14.0744 14.6421 14.0673 14.6298 14.0602L16.0426 6ZM12.4545 10.0715L13.5848 13.6284C13.1523 13.5091 12.6833 13.4432 12.1781 13.4307L11.8893 12.3787L11.6079 13.4393C11.169 13.4639 10.7586 13.5305 10.3768 13.6391L11.4322 10.0715H12.4545Z" fill="url(#paint2_linear_16795_309)"/>
<defs>
<linearGradient id="paint0_linear_16795_309" x1="1" y1="1" x2="23" y2="23" gradientUnits="userSpaceOnUse">
<stop stop-color="#009EE5"/>
<stop offset="1" stop-color="#00E3B5"/>
</linearGradient>
<linearGradient id="paint1_linear_16795_309" x1="3.89474" y1="1" x2="19.6711" y2="20.8289" gradientUnits="userSpaceOnUse">
<stop stop-color="#0093ED"/>
<stop offset="1" stop-color="#00F3AB"/>
</linearGradient>
<linearGradient id="paint2_linear_16795_309" x1="18.375" y1="22.875" x2="16.8749" y2="2.06245" gradientUnits="userSpaceOnUse">
<stop stop-color="#000A17"/>
<stop offset="1" stop-color="#00554F"/>
</linearGradient>
</defs>
</svg>
