<svg width="24" height="24" viewBox="0 0 24 24" fill="none" xmlns="http://www.w3.org/2000/svg">
<path d="M23.5 12C23.5 18.3513 18.3513 23.5 12 23.5C5.64873 23.5 0.5 18.3513 0.5 12C0.5 5.64873 5.64873 0.5 12 0.5C18.3513 0.5 23.5 5.64873 23.5 12Z" fill="white" stroke="#F2F4F7"/>
<path d="M12 23C18.0751 23 23 18.0751 23 12C23 5.92487 18.0751 1 12 1C5.92487 1 1 5.92487 1 12C1 18.0751 5.92487 23 12 23Z" fill="white"/>
<path d="M16.949 4.19834L16.2058 3.66461C14.0657 4.02874 8.12461 5.53017 7.41131 9.69524C7.2034 10.9092 8.17947 12.6981 10.0954 13.9152C8.88279 12.9126 7.57516 11.1274 8.19942 9.29619C8.97145 7.03159 13.0279 4.72209 16.949 4.19834Z" fill="#BBA5E1"/>
<path fill-rule="evenodd" clip-rule="evenodd" d="M17.267 4.53527C17.2533 4.53751 17.1456 4.55493 17.0276 4.57396C15.7415 4.78139 14.2289 5.23522 13.0321 5.77271C11.2261 6.58383 9.84622 7.64813 8.93483 8.93296C8.74322 9.20309 8.61429 9.41419 8.54372 9.57333C8.32613 10.0641 8.28711 10.6285 8.42739 11.2558C8.45448 11.377 8.54081 11.6577 8.5552 11.6714C8.55807 11.6742 8.55725 11.6318 8.55338 11.5772C8.54098 11.4025 8.54632 11.2252 8.56796 11.0928C8.70224 10.2713 9.21972 9.38626 10.0205 8.60873C11.109 7.55177 12.7041 6.66637 14.775 5.96973C15.736 5.64645 16.5795 5.41899 17.7708 5.16181C17.9409 5.1251 18.0811 5.09415 18.0823 5.09303C18.0899 5.0861 17.6437 4.74251 17.4551 4.61007C17.3413 4.53013 17.3288 4.52513 17.267 4.53527Z" fill="#764BC4"/>
<path d="M18.2017 5.52677C17.1785 5.6678 15.8187 6.02029 14.748 6.42206C13.0337 7.06534 11.608 7.87786 10.4234 8.88679C10.2544 9.0307 9.89004 9.39499 9.76358 9.54649C9.40772 9.9728 9.14003 10.4229 9.00264 10.8258C8.9054 11.111 8.86158 11.3534 8.87798 11.5153C8.89724 11.7052 9.00345 12.0276 9.15596 12.359C9.22863 12.5169 9.30472 12.6684 9.30552 12.6568C9.3058 12.6528 9.28598 12.587 9.26149 12.5106C9.237 12.4342 9.21233 12.3432 9.20665 12.3083C9.16151 12.0315 9.20285 11.6579 9.31578 11.3219C9.58985 10.5066 10.2513 9.72395 11.3044 8.96897C11.6502 8.72105 11.8968 8.55733 12.2041 8.3715C13.3666 7.66861 14.6138 7.16241 16.045 6.81264C16.5739 6.68337 16.9208 6.60963 17.7099 6.45876C17.9233 6.41796 18.0987 6.38334 18.0999 6.38182C18.101 6.38029 18.2034 6.17815 18.3274 5.93261L18.553 5.48617C18.4601 5.48918 18.3685 5.50257 18.2768 5.516C18.2517 5.51966 18.2267 5.52332 18.2017 5.52677Z" fill="#764BC4"/>
<path d="M17.6012 6.91383C17.2519 6.95532 16.7315 7.05378 16.3108 7.15802C15.0674 7.46604 13.9449 7.91034 12.8288 8.5363C12.2248 8.87505 11.5872 9.30513 11.0668 9.72477C10.4627 10.2119 10.1863 10.4922 9.92939 10.8783C9.66996 11.2682 9.5411 11.6294 9.50417 12.0703C9.47418 12.4282 9.5608 12.8502 9.73595 13.1995C9.78419 13.2957 9.8661 13.4348 9.89368 13.4673L9.91467 13.4921L9.89617 13.4472C9.83401 13.2963 9.79478 13.0593 9.79505 12.8362C9.79543 12.5192 9.85662 12.2444 9.99958 11.918C10.2091 11.4396 10.6433 10.9042 11.1267 10.5283C11.977 9.86702 13.062 9.21702 14.1345 8.72642C15.1269 8.27246 16.1103 7.94943 17.1505 7.73579C17.2922 7.70669 17.4095 7.68132 17.4112 7.67941C17.4202 7.66946 17.8955 6.90272 17.8955 6.89818C17.8955 6.88782 17.7592 6.89506 17.6012 6.91383Z" fill="#5928B1"/>
<path d="M7.05027 19.8032L7.7935 20.3369C9.9336 19.9728 15.8747 18.4714 16.588 14.3063C16.7959 13.0923 15.8198 11.3034 13.9039 10.0863C15.1165 11.089 16.4241 12.8742 15.7998 14.7053C15.0278 16.9699 10.9714 19.2794 7.05027 19.8032Z" fill="#BBA5E1"/>
<path fill-rule="evenodd" clip-rule="evenodd" d="M6.73223 19.4663C6.74594 19.464 6.85369 19.4466 6.97165 19.4276C8.25773 19.2201 9.77036 18.7663 10.9671 18.2288C12.7732 17.4177 14.153 16.3534 15.0644 15.0686C15.256 14.7984 15.385 14.5873 15.4555 14.4282C15.6731 13.9374 15.7122 13.373 15.5719 12.7457C15.5448 12.6246 15.4585 12.3438 15.4441 12.3301C15.4412 12.3274 15.442 12.3698 15.4459 12.4243C15.4583 12.599 15.453 12.7763 15.4313 12.9087C15.297 13.7303 14.7795 14.6153 13.9788 15.3928C12.8903 16.4498 11.2951 17.3352 9.22424 18.0318C8.26323 18.3551 7.41981 18.5825 6.22843 18.8397C6.05833 18.8764 5.91817 18.9074 5.91694 18.9085C5.90938 18.9154 6.35558 19.259 6.54413 19.3915C6.65792 19.4714 6.67049 19.4764 6.73223 19.4663Z" fill="#764BC4"/>
<path d="M5.79761 18.4748C6.82076 18.3337 8.18052 17.9812 9.25122 17.5795C10.9656 16.9362 12.3912 16.1237 13.5759 15.1147C13.7449 14.9708 14.1092 14.6065 14.2357 14.455C14.5915 14.0287 14.8592 13.5787 14.9966 13.1757C15.0939 12.8905 15.1377 12.6481 15.1213 12.4863C15.102 12.2963 14.9958 11.9739 14.8433 11.6425C14.7706 11.4846 14.6945 11.3331 14.6937 11.3447C14.6935 11.3487 14.7133 11.4145 14.7378 11.4909C14.7623 11.5674 14.7869 11.6584 14.7926 11.6932C14.8378 11.97 14.7964 12.3437 14.6835 12.6796C14.4094 13.4949 13.748 14.2776 12.6948 15.0326C12.349 15.2805 12.1025 15.4442 11.7952 15.63C10.6327 16.3329 9.38544 16.8391 7.95431 17.1889C7.42539 17.3182 7.07847 17.3919 6.28939 17.5428C6.07601 17.5836 5.90052 17.6182 5.8994 17.6197C5.89829 17.6212 5.79589 17.8234 5.67183 18.0689L5.44628 18.5154C5.53916 18.5123 5.63072 18.499 5.72251 18.4855C5.74752 18.4819 5.77254 18.4782 5.79761 18.4748Z" fill="#764BC4"/>
<path d="M6.39802 17.0877C6.74737 17.0462 7.26773 16.9477 7.68848 16.8435C8.93191 16.5355 10.0543 16.0912 11.1704 15.4652C11.7744 15.1265 12.412 14.6964 12.9324 14.2768C13.5365 13.7896 13.8129 13.5093 14.0699 13.1232C14.3293 12.7333 14.4582 12.3721 14.4951 11.9312C14.5251 11.5733 14.4385 11.1513 14.2633 10.802C14.2151 10.7058 14.1332 10.5668 14.1056 10.5342L14.0846 10.5094L14.1031 10.5543C14.1653 10.7052 14.2045 10.9423 14.2042 11.1653C14.2038 11.4824 14.1426 11.7571 13.9997 12.0835C13.7902 12.5619 13.3559 13.0973 12.8726 13.4732C12.0223 14.1345 10.9372 14.7845 9.86476 15.2751C8.87238 15.7291 7.88892 16.0521 6.84876 16.2657C6.70709 16.2948 6.58976 16.3202 6.58805 16.3221C6.57906 16.3321 6.10372 17.0988 6.10372 17.1033C6.10372 17.1137 6.24006 17.1065 6.39802 17.0877Z" fill="#5928B1"/>
</svg>
