<svg width="24" height="24" viewBox="0 0 24 24" fill="none" xmlns="http://www.w3.org/2000/svg">
<path d="M23.5 12C23.5 18.3513 18.3513 23.5 12 23.5C5.64873 23.5 0.5 18.3513 0.5 12C0.5 5.64873 5.64873 0.5 12 0.5C18.3513 0.5 23.5 5.64873 23.5 12Z" fill="#101828" stroke="#172233"/>
<path d="M19.0021 13.982L17.278 13.0191L13.4384 15.276C13.1823 15.4227 12.9017 15.4989 12.6175 15.4989C12.3332 15.4989 12.0527 15.4227 11.7965 15.276L6.74441 12.5075L4.99512 13.5307C4.81573 13.646 4.66588 13.8171 4.56144 14.0257C4.457 14.2343 4.40186 14.4726 4.40186 14.7155C4.40186 14.9584 4.457 15.1967 4.56144 15.4053C4.66588 15.6139 4.81573 15.785 4.99512 15.9004L11.7649 19.6243C12.0201 19.7748 12.3011 19.8531 12.5859 19.8531C12.8707 19.8531 13.1516 19.7748 13.4069 19.6243L18.9705 16.3367C19.1484 16.2235 19.2977 16.0557 19.4027 15.8506C19.5078 15.6455 19.565 15.4107 19.5682 15.1704C19.5714 14.9302 19.5206 14.6933 19.421 14.4843C19.3215 14.2753 19.1769 14.1019 19.0021 13.982Z" fill="url(#paint0_linear_16456_14264)"/>
<path d="M10.695 4.37154C10.9513 4.22481 11.2321 4.14862 11.5165 4.14862C11.8009 4.14862 12.0817 4.22481 12.3379 4.37154L19.0108 8.13306C19.1887 8.24907 19.3372 8.41993 19.4406 8.62774C19.544 8.83553 19.5986 9.07263 19.5986 9.31415C19.5986 9.55572 19.544 9.79279 19.4406 10.0006C19.3372 10.2084 19.1887 10.3793 19.0108 10.4953L13.4438 13.7829C13.1884 13.9334 12.9073 14.0117 12.6223 14.0117C12.3373 14.0117 12.0562 13.9334 11.8008 13.7829L5.0269 10.0213C4.84721 9.90703 4.69697 9.73681 4.59221 9.52876C4.48746 9.32077 4.43213 9.08276 4.43213 8.84021C4.43213 8.59767 4.48746 8.35969 4.59221 8.15167C4.69697 7.94364 4.84721 7.77339 5.0269 7.6591L10.695 4.37154Z" fill="url(#paint1_linear_16456_14264)"/>
<defs>
<linearGradient id="paint0_linear_16456_14264" x1="19.5654" y1="15.3975" x2="4.40531" y2="15.3975" gradientUnits="userSpaceOnUse">
<stop stop-color="#EF18AC"/>
<stop offset="1" stop-color="#FAD972"/>
</linearGradient>
<linearGradient id="paint1_linear_16456_14264" x1="17.6715" y1="11.5983" x2="4.4349" y2="11.5983" gradientUnits="userSpaceOnUse">
<stop stop-color="#5314F1"/>
<stop offset="1" stop-color="#04E2FF"/>
</linearGradient>
</defs>
</svg>
