<svg width="24" height="24" viewBox="0 0 24 24" fill="none" xmlns="http://www.w3.org/2000/svg">
<path fill-rule="evenodd" clip-rule="evenodd" d="M12 24C18.6274 24 24 18.6274 24 12C24 5.37258 18.6274 0 12 0C5.37258 0 0 5.37258 0 12C0 18.6274 5.37258 24 12 24Z" fill="#030E27"/>
<path d="M23.5 12C23.5 18.3513 18.3513 23.5 12 23.5C5.64873 23.5 0.5 18.3513 0.5 12C0.5 5.64873 5.64873 0.5 12 0.5C18.3513 0.5 23.5 5.64873 23.5 12Z" fill="#030E27" stroke="#F2F4F7"/>
<path d="M14.3484 9.66261C13.7418 9.06581 12.9245 8.73173 12.0747 8.73498C12.065 8.73498 12.052 8.73498 12.0423 8.73498C10.2454 8.76093 8.81179 10.2335 8.83449 12.0303C8.8572 13.8045 10.3005 15.2316 12.0747 15.2381H12.1071C13.904 15.2219 15.3441 13.7526 15.3279 11.9557C15.3182 11.0897 14.9679 10.2659 14.3484 9.66261Z" fill="url(#paint0_linear_14683_13386)"/>
<path d="M13.4629 9.27024C13.0802 9.17294 12.7753 9.25402 12.5255 9.50701C12.4964 9.53945 12.4672 9.57188 12.438 9.60756C12.3731 9.68865 12.318 9.76 12.1915 9.78919C12.0228 9.82163 11.8477 9.83136 11.6758 9.8119C11.6271 9.80541 11.5849 9.79568 11.5493 9.78595C11.4195 9.75676 11.3449 9.7373 11.1892 9.88325C11.1406 9.93191 11.0984 9.9838 11.0595 10.0422C10.9914 10.1362 10.9265 10.2238 10.8227 10.266C10.7741 10.2854 10.7222 10.2952 10.6703 10.2984C10.667 10.2952 10.6606 10.2952 10.6573 10.2919L10.6541 10.2984C10.5795 10.3017 10.5049 10.2952 10.4303 10.2822C10.3719 10.2725 10.3135 10.2692 10.2551 10.266C10.3362 10.1492 10.4043 10.026 10.4627 9.89947C10.5697 9.88325 10.6606 9.8119 10.7514 9.74379C10.7968 9.70486 10.8487 9.66919 10.9006 9.64C11.079 9.54269 11.1633 9.46161 11.319 9.2897C11.4649 9.13077 11.6206 9.03023 11.812 8.92968C11.906 8.88103 11.9904 8.81292 12.0552 8.72534C12.691 8.72859 13.2845 8.87778 13.8067 9.22159C13.7516 9.26376 13.6348 9.31241 13.4629 9.27024Z" fill="#DADADA"/>
<path d="M15.2241 11.531C15.1787 11.5148 15.1365 11.4921 15.0943 11.4694C15.0295 11.4272 14.9581 11.4013 14.8835 11.385L14.6954 11.291C14.397 11.2391 14.2737 11.278 13.9721 11.1937C13.8326 11.1515 13.6867 11.1353 13.5407 11.1385L13.5342 11.132L13.5277 11.1385C13.424 11.145 13.3202 11.158 13.2034 11.1742L13.1223 11.1839C13.0899 11.1872 13.0542 11.1937 13.012 11.2002C12.7558 11.2423 12.3244 11.3104 12.1752 11.1418L12.1655 11.1483C11.9352 11.012 11.6757 10.9407 11.4098 10.9407C10.9946 10.9407 10.8649 10.8272 10.6281 10.6261C10.5892 10.5904 10.5438 10.5547 10.4951 10.5125C10.5178 10.5125 10.5373 10.5125 10.56 10.5125C10.667 10.5515 10.7805 10.5709 10.8941 10.5709C10.9168 10.5709 10.9362 10.5709 10.9589 10.5677C11.0173 10.5612 11.0725 10.5352 11.1146 10.4931C11.1341 10.4769 11.1535 10.4606 11.173 10.4477C11.2184 10.4217 11.2703 10.4088 11.3254 10.412C11.3481 10.412 11.3741 10.4088 11.3968 10.4055C11.5103 10.3925 11.5882 10.3277 11.666 10.2693C11.7374 10.2141 11.8055 10.159 11.8963 10.146C11.919 10.1428 11.9417 10.1395 11.9676 10.1395C12.0293 10.1395 12.0877 10.1266 12.1428 10.0974C12.172 10.0779 12.1979 10.0552 12.2206 10.0293C12.2466 9.99684 12.2823 9.97413 12.3179 9.95467C12.4379 9.91251 12.4898 9.8152 12.5547 9.73087C12.5839 9.69519 12.7169 9.67573 12.7526 9.64006C13.0218 9.36112 13.2391 9.26381 13.6542 9.36761C13.8651 9.4195 13.9462 9.42923 14.0175 9.37734C14.7213 9.89953 15.1819 10.6844 15.2987 11.5504C15.2695 11.5472 15.2468 11.5407 15.2241 11.531Z" fill="#DADADA"/>
<path d="M11.108 14.3431C11.1048 14.3236 11.1015 14.3009 11.1015 14.2815C11.1015 14.2328 11.095 14.1874 11.0853 14.1387C11.0626 14.0285 11.0302 14.009 10.9912 13.9798C10.9588 13.9571 10.9296 13.9312 10.9069 13.8987C10.868 13.8404 10.8388 13.7722 10.8226 13.7041L10.8193 13.6944C10.8485 13.7106 10.8777 13.7268 10.9069 13.743C10.9231 13.7495 10.9393 13.7593 10.962 13.7722C11.0464 13.8176 11.1631 13.8793 11.2215 13.876C11.2734 13.8695 11.3188 13.8436 11.348 13.8047C11.374 13.7787 11.4615 13.8306 11.5005 13.8209C11.5686 13.8079 11.6497 13.7885 11.7535 13.8306C11.7956 13.8468 11.8345 13.8631 11.8637 13.8728C11.9189 13.889 11.974 13.9117 12.0259 13.9344C12.1135 13.9766 12.2043 14.0058 12.3016 14.0252C12.3535 14.0317 12.4086 14.035 12.4605 14.035C12.5578 14.0285 12.6584 14.0512 12.7459 14.0966C12.9503 14.1971 12.9924 14.2069 13.2162 14.1842C13.3817 14.1679 13.5957 14.1517 13.7547 14.1777C13.9071 14.2036 14.0466 14.2717 14.1828 14.3625C14.1828 14.3755 14.2023 14.4209 14.2055 14.4339C13.6411 14.9496 12.9049 15.235 12.1427 15.235C12.0746 15.235 12.0097 15.2318 11.9416 15.2285C11.9124 15.1961 11.8767 15.1669 11.841 15.141C11.7989 15.115 11.7535 15.0923 11.7048 15.0794C11.6399 15.0566 11.5751 15.0339 11.5394 14.9918C11.4875 14.9366 11.494 14.875 11.5005 14.8134C11.5069 14.7712 11.5037 14.7291 11.4907 14.6901C11.4615 14.6285 11.3967 14.5896 11.3253 14.5507C11.2831 14.528 11.2442 14.502 11.2086 14.4728C11.1729 14.4436 11.1404 14.4112 11.1177 14.3723C11.1242 14.3658 11.108 14.3431 11.108 14.3431Z" fill="#DADADA"/>
<path d="M10.3103 9.41949C10.3038 9.50057 10.3103 9.5849 10.3232 9.66599C10.3395 9.77302 10.3524 9.87681 10.3103 9.99358L10.307 10.0066H10.3038V10.013C10.2486 10.1525 10.1222 10.3504 10.0605 10.4412C9.9243 10.4217 9.85943 10.3212 9.79132 10.2109C9.7524 10.1363 9.69726 10.0714 9.63563 10.013C9.6032 9.99033 9.57076 9.96763 9.53833 9.94817C9.77186 9.6595 10.0508 9.40976 10.3687 9.21515C10.3362 9.28002 10.3168 9.34813 10.3103 9.41949Z" fill="#DADADA"/>
<path d="M14.3775 14.2458C14.371 14.1809 14.371 14.1128 14.3677 14.0447C14.3645 13.6879 14.3483 13.5712 14.1083 13.3701C13.9234 13.2144 13.7126 13.1398 13.6445 12.9063C13.6055 12.7765 13.6055 12.6144 13.6055 12.4425C13.6055 12.3679 13.6055 12.29 13.6023 12.2154C13.6185 12.1408 13.6477 12.0695 13.6801 12.0046C13.7191 11.917 13.7839 11.8262 13.771 11.7321C13.7612 11.6511 13.771 11.7094 13.7353 11.6024C13.7061 11.5083 13.6477 11.4564 13.5796 11.4013C13.7061 11.4013 13.8358 11.4175 13.9591 11.4532C14.2607 11.5408 14.5461 11.4273 14.8445 11.4791L14.8737 11.4856C14.9451 11.4986 15.0132 11.5278 15.0748 11.5667C15.117 11.5927 15.1624 11.6121 15.2078 11.6316C15.237 11.6413 15.2694 11.6511 15.2986 11.6575C15.3148 11.7678 15.3213 11.8781 15.3246 11.9884C15.3246 12.8382 14.9937 13.6555 14.3969 14.262L14.3775 14.2458Z" fill="#DADADA"/>
<path d="M9.17807 12.9387C9.20726 12.9484 9.23321 12.9581 9.25916 12.9679C9.37268 13.0068 9.47971 13.0587 9.58026 13.1235C9.68405 13.1949 9.76838 13.2695 9.83001 13.383C9.89488 13.5063 9.94353 13.5874 10.0733 13.6555L10.1122 13.6749C10.2744 13.7593 10.3879 13.8176 10.4722 13.9798C10.5241 14.0771 10.6149 14.1193 10.7057 14.1582C10.7544 14.1777 10.7998 14.2036 10.8452 14.2296L10.8614 14.2425L10.8939 14.2652C10.9068 14.3106 10.9393 14.3528 11.0171 14.4209C11.0593 14.4566 11.1047 14.4858 11.1533 14.5117C11.2247 14.5539 11.2928 14.5928 11.322 14.6512C11.335 14.6901 11.3382 14.729 11.3285 14.768C11.322 14.8393 11.3155 14.9204 11.3836 14.995C11.429 15.0469 11.5069 15.0729 11.5815 15.0988C11.6334 15.115 11.6788 15.1345 11.7242 15.1637C11.7501 15.1831 11.7761 15.2058 11.802 15.2285C10.4333 15.1118 9.28835 14.1485 8.93481 12.8219C8.99644 12.877 9.09374 12.9095 9.17807 12.9387Z" fill="#DADADA"/>
<path d="M9.69389 10.2952C9.74903 10.386 9.80741 10.4768 9.90796 10.519C9.8139 10.5352 9.7847 10.5093 9.6874 10.5936C9.63551 10.639 9.52198 10.6293 9.47658 10.6812C9.39549 10.7655 9.37603 10.9147 9.27548 10.9666C9.16845 11.0217 9.05493 11.0671 8.94141 11.1028C9.05817 10.6877 9.20088 10.3795 9.46036 10.0519C9.48955 10.0682 9.51874 10.0876 9.54793 10.1103C9.60631 10.159 9.65821 10.2238 9.69389 10.2952Z" fill="#DADADA"/>
<path d="M13.8068 13.3862L13.8295 13.4057C14.0404 13.5841 14.0987 13.6328 14.102 13.9376C14.102 13.9928 14.1052 14.0447 14.1085 14.0966C13.9755 14.0122 13.8393 13.9441 13.6901 13.9214C13.5247 13.8955 13.3106 13.9117 13.1419 13.9279C12.9279 13.9506 12.9733 13.8922 12.7754 13.7917C12.6489 13.7268 12.4803 13.7787 12.3927 13.7787C12.3408 13.7787 12.2889 13.7755 12.237 13.769C12.1462 13.7495 12.0554 13.7203 11.971 13.6814C11.9159 13.6587 11.9418 13.6133 11.8835 13.5971C11.8575 13.5873 11.7408 13.5938 11.6953 13.5776C11.5818 13.5322 11.4424 13.4738 11.3613 13.49C11.3191 13.4998 11.2802 13.5257 11.2542 13.5582C11.2283 13.5938 11.1894 13.6165 11.1472 13.623C11.0986 13.6263 10.985 13.5646 10.9072 13.5225C10.8845 13.5095 10.865 13.4998 10.852 13.4933C10.8099 13.4738 10.771 13.4511 10.7353 13.4252C10.7353 13.4219 10.7353 13.4187 10.732 13.4154L10.7256 13.4187C10.638 13.3538 10.5504 13.2857 10.4726 13.2079C10.3104 13.0587 10.119 12.9451 9.9082 12.8803C10.0412 12.8608 10.1515 12.7992 10.265 12.7343C10.359 12.6759 10.4628 12.6273 10.5666 12.5916C10.6964 12.5527 10.8456 12.5527 10.9883 12.5527C11.1407 12.5527 11.2964 12.5494 11.4359 12.504C11.5786 12.4554 11.6856 12.3548 11.7894 12.2543C11.8997 12.1505 12.0359 12.1343 12.1884 12.0921C12.3116 12.0597 12.4673 11.9559 12.6587 11.9462C12.8922 11.9332 13.1354 11.917 13.2911 11.8586C13.3787 11.9689 13.4046 12.1278 13.4144 12.2964C13.4144 12.2964 13.4144 12.2964 13.4144 12.2997C13.4176 12.3678 13.4176 12.4359 13.4176 12.504C13.4176 12.663 13.4209 12.8122 13.4533 12.9289C13.5149 13.1397 13.6414 13.25 13.8068 13.3862Z" fill="#DADADA"/>
<path d="M8.90913 12.744C8.85075 12.5105 8.82156 12.2704 8.82156 12.0272C8.81832 11.771 8.84426 11.518 8.8994 11.2682C9.01941 11.2358 9.13293 11.1904 9.24645 11.1385C9.34376 11.0898 9.41835 11.0736 9.49295 10.9925C9.53512 10.9471 9.57728 10.9049 9.62269 10.8628C9.80433 10.7103 9.96974 10.7298 10.1416 10.7525C10.1838 10.759 10.226 10.7622 10.2681 10.7655C10.3265 10.8109 10.3784 10.7914 10.4238 10.8304C10.6346 11.012 10.7611 11.1969 11.1471 11.1969C11.4261 11.1969 11.6434 11.2001 11.8639 11.3331C11.8704 11.3363 11.8769 11.3396 11.8834 11.3428C11.9418 11.3785 12.0001 11.4174 12.0585 11.4596L12.0974 11.4855C12.2207 11.5731 12.3375 11.6574 12.4996 11.6834C12.5548 11.6899 12.6099 11.6931 12.6683 11.6899C12.7753 11.6866 12.8661 11.6866 12.9472 11.7677C12.798 11.8228 12.5645 11.8358 12.3375 11.8488C12.1461 11.8618 11.9677 11.8715 11.8412 11.9039C11.679 11.9461 11.5623 12.0596 11.4488 12.1667C11.3417 12.2672 11.2444 12.3645 11.1082 12.4099C10.972 12.4553 10.8228 12.4553 10.6736 12.4553C10.5244 12.4553 10.3784 12.4553 10.2422 12.4975C10.1319 12.5332 10.0281 12.5818 9.93406 12.6434C9.7946 12.7245 9.66161 12.7991 9.48647 12.7894C9.43457 12.7764 9.38592 12.7667 9.33402 12.7602L9.32105 12.757V12.7602C9.17834 12.744 9.04536 12.7375 8.90913 12.744Z" fill="#DADADA"/>
<path d="M7.29706 8.53402C6.9792 8.53727 6.66134 8.52105 6.34349 8.48537C5.68831 8.40753 5.34775 8.24211 5.27315 7.96642C5.15314 7.5318 5.78561 7.16529 6.27213 6.92852C8.1209 6.02684 12.1752 5.08948 15.3116 4.84297C16.2814 4.76513 17.0955 4.76189 17.6696 4.83C18.3248 4.90784 18.6654 5.07326 18.7432 5.34895C18.8632 5.78358 18.2307 6.15009 17.7442 6.38686C15.8955 7.28854 11.8411 8.2259 8.70472 8.4724C8.18577 8.51456 7.71222 8.53402 7.29706 8.53402ZM15.3246 5.04083L15.3408 5.23543C12.2433 5.48194 8.25388 6.39983 6.44079 7.28205C5.66236 7.66154 5.64614 7.86587 5.64614 7.86587C5.67209 7.95993 6.2624 8.27455 8.66904 8.08318C11.7633 7.83668 15.756 6.91878 17.5691 6.03657C18.3475 5.65708 18.3637 5.45274 18.3637 5.45274C18.3378 5.35868 17.7475 5.04407 15.3408 5.23543L15.3246 5.04083Z" fill="#DADADA"/>
<path d="M7.2807 19.2179C6.96285 19.2211 6.64499 19.2049 6.32713 19.1692C5.67195 19.0914 5.33139 18.926 5.25679 18.6503C5.13678 18.2157 5.76925 17.8492 6.25577 17.6124C8.10454 16.7107 12.1589 15.7733 15.2953 15.5268C16.2651 15.449 17.0792 15.4458 17.6533 15.5139C18.3084 15.5917 18.649 15.7571 18.7236 16.0328C18.8436 16.4674 18.2111 16.834 17.7246 17.0707C15.8759 17.9724 11.8215 18.9098 8.68512 19.1563C8.16941 19.1952 7.69911 19.2179 7.2807 19.2179ZM15.3115 15.7215L15.3277 15.9161C12.2335 16.1626 8.24077 17.0805 6.42768 17.9627C5.64925 18.3422 5.63303 18.5465 5.63303 18.5465C5.65898 18.6406 6.24929 18.9552 8.65593 18.7638C11.7502 18.5173 15.7429 17.5994 17.556 16.7172C18.3344 16.3377 18.3506 16.1334 18.3506 16.1334C18.3247 16.0393 17.7344 15.7247 15.3277 15.9161L15.3115 15.7215Z" fill="#DADADA"/>
<defs>
<linearGradient id="paint0_linear_14683_13386" x1="12.0812" y1="15.2357" x2="12.0812" y2="8.7335" gradientUnits="userSpaceOnUse">
<stop stop-color="#603211"/>
<stop offset="0.17" stop-color="#DD7D26"/>
<stop offset="0.35" stop-color="#603211"/>
<stop offset="0.54" stop-color="#9C3520"/>
<stop offset="0.77" stop-color="#DD7D26"/>
<stop offset="1" stop-color="#603211"/>
</linearGradient>
</defs>
</svg>
