<svg width="24" height="24" viewBox="0 0 24 24" fill="none" xmlns="http://www.w3.org/2000/svg">
<g clip-path="url(#clip0_14683_12680)">
<path d="M12 0C5.37258 0 0 5.37258 0 12C0 18.6274 5.37258 24 12 24C18.6274 24 24 18.6274 24 12C24 5.37258 18.6274 0 12 0Z" fill="#4CAF50"/>
<path fill-rule="evenodd" clip-rule="evenodd" d="M17.5222 7.93864C17.8827 8.29912 17.8827 8.88358 17.5222 9.24406L10.4745 16.2918C10.3013 16.4649 10.0666 16.5621 9.82174 16.5621C9.57692 16.5621 9.34213 16.4649 9.16902 16.2918L6.14857 13.2713C5.78809 12.9108 5.78809 12.3264 6.14857 11.9659C6.50906 11.6054 7.09352 11.6054 7.454 11.9659L9.82174 14.3336L16.2167 7.93864C16.5772 7.57815 17.1617 7.57815 17.5222 7.93864Z" fill="white"/>
</g>
<defs>
<clipPath id="clip0_14683_12680">
<rect width="24" height="24" fill="white"/>
</clipPath>
</defs>
</svg>
