<svg width="24" height="24" viewBox="0 0 24 24" fill="none" xmlns="http://www.w3.org/2000/svg">
<g clip-path="url(#clip0_14683_12689)">
<path d="M12 0C5.37258 0 0 5.37258 0 12C0 18.6274 5.37258 24 12 24C18.6274 24 24 18.6274 24 12C24 5.37258 18.6274 0 12 0Z" fill="#EAECF0"/>
<path fill-rule="evenodd" clip-rule="evenodd" d="M16.0612 6.67724C15.7783 6.56012 15.4752 6.49987 15.169 6.49994C14.8629 6.50001 14.5598 6.5604 14.277 6.67765C13.9942 6.79491 13.7372 6.96674 13.5208 7.18331L12.1344 8.56974C11.8415 8.86264 11.3666 8.86264 11.0738 8.56974C10.7809 8.27685 10.7809 7.80198 11.0738 7.50908L12.4597 6.12315C12.8153 5.76729 13.2377 5.48471 13.7024 5.29204C14.1673 5.09931 14.6655 5.00006 15.1687 4.99994C15.6719 4.99982 16.1701 5.09885 16.6351 5.29135C17.1 5.48386 17.5224 5.76608 17.8782 6.12189C18.234 6.47769 18.5162 6.90012 18.7087 7.36502C18.9012 7.82993 19.0003 8.32821 19.0001 8.8314C19 9.33458 18.9008 9.83282 18.708 10.2976C18.5154 10.7623 18.233 11.1845 17.8772 11.5401L15.8969 13.5204C15.5412 13.8761 15.1189 14.1583 14.6542 14.3508C14.1894 14.5433 13.6913 14.6423 13.1883 14.6423C12.6853 14.6423 12.1871 14.5433 11.7224 14.3508C11.2577 14.1583 10.8354 13.8761 10.4797 13.5204C10.1868 13.2275 10.1868 12.7526 10.4797 12.4597C10.7726 12.1668 11.2474 12.1668 11.5403 12.4597C11.7568 12.6762 12.0137 12.8478 12.2964 12.9649C12.5792 13.0821 12.8822 13.1423 13.1883 13.1423C13.4943 13.1423 13.7974 13.0821 14.0802 12.9649C14.3629 12.8478 14.6198 12.6762 14.8363 12.4597L16.8165 10.4795C17.0331 10.2631 17.2052 10.0059 17.3224 9.72313C17.4397 9.44032 17.5001 9.13719 17.5001 8.83105C17.5002 8.5249 17.44 8.22174 17.3228 7.93889C17.2057 7.65603 17.034 7.39902 16.8175 7.18255C16.6011 6.96607 16.344 6.79436 16.0612 6.67724ZM10.812 10.8575C10.5059 10.8575 10.2029 10.9178 9.92011 11.0349C9.63736 11.1521 9.38044 11.3237 9.16402 11.5401L7.18376 13.5204C6.96718 13.7368 6.79511 13.994 6.67785 14.2768C6.5606 14.5596 6.50021 14.8627 6.50014 15.1688C6.50007 15.475 6.56031 15.7781 6.67744 16.061C6.79456 16.3438 6.96627 16.6009 7.18274 16.8173C7.39922 17.0338 7.65623 17.2055 7.93909 17.3226C8.22194 17.4398 8.5251 17.5 8.83125 17.4999C9.13739 17.4999 9.44053 17.4395 9.72333 17.3222C10.0061 17.205 10.2631 17.0331 10.4794 16.8166L11.8659 15.4301C12.1588 15.1372 12.6336 15.1372 12.9265 15.4301C13.2194 15.723 13.2194 16.1979 12.9265 16.4908L11.5406 17.8767C11.185 18.2326 10.7625 18.5152 10.2978 18.7078C9.83302 18.9006 9.33478 18.9998 8.8316 18.9999C8.32841 19.0001 7.83013 18.901 7.36522 18.7085C6.90032 18.516 6.47789 18.2338 6.12208 17.878C5.76628 17.5222 5.48406 17.0998 5.29155 16.6349C5.09904 16.17 5.00002 15.6717 5.00014 15.1685C5.00025 14.6653 5.09951 14.1671 5.29223 13.7022C5.48496 13.2374 5.76737 12.8151 6.12335 12.4595L8.10336 10.4795C8.45906 10.1238 8.88134 9.84162 9.34609 9.64912C9.81083 9.45661 10.3089 9.35753 10.812 9.35753C11.315 9.35753 11.8131 9.45661 12.2779 9.64912C12.7426 9.84162 13.1649 10.1238 13.5206 10.4795C13.8135 10.7724 13.8135 11.2472 13.5206 11.5401C13.2277 11.833 12.7528 11.833 12.4599 11.5401C12.2435 11.3237 11.9866 11.1521 11.7039 11.0349C11.4211 10.9178 11.118 10.8575 10.812 10.8575Z" fill="#98A2B3"/>
</g>
<defs>
<clipPath id="clip0_14683_12689">
<rect width="24" height="24" fill="white"/>
</clipPath>
</defs>
</svg>
