<svg width="24" height="24" viewBox="0 0 24 24" fill="none" xmlns="http://www.w3.org/2000/svg">
<g clip-path="url(#clip0_14693_3434)">
<path d="M18.9556 5.34399C17.6518 4.71467 16.2671 4.256 14.8218 4C14.6399 4.33067 14.4377 4.77866 14.2962 5.13067C12.759 4.89599 11.2328 4.89599 9.71672 5.13067C9.57521 4.77866 9.36295 4.33067 9.19112 4C7.73573 4.256 6.35105 4.71467 5.05634 5.34399C2.4386 9.41865 1.73111 13.3973 2.08485 17.3226C3.82327 18.6559 5.50106 19.4666 7.14953 20C7.55382 19.424 7.91768 18.8053 8.231 18.1546C7.63468 17.92 7.06868 17.632 6.5229 17.2906C6.6644 17.184 6.8059 17.0667 6.93729 16.9493C10.2322 18.5387 13.801 18.5387 17.0555 16.9493C17.197 17.0667 17.3284 17.184 17.4699 17.2906C16.9241 17.632 16.3581 17.92 15.7618 18.1546C16.0751 18.8053 16.439 19.424 16.8432 20C18.4907 19.4666 20.1786 18.6559 21.9079 17.3226C22.3425 12.7787 21.2196 8.83202 18.9556 5.34399ZM8.68581 14.9013C7.6953 14.9013 6.88674 13.952 6.88674 12.7893C6.88674 11.6267 7.67509 10.6773 8.68581 10.6773C9.68639 10.6773 10.505 11.6267 10.4848 12.7893C10.4848 13.952 9.68639 14.9013 8.68581 14.9013ZM15.3272 14.9013C14.3367 14.9013 13.5271 13.952 13.5271 12.7893C13.5271 11.6267 14.3164 10.6773 15.3272 10.6773C16.3278 10.6773 17.1464 11.6267 17.1262 12.7893C17.1262 13.952 16.3379 14.9013 15.3272 14.9013Z" fill="#101828"/>
</g>
<defs>
<clipPath id="clip0_14693_3434">
<rect width="24" height="24" fill="white"/>
</clipPath>
</defs>
</svg>
