<svg width="24" height="24" viewBox="0 0 24 24" fill="none" xmlns="http://www.w3.org/2000/svg">
<g clip-path="url(#clip0_14693_3437)">
<path fill-rule="evenodd" clip-rule="evenodd" d="M12 2C6.47717 2 2 6.47717 2 12C2 17.5228 6.47717 22 12 22C17.5228 22 22 17.5228 22 12C22 6.47717 17.5228 2 12 2ZM12 16.6606C12 17.8426 11.0418 18.8008 9.85973 18.8008C8.67769 18.8008 7.71948 17.8426 7.71948 16.6606C7.71948 15.4785 8.67769 14.5203 9.85973 14.5203C8.67769 14.5203 7.71948 13.5621 7.71948 12.3801C7.71948 11.198 8.67769 10.2398 9.85973 10.2398C8.67769 10.2398 7.71948 9.28163 7.71948 8.09959C7.71948 6.91756 8.67769 5.95935 9.85973 5.95935H12H14.1402C15.3223 5.95935 16.2805 6.91756 16.2805 8.09959C16.2805 9.28163 15.3223 10.2398 14.1402 10.2398H12V12.3801V14.5203V16.6606ZM12 12.3801C12 13.5621 12.9582 14.5203 14.1402 14.5203C15.3223 14.5203 16.2805 13.5621 16.2805 12.3801C16.2805 11.198 15.3223 10.2398 14.1402 10.2398C12.9582 10.2398 12 11.198 12 12.3801Z" fill="#101828"/>
</g>
<defs>
<clipPath id="clip0_14693_3437">
<rect width="24" height="24" fill="white"/>
</clipPath>
</defs>
</svg>
