<svg width="24" height="24" viewBox="0 0 24 24" fill="none" xmlns="http://www.w3.org/2000/svg">
<path d="M22.5 5.52708C21.7398 5.91048 20.8846 6.10217 20.0294 6.19801C20.8846 5.62293 21.5498 4.7603 21.9299 3.80183C21.0747 4.28106 20.1244 4.66446 19.1742 4.85615C17.5588 3.1309 14.8032 3.03505 13.0928 4.66446C11.9525 5.71879 11.4774 7.25235 11.8575 8.78591C8.43664 8.59422 5.20589 6.9648 3.02037 4.28106C1.8801 6.29386 2.45023 8.7859 4.35068 10.0319C3.68552 10.0319 3.02036 9.84023 2.3552 9.45684C2.3552 9.45684 2.3552 9.45683 2.3552 9.55268C2.3552 11.6613 3.78054 13.3866 5.77602 13.77C5.11086 13.9617 4.4457 13.9617 3.87557 13.8658C4.4457 15.5911 6.0611 16.8371 7.86653 16.8371C6.34616 18.0831 4.44571 18.6582 2.54525 18.6582C2.16516 18.6582 1.88009 18.6582 1.5 18.5624C7.20136 22.2046 14.7082 20.5751 18.319 14.8243C19.5543 12.8115 20.2195 10.5112 20.2195 8.21082C20.2195 8.01912 20.2195 7.82742 20.2195 7.63573C21.1697 7.15649 21.9299 6.38971 22.5 5.52708Z" fill="#101828"/>
</svg>
