<svg width="24" height="24" viewBox="0 0 24 24" fill="none" xmlns="http://www.w3.org/2000/svg">
<g clip-path="url(#clip0_14693_3417)">
<path fill-rule="evenodd" clip-rule="evenodd" d="M2.001 11.9999C2.001 6.47724 6.47811 2 12.0008 2C17.5234 2 22.0009 6.47724 22.0009 11.9999C22.0009 17.5224 17.5234 22 12.0008 22C6.47811 22 2.001 17.5224 2.001 11.9999ZM18.53 9.58079L12.0009 5.50944L5.47183 9.58079H18.53ZM17.4285 17.2644C18.0815 17.2644 18.6114 16.7353 18.6114 16.0822V9.83985C18.6114 9.77064 18.6043 9.70363 18.5928 9.63765L12.3547 13.5275C12.1349 13.6648 11.8654 13.6635 11.6478 13.5275L5.40967 9.63765C5.3982 9.70363 5.39114 9.77078 5.39114 9.83985V16.0822C5.39114 16.7352 5.9203 17.2644 6.57334 17.2644H17.4285Z" fill="#101828"/>
</g>
<defs>
<clipPath id="clip0_14693_3417">
<rect width="24" height="24" fill="white"/>
</clipPath>
</defs>
</svg>
