<svg width="24" height="24" viewBox="0 0 24 24" fill="none" xmlns="http://www.w3.org/2000/svg">
<path d="M8.68952 17.7016C8.68952 17.7823 8.59677 17.8468 8.47984 17.8468C8.34677 17.8589 8.25403 17.7944 8.25403 17.7016C8.25403 17.621 8.34677 17.5565 8.46371 17.5565C8.58468 17.5444 8.68952 17.6089 8.68952 17.7016ZM7.43548 17.5202C7.40726 17.6008 7.4879 17.6935 7.60887 17.7177C7.71371 17.7581 7.83468 17.7177 7.85887 17.6371C7.88306 17.5565 7.80645 17.4637 7.68548 17.4274C7.58065 17.3992 7.46371 17.4395 7.43548 17.5202ZM9.21774 17.4516C9.10081 17.4798 9.02016 17.5565 9.03226 17.6492C9.04435 17.7298 9.14919 17.7823 9.27016 17.754C9.3871 17.7258 9.46774 17.6492 9.45564 17.5685C9.44355 17.4919 9.33468 17.4395 9.21774 17.4516ZM11.871 2C6.27823 2 2 6.24597 2 11.8387C2 16.3105 4.81452 20.1371 8.83468 21.4839C9.35081 21.5766 9.53226 21.2581 9.53226 20.996C9.53226 20.746 9.52016 19.3669 9.52016 18.5202C9.52016 18.5202 6.69758 19.125 6.10484 17.3185C6.10484 17.3185 5.64516 16.1452 4.98387 15.8427C4.98387 15.8427 4.06048 15.2097 5.04839 15.2218C5.04839 15.2218 6.05242 15.3024 6.60484 16.2621C7.4879 17.8186 8.96774 17.371 9.54435 17.1048C9.6371 16.4597 9.89919 16.0121 10.1895 15.746C7.93548 15.496 5.66129 15.1694 5.66129 11.2903C5.66129 10.1815 5.96774 9.625 6.6129 8.91532C6.50806 8.65323 6.16532 7.57258 6.71774 6.17742C7.56048 5.91532 9.5 7.26613 9.5 7.26613C10.3065 7.04032 11.1734 6.92339 12.0323 6.92339C12.8911 6.92339 13.7581 7.04032 14.5645 7.26613C14.5645 7.26613 16.504 5.91129 17.3468 6.17742C17.8992 7.57661 17.5565 8.65323 17.4516 8.91532C18.0968 9.62903 18.4919 10.1855 18.4919 11.2903C18.4919 15.1815 16.1169 15.4919 13.8629 15.746C14.2339 16.0645 14.5484 16.6694 14.5484 17.6169C14.5484 18.9758 14.5363 20.6573 14.5363 20.9879C14.5363 21.25 14.7218 21.5686 15.2339 21.4758C19.2661 20.1371 22 16.3105 22 11.8387C22 6.24597 17.4637 2 11.871 2ZM5.91935 15.9073C5.86694 15.9476 5.87903 16.0403 5.94758 16.1169C6.0121 16.1815 6.10484 16.2097 6.15726 16.1573C6.20968 16.1169 6.19758 16.0242 6.12903 15.9476C6.06452 15.8831 5.97177 15.8548 5.91935 15.9073ZM5.48387 15.5806C5.45565 15.6331 5.49597 15.6976 5.57661 15.7379C5.64113 15.7782 5.72177 15.7661 5.75 15.7097C5.77823 15.6573 5.7379 15.5927 5.65726 15.5524C5.57661 15.5282 5.5121 15.5403 5.48387 15.5806ZM6.79032 17.0161C6.72581 17.0685 6.75 17.1895 6.84274 17.2661C6.93548 17.3589 7.05242 17.371 7.10484 17.3065C7.15726 17.254 7.13306 17.1331 7.05242 17.0565C6.96371 16.9637 6.84274 16.9516 6.79032 17.0161ZM6.33065 16.4234C6.26613 16.4637 6.26613 16.5685 6.33065 16.6613C6.39516 16.754 6.50403 16.7944 6.55645 16.754C6.62097 16.7016 6.62097 16.5968 6.55645 16.504C6.5 16.4113 6.39516 16.371 6.33065 16.4234Z" fill="#101828"/>
</svg>
