<svg width="24" height="24" viewBox="0 0 24 24" fill="none" xmlns="http://www.w3.org/2000/svg">
<path d="M11.1688 10.801L5.29813 7.42423C5.31132 7.31912 5.31132 7.21401 5.29813 7.1089L11.1688 3.73872C11.6635 4.10005 12.3364 4.10005 12.8311 3.73872L18.6952 7.1089C18.682 7.21401 18.682 7.31912 18.6952 7.42423L12.8311 10.7944C12.3364 10.4331 11.6635 10.4331 11.1688 10.801Z" fill="#344054"/>
<path d="M11.2414 20.3269C11.1424 20.3663 11.0567 20.4189 10.971 20.4846L5.10023 17.1078C5.16619 16.4968 4.82978 15.9187 4.26909 15.6756V8.92875C4.36804 8.88933 4.45379 8.83675 4.53954 8.77106L10.4036 12.1412C10.3377 12.7522 10.6741 13.3303 11.2348 13.5734V20.3269H11.2414Z" fill="#344054"/>
<path d="M19.7309 15.6757C19.1702 15.9188 18.8272 16.5035 18.8997 17.1079L13.0357 20.4781C12.9499 20.4189 12.8575 20.3664 12.7652 20.3204L12.752 13.6195C13.3127 13.3764 13.6557 12.7917 13.5831 12.1873L19.4538 8.77774C19.5396 8.83685 19.6319 8.88938 19.7243 8.93538V15.6757H19.7309Z" fill="#344054"/>
<path d="M12 1.48543L21.1425 6.74109V17.2523L12 22.508L2.85752 17.2589V6.74109L12 1.48543ZM12 0.5L11.5712 0.749645L2.42876 6.00527L2 6.24833V17.745L2.42876 17.9947L11.5712 23.2504L12 23.5L12.4288 23.2504L21.5712 17.9947L22 17.745V6.24833L21.5712 5.99869L12.4288 0.743071L12 0.5Z" fill="#344054"/>
</svg>
