<svg width="24" height="24" viewBox="0 0 24 24" fill="none" xmlns="http://www.w3.org/2000/svg">
<g clip-path="url(#clip0_14679_12288)">
<path d="M5.63805 4.55438H18.3626C18.5035 4.55436 18.6423 4.58768 18.7679 4.6516C18.8934 4.71552 19.002 4.80824 19.0848 4.92218L22.4976 9.61421C22.5583 9.6977 22.5881 9.79963 22.5821 9.90266C22.5761 10.0057 22.5346 10.1034 22.4646 10.1793L12.328 21.1604C12.2862 21.2056 12.2355 21.2416 12.1791 21.2663C12.1227 21.2909 12.0619 21.3036 12.0003 21.3036C11.9388 21.3036 11.8779 21.2909 11.8216 21.2663C11.7652 21.2416 11.7145 21.2056 11.6727 21.1604L1.53609 10.1802C1.46588 10.1043 1.4242 10.0063 1.41818 9.90312C1.41215 9.79989 1.44216 9.69778 1.50306 9.61421L4.91586 4.92218C4.99868 4.80824 5.10729 4.71552 5.23281 4.6516C5.35833 4.58768 5.49719 4.55436 5.63805 4.55438Z" fill="#101828"/>
</g>
<defs>
<clipPath id="clip0_14679_12288">
<rect width="24" height="24" fill="white"/>
</clipPath>
</defs>
</svg>
