<svg width="24" height="24" viewBox="0 0 24 24" fill="none" xmlns="http://www.w3.org/2000/svg">
<path d="M2 22C2 17.7921 5.41116 14.381 9.61905 14.381C13.827 14.381 17.2381 17.7921 17.2381 22H15.3333C15.3333 18.8441 12.775 16.2857 9.61905 16.2857C6.46313 16.2857 3.90476 18.8441 3.90476 22H2ZM9.61905 13.4286C6.4619 13.4286 3.90476 10.8714 3.90476 7.71429C3.90476 4.55714 6.4619 2 9.61905 2C12.7762 2 15.3333 4.55714 15.3333 7.71429C15.3333 10.8714 12.7762 13.4286 9.61905 13.4286ZM9.61905 11.5238C11.7238 11.5238 13.4286 9.81905 13.4286 7.71429C13.4286 5.60952 11.7238 3.90476 9.61905 3.90476C7.51429 3.90476 5.80952 5.60952 5.80952 7.71429C5.80952 9.81905 7.51429 11.5238 9.61905 11.5238ZM17.5083 15.0503C20.1566 16.2439 22 18.9067 22 22H20.0952C20.0952 19.68 18.7127 17.683 16.7265 16.7877L17.5083 15.0503ZM16.8535 4.2983C18.7566 5.08289 20.0952 6.95582 20.0952 9.14286C20.0952 11.8764 18.004 14.1192 15.3333 14.3596V12.4425C16.9492 12.2116 18.1905 10.8229 18.1905 9.14286C18.1905 7.82795 17.4301 6.69146 16.3248 6.1489L16.8535 4.2983Z" fill="#101828"/>
</svg>
