<svg width="24" height="24" viewBox="0 0 24 24" fill="none" xmlns="http://www.w3.org/2000/svg">
<g clip-path="url(#clip0_14679_12282)">
<path d="M20.2336 14.0583C19.0968 14.0583 18.1752 13.1368 18.1752 12C18.1752 10.8631 19.0968 9.94156 20.2336 9.94156C21.3704 9.94156 22.292 10.8631 22.292 12C22.292 13.1368 21.3704 14.0583 20.2336 14.0583Z" fill="#101828"/>
<path d="M12 14.0583C10.8632 14.0583 9.94163 13.1368 9.94163 12C9.94163 10.8631 10.8632 9.94156 12 9.94156C13.1368 9.94156 14.0584 10.8631 14.0584 12C14.0584 13.1368 13.1368 14.0583 12 14.0583Z" fill="#101828"/>
<path d="M3.76645 14.0583C2.62964 14.0583 1.70806 13.1368 1.70806 12C1.70806 10.8631 2.62964 9.94156 3.76645 9.94156C4.90327 9.94156 5.82485 10.8631 5.82485 12C5.82485 13.1368 4.90327 14.0583 3.76645 14.0583Z" fill="#101828"/>
</g>
<defs>
<clipPath id="clip0_14679_12282">
<rect width="24" height="24" fill="white"/>
</clipPath>
</defs>
</svg>
