<svg width="24" height="24" viewBox="0 0 24 24" fill="none" xmlns="http://www.w3.org/2000/svg">
<g clip-path="url(#clip0_19169_36727)">
<path d="M24 12C24 18.6274 18.6274 24 12 24C5.37258 24 0 18.6274 0 12C0 5.37258 5.37258 0 12 0C18.6274 0 24 5.37258 24 12Z" fill="#EAECF0"/>
<path d="M7.33333 18.6667C6.96514 18.6667 6.6623 18.3667 6.70777 18.0013C7.03524 15.3698 9.2798 13.3334 12 13.3334C14.7202 13.3334 16.9648 15.3698 17.2922 18.0013C17.3377 18.3667 17.0349 18.6667 16.6667 18.6667C16.2985 18.6667 16.0058 18.366 15.9452 18.0028C15.6289 16.1096 13.983 14.6667 12 14.6667C10.017 14.6667 8.37107 16.1096 8.05484 18.0028C7.99418 18.366 7.70152 18.6667 7.33333 18.6667ZM12 12.6667C9.79 12.6667 8 10.8767 8 8.66669C8 6.45669 9.79 4.66669 12 4.66669C14.21 4.66669 16 6.45669 16 8.66669C16 10.8767 14.21 12.6667 12 12.6667ZM12 11.3334C13.4733 11.3334 14.6667 10.14 14.6667 8.66669C14.6667 7.19335 13.4733 6.00002 12 6.00002C10.5267 6.00002 9.33333 7.19335 9.33333 8.66669C9.33333 10.14 10.5267 11.3334 12 11.3334Z" fill="#98A2B3"/>
</g>
<defs>
<clipPath id="clip0_19169_36727">
<rect width="24" height="24" fill="white"/>
</clipPath>
</defs>
</svg>
