<svg width="24" height="24" viewBox="0 0 24 24" fill="none" xmlns="http://www.w3.org/2000/svg">
<g clip-path="url(#clip0_14679_11556)">
<path d="M15.3592 7.22354L16.7732 8.64081L12 13.414L10.586 12L15.3592 7.22354Z" fill="#101828"/>
<path fill-rule="evenodd" clip-rule="evenodd" d="M12 2.45001C6.7284 2.45001 2.45001 6.7284 2.45001 12C2.45001 17.2716 6.7284 21.55 12 21.55C17.2716 21.55 21.55 17.2716 21.55 12C21.55 6.7284 17.2716 2.45001 12 2.45001ZM4.45001 12C4.45001 7.82863 7.82863 4.45001 12 4.45001C16.1714 4.45001 19.55 7.82863 19.55 12C19.55 16.1714 16.1714 19.55 12 19.55C7.82863 19.55 4.45001 16.1714 4.45001 12Z" fill="#101828"/>
</g>
<defs>
<clipPath id="clip0_14679_11556">
<rect width="24" height="24" fill="white"/>
</clipPath>
</defs>
</svg>
