<svg width="24" height="24" viewBox="0 0 24 24" fill="none" xmlns="http://www.w3.org/2000/svg">
<g clip-path="url(#clip0_14679_11526)">
<path d="M13.0127 16.6905L9.0917 14.5521C8.57978 15.0994 7.9151 15.48 7.18401 15.6445C6.45293 15.8091 5.68926 15.7499 4.99224 15.4747C4.29523 15.1995 3.6971 14.7211 3.27559 14.1015C2.85408 13.4819 2.62868 12.7499 2.62868 12.0005C2.62868 11.2511 2.85408 10.5191 3.27559 9.89948C3.6971 9.2799 4.29523 8.80143 4.99224 8.52624C5.68926 8.25106 6.45293 8.1919 7.18401 8.35644C7.9151 8.52097 8.57978 8.90161 9.0917 9.44887L13.0137 7.31047C12.791 6.42904 12.8974 5.49665 13.3131 4.68809C13.7287 3.87952 14.4249 3.2503 15.2713 2.91835C16.1176 2.5864 17.056 2.57453 17.9105 2.88495C18.765 3.19537 19.4769 3.80678 19.9129 4.60457C20.3488 5.40235 20.4788 6.33175 20.2785 7.21854C20.0782 8.10533 19.5614 8.88863 18.8249 9.42162C18.0884 9.95461 17.1828 10.2007 16.2778 10.1137C15.3729 10.0268 14.5307 9.61277 13.9092 8.94929L9.98721 11.0877C10.1377 11.6866 10.1377 12.3134 9.98721 12.9123L13.9082 15.0507C14.5298 14.3873 15.372 13.9732 16.2769 13.8863C17.1819 13.7993 18.0875 14.0454 18.824 14.5784C19.5605 15.1114 20.0773 15.8947 20.2776 16.7815C20.4779 17.6683 20.3479 18.5977 19.9119 19.3955C19.476 20.1933 18.764 20.8047 17.9096 21.1151C17.0551 21.4255 16.1167 21.4136 15.2703 21.0817C14.424 20.7497 13.7277 20.1205 13.3121 19.3119C12.8965 18.5034 12.7901 17.5719 13.0127 16.6905ZM6.36407 13.8676C6.85939 13.8676 7.33442 13.6708 7.68466 13.3206C8.0349 12.9704 8.23167 12.4953 8.23167 12C8.23167 11.5047 8.0349 11.0297 7.68466 10.6794C7.33442 10.3292 6.85939 10.1324 6.36407 10.1324C5.86875 10.1324 5.39372 10.3292 5.04348 10.6794C4.69323 11.0297 4.49647 11.5047 4.49647 12C4.49647 12.4953 4.69323 12.9704 5.04348 13.3206C5.39372 13.6708 5.86875 13.8676 6.36407 13.8676ZM16.6359 8.26482C17.1312 8.26482 17.6062 8.06805 17.9565 7.71781C18.3067 7.36757 18.5035 6.89254 18.5035 6.39722C18.5035 5.9019 18.3067 5.42687 17.9565 5.07663C17.6062 4.72638 17.1312 4.52962 16.6359 4.52962C16.1405 4.52962 15.6655 4.72638 15.3153 5.07663C14.965 5.42687 14.7683 5.9019 14.7683 6.39722C14.7683 6.89254 14.965 7.36757 15.3153 7.71781C15.6655 8.06805 16.1405 8.26482 16.6359 8.26482ZM16.6359 19.4704C17.1312 19.4704 17.6062 19.2736 17.9565 18.9234C18.3067 18.5732 18.5035 18.0981 18.5035 17.6028C18.5035 17.1075 18.3067 16.6325 17.9565 16.2822C17.6062 15.932 17.1312 15.7352 16.6359 15.7352C16.1405 15.7352 15.6655 15.932 15.3153 16.2822C14.965 16.6325 14.7683 17.1075 14.7683 17.6028C14.7683 18.0981 14.965 18.5732 15.3153 18.9234C15.6655 19.2736 16.1405 19.4704 16.6359 19.4704Z" fill="#101828"/>
</g>
<defs>
<clipPath id="clip0_14679_11526">
<rect width="24" height="24" fill="white"/>
</clipPath>
</defs>
</svg>
