<svg width="24" height="24" viewBox="0 0 24 24" fill="none" xmlns="http://www.w3.org/2000/svg">
<g clip-path="url(#clip0_14679_12285)">
<path d="M12 22.5C6.20085 22.5 1.5 17.7991 1.5 12C1.5 6.20085 6.20085 1.5 12 1.5C17.7991 1.5 22.5 6.20085 22.5 12C22.5 17.7991 17.7991 22.5 12 22.5ZM10.95 15.15V17.25H13.05V15.15H10.95ZM13.05 13.4227C13.8939 13.1684 14.6183 12.6194 15.0914 11.8758C15.5644 11.1322 15.7547 10.2434 15.6275 9.37129C15.5002 8.49917 15.064 7.70176 14.3982 7.12428C13.7324 6.5468 12.8813 6.22766 12 6.225C11.1504 6.22494 10.327 6.51916 9.66983 7.05764C9.01267 7.59612 8.56231 8.34561 8.39535 9.17865L10.4555 9.5913C10.5139 9.2988 10.6542 9.02892 10.8601 8.81306C11.0659 8.59719 11.3289 8.44422 11.6182 8.37194C11.9076 8.29966 12.2116 8.31104 12.4948 8.40477C12.778 8.49849 13.0287 8.6707 13.2178 8.90136C13.407 9.13201 13.5267 9.41163 13.5631 9.70768C13.5995 10.0037 13.5511 10.304 13.4236 10.5737C13.296 10.8433 13.0945 11.0711 12.8424 11.2307C12.5904 11.3903 12.2983 11.475 12 11.475C11.7215 11.475 11.4545 11.5856 11.2575 11.7825C11.0606 11.9795 10.95 12.2465 10.95 12.525V14.1H13.05V13.4227Z" fill="#101828"/>
</g>
<defs>
<clipPath id="clip0_14679_12285">
<rect width="24" height="24" fill="white"/>
</clipPath>
</defs>
</svg>
