<svg width="24" height="24" viewBox="0 0 24 24" fill="none" xmlns="http://www.w3.org/2000/svg">
<g clip-path="url(#clip0_14679_11547)">
<path fill-rule="evenodd" clip-rule="evenodd" d="M9.24999 5.02022V2.79888C5.23874 4.05851 2.39999 7.7621 2.39999 12C2.39999 17.3021 6.69792 21.6 12 21.6C16.2379 21.6 19.9415 18.7613 21.2011 14.75H18.9797C18.4112 16.1543 17.4525 17.3699 16.1933 18.2186C14.9543 19.0538 13.4943 19.4999 12.0001 19.5C10.2607 19.4976 8.57612 18.8909 7.23457 17.7837C5.89303 16.6765 4.97787 15.1376 4.64564 13.4302C3.96048 9.90887 5.94143 6.36369 9.24999 5.02022Z" fill="#101828"/>
<path fill-rule="evenodd" clip-rule="evenodd" d="M10.95 2.45702V13.05H21.543C21.578 12.7008 21.6 12.3511 21.6 12C21.6 6.69792 17.3021 2.39999 12 2.39999C11.6489 2.39999 11.2992 2.422 10.95 2.45702ZM17.3032 6.69678C18.454 7.8476 19.1988 9.3406 19.4268 10.95H13.05V4.57318C14.6594 4.80122 16.1524 5.54595 17.3032 6.69678Z" fill="#101828"/>
</g>
<defs>
<clipPath id="clip0_14679_11547">
<rect width="24" height="24" fill="white"/>
</clipPath>
</defs>
</svg>
