<svg width="24" height="24" viewBox="0 0 24 24" fill="none" xmlns="http://www.w3.org/2000/svg">
<g clip-path="url(#clip0_14679_12279)">
<path d="M2.75661 10.032H5.52962V21.3855H2.75661C2.51146 21.3855 2.27635 21.2858 2.10301 21.1084C1.92966 20.931 1.83228 20.6903 1.83228 20.4394V10.9781C1.83228 10.7272 1.92966 10.4866 2.10301 10.3091C2.27635 10.1317 2.51146 10.032 2.75661 10.032ZM7.64912 8.80866L13.5649 2.75345C13.6435 2.67274 13.7479 2.6238 13.859 2.61563C13.9701 2.60746 14.0803 2.64061 14.1694 2.70898L14.9578 3.3145C15.1768 3.48277 15.3422 3.71363 15.4332 3.97798C15.5241 4.24233 15.5366 4.52833 15.469 4.79992L14.4032 9.08588H20.319C20.8093 9.08588 21.2795 9.28524 21.6262 9.64011C21.9729 9.99497 22.1677 10.4763 22.1677 10.9781V12.9688C22.1679 13.2161 22.1208 13.461 22.029 13.6897L19.1682 20.7999C19.0984 20.9732 18.9799 21.1214 18.8276 21.2257C18.6754 21.33 18.4963 21.3856 18.3132 21.3855H8.30262C8.05747 21.3855 7.82236 21.2858 7.64902 21.1084C7.47567 20.931 7.37829 20.6903 7.37829 20.4394V9.47757C7.37834 9.22667 7.47576 8.98605 7.64912 8.80866Z" fill="#101828"/>
</g>
<defs>
<clipPath id="clip0_14679_12279">
<rect width="24" height="24" fill="white"/>
</clipPath>
</defs>
</svg>
