<svg width="24" height="24" viewBox="0 0 24 24" fill="none" xmlns="http://www.w3.org/2000/svg">
<g clip-path="url(#clip0_18790_22299)">
<path d="M0 6.62069C0 2.96418 2.96418 0 6.62069 0H17.3793C21.0358 0 24 2.96418 24 6.62069V17.3793C24 21.0358 21.0358 24 17.3793 24H6.62069C2.96418 24 0 21.0358 0 17.3793V6.62069Z" fill="#D5FF5C"/>
<path fill-rule="evenodd" clip-rule="evenodd" d="M6.9583 10.4109L7.04323 7.05873C7.04323 5.29235 8.07769 4.41731 9.57405 4.86045C9.70566 4.89942 9.89463 5.07643 9.89463 5.2335L9.92532 8.44655C9.92674 8.59576 10.0482 8.71597 10.1976 8.71597C10.348 8.71597 10.4698 8.59419 10.4698 8.44396V4.55858C10.4698 3.69781 11.1683 3 12.0298 3C12.8914 3 13.5899 3.69781 13.5899 4.55858V8.44396C13.5899 8.59419 13.7118 8.71597 13.8621 8.71597C14.0115 8.71597 14.1329 8.59576 14.1343 8.44655L14.165 5.23525C14.165 5.07677 14.3635 4.8992 14.4962 4.86045C15.7931 4.48183 16.9848 5.18817 16.9848 7.02428L17.0671 10.3807C15.6699 11.0932 14.3255 11.2399 12.784 10.7612C12.1958 10.4731 11.772 10.5239 11.1658 10.7609C9.63719 11.104 8.3374 11.1195 6.9583 10.4109ZM6.57823 10.7277C6.87015 10.8675 7.16217 11.0072 7.46371 11.1101L8.08032 11.3205C9.12781 11.6503 10.1617 11.517 11.1764 11.2013C11.7041 10.9369 12.2491 10.9787 12.789 11.2013C13.8569 11.6416 14.7873 11.6406 15.9184 11.3283L15.9197 11.3205L16.5363 11.1101C16.8378 11.0072 17.1299 10.8674 17.4218 10.7277C18.2263 10.3425 19.4789 10.4621 20.3248 11.4258C20.7126 11.8675 20.4126 12.5067 19.8544 12.6917C19.5852 12.7808 19.3415 12.9319 19.1136 13.1005C19.0878 13.1196 19.0615 13.1387 19.0349 13.1578C18.332 13.6618 17.8795 14.4168 17.8346 15.2801L17.8138 15.6784C17.8153 15.8177 17.8126 15.9575 17.8053 16.0976C17.5996 18.063 16.3305 19.757 14.5009 20.508C12.9029 21.164 11.1105 21.164 9.51244 20.508C7.68289 19.757 6.41374 18.063 6.20806 16.0976L6.16544 15.2801C6.12044 14.4168 5.66805 13.6618 4.96506 13.1578C4.93846 13.1387 4.91221 13.1196 4.88638 13.1005C4.65853 12.9319 4.41476 12.7808 4.1456 12.6917C3.58741 12.5067 3.28737 11.8675 3.67514 11.4258C4.52111 10.4621 5.77372 10.3425 6.57823 10.7277ZM15.817 15.7564C15.817 15.7564 14.1081 18.2161 12 18.2161C9.89191 18.2161 8.18295 15.7564 8.18295 15.7564C8.18295 15.7564 9.89191 13.2966 12 13.2966C14.1081 13.2966 15.817 15.7564 15.817 15.7564ZM12 17.3199C12.8538 17.3199 13.5459 16.6284 13.5459 15.7754C13.5459 14.9224 12.8538 14.2309 12 14.2309C11.1462 14.2309 10.4541 14.9224 10.4541 15.7754C10.4541 16.6284 11.1462 17.3199 12 17.3199Z" fill="#FD4848"/>
</g>
<defs>
<clipPath id="clip0_18790_22299">
<rect width="24" height="24" fill="white"/>
</clipPath>
</defs>
</svg>
