<svg width="24" height="24" viewBox="0 0 24 24" fill="none" xmlns="http://www.w3.org/2000/svg">
<g clip-path="url(#clip0_18790_22363)">
<path d="M0 6.62069C0 2.96418 2.96418 0 6.62069 0H17.3793C21.0358 0 24 2.96418 24 6.62069V17.3793C24 21.0358 21.0358 24 17.3793 24H6.62069C2.96418 24 0 21.0358 0 17.3793V6.62069Z" fill="#AB9FF2"/>
<path d="M6.02931 18.5228C8.02848 18.5228 9.53087 16.7842 10.4275 15.4103C10.3184 15.7143 10.2578 16.0182 10.2578 16.31C10.2578 17.1125 10.7183 17.6839 11.627 17.6839C12.8749 17.6839 14.2077 16.5897 14.8983 15.4103C14.8498 15.5806 14.8256 15.7386 14.8256 15.8845C14.8256 16.4438 15.1406 16.7964 15.7828 16.7964C17.8062 16.7964 19.8417 13.2097 19.8417 10.0729C19.8417 7.62916 18.6059 5.47717 15.5041 5.47717C10.0519 5.47717 4.17554 12.1398 4.17554 16.4438C4.17554 18.1338 5.08425 18.5228 6.02931 18.5228ZM13.6261 9.80547C13.6261 9.19757 13.9654 8.77203 14.4621 8.77203C14.9468 8.77203 15.286 9.19757 15.286 9.80547C15.286 10.4134 14.9468 10.8511 14.4621 10.8511C13.9654 10.8511 13.6261 10.4134 13.6261 9.80547ZM16.219 9.80547C16.219 9.19757 16.5582 8.77203 17.055 8.77203C17.5396 8.77203 17.8789 9.19757 17.8789 9.80547C17.8789 10.4134 17.5396 10.8511 17.055 10.8511C16.5582 10.8511 16.219 10.4134 16.219 9.80547Z" fill="white"/>
</g>
<defs>
<clipPath id="clip0_18790_22363">
<rect width="24" height="24" fill="white"/>
</clipPath>
</defs>
</svg>
