<svg width="24" height="24" viewBox="0 0 24 24" fill="none" xmlns="http://www.w3.org/2000/svg">
<g clip-path="url(#clip0_18790_22369)">
<path d="M0 6.62069C0 2.96418 2.96418 0 6.62069 0H17.3793C21.0358 0 24 2.96418 24 6.62069V17.3793C24 21.0358 21.0358 24 17.3793 24H6.62069C2.96418 24 0 21.0358 0 17.3793V6.62069Z" fill="black"/>
<path d="M14.0447 9.74399H10.1663C10.0031 9.74399 9.8687 9.87839 9.8687 10.0416V13.92C9.8687 14.0832 10.0031 14.2176 10.1663 14.2176H14.0447C14.2079 14.2176 14.3423 14.0832 14.3423 13.92V10.0416C14.3423 9.87839 14.2079 9.74399 14.0447 9.74399Z" fill="white"/>
<path d="M9.5615 5.27039H5.6831C5.5199 5.27039 5.3855 5.40479 5.3855 5.56799V9.44639C5.3855 9.60959 5.5199 9.74399 5.6831 9.74399H9.5615C9.7247 9.74399 9.8591 9.60959 9.8591 9.44639V5.56799C9.8591 5.40479 9.7247 5.27039 9.5615 5.27039Z" fill="white"/>
<path d="M18.5279 5.27039H14.6495C14.4863 5.27039 14.3519 5.40479 14.3519 5.56799V9.44639C14.3519 9.60959 14.4863 9.74399 14.6495 9.74399H18.5279C18.6911 9.74399 18.8255 9.60959 18.8255 9.44639V5.56799C18.8255 5.40479 18.6911 5.27039 18.5279 5.27039Z" fill="white"/>
<path d="M9.5615 14.2272H5.6831C5.5199 14.2272 5.3855 14.3616 5.3855 14.5248V18.4032C5.3855 18.5664 5.5199 18.7008 5.6831 18.7008H9.5615C9.7247 18.7008 9.8591 18.5664 9.8591 18.4032V14.5248C9.8591 14.3616 9.7247 14.2272 9.5615 14.2272Z" fill="white"/>
<path d="M18.5279 14.2272H14.6495C14.4863 14.2272 14.3519 14.3616 14.3519 14.5248V18.4032C14.3519 18.5664 14.4863 18.7008 14.6495 18.7008H18.5279C18.6911 18.7008 18.8255 18.5664 18.8255 18.4032V14.5248C18.8255 14.3616 18.6911 14.2272 18.5279 14.2272Z" fill="white"/>
</g>
<defs>
<clipPath id="clip0_18790_22369">
<rect width="24" height="24" fill="white"/>
</clipPath>
</defs>
</svg>
