<svg width="24" height="24" viewBox="0 0 24 24" fill="none" xmlns="http://www.w3.org/2000/svg">
<path fill-rule="evenodd" clip-rule="evenodd" d="M5 2.25C3.48079 2.25 2.25 3.48079 2.25 5V19C2.25 20.5192 3.48079 21.75 5 21.75H19C20.5192 21.75 21.75 20.5192 21.75 19V15C21.75 14.5858 21.4142 14.25 21 14.25C20.5858 14.25 20.25 14.5858 20.25 15V19C20.25 19.6908 19.6908 20.25 19 20.25H5C4.30921 20.25 3.75 19.6908 3.75 19V5C3.75 4.30921 4.30921 3.75 5 3.75H9C9.41421 3.75 9.75 3.41421 9.75 3C9.75 2.58579 9.41421 2.25 9 2.25H5ZM14 2.25C13.5858 2.25 13.25 2.58579 13.25 3C13.25 3.41421 13.5858 3.75 14 3.75H19.1893L11.4697 11.4697C11.1768 11.7626 11.1768 12.2374 11.4697 12.5303C11.7626 12.8232 12.2374 12.8232 12.5303 12.5303L20.25 4.81066V10C20.25 10.4142 20.5858 10.75 21 10.75C21.4142 10.75 21.75 10.4142 21.75 10V3C21.75 2.58579 21.4142 2.25 21 2.25H14Z" fill="#1E2134"/>
</svg>
