<svg width="24" height="24" viewBox="0 0 24 24" fill="none" xmlns="http://www.w3.org/2000/svg">
<g clip-path="url(#clip0_20183_172772)">
<path d="M12 24C18.6274 24 24 18.6274 24 12C24 5.37258 18.6274 0 12 0C5.37258 0 0 5.37258 0 12C0 18.6274 5.37258 24 12 24Z" fill="#009393"/>
<path fill-rule="evenodd" clip-rule="evenodd" d="M18.0618 6.00073V8.26334H13.5109V9.83209C16.7072 9.99973 19.1052 10.6883 19.123 11.5136L19.1229 13.234C19.1051 14.0593 16.7072 14.7478 13.5109 14.9155V18.7653H10.489V14.9155C7.29278 14.7478 4.89473 14.0593 4.87694 13.234L4.87706 11.5136C4.89483 10.6883 7.29278 9.99973 10.489 9.83209V8.26334H5.93811V6.00073H18.0618ZM12 13.7335C15.4109 13.7335 18.262 13.1513 18.9597 12.3738C18.368 11.7145 16.2279 11.1956 13.5109 11.0531V12.6955C13.0239 12.7211 12.5184 12.7345 12 12.7345C11.4815 12.7345 10.976 12.7211 10.489 12.6955V11.0531C7.77206 11.1956 5.63194 11.7145 5.04027 12.3738C5.738 13.1513 8.58899 13.7335 12 13.7335Z" fill="white"/>
<path d="M24 17.9991C24 21.3125 21.3148 24 18 24C14.6852 24 12 21.3144 12 17.9991C12 14.6837 14.687 12 18 12C21.313 12 24 14.6856 24 17.9991Z" fill="#321D47"/>
<path d="M20.2783 19.3182H19.0108L18.7727 18.7369H17.1639L16.9258 19.3182H15.6583L17.1752 15.8625H18.7595L20.2783 19.3182ZM17.9702 16.7607L17.5502 17.7919H18.3883L17.9702 16.7607Z" fill="white"/>
<path d="M17.9683 15.1294C18.454 15.1294 18.8477 14.7356 18.8477 14.25C18.8477 13.7643 18.454 13.3706 17.9683 13.3706C17.4827 13.3706 17.089 13.7643 17.089 14.25C17.089 14.7356 17.4827 15.1294 17.9683 15.1294Z" fill="#E6007A"/>
<path d="M17.9683 22.5356C18.454 22.5356 18.8477 22.1419 18.8477 21.6562C18.8477 21.1706 18.454 20.7769 17.9683 20.7769C17.4827 20.7769 17.089 21.1706 17.089 21.6562C17.089 22.1419 17.4827 22.5356 17.9683 22.5356Z" fill="#E6007A"/>
<path d="M14.721 16.8899C15.2066 16.8899 15.6003 16.4961 15.6003 16.0105C15.6003 15.5248 15.2066 15.1311 14.721 15.1311C14.2353 15.1311 13.8416 15.5248 13.8416 16.0105C13.8416 16.4961 14.2353 16.8899 14.721 16.8899Z" fill="#E6007A"/>
<path d="M21.2178 16.8899C21.7035 16.8899 22.0972 16.4961 22.0972 16.0105C22.0972 15.5248 21.7035 15.1311 21.2178 15.1311C20.7322 15.1311 20.3385 15.5248 20.3385 16.0105C20.3385 16.4961 20.7322 16.8899 21.2178 16.8899Z" fill="#E6007A"/>
<path d="M14.7207 20.8046C15.2063 20.8046 15.6 20.4109 15.6 19.9253C15.6 19.4396 15.2063 19.0459 14.7207 19.0459C14.235 19.0459 13.8413 19.4396 13.8413 19.9253C13.8413 20.4109 14.235 20.8046 14.7207 20.8046Z" fill="#E6007A"/>
<path d="M21.2175 20.8046C21.7032 20.8046 22.0969 20.4109 22.0969 19.9253C22.0969 19.4396 21.7032 19.0459 21.2175 19.0459C20.7319 19.0459 20.3382 19.4396 20.3382 19.9253C20.3382 20.4109 20.7319 20.8046 21.2175 20.8046Z" fill="#E6007A"/>
</g>
<defs>
<clipPath id="clip0_20183_172772">
<rect width="24" height="24" fill="white"/>
</clipPath>
</defs>
</svg>
