<svg width="24" height="24" viewBox="0 0 24 24" fill="none" xmlns="http://www.w3.org/2000/svg">
<g clip-path="url(#clip0_20183_172748)">
<path d="M12 24C18.6274 24 24 18.6274 24 12C24 5.37258 18.6274 0 12 0C5.37258 0 0 5.37258 0 12C0 18.6274 5.37258 24 12 24Z" fill="#E6007A"/>
<path d="M12.0002 7.06691C13.6946 7.06691 15.0681 6.26843 15.0681 5.28345C15.0681 4.29848 13.6946 3.5 12.0002 3.5C10.3058 3.5 8.93219 4.29848 8.93219 5.28345C8.93219 6.26843 10.3058 7.06691 12.0002 7.06691Z" fill="white"/>
<path d="M12.0002 20.5C13.6946 20.5 15.0681 19.7015 15.0681 18.7165C15.0681 17.7316 13.6946 16.9331 12.0002 16.9331C10.3058 16.9331 8.93219 17.7316 8.93219 18.7165C8.93219 19.7015 10.3058 20.5 12.0002 20.5Z" fill="white"/>
<path d="M7.72405 9.53352C8.57125 8.06752 8.56588 6.47984 7.71206 5.98736C6.85825 5.49487 5.4793 6.28406 4.63211 7.75007C3.78491 9.21607 3.79028 10.8037 4.64409 11.2962C5.49791 11.7887 6.87685 10.9995 7.72405 9.53352Z" fill="white"/>
<path d="M19.3683 16.25C20.2155 14.784 20.2101 13.1964 19.3563 12.7039C18.5025 12.2114 17.1235 13.0006 16.2764 14.4666C15.4292 15.9326 15.4345 17.5203 16.2883 18.0128C17.1422 18.5052 18.5211 17.7161 19.3683 16.25Z" fill="white"/>
<path d="M7.71206 18.0127C8.56587 17.5202 8.57124 15.9325 7.72405 14.4665C6.87685 13.0005 5.4979 12.2113 4.64409 12.7038C3.79027 13.1963 3.78491 14.784 4.6321 16.25C5.4793 17.716 6.85824 18.5052 7.71206 18.0127Z" fill="white"/>
<path d="M19.3562 11.2963C20.2101 10.8038 20.2154 9.21613 19.3682 7.75012C18.521 6.28412 17.1421 5.49492 16.2883 5.98741C15.4344 6.4799 15.4291 8.06757 16.2763 9.53357C17.1235 10.9996 18.5024 11.7888 19.3562 11.2963Z" fill="white"/>
<path d="M24 17.9991C24 21.3125 21.3148 24 18 24C14.6852 24 12 21.3144 12 17.9991C12 14.6837 14.687 12 18 12C21.313 12 24 14.6856 24 17.9991Z" fill="#321D47"/>
<path d="M20.2783 19.3182H19.0108L18.7727 18.7369H17.1639L16.9258 19.3182H15.6583L17.1752 15.8625H18.7595L20.2783 19.3182ZM17.9702 16.7607L17.5502 17.7919H18.3883L17.9702 16.7607Z" fill="white"/>
<path d="M17.9683 15.1294C18.454 15.1294 18.8477 14.7356 18.8477 14.25C18.8477 13.7643 18.454 13.3706 17.9683 13.3706C17.4827 13.3706 17.089 13.7643 17.089 14.25C17.089 14.7356 17.4827 15.1294 17.9683 15.1294Z" fill="#E6007A"/>
<path d="M17.9683 22.5356C18.454 22.5356 18.8477 22.1419 18.8477 21.6562C18.8477 21.1706 18.454 20.7769 17.9683 20.7769C17.4827 20.7769 17.089 21.1706 17.089 21.6562C17.089 22.1419 17.4827 22.5356 17.9683 22.5356Z" fill="#E6007A"/>
<path d="M14.721 16.8899C15.2066 16.8899 15.6003 16.4961 15.6003 16.0105C15.6003 15.5248 15.2066 15.1311 14.721 15.1311C14.2353 15.1311 13.8416 15.5248 13.8416 16.0105C13.8416 16.4961 14.2353 16.8899 14.721 16.8899Z" fill="#E6007A"/>
<path d="M21.2178 16.8899C21.7035 16.8899 22.0972 16.4961 22.0972 16.0105C22.0972 15.5248 21.7035 15.1311 21.2178 15.1311C20.7322 15.1311 20.3385 15.5248 20.3385 16.0105C20.3385 16.4961 20.7322 16.8899 21.2178 16.8899Z" fill="#E6007A"/>
<path d="M14.7206 20.8046C15.2063 20.8046 15.6 20.4109 15.6 19.9253C15.6 19.4396 15.2063 19.0459 14.7206 19.0459C14.235 19.0459 13.8413 19.4396 13.8413 19.9253C13.8413 20.4109 14.235 20.8046 14.7206 20.8046Z" fill="#E6007A"/>
<path d="M21.2175 20.8046C21.7032 20.8046 22.0969 20.4109 22.0969 19.9253C22.0969 19.4396 21.7032 19.0459 21.2175 19.0459C20.7319 19.0459 20.3382 19.4396 20.3382 19.9253C20.3382 20.4109 20.7319 20.8046 21.2175 20.8046Z" fill="#E6007A"/>
</g>
<defs>
<clipPath id="clip0_20183_172748">
<rect width="24" height="24" fill="white"/>
</clipPath>
</defs>
</svg>
