<svg width="24" height="24" viewBox="0 0 24 24" fill="none" xmlns="http://www.w3.org/2000/svg">
<g clip-path="url(#clip0_28719_282403)">
<path d="M12 24C18.6274 24 24 18.6274 24 12C24 5.37258 18.6274 0 12 0C5.37258 0 0 5.37258 0 12C0 18.6274 5.37258 24 12 24Z" fill="#050506"/>
<path fill-rule="evenodd" clip-rule="evenodd" d="M22 12C22 17.5228 17.5228 22 12 22C6.47715 22 2 17.5228 2 12C2 6.47715 6.47715 2 12 2C17.5228 2 22 6.47715 22 12ZM19.6375 16.2729C18.1396 18.9445 15.2807 20.75 12 20.75C7.16745 20.75 3.25 16.8325 3.25 12C3.25 11.9613 3.25023 11.9228 3.25077 11.8843C3.80901 12.7427 4.73384 13.5927 5.92821 14.3509C5.90678 14.857 6.08927 15.3701 6.4757 15.7565C7.17112 16.452 8.27707 16.4869 9.01376 15.8613C9.58749 16.0751 10.1885 16.2676 10.8116 16.4346C14.3632 17.3862 17.7043 17.2579 19.6375 16.2729ZM9.64716 14.7621C10.1224 14.9329 10.6194 15.089 11.1352 15.2272C13.5561 15.8758 15.815 15.9754 17.4871 15.6637C19.259 15.3334 19.933 14.6535 20.0648 14.161C20.1969 13.6684 19.9532 12.7427 18.5839 11.5707C18.0129 11.082 17.3027 10.6057 16.4788 10.17C16.4595 10.1911 16.4397 10.2119 16.4194 10.2322C15.6871 10.9646 14.5 10.9646 13.7677 10.2322C13.3927 9.85719 13.2097 9.36281 13.2189 8.87133C13.1019 8.83752 12.9837 8.80464 12.8647 8.77275C10.4437 8.12411 8.18483 8.02454 6.5127 8.33627C4.74085 8.66655 4.06695 9.34648 3.93497 9.83895C3.80298 10.3315 4.04666 11.2572 5.41598 12.4292C5.71132 12.682 6.04395 12.9314 6.41024 13.1737C6.43137 13.1503 6.45319 13.1273 6.4757 13.1048C7.20789 12.3727 8.3951 12.3727 9.12736 13.1048C9.57811 13.5556 9.75137 14.1788 9.64716 14.7621ZM20.7492 12.1159C20.0289 11.0081 18.6981 9.91456 16.9655 9.01392C16.9948 8.49893 16.8128 7.97403 16.4194 7.58059C15.6871 6.8484 14.5 6.8484 13.7677 7.58059C13.7297 7.61851 13.6938 7.65764 13.6598 7.69785C13.5041 7.65207 13.3469 7.60789 13.1882 7.5654C9.6367 6.61379 6.29572 6.74212 4.36251 7.727C5.86039 5.05549 8.71927 3.25 12 3.25C16.8325 3.25 20.75 7.16745 20.75 12L20.7499 12.0554L20.7492 12.1159Z" fill="#26DB8D"/>
</g>
<defs>
<clipPath id="clip0_28719_282403">
<rect width="24" height="24" fill="white"/>
</clipPath>
</defs>
</svg>
