<svg width="24" height="24" fill="none" xmlns="http://www.w3.org/2000/svg"><g clip-path="url(#a)"><path d="M12 24c6.627 0 12-5.373 12-12S18.627 0 12 0 0 5.373 0 12s5.373 12 12 12z" fill="url(#b)"/><path d="M12 21.48a9.48 9.48 0 1 0 0-18.96 9.48 9.48 0 0 0 0 18.96z" fill="url(#c)"/><path d="M12 21.068a9.068 9.068 0 1 0 0-18.136 9.068 9.068 0 0 0 0 18.136z" fill="url(#d)"/><path d="M13.756 18.553a6.784 6.784 0 1 1-3.511-13.106 6.784 6.784 0 0 1 3.511 13.106z" fill="url(#e)"/><path d="M12.438 19.294c-.08.005-.159.008-.238.01v1.073c.11-.003.22-.008.332-.015l-.094-1.068z" fill="url(#f)"/><path d="M12.93 20.326a8.45 8.45 0 0 0 .328-.044l-.186-1.055a7.331 7.331 0 0 1-.236.031l.094 1.068z" fill="url(#g)"/><path d="M13.697 19.106a7.401 7.401 0 0 1-.232.052l.187 1.055a8.54 8.54 0 0 0 .323-.072l-.278-1.035z" fill="url(#h)"/><path d="M14.361 20.037c.106-.031.212-.064.316-.1l-.367-1.007c-.075.025-.15.05-.226.072l.277 1.035z" fill="url(#i)"/><path d="M14.905 18.704a7.307 7.307 0 0 1-.22.09l.367 1.008a8.41 8.41 0 0 0 .306-.127l-.453-.971z" fill="url(#j)"/><path d="M15.721 19.507c.1-.05.197-.1.294-.153l-.536-.928a7.24 7.24 0 0 1-.211.11l.453.971z" fill="url(#k)"/><path d="m16.353 17.869.615.878c.089-.065.177-.133.263-.201l-.69-.822c-.061.05-.124.098-.188.145z" fill="url(#l)"/><path d="m16.848 17.467.69.821c.082-.073.163-.148.243-.224l-.758-.758a7.412 7.412 0 0 1-.175.161z" fill="url(#m)"/><path d="m17.306 17.023.758.758c.076-.08.15-.162.224-.244l-.822-.69a7.36 7.36 0 0 1-.16.176z" fill="url(#n)"/><path d="m17.723 16.541.821.689c.069-.086.136-.174.201-.263l-.878-.614a7.287 7.287 0 0 1-.144.188z" fill="url(#o)"/><path d="m18.097 16.025.878.615c.061-.092.12-.185.178-.28l-.928-.535a7.212 7.212 0 0 1-.128.2z" fill="url(#p)"/><path d="m18.424 15.478.928.536c.053-.097.104-.195.153-.294l-.971-.453c-.036.071-.072.141-.11.211z" fill="url(#q)"/><path d="m18.703 14.905.971.453a8.33 8.33 0 0 0 .127-.306l-1.007-.366a7.23 7.23 0 0 1-.091.219z" fill="url(#r)"/><path d="m18.932 14.31 1.007.367c.035-.105.069-.21.1-.316l-1.035-.277a7.35 7.35 0 0 1-.072.226z" fill="url(#s)"/><path d="m19.107 13.697 1.035.277c.026-.107.05-.215.072-.323l-1.055-.186a7.258 7.258 0 0 1-.052.232z" fill="url(#t)"/><path d="m19.228 13.071 1.056.186c.016-.109.03-.218.043-.328l-1.068-.093c-.009.078-.02.157-.031.235z" fill="url(#u)"/><path d="m19.294 12.437 1.068.093c.007-.11.012-.22.014-.33h-1.072c-.002.079-.005.158-.01.237z" fill="url(#v)"/><path d="M19.304 11.8h1.072a8.564 8.564 0 0 0-.015-.331l-1.067.094c.004.079.008.158.01.237z" fill="url(#w)"/><path d="m19.259 11.164 1.068-.093a8.43 8.43 0 0 0-.044-.329l-1.055.186c.011.08.022.158.031.236z" fill="url(#x)"/><path d="m19.158 10.535 1.055-.186a8.502 8.502 0 0 0-.072-.323l-1.035.277c.019.077.036.155.052.232z" fill="url(#y)"/><path d="m19.002 9.916 1.035-.277a8.177 8.177 0 0 0-.1-.316l-1.006.367c.025.075.048.15.071.226z" fill="url(#z)"/><path d="m18.795 9.314 1.007-.367a8.435 8.435 0 0 0-.126-.305l-.971.453.09.219z" fill="url(#A)"/><path d="m18.536 8.732.971-.453c-.049-.1-.1-.197-.152-.294l-.928.536c.037.07.074.14.109.21z" fill="url(#B)"/><path d="m18.226 8.174.928-.535a8.387 8.387 0 0 0-.178-.28l-.878.615c.044.066.087.133.128.2z" fill="url(#C)"/><path d="m17.869 7.646.878-.614a8.25 8.25 0 0 0-.202-.263l-.82.689c.048.062.097.124.144.188z" fill="url(#D)"/><path d="m17.467 7.151.82-.688a8.272 8.272 0 0 0-.223-.245l-.758.758c.055.058.108.116.161.175z" fill="url(#E)"/><path d="m17.023 6.694.758-.758a8.392 8.392 0 0 0-.245-.224l-.688.821.175.16z" fill="url(#F)"/><path d="m16.541 6.276.689-.82a8.605 8.605 0 0 0-.263-.202l-.615.878c.064.047.127.095.189.144z" fill="url(#G)"/><path d="m16.025 5.902.615-.877a8.432 8.432 0 0 0-.28-.178l-.535.928c.067.041.134.084.2.127z" fill="url(#H)"/><path d="m15.478 5.575.536-.928a8.467 8.467 0 0 0-.294-.153l-.453.971c.071.036.141.072.211.11z" fill="url(#I)"/><path d="m14.905 5.296.453-.97a8.383 8.383 0 0 0-.306-.128l-.366 1.007.219.091z" fill="url(#J)"/><path d="m14.31 5.068.366-1.007a8.38 8.38 0 0 0-.315-.1l-.278 1.035c.076.023.152.047.227.072z" fill="url(#K)"/><path d="m13.697 4.892.277-1.035a8.322 8.322 0 0 0-.323-.072l-.186 1.056c.078.016.155.033.232.051z" fill="url(#L)"/><path d="m13.071 4.77.186-1.054a8.315 8.315 0 0 0-.328-.044l-.094 1.068c.08.009.158.02.236.03z" fill="url(#M)"/><path d="m12.437 4.705.093-1.068a8.292 8.292 0 0 0-.33-.014v1.072c.079.002.158.005.237.01z" fill="url(#N)"/><path d="M11.8 4.695V3.623c-.11.003-.22.008-.33.015l.093 1.067c.08-.004.158-.008.237-.01z" fill="url(#O)"/><path d="m11.164 4.74-.093-1.067a8.39 8.39 0 0 0-.329.044l.186 1.055c.079-.012.157-.022.236-.031z" fill="url(#P)"/><path d="m10.535 4.842-.186-1.055a8.466 8.466 0 0 0-.323.072l.277 1.034c.077-.018.155-.035.232-.051z" fill="url(#Q)"/><path d="M9.917 4.997 9.64 3.962a8.485 8.485 0 0 0-.316.1l.366 1.006c.075-.025.15-.048.227-.071z" fill="url(#R)"/><path d="m9.314 5.205-.366-1.007a8.36 8.36 0 0 0-.307.126l.453.971c.073-.031.146-.061.22-.09z" fill="url(#S)"/><path d="m8.731 5.464-.452-.971c-.1.049-.197.1-.294.152l.536.928.21-.11z" fill="url(#T)"/><path d="m8.174 5.773-.536-.928a8.3 8.3 0 0 0-.28.178l.615.878c.066-.044.133-.086.201-.128z" fill="url(#U)"/><path d="m7.646 6.13-.615-.877a8.312 8.312 0 0 0-.262.201l.688.821c.062-.049.125-.097.189-.145z" fill="url(#V)"/><path d="m7.151 6.532-.689-.82a8.367 8.367 0 0 0-.243.223l.757.758c.057-.054.116-.108.175-.16z" fill="url(#W)"/><path d="m6.694 6.976-.758-.757c-.076.08-.15.161-.223.244l.82.689c.053-.06.106-.118.16-.176z" fill="url(#X)"/><path d="m6.276 7.458-.82-.688a8.414 8.414 0 0 0-.202.262l.878.615c.047-.064.095-.127.144-.189z" fill="url(#Y)"/><path d="m5.903 7.975-.878-.615c-.061.092-.12.185-.178.28l.928.535c.041-.068.084-.134.128-.2z" fill="url(#Z)"/><path d="m5.575 8.521-.928-.535a8.422 8.422 0 0 0-.153.293l.971.453a7.36 7.36 0 0 1 .11-.21z" fill="url(#aa)"/><path d="m5.296 9.094-.97-.452a8.395 8.395 0 0 0-.128.305l1.007.367.091-.22z" fill="url(#ab)"/><path d="M5.068 9.69 4.06 9.323a8.4 8.4 0 0 0-.1.316l1.035.277c.023-.076.047-.151.072-.226z" fill="url(#ac)"/><path d="m4.892 10.302-1.035-.277c-.026.107-.05.214-.072.323l1.056.186a7.29 7.29 0 0 1 .051-.232z" fill="url(#ad)"/><path d="m4.771 10.928-1.055-.186c-.017.109-.031.218-.044.329l1.068.093c.009-.079.02-.158.031-.236z" fill="url(#ae)"/><path d="m4.705 11.562-1.068-.093c-.007.11-.011.22-.014.33h1.072a7.26 7.26 0 0 1 .01-.237z" fill="url(#af)"/><path d="M4.695 12.2H3.623c.003.11.008.22.015.33l1.068-.093a7.245 7.245 0 0 1-.011-.237z" fill="url(#ag)"/><path d="m4.741 12.836-1.068.093c.013.11.027.219.044.329l1.055-.186a7.347 7.347 0 0 1-.031-.236z" fill="url(#ah)"/><path d="m4.842 13.465-1.055.186c.022.108.046.216.072.323l1.035-.277a7.413 7.413 0 0 1-.052-.232z" fill="url(#ai)"/><path d="m4.997 14.083-1.035.277c.031.107.065.212.1.316l1.007-.366a7.389 7.389 0 0 1-.072-.227z" fill="url(#aj)"/><path d="m5.205 14.686-1.007.367c.04.103.082.205.126.306l.972-.453a7.295 7.295 0 0 1-.091-.22z" fill="url(#ak)"/><path d="m5.465 15.268-.972.453c.05.1.1.197.153.294l.928-.536a7.165 7.165 0 0 1-.11-.211z" fill="url(#al)"/><path d="m5.774 15.826-.928.536c.057.095.116.188.177.28l.878-.616a7.145 7.145 0 0 1-.127-.2z" fill="url(#am)"/><path d="m6.13 16.354-.877.615c.065.089.133.176.202.262l.82-.689a7.206 7.206 0 0 1-.144-.188z" fill="url(#an)"/><path d="m6.533 16.848-.821.69c.073.082.148.163.224.243l.757-.758a7.21 7.21 0 0 1-.16-.175z" fill="url(#ao)"/><path d="m6.977 17.306-.758.758c.08.076.161.15.244.223l.689-.82a7.226 7.226 0 0 1-.175-.161z" fill="url(#ap)"/><path d="m7.459 17.723-.69.821c.087.069.174.136.263.201l.615-.878a7.483 7.483 0 0 1-.188-.144z" fill="url(#aq)"/><path d="m7.975 18.097-.615.878c.092.061.185.12.28.178l.535-.928a7.286 7.286 0 0 1-.2-.128z" fill="url(#ar)"/><path d="m8.522 18.424-.536.928c.097.053.194.104.293.153l.453-.971a7.503 7.503 0 0 1-.21-.11z" fill="url(#as)"/><path d="m9.095 18.703-.453.971c.1.045.203.087.305.127l.367-1.007a7.178 7.178 0 0 1-.22-.091z" fill="url(#at)"/><path d="m9.69 18.931-.367 1.007c.105.036.21.069.316.1l.277-1.035a7.362 7.362 0 0 1-.226-.072z" fill="url(#au)"/><path d="m10.302 19.107-.277 1.035c.107.027.214.05.323.072l.186-1.055a7.608 7.608 0 0 1-.232-.052z" fill="url(#av)"/><path d="m10.928 19.228-.186 1.056c.109.016.218.03.328.043l.094-1.068a7.094 7.094 0 0 1-.236-.031z" fill="url(#aw)"/><path d="m11.562 19.294-.093 1.068c.11.007.22.012.33.014v-1.072a6.945 6.945 0 0 1-.237-.01z" fill="url(#ax)"/><path d="m16.641 18.976-.615-.878a7.389 7.389 0 0 1-.2.127l.536.929c.094-.058.187-.117.279-.178z" fill="url(#ay)"/><mask id="az" style="mask-type:luminance" maskUnits="userSpaceOnUse" x="5" y="5" width="14" height="14"><path d="M19 5H5v14h14V5z" fill="#fff"/></mask><g mask="url(#az)"><path d="m18.432 7.336-.044.026a2.902 2.902 0 0 0-.002.099 2.218 2.218 0 0 1 .05.054c.013-.068.027-.137.042-.205a2.2 2.2 0 0 0-.046.026zM18.672 8.568l.008.272v.001l.01.279.029.2c.022.15.044.3.063.449.016.129.029.258.042.387v.002l.016.166.044.307.007.043.074.007-.293-2.113zM5.668 16.455l-.13.003c-.03-.19-.058-.381-.087-.572-.064-.42-.128-.84-.202-1.257a14.045 14.045 0 0 1-.208-3.197h.017l.017-.002.022.553.021.553c.016.167.03.335.043.503.03.37.059.741.113 1.108.064.426.151.848.238 1.27l.11.537c.013.155.028.31.043.465l.003.036zM9.44 15.105v.157l-.025.033-.025.034L7.175 16.6l-.024-.023a2.556 2.556 0 0 1-.024-.022c.101-.053.204-.104.307-.154.225-.112.45-.223.66-.358.322-.206.634-.43.945-.653l.402-.286zM19.022 12.43l-.033-.65a87.56 87.56 0 0 0-.024-.239l-.026-.262v-.099l-.002-.099.02-.15.018-.151.047 1.65zM18.587 8.214l-.019-.07-.024-.095.021.082.022.083zM18.631 8.417a15.978 15.978 0 0 1-.033-.126l.033.126zM18.526 7.961l-.008-.01a.164.164 0 0 1-.014-.021c-.001-.003.006-.01.011-.016.005.016.008.031.011.047zM18.467 7.703l.007.01a.728.728 0 0 0-.008-.047l-.005.006c-.004.003-.008.007-.007.01.003.007.008.014.013.021z" fill="#E42E8A"/><path d="M18.437 16.829c.016.027.033.054.047.08.025-.166.052-.333.08-.5.056-.351.113-.703.154-1.055.077-.671.145-1.344.212-2.017v-.003l.092-.903-.033-.651-.014.002h-.012l-.026.003v.1c-.052.732-.102 1.463-.152 2.195v.015l-.055.318c-.057.33-.114.66-.167.99-.015.09-.025.18-.036.27a5.375 5.375 0 0 1-.043.316c-.009.052-.035.102-.062.151l-.035.07-.015.127a1.394 1.394 0 0 0-.017.305c.006.064.044.126.082.187zM10.797 13.781a3.881 3.881 0 0 0-.049.116 7.876 7.876 0 0 0-.05.05l-.05.051-.058.225-.004.016a.513.513 0 0 1 .022.019l.012.01.302-.526.284-.494c-.207-.03-.268.099-.31.268-.024.09-.062.178-.1.265zM18.036 17.058l.25-.028.201-.022c.03.236-.042.322-.304.36a.78.78 0 0 1-.035-.04c-.026-.031-.052-.062-.085-.08-.076-.04-.157-.071-.238-.103a8.285 8.285 0 0 1-.091-.037l.057.01.547.092.012-.043-.314-.109zM17.579 17.213l-.06.028-.05.024.517.111-.407-.163zM12.801 13.041l-.042.132-.255.002.297-.134zM10.398 14.462l.001.051.11-.122.112-.122-.035-.028a25.23 25.23 0 0 0-.19.164c.002.019.002.038.002.057zM10.276 14.645l-.039.038.067-.066.007-.006-.035.034zM10.147 14.759zM10.353 14.558a2.46 2.46 0 0 1 .01-.011l-.01.01zM17.631 16.958l.051.154-.08-.054-.069-.046a7.28 7.28 0 0 1 .098-.054zM17.782 16.957l.051.002a4.283 4.283 0 0 1-.102-.05v.045l.05.003z" fill="#B91A6C"/><path d="m13.008 12.64.301.354a59.13 59.13 0 0 1 .245.203c.237.145.482.19.75.053a115.183 115.183 0 0 0-.19-.453c-.266-.09-.532-.177-.798-.264-.255-.103-.264-.162-.054-.344a50.85 50.85 0 0 0-.141-.193l-.112.292-.001.351zM8.886 13.844h.05l.004-.004c.065-.051.13-.103.198-.154a.613.613 0 0 0 .047-.017c.035-.014.07-.028.105-.026.047.003.095.018.142.033l.06.018a3.5 3.5 0 0 1 .05-.004l.046-.004a.394.394 0 0 0 .028-.04c.02-.031.038-.061.063-.066.34-.07.581-.288.822-.505a5.95 5.95 0 0 1 .222-.193c.116-.095.23-.22.02-.347l-.743.263-.558.197-.137.089a10.77 10.77 0 0 0-.36.236c-.166.11-.332.221-.486.347-.03.025-.028.09-.026.155v.086l.065-.016c.049-.012.098-.023.149-.032.043-.007.087-.01.131-.012a2.81 2.81 0 0 0 .058-.004h.05z" fill="#79013F"/><path d="M5.918 13.44c-.031-.412-.097-.825-.085-1.236.015-.56.09-1.12.138-1.679l.102-.502.044-.102.006-.15.553-1.507.048-.001.555-.101.154.1c-.49 1.095-1.025 2.178-1.058 3.413-.008.302.028.605.043.907l.056 1.21.038.103.008.148c-.032.073-.09.147-.092.22-.009.382-.004.764-.004 1.202l-.243-.117-.054-.15c.004-.056.019-.113.012-.168-.04-.296-.084-.591-.127-.887l-.09-.603-.004-.1z" fill="#FB64B6"/><path d="m18.21 8.844-.028-.125a1.36 1.36 0 0 1-.062.014c-.055.012-.111.024-.111.037a6.42 6.42 0 0 0 .024.71.468.468 0 0 0 .048.144c.026.055.05.11.049.164-.016.438-.043.875-.069 1.312v.002l-.025.432.04-.12c.037-.114.075-.228.109-.343.012-.04.02-.08.027-.122.024-.136.049-.27.223-.32l.006-.353-.002-.126-.002-.125-.097-.553-.054-.352-.024-.076-.024-.075-.028-.125zM17.43 16.563l-.1-.454-.025-.004c-.017-.002-.035-.004-.047-.011-.078-.05-.156-.102-.233-.154l-.09-.06c.023-.029.048-.057.074-.085.055-.062.11-.123.14-.195.104-.26.196-.527.273-.797.144-.508.277-1.02.41-1.531l.012-.045c.011-.044.015-.09.018-.134a.599.599 0 0 1 .027-.16.423.423 0 0 1 .096-.134 1 1 0 0 0 .05-.057v-.202a2.86 2.86 0 0 1 .025-.052l.024-.05-.05-.245v-.005h-.15v.2a74.96 74.96 0 0 0-.052.252l-.05.253v.148l-.09.256c-.066.186-.131.373-.19.562-.027.082-.046.166-.065.25-.023.098-.046.196-.079.29-.119.341-.243.681-.387 1.012a.508.508 0 0 1-.16.173c-.029.024-.058.048-.084.073v.25l.047.043c.034.033.068.065.107.074.193.046.214.178.195.338l.167.095.187.106zM13.209 14.153l-.03-.066-.083-.177c.01-.043.017-.088.024-.132.015-.098.031-.195.068-.284.025-.06.008-.13-.008-.198-.029-.12-.057-.237.129-.302l.13.109.114.094c.067.244.32.406.557.395.152-.008.305 0 .48.01.086.004.177.009.276.012v-.318l.156.103.147.096c.028.056.057.113.106.215l-.117.061c-.085.045-.17.09-.255.137-.186.104-.37.066-.553.028-.078-.016-.157-.033-.236-.038-.039-.025-.078-.052-.116-.078l-.034-.023-.35-.15-.018-.023-.178-.22-.023.017a1.217 1.217 0 0 0-.023.018l.075.18.072.174-.137.02-.085.012a11.54 11.54 0 0 0-.07.262l-.018.066zM9.39 15.332l.026-.034.024-.032-.001.028-.024.019-.025.02zM8.735 15.452l.352-.202h.001l.35-.201.004.058c-.135.095-.27.192-.404.288-.31.223-.621.446-.943.652-.21.134-.435.246-.66.357-.103.05-.206.102-.307.155l-.798.29-.028-.065a93.206 93.206 0 0 0 .478-.221l.075-.029.074-.028.022.001.022-.002a.246.246 0 0 1 .103-.046c.085-.024.17-.049.1-.2l.003-.003.605-.345.246-.059.603-.347.101-.053h.001zM18.035 11.631h.1v.1l-.076.053-.072.05.034-.143.014-.06zM14.817 13.14l-.251-.152.15.152.15.152-.02-.062-.029-.09z" fill="#BA0163"/><path d="M10.243 12.326a7 7 0 0 0 0 .08l.001.08-.349.117c-.433.147-.867.294-1.299.444-.074.025-.144.06-.214.095a3.9 3.9 0 0 1-.097.048c-.017-.01-.035-.018-.052-.026l-.049-.025-.016-.008a8.35 8.35 0 0 1-.085-.041l.001-.001.098-.046.405-.11.349-.096.215-.069c.194-.061.388-.123.578-.191.032-.012.055-.05.078-.088.011-.018.022-.037.034-.052a5.82 5.82 0 0 1 .026-.048l.026-.049.096-.024.127.005.127.005zM10.754 13.241l-.1.076-.104.08h-.053.003a6.936 6.936 0 0 0-.078-.002l-.078-.003.45-.45.055.041a40.05 40.05 0 0 0-.095.258zM15.018 15.496l.28.201c.305.219.61.438.916.654.077.053.158.1.239.145l.097.056-.007.015a.84.84 0 0 0-.02.042 67.786 67.786 0 0 1-.406-.192l-.023.034.136.115c.097.082.194.165.292.246h-.146l-.004-.002-.13-.072a20.634 20.634 0 0 1-.132-.072.04.04 0 0 1-.035-.019l-.176-.106-.04-.025a.037.037 0 0 1-.035-.017l-.301-.194h-.001l-.073-.052-.073-.05-.003-.002-.004-.003a13.023 13.023 0 0 1-.138-.098l-.06-.05-.048-.039-.123-.097-.211-.177c-.215-.18-.43-.36-.643-.543-.046-.04-.086-.089-.125-.137-.018-.022-.036-.045-.055-.066l-.001-.047-.001-.044.25.148.053.025.05.025.027.014.023.01.052.026.401.251h.155c.013.034.028.066.043.097zM13.74 14.47l-.009-.009-.014-.015-.055.003.1.175.098.175.002-.049.002-.05-.1-.206a1.715 1.715 0 0 0-.024-.024zM13.863 14.803l.046.046a1.066 1.066 0 0 0-.046-.046zM9.41 14.618l.126-.124c-.184-.02-.246.086-.25.248l.125-.124z" fill="#ED1789"/><path d="m17.178 7.42.003-.002v-.051l-.001-.052.36-.223-.15-.177-.003-.003-.262.13-.246.122-.003.021-.014.128.197-.04-.183.187-.1.05-.1.05.2-.1.207.003.095-.043zM6.85 16.729l.325-.124-.01-.01a.491.491 0 0 1-.037-.036l-.662.24-.136.05-.028-.064.228-.106.25-.116a4.813 4.813 0 0 0-.054-.104l.052-.1h-.2l-.085.028-.07.025-.15.048v-.001l-.463.232-.187.093-.033-.047a7.006 7.006 0 0 1-.032-.044l.012-.01c.05-.04.1-.083.15-.124l-.052-.101-.13.003c.002.038-.001.081-.004.124-.007.094-.014.189.03.235.142.15.343.252.565.176.242-.083.482-.175.722-.267zM16.425 7.663l-.001.1-.232.085-.317.119-.004-.005.554-.299zM15.785 8.045l.09-.078-.004-.004-.22.088.023.036.022.037.09-.079zM16.626 7.611l-.05.017a4.78 4.78 0 0 0 .05-.017zM16.472 7.662l.104-.034-.104.034zM16.676 7.558l-.05.05c.017-.015.034-.033.05-.05zM6.94 16.15a1.278 1.278 0 0 0-.01.054l-.053.075-.052.075.176-.05c.058-.018.118-.035.176-.051l.606-.346.002.002a15.194 15.194 0 0 1 .246-.06v-.087l-.2.055-.05.085V15.9a43.7 43.7 0 0 1-.233.028l-.186.022-.066.05c-.063.122-.139.204-.282.102l-.073.049z" fill="#EB258C"/><path d="m6.95 16.503-.022.001h.023l.022-.002-.022.001z" fill="#EB258C"/><path d="m16.677 8.118.05-.202.7-.41.202-.072.204-.072c.05.265-.108.352-.329.407a.443.443 0 0 0-.155.09 1.014 1.014 0 0 1-.071.052l.003.005-.076.025-.075.025-.017.007c-.112.046-.225.092-.337.14l-.099.005zM17.797 14.529c.13-.402.261-.804.237-1.24a.287.287 0 0 1-.033.015c-.023.01-.045.018-.05.031a178.5 178.5 0 0 0-.363 1.376l-.048.183v.003c-.007.024-.014.054-.004.07.173.274.013.464-.163.647-.148.154-.155.316-.043.49.17-.012.231.096.273.237.026.09.06.178.092.266l.038.1.195-.009.126-.005-.043-.219-.024-.119-.086.073-.001.001-.127.11c-.012-.07-.019-.135-.025-.197-.014-.127-.026-.238-.072-.332-.109-.22-.108-.404.018-.61.038-.063.037-.154.036-.237v-.038c0-.041-.008-.084-.016-.127a.398.398 0 0 1-.008-.184l.091-.285zM17.734 17.114l.29.049.315.053.012-.044a33.3 33.3 0 0 1-.15-.052l-.165-.058-.103-.05-.1-.048-.05-.003-.052-.002h-.1l.052.154h.051zM18.191 14.956a220.247 220.247 0 0 1 .098-.66c.195.31.183.39-.098.66z" fill="#A40156"/><path d="M18.01 16.043a45.54 45.54 0 0 1-.023.168.66.66 0 0 1 .054-.057c.039-.039.078-.077.085-.12.023-.149.033-.3.043-.45l.014-.181-.034.027c-.027.02-.054.04-.058.066-.031.18-.056.364-.08.547zM18.364 13.573l.024-.081c-.015.052-.03.105-.047.157l.023-.076zM18.135 11.634v.101c.089.164.068.301-.104.402v.05c.015.082.032.164.049.246v.005l-.024.05-.025.051.001.202.045-.031c.11-.078.222-.155.358-.02h.053l-.003-1.558a13.766 13.766 0 0 0-.048-.202l-.003.002c-.16.044-.169.161-.177.279a.561.561 0 0 1-.022.144l-.07.197-.03.082zM14.416 10.677l-.119.048-.132.054-.071.023c-.06.02-.121.04-.182.057-.11.033-.219.064-.329.095l-.077.021.003-.051.038-.033.418-.362a1.12 1.12 0 0 1 .053-.013.514.514 0 0 0 .11-.034c.18-.084.358-.172.537-.26l.102-.05.153-.098h.1l.148.073.155.076c-.343-.045-.563.151-.783.346-.041.037-.082.073-.124.108zM18.06 12.937l.024.1-.021-.085a14.926 14.926 0 0 1-.004-.015zM13.56 12.21c-.156.042-.314.085-.246.324-.255-.103-.264-.162-.055-.344l.352.006-.051.014zM7.983 15.605a.631.631 0 0 0-.046.01c-.036.03-.073.059-.109.086l.003.116.1-.028.1-.028.604-.26.052-.026.05-.024h-.002l.2-.206.022-.022a1.93 1.93 0 0 1 .026-.024l.004-.023a.658.658 0 0 0 .003-.023l-.006-.122a4.463 4.463 0 0 1-.078.039c-.046.022-.092.044-.137.07l-.295.168-.185.107-.253.142h-.002a1.06 1.06 0 0 0-.035.033l-.016.015zM15.349 11.786c.337-.011.682-.022 1.02.27l-.546.334a2.042 2.042 0 0 0-.05.003l-.046.004a7.04 7.04 0 0 1-.082-.009l-.077-.007.102-.054.212-.112c-.15-.146-.295-.287-.515-.333a.53.53 0 0 1-.139-.06l-.062-.032c.06 0 .122-.002.183-.004zM15.197 12.357l.228.02c-.134-.157-.289-.101-.444-.045l-.012.005.228.02z" fill="#A40156"/><path d="M5.538 7.406c.008.023.016.045.02.064l.512.044.34-.073.003-.064-.081-.038a38.814 38.814 0 0 0-.164-.076l.066-.027.188-.076.012-.161h-.003l-.058-.029c-.378-.19-.6.05-.819.283l-.035.038c-.016.017.001.066.019.115zM8.242 8.568a4.364 4.364 0 0 0-.103-.028c-.074-.02-.148-.039-.219-.066-.115-.045-.228-.095-.342-.146a17.081 17.081 0 0 0-.145-.064l-.122.273c-.453 1.004-.906 2.009-.936 3.141-.006.21.01.42.025.63.007.092.013.185.018.278.194.025.254-.07.184-.234-.084-.193-.09-.368.033-.543.018-.027.04-.067.032-.092-.074-.24.031-.425.138-.612.064-.113.13-.226.154-.353.029-.149.177-.133.311-.119.028.003.055.006.08.007.117.007.235.005.347.004l.14-.002a3.313 3.313 0 0 0-.078-.23c-.061-.165-.119-.32-.102-.467.012-.107.124-.201.235-.295.05-.043.099-.085.14-.128.04-.196.186-.257.332-.318.06-.025.12-.05.174-.085.049-.032.095-.069.142-.106l.055-.044a41.67 41.67 0 0 0-.2-.2l-.101-.1-.057-.052-.135-.049zM10.093 13.644l.052-.098.198-.153.074.002.082.003-.013.04a.185.185 0 0 1-.032.072c-.206.224-.413.446-.62.668l-.002.001-.296.319c-.184-.02-.246.085-.25.248l-.15.143-.153.145-.06.029c-.051.025-.104.05-.154.079-.134.075-.266.151-.398.228l-.083.048-.111.023-.09.018c-.186-.098-.218-.255-.075-.407.057-.061.12-.117.184-.172l.087-.077a1.31 1.31 0 0 1 .117-.006c.087-.001.174-.003.242-.04.2-.113.391-.241.582-.37l.209-.14c.248-.014.607-.342.66-.603zM7.78 13.189h.102a8.96 8.96 0 0 0 .201-.1h.001v-.047a.352.352 0 0 0 .006-.038c.003-.028.006-.056.02-.062.076-.031.156-.056.235-.08l.09-.029-.076-.074-.076-.074h-.176l-.175.001-.11.022-.142.028c-.067.002-.134.002-.2.002l-.077.17-.051.115.054.018.339.117c.01.003.017.012.025.02a.217.217 0 0 0 .01.011zM12.886 11.832l-.024.001-.002-.118c-.002-.151-.004-.302 0-.454.001-.019.027-.037.054-.055.012-.009.025-.017.034-.026l.024.207-.041.3-.02.144a.67.67 0 0 1-.025.001zM10.523 13.395l-.027-.001a.97.97 0 0 0 .027 0zM6.123 9.771l-.006.15a4.44 4.44 0 0 1-.043.102l-.103.502c-.232-.023-.335-.14-.303-.382.028-.207.05-.415.073-.623.019-.17.037-.34.058-.51.025-.19.052-.38.083-.586l.052-.358.153.11.092.067.026-.036.067-.094.026.125.027.125c-.226.112-.385.293-.365.544.016.204.061.405.107.607.02.086.039.171.056.257zM14.565 12.613l.001-.026-.152-.097-.151-.098-.598-.05-.006.099a133.847 133.847 0 0 1 .706.249l.107-.027.092-.024.001-.026z" fill="#FB2899"/><path d="M17.181 7.416v-.052l-.001-.052h.157a.328.328 0 0 0 .004.017l.003.017a10.91 10.91 0 0 1-.163.07zM16.876 7.46l.208.002.025.03c.02.024.038.049.057.048.065 0 .13-.012.193-.023l.07-.011-.701.41-.099.048-.102.05h-.051l-.052-.001a7.961 7.961 0 0 1-.075-.014l-.089-.017.07-.092c.03-.042.063-.085.095-.127v-.1h.047l.154-.05.05-.05.14-.073.06-.03zM13.121 10.615c-.054.105-.109.21-.165.313a.848.848 0 0 1 .001.051l.09.136.013.018h.027l.027.002.075-.05a9.6 9.6 0 0 1 .07-.048l.299-.51-.093.034-.08.03a1.475 1.475 0 0 1-.045-.039l.472-.577c.061-.073.121-.148.181-.222.14-.175.282-.35.441-.505.167-.163.351-.31.535-.457.088-.07.176-.14.262-.212.012-.011.021-.026.03-.04a.386.386 0 0 1 .013-.02l-.42-.061c-.567.378-.996.886-1.348 1.46-.138.226-.261.462-.385.697zM11.304 10.857l.006.076h.005l.064-.005a5.74 5.74 0 0 0-.08-.147l.005.076zM13.916 14.093l-.106-.244-.098-.104a33.025 33.025 0 0 1-.098-.104l-.18-.22-.017-.023-.023.018a1.74 1.74 0 0 0-.022.018l.073.177c.024.06.05.119.074.177l.245.406h-.001a.783.783 0 0 0 .048.002l.052-.052.053-.051zM11.45 11.282c.033-.034.067-.066.101-.098-.026-.01-.055-.017-.084-.024-.088-.019-.176-.038-.166-.179a7.782 7.782 0 0 0-.141-.038l-.122.292.03.174.028.173-.023.094-.027.108-.003.104-.003.24a.564.564 0 0 1 .056-.033c.043-.023.087-.046.092-.077.018-.097.027-.195.035-.294.007-.083.015-.166.028-.249.007-.045.034-.088.06-.131a.856.856 0 0 0 .037-.062h.101z" fill="#F3339A"/><path d="m14.615 9.371-.665.653c.223-.217.444-.435.665-.653zM14.717 9.268l.203-.097-.05-.052-.102.1-.05.05zM14.666 9.32l-.05.05.017-.017.033-.033zM13.56 10.526zM15.423 9.122l-.003-.255-.4.205v.025l-.001.024-.002.149-.002.148.101-.022.104-.023h.05l.05-.002.1-.201-.032-.013-.031-.013.033-.011.033-.011zM6.83 8.068l-.106.195-.024.001-.025.001.094-.202.06.005zM13.823 11.728l.087.002c.15-.15.685-.25.811-.153l.14-.003.105-.14.105-.14-.057-.169-.453.151-.171.057-.278.092-.286.098-.316.11c.007.009.014.02.02.031.016.026.031.05.05.053.08.009.161.01.243.011zM6.123 9.774c-.017-.088-.037-.175-.057-.262-.046-.2-.091-.4-.107-.602-.02-.252.139-.431.365-.543l.057-.006c.044-.005.088-.009.13-.02a.646.646 0 0 0 .118-.051c.016-.008.031-.017.047-.024l-.524 1.428-.029.08zM6.117 9.922a4.77 4.77 0 0 1-.022.051l.022-.05z" fill="#F3339A"/><path d="m6.07 7.514-.511-.042c.01.03.02.058.028.089l.031.15a5.877 5.877 0 0 1-.013.066l-.012.067.024.129a5.537 5.537 0 0 1 .1-.114.699.699 0 0 0 .002-.076c-.003-.112-.005-.225.201-.12l.178.046.175.044.327.018-.53-.257zM17.347 13.847l.033-.153a.421.421 0 0 1-.037.028c-.027.019-.053.038-.064.063-.13.326-.259.655-.383.986l-.044.114c-.085.213-.17.427-.125.669.021-.035.044-.07.067-.104.049-.072.098-.144.127-.223.123-.342.235-.688.342-1.036.035-.113.06-.228.084-.344zM16.726 15.554l.001.1v.05l-.001.05c-.156.05-.078.101 0 .151a.701.701 0 0 1 .047.043.268.268 0 0 0 .108.075c.193.045.214.176.195.337l-.021-.01-.43-.191c-.003-.018-.004-.037-.005-.056-.002-.04-.004-.08-.024-.109-.133-.198-.097-.334.13-.44zM11.04 10.624c-.03-.082-.06-.165-.092-.247-.026-.022-.056-.043-.087-.063-.067-.045-.134-.09-.154-.152l-.012-.037c-.058-.176-.059-.18-.277-.1l.079.2a32.353 32.353 0 0 1 .05.353l.117.278.033.077.343.304.076-.182.046-.11-.121-.321zM6.823 16.359h-.246l.082-.07c.054-.045.108-.09.161-.137l.028.004.029.003.051.052-.031.044-.074.104zM14.48 12.885c-.04-.065-.078-.13-.116-.196l-.145-.051a88.332 88.332 0 0 0-.563-.197l-.075-.068.082-.032.597.052.278.022c.32.026.64.051.96.068.05.003.103-.024.155-.051a.796.796 0 0 1 .073-.035l-.08-.008a6.49 6.49 0 0 0-.08-.008l-.071-.001-.072-.001-.238-.022-.218-.02-.35-.03-.35-.03-.255-.042-.4-.042-.051.014c-.158.042-.315.084-.247.324l.798.263.401.148-.034-.057zM15.166 11.79l-.432.03c-.295.02-.59.04-.886.058-.119.007-.237.005-.357.003l-.162-.001c.032-.24.032-.24.182-.245.008.01.015.021.022.033.015.025.03.05.048.052.08.008.162.01.244.01l.086.003.405-.077c.135-.025.27-.05.406-.077l.14-.003.052.004.053.003c.037.011.074.024.11.036.078.027.156.053.235.062.097.011.196.014.294.017.159.005.316.01.466.047.407.102.48.143.354.443l-.351.118-.252.085.148-.09.398-.244c-.338-.292-.682-.281-1.018-.27l-.185.003zM7.58 11.874l.098-.002.203-.041.08-.005c.023 0 .048-.002.072-.004l.001-.017c.005-.067.01-.133.014-.21l.56-.032v-.048l.001-.05-.678-.036c-.024.021-.049.047-.073.072-.053.057-.107.113-.165.119-.181.017-.229.099-.212.257l.099-.003z" fill="#D30672"/><path d="m9.76 11.113.285.165.107.013.032.004.109.064.109.064c.015.004.029.01.043.015l.102.042.05-.016.045-.015c.04-.166-.058-.212-.159-.259a.562.562 0 0 1-.105-.06c-.068-.051-.128-.112-.188-.173-.048-.05-.097-.098-.15-.143a4.894 4.894 0 0 0-.45-.353 2.42 2.42 0 0 0-.28-.155 5.499 5.499 0 0 1-.138-.071c-.148.136-.064.25.019.361l.015.022c.077.105.156.207.234.31l.32.185zM12.822 13.002l-.021.04-.01.033-.033.098.028.048c.02.033.04.066.056.101.073.164.143.328.213.493l.04.095c.01-.044.017-.088.024-.133.015-.097.031-.195.068-.283.025-.06.008-.13-.008-.198-.028-.12-.056-.237.129-.302l-.301-.355-.185.363zM13.553 13.195c.237.145.482.19.75.053l-.19-.453.402.148.046.043.006.004.15.153.15.152v.318c-.1-.003-.192-.008-.278-.012a4.762 4.762 0 0 0-.479-.01.568.568 0 0 1-.557-.396zM10.489 14.323l.097-.084.004-.014.059-.229-.107.104-.098.096-.038.164-.01.043.093-.08zM13.261 12.187l-.077-.105-.064-.087c-.05.133-.08.211-.112.29l-.092-.005.003-.196c.14-.077.12-.165.015-.258l-.024.004.03-.211.032-.233.086-.087.184-.09.167-.081.04.136.112-.057a1.41 1.41 0 0 0 .19-.106c.102-.072.199-.15.295-.229l.118-.095a29.668 29.668 0 0 1 .25-.102c.042.015.087.021.133.027.127.018.253.035.271.226l-.145.093c-.123.079-.245.157-.366.239-.05.033-.095.074-.14.114l-.055.05-.317.109-.285.098c-.062.002-.098.004-.122.022-.033.025-.041.083-.06.223l.161.001c.12.002.24.004.357-.003.34-.02.68-.043 1.018-.067l.3-.021c.022.01.043.021.064.033a.53.53 0 0 0 .136.059c.221.046.367.187.515.333l-.313.166-.072-.001-.071-.001c-.135-.157-.289-.102-.443-.047l-.014.005-.35-.03-.35-.03-.254-.041-.401-.043c-.116.002-.233 0-.35-.002zM9.392 11.88H9.14a2.51 2.51 0 0 0-.082.02c-.05.013-.101.026-.151.032-.104.014-.208.026-.312.038-.168.02-.336.04-.503.065a.254.254 0 0 0-.104.055.602.602 0 0 1-.049.033l.044.054c.032.041.064.082.103.113a1.5 1.5 0 0 0 .172.108l.081.047.15-.003.149-.004c.046-.141.122-.11.197-.078.036.015.072.03.105.027a4.827 4.827 0 0 1 .15.043l.101.01.45-.051.103-.01.152-.038.04-.01.055-.015c.03-.173-.033-.284-.208-.333-.025-.007-.044-.034-.063-.061a.376.376 0 0 0-.028-.037l-.048-.006h-.252z" fill="#830245"/><path d="M18.12 8.425a27.324 27.324 0 0 0 .12.545l.023.075.024.076.054.352c.22.12.172.288.123.456a1.96 1.96 0 0 0-.027.097l.002.132.002.12c.156.181.13.39.103.599l-.007.055v.1c.021.027.044.053.067.079.053.06.106.119.126.188.026.089.02.188.012.286l-.005.086c-.005.142.046.225.2.214l.001-.05v-.05l.002-.253a71.198 71.198 0 0 1 0-.352l-.001-.099-.024-.118v-.002a28.342 28.342 0 0 0-.026-.133l-.074-.058-.004-.003.078-.038v-.026l.002-.029-.044-.306-.007-.043c-.02-.038-.045-.076-.069-.113-.05-.081-.103-.162-.127-.25l-.043-.153c-.135-.488-.27-.977-.369-1.473a2.3 2.3 0 0 0-.064-.236c-.076-.24-.152-.486.02-.736-.228.029-.288.143-.228.365.063.23.111.463.16.696zM13.979 14.126l.035.02c.033.008.07.014.106.02.077.012.154.024.192.067.114.136.226.166.384.113a.214.214 0 0 1 .149.004c.2.098.346.003.495-.116.047-.037.098-.07.149-.104.085-.056.17-.112.234-.186.04-.045.043-.123.045-.202 0-.035.001-.07.006-.103l-.169-.166-.084-.084-.704-.25.049.152v.001a34.366 34.366 0 0 0 .303.199l.348.273c-.03.03-.058.066-.086.102-.062.08-.124.159-.194.167-.317.037-.64.025-.96.013-.04-.001-.077-.048-.114-.094a.687.687 0 0 0-.05-.058l-.044-.03-.105-.07c-.026.008-.052.018-.077.027l-.077.028.106.244.063.033zM17.13 7.964l.076-.025.075-.025.074.168c.058.13.117.261.153.397.048.18.064.374.066.563 0 .081-.013.167-.026.252-.022.145-.043.286.005.4.162.374.033.663-.103.967-.03.067-.06.135-.088.205-.089.223-.167.515.055.778.096.113.243.322.014.49h-.002v-.149l-.074-.076-.075-.077a43.598 43.598 0 0 1-.151-.2l.033-.067.017-.034-.016-.06-.016-.06c-.098-.35-.083-.701.13-.992.138-.187.113-.344-.005-.464-.2-.204-.142-.425-.084-.634.056-.204.006-.343-.154-.449l-.012-.008c-.151-.1-.227-.152-.237-.213-.01-.063.052-.136.176-.285a17.353 17.353 0 0 1-.083-.203l.252-.199zM16.494 14.022a6.473 6.473 0 0 0-.017.125c.223-.087.262-.271.301-.456.023-.106.045-.211.101-.299-.317.008-.344.038-.354.339-.003.097-.017.194-.03.291zM17.13 12.89l.301-.604c.01.02.025.042.04.064.03.045.06.09.048.12-.076.204-.176.401-.276.595-.008.016-.039.018-.07.02-.016.002-.031.003-.044.006l.001-.2zM16.378 14.197v.05l.098-.1h-.099v.05zM16.979 13.291l.036-.037a4.347 4.347 0 0 1-.036.037zM8.633 11.277l.205.054c-.007-.011-.012-.024-.018-.036-.013-.026-.025-.052-.046-.064-.37-.194-.762-.305-1.181-.24a.496.496 0 0 0-.292.167c-.068.087-.115.19-.161.294-.02.045-.04.09-.062.133l.35-.078.351-.077c.065-.27.171-.338.42-.268.144.04.289.078.434.115zM9.08 11.724c-.004-.049-.008-.099-.02-.1-.127-.018-.138-.102-.148-.185-.005-.038-.01-.076-.026-.107l.163.04c.113.028.226.056.338.086.18.05.36.1.54.152l.267.075-.077.026c-.054.02-.11.04-.165.049a1.856 1.856 0 0 1-.22.019l-.092.005-.507.006a.73.73 0 0 1-.046-.005 1.209 1.209 0 0 1-.006-.06zM8.377 14.489c.088-.029.176-.057.262-.089l.05-.049.05-.05-.656.046c-.247.22-.508.248-.68.074-.183-.187-.167-.563.04-.762a.994.994 0 0 1 .161-.115c.027-.016.053-.033.078-.05v-.1l-.112.028c-.083.02-.165.04-.24.077-.094.045-.228.123-.24.201a5.843 5.843 0 0 1-.02.128c-.032.187-.063.372-.016.59.108.49.435.492.743.308.177-.107.379-.172.58-.237zM7.882 13.242h.002l.153.004-.156.097v-.101zM8.814 14.25a19.311 19.311 0 0 0-.076.05l.076-.05zM8.183 13.194a.956.956 0 0 1 0-.054l.051.025.05.025-.101.004zM15.27 9.371l-.05.001a7.537 7.537 0 0 1-.207.091l-.048.007-.046.006-.003.195.08-.026.174-.056.4.435.051.05.102.103.05.05c.008-.02.02-.04.032-.061.026-.046.052-.092.04-.125-.064-.19-.14-.376-.217-.561a26.547 26.547 0 0 1-.071-.175l-.222.061-.016.004-.05.001z" fill="#EE0982"/><path d="M18.839 10.325a2.261 2.261 0 0 0-.069-.112c-.052-.081-.103-.162-.128-.25l-.032-.117c-.139-.5-.278-1-.379-1.51a2.3 2.3 0 0 0-.065-.236c-.075-.24-.151-.485.02-.736l.15.097.275 1.305.038.176v.002l.039.177.028.194c.023.152.045.303.065.455.016.129.029.258.041.387v.001l.017.167zM5.92 7.785a1.7 1.7 0 0 1 .002-.122c-.207-.105-.205.008-.202.12 0 .026.001.052-.001.076l-.1.305v.102c.027-.02.059-.04.09-.058.074-.044.148-.088.177-.152.036-.079.035-.175.034-.27zM6.134 15.55l.041-.05c.002-.05.004-.1.008-.153l-.054-.15c-.156.01-.243-.064-.29-.212a63.936 63.936 0 0 0-.052-.163c-.187-.584-.374-1.168-.37-1.795.001-.103-.014-.206-.029-.309a4.782 4.782 0 0 1-.018-.134l.025-.176.026-.175-.025-.008c-.02-.007-.042-.014-.041-.018.019-.204.041-.407.064-.611l.002-.017v-.25l-.016-.17c-.013-.147-.026-.294-.033-.441v-.01c-.005-.105-.01-.196-.154-.184l-.1.353.03.03a.226.226 0 0 1 .06.085c.004.011-.024.033-.053.055l-.038.03-.042.352.021.553.022.553a.96.96 0 0 0 .054.074c.042.053.083.107.091.165l.02.134c.052.351.103.704.112 1.057.007.274.104.517.201.76.068.17.136.34.172.519.03.148.051.298.073.447l.031.213.05-.075c.033-.049.066-.098.101-.146.035-.046.073-.09.11-.134zM18.884 10.825l.004.003a1.66 1.66 0 0 1 0-.1l-.078.039.074.058zM14.566 12.991a2.122 2.122 0 0 0-.046-.042l-.006-.005-.111-.188-.039-.065.089-.023.11-.028.398.126h.001c.334.107.668.213 1.003.315.399.122.773.08 1.104-.195l.029.002.032.002v.2l-.024.048a5.164 5.164 0 0 1-.027.053l-.034.034a5.931 5.931 0 0 1-.066.066l-.01.01-.091.09c-.317.008-.344.037-.354.339-.003.097-.017.194-.031.291a6.473 6.473 0 0 0-.017.125h-.07l-.029.001c.053-.223-.153-.648-.38-.711a.504.504 0 0 1-.128-.068c-.11-.07-.222-.143-.349.024l-.703-.25-.251-.15zM6.575 14.247l.15 1.206a.85.85 0 0 1 .743-.113c.06.017.172-.073.232-.14.048-.053.09-.112.13-.171.053-.077.106-.153.174-.215a.661.661 0 0 1 .225-.117c.037-.014.074-.027.11-.043l.157-.134.14-.12c-.087.033-.178.062-.268.091-.2.065-.398.13-.573.234-.308.185-.635.183-.743-.308-.048-.217-.016-.402.016-.589l.02-.128c.012-.078.146-.155.24-.201.076-.038.161-.058.246-.079a2.762 2.762 0 0 0 .26-.073l.023-.003a.695.695 0 0 0 .024-.002v-.152H7.78l-.067.031a.936.936 0 0 1-.156.064c-.059.016-.12.028-.18.04a1.38 1.38 0 0 0-.294.08l-.008.003c-.172.075-.353.155-.26.434.06.177.01.37-.24.405zM14.616 9.923l-.151.1-.053-.003v-.1l.263-.232h.001l.241-.214-.003.195c-.097.085-.197.17-.298.254zM17.144 11.603l.035-.07-.116-.06c-.07-.038-.14-.074-.21-.11-.184-.088-.17-.2-.068-.368a5.1 5.1 0 0 0 .358-.766l.03-.078c.022-.052-.02-.15-.064-.205-.116-.146-.149-.31-.182-.476a3.016 3.016 0 0 0-.036-.168 2.95 2.95 0 0 0-.154-.415 3.056 3.056 0 0 1-.168-.458c-.007-.029-.082-.04-.156-.051a1.128 1.128 0 0 1-.095-.017l-.121.008-.122.008c0 .032 0 .063-.002.094.019.223-.124.313-.267.403-.067.042-.135.084-.185.14-.032.037-.082.057-.132.078a.872.872 0 0 0-.065.029c0 .016-.002.032-.004.048l-.1.201.237-.065.073.177c.075.184.152.37.217.558.01.034-.015.08-.041.125-.012.021-.024.042-.032.062l-.025.047-.028.053-.098.078-.097.079-.015.03-.032.068.095.149.5-.357a.746.746 0 0 0 0-.047c-.172-.414-.013-.673.401-.653.351.016.61.347.5.675a2.09 2.09 0 0 1-.293.536c-.025.035-.095.037-.164.04a.815.815 0 0 0-.09.005l-.355.144c.088.05.137.143.186.236.076.143.15.285.368.272l.001-.015.012-.11.27.098.219.079.015-.031zM5.77 16.207l.1-.201c.066.15.034.215-.1.201zM15.12 9.418l.1-.045a15.8 15.8 0 0 1-.094.02l-.11.025c-.002.016-.002.03-.002.047l.106-.047z" fill="#F7158D"/><path d="M8.494 10.53c.438.408.984.602 1.551.748l-.605-.349c-.212-.05-.337-.203-.462-.357-.06-.073-.12-.147-.19-.209-.029-.026-.026-.086-.023-.147a.692.692 0 0 0 .001-.083.737.737 0 0 0 .06-.007.317.317 0 0 1 .121-.003c.097.025.193.056.288.086.08.025.161.05.243.073.059.017.12.025.183.033l.082.012-.094-.08c-.063-.054-.125-.108-.19-.156-.051-.038-.106-.07-.16-.104-.08-.05-.16-.098-.228-.16l-.01-.01c-.436-.392-.442-.398-.786.053a.403.403 0 0 0-.04.334c.048.123.157.23.259.325zM17.984 11.887a.819.819 0 0 0 .002-.05l.075-.05.074-.051c.088.164.069.302-.1.402a9.1 9.1 0 0 1-.003-.073l-.003-.08-.032-.07-.013-.028zM11.56 13.07c.17-.068.371-.15.492.107h.007l.445-.005.297-.134.189-.37.016-.033.001-.352-.091-.006-.105.36v.05l.002.05a.394.394 0 0 0-.03.036c-.02.029-.041.057-.065.06-.2.018-.4.03-.601.043l-.165.01-.507-.012-.145.015-.051.024a3.256 3.256 0 0 0-.05.023c.06.165.146.22.333.146l.029-.011zM10.418 14.144c-.01-.017-.018-.035-.027-.052l-.125.136c-.09.099-.18.197-.273.291-.129.13-.262.254-.395.38l-.16.15.004.059v.079l-.001.078-.001.028.466-.35.242-.183.08-.067.01-.01.037-.036.036-.036-.005.003.003-.003a3.423 3.423 0 0 1 .072-.08l.018-.02v-.054l-.002-.054.022-.097.025-.11-.026-.052zM17.732 16.708c.134.155.311.177.49.2.088.01.177.022.26.05a.848.848 0 0 0 .005.05c-.083.01-.166.02-.25.028l-.202.023-.1-.05a13.528 13.528 0 0 1-.102-.049l-.065-.031-.037-.018-.277-.155h-.001l-.275-.155.046.01c.055.01.11.02.165.024.009.001.018-.022.028-.045a.397.397 0 0 1 .014-.032l-.1-.451c-.007-.002-.015-.002-.023-.003a.107.107 0 0 1-.048-.013 14.92 14.92 0 0 1-.234-.154l-.09-.06c.023-.029.049-.057.074-.086.056-.06.111-.122.14-.194.106-.26.197-.527.273-.797.136-.478.262-.959.387-1.439l.036-.137c.01-.044.014-.089.018-.134a.603.603 0 0 1 .027-.16.431.431 0 0 1 .094-.132l.051-.06v.05l.001.05.025.101.024.101-.052.251a.342.342 0 0 1-.029.013c-.023.01-.047.02-.052.034-.14.519-.276 1.039-.41 1.559l-.002.004c-.006.024-.013.053-.003.07.174.273.013.463-.163.646-.148.154-.155.314-.044.488.17-.013.23.095.272.236.024.086.055.169.086.252.015.038.03.076.043.115zM17.84 17.157a5.3 5.3 0 0 1-.107-.043h-.027l-.024-.001-.15-.1-.029.004-.227.03.216.121.087.049.407.163.103-.004.094-.003-.036-.04c-.026-.031-.052-.062-.084-.079a2.504 2.504 0 0 0-.223-.097zM10.697 10.934l.343.303.058.347a13.685 13.685 0 0 0-.202-.002c.034-.2-.078-.303-.227-.422-.184-.146-.351-.31-.519-.476l-.209-.204.756.454zM9.89 10.43zM18.035 11.534l.039-.119c.038-.114.076-.228.11-.344.012-.039.02-.08.027-.122.024-.135.048-.27.223-.32v.15l.001.151c-.162.045-.17.162-.177.279a.558.558 0 0 1-.023.145c-.022.066-.046.13-.07.196l-.03.083h-.1v-.1zM18.083 12.436l-.025.05-.024.052.049-.102zM12.949 11.18l.023.206.074-.073.014-.014a1.066 1.066 0 0 1-.003-.034l-.002-.033a.27.27 0 0 0-.012-.041 2.326 2.326 0 0 1-.087-.01l-.007-.002zM14.562 11.277l-.276.091-.173.058a2.89 2.89 0 0 0 .056-.05c.045-.04.09-.08.139-.114.122-.082.245-.162.37-.24l.141-.092.307-.147-.044.059a.658.658 0 0 1-.109.126c-.1.082-.204.158-.308.234l-.103.075zM12.919 12.083c.14-.078.119-.165.015-.257l-.075.255c.02 0 .04 0 .06.002zM15.415 10.58c-.032-.04-.015-.095.003-.15.027-.084.053-.167-.098-.203-.053-.025-.105-.052-.158-.078a38.555 38.555 0 0 0-.144-.07v-.051h.301c.222.084.3.234.207.458l-.024.049a5.36 5.36 0 0 1-.024.048l-.063-.003zM14.767 10.075l-.002.098.067-.043.085-.055v-.003l-.15.003z" fill="#AD015B"/><path d="m15.386 8.46-.111.056-.01.016c-.01.016-.02.033-.035.043-.084.07-.169.138-.254.206a7.06 7.06 0 0 0-.543.464c-.156.153-.295.324-.434.496-.062.077-.124.155-.188.23l.048.1.025-.004.027-.004a.638.638 0 0 0 .025-.027l.014-.014.318-.313.348-.34.1-.1c.033-.034.068-.067.102-.1l.05-.05a.163.163 0 0 1 .049-.001l.023-.016.067-.046.707-.552.056-.043c.007-.163-.073-.162-.188-.101l-.196.1zM8.689 14.349l-.05.049-.15.126-.149.128a6.255 6.255 0 0 1-.044.115l-.012.032a1.31 1.31 0 0 1 .116-.005c.088-.002.175-.004.242-.041.195-.11.381-.235.567-.36l.225-.15.126-.242.08-.154-.374.174h-.001l-.375.175-.152.103h.001a4.193 4.193 0 0 1-.05.05zM16.728 12.288l.26-.053.236-.048-.079.353v.002l-.076.344c-.332.273-.706.316-1.104.194a93.463 93.463 0 0 1-1.402-.44l.001-.026.001-.027a429.874 429.874 0 0 1 1.307-.002l.03-.02.03-.02.19-.049.206-.053.03-.012.324-.14a.339.339 0 0 0 .046-.003zM15.273 11.238l.801-.163.354-.145.05-.128.048-.124a3.026 3.026 0 0 1-.037-.063c-.09-.153-.179-.307-.415-.241l-.5.355-.2.15-.258.194.082.087.075.078z" fill="#FB63B6"/><path d="M8.586 7.914c.004.104.008.21.152.096l-.095-.061-.057-.037v.002zM10.272 9.387l.186.129a6.193 6.193 0 0 0-1.622-1.443c-.093.201-.14.399.138.602l-.24.037-.048.008 1.054.7.001.003h.001l.06.073.016-.016-.078-.06-.05-.095a2.12 2.12 0 0 1-.109-.229c-.01-.027 0-.063.011-.099.005-.017.01-.034.013-.05l.045.023c.03.015.062.03.09.05.178.121.355.244.532.367zM15.123 15.25c.074.07.149.14.219.216.045.048.084.104.122.16l.057.078c-.1-.04-.198-.082-.298-.123l-.205-.084-.013-.028a2.616 2.616 0 0 0-.033-.067h-.155l-.4-.251a3.523 3.523 0 0 0-.104-.05l-.05-.025a5.11 5.11 0 0 1-.052-.026l-.071-.042-.18-.105-.002-.004-.05-.05-.016-.015-.031-.032-.004-.004.002-.049.002-.049-.049-.099V14.6l-.052-.106-.02-.022-.026-.027a.799.799 0 0 1-.005-.048c-.007-.02-.025-.044-.042-.068-.05-.065-.099-.13.093-.134l.045.116.03.078.063-.034-.041-.073-.05-.085.056-.055.05-.048.02.01.019.01.058.032.042.065c.032.049.063.097.087.149.158.34.454.532.751.725l.025.016c.027.011.052.024.077.036l.026.013.105.1zM6.602 12.353c.07.165.009.26-.184.234.018.403.038.806.058 1.21l.019.052.019.051.004.074.004.074a12.66 12.66 0 0 0 .055.202c.25-.034.3-.229.24-.405-.093-.279.088-.359.26-.434l.008-.004c.092-.04.192-.06.294-.079.06-.011.121-.023.18-.04.052-.014.102-.038.152-.062l.07-.032-.01-.01a.071.071 0 0 0-.025-.021c-.131-.047-.262-.091-.394-.136l.077-.17.051-.115-.352-.15H7.077c-.144.01-.21-.057-.201-.202a19.508 19.508 0 0 0-.05-.201c-.068-.1-.106-.197.05-.251l.003.001.097-.205.102-.148c.022-.043.042-.088.062-.132.047-.104.094-.208.162-.295a.497.497 0 0 1 .291-.166c.42-.066.812.045 1.182.24.02.01.032.037.044.063.006.013.012.025.02.036a.65.65 0 0 1 .023 0l.024.001.162.04c.113.028.227.057.34.087l.538.151.269.076h.175l.175-.001-.027-.055-.023-.047-.1-.051c-.1-.02-.202-.036-.305-.05-.228-.035-.455-.069-.658-.159-.549-.245-1.079-.543-1.45-1.046l-.2-.236.075-.058.074-.059.102-.3v-.1l-.001-.002c-.04.043-.09.085-.14.127-.11.095-.223.19-.235.296-.017.147.04.302.102.468.027.074.055.151.078.23l-.14.001c-.112.002-.23.003-.347-.003a1.553 1.553 0 0 1-.08-.007c-.134-.014-.282-.03-.312.119-.024.126-.089.239-.153.352-.107.187-.213.373-.138.612.008.025-.014.066-.032.092-.122.175-.117.35-.033.543zM8.032 9.52c.04-.196.186-.257.332-.318.06-.025.121-.05.174-.085.046-.03.09-.064.132-.098a3.46 3.46 0 0 1 .065-.051l.705.552a3.702 3.702 0 0 1-.105-.033c-.083-.026-.166-.053-.25-.065-.08-.012-.16-.009-.24-.006a2.918 2.918 0 0 1-.11.003l-.25.001-.101.025-.1.025-.114.023-.138.027zM6.252 15.952l.077.45a1.317 1.317 0 0 1-.056.056h.001l-.552.1-.052-.102a92.757 92.757 0 0 1-.05-.5l.151.252c.134.013.166-.05.101-.202v-.1l.05-.076c.033-.049.066-.098.101-.146.034-.045.071-.088.109-.132l.044-.05.076.45zM12.778 11.285l-.014-.146-.178.02-.18.02c-.02.023-.038.05-.056.077-.04.059-.079.117-.131.135-.179.058-.362.1-.546.141l-.217.05-.052.652c.024.002.053 0 .08-.002.059-.004.116-.008.136.018.115.148.23.083.324.007.172-.142.339-.291.518-.452l.244-.218V12.637a4.714 4.714 0 0 0 .107.102v-.098c.014-.187.03-.372.047-.559l.075-.255-.023.004h-.003l-.046.002-.018-.078c-.014-.059-.028-.117-.036-.177a7.99 7.99 0 0 1-.03-.293zM11.45 12.737l-.002.068-.003.07a6.48 6.48 0 0 1-.145.014v-.557h.099l.051.405zM5.45 9.2c-.012-.06-.024-.122-.034-.183l-.045.177a3.126 3.126 0 0 0-.089.414c-.025.212-.037.424-.049.637-.005.095-.01.19-.017.284.145-.013.149.078.154.184v.01c.007.146.02.293.033.44l.015.17.03-.247c.024-.189.047-.378.057-.568.016-.303.018-.608.004-.912-.006-.136-.032-.27-.059-.406zM5.146 10.91a.226.226 0 0 1 .062.084c.003.011-.025.033-.054.055a.61.61 0 0 0-.038.03l.001-.2.03.03z" fill="#FA1A91"/><path d="m8.1 13.1-.017-.008a13.555 13.555 0 0 0-.201.098v.051l.152.004h.003l.078-.026.068-.023a.949.949 0 0 1 0-.055A8.25 8.25 0 0 0 8.1 13.1zM5.918 13.442l.002.05.002.05c-.067.216-.065.421.091.604l.02.133c.037.251.074.503.107.753.005.039 0 .078-.006.118l-.006.05c-.156.01-.243-.064-.29-.212l-.055-.17c-.186-.583-.372-1.165-.367-1.788.001-.1-.013-.2-.028-.299-.007-.048-.014-.096-.019-.144.026.06.056.12.087.18.069.135.137.27.151.41.023.23.112.287.311.265zM5.418 12.233v-.653l-.001.018c-.023.204-.045.406-.064.61 0 .004.017.01.036.015l.03.01zM8.283 12.662v-.026h.149l.135-.032-.003-.04-.059-.013-.066-.015-.046-.024a2.092 2.092 0 0 1-.043-.023.16.16 0 0 0-.014-.043c.048 0 .095-.002.142-.003l.157-.004.2.021.03.083.032.086a9.935 9.935 0 0 0 .09-.089h.1l.1-.001v.099l-.142.05-.16.055-.45.093-.152-.148v-.026zM7.831 12.64h-.15v.1l.119-.024.132-.026-.1-.05zM8.084 13.043h.098l-.098.045a.34.34 0 0 1 0-.045zM16.477 10.803a18.11 18.11 0 0 1-.05.13c.028-.005.061-.007.094-.008.069-.002.137-.005.16-.038.119-.165.229-.346.293-.537.111-.327-.149-.659-.5-.675-.414-.019-.572.24-.4.653l.08-.036c.057-.025.113-.05.165-.082.26-.156.362-.15.454.07.095.229-.067.327-.247.4l-.049.123z" fill="#FA1A91"/><path d="M17.387 6.911c.345-.185.681-.27.985.076l-.256.075-.258.077.018.063.409-.042-.237.105-.215.097-.204.072-.202.072a3.468 3.468 0 0 0-.071.011c-.064.011-.127.022-.19.023-.019 0-.037-.023-.056-.046a.338.338 0 0 0-.027-.032 4.11 4.11 0 0 1 .096-.044l.015-.006.15-.064a.328.328 0 0 0-.004-.016l-.003-.017h-.158c.067-.04.133-.082.199-.123l.161-.1c-.048-.06-.1-.12-.152-.181zM13.964 14.948l.001.045-.756-.84.04-.152v-.003l.046-.176.06-.009.162-.023.246.405c-.192.004-.143.07-.093.135a.267.267 0 0 1 .042.068l-.024.025a.88.88 0 0 0-.025.025l.101.18.096.17.004.004.015.015.032.032.004.004.046.046.002.004v.027l.001.018zM18.68 8.83l-.008-.26-.015-.056a5.886 5.886 0 0 1-.025-.099l-.034-.126a1.818 1.818 0 0 1-.01-.074 8.71 8.71 0 0 0-.021-.08l-.023-.085-.018-.087-.004-.005a.125.125 0 0 1-.018-.026c-.001-.003.003-.007.007-.011a.098.098 0 0 0 .005-.006l-.02-.1v-.001a10.462 10.462 0 0 0-.021-.102l-.007-.01-.014-.022c-.001-.002.003-.006.007-.01a.1.1 0 0 0 .005-.005 7.96 7.96 0 0 0-.03-.15l-.027-.028a2.834 2.834 0 0 0-.024-.026h-.049l.276 1.305c.024.119.05.236.076.354l-.008-.29zM11.31 10.932l-.009.05a5.042 5.042 0 0 0-.07-.018l-.07-.02-.109-.289-.105-.28-.093-.332.445.736.005.074.006.08zM18.386 6.994l-.05.168.011.044.04.156a2.733 2.733 0 0 0 .09-.052c.119-.147.104-.257-.09-.316zM10.841 10.014l-.097-.135.052.072.052.073-.007-.01zM10.546 11.481a4.931 4.931 0 0 0-.102-.043l-.003.005-.044.089.1.051.05-.05-.001-.052zM12.764 11.138c-.03-.16.07-.16.171-.16l.024-.001.102.153-.017.061h-.007a2.849 2.849 0 0 0-.087-.01l-.034.026c-.026.018-.053.036-.053.055-.005.15-.003.3 0 .449v.123a3.738 3.738 0 0 0-.017-.08 2.016 2.016 0 0 1-.036-.175 8.236 8.236 0 0 1-.037-.35l-.009-.09zM13.277 11.03l-.017.005-.145.097a6.874 6.874 0 0 1-.057.095l-.004.006.003.033.002.034.167-.082.184-.09.023-.07.027-.081-.183.053zM15.008 9.058l.058-.046.705-.55.306-.194v.054l-.002.055a2.931 2.931 0 0 0-.002.094l-.325.197h-.001l-.327.198-.2.103-.199.102a.08.08 0 0 1-.013-.013zM16.312 8.153l.215-.141-.103-.002-.056.071-.056.072zM6.658 7.79l.001.001c.254.098.507.195.762.291.056.02.114.038.171.055l.086.027v-.001l.1.051.231.175.001.001.231.176c-.034-.01-.069-.02-.103-.028-.074-.02-.149-.04-.22-.067a7.636 7.636 0 0 1-.346-.147 18.75 18.75 0 0 0-.141-.063 13.294 13.294 0 0 1-.154-.1l-.026-.02c-.127-.092-.254-.184-.424-.075l-.06-.003c-.036-.09-.072-.182-.11-.272zM9.102 15.1a1.83 1.83 0 0 0-.113.052l-.006.045-.023.022-.025.025-.2.205.352-.201.352-.202.154-.146c.134-.127.27-.254.4-.384.09-.09.175-.183.26-.277l.138-.15c.017-.029.032-.059.047-.088l.002-.005a1.463 1.463 0 0 1-.086.04c-.067.029-.134.057-.183.104a18.05 18.05 0 0 0-.386.384c-.149.15-.297.301-.452.446a.784.784 0 0 1-.23.13zM7.176 16.254c.07.152-.015.176-.1.201a.244.244 0 0 0-.102.046H6.95l-.023.002-.074.028-.075.028-.036-.07-.017-.034.051-.1h.047l.352-.101zM6.726 16.455z" fill="#E21280"/><path d="m13.762 14.198.024.001.024.001.091.158a1.79 1.79 0 0 0-.063.034l-.076-.194zM10.846 11.687l.001.094.2.001c.01-.034.018-.067.026-.1l.025-.101-.201-.002a.888.888 0 0 0-.052.013l.001.095zM15.018 9.12l-.099.001.001.05-.026-.026-.024-.025a.161.161 0 0 1 .049-.002v.001a3.151 3.151 0 0 1 .089-.06l.011.013-.001.048zM14.008 10.418l-.022.054a4.155 4.155 0 0 1-.022.055l-.457.395c.102-.232.227-.442.501-.504zM8.636 15.502l-.605.26v.088l.605-.348zM8.686 15.473l.05-.024a3.384 3.384 0 0 1-.102.05l.052-.026zM15.115 11.074l.459-.344-.095-.15-.063-.002-.279.199-.01.008c-.017.02-.032.04-.047.06-.033.045-.066.09-.107.124-.093.078-.19.149-.289.22l-.122.09.226-.076.227-.076a3.023 3.023 0 0 1 .1-.053z" fill="#E21280"/><path d="m17.38 7.912.1.002c.029.032.062.062.095.091.07.064.14.127.17.205.147.377.206.77.079 1.17l-.006.02c-.013.035-.027.079-.014.097.208.28.16.575.114.869-.025.154-.05.309-.037.462v.1c-.057.143-.021.285.015.428.04.154.078.308 0 .464-.002.004.023.02.05.038l.037.026a.819.819 0 0 0 .002-.05l.048-.198.001-.004v-.1l.024-.41c.027-.445.053-.89.07-1.335.002-.054-.023-.109-.048-.164a.472.472 0 0 1-.049-.145 6.931 6.931 0 0 1-.024-.71c0-.011.055-.022.108-.034l.067-.015c-.022-.098-.043-.197-.063-.296a11.65 11.65 0 0 0-.16-.693c-.06-.223 0-.338.227-.366l.15.097h.049l.003-.1-.051-.2c-.017-.002-.035-.002-.052-.002l-.452.202c.05.265-.108.353-.329.407a.449.449 0 0 0-.157.091 1.12 1.12 0 0 1-.07.051l.102.002zM18.484 16.911c-.014-.028-.031-.055-.048-.083a.453.453 0 0 1-.08-.184c-.01-.1.004-.202.017-.304l.015-.128c-.004-.028-.012-.056-.02-.084-.016-.06-.033-.12-.018-.172a4.57 4.57 0 0 0 .191-1.536 11.3 11.3 0 0 1-.008-.74c.001-.17.003-.342 0-.513a.38.38 0 0 0-.055-.156c-.012-.024-.025-.047-.034-.07a135.207 135.207 0 0 1-.056.553l-.025.083-.022.075-.025.31c-.01.111-.019.224-.027.336.195.31.183.39-.098.66l-.003.144-.003.1-.003.2c-.005.06-.01.122-.013.182-.01.15-.02.3-.044.45-.007.044-.046.084-.086.123-.019.018-.037.036-.052.055v.146l.067.337-.147.007-.175.009c.133.153.31.175.487.198.09.012.18.023.264.052l.001-.05zM17.782 13.04l-.09.254c-.065.187-.13.374-.19.562-.026.082-.046.167-.065.251a2.756 2.756 0 0 1-.078.29c-.12.341-.243.68-.387 1.011a.51.51 0 0 1-.157.17 1.2 1.2 0 0 0-.087.076l-.001-.1c.02-.035.044-.07.067-.103.049-.072.098-.145.126-.224.124-.342.236-.688.343-1.036.035-.112.059-.227.083-.342l.034-.155.201-.327.201-.328zM17.828 12.653l.054-.269c-.21.176-.247.366-.102.505l.048-.236zM18.03 11.983l.002.077.003.076v.025l-.001.025h-.149v-.005c-.005-.103-.01-.207.145-.198zM16.726 15.906l.001.001v-.151c-.155.05-.078.1-.001.15zM14.765 10.172l-.139.068c-.166.081-.332.163-.5.241-.035.016-.072.025-.11.034a1.272 1.272 0 0 0-.052.013 6.827 6.827 0 0 0 .044-.11l.098-.092.108-.102.2-.16.052-.041.15-.1.152.151a1.546 1.546 0 0 0-.002.065l-.001.033zM18.536 10.932l-.098-.002.048.203c.01-.018.018-.035.026-.053l.025-.048-.001-.1zM15.018 10.022v.05h-.1v-.003l.094-.044.006-.003zM15.446 10.023h-.126c.223.084.3.232.207.459l.097-.079.097-.079a19.322 19.322 0 0 1-.099-.252l-.05-.05h-.126z" fill="#C9026B"/><path d="m14.856 8.456.42.06c.103-.051.206-.102.307-.158.114-.06.195-.061.188.101l.306-.195.236-.112.056-.072.056-.072h-.003l-.161-.03.03-.04.134-.18-.322.12-.227.085-.092.08-.088.076-.022-.036a2.368 2.368 0 0 0-.022-.036l.22-.088.554-.3h.046l.153-.05h.002l.05-.05h-.001l.1-.05a13.5 13.5 0 0 1 .101-.05v-.002l.183-.186-.197.04.016-.15c-.017.003-.036.004-.054.004-.042.001-.084.003-.113.022-.62.42-1.236.843-1.853 1.267l-.003.002zM7.296 7.849l.185.064-.003-.098a5.746 5.746 0 0 1-.137.026l-.045.008zM16.072 8.472c.018.222-.125.312-.267.402-.068.042-.135.085-.185.14-.032.036-.081.057-.13.077l-.068.03a.776.776 0 0 1-.004.046l-.031-.013-.033-.013.033-.01a2.07 2.07 0 0 1 .035-.012l-.003-.252.326-.197.001-.001.326-.197zM7.253 7.768a6.262 6.262 0 0 1-.116-.06l-.01.015a.537.537 0 0 1-.023.036l.066.024.067.023a.426.426 0 0 1 .016-.038zM11.35 11.28h.1l.003.15.003.151-.052.652a2.766 2.766 0 0 0-.002.05c0 .017-.002.034-.003.05h-.098l.024-.514.025-.54z" fill="#F54CA9"/><path fill-rule="evenodd" clip-rule="evenodd" d="m6.6 7.77-.005-.003-.525-.254.34-.073.003-.064-.055-.026a26.248 26.248 0 0 1-.19-.088l.061-.025.193-.078.574.247.584.251-.102.156-.015.003-.166.032.184.064v.001l.251.051-.05.199.098.05-.099-.05-.001.005a5.51 5.51 0 0 0-.086-.026c-.058-.018-.115-.035-.171-.056a99.62 99.62 0 0 1-.805-.309L6.6 7.77zm.537-.06-.034.05a6.839 6.839 0 0 0 .133.048.438.438 0 0 1 .009-.019l.008-.02a2.538 2.538 0 0 0-.116-.06z" fill="#F43AA0"/><path d="M7.887 7.728a.95.95 0 0 1 .045.037h.05a.805.805 0 0 0 .05 0l.103-.007.103-.008-.344-.19-.03-.022-.03-.022-.003-.004c-.004.013-.01.028-.018.042-.015.032-.03.065-.02.082.023.036.058.064.094.092zM5.056 11.434l.018-.002c.014-.117.028-.235.04-.352l.001-.1v-.1l.1-.353c.007-.094.013-.189.018-.283.012-.213.024-.426.05-.637.016-.139.052-.275.087-.411.016-.06.032-.12.046-.18l.086-.32.116-.432V7.971l-.024-.129c-.036.148-.075.296-.115.444-.087.327-.174.655-.222.987a26.26 26.26 0 0 0-.16 1.517c-.019.215-.037.43-.058.644h.017zM16.375 16.814h.146l.253.192a52.196 52.196 0 0 0-.399-.192zM16.005 16.604a27.251 27.251 0 0 0 .07.042l-.07-.042zM5.62 7.709l-.031-.15.005.024.026.126zM15.374 16.207l.06.042-.06-.042zM15.434 16.249l.01.007a8.369 8.369 0 0 1-.005-.003l-.005-.004zM15.371 16.203a13.338 13.338 0 0 0-.142-.1l.032.021.11.079zM16.832 17.037l.04.02-.007-.003-.079-.04.046.023zM8.547 7.88l.042.03a1.844 1.844 0 0 0-.032-.022l-.021-.015.011.008zM13.886 10.07l.026-.004c.063.082.115.127.215.028.053-.052.123-.087.194-.122.031-.016.063-.031.092-.048v.099l-.099.1-.1.103a42.256 42.256 0 0 0-.206.195c-.274.061-.399.27-.5.505a.883.883 0 0 0-.003.051c-.015-.001-.03 0-.045.001l-.2.058.299-.51.051-.1a7.85 7.85 0 0 0 .05-.05l.05-.05.1-.152.043-.086.007-.015.026-.004zM13.055 11.232l.06-.101a.992.992 0 0 0-.055-.002l-.018.061c.005.013.01.028.013.042zM8.91 12.79c.01.017.017.033.026.05.068-.023.137-.045.205-.066.198-.063.395-.126.588-.196.034-.012.057-.051.08-.09.01-.018.02-.035.032-.05l-.1.001-.097.01a228.672 228.672 0 0 1-.456.189l-.143.05-.16.054c.01.016.018.033.026.049z" fill="#F43AA0"/><path d="M17.572 8.002c-.032-.029-.064-.058-.092-.088l.01.038c.006.02.01.039.018.058l.044.1c.095.216.187.424.145.695-.024.154.002.314.028.476.021.131.043.262.038.392-.003.089.016.175.034.261.03.138.06.276.002.429-.046.125-.114.343.082.466-.012-.153.012-.307.037-.462.047-.294.094-.588-.113-.869-.014-.019 0-.062.013-.098l.006-.019c.127-.4.068-.793-.079-1.17-.031-.08-.102-.144-.173-.209zM10.52 10.393a29.653 29.653 0 0 0-.025-.169c-.193.148-.094.253.05.352l-.026-.184zM16.872 17.057l.597.212.01-.005a1.63 1.63 0 0 0 .1-.05l-.042-.023-.054-.03-.207-.117.21-.027.046-.006.054-.03.044-.024h.1l.001-.045c-.095-.052-.19-.106-.284-.159l-.27-.15-.699-.352-.238-.118.012-.038.01-.038c.057.015.113.03.17.047h.001l.194.053a.548.548 0 0 1-.006-.055c-.002-.04-.005-.08-.024-.109-.134-.197-.098-.332.13-.44-.045-.24.04-.454.125-.667l.045-.115c.123-.33.25-.659.383-.986.01-.026.037-.044.063-.063a.396.396 0 0 0 .037-.028l.195-.317c.069-.112.137-.225.207-.337v-.148c-.147-.14-.108-.329.101-.505v-.1l.001-.1v-.005c-.005-.104-.01-.208.145-.198l-.046-.098-.038-.026c-.026-.017-.05-.034-.049-.037.078-.157.04-.31 0-.465-.036-.142-.072-.285-.015-.428-.245.094-.386.425-.234.728.126.251.088.486.019.7-.06.186-.152.361-.244.536a4.969 4.969 0 0 0-.182.372c-.05.118-.085.244-.12.369-.029.106-.058.211-.096.313a.873.873 0 0 1-.214.325.9.9 0 0 0-.293.551c-.038.218-.104.43-.17.649-.03.097-.061.196-.09.296l-.014-.005a71.036 71.036 0 0 0-.28-.105 1.71 1.71 0 0 1-.024.023l-.012.011-.01.01a19.263 19.263 0 0 0 .152.256l-.03.04-.014.02-.505-.312-.176-.073-.327-.135.314.225c.293.211.587.422.882.63.074.051.153.096.231.14l.105.061-.018.04-.008.017a74.586 74.586 0 0 0-.407-.191l-.023.034c.096.08.192.16.287.242l.14.119.254.192.012.006a2.588 2.588 0 0 1 .086.043zM18.444 12.936a17.544 17.544 0 0 0-.003-.124l-.004-.125h.052c.21.186.283.55.207.8-.062.203-.073.424.09.605l-.058.336c-.056.324-.112.648-.164.972-.015.09-.025.18-.036.271a5.41 5.41 0 0 1-.043.315c-.01.052-.035.102-.062.151-.012.023-.024.046-.034.07a.831.831 0 0 0-.02-.085c-.017-.06-.034-.12-.019-.172.146-.503.221-1.01.192-1.536-.014-.245-.011-.491-.009-.738.002-.171.003-.343 0-.514-.001-.053-.028-.105-.055-.157a.929.929 0 0 1-.034-.07zM15.516 13.765a82.89 82.89 0 0 0-.348-.273l.003.005.103.21-.135.071a10.8 10.8 0 0 0-.237.127c-.186.104-.37.066-.555.028-.078-.016-.156-.033-.234-.038a.682.682 0 0 1 .051.06c.037.046.073.091.111.092.32.013.644.025.96-.013.071-.008.133-.088.195-.167.028-.036.057-.072.086-.102zM13.636 13.667l-.024-.025.35.152c-.05.019-.1.038-.152.056a33.097 33.097 0 0 0-.174-.183zM5.868 16.53l-.147.027-.092.076-.071.058.03.044.034.047.474-.237.177-.088c-.134.025-.27.05-.405.073zM6.272 16.46l.028-.03c.01-.008.019-.018.028-.027l.047.004.045.004-.104.034-.044.014zM12.033 12.841a1.557 1.557 0 0 1-.081.049l.173-.01c.198-.013.396-.024.593-.042.024-.002.045-.031.066-.06.01-.013.019-.026.029-.036l-.055-.052a4.09 4.09 0 0 1-.052-.05l-.138.028c-.12.024-.241.048-.359.083-.063.019-.12.054-.176.09zM12.811 12.64l.004-.044c.015-.171.03-.342.043-.514.02.002.04.002.06.002l-.002.196-.074.256-.031.105zM7.932 11.433l-.153-.003c.063-.27.171-.336.42-.268.144.04.289.078.434.116l.205.053.048.001c.017.031.021.07.026.108.01.082.021.166.149.185.011.001.015.051.02.1l.006.06-1.053.04a14.937 14.937 0 0 0 .015-.228l.56-.03a3.139 3.139 0 0 0 .001-.099l-.034-.001-.644-.034zM9.731 11.78c-.03 0-.06.002-.09.004v.096l.049.006 1.354.003.003-.105h-.1l-.1-.001-.302-.099h-.175l-.175.001a2.33 2.33 0 0 0-.077.026c-.055.02-.11.04-.166.049-.073.012-.147.016-.221.02zM14.414 10.019l.053.003-.21.168-.043.034.105-.107.095-.098zM7.402 14.42c.171.174.432.146.68-.075a6.005 6.005 0 0 0-.128-.022c-.12-.02-.241-.04-.356-.08-.044-.015-.091-.185-.073-.2.164-.124.16-.29.157-.456v-.095l-.077.049c-.057.035-.115.07-.163.117-.207.2-.224.575-.04.762zM7.681 13.491v-.1a7.442 7.442 0 0 0 .153-.047l-.102.098-.05.049zM10.756 12.188l-.211.046c.194.095.358.056.495-.108l-.284.062zM10.278 12.323l.119-.077-.119.077zM15.018 10.026l.301.001h.126l.126-.001-.4-.435a38.73 38.73 0 0 1-.255.081l-.15.127-.15.127.151.151.15-.003.101-.048zM15.67 10.197l-.049-.124.05.05.102.102-.026.05a8.266 8.266 0 0 1-.027.05 12.992 12.992 0 0 1-.05-.128zM9.741 12.44c.033-.002.067-.002.1-.002a4.516 4.516 0 0 0 .053-.097l-.151.04-.001.029-.001.03z" fill="#DC0477"/><path d="m9.886 13.611-.299.076a3.248 3.248 0 0 1-.094.008c-.154.093-.308.185-.466.27a.35.35 0 0 1-.058-.076 2.026 2.026 0 0 0-.031-.045h-.05l-.05.001c-.03.038-.057.08-.084.124-.094.15-.188.302-.425.223a.995.995 0 0 1-.364-.222c-.024-.023.05-.198.118-.259.156-.139.327-.274.513-.367.194-.096.396-.174.598-.251l.25-.097a589.009 589.009 0 0 0 1.301-.461l.297-.092a.867.867 0 0 1-.08-.037c-.058-.03-.116-.06-.17-.052a2.74 2.74 0 0 0-.386.089l-.16.044-.44.149c-.403.136-.806.272-1.208.412-.074.026-.144.06-.214.096l-.097.047-.054.002-.048.002a9.838 9.838 0 0 0-.073.025l-.073.024-.156.097h-.005a.666.666 0 0 1-.043.005l-.153.147.001.095c.004.166.007.332-.157.457-.02.014.028.183.074.2.11.038.228.058.345.077.046.008.093.015.138.024l.656-.045.13-.089.022-.014.392-.183.357-.167.208-.094.245-.11.052-.098-.259.065zM11.07 12.72l-.022-.081.043.156-.02-.075z" fill="#C5046A"/><path d="m9.136 13.685-.2.157c.066-.053.133-.106.2-.157zM8.288 15.416l-.111.023-.09.018-.025.05c-.01.016-.018.033-.027.05l.253-.141zM6.94 16.154l-.012.054-.051-.052c.02 0 .039 0 .058-.002h.005zM7.831 15.818v-.003a4.355 4.355 0 0 1-.002-.112l-.233.126-.234.126.2-.024.218-.026.051-.087zM7.296 16.004c-.062.12-.139.203-.282.1l.282-.1zM8.017 15.572a1.73 1.73 0 0 1-.033.031l.033-.03z" fill="#C5046A"/><path d="M6.373 6.97 6.432 7l-.059-.029zM6.434 6.998l-.012.161.014.006 1.142.49.353.107c-.013-.012-.028-.023-.042-.034a.373.373 0 0 1-.096-.095c-.01-.017.005-.05.02-.082.006-.014.013-.029.017-.042l-1.347-.493-.049-.018zM12.957 10.976l-.001-.05h-.789l-.79-.002-.068.006-.009.05c-.01.14.078.16.166.179.03.006.058.012.084.023l.854-.003.35-.04.008-.001c-.03-.158.07-.16.17-.161h.025zM7.864 7.536a2.222 2.222 0 0 0-.03-.022l.06.043a2.32 2.32 0 0 1-.03-.021zM13.86 10.074l-.005.01-.043.09-.101.153a8.887 8.887 0 0 0-.053.053l-.047.048-.027.053-.023.047h-.001l-.093.034-.08.03-.024-.02-.021-.02.472-.577c.014.033.03.066.046.1zM6.548 14.148l-.028-.1a.868.868 0 0 1-.035.067.349.349 0 0 0-.056.153c-.006.278-.005.557-.004.858v.343l-.243-.117-.006.152a332.072 332.072 0 0 1 .154.9l.046.003.046.005.084-.029.072-.024.16-.137.083-.07-.096-.697-.15-1.203v-.003l-.027-.101zM6.271 8.114l.002-.362.327.018.017.007.041.016a31.399 31.399 0 0 0 .11.272l-.093.201a1.453 1.453 0 0 0-.05.025.634.634 0 0 1-.115.05.722.722 0 0 1-.13.02l-.057.005a8.547 8.547 0 0 0-.052-.252zM15.69 14.688c-.254.087-.364.262-.372.518l.06.029.04.02.352-.006.245-.513.015-.033.02-.087.034-.146a4.072 4.072 0 0 0-.135.081c-.091.057-.172.107-.26.137zM14.414 9.921c-.03.017-.061.033-.092.048a.733.733 0 0 0-.194.123c-.101.098-.153.054-.215-.029l.013-.014a.714.714 0 0 1 .025-.027l.666-.653.05-.05.05-.049.203-.098v-.027a.71.71 0 0 1-.001-.025l.1-.001-.002.148-.002.148-.001.048-.048.006-.047.007-.441.389-.064.056zM7.002 8.215l.277-.05-.025-.019C7.127 8.053 7 7.96 6.83 8.07l-.104.195.277-.05zM8.435 12.835l.45-.094a3.705 3.705 0 0 1 .051.097l-.348.095-.406.111h-.098c.003-.01.005-.024.006-.037.004-.029.007-.057.02-.062.084-.036.172-.063.26-.09l.065-.02zM15.062 11.1a3.637 3.637 0 0 0-.048.025l.058.17.1-.03.1-.028-.013-.014-.144-.152-.053.029z" fill="#FB55AF"/><path d="M8.835 8.07c-.095.2-.14.398.137.603l-.24.037-.047.007-.125-.025a21.426 21.426 0 0 1-.126-.025l-.057-.051-.134-.049-.232-.176-.231-.176-.1-.05c.016-.068.034-.135.052-.204L7.48 7.91v-.001l-.003-.099.101-.156c.118.035.235.07.353.107h.054-.003.048l.104-.008.103-.008.072.036.073.037.056.019.058.019a.037.037 0 0 1 .036.016l.042.029.011.008-.003.002v.002c.004.104.008.209.152.096l.1.06v.001zM5.419 11.584v-.251l.029-.241c.023-.191.047-.382.057-.573a8.88 8.88 0 0 0 .004-.913c-.006-.136-.032-.27-.058-.406a6.316 6.316 0 0 1-.034-.183l.117-.436.084-.315a1.14 1.14 0 0 1 .094-.06c.073-.043.145-.086.174-.15.036-.079.035-.175.034-.27 0-.042 0-.083.002-.123a57.994 57.994 0 0 0 .352.09l-.002.363-.067.095-.025.035-.048-.034-.198-.143-.045.304a27.063 27.063 0 0 0-.148 1.153c-.022.207-.045.414-.072.62-.033.242.07.36.302.383-.015.17-.032.341-.05.512-.038.389-.078.778-.088 1.167-.008.284.021.57.05.854.013.128.026.255.036.381-.199.023-.289-.033-.312-.265-.014-.14-.082-.274-.15-.409-.031-.06-.062-.12-.088-.18l.026-.176.025-.176-.001-.653zM5.619 8.163l.1-.306-.01.011-.091.103.001.192zM12.405 11.18c-.02.023-.038.05-.056.077-.039.059-.078.117-.13.135-.179.058-.362.1-.546.14l-.217.051-.003-.151-.002-.151.101-.098.853-.003zM15.52 13.39c.128-.167.24-.094.35-.023.042.028.084.055.127.067.225.064.433.49.38.712v.1l-.002.15a1.443 1.443 0 0 0-.04.049c-.027.036-.055.072-.088.1-.048.042-.1.076-.152.111a3.974 3.974 0 0 0-.064.043 13.807 13.807 0 0 0 .053-.233l-.14.084c-.089.055-.168.104-.254.134-.255.087-.364.262-.372.518l-.141-.025-.158-.028h.001l-.06-.03-.042-.02h.001a.994.994 0 0 0-.017-.068.399.399 0 0 1-.023-.15c.008-.071.056-.196.088-.196.203-.001.326-.122.449-.242a.982.982 0 0 1 .235-.188l.033-.017c.176-.088.338-.17.393-.41l-.302-.187c-.053-.05-.104-.102-.155-.152a30.598 30.598 0 0 0-.1-.098zM15.761 15.264l.009-.019-.35.006.15.05.153.049c.012-.03.025-.057.038-.086zM9.434 14.244l.08-.155.127-.242.207-.094.245-.11c-.053.26-.412.588-.659.601zM8.328 14.684l.012-.032c-.035.016-.073.03-.11.044-.083.03-.166.061-.226.115-.068.062-.12.138-.174.215-.04.06-.082.119-.13.171-.06.067-.171.158-.232.14a.854.854 0 0 0-.744.114l.096.697c.01 0 .02.002.029.003l.028.004.063-.003.074-.05.234-.083.048-.017.066-.05.467-.253.08-.064.028-.022.027-.006.02-.005a.992.992 0 0 0 .033-.031l.017-.016h.002l.027-.052.025-.049c-.186-.097-.218-.255-.075-.406.058-.06.121-.117.185-.172l.086-.077.044-.115zM16.627 11.582l.013-.125.489.176a43.682 43.682 0 0 1 .151.2l.074.077.075.077v.148l-.125.032-.08.02a79.69 79.69 0 0 0-.495.102c.188-.464.187-.476-.102-.707zM5.922 13.543c-.067.216-.065.421.09.604l-.028-.19-.062-.414zM16.074 10.325a2.74 2.74 0 0 1 .08-.036c.057-.025.113-.05.166-.082.258-.156.362-.15.453.07.095.228-.066.327-.247.4a2.796 2.796 0 0 1-.037-.064c-.09-.153-.179-.306-.415-.24a.373.373 0 0 1 0-.048z" fill="#FA2195"/><path d="M10.482 11.188c.1.047.2.094.158.26l.003.083c.059.016.117.034.176.051l.026.008a.883.883 0 0 0 .025-.006l.026-.007c.032-.2-.079-.304-.228-.422a6.591 6.591 0 0 1-.518-.476c-.07-.068-.139-.137-.21-.204a2.29 2.29 0 0 1-.047-.046l-.004-.004a11.88 11.88 0 0 1-.148-.102l-.082-.011a1.281 1.281 0 0 1-.183-.033c-.08-.022-.16-.047-.239-.072-.096-.031-.193-.062-.291-.087-.039-.01-.08-.004-.123.003a.719.719 0 0 1-.059.007c.002.024 0 .052 0 .08-.004.061-.007.124.023.15.07.062.13.135.19.209.124.153.25.306.462.357l-.094-.124-.14-.186-.015-.021c-.083-.111-.168-.225-.02-.362l.139.07c.097.049.192.096.279.155.158.107.306.23.451.354.053.045.102.094.15.144.06.06.12.12.187.173.03.024.069.041.106.059zM11.62 13.208l.184-.021.094-.004.152-.006c-.121-.256-.322-.175-.491-.107l-.03.012c-.187.075-.271.02-.332-.146a12.548 12.548 0 0 1-.107-.145l-.022-.078a4.703 4.703 0 0 1-.022-.078 10.93 10.93 0 0 1-.004-.098l-.004-.098c-.096.03-.191.06-.286.088l-.011.004c.21.128.095.252-.02.347a5.84 5.84 0 0 0-.224.194c-.24.216-.481.433-.82.504-.025.005-.044.035-.063.065-.01.015-.018.03-.028.04l.314-.079.243-.061.198-.153.45-.45c.017.011.034.024.05.037l.005.003-.094.258a9.14 9.14 0 0 0-.043.156c-.032.12-.065.241-.108.357a.668.668 0 0 1-.107.17l-.056.075a4.463 4.463 0 0 0-.049.094l.028.054.025.05.103-.1.102-.1-.001.002a4.77 4.77 0 0 0 .068-.067l.033-.034c.015-.037.03-.074.047-.11a1.8 1.8 0 0 0 .1-.27c.043-.17.104-.298.31-.268l.067-.06.168.011h.002l.18.012zM18.444 12.94l-.028.277-.027.277a7.124 7.124 0 0 0-.024.079l-.024.078a167.505 167.505 0 0 1-.052.646l-.047.315-.051.346-.003.144-.003.1-.003.2c-.01.01-.023.02-.036.03-.026.02-.052.04-.056.063-.03.182-.056.365-.08.548l-.024.167v.146l-.086.074-.128.11c-.012-.07-.019-.135-.025-.197-.014-.127-.025-.238-.072-.331-.109-.22-.107-.404.018-.611.04-.064.038-.157.036-.241v-.033c0-.042-.009-.085-.017-.127a.398.398 0 0 1-.007-.184c.03-.098.06-.195.092-.292.13-.4.26-.8.236-1.233l.051-.251a13.945 13.945 0 0 0-.024-.098l-.025-.104v-.05l-.001-.05.044-.03c.111-.078.222-.156.36-.02l.006.252zM13.585 10.954l-.08.023c-.015 0-.03 0-.046.002l-.024.072-.026.08.04.136c.04-.02.077-.04.113-.057.07-.035.133-.066.19-.106.101-.072.198-.15.295-.229l.117-.095-.101.033c-.05.017-.101.033-.152.048-.108.032-.218.063-.326.093zM9.303 13.085c-.082.052-.163.104-.242.158l-.134.09c-.16.106-.32.213-.468.334-.03.026-.029.091-.027.156.001.03.002.06 0 .085l.066-.015c.05-.012.099-.024.149-.032.043-.007.086-.01.13-.012l.059-.004a1.24 1.24 0 0 0-.085.125c-.094.15-.188.3-.424.221a1.007 1.007 0 0 1-.364-.221c-.024-.024.05-.199.118-.26a2.5 2.5 0 0 1 .513-.366c.192-.096.392-.172.593-.249l.255-.099-.14.09zM9.185 13.668a.63.63 0 0 1-.05.017l-.2.157.03.044c.027.039.054.08.059.077.135-.073.268-.152.4-.23l.066-.04-.06-.018a.602.602 0 0 0-.142-.033.255.255 0 0 0-.103.026zM10.243 12.33l-.12-.006-.133-.006c.03-.173-.033-.284-.209-.334-.024-.006-.043-.033-.062-.06-.01-.013-.018-.026-.028-.037l1.354.003-.003.24a91.392 91.392 0 0 1-.496.108l-.073.006a6.34 6.34 0 0 0-.075.005l-.119.077a.107.107 0 0 0-.036.003zM14.54 10.57c-.04.037-.082.073-.124.108.04.014.085.02.13.026.128.018.255.035.273.228l.307-.147.29-.207c-.033-.04-.015-.095.002-.15.027-.083.054-.167-.097-.203-.34-.044-.56.15-.78.345zM9.087 11.783a.73.73 0 0 0 .046.005v.004c.003.03.004.059.005.089l-.075.018c-.053.013-.105.026-.158.033-.104.014-.208.026-.313.038-.167.02-.335.04-.502.065-.037.005-.072.03-.106.056l-.047.032c.015.017.03.035.043.053.032.041.064.082.104.114.055.043.117.078.178.113l.075.043a.123.123 0 0 1 .014.043l-.07.005a14.515 14.515 0 0 0-.097-.007l-.097-.007c-.03-.015-.06-.03-.09-.047-.066-.035-.131-.07-.2-.093a.294.294 0 0 0-.106-.008c-.04.002-.08.004-.114-.01-.073-.033-.14-.08-.208-.126a3.312 3.312 0 0 0-.079-.053l.191-.264.197-.005.204-.043.152-.008 1.016-.039.037-.001zM8.842 12.457l.095-.016a.507.507 0 0 0 0-.055.227.227 0 0 1-.105-.027c-.075-.031-.15-.063-.197.078l.2.021h.007z" fill="#94014E"/><path d="M17.075 11.476c-.074-.04-.148-.078-.224-.115-.184-.09-.17-.202-.068-.37.146-.237.251-.5.356-.761l.033-.082c.021-.052-.022-.15-.065-.205-.116-.146-.148-.31-.182-.478-.01-.055-.022-.11-.036-.166a2.904 2.904 0 0 0-.155-.417 3.033 3.033 0 0 1-.167-.456c-.007-.027-.08-.039-.153-.05-.035-.005-.07-.01-.098-.018l.186-.125.174-.118c.017 0 .033-.002.05-.003l.049-.004.102.055.083.202v.001c-.125.148-.186.222-.177.285.01.061.087.113.241.215l.009.006c.16.107.208.245.153.449-.057.21-.116.43.085.634.118.12.144.277.005.464-.214.29-.228.642-.13.992.012.037.021.074.03.11l.003.009-.104-.054zM8.845 9.419c.08-.003.161-.006.24.005.083.013.164.039.245.064.037.012.074.024.11.034l.107.091c.133.113.267.227.396.346.015.013.01.048.006.082l-.003.046c-.014-.002-.029-.002-.043-.002-.033-.001-.065-.002-.087-.017-.091-.06-.18-.122-.27-.184a8.652 8.652 0 0 0-.389-.26c-.09-.056-.188-.099-.286-.142l-.135-.06.109-.003zM7.982 10.276l-.2-.236.074-.058.074-.059c.013.08.024.16.035.24l.017.113zM8.158 9.497l-.125.025v.1l.25-.15-.125.025zM8.284 9.47l.1-.025a12.112 12.112 0 0 0-.1.025zM10.96 12.405c.027.013.054.027.08.037l.009.194.022.078.021.078.051.069c.02.025.038.05.057.076l.052-.025.049-.022v-.558l.026-.556v-.003l.023-.494c-.01.019-.021.037-.033.056-.028.045-.057.09-.064.138-.013.082-.02.165-.028.248a3.015 3.015 0 0 1-.035.295c-.005.03-.049.053-.092.077-.02.01-.04.021-.056.033h-.001c-.137.164-.301.203-.495.109l-.07.005a4.993 4.993 0 0 0-.078.006l-.119.076a.113.113 0 0 0-.036.004v.16l.161-.044a2.74 2.74 0 0 1 .386-.09c.053-.007.112.023.17.053zM5.117 12.535c.016.025.035.05.055.074.041.054.082.107.09.165l.02.128c.051.353.104.708.113 1.063.006.273.103.515.2.757.068.17.137.341.173.522.03.149.05.3.072.45l.031.21v.1a18.03 18.03 0 0 1-.1.202l-.152-.25a55.357 55.357 0 0 0-.11-.543c-.086-.42-.173-.84-.236-1.264a16.625 16.625 0 0 1-.112-1.103c-.014-.17-.028-.34-.044-.511zM16.031 14.7c-.088.181-.174.363-.261.546l-.048.106a.844.844 0 0 1 .094-.015c.07-.008.14-.017.159-.052.113-.22.21-.447.307-.674l.093-.215-.04.05a.649.649 0 0 1-.088.1c-.047.041-.1.076-.151.11a3.616 3.616 0 0 0-.065.044zM17.1 12.888l-.03-.002.078-.353v-.001l.077-.345.114-.029.09-.023.002.001v.151l-.204.409-.097.194-.03-.002zM16.076 13.829l-.302-.187c-.004.032-.005.067-.006.102-.003.08-.005.158-.045.204-.064.074-.148.128-.232.184a1.862 1.862 0 0 0-.151.106c-.15.119-.296.213-.496.116a.213.213 0 0 0-.148-.004c-.159.053-.27.023-.384-.113-.04-.047-.118-.06-.196-.072-.035-.005-.071-.011-.103-.02l.045.07c.03.047.06.094.084.144.158.339.454.531.751.724l.025.017a.943.943 0 0 0-.017-.067c-.014-.051-.029-.102-.023-.15.008-.07.056-.197.088-.197.203 0 .327-.122.45-.242a.993.993 0 0 1 .234-.188l.032-.016c.177-.09.34-.171.394-.411zM7.209 12.594a5.498 5.498 0 0 1 .42.039l.052.007v.05l-.001.05h-.2l-.22-.094a27.627 27.627 0 0 1-.132-.057l.08.005z" fill="#F31189"/><path d="m10.697 11.734.15.049-.001-.095-.001-.095a11.88 11.88 0 0 1-.158-.046l-.044-.013-.097-.001a1.979 1.979 0 0 1-.05.05l.05.101.15.05zM6.879 12.183l-.055.001c-.067-.1-.106-.195.052-.25l.002.165v.084zM6.976 12.486l-.1-.1c-.01.143.057.21.201.2a17.093 17.093 0 0 1-.1-.1zM11.402 12.286l-.003.05.05.404.222-.016c.156-.01.311-.021.466-.042.3-.042.451-.236.473-.554.003-.045.032-.089.06-.132.012-.02.025-.04.035-.06v-.347l-.245.22c-.178.16-.344.308-.517.45-.092.075-.207.14-.323-.008-.02-.026-.08-.022-.139-.018-.027.002-.054.004-.077.003a2.824 2.824 0 0 0-.002.05zM17.429 11.987l-.075-.077a8.983 8.983 0 0 1 .075.077zM8.189 12.487l-.102-.007-.102.012-.154.147.101.05h.176l.175-.001v-.053l-.001-.14a9.175 9.175 0 0 0-.093-.008zM14.566 12.585l-.303-.195.29.024c.315.025.631.051.947.067.05.003.102-.024.154-.051a.82.82 0 0 1 .074-.035l.048-.004a2.79 2.79 0 0 1 .048-.004l.603-.202c.024-.017.055-.034.086-.05.07-.039.14-.077.142-.117.003-.087-.08-.193-.154-.263a.528.528 0 0 0-.136-.083c-.059-.028-.116-.056-.152-.103-.238-.312-.527-.241-.814-.17-.04.01-.08.02-.12.028-.074.016-.143.057-.212.098-.033.02-.065.04-.099.056a3.153 3.153 0 0 1-.053-.003l-.053-.004.21-.28.2-.057.802-.163c.088.05.137.143.186.236.075.142.15.284.368.272.29.232.29.243.1.706-.014.002-.03.003-.045.002-.117.05-.235.1-.353.152l-.196.05-.2.052-.042.028-.018.013h-1.308zM13.658 12.44l.006-.099-.082.032c.023.022.047.042.07.062l.006.006zM13.911 11.73c.15-.15.684-.25.81-.152l-.154.029-.656.123zM9.643 12.445a1.23 1.23 0 0 0-.004-.058l-.45.05v.05l-.001.049v.099l.455-.19zM8.987 12.538a6.32 6.32 0 0 0-.09.089 7.912 7.912 0 0 0-.031-.084l-.031-.084a3.896 3.896 0 0 1 .102-.018l.05.047a.854.854 0 0 0 0 .05zM8.437 12.586a3.371 3.371 0 0 0-.004.05l.135-.033-.003-.04a6.55 6.55 0 0 1-.066-.015l-.059-.013c0 .017-.002.034-.003.05z" fill="#F31189"/><path d="m17.877 7.2.409-.043.051.001.05-.167-.014-.007-.495.147-.02.005.019.064zM16.075 8.322l-.001.054c.081-.005.16-.01.24-.017h.003l.178-.12.182-.123.046-.186.004-.016-.102.05-.099.049c-.035.023-.07.047-.107.07l-.107.07-.226.109-.01.005-.001.055zM9.134 14.888l.152-.144.118-.117.132-.131.21-.225c.236-.253.473-.507.708-.763a.196.196 0 0 0 .034-.076l.011-.036h-.003.054l.101-.078.102-.078-.043.157c-.032.12-.065.24-.108.356-.023.063-.066.118-.109.173-.018.024-.037.048-.053.072l-.09.042a.606.606 0 0 0-.18.102c-.13.126-.258.255-.386.384-.149.15-.297.302-.452.446a.784.784 0 0 1-.23.13c-.039.017-.077.033-.114.052a4.974 4.974 0 0 0-.005-.122l.151-.144zM7.078 11.583l-.103.148-.019.039c-.026.055-.052.11-.076.165l-.002-.001.003.25c.25.22.509.39.87.26.044-.016.101.004.159.024.026.008.051.017.076.023l.102-.011a3.089 3.089 0 0 1-.084-.044 1.316 1.316 0 0 0-.206-.096.299.299 0 0 0-.107-.008c-.04.001-.08.003-.113-.011a1.19 1.19 0 0 1-.202-.121c-.028-.02-.056-.04-.085-.058l.192-.264c-.017-.158.03-.24.211-.257.058-.005.11-.06.163-.117.025-.026.05-.052.075-.073l-.153-.003-.35.077h-.001l-.35.078zM8.959 15.223l.024-.023-.048.046.024-.023zM9.139 11.877v.005h.168l.336-.003v-.048l-.002-.048-.507.006.005.088zM7.882 11.835l-.204.042.204-.042zM9.037 12.458l.051-.03a6.442 6.442 0 0 0-.15-.044l-.001.056.05.046.05-.028z" fill="#C00266"/><path d="M17.881 10.93c-.245.093-.387.424-.234.728.126.25.089.486.018.7-.06.183-.15.355-.24.527-.065.125-.13.25-.185.38-.049.117-.083.24-.117.362-.03.108-.06.216-.1.32a.867.867 0 0 1-.213.325.905.905 0 0 0-.294.551c-.038.223-.105.44-.173.662-.03.093-.058.188-.086.284a75.837 75.837 0 0 0-.295-.111 1.567 1.567 0 0 1-.023.022l-.022.022.076.128.076.128-.014.019-.03.04-.505-.31-.057-.08c-.039-.055-.077-.11-.123-.16-.074-.079-.152-.153-.231-.227l-.092-.088.15.027.149.026.033.017.023.011.046.023.152.05.151.049c.027-.007.06-.01.092-.014.071-.008.143-.017.161-.053.108-.21.2-.426.294-.643l.106-.246.003-.15.098-.1c.223-.087.262-.272.301-.457.023-.106.045-.211.101-.299l.101-.1.033-.033.068-.067a3.035 3.035 0 0 0 .05-.1c.013-.003.028-.004.043-.005.032-.003.063-.005.071-.02.1-.195.199-.391.276-.595.012-.03-.018-.075-.049-.121-.014-.022-.028-.043-.038-.063v-.152c.228-.168.081-.377-.015-.49-.221-.262-.144-.555-.055-.778.028-.07.058-.138.088-.205.136-.304.265-.593.103-.967-.048-.114-.027-.256-.005-.4.014-.086.027-.171.026-.253a2.33 2.33 0 0 0-.066-.562c-.036-.135-.094-.264-.152-.394a6.162 6.162 0 0 1-.075-.171l-.003-.005a13.294 13.294 0 0 0 .203.004l.007.025c.006.023.012.047.022.07l.045.103c.094.215.185.422.144.692-.024.154.002.315.028.477.021.13.043.262.038.39-.003.09.015.175.034.262.03.137.06.276.002.429-.046.124-.114.342.082.465l-.001.05-.001.05z" fill="#E6077D"/><path fill-rule="evenodd" clip-rule="evenodd" d="m10.855 10.041-.007-.019-.105-.145-.003-.004-.024-.031-.219-.28-.006-.007-.034-.043-.2-.138c-.172-.12-.345-.24-.518-.358a.818.818 0 0 0-.09-.05 1.79 1.79 0 0 1-.045-.022.493.493 0 0 1-.013.047c-.01.036-.022.073-.01.102.03.08.07.158.111.234l.047.09-1.054-.701-.125-.025a22.456 22.456 0 0 1-.126-.025l.2.2.102.1.704.553.113.097c.131.111.263.223.389.34.015.013.01.048.007.082a.399.399 0 0 0-.004.046.415.415 0 0 0-.042-.002c-.033 0-.065-.001-.088-.017-.095-.061-.188-.126-.28-.19-.125-.087-.25-.174-.378-.254-.092-.057-.19-.1-.29-.144a5.287 5.287 0 0 1-.131-.059l-.251.001-.1.026-.101.025-.25.151-.103.3.052.353c.37.503.9.801 1.449 1.046.203.09.431.124.659.158.102.015.205.03.305.05l.043-.083.005-.009a.327.327 0 0 0-.044-.015 24.867 24.867 0 0 1-.217-.128l-.07-.008a5.01 5.01 0 0 0-.068-.008c-.568-.145-1.113-.34-1.551-.749-.102-.094-.211-.202-.258-.325a.402.402 0 0 1 .039-.334c.344-.45.35-.446.785-.053l.011.01c.07.062.15.112.232.162.052.033.105.065.155.102.067.048.129.102.19.155l.094.08.149.102.051.05.755.454a34.006 34.006 0 0 0-.115-.272l-.035-.084c-.145-.098-.244-.204-.05-.351l-.08-.202c.22-.078.22-.075.278.101l.012.037c.02.06.087.105.154.15.03.02.061.042.088.064l-.094-.333zm-1.11-.618.056.072.016-.016a3.875 3.875 0 0 0-.072-.056z" fill="#E6077D"/><path d="m18.957 10.93.019-.15-.005-.047a2.75 2.75 0 0 0-.006-.052 1.697 1.697 0 0 0-.075-.007v.026l-.002.029v.099a26.414 26.414 0 0 1 .05.253l.02-.151zM17.076 16.36l-.45-.202-.153-.043-.21-.058a2.28 2.28 0 0 1-.012.038l-.005.016-.006.023.238.118.7.351.045.01c.055.01.11.02.166.025.008 0 .018-.023.027-.046l.014-.032-.186-.105a71.105 71.105 0 0 0-.168-.096zM14.369 15.128a3.856 3.856 0 0 1-.049-.024l-.004-.002.053.026zM14.266 15.076l-.054-.027.103.05-.049-.023zM18.605 11.11a.533.533 0 0 1 .125.186c.025.09.018.19.012.287l-.006.085c-.005.143.046.226.201.214-.05.736-.1 1.473-.152 2.21-.162-.181-.151-.402-.09-.605.076-.25.003-.615-.206-.8l-.003-1.558.042-.081.009-.019c.02.028.044.055.068.081zM18.94 11.53l-.001.253a.893.893 0 0 0 .051-.005 92.44 92.44 0 0 0-.024-.25l-.025-.25-.001.253zM12.705 11.933l.001.703-.155.031c-.115.023-.23.046-.342.08a.734.734 0 0 0-.177.09c-.026.017-.053.034-.08.049l-.507-.012.003-.072.002-.067.2-.014c.162-.01.326-.022.488-.044.3-.041.451-.236.473-.553.002-.044.03-.087.057-.13a.772.772 0 0 0 .037-.06zM13.69 14.446h.027a.397.397 0 0 1-.006-.05 1.172 1.172 0 0 0-.05.05h.028zM13.762 14.492l.101.207-.1-.207zM7.749 12.448c-.361.131-.62-.04-.87-.26l-.054.001.05.199v.003l.102.1.1.1h.026l.025.001.082.005a5.823 5.823 0 0 1 .374.034l.097.012h.15l.152-.148a.733.733 0 0 1-.075-.023c-.058-.02-.115-.04-.16-.024zM6.878 11.934l.097-.204-.097.204zM10.545 11.533l.098.001v-.003l-.004-.082a3.33 3.33 0 0 0-.05.017l-.045.015a.934.934 0 0 1 .001.052zM18.435 10.93v-.15l-.001-.151.006-.353c.157.182.13.392.103.602l-.007.053a3.19 3.19 0 0 0-.098-.002l-.003.001zM18.34 9.47l.096.554.026-.096c.05-.168.099-.336-.123-.457zM18.285 9.118l-.025-.08-.022-.071c.015.05.03.1.047.15zM16.827 8.138l.051.028.252-.2-.354.145.051.027zM14.968 11.583c.032-.016.064-.035.095-.054.07-.042.14-.083.216-.1l.119-.028c.287-.07.577-.142.815.17.035.047.093.075.152.103a.544.544 0 0 1 .136.084c.073.069.158.175.154.262-.001.04-.071.078-.14.116-.032.017-.064.034-.089.05.126-.3.054-.34-.353-.443-.15-.037-.305-.041-.462-.046a3.48 3.48 0 0 1-.298-.017 1.101 1.101 0 0 1-.243-.063 2.897 2.897 0 0 0-.102-.034zM8.397 12.512a1.892 1.892 0 0 1-.046-.024l-.024.002a.681.681 0 0 1-.044.004v.07l.002.071.148.001.003-.05a3.51 3.51 0 0 0 .004-.05l-.043-.024zM8.987 12.542a.834.834 0 0 0 0-.05l.101-.058.1.01v.098h-.2zM9.641 12.42l.002.03.097-.01a1.214 1.214 0 0 0 .002-.058l-.103.009.002.03z" fill="#E6077D"/></g><path d="M24 18a6 6 0 1 1-12 0 6 6 0 0 1 12 0z" fill="#321D47"/><path d="M20.278 19.318h-1.267l-.238-.581h-1.61l-.237.581h-1.268l1.517-3.456h1.584l1.52 3.456zm-2.308-2.557-.42 1.03h.838l-.418-1.03z" fill="#fff"/><path d="M17.968 15.13a.88.88 0 1 0 0-1.76.88.88 0 0 0 0 1.76zM17.968 22.536a.88.88 0 1 0 0-1.76.88.88 0 0 0 0 1.76zM14.721 16.89a.88.88 0 1 0 0-1.759.88.88 0 0 0 0 1.759zM21.218 16.89a.88.88 0 1 0 0-1.759.88.88 0 0 0 0 1.759zM14.72 20.805a.88.88 0 1 0 0-1.76.88.88 0 0 0 0 1.76zM21.218 20.805a.88.88 0 1 0 0-1.76.88.88 0 0 0 0 1.76z" fill="#E6007A"/></g><defs><linearGradient id="N" x1="-416.152" y1="166.93" x2="80.69" y2="-268.327" gradientUnits="userSpaceOnUse"><stop stop-color="#FDEBF7"/><stop offset="1" stop-color="#FFA8DF"/></linearGradient><linearGradient id="b" x1="24" y1="0" x2="0" y2="24" gradientUnits="userSpaceOnUse"><stop stop-color="#FA1A91"/><stop offset=".669" stop-color="#F9DCF2"/><stop offset=".99" stop-color="#F7158D"/></linearGradient><linearGradient id="d" x1="12" y1="2.932" x2="12" y2="21.068" gradientUnits="userSpaceOnUse"><stop stop-color="#FDEBF7"/><stop offset="1" stop-color="#FFA8DF"/></linearGradient><linearGradient id="e" x1="18.553" y1="10.244" x2="5.447" y2="13.756" gradientUnits="userSpaceOnUse"><stop stop-color="#FDEBF7"/><stop offset="1" stop-color="#FFA8DF"/></linearGradient><linearGradient id="f" x1="-415.549" y1="-75.703" x2="80.875" y2="-510.26" gradientUnits="userSpaceOnUse"><stop stop-color="#FDEBF7"/><stop offset="1" stop-color="#FFA8DF"/></linearGradient><linearGradient id="g" x1="-351.157" y1="-73.481" x2="112.004" y2="-397.064" gradientUnits="userSpaceOnUse"><stop stop-color="#FDEBF7"/><stop offset="1" stop-color="#FFA8DF"/></linearGradient><linearGradient id="h" x1="-310.811" y1="-71.103" x2="115.234" y2="-319.32" gradientUnits="userSpaceOnUse"><stop stop-color="#FDEBF7"/><stop offset="1" stop-color="#FFA8DF"/></linearGradient><linearGradient id="i" x1="-283.747" y1="-68.486" x2="108.184" y2="-264.388" gradientUnits="userSpaceOnUse"><stop stop-color="#FDEBF7"/><stop offset="1" stop-color="#FFA8DF"/></linearGradient><linearGradient id="j" x1="-264.901" y1="-65.607" x2="97.836" y2="-224.288" gradientUnits="userSpaceOnUse"><stop stop-color="#FDEBF7"/><stop offset="1" stop-color="#FFA8DF"/></linearGradient><linearGradient id="k" x1="-251.141" y1="-62.361" x2="86.998" y2="-193.495" gradientUnits="userSpaceOnUse"><stop stop-color="#FDEBF7"/><stop offset="1" stop-color="#FFA8DF"/></linearGradient><linearGradient id="l" x1="-233.943" y1="-54.622" x2="67.735" y2="-148.845" gradientUnits="userSpaceOnUse"><stop stop-color="#FDEBF7"/><stop offset="1" stop-color="#FFA8DF"/></linearGradient><linearGradient id="m" x1="-228.675" y1="-49.917" x2="59.77" y2="-131.252" gradientUnits="userSpaceOnUse"><stop stop-color="#FDEBF7"/><stop offset="1" stop-color="#FFA8DF"/></linearGradient><linearGradient id="n" x1="-225.061" y1="-44.487" x2="52.949" y2="-115.318" gradientUnits="userSpaceOnUse"><stop stop-color="#FDEBF7"/><stop offset="1" stop-color="#FFA8DF"/></linearGradient><linearGradient id="o" x1="-222.746" y1="-38.089" x2="47.192" y2="-100.164" gradientUnits="userSpaceOnUse"><stop stop-color="#FDEBF7"/><stop offset="1" stop-color="#FFA8DF"/></linearGradient><linearGradient id="p" x1="-221.541" y1="-30.427" x2="42.409" y2="-85.036" gradientUnits="userSpaceOnUse"><stop stop-color="#FDEBF7"/><stop offset="1" stop-color="#FFA8DF"/></linearGradient><linearGradient id="q" x1="-221.339" y1="-21.051" x2="38.568" y2="-69.145" gradientUnits="userSpaceOnUse"><stop stop-color="#FDEBF7"/><stop offset="1" stop-color="#FFA8DF"/></linearGradient><linearGradient id="r" x1="-222.071" y1="-9.28" x2="35.593" y2="-51.542" gradientUnits="userSpaceOnUse"><stop stop-color="#FDEBF7"/><stop offset="1" stop-color="#FFA8DF"/></linearGradient><linearGradient id="s" x1="-223.743" y1="6.01" x2="33.45" y2="-30.908" gradientUnits="userSpaceOnUse"><stop stop-color="#FDEBF7"/><stop offset="1" stop-color="#FFA8DF"/></linearGradient><linearGradient id="t" x1="-226.35" y1="26.745" x2="32.167" y2="-5.12" gradientUnits="userSpaceOnUse"><stop stop-color="#FDEBF7"/><stop offset="1" stop-color="#FFA8DF"/></linearGradient><linearGradient id="u" x1="-229.931" y1="56.591" x2="31.733" y2="29.703" gradientUnits="userSpaceOnUse"><stop stop-color="#FDEBF7"/><stop offset="1" stop-color="#FFA8DF"/></linearGradient><linearGradient id="v" x1="-234.557" y1="103.314" x2="32.161" y2="81.467" gradientUnits="userSpaceOnUse"><stop stop-color="#FDEBF7"/><stop offset="1" stop-color="#FFA8DF"/></linearGradient><linearGradient id="w" x1="-234.506" y1="140.233" x2="32.162" y2="118.381" gradientUnits="userSpaceOnUse"><stop stop-color="#FDEBF7"/><stop offset="1" stop-color="#FFA8DF"/></linearGradient><linearGradient id="x" x1="-229.928" y1="139.75" x2="31.733" y2="112.849" gradientUnits="userSpaceOnUse"><stop stop-color="#FDEBF7"/><stop offset="1" stop-color="#FFA8DF"/></linearGradient><linearGradient id="y" x1="-226.424" y1="139.909" x2="32.186" y2="108.027" gradientUnits="userSpaceOnUse"><stop stop-color="#FDEBF7"/><stop offset="1" stop-color="#FFA8DF"/></linearGradient><linearGradient id="z" x1="-223.91" y1="140.475" x2="33.483" y2="103.492" gradientUnits="userSpaceOnUse"><stop stop-color="#FDEBF7"/><stop offset="1" stop-color="#FFA8DF"/></linearGradient><linearGradient id="A" x1="-222.259" y1="141.374" x2="35.585" y2="99.057" gradientUnits="userSpaceOnUse"><stop stop-color="#FDEBF7"/><stop offset="1" stop-color="#FFA8DF"/></linearGradient><linearGradient id="B" x1="-221.44" y1="142.344" x2="38.529" y2="94.21" gradientUnits="userSpaceOnUse"><stop stop-color="#FDEBF7"/><stop offset="1" stop-color="#FFA8DF"/></linearGradient><linearGradient id="C" x1="-221.541" y1="143.555" x2="42.383" y2="88.95" gradientUnits="userSpaceOnUse"><stop stop-color="#FDEBF7"/><stop offset="1" stop-color="#FFA8DF"/></linearGradient><linearGradient id="D" x1="-222.721" y1="144.92" x2="47.172" y2="82.874" gradientUnits="userSpaceOnUse"><stop stop-color="#FDEBF7"/><stop offset="1" stop-color="#FFA8DF"/></linearGradient><linearGradient id="E" x1="-224.993" y1="146.373" x2="52.95" y2="75.596" gradientUnits="userSpaceOnUse"><stop stop-color="#FDEBF7"/><stop offset="1" stop-color="#FFA8DF"/></linearGradient><linearGradient id="F" x1="-228.719" y1="148.012" x2="59.816" y2="66.708" gradientUnits="userSpaceOnUse"><stop stop-color="#FDEBF7"/><stop offset="1" stop-color="#FFA8DF"/></linearGradient><linearGradient id="G" x1="-234.013" y1="149.736" x2="67.794" y2="55.517" gradientUnits="userSpaceOnUse"><stop stop-color="#FDEBF7"/><stop offset="1" stop-color="#FFA8DF"/></linearGradient><linearGradient id="H" x1="-241.391" y1="151.593" x2="76.896" y2="41.126" gradientUnits="userSpaceOnUse"><stop stop-color="#FDEBF7"/><stop offset="1" stop-color="#FFA8DF"/></linearGradient><linearGradient id="I" x1="-251.367" y1="153.599" x2="87.044" y2="22.291" gradientUnits="userSpaceOnUse"><stop stop-color="#FDEBF7"/><stop offset="1" stop-color="#FFA8DF"/></linearGradient><linearGradient id="J" x1="-265.018" y1="155.772" x2="97.818" y2="-3.037" gradientUnits="userSpaceOnUse"><stop stop-color="#FDEBF7"/><stop offset="1" stop-color="#FFA8DF"/></linearGradient><linearGradient id="K" x1="-283.839" y1="158.154" x2="108.161" y2="-37.862" gradientUnits="userSpaceOnUse"><stop stop-color="#FDEBF7"/><stop offset="1" stop-color="#FFA8DF"/></linearGradient><linearGradient id="L" x1="-310.801" y1="160.779" x2="115.295" y2="-87.41" gradientUnits="userSpaceOnUse"><stop stop-color="#FDEBF7"/><stop offset="1" stop-color="#FFA8DF"/></linearGradient><linearGradient id="M" x1="-351.114" y1="163.691" x2="112.23" y2="-159.825" gradientUnits="userSpaceOnUse"><stop stop-color="#FDEBF7"/><stop offset="1" stop-color="#FFA8DF"/></linearGradient><linearGradient id="c" x1="21.48" y1="12" x2="2.521" y2="12" gradientUnits="userSpaceOnUse"><stop stop-color="#FEE7F6"/><stop offset="1" stop-color="#ED1C78"/></linearGradient><linearGradient id="O" x1="-380.02" y1="166.891" x2="116.867" y2="-269.421" gradientUnits="userSpaceOnUse"><stop stop-color="#FDEBF7"/><stop offset="1" stop-color="#FFA8DF"/></linearGradient><linearGradient id="P" x1="-268.012" y1="163.666" x2="195.353" y2="-159.959" gradientUnits="userSpaceOnUse"><stop stop-color="#FDEBF7"/><stop offset="1" stop-color="#FFA8DF"/></linearGradient><linearGradient id="Q" x1="-197.691" y1="160.795" x2="228.499" y2="-87.436" gradientUnits="userSpaceOnUse"><stop stop-color="#FDEBF7"/><stop offset="1" stop-color="#FFA8DF"/></linearGradient><linearGradient id="R" x1="-149.393" y1="158.224" x2="242.725" y2="-37.77" gradientUnits="userSpaceOnUse"><stop stop-color="#FDEBF7"/><stop offset="1" stop-color="#FFA8DF"/></linearGradient><linearGradient id="S" x1="-114.266" y1="155.831" x2="248.416" y2="-2.731" gradientUnits="userSpaceOnUse"><stop stop-color="#FDEBF7"/><stop offset="1" stop-color="#FFA8DF"/></linearGradient><linearGradient id="T" x1="-87.849" y1="153.631" x2="250.461" y2="22.428" gradientUnits="userSpaceOnUse"><stop stop-color="#FDEBF7"/><stop offset="1" stop-color="#FFA8DF"/></linearGradient><linearGradient id="U" x1="-67.288" y1="151.576" x2="250.854" y2="41.177" gradientUnits="userSpaceOnUse"><stop stop-color="#FDEBF7"/><stop offset="1" stop-color="#FFA8DF"/></linearGradient><linearGradient id="V" x1="-51.001" y1="149.697" x2="250.799" y2="55.432" gradientUnits="userSpaceOnUse"><stop stop-color="#FDEBF7"/><stop offset="1" stop-color="#FFA8DF"/></linearGradient><linearGradient id="W" x1="-37.881" y1="147.983" x2="250.772" y2="66.58" gradientUnits="userSpaceOnUse"><stop stop-color="#FDEBF7"/><stop offset="1" stop-color="#FFA8DF"/></linearGradient><linearGradient id="X" x1="-27.187" y1="146.372" x2="250.95" y2="75.49" gradientUnits="userSpaceOnUse"><stop stop-color="#FDEBF7"/><stop offset="1" stop-color="#FFA8DF"/></linearGradient><linearGradient id="Y" x1="-18.439" y1="144.908" x2="251.584" y2="82.798" gradientUnits="userSpaceOnUse"><stop stop-color="#FDEBF7"/><stop offset="1" stop-color="#FFA8DF"/></linearGradient><linearGradient id="Z" x1="-11.284" y1="143.594" x2="252.764" y2="88.959" gradientUnits="userSpaceOnUse"><stop stop-color="#FDEBF7"/><stop offset="1" stop-color="#FFA8DF"/></linearGradient><linearGradient id="aa" x1="-5.463" y1="142.414" x2="254.529" y2="94.301" gradientUnits="userSpaceOnUse"><stop stop-color="#FDEBF7"/><stop offset="1" stop-color="#FFA8DF"/></linearGradient><linearGradient id="ab" x1="-.802" y1="141.358" x2="256.938" y2="99.07" gradientUnits="userSpaceOnUse"><stop stop-color="#FDEBF7"/><stop offset="1" stop-color="#FFA8DF"/></linearGradient><linearGradient id="ac" x1="2.821" y1="140.507" x2="260.095" y2="103.566" gradientUnits="userSpaceOnUse"><stop stop-color="#FDEBF7"/><stop offset="1" stop-color="#FFA8DF"/></linearGradient><linearGradient id="ad" x1="5.482" y1="139.894" x2="264.039" y2="108.013" gradientUnits="userSpaceOnUse"><stop stop-color="#FDEBF7"/><stop offset="1" stop-color="#FFA8DF"/></linearGradient><linearGradient id="ae" x1="7.223" y1="139.608" x2="268.901" y2="112.672" gradientUnits="userSpaceOnUse"><stop stop-color="#FDEBF7"/><stop offset="1" stop-color="#FFA8DF"/></linearGradient><linearGradient id="af" x1="8.04" y1="140.294" x2="274.808" y2="118.433" gradientUnits="userSpaceOnUse"><stop stop-color="#FDEBF7"/><stop offset="1" stop-color="#FFA8DF"/></linearGradient><linearGradient id="ag" x1="8.034" y1="103.354" x2="274.718" y2="81.526" gradientUnits="userSpaceOnUse"><stop stop-color="#FDEBF7"/><stop offset="1" stop-color="#FFA8DF"/></linearGradient><linearGradient id="ah" x1="7.204" y1="56.567" x2="268.863" y2="29.673" gradientUnits="userSpaceOnUse"><stop stop-color="#FDEBF7"/><stop offset="1" stop-color="#FFA8DF"/></linearGradient><linearGradient id="ai" x1="5.461" y1="26.753" x2="264.052" y2="-5.124" gradientUnits="userSpaceOnUse"><stop stop-color="#FDEBF7"/><stop offset="1" stop-color="#FFA8DF"/></linearGradient><linearGradient id="aj" x1="2.805" y1="6.024" x2="260.153" y2="-30.946" gradientUnits="userSpaceOnUse"><stop stop-color="#FDEBF7"/><stop offset="1" stop-color="#FFA8DF"/></linearGradient><linearGradient id="ak" x1="-.798" y1="-9.274" x2="256.943" y2="-51.608" gradientUnits="userSpaceOnUse"><stop stop-color="#FDEBF7"/><stop offset="1" stop-color="#FFA8DF"/></linearGradient><linearGradient id="al" x1="-5.442" y1="-21.051" x2="254.486" y2="-69.182" gradientUnits="userSpaceOnUse"><stop stop-color="#FDEBF7"/><stop offset="1" stop-color="#FFA8DF"/></linearGradient><linearGradient id="am" x1="-11.248" y1="-30.447" x2="252.653" y2="-85.05" gradientUnits="userSpaceOnUse"><stop stop-color="#FDEBF7"/><stop offset="1" stop-color="#FFA8DF"/></linearGradient><linearGradient id="an" x1="-18.4" y1="-38.113" x2="251.44" y2="-100.148" gradientUnits="userSpaceOnUse"><stop stop-color="#FDEBF7"/><stop offset="1" stop-color="#FFA8DF"/></linearGradient><linearGradient id="ao" x1="-27.16" y1="-44.511" x2="250.845" y2="-115.304" gradientUnits="userSpaceOnUse"><stop stop-color="#FDEBF7"/><stop offset="1" stop-color="#FFA8DF"/></linearGradient><linearGradient id="ap" x1="-37.853" y1="-49.946" x2="250.615" y2="-131.237" gradientUnits="userSpaceOnUse"><stop stop-color="#FDEBF7"/><stop offset="1" stop-color="#FFA8DF"/></linearGradient><linearGradient id="aq" x1="-51.007" y1="-54.637" x2="250.745" y2="-148.844" gradientUnits="userSpaceOnUse"><stop stop-color="#FDEBF7"/><stop offset="1" stop-color="#FFA8DF"/></linearGradient><linearGradient id="ar" x1="-67.328" y1="-58.729" x2="250.861" y2="-169.168" gradientUnits="userSpaceOnUse"><stop stop-color="#FDEBF7"/><stop offset="1" stop-color="#FFA8DF"/></linearGradient><linearGradient id="as" x1="-87.883" y1="-62.337" x2="250.431" y2="-193.616" gradientUnits="userSpaceOnUse"><stop stop-color="#FDEBF7"/><stop offset="1" stop-color="#FFA8DF"/></linearGradient><linearGradient id="at" x1="-114.328" y1="-65.554" x2="248.381" y2="-224.334" gradientUnits="userSpaceOnUse"><stop stop-color="#FDEBF7"/><stop offset="1" stop-color="#FFA8DF"/></linearGradient><linearGradient id="au" x1="-149.345" y1="-68.461" x2="242.583" y2="-264.506" gradientUnits="userSpaceOnUse"><stop stop-color="#FDEBF7"/><stop offset="1" stop-color="#FFA8DF"/></linearGradient><linearGradient id="av" x1="-197.569" y1="-71.098" x2="228.376" y2="-319.275" gradientUnits="userSpaceOnUse"><stop stop-color="#FDEBF7"/><stop offset="1" stop-color="#FFA8DF"/></linearGradient><linearGradient id="aw" x1="-267.795" y1="-73.506" x2="195.318" y2="-396.873" gradientUnits="userSpaceOnUse"><stop stop-color="#FDEBF7"/><stop offset="1" stop-color="#FFA8DF"/></linearGradient><linearGradient id="ax" x1="-379.263" y1="-75.718" x2="117.359" y2="-511.156" gradientUnits="userSpaceOnUse"><stop stop-color="#FDEBF7"/><stop offset="1" stop-color="#FFA8DF"/></linearGradient><linearGradient id="ay" x1="3.908" y1="14.168" x2="20.091" y2="9.832" gradientUnits="userSpaceOnUse"><stop stop-color="#FDEBF7"/><stop offset="1" stop-color="#FFA8DF"/></linearGradient><clipPath id="a"><path fill="#fff" d="M0 0h24v24H0z"/></clipPath></defs></svg>