<svg width="24" height="24" viewBox="0 0 24 24" fill="none" xmlns="http://www.w3.org/2000/svg">
<g clip-path="url(#clip0_20183_172760)">
<path d="M12 24C18.6274 24 24 18.6274 24 12C24 5.37258 18.6274 0 12 0C5.37258 0 0 5.37258 0 12C0 18.6274 5.37258 24 12 24Z" fill="#2B75C6"/>
<path d="M9.35078 4.19036C9.67096 4.08328 9.98888 4.32987 9.98888 4.66539V5.17975C9.98888 5.40593 9.83966 5.6039 9.6263 5.683C7.04822 6.63884 5.21237 9.1066 5.21237 12.0002C5.21237 14.8938 7.04822 17.3616 9.6263 18.3174C9.83966 18.3965 9.98888 18.5945 9.98888 18.8206V19.335C9.98888 19.6705 9.67096 19.9171 9.35078 19.81C6.06812 18.7122 3.70399 15.6304 3.70399 12.0002C3.70399 8.37001 6.06812 5.28819 9.35078 4.19036Z" fill="white"/>
<path d="M14.3738 18.3174C14.1604 18.3965 14.0112 18.5945 14.0112 18.8206V19.335C14.0112 19.6705 14.3291 19.9171 14.6493 19.81C17.932 18.7122 20.2961 15.6304 20.2961 12.0002C20.2961 8.37001 17.932 5.28819 14.6493 4.19036C14.3291 4.08328 14.0112 4.32987 14.0112 4.66539V5.17975C14.0112 5.40593 14.1604 5.6039 14.3738 5.683C16.9519 6.63884 18.7877 9.1066 18.7877 12.0002C18.7877 14.8938 16.9519 17.3616 14.3738 18.3174Z" fill="white"/>
<path d="M11.4224 7.05033C11.4224 6.91245 11.5349 6.80067 11.6738 6.80067H12.3777C12.5165 6.80067 12.6291 6.91245 12.6291 7.05033V8.01171C12.99 8.05537 13.3218 8.14744 13.6246 8.28792C14.0638 8.48816 14.4041 8.77245 14.6454 9.14077C14.8459 9.44246 14.9643 9.77774 15.0006 10.1466C15.0141 10.2838 14.9001 10.3959 14.7612 10.3959H13.6437C13.5049 10.3959 13.3956 10.2832 13.3718 10.1473C13.3299 9.90723 13.2233 9.71295 13.052 9.56451C12.8252 9.36426 12.5065 9.26413 12.0961 9.26413C11.7 9.26413 11.3921 9.34817 11.1725 9.51623C10.9528 9.68073 10.843 9.89885 10.843 10.1706C10.843 10.4245 10.9708 10.6373 11.2265 10.8089C11.4857 10.9806 11.8656 11.1415 12.3661 11.2917C12.4321 11.3114 12.4968 11.3306 12.5603 11.3494L12.5636 11.3504C13.3855 11.5944 13.9984 11.7763 14.3891 12.1543C14.8103 12.5619 15.0126 13.2316 15.0126 13.8395C15.0126 14.5153 14.7552 15.0464 14.2403 15.4325C13.8213 15.7439 13.2843 15.9286 12.6292 15.9866L12.6291 16.9288C12.6291 17.0667 12.5165 17.1784 12.3777 17.1784H11.6737C11.5349 17.1784 11.4223 17.0667 11.4223 16.9288V15.948C11.0996 15.8947 10.7949 15.8052 10.5081 15.6793C10.0112 15.4576 9.63136 15.1554 9.36851 14.7728C9.15289 14.4546 9.02693 14.0943 8.99064 13.6919C8.97826 13.5546 9.09219 13.4426 9.23103 13.4426H10.354C10.4928 13.4426 10.6028 13.5551 10.6214 13.6917C10.716 14.3874 11.2292 14.7352 12.1609 14.7352C12.5461 14.7352 12.8468 14.6584 13.0628 14.5046C13.2789 14.3473 13.3869 14.1291 13.3869 13.8502C13.3869 13.5463 13.2872 13.1519 13.0712 12.991C12.9425 12.893 12.7494 12.8499 12.4955 12.7933C12.3233 12.7549 12.1232 12.7102 11.8962 12.638C11.3345 12.4556 10.8898 12.2768 10.5621 12.1016C9.66917 11.6224 9.22268 10.977 9.22268 10.1653C9.22268 9.7433 9.34151 9.36783 9.57915 9.03885C9.8204 8.70629 10.1643 8.44704 10.6108 8.2611C10.8642 8.1564 11.1347 8.08118 11.4224 8.03543V7.05033Z" fill="white"/>
<path d="M24 17.9991C24 21.3125 21.3148 24 18 24C14.6852 24 12 21.3144 12 17.9991C12 14.6837 14.687 12 18 12C21.313 12 24 14.6856 24 17.9991Z" fill="#321D47"/>
<path d="M20.2783 19.3182H19.0108L18.7727 18.7369H17.1639L16.9258 19.3182H15.6583L17.1752 15.8625H18.7595L20.2783 19.3182ZM17.9702 16.7607L17.5502 17.7919H18.3883L17.9702 16.7607Z" fill="white"/>
<path d="M17.9683 15.1294C18.454 15.1294 18.8477 14.7356 18.8477 14.25C18.8477 13.7643 18.454 13.3706 17.9683 13.3706C17.4827 13.3706 17.089 13.7643 17.089 14.25C17.089 14.7356 17.4827 15.1294 17.9683 15.1294Z" fill="#E6007A"/>
<path d="M17.9683 22.5356C18.454 22.5356 18.8477 22.1419 18.8477 21.6562C18.8477 21.1706 18.454 20.7769 17.9683 20.7769C17.4827 20.7769 17.089 21.1706 17.089 21.6562C17.089 22.1419 17.4827 22.5356 17.9683 22.5356Z" fill="#E6007A"/>
<path d="M14.721 16.8899C15.2066 16.8899 15.6003 16.4961 15.6003 16.0105C15.6003 15.5248 15.2066 15.1311 14.721 15.1311C14.2353 15.1311 13.8416 15.5248 13.8416 16.0105C13.8416 16.4961 14.2353 16.8899 14.721 16.8899Z" fill="#E6007A"/>
<path d="M21.2178 16.8899C21.7035 16.8899 22.0972 16.4961 22.0972 16.0105C22.0972 15.5248 21.7035 15.1311 21.2178 15.1311C20.7322 15.1311 20.3385 15.5248 20.3385 16.0105C20.3385 16.4961 20.7322 16.8899 21.2178 16.8899Z" fill="#E6007A"/>
<path d="M14.7207 20.8046C15.2063 20.8046 15.6 20.4109 15.6 19.9253C15.6 19.4396 15.2063 19.0459 14.7207 19.0459C14.235 19.0459 13.8413 19.4396 13.8413 19.9253C13.8413 20.4109 14.235 20.8046 14.7207 20.8046Z" fill="#E6007A"/>
<path d="M21.2175 20.8046C21.7032 20.8046 22.0969 20.4109 22.0969 19.9253C22.0969 19.4396 21.7032 19.0459 21.2175 19.0459C20.7319 19.0459 20.3382 19.4396 20.3382 19.9253C20.3382 20.4109 20.7319 20.8046 21.2175 20.8046Z" fill="#E6007A"/>
</g>
<defs>
<clipPath id="clip0_20183_172760">
<rect width="24" height="24" fill="white"/>
</clipPath>
</defs>
</svg>
