<svg width="24" height="24" viewBox="0 0 24 24" fill="none" xmlns="http://www.w3.org/2000/svg">
<g clip-path="url(#clip0_20199_23751)">
<path d="M12 24C18.6274 24 24 18.6274 24 12C24 5.37258 18.6274 0 12 0C5.37258 0 0 5.37258 0 12C0 18.6274 5.37258 24 12 24Z" fill="#009393"/>
<path fill-rule="evenodd" clip-rule="evenodd" d="M18.0618 6.00085V8.26347H13.5109V9.83222C16.7072 9.99986 19.1052 10.6884 19.123 11.5137L19.1229 13.2341C19.1051 14.0594 16.7072 14.7479 13.5109 14.9156V18.7655H10.489V14.9156C7.29278 14.7479 4.89473 14.0594 4.87694 13.2341L4.87706 11.5137C4.89483 10.6884 7.29278 9.99986 10.489 9.83222V8.26347H5.93811V6.00085H18.0618ZM12 13.7336C15.4109 13.7336 18.262 13.1514 18.9597 12.3739C18.368 11.7146 16.2279 11.1957 13.5109 11.0532V12.6956C13.0239 12.7212 12.5184 12.7347 12 12.7347C11.4815 12.7347 10.976 12.7212 10.489 12.6956V11.0532C7.77206 11.1957 5.63194 11.7146 5.04027 12.3739C5.738 13.1514 8.58899 13.7336 12 13.7336Z" fill="white"/>
</g>
<defs>
<clipPath id="clip0_20199_23751">
<rect width="24" height="24" fill="white"/>
</clipPath>
</defs>
</svg>
