<svg width="24" height="24" viewBox="0 0 24 24" fill="none" xmlns="http://www.w3.org/2000/svg">
<g clip-path="url(#clip0_20199_23739)">
<path d="M12 24C18.6274 24 24 18.6274 24 12C24 5.37258 18.6274 0 12 0C5.37258 0 0 5.37258 0 12C0 18.6274 5.37258 24 12 24Z" fill="#2B75C6"/>
<path d="M9.35078 4.19024C9.67096 4.08316 9.98888 4.32975 9.98888 4.66527V5.17963C9.98888 5.40581 9.83966 5.60377 9.6263 5.68288C7.04822 6.63872 5.21237 9.10648 5.21237 12.0001C5.21237 14.8937 7.04822 17.3614 9.6263 18.3173C9.83966 18.3964 9.98888 18.5943 9.98888 18.8205V19.3349C9.98888 19.6704 9.67096 19.917 9.35078 19.8099C6.06812 18.7121 3.70399 15.6303 3.70399 12.0001C3.70399 8.36989 6.06812 5.28807 9.35078 4.19024Z" fill="white"/>
<path d="M14.3738 18.3173C14.1604 18.3964 14.0112 18.5943 14.0112 18.8205V19.3349C14.0112 19.6704 14.3291 19.917 14.6493 19.8099C17.932 18.7121 20.2961 15.6303 20.2961 12.0001C20.2961 8.36989 17.932 5.28807 14.6493 4.19024C14.3291 4.08316 14.0112 4.32975 14.0112 4.66527V5.17963C14.0112 5.40581 14.1604 5.60377 14.3738 5.68288C16.9519 6.63872 18.7877 9.10648 18.7877 12.0001C18.7877 14.8937 16.9519 17.3614 14.3738 18.3173Z" fill="white"/>
<path d="M11.4224 7.05021C11.4224 6.91232 11.5349 6.80055 11.6738 6.80055H12.3777C12.5165 6.80055 12.6291 6.91232 12.6291 7.05021V8.01159C12.99 8.05525 13.3218 8.14732 13.6246 8.28779C14.0638 8.48804 14.4041 8.77233 14.6454 9.14064C14.8459 9.44233 14.9643 9.77761 15.0006 10.1465C15.0141 10.2837 14.9001 10.3958 14.7612 10.3958H13.6437C13.5049 10.3958 13.3956 10.2831 13.3718 10.1472C13.3299 9.90711 13.2233 9.71283 13.052 9.56439C12.8252 9.36414 12.5065 9.26401 12.0961 9.26401C11.7 9.26401 11.3921 9.34804 11.1725 9.51611C10.9528 9.6806 10.843 9.89873 10.843 10.1705C10.843 10.4244 10.9708 10.6372 11.2265 10.8088C11.4857 10.9804 11.8656 11.1414 12.3661 11.2915C12.4321 11.3112 12.4968 11.3305 12.5603 11.3493L12.5636 11.3503C13.3855 11.5942 13.9984 11.7762 14.3891 12.1541C14.8103 12.5618 15.0126 13.2315 15.0126 13.8394C15.0126 14.5152 14.7552 15.0462 14.2403 15.4324C13.8213 15.7438 13.2843 15.9285 12.6292 15.9864L12.6291 16.9287C12.6291 17.0666 12.5165 17.1783 12.3777 17.1783H11.6737C11.5349 17.1783 11.4223 17.0665 11.4223 16.9287V15.9478C11.0996 15.8946 10.7949 15.805 10.5081 15.6792C10.0112 15.4575 9.63136 15.1553 9.36851 14.7727C9.15289 14.4544 9.02693 14.0942 8.99064 13.6918C8.97826 13.5545 9.09219 13.4424 9.23103 13.4424H10.354C10.4928 13.4424 10.6028 13.555 10.6214 13.6916C10.716 14.3873 11.2292 14.7351 12.1609 14.7351C12.5461 14.7351 12.8468 14.6582 13.0628 14.5045C13.2789 14.3471 13.3869 14.129 13.3869 13.8501C13.3869 13.5461 13.2872 13.1518 13.0712 12.9909C12.9425 12.8929 12.7494 12.8498 12.4955 12.7932C12.3233 12.7548 12.1232 12.7101 11.8962 12.6379C11.3345 12.4555 10.8898 12.2767 10.5621 12.1015C9.66917 11.6223 9.22268 10.9769 9.22268 10.1651C9.22268 9.74318 9.34151 9.36771 9.57915 9.03873C9.8204 8.70617 10.1643 8.44692 10.6108 8.26097C10.8642 8.15628 11.1347 8.08105 11.4224 8.03531V7.05021Z" fill="white"/>
</g>
<defs>
<clipPath id="clip0_20199_23739">
<rect width="24" height="24" fill="white"/>
</clipPath>
</defs>
</svg>
