<svg width="24" height="24" viewBox="0 0 24 24" fill="none" xmlns="http://www.w3.org/2000/svg">
<g clip-path="url(#clip0_24866_29397)">
<path d="M12 24C18.6274 24 24 18.6274 24 12C24 5.37258 18.6274 0 12 0C5.37258 0 0 5.37258 0 12C0 18.6274 5.37258 24 12 24Z" fill="#E53E76"/>
<path d="M18.9097 13.1283C19.0997 12.9386 19.3442 12.6944 19.5869 12.4522C20.1284 11.9117 20.1287 11.0349 19.5872 10.4941L19.0136 9.92114C16.9598 11.9725 13.8865 12.3846 11.4227 11.1579C13.0879 11.4654 14.8137 11.2258 16.3429 10.4047C17.3659 9.8552 17.5602 8.46944 16.7388 7.64914L13.3524 4.2668C12.5957 3.511 11.369 3.511 10.6126 4.2668L6.96246 7.91254C9.36633 6.89248 12.254 7.36539 14.209 9.33158C11.2264 7.8856 7.5315 8.39863 5.05504 10.8718C4.86508 11.0616 4.6203 11.3061 4.37754 11.5485C3.83633 12.0894 3.83662 12.9656 4.37754 13.5061L4.95088 14.0788C7.00464 12.0274 10.078 11.6153 12.5418 12.842C10.8766 12.5345 9.1508 12.7741 7.62161 13.5953C6.5986 14.1447 6.40433 15.5305 7.2256 16.3508L10.612 19.7331C11.3687 20.4889 12.5955 20.4889 13.3519 19.7331L17.002 16.0874C14.5981 17.1074 11.7105 16.6345 9.75516 14.6683C12.7378 16.1143 16.4327 15.6013 18.9091 13.1281L18.9097 13.1283Z" fill="white"/>
</g>
<defs>
<clipPath id="clip0_24866_29397">
<rect width="24" height="24" fill="white"/>
</clipPath>
</defs>
</svg>
