<svg width="24" height="24" viewBox="0 0 24 24" fill="none" xmlns="http://www.w3.org/2000/svg">
<g clip-path="url(#clip0_25762_67907)">
<path d="M12 24C18.6274 24 24 18.6274 24 12C24 5.37258 18.6274 0 12 0C5.37258 0 0 5.37258 0 12C0 18.6274 5.37258 24 12 24Z" fill="#F1305A"/>
<path d="M4.76483 9.59978C4.76483 5.43113 8.00413 2.05176 12 2.05176C15.9959 2.05176 19.2352 5.43113 19.2352 9.59978V14.4004C19.2352 16.6498 18.292 18.6694 16.7957 20.0523V9.59978C16.7957 6.83665 14.6486 4.59669 12 4.59669C9.35139 4.59669 7.20428 6.83665 7.20428 9.59978V20.0523C5.708 18.6694 4.76483 16.6498 4.76483 14.4004V9.59978Z" fill="white"/>
<path d="M7.20428 20.0523C8.48095 21.2321 10.1603 21.9485 12 21.9485C13.8397 21.9485 15.5191 21.2321 16.7957 20.0523H7.20428Z" fill="white"/>
<path d="M14.9939 9.59978C13.3404 9.59978 12 8.20142 12 6.47646C12 8.20142 10.6596 9.59978 9.00614 9.59978C10.6596 9.59978 12 10.9981 12 12.7231C12 10.9981 13.3404 9.59978 14.9939 9.59978Z" fill="white"/>
</g>
<defs>
<clipPath id="clip0_25762_67907">
<rect width="24" height="24" fill="white"/>
</clipPath>
</defs>
</svg>
