<svg width="24" height="24" viewBox="0 0 24 24" fill="none" xmlns="http://www.w3.org/2000/svg">
<path d="M12 24C18.6273 24 23.9999 18.6274 23.9999 12.0001C23.9999 5.37259 18.6273 0 12 0C5.37252 0 -6.10352e-05 5.37259 -6.10352e-05 12.0001C-6.10352e-05 18.6274 5.37252 24 12 24Z" fill="#E6007A"/>
<path d="M12 24C18.6273 24 23.9999 18.6274 23.9999 12.0001C23.9999 5.37259 18.6273 0 12 0C5.37252 0 -6.10352e-05 5.37259 -6.10352e-05 12.0001C-6.10352e-05 18.6274 5.37252 24 12 24Z" fill="url(#paint0_linear_33381_53082)"/>
<path fill-rule="evenodd" clip-rule="evenodd" d="M0.0282019 12.8437C0.0358477 12.9538 0.0449791 13.0634 0.0555735 13.1725C0.0675621 13.2962 0.0814365 13.4193 0.0971509 13.5418C0.248946 14.7248 0.572993 15.8539 1.04335 16.9033C1.02046 16.7781 0.994938 16.6551 0.968904 16.5352C0.915361 16.2811 0.835189 15.9812 0.747851 15.6547C0.570742 14.9923 0.364181 14.2198 0.290695 13.4957C0.412878 13.4677 0.535484 13.4417 0.658468 13.4175C3.03668 15.5881 5.38431 17.792 7.70124 20.0289C7.40149 20.9563 7.08464 21.8783 6.75079 22.7943C6.86451 22.8497 6.97922 22.9034 7.09491 22.9552C7.41403 22.0836 7.718 21.2064 8.00665 20.3241C8.45611 20.7591 8.9044 21.1953 9.35155 21.6328C10.1528 22.4172 10.9503 23.2055 11.7441 23.9974C11.8291 23.9991 11.9143 24 11.9997 24C12.0989 24 12.1978 23.9989 12.2965 23.9965C10.9223 22.6241 9.53667 21.2628 8.13994 19.9129C8.60173 18.4753 9.02291 17.0247 9.40268 15.5638C10.2371 17.8893 11.7504 19.8775 14.2761 20.7072C16.0966 21.3062 18.076 21.2674 19.958 20.9818C20.1103 20.8467 20.2592 20.7079 20.4045 20.5652C19.5451 20.7028 18.6835 20.784 17.8303 20.8035C15.8322 20.8486 13.7382 20.4566 12.1629 19.145C10.9315 18.1231 10.1395 16.6959 9.64635 15.1821C9.68034 15.1962 9.71438 15.21 9.74856 15.2237C11.4072 15.8859 13.0914 15.6865 14.5196 14.6002C15.4182 13.9161 16.0721 13.0809 16.6009 12.1668C17.7668 12.1748 18.9327 12.1599 20.0977 12.1223C19.6878 13.1199 19.3116 14.2064 19.8475 15.1466C20.0841 15.557 20.4248 15.9041 20.7557 16.2409C20.8186 16.305 20.8811 16.3686 20.9424 16.4323C21.4228 16.9316 21.903 17.4258 22.4015 17.9057C22.3131 18.0816 22.2235 18.2569 22.1327 18.4315C22.2364 18.2687 22.3362 18.1031 22.432 17.9349C22.4987 17.818 22.5635 17.6999 22.6263 17.5804C22.6627 17.5113 22.6984 17.4416 22.7336 17.3716C22.8795 17.0808 23.0139 16.7832 23.1362 16.4794C23.2125 16.2899 23.284 16.0979 23.3509 15.9037C23.2802 16.0624 23.2086 16.2205 23.1362 16.3784C23.1395 14.8916 23.253 13.409 23.5099 11.9469C23.6733 11.9354 23.8366 11.9234 23.9999 11.911C23.999 11.7846 23.9962 11.6587 23.9914 11.5333C23.8546 11.5437 23.7177 11.5537 23.5807 11.5634C23.6653 11.1262 23.7631 10.691 23.8749 10.2583C23.8308 9.95479 23.7753 9.65485 23.7089 9.35908C23.4885 10.0931 23.3087 10.8381 23.1661 11.5918C22.3367 11.6466 21.5067 11.6898 20.6762 11.7214C21.3997 9.69352 22.0486 7.61473 22.0685 5.46741C21.9422 5.2732 21.8106 5.08288 21.6735 4.89666C21.6932 5.28937 21.6903 5.68194 21.6662 6.06959C21.5573 7.77957 21.0899 9.44452 20.5262 11.0516C20.4501 11.2705 20.3565 11.4998 20.2582 11.7364C19.1101 11.7747 17.9613 11.7908 16.8126 11.785C17.2684 10.9277 17.6326 10.0124 17.9976 9.09496C18.5408 7.72992 19.086 6.36016 19.9371 5.16961C20.0232 5.04914 20.1125 4.9331 20.2046 4.82114C20.6506 4.78903 21.0964 4.75576 21.5422 4.72141C21.4485 4.59866 21.3524 4.47778 21.2541 4.35883C21.0269 4.37614 20.7996 4.39315 20.5724 4.40987C20.7013 4.27703 20.8346 4.15042 20.9716 4.02933C20.8926 3.9405 20.8124 3.85284 20.7308 3.76639C20.7116 3.78403 20.6926 3.80178 20.6735 3.81964C20.4639 4.01677 20.2686 4.22605 20.0856 4.44519C17.5305 4.62819 14.9711 4.77247 12.4101 4.86611C12.3993 4.46718 12.3482 4.07817 12.2461 3.71036C12.124 3.27531 11.9114 2.92721 11.636 2.65865C11.7154 1.77376 11.7803 0.887376 11.8304 0C11.6997 0.00180572 11.5695 0.00570291 11.4398 0.0116572C11.3951 0.798621 11.3387 1.58483 11.2707 2.36994C11.0025 2.19903 10.6985 2.08126 10.3748 2.01234C10.388 1.97832 10.4012 1.94433 10.4146 1.9104C10.6691 1.26562 10.9567 0.636186 11.2727 0.0204916C11.1232 0.0294173 10.9744 0.0410859 10.8264 0.0554402C10.5198 0.675512 10.2424 1.30938 9.99496 1.95441C9.75758 1.93175 9.51353 1.93258 9.26829 1.95539C7.88991 2.08512 6.5749 2.67838 5.30804 3.24992C5.18496 3.30544 5.06232 3.36077 4.94012 3.41546C4.84555 3.11132 4.75416 2.80608 4.6656 2.49992C4.55308 2.5869 4.44217 2.67584 4.33289 2.76669C4.41246 3.03695 4.49439 3.30652 4.57887 3.57532C3.94917 3.85008 3.32167 4.13148 2.69637 4.41828C2.55616 4.59015 2.42061 4.76595 2.28993 4.94554C2.25202 4.99764 2.21452 5.05004 2.17743 5.10276C2.12681 5.17472 2.07695 5.24727 2.02788 5.32038C3.08045 5.34729 4.13341 5.36293 5.18649 5.36813C5.47695 6.16338 5.79414 6.95058 6.14321 7.72813C6.52104 8.57669 6.9373 9.40595 7.39837 10.2095C7.63974 10.6348 7.92277 11.0866 8.34946 11.3223C6.80229 11.1541 5.26016 10.9485 3.71337 10.7423C3.52226 10.7169 3.33109 10.6914 3.13982 10.666C2.19845 10.5438 1.16102 10.5502 0.463004 11.3023C0.231071 11.5495 0.0849222 11.8417 -6.10352e-05 12.1541C0.000521825 12.2001 0.00135612 12.2459 0.00245327 12.2917C0.00687615 12.4769 0.0154933 12.6609 0.0282019 12.8437ZM0.263689 13.0578C0.264066 13.0794 0.264592 13.101 0.265277 13.1226C0.283849 13.1183 0.302432 13.1141 0.321026 13.11C0.301917 13.0926 0.282797 13.0753 0.263689 13.0578ZM0.795154 13.0132C0.626399 12.8591 0.457507 12.7053 0.288455 12.5515C0.393918 11.7133 0.846732 11.0772 1.99993 10.9874C2.52367 10.9441 3.0565 11.0332 3.57542 11.1201C3.67196 11.1362 3.76801 11.1523 3.86344 11.1674C4.56787 11.2766 5.2723 11.3731 5.97671 11.463C6.8498 11.575 7.72521 11.6731 8.60292 11.7572C8.68213 12.658 8.82934 13.5713 9.06104 14.4563C8.91354 14.3869 8.76686 14.317 8.62055 14.2473C7.66295 13.7908 6.72101 13.3418 5.66294 13.0959C4.08309 12.7325 2.41206 12.7153 0.795154 13.0132ZM1.14434 13.3325C3.40102 15.3984 5.63093 17.4935 7.83319 19.6168C8.32071 18.0799 8.76137 16.5283 9.15466 14.965C8.89589 14.8445 8.6403 14.7171 8.38481 14.5898C7.92098 14.3586 7.45745 14.1275 6.97571 13.938C6.13041 13.6037 5.24027 13.3852 4.34373 13.2759C3.28275 13.1477 2.20305 13.1693 1.14434 13.3325ZM9.35612 14.1459C9.53796 13.3894 9.70875 12.6302 9.86844 11.8687C9.56684 11.8445 9.26554 11.8186 8.96451 11.7911C9.04284 12.5861 9.17221 13.3734 9.35612 14.1459ZM9.42419 11.4325C9.59893 11.4493 9.7737 11.4655 9.94867 11.4811C9.9721 11.3663 9.99541 11.2516 10.0184 11.1367C9.83484 11.2711 9.63699 11.3739 9.42419 11.4325ZM10.5079 10.6729C10.4537 10.9539 10.398 11.2346 10.3409 11.5149C10.7448 11.5486 11.1492 11.5787 11.5545 11.6045C13.1913 11.7086 14.8314 11.7681 16.472 11.7826C17.0009 10.8358 17.41 9.80107 17.8132 8.78117C18.0161 8.26779 18.2176 7.75813 18.4321 7.26529C18.7999 6.42395 19.2247 5.59407 19.7678 4.85222C18.5225 4.93975 17.2769 5.01814 16.0308 5.08605C14.8244 5.15113 13.6168 5.20623 12.4085 5.25007C12.3681 6.44066 12.0082 7.68632 11.6057 8.69884C11.3732 9.2805 11.0132 10.0792 10.5079 10.6729ZM11.9911 5.26477C11.9736 5.72616 11.9095 6.18753 11.8298 6.60316C11.6761 7.40671 11.4328 8.19742 11.0998 8.94312C10.979 9.21612 10.8384 9.51832 10.6695 9.80862C10.9415 8.30814 11.1706 6.7996 11.3568 5.28535C11.5682 5.27884 11.7797 5.27198 11.9911 5.26477ZM11.9941 4.88089C11.9794 4.27234 11.8669 3.68614 11.5827 3.22951C11.5287 3.7871 11.4688 4.34408 11.4032 4.9003C11.6001 4.89414 11.7971 4.88767 11.9941 4.88089ZM11.0095 4.91222C11.0926 4.21364 11.1665 3.51394 11.2311 2.81332C10.9802 2.59481 10.6554 2.43873 10.2398 2.36984C9.93187 3.20695 9.67113 4.07074 9.46256 4.95087C9.97816 4.94018 10.4938 4.92727 11.0095 4.91222ZM9.07957 4.95839C9.28363 4.0684 9.54243 3.19087 9.85416 2.33198C8.51212 2.27531 7.1698 2.87148 5.93631 3.4193C5.72659 3.51244 5.52001 3.60418 5.31712 3.69108C5.23202 3.7277 5.14698 3.76443 5.06201 3.80128C5.18954 4.19863 5.32278 4.59403 5.46246 4.9872C6.66805 4.99078 7.87385 4.98077 9.07957 4.95839ZM5.60066 5.36964C6.73212 5.3723 7.86368 5.36304 8.99498 5.34291C8.60469 7.19489 8.45072 9.09669 8.54948 10.9935C8.08266 10.7431 7.77088 10.1322 7.51956 9.63955C7.47532 9.55287 7.43297 9.46984 7.39196 9.39311C6.97571 8.60883 6.59149 7.79886 6.23927 6.98244C6.01218 6.44981 5.8 5.91196 5.60066 5.36964ZM8.90958 11.1045C8.79083 9.18068 8.96227 7.22434 9.37491 5.33573C9.90421 5.32517 10.4335 5.31224 10.9627 5.29707C10.7452 7.05173 10.4696 8.79892 10.1362 10.535C9.89393 10.7858 9.61032 10.981 9.2747 11.0709C9.14471 11.1057 9.0233 11.1154 8.90958 11.1045ZM5.04897 4.98544C4.92847 4.64454 4.81268 4.3022 4.70123 3.95858C3.96501 4.28131 3.23339 4.6125 2.50469 4.95045C3.35261 4.9692 4.20072 4.98072 5.04897 4.98544ZM16.2493 12.1638C14.2834 12.1428 12.3179 12.0571 10.3569 11.9066C10.3251 11.9043 10.2934 11.9019 10.2616 11.8995C10.134 12.5099 9.9993 13.1187 9.85747 13.7259C9.7801 14.0552 9.70062 14.3841 9.61908 14.7124C11.0948 15.3572 12.5749 15.4464 13.9815 14.5552C14.959 13.9364 15.6745 13.103 16.2493 12.1638ZM20.5375 12.107C20.4627 12.3143 20.3872 12.5211 20.3121 12.7274C20.2853 12.801 20.2584 12.8746 20.2317 12.9481C20.0332 13.4945 19.8475 14.073 20.046 14.6515C20.1741 15.0309 20.4366 15.3266 20.6991 15.6158C21.1282 16.0851 21.5765 16.5415 22.0247 16.9915C22.2093 17.1756 22.3955 17.3587 22.5838 17.5397C22.6331 17.4397 22.682 17.3395 22.7304 17.2392C22.6922 15.4628 22.8 13.698 23.0967 11.9751C22.2444 12.0313 21.3912 12.0753 20.5375 12.107Z" fill="#D87825"/>
<path d="M7.3825 16.9671H10.515L11.5136 13.3457C11.6513 12.8464 12.3535 12.8468 12.4908 13.3462L13.486 16.9671H16.6124L19.0095 7.70703H16.0743L15.3247 11.382C15.2158 11.9157 14.4652 11.9304 14.3358 11.4014L13.4321 7.70703H10.5687L9.68844 11.4244C9.56275 11.9551 8.81047 11.9448 8.69908 11.4109L8.43472 10.1435C8.13854 8.72357 6.89645 7.70703 5.45763 7.70703H4.99133L7.3825 16.9671Z" fill="white"/>
<defs>
<linearGradient id="paint0_linear_33381_53082" x1="23.9999" y1="12" x2="-6.10352e-05" y2="12" gradientUnits="userSpaceOnUse">
<stop stop-color="#FFAE5E"/>
<stop offset="1" stop-color="#F68728"/>
</linearGradient>
</defs>
</svg>
