<svg width="24" height="24" viewBox="0 0 24 24" fill="none" xmlns="http://www.w3.org/2000/svg">
<g clip-path="url(#clip0_19094_29384)">
<path d="M12 24C18.6274 24 24 18.6274 24 12C24 5.37258 18.6274 0 12 0C5.37258 0 0 5.37258 0 12C0 18.6274 5.37258 24 12 24Z" fill="#E6007A"/>
<path d="M12 7.06678C13.6944 7.06678 15.0679 6.2683 15.0679 5.28333C15.0679 4.29836 13.6944 3.49988 12 3.49988C10.3056 3.49988 8.93201 4.29836 8.93201 5.28333C8.93201 6.2683 10.3056 7.06678 12 7.06678Z" fill="white"/>
<path d="M12 20.4999C13.6944 20.4999 15.0679 19.7014 15.0679 18.7164C15.0679 17.7315 13.6944 16.933 12 16.933C10.3056 16.933 8.93201 17.7315 8.93201 18.7164C8.93201 19.7014 10.3056 20.4999 12 20.4999Z" fill="white"/>
<path d="M7.72387 9.5334C8.57106 8.06739 8.5657 6.47972 7.71188 5.98723C6.85806 5.49475 5.47912 6.28394 4.63192 7.74995C3.78473 9.21595 3.79009 10.8036 4.64391 11.2961C5.49773 11.7886 6.87667 10.9994 7.72387 9.5334Z" fill="white"/>
<path d="M19.3681 16.2499C20.2153 14.7839 20.2099 13.1963 19.3561 12.7038C18.5023 12.2113 17.1234 13.0005 16.2762 14.4665C15.429 15.9325 15.4343 17.5202 16.2882 18.0126C17.142 18.5051 18.5209 17.7159 19.3681 16.2499Z" fill="white"/>
<path d="M7.71188 18.0126C8.56569 17.5201 8.57106 15.9324 7.72386 14.4664C6.87667 13.0004 5.49772 12.2112 4.6439 12.7037C3.79009 13.1962 3.78472 14.7838 4.63192 16.2498C5.47912 17.7158 6.85806 18.505 7.71188 18.0126Z" fill="white"/>
<path d="M19.3561 11.2962C20.2099 10.8037 20.2152 9.216 19.368 7.75C18.5208 6.28399 17.1419 5.4948 16.2881 5.98729C15.4343 6.47977 15.4289 8.06745 16.2761 9.53345C17.1233 10.9995 18.5022 11.7886 19.3561 11.2962Z" fill="white"/>
<path d="M24.0506 18.0384C24.0506 21.3518 21.3655 24.0393 18.0506 24.0393C14.7358 24.0393 12.0506 21.3537 12.0506 18.0384C12.0506 14.723 14.7377 12.0393 18.0506 12.0393C21.3636 12.0393 24.0506 14.7249 24.0506 18.0384Z" fill="#321D47"/>
<path d="M20.3288 19.3575H19.0613L18.8231 18.7762H17.2144L16.9763 19.3575H15.7088L17.2256 15.9019H18.81L20.3288 19.3575ZM18.0206 16.8L17.6006 17.8312H18.4388L18.0206 16.8Z" fill="white"/>
<path d="M18.0187 15.1687C18.5044 15.1687 18.8981 14.775 18.8981 14.2893C18.8981 13.8036 18.5044 13.4099 18.0187 13.4099C17.5331 13.4099 17.1394 13.8036 17.1394 14.2893C17.1394 14.775 17.5331 15.1687 18.0187 15.1687Z" fill="#E6007A"/>
<path d="M18.0187 22.5749C18.5044 22.5749 18.8981 22.1812 18.8981 21.6955C18.8981 21.2099 18.5044 20.8162 18.0187 20.8162C17.5331 20.8162 17.1394 21.2099 17.1394 21.6955C17.1394 22.1812 17.5331 22.5749 18.0187 22.5749Z" fill="#E6007A"/>
<path d="M14.7714 16.9292C15.257 16.9292 15.6507 16.5355 15.6507 16.0498C15.6507 15.5641 15.257 15.1704 14.7714 15.1704C14.2857 15.1704 13.892 15.5641 13.892 16.0498C13.892 16.5355 14.2857 16.9292 14.7714 16.9292Z" fill="#E6007A"/>
<path d="M21.2682 16.9292C21.7539 16.9292 22.1476 16.5355 22.1476 16.0498C22.1476 15.5641 21.7539 15.1704 21.2682 15.1704C20.7826 15.1704 20.3889 15.5641 20.3889 16.0498C20.3889 16.5355 20.7826 16.9292 21.2682 16.9292Z" fill="#E6007A"/>
<path d="M14.7712 20.8438C15.2569 20.8438 15.6506 20.4501 15.6506 19.9645C15.6506 19.4788 15.2569 19.0851 14.7712 19.0851C14.2856 19.0851 13.8918 19.4788 13.8918 19.9645C13.8918 20.4501 14.2856 20.8438 14.7712 20.8438Z" fill="#E6007A"/>
<path d="M21.2681 20.8438C21.7538 20.8438 22.1475 20.4501 22.1475 19.9645C22.1475 19.4788 21.7538 19.0851 21.2681 19.0851C20.7824 19.0851 20.3887 19.4788 20.3887 19.9645C20.3887 20.4501 20.7824 20.8438 21.2681 20.8438Z" fill="#E6007A"/>
</g>
<defs>
<clipPath id="clip0_19094_29384">
<rect width="24" height="24" fill="white"/>
</clipPath>
</defs>
</svg>
