<svg width="25" height="24" viewBox="0 0 25 24" fill="none" xmlns="http://www.w3.org/2000/svg">
<path d="M12.0382 24C18.6657 24 24.0382 18.6274 24.0382 12C24.0382 5.37258 18.6657 0 12.0382 0C5.41083 0 0.0382385 5.37258 0.0382385 12C0.0382385 18.6274 5.41083 24 12.0382 24Z" fill="#3C2A77"/>
<path d="M14.8634 5.86105C14.8634 5.94737 14.8405 5.97684 14.7531 5.97474C14.6747 5.97176 14.5963 5.97252 14.5179 5.97328C14.4297 5.97413 14.3415 5.97499 14.2534 5.97053C14.1534 5.96632 14.1284 6.00421 14.1326 6.09684C14.1364 6.19158 14.1356 6.28632 14.1349 6.38106C14.1344 6.44401 14.1339 6.45704 14.1347 6.52C14.1347 6.57895 14.1201 6.6 14.0577 6.59368C13.2465 6.59368 12.5042 6.59368 11.6695 6.59368C11.5779 6.59368 11.5487 6.56632 11.5529 6.47369C11.5592 6.33474 11.5571 6.19368 11.555 6.05263C11.5529 5.98947 11.5758 5.96632 11.6404 5.96632C11.7162 5.96812 11.792 5.96761 11.8679 5.96709C11.9689 5.9664 12.0702 5.96572 12.1713 5.97053C12.2671 5.97474 12.2858 5.94105 12.2858 5.85052C12.2837 4.94737 12.2837 4.04211 12.2837 3.13895C12.2837 3.07048 12.2837 3.03624 12.3007 3.01916C12.3176 3.00211 12.3515 3.00211 12.4191 3.00211C13.1955 3.00211 13.9704 3.00421 14.7468 3C14.8364 3 14.8655 3.02105 14.8655 3.11579C14.8529 4.03369 14.8551 4.94737 14.8634 5.86105Z" fill="#EA298A"/>
<path fill-rule="evenodd" clip-rule="evenodd" d="M14.624 14.0221C14.6058 14.0189 14.5859 14.0153 14.5761 13.9874C14.6073 13.9768 14.6365 13.9663 14.6677 13.9579C15.5109 13.6611 16.173 13.1474 16.577 12.3263C16.604 12.2716 16.6374 12.261 16.6915 12.261C16.7977 12.2621 16.9033 12.2621 17.009 12.2621L17.13 12.2622C17.1506 12.2622 17.1713 12.2622 17.1919 12.2623C17.2062 12.2624 17.2205 12.2624 17.2348 12.2625C17.2653 12.2626 17.2959 12.2629 17.3265 12.2632C17.389 12.2653 17.4202 12.2442 17.4431 12.1853C17.4889 12.0674 17.5306 11.9495 17.5618 11.8274C17.693 11.3221 17.6617 10.8126 17.5805 10.3053C17.3723 9.01052 16.679 8.09894 15.4672 7.60842C14.7364 7.31158 13.9681 7.20842 13.1873 7.20632C11.5316 7.20126 9.87715 7.20159 8.22192 7.20193C7.80842 7.20202 7.39429 7.2021 6.98066 7.2021C6.96196 7.2021 6.94326 7.20188 6.92456 7.20163C6.8623 7.20081 6.83179 7.2004 6.81715 7.21556C6.79837 7.23502 6.80576 7.28039 6.80576 7.38316C6.80576 8.96632 6.80368 10.5508 6.80785 12.1347C6.80993 12.2379 6.78078 12.2674 6.68084 12.2632C6.57025 12.2583 6.45897 12.259 6.3478 12.2597C6.26443 12.2602 6.18079 12.2607 6.09786 12.2589C6.02499 12.2568 6 12.28 6 12.3537C6.00208 13.3053 6.00208 14.2589 6 15.2126C6 15.2905 6.02915 15.3053 6.09786 15.3053C6.18758 15.3034 6.2773 15.3036 6.36702 15.3039C6.47492 15.3042 6.58335 15.3045 6.69125 15.301C6.78286 15.2968 6.80785 15.3221 6.80785 15.4168C6.80368 16.1789 6.80785 16.9389 6.80368 17.6989C6.80368 17.7979 6.8245 17.8295 6.92861 17.8295C7.84681 17.8253 8.765 17.8253 9.6832 17.8295C9.78106 17.8316 9.81229 17.8063 9.81229 17.7032C9.80812 16.939 9.81021 16.1747 9.80813 15.4105C9.80604 15.3432 9.81229 15.3032 9.89974 15.3032C10.6286 15.3074 11.356 15.3074 12.0838 15.3116C12.4753 15.3137 12.8292 15.4126 13.1103 15.7116C13.2873 15.8989 13.4205 16.1158 13.5413 16.341C13.7567 16.748 13.9378 17.1706 14.1189 17.5931L14.1742 17.7221C14.2096 17.8021 14.2513 17.8274 14.3366 17.8274C15.5234 17.8253 16.7081 17.8253 17.8928 17.8253C17.9555 17.8253 17.9867 17.8253 17.9965 17.8107C18.0063 17.7961 17.9948 17.7672 17.972 17.7095C17.6513 16.9179 17.2932 16.1453 16.9226 15.3768C16.8934 15.3158 16.856 15.2989 16.7935 15.301C16.7696 15.3013 16.7456 15.3014 16.7217 15.3015C16.6665 15.3016 16.6113 15.3012 16.5561 15.3009C16.4375 15.3001 16.3188 15.2994 16.2001 15.3032C16.1189 15.3074 16.0731 15.2821 16.0335 15.2042C15.7296 14.6189 15.2715 14.2147 14.6386 14.0253C14.634 14.0239 14.6291 14.023 14.624 14.0221ZM12.8979 10.0674C12.4128 10.0611 11.4426 10.0653 11.4426 10.0653C11.4426 10.0653 10.2044 10.0632 9.86183 10.0632C9.80604 10.0632 9.80604 10.0905 9.80604 10.1537C9.80812 10.8211 9.80812 11.4905 9.80604 12.16C9.80604 12.24 9.83103 12.2611 9.90806 12.2611C10.8991 12.259 11.8902 12.2611 12.8813 12.2568C13.2248 12.2547 13.5184 12.1242 13.7578 11.88C14.1576 11.4716 14.1597 10.8568 13.762 10.4463C13.5246 10.2042 13.2352 10.0716 12.8979 10.0674Z" fill="#EA298A"/>
<path d="M12.646 20.8905C12.646 20.9705 12.6647 21 12.7501 21C13.5434 20.9979 14.3367 20.9979 15.1299 21C15.209 21 15.2278 20.9726 15.2278 20.8968C15.2257 20.1137 15.2236 19.3284 15.2278 18.5432C15.2278 18.4505 15.1966 18.4337 15.1133 18.4337C14.9155 18.4358 14.7182 18.4358 14.5209 18.4358C14.3236 18.4358 14.1264 18.4358 13.9286 18.4379C13.8494 18.44 13.814 18.4126 13.7828 18.3411C13.5954 17.9116 13.406 17.4821 13.2123 17.0568C13.0832 16.7705 12.9479 16.4863 12.7564 16.2337C12.6148 16.0442 12.4315 15.9368 12.1921 15.9284C11.8877 15.918 11.5833 15.9178 11.2793 15.9176C11.0322 15.9174 10.7854 15.9172 10.5389 15.9116C10.4265 15.9095 10.4098 15.9495 10.4098 16.0484C10.414 16.8042 10.4098 17.5621 10.414 18.3179C10.414 18.4084 10.3911 18.4379 10.2974 18.4358C9.93115 18.4316 9.56226 18.44 9.19599 18.4316C9.08564 18.4295 9.05858 18.4653 9.0669 18.5684C9.07523 18.6779 9.07523 18.7874 9.0669 18.8947C9.06066 18.9958 9.09189 19.0253 9.19391 19.0253C9.96845 19.0211 10.7451 19.0211 11.5217 19.0253C11.6216 19.0253 11.6508 19 11.6508 18.8968C11.6466 18.2379 11.6487 17.5789 11.6466 16.92C11.6466 16.8358 11.6716 16.8105 11.7528 16.8126C12.0089 16.8189 12.265 16.8189 12.5211 16.8126C12.621 16.8105 12.6502 16.8358 12.6502 16.9389C12.6418 18.259 12.6501 19.5747 12.646 20.8905Z" fill="#EA298A"/>
<path d="M10.3953 6.58947C10.4744 6.59157 10.5077 6.57052 10.5035 6.48421C10.5004 6.41891 10.5009 6.35361 10.5015 6.28857C10.502 6.2236 10.5025 6.1589 10.4994 6.09473C10.4952 5.99999 10.5202 5.96421 10.6201 5.96842C10.7083 5.97288 10.7965 5.97202 10.8847 5.97117C10.9631 5.97041 11.0414 5.96965 11.1198 5.97263C11.2031 5.97473 11.226 5.94736 11.226 5.86526C11.2219 5.5221 11.2219 5.17894 11.226 4.83579C11.2281 4.74947 11.2031 4.72421 11.1157 4.72421C10.3286 4.72842 9.5437 4.72842 8.75667 4.72421C8.6609 4.72421 8.64216 4.75578 8.64424 4.8442C8.64841 5.18721 8.64424 5.53068 8.64632 5.87368C8.64841 5.94736 8.6255 5.97263 8.55263 5.97052C8.46414 5.96737 8.37565 5.96789 8.28717 5.96841C8.19868 5.96894 8.11019 5.96947 8.0217 5.96631C7.93633 5.96421 7.91551 5.99578 7.9176 6.07579C7.92384 6.21052 7.92592 6.34315 7.9176 6.47578C7.91135 6.57263 7.94883 6.59157 8.03627 6.59157C8.82162 6.58312 9.6076 6.58528 10.3953 6.58947Z" fill="#EA298A"/>
<path d="M10.5098 11.6505C10.4411 11.6526 10.4098 11.6337 10.4119 11.5579C10.4161 11.2926 10.414 11.0253 10.4119 10.76C10.4119 10.6905 10.4307 10.661 10.5056 10.661C10.7784 10.6653 11.0532 10.6653 11.326 10.6653C11.3905 10.6653 11.4092 10.6884 11.4092 10.7516C11.4072 11.021 11.4072 11.2905 11.4092 11.56C11.4092 11.6295 11.3884 11.6526 11.3197 11.6505C11.0491 11.6383 10.7805 11.6418 10.5098 11.6505Z" fill="#EA298A"/>
</svg>
