<svg width="24" height="24" viewBox="0 0 24 24" fill="none" xmlns="http://www.w3.org/2000/svg">
<mask id="mask0_24433_181804" style="mask-type:alpha" maskUnits="userSpaceOnUse" x="0" y="0" width="25" height="25">
<path d="M12.0035 24.0032C18.6309 24.0032 24.0035 18.6306 24.0035 12.0032C24.0035 5.37576 18.6309 0.00317383 12.0035 0.00317383C5.37606 0.00317383 0.003479 5.37576 0.003479 12.0032C0.003479 18.6306 5.37606 24.0032 12.0035 24.0032Z" fill="white"/>
</mask>
<g mask="url(#mask0_24433_181804)">
<rect x="-2.81195" y="-2.81177" width="29.6229" height="29.6229" fill="#E6007A"/>
<g filter="url(#filter0_f_24433_181804)">
<path fill-rule="evenodd" clip-rule="evenodd" d="M25.3298 -3.18226C20.5161 9.77773 7.07544 9.73774 4.96405 16.4429C1.84477 26.3489 18.558 42.0156 28.6623 29.7733C37.3865 19.2031 29.0267 -13.1353 25.3298 -3.18226Z" fill="#921FC0"/>
</g>
<g filter="url(#filter1_f_24433_181804)">
<path fill-rule="evenodd" clip-rule="evenodd" d="M30.513 6.07429C22.7387 14.1142 16.0718 10.5177 10.6954 14.7174C7.03108 17.5796 14.0469 25.4762 11.9994 31.6248C10.1494 37.1804 24.9704 40.2483 30.513 36.4378C39.9147 29.9742 37.1361 -0.775041 30.513 6.07429Z" fill="url(#paint0_radial_24433_181804)"/>
</g>
</g>
<path d="M6.11805 6.04854V6.94316C6.2401 6.66271 6.44534 6.4265 6.706 6.2665C6.96666 6.1065 7.27018 6.03042 7.57549 6.04854H8.38124V7.18014H7.37407C6.47945 7.18014 6.13583 7.60078 6.13583 8.63166V10.2668H8.03169V11.3273H3.41052V10.2668H4.72578V7.12089H3.41052V6.04854H6.11805Z" fill="white"/>
<path d="M12.1789 11.4577C10.8814 11.4577 9.65503 10.7112 9.65503 8.6909C9.65503 6.67062 10.8814 5.93598 12.1789 5.93598C13.4764 5.93598 14.6969 6.67062 14.6969 8.6909C14.6969 10.7112 13.4645 11.4577 12.1789 11.4577ZM12.1789 6.97278C11.5035 6.97278 11.071 7.47637 11.071 8.6909C11.071 9.90546 11.5035 10.4149 12.1789 10.4149C12.8543 10.4149 13.2868 9.90546 13.2868 8.6909C13.2868 7.47637 12.8543 6.97278 12.1789 6.97278Z" fill="white"/>
<path d="M20.8406 7.95625H19.5076C19.4246 7.39342 19.1639 6.97278 18.5359 6.97278C17.9079 6.97278 17.511 7.51191 17.511 8.69682C17.511 9.88169 17.902 10.4149 18.53 10.4149C18.9626 10.4149 19.401 10.2017 19.5313 9.39592H20.8881C20.8297 9.97666 20.5519 10.5132 20.1116 10.8963C19.6713 11.2795 19.1014 11.4802 18.5182 11.4577C16.9778 11.4577 16.1069 10.2728 16.1069 8.69682C16.1069 7.12089 17.0015 5.93598 18.5478 5.93598C19.1163 5.91402 19.6714 6.11154 20.0982 6.48762C20.525 6.86372 20.7908 7.38956 20.8406 7.95625Z" fill="white"/>
<path d="M5.8396 18.6323C4.54804 18.6323 3.32166 17.8858 3.32166 15.8656C3.32166 13.8452 4.54804 13.1106 5.8396 13.1106C7.13115 13.1106 8.36346 13.8452 8.36346 15.8656C8.36346 17.8858 7.12523 18.6323 5.8396 18.6323ZM5.8396 14.1474C5.16419 14.1474 4.7317 14.6511 4.7317 15.8656C4.7317 17.0801 5.16419 17.5896 5.8396 17.5896C6.515 17.5896 6.95342 17.0801 6.95342 15.8656C6.95342 14.6511 6.52092 14.1474 5.8396 14.1474Z" fill="white"/>
<path d="M14.5013 15.1309H13.1683C13.0913 14.5681 12.8246 14.1474 12.1966 14.1474C11.5686 14.1474 11.1777 14.6866 11.1777 15.8775C11.1777 17.0682 11.5865 17.5896 12.1789 17.5896C12.6114 17.5896 13.0557 17.3763 13.1802 16.5706H14.5487C14.489 17.1507 14.2109 17.6865 13.7709 18.0694C13.3309 18.4522 12.7618 18.6535 12.1789 18.6323C10.6385 18.6323 9.76759 17.4474 9.76759 15.8775C9.76759 14.3074 10.6563 13.1106 12.2085 13.1106C12.7777 13.0857 13.3345 13.2823 13.7619 13.6588C14.1894 14.0355 14.4543 14.5631 14.5013 15.1309Z" fill="white"/>
<path d="M18.5123 18.6323C17.2207 18.6323 15.9943 17.8858 15.9943 15.8656C15.9943 13.8452 17.2207 13.1106 18.5123 13.1106C19.8038 13.1106 21.0658 13.8452 21.0658 15.8656C21.0658 17.8858 19.7979 18.6323 18.5123 18.6323ZM18.5123 14.1474C17.8369 14.1474 17.4044 14.6511 17.4044 15.8656C17.4044 17.0801 17.8369 17.5896 18.5123 17.5896C19.1877 17.5896 19.6261 17.0801 19.6261 15.8656C19.6261 14.6511 19.1935 14.1474 18.5123 14.1474Z" fill="white"/>
<defs>
<filter id="filter0_f_24433_181804" x="-1.13219" y="-10.7748" width="39.3484" height="50.7433" filterUnits="userSpaceOnUse" color-interpolation-filters="sRGB">
<feFlood flood-opacity="0" result="BackgroundImageFix"/>
<feBlend mode="normal" in="SourceGraphic" in2="BackgroundImageFix" result="shape"/>
<feGaussianBlur stdDeviation="2.85714" result="effect1_foregroundBlur_24433_181804"/>
</filter>
<filter id="filter1_f_24433_181804" x="2.75956" y="-1.77169" width="40.6644" height="46.7582" filterUnits="userSpaceOnUse" color-interpolation-filters="sRGB">
<feFlood flood-opacity="0" result="BackgroundImageFix"/>
<feBlend mode="normal" in="SourceGraphic" in2="BackgroundImageFix" result="shape"/>
<feGaussianBlur stdDeviation="3.42857" result="effect1_foregroundBlur_24433_181804"/>
</filter>
<radialGradient id="paint0_radial_24433_181804" cx="0" cy="0" r="1" gradientUnits="userSpaceOnUse" gradientTransform="translate(24.5939 18.4494) rotate(48.005) scale(12.0747 15.0442)">
<stop stop-color="#1AA0FF"/>
<stop offset="1" stop-color="#1AA0FF"/>
</radialGradient>
</defs>
</svg>
