<svg width="24" height="24" viewBox="0 0 24 24" fill="none" xmlns="http://www.w3.org/2000/svg">
<path d="M24 11.9981C24 18.6251 18.6297 24 12 24C5.37031 24 0 18.6288 0 11.9981C0 5.36738 5.37409 0 12 0C18.6259 0 24 5.37116 24 11.9981Z" fill="black"/>
<path d="M11.6213 19.9177H11.216C11.2125 19.9093 11.2145 19.9029 11.2222 19.898C11.3164 19.8737 11.4122 19.8911 11.5071 19.887C11.5433 19.8855 11.5806 19.8811 11.6152 19.898C11.6229 19.9029 11.6249 19.9095 11.6213 19.9177Z" fill="#7F7F7F"/>
<path d="M2.25113 12.0348V11.8876C2.25855 11.8837 2.26496 11.8853 2.26982 11.8922C2.28621 11.9383 2.28621 11.9843 2.26982 12.0304C2.26496 12.0373 2.25855 12.0389 2.25113 12.035V12.0348Z" fill="#808080"/>
<path d="M11.6212 19.9183C11.6217 19.9149 11.622 19.9116 11.6223 19.9083C11.6509 19.8832 11.6796 19.8829 11.708 19.9085C11.7088 19.9119 11.7085 19.9152 11.7073 19.9183H11.6212Z" fill="#BCBCBC"/>
<path d="M11.2152 19.9075C11.2152 19.9108 11.2155 19.9141 11.2163 19.9175H11.1302C11.1297 19.9141 11.1295 19.9108 11.1295 19.9075C11.1581 19.8824 11.1866 19.8824 11.2152 19.9075Z" fill="#BCBCBC"/>
<path d="M2.26111 11.887L2.25599 11.8865L2.25113 11.8881V11.8143C2.25471 11.8138 2.25804 11.8136 2.26163 11.8138C2.28365 11.8384 2.28416 11.863 2.26111 11.887Z" fill="#BEBEBE"/>
<path d="M2.25113 12.0349C2.25469 12.0352 2.25824 12.0354 2.2618 12.0357C2.28086 12.0563 2.28111 12.0766 2.26104 12.0967L2.25596 12.0977L2.25113 12.0959V12.0349Z" fill="#BEBEBE"/>
<path d="M2.26138 12.0973C2.26138 12.0769 2.2619 12.0564 2.26215 12.0359C2.26215 11.9862 2.26164 11.9365 2.26138 11.8869C2.26138 11.8625 2.2619 11.838 2.2619 11.8136C2.29236 11.4905 2.34588 11.173 2.51691 10.8891C2.74734 10.5066 3.09273 10.2797 3.51494 10.1589C3.5303 10.1545 3.54643 10.154 3.56589 10.1512C3.50521 9.99758 3.44248 9.84728 3.3859 9.69469C3.22587 9.26352 3.09145 8.82493 3.01772 8.3697C2.93732 7.8735 2.92221 7.37499 3.08992 6.89672C3.28758 6.33241 3.66472 5.92403 4.25463 5.75633C4.66224 5.64034 5.06499 5.70384 5.45544 5.85465C5.75808 5.97166 6.02871 6.14192 6.26375 6.36442C6.4079 6.50114 6.51774 6.66859 6.64217 6.82272C6.90947 7.15352 7.1737 7.48663 7.43921 7.81896C7.44408 7.82511 7.44997 7.83023 7.45995 7.84072C7.49196 7.77083 7.52166 7.70502 7.55238 7.63974C8.10824 6.46043 8.98055 5.58632 10.1263 4.97849C10.8389 4.60058 11.5978 4.35658 12.3902 4.21268C12.8337 4.13229 13.2802 4.07724 13.7308 4.08236C14.9099 4.09567 16.0336 4.35427 17.0972 4.86583C17.8031 5.20559 18.4386 5.64623 18.9862 6.20798C19.7461 6.98735 20.2564 7.90601 20.5132 8.96447C20.5949 9.30065 20.6481 9.64143 20.6717 9.98657C20.6743 10.0245 20.6876 10.0324 20.7229 10.0344C21.0422 10.0529 21.3392 10.1404 21.6165 10.3038C21.7885 10.4049 21.7921 10.6136 21.6295 10.7327C21.3161 10.9621 21.0015 11.1897 20.686 11.4158C20.6476 11.4432 20.63 11.4736 20.6241 11.5195C20.5488 12.0978 20.4328 12.667 20.2428 13.2195C20.1279 13.5537 19.9919 13.8786 19.8327 14.194C19.816 14.2268 19.8112 14.2562 19.8188 14.2931C19.8363 14.3771 19.8439 14.4629 19.847 14.5489C19.8834 15.6063 19.8583 16.6643 19.8621 17.722C19.8647 18.4517 19.2487 19.0188 18.5036 18.986C17.8899 18.9591 17.3629 18.4563 17.3051 17.8436C17.29 17.6823 17.3007 17.5204 17.2971 17.3591C17.2966 17.3374 17.2971 17.3156 17.2971 17.2813C17.1845 17.3771 17.081 17.4651 16.9776 17.553C16.3677 18.0717 15.7299 18.5513 15.0279 18.9407C14.2836 19.3537 13.4973 19.6512 12.6583 19.8033C12.3441 19.8601 12.0271 19.8934 11.7084 19.9077C11.6797 19.9077 11.6513 19.9077 11.6226 19.9075H11.2155C11.1868 19.9075 11.1584 19.9075 11.1297 19.9075C9.61578 19.8409 8.26314 19.3171 7.03263 18.4542C6.13138 17.8221 5.35405 17.0614 4.70167 16.174C4.68682 16.1537 4.66941 16.1376 4.64944 16.123C3.83422 15.5367 3.2397 14.7706 2.80495 13.8714C2.60242 13.4528 2.43754 13.0221 2.33282 12.569C2.29697 12.4135 2.27214 12.2563 2.2619 12.0968L2.26138 12.0973Z" fill="#202020"/>
<path d="M7.7283 13.7888C7.75826 13.7949 7.78386 13.8467 7.80972 13.819C7.83251 13.7947 7.79974 13.7555 7.78335 13.7258C7.76543 13.6933 7.7365 13.67 7.70782 13.6467C7.48968 13.4695 7.27153 13.2918 7.05339 13.1144C7.05262 13.0906 7.06722 13.098 7.07976 13.1013C7.26334 13.1305 7.44641 13.1625 7.6328 13.1687C7.80511 13.1743 7.97589 13.1694 8.14539 13.0947C8.08035 13.0706 8.01788 13.0696 7.95771 13.0591C7.25899 12.9385 6.64347 12.6394 6.09171 12.1993C5.69281 11.8811 5.36406 11.5014 5.08626 11.0753C4.87887 10.7571 4.66277 10.4442 4.48534 10.107C4.28512 9.72677 4.16043 9.31941 4.04393 8.90847C3.94869 8.5723 3.85907 8.23535 3.81606 7.8874C3.78585 7.64339 3.79251 7.40144 3.84935 7.16256C3.92411 6.84789 4.25824 6.56906 4.58263 6.54653C4.78542 6.53245 4.98128 6.56292 5.16896 6.64255C5.16025 6.65663 5.14515 6.65663 5.13132 6.65919C4.96029 6.69043 4.86786 6.82177 4.89986 6.99357C4.94416 7.23271 5.07166 7.41911 5.26779 7.56044C5.39965 7.65543 5.54047 7.73378 5.69614 7.78293C5.90762 7.84976 6.06304 7.99417 6.20565 8.15419C6.38488 8.35569 6.56205 8.55924 6.7359 8.7656C6.98503 9.06107 7.23953 9.35167 7.49172 9.64432C7.81459 10.0192 8.14078 10.3914 8.45033 10.7775C8.76756 11.1736 9.06917 11.5812 9.3567 11.9996C9.6327 12.4011 9.89591 12.8102 10.1435 13.2296C10.3143 13.5189 10.4625 13.8195 10.5934 14.1288C10.598 14.1439 10.6021 14.159 10.5987 14.1751C10.5839 14.212 10.5565 14.2404 10.5309 14.2691C10.2925 14.5326 10.0178 14.7492 9.70286 14.9148C9.22228 15.1675 8.71046 15.3173 8.17201 15.3749C7.98511 15.3949 7.79743 15.4092 7.60899 15.4021C7.02446 15.3801 6.46194 15.259 5.92299 15.0295C5.49694 14.8483 5.10085 14.6166 4.73728 14.3295C4.4943 14.1378 4.27257 13.9232 4.06442 13.6943C3.79763 13.4006 3.5695 13.0791 3.37849 12.7319C3.28018 12.5529 3.18339 12.3726 3.11503 12.1788C3.10812 12.1594 3.10889 12.1386 3.09916 12.1205C3.07381 11.9187 3.06408 11.7154 3.12732 11.5206C3.21386 11.2545 3.37977 11.0592 3.67166 11.01C3.82118 10.9849 3.96738 11.0123 4.10564 11.0763C4.09309 11.0986 4.06902 11.1004 4.04829 11.1078C3.93128 11.1501 3.87239 11.2548 3.90286 11.3756C3.93102 11.487 3.99324 11.581 4.06698 11.667C4.17426 11.792 4.29178 11.9041 4.44489 11.9732C4.50685 12.0011 4.57239 12.0173 4.63743 12.0347C4.75418 12.0659 4.86786 12.1056 4.97872 12.154C5.06706 12.1927 5.13132 12.2628 5.20378 12.3222C5.64647 12.6848 6.11681 13.0051 6.6212 13.2762C6.94765 13.4518 7.28408 13.6047 7.62742 13.7432C7.66148 13.757 7.69374 13.7752 7.72805 13.7885L7.7283 13.7888Z" fill="#FE0079"/>
<path d="M19.6557 9.01264C19.7267 9.23232 19.7658 9.45865 19.7996 9.68601C19.816 9.79509 19.8245 9.90518 19.8388 10.0145C19.8437 10.0516 19.8365 10.0655 19.7948 10.0731C19.19 10.182 18.6001 10.3427 18.0504 10.6236C17.7519 10.7762 17.4807 10.9688 17.2874 11.2522C17.2621 11.2896 17.2385 11.328 17.2234 11.3705C17.2032 11.4271 17.1812 11.4893 17.2352 11.5359C17.2884 11.5822 17.3547 11.5697 17.4144 11.5454C17.4971 11.5113 17.5775 11.4716 17.6589 11.4342C17.7206 11.5361 17.8174 11.5364 17.9173 11.5208C18.1234 11.4883 18.3141 11.4086 18.5036 11.3259C18.7396 11.223 18.9693 11.1052 19.2108 11.0146C19.6337 10.8558 20.0698 10.7493 20.5168 10.6861C20.5429 10.6825 20.5701 10.6884 20.5957 10.6782C20.6149 10.6776 20.6348 10.6718 20.6622 10.6866C20.6248 10.7079 20.5926 10.7263 20.5601 10.7447C20.3668 10.8331 20.1645 10.8986 19.9694 10.9826C19.5421 11.1669 19.1355 11.3892 18.7402 11.6337C18.31 11.8997 17.8983 12.1918 17.5053 12.5104C17.248 12.7188 16.995 12.9323 16.7515 13.1568C16.6207 13.2774 16.4896 13.397 16.3623 13.5214C16.2622 13.6195 16.1381 13.6016 16.0723 13.4779C15.9593 13.2654 15.8982 13.038 15.891 12.7966C15.881 12.464 15.9432 12.1458 16.0799 11.8426C16.1363 11.7177 16.2059 11.6001 16.282 11.508C16.1411 11.595 16.0321 11.7358 15.9396 11.892C15.9294 11.9094 15.9258 11.9368 15.8956 11.9343C15.8948 11.9343 15.8935 11.9315 15.8933 11.9299C15.8933 11.9279 15.8938 11.9258 15.8941 11.9238C15.9573 11.6275 15.998 11.3285 16.0129 11.0261C16.0431 10.4193 15.9232 9.84476 15.6434 9.30452C15.639 9.29607 15.6303 9.28967 15.6237 9.28224C15.6052 9.2761 15.6004 9.26048 15.5968 9.24435C15.5195 8.89563 15.3587 8.58275 15.171 8.28396C15.0637 8.11344 15.0753 7.93959 15.1157 7.75908C15.1329 7.68304 15.1684 7.61314 15.2058 7.54478C15.2322 7.49664 15.2688 7.4695 15.3254 7.46054C15.5246 7.42956 15.7115 7.36453 15.8687 7.23446C15.9942 7.13051 16.1084 7.01734 16.1391 6.84503C16.1596 6.72981 16.1288 6.62612 16.0807 6.52524C16.04 6.43998 16.0415 6.4323 16.1276 6.39389C16.2735 6.3286 16.4266 6.29762 16.5864 6.29609C16.8288 6.29378 17.0688 6.31196 17.3025 6.38058C17.4966 6.43742 17.6748 6.52857 17.8448 6.63585C18.1262 6.81354 18.385 7.01965 18.615 7.26083C18.8902 7.54939 19.1242 7.86867 19.316 8.21892C19.4322 8.43092 19.5372 8.64753 19.6097 8.87873C19.6204 8.89665 19.6176 8.91842 19.6268 8.93685C19.6309 8.94146 19.6353 8.94581 19.6394 8.95042C19.6378 8.9727 19.6435 8.99318 19.6552 9.01213L19.6557 9.01264Z" fill="#FEC100"/>
<path d="M15.3532 13.2878C15.4375 13.7264 15.6221 14.115 15.9291 14.4422C16.0627 14.5846 16.2186 14.6985 16.3861 14.7981C16.405 14.8314 16.3871 14.8624 16.3771 14.8924C16.2919 15.1522 16.1733 15.3962 16.0281 15.628C15.8307 15.9431 15.6049 16.2358 15.3345 16.4918C15.1366 16.6792 14.9251 16.8503 14.7024 17.0072C14.4361 17.1949 14.1604 17.367 13.8651 17.5062C13.3505 17.749 12.8131 17.9121 12.2475 17.9848C11.9415 18.0239 11.6345 18.0309 11.3288 18.0158C10.7843 17.9889 10.2545 17.8777 9.74218 17.6883C9.52327 17.6074 9.30974 17.5132 9.1026 17.4054C9.07469 17.3908 9.03142 17.381 9.03347 17.3444C9.03526 17.3116 9.07751 17.3068 9.10491 17.295C9.51713 17.1145 9.88659 16.8697 10.2248 16.5732C10.6017 16.243 10.8219 15.821 10.9653 15.3514C11.0203 15.1712 11.0608 14.9873 11.0897 14.8012C11.0992 14.7398 11.1232 14.7272 11.1778 14.7585C11.4264 14.9003 11.6965 14.9548 11.9794 14.9533C12.3643 14.9512 12.7483 14.9341 13.1262 14.8565C13.6839 14.7421 14.1732 14.4911 14.5995 14.1135C14.8665 13.8772 15.0977 13.6117 15.2851 13.3083C15.2938 13.2944 15.3025 13.2806 15.3156 13.2701C15.3402 13.2507 15.3461 13.2699 15.3525 13.288L15.3532 13.2878Z" fill="#FE0079"/>
<path d="M15.3533 13.2877C15.3328 13.2572 15.3244 13.2766 15.3126 13.2958C15.2511 13.3972 15.1838 13.4943 15.1124 13.5888C14.8924 13.8786 14.6336 14.1282 14.3394 14.3418C13.9873 14.5973 13.5979 14.7681 13.1742 14.8628C13.0131 14.8989 12.8505 14.9209 12.6859 14.9345C12.4317 14.9552 12.1777 14.9762 11.9224 14.9688C11.6538 14.9611 11.3965 14.9076 11.1635 14.7658C11.1261 14.743 11.1118 14.7501 11.1049 14.7955C11.0235 15.3262 10.8624 15.8273 10.5372 16.2636C10.3688 16.4899 10.1527 16.6676 9.92813 16.835C9.66185 17.0335 9.37637 17.1989 9.06913 17.3261C9.05965 17.33 9.05095 17.3353 9.03712 17.3425C9.053 17.363 9.07374 17.373 9.09422 17.3835C9.48391 17.5847 9.88998 17.7432 10.3165 17.8469C10.5716 17.9089 10.8299 17.9516 11.0913 17.9803C11.3648 18.0105 11.6385 18.0113 11.9114 17.999C12.2696 17.9829 12.6232 17.9214 12.9691 17.8246C13.304 17.7312 13.6276 17.6073 13.9389 17.4516C14.2854 17.2785 14.6067 17.0665 14.9124 16.8299C15.0852 16.6963 15.2504 16.5539 15.4048 16.399C15.6667 16.1356 15.8856 15.8393 16.0738 15.52C16.2079 15.2927 16.318 15.0541 16.3861 14.7978C16.6568 14.937 16.9471 14.9923 17.2487 14.9949C17.2864 14.9952 17.2981 15.0064 17.2974 15.0438C17.2948 15.1624 17.2953 15.2806 17.2948 15.3992C17.1338 15.4501 17.0621 15.5871 16.9822 15.7185C16.7799 16.0511 16.5536 16.367 16.2947 16.6581C15.8328 17.1776 15.3031 17.6131 14.6912 17.9468C14.2897 18.1657 13.8744 18.3533 13.4394 18.4947C13.0805 18.6114 12.7123 18.6875 12.3372 18.7305C12.1749 18.7492 12.0125 18.7681 11.8487 18.7674C11.8182 18.7663 11.788 18.7679 11.7585 18.7773C11.6546 18.7845 11.5506 18.785 11.4469 18.7773C11.4137 18.7663 11.3791 18.7668 11.3448 18.7676C10.9323 18.7604 10.5275 18.6928 10.125 18.6086C9.74993 18.53 9.38405 18.4202 9.02688 18.2819C8.60826 18.1198 8.20859 17.9194 7.82761 17.682C7.58949 17.5338 7.36187 17.3709 7.14424 17.1938C7.11992 17.174 7.08715 17.1587 7.09022 17.1185C7.25255 17.1354 7.41385 17.162 7.5772 17.172C8.57114 17.2324 9.47853 17.022 10.2341 16.3299C10.3885 16.1886 10.5324 16.0383 10.6601 15.8726C10.7713 15.7285 10.8286 15.5559 10.9075 15.3946C10.9431 15.3216 10.9833 15.2497 10.9979 15.1677C11.0094 15.103 10.9976 15.0484 10.9479 15.0005C10.8729 14.9286 10.8133 14.8413 10.7282 14.7786C10.7047 14.7611 10.6814 14.7455 10.6509 14.7455C10.5923 14.7197 10.5572 14.7471 10.5229 14.7937C10.2687 15.1396 9.95732 15.4227 9.58555 15.6376C9.17462 15.8752 8.73346 16.0229 8.26133 16.0787C8.0903 16.0989 7.9185 16.111 7.74721 16.1005C7.36239 16.0767 6.98243 16.0201 6.61246 15.9082C6.22072 15.7899 5.84665 15.6299 5.4987 15.4143C5.19555 15.2266 4.91621 15.0052 4.63432 14.7875C4.45611 14.6498 4.2815 14.5079 4.1079 14.3648C4.08102 14.3425 4.0631 14.3118 4.03237 14.2941C3.87465 14.0847 3.73921 13.8614 3.62527 13.6259C3.45629 13.2766 3.29191 12.9251 3.18105 12.5521C3.13906 12.4112 3.1091 12.2674 3.10014 12.1199C3.18028 12.3029 3.26375 12.4847 3.35823 12.6609C3.51672 12.9563 3.70362 13.2331 3.91408 13.4943C4.07718 13.6968 4.25717 13.8837 4.44715 14.0601C4.72444 14.3174 5.0281 14.5402 5.35685 14.7289C5.6751 14.9117 6.00744 15.0615 6.35719 15.1716C6.62756 15.2566 6.9028 15.3193 7.18521 15.35C7.36751 15.37 7.55006 15.3879 7.73338 15.3851C8.12589 15.3785 8.51276 15.3283 8.89041 15.221C9.29572 15.106 9.67773 14.9388 10.0254 14.6984C10.2402 14.5499 10.4259 14.3704 10.591 14.1692C10.6007 14.138 10.5867 14.11 10.5787 14.0814C10.5685 14.0222 10.5531 13.9644 10.5316 13.908C10.5239 13.8878 10.5129 13.8676 10.5219 13.8445C10.5398 13.8235 10.5562 13.8402 10.5695 13.8491C10.6051 13.873 10.6443 13.8904 10.6804 13.9134C10.7049 13.9313 10.7336 13.9416 10.7597 13.9564C11.1763 14.2061 11.6236 14.362 12.108 14.414C12.7512 14.4828 13.3639 14.3871 13.9389 14.0857C14.4441 13.821 14.8515 13.4474 15.1582 12.9658C15.201 12.8985 15.247 12.8334 15.2875 12.7646C15.2985 12.7456 15.3105 12.7249 15.3377 12.7251C15.3162 12.9128 15.3236 13.1 15.3535 13.2864L15.3533 13.2877Z" fill="#C10065"/>
<path d="M8.7109 9.86157C8.60644 9.72945 8.50659 9.59452 8.42798 9.44474C8.39188 9.34898 8.39572 9.24913 8.39751 9.14953C8.40033 9.05941 8.39803 8.96903 8.39854 8.8789C8.40135 8.57038 8.45154 8.26825 8.53885 7.97355C8.58186 7.82838 8.6725 7.70292 8.74828 7.57235C8.76672 7.5406 8.78413 7.50808 8.80487 7.47787C8.82023 7.46174 8.83867 7.44817 8.84942 7.42768C9.39273 6.73357 10.0625 6.19768 10.8657 5.8336C11.3107 5.63184 11.778 5.49409 12.256 5.3945C12.5786 5.32741 12.9045 5.28491 13.2338 5.26289C13.4814 5.24625 13.7292 5.24471 13.9758 5.25624C14.5252 5.28158 15.0645 5.37478 15.5921 5.53301C15.956 5.64208 16.306 5.78418 16.6455 5.95291C16.7845 6.02204 16.9215 6.09604 17.0536 6.17822C17.0713 6.18923 17.1017 6.19768 17.0951 6.2238C17.0889 6.24735 17.0595 6.24787 17.0377 6.25145C16.9891 6.25939 16.9397 6.25427 16.8908 6.2558C16.7438 6.26016 16.5963 6.24607 16.4496 6.26681C15.9078 6.34311 15.5005 6.614 15.2437 7.10073C15.1236 7.32834 15.0583 7.57132 15.0509 7.82966C15.0493 7.88445 15.034 7.93873 15.0445 7.99455C15.047 8.00812 15.0483 8.02553 15.0312 8.03142C15.0153 8.0368 15.0051 8.02297 14.9956 8.01273C14.9449 7.95666 14.9019 7.89418 14.8517 7.83734C14.5706 7.5173 14.2433 7.25716 13.8652 7.05925C13.5057 6.87106 13.1255 6.75277 12.7256 6.69235C12.5737 6.66956 12.4206 6.6629 12.2675 6.65573C12.1945 6.64498 12.1213 6.64703 12.0483 6.65445C11.8381 6.68313 11.6266 6.70336 11.4193 6.75328C11.0762 6.83598 10.7554 6.96989 10.454 7.15168C10.2167 7.29506 10.0013 7.4666 9.807 7.66452C9.61138 7.86423 9.44573 8.08647 9.30926 8.33047C9.29057 8.36401 9.27751 8.4019 9.24576 8.42725C9.1052 8.57191 9.00791 8.74423 8.92879 8.92704C8.82279 9.17129 8.76646 9.4281 8.7511 9.69412C8.74854 9.73893 8.73881 9.78322 8.73702 9.82828C8.73651 9.84288 8.73523 9.86285 8.7109 9.86157Z" fill="#FE0079"/>
<path d="M15.3374 12.7266C15.2862 12.8026 15.2334 12.8776 15.184 12.9549C14.7277 13.6706 14.0907 14.1399 13.2706 14.3591C12.9665 14.4402 12.6549 14.4653 12.342 14.4502C11.8258 14.4254 11.3337 14.3063 10.8834 14.0421C10.8396 14.0162 10.7937 13.9934 10.7489 13.9694C10.7331 13.9443 10.7031 13.9389 10.6819 13.9212C10.6163 13.8849 10.5569 13.8396 10.497 13.7953C10.4816 13.7809 10.4724 13.7625 10.4637 13.7441C10.2965 13.3879 10.0925 13.0522 9.89096 12.715C9.81338 12.5852 9.74092 12.4521 9.66821 12.3195C9.66129 12.3067 9.65464 12.2941 9.65643 12.279C9.64952 12.1843 9.61034 12.098 9.58243 12.0091C9.40039 11.432 9.20913 10.8583 8.95566 10.3073C8.93441 10.2609 8.91264 10.2148 8.89139 10.1688C8.84402 10.0062 8.8599 9.84231 8.88013 9.67819C8.88806 9.64849 8.89728 9.61905 8.90266 9.58858C8.93953 9.41729 8.99304 9.25061 9.04911 9.08444C9.055 9.06703 9.06114 9.04962 9.07676 9.03784C9.12131 9.04629 9.10569 9.08111 9.10288 9.10544C9.08265 9.2821 9.06857 9.45902 9.07087 9.63722C9.07651 10.0812 9.15716 10.5111 9.31232 10.9266C9.48181 11.3813 9.72428 11.7948 10.0333 12.1676C10.5359 12.7734 11.1775 13.1347 11.9605 13.2345C12.755 13.3359 13.4908 13.1649 14.1611 12.7304C14.5905 12.4521 14.9292 12.0839 15.1758 11.6335C15.4121 11.2016 15.5606 10.7413 15.6231 10.2527C15.6264 10.2264 15.6334 10.2005 15.6387 10.1744C15.65 10.1329 15.6431 10.0907 15.6444 10.0489C15.6474 9.85511 15.6377 9.6618 15.6205 9.46901C15.618 9.44084 15.6141 9.4114 15.638 9.38861C15.7158 9.596 15.7619 9.81158 15.7831 10.0308C15.8582 10.8017 15.7099 11.5419 15.4598 12.2662C15.4078 12.417 15.3589 12.5678 15.3374 12.7263V12.7266Z" fill="#CB6F00"/>
<path d="M9.08364 9.03662C9.01656 9.21763 8.96407 9.40326 8.91671 9.59017C8.89776 9.59042 8.89699 9.57532 8.89289 9.56277C8.89033 9.43322 8.91978 9.30802 8.94666 9.18307C8.99633 8.95315 9.07494 8.73296 9.17428 8.51993C9.1922 8.48153 9.21294 8.44389 9.24341 8.41342C9.38116 8.16404 9.53683 7.92695 9.73321 7.71931C10.2745 7.14655 10.9353 6.80039 11.7144 6.68108C11.8214 6.66469 11.9295 6.65624 12.037 6.64421C12.1151 6.63397 12.1932 6.63986 12.2713 6.64114C12.5706 6.64933 12.8663 6.68441 13.1554 6.7648C13.9061 6.97373 14.5278 7.37571 15.0022 7.99839C15.0094 8.0076 15.0129 8.02117 15.0306 8.02348C15.0211 7.76872 15.0549 7.52062 15.1438 7.28097C15.3801 6.64446 15.961 6.23967 16.6401 6.23967C16.7891 6.23967 16.9378 6.23967 17.0955 6.23967C17.0822 6.20639 17.0612 6.20152 17.0459 6.1923C16.3305 5.766 15.5614 5.48846 14.7397 5.35378C14.2187 5.26827 13.6949 5.23857 13.169 5.28312C12.1318 5.37068 11.145 5.62851 10.2512 6.18155C9.71016 6.51645 9.2493 6.94198 8.85603 7.44176C8.84399 7.44381 8.84092 7.43613 8.83913 7.42666C8.87676 7.31861 8.94615 7.22925 9.01298 7.13964C9.18606 6.90895 9.37476 6.69132 9.57626 6.48495C9.90859 6.16337 10.2832 5.89837 10.6836 5.66948C11.3611 5.28209 12.087 5.03271 12.8602 4.92876C13.9816 4.77821 15.068 4.92876 16.1203 5.33535C16.7555 5.58063 17.3564 5.88941 17.8893 6.31955C18.7145 6.98576 19.29 7.823 19.608 8.83588C19.6124 8.84945 19.6147 8.86354 19.6178 8.87736C19.6231 8.88965 19.6172 8.89247 19.6062 8.89068C19.3817 8.29027 19.0591 7.74952 18.6138 7.28635C18.2812 6.94019 17.9108 6.64114 17.4627 6.45756C17.0894 6.3047 16.6992 6.27219 16.3021 6.35079C16.2299 6.36513 16.1628 6.39713 16.0957 6.4276C16.0683 6.43989 16.0563 6.44937 16.0763 6.4847C16.2155 6.73152 16.1825 6.94966 15.9841 7.15321C15.7995 7.34268 15.5726 7.44356 15.314 7.47914C15.2784 7.48401 15.2544 7.49656 15.2352 7.52728C15.1207 7.70958 15.08 7.90698 15.1115 8.11949C15.1166 8.15431 15.1312 8.18478 15.1497 8.21499C15.325 8.50355 15.4889 8.79748 15.5829 9.12469C15.598 9.17718 15.6105 9.23044 15.6244 9.28344C15.6151 9.3203 15.6331 9.35385 15.6379 9.38892C15.6477 9.61116 15.6663 9.83315 15.6594 10.0562C15.6377 10.0595 15.6338 10.0418 15.6267 10.0282C15.6046 9.79833 15.5749 9.56943 15.5258 9.34335C15.4515 9.00154 15.3135 8.68661 15.1315 8.38961C14.994 8.16532 14.8324 7.95896 14.6463 7.7741C14.4338 7.56338 14.1977 7.38057 13.9371 7.23079C13.5144 6.98781 13.0622 6.837 12.5773 6.78247C12.3939 6.76173 12.2101 6.752 12.0263 6.76045C11.6279 6.77863 11.2446 6.86517 10.8815 7.03313C10.5198 7.20058 10.1933 7.41898 9.91422 7.70548C9.56986 8.05907 9.30767 8.46514 9.13843 8.92985C9.12461 8.96749 9.11872 9.00973 9.08364 9.03687V9.03662Z" fill="#FEFEFE"/>
<path d="M18.7109 13.3961C18.9247 13.6198 19.0627 13.8846 19.1364 14.1839C19.1843 14.3782 19.1858 14.5764 19.1858 14.7748C19.1866 15.7198 19.1874 16.6649 19.1879 17.6099C19.1879 17.8754 19.0737 18.0779 18.8348 18.1944C18.6085 18.305 18.3844 18.2805 18.1816 18.1297C18.027 18.0147 17.9466 17.8554 17.9356 17.6629C17.9318 17.5956 17.9335 17.528 17.9335 17.4604C17.9335 16.6114 17.9341 15.7626 17.933 14.9136C17.933 14.7646 17.9487 14.6161 17.9366 14.4665C17.9046 14.0687 17.7441 13.7363 17.4427 13.4731C17.432 13.4639 17.4225 13.4534 17.4125 13.4434C17.4115 13.4424 17.4117 13.4393 17.4125 13.438C17.4135 13.4365 17.4158 13.4357 17.4176 13.4347C17.5162 13.3781 17.6281 13.3761 17.7356 13.3571C17.8096 13.3441 17.8854 13.3425 17.9599 13.3313C17.9968 13.33 18.0337 13.3297 18.0705 13.3305C18.1307 13.3323 18.1906 13.3318 18.2508 13.3305C18.3837 13.3272 18.5145 13.3464 18.6453 13.3664C18.6704 13.3702 18.6914 13.3815 18.7114 13.3958L18.7109 13.3961Z" fill="#FD018A"/>
<path d="M7.08973 17.1194C7.18421 17.2221 7.30019 17.2989 7.41106 17.3809C7.73443 17.6205 8.07803 17.8287 8.43905 18.0066C8.86791 18.2178 9.31316 18.3871 9.77633 18.5087C10.1151 18.5978 10.4574 18.6662 10.8041 18.711C10.981 18.7338 11.1592 18.7601 11.3389 18.7519C11.3704 18.7681 11.4063 18.7484 11.4377 18.7635C11.5478 18.7635 11.6577 18.7635 11.7678 18.7635C11.7952 18.7489 11.8269 18.7676 11.8543 18.7522C12.1662 18.745 12.4737 18.703 12.7801 18.6464C13.1688 18.5748 13.5431 18.4572 13.9072 18.3067C14.4336 18.0893 14.9327 17.8215 15.3894 17.4794C15.6593 17.2774 15.9074 17.0495 16.1394 16.805C16.4958 16.4292 16.7948 16.01 17.058 15.565C17.1125 15.4729 17.1886 15.4163 17.2943 15.3999C17.2954 15.6147 17.2959 15.8295 17.2977 16.0443C17.2979 16.0825 17.2677 16.1022 17.2495 16.1253C17.1899 16.2013 17.1213 16.2707 17.0578 16.3439C16.8982 16.5277 16.718 16.6911 16.5485 16.8652C16.4525 16.9638 16.3447 17.0488 16.241 17.1386C16.1317 17.2334 16.0182 17.3222 15.9053 17.4124C15.7445 17.5406 15.5753 17.6566 15.4045 17.7703C15.1695 17.9267 14.9283 18.0724 14.6769 18.202C14.2045 18.4452 13.7316 18.6864 13.2218 18.8451C12.9194 18.9394 12.6117 19.0087 12.2975 19.05C12.2612 19.0548 12.2256 19.0617 12.1887 19.0607C12.1685 19.0712 12.1449 19.0587 12.1247 19.0699C12.1055 19.071 12.086 19.0722 12.0668 19.0733C12.0458 19.0822 12.0228 19.0722 12.0018 19.0812C11.9741 19.0825 11.9465 19.0838 11.9186 19.0853C11.8566 19.0978 11.7934 19.0809 11.7314 19.0945C11.5798 19.1004 11.4283 19.1009 11.2767 19.094C11.2355 19.0822 11.1925 19.0973 11.1512 19.0853C11.1233 19.0843 11.0957 19.0832 11.0678 19.0822C11.0427 19.071 11.015 19.083 10.9897 19.0738C10.9666 19.0725 10.9433 19.071 10.9203 19.0697C10.9001 19.0589 10.8765 19.071 10.8563 19.0607C10.6479 19.0502 10.4441 19.0093 10.2405 18.9667C9.805 18.8761 9.38331 18.7407 8.97339 18.5684C8.67153 18.4414 8.37939 18.2952 8.09391 18.1341C7.72138 17.9239 7.36958 17.6832 7.03187 17.4223C6.87313 17.2997 6.7172 17.1727 6.57817 17.0201C6.74844 17.0534 6.9187 17.0867 7.08896 17.12L7.08973 17.1194Z" fill="#E50071"/>
<path d="M15.8946 11.9252C15.932 11.9016 15.9405 11.8581 15.9627 11.8243C16.0616 11.6758 16.1742 11.5424 16.3481 11.4561C16.1338 11.7035 16.016 11.9838 15.952 12.2893C15.8678 12.692 15.888 13.0838 16.0777 13.4571C16.1443 13.5879 16.2546 13.6066 16.3583 13.5052C16.7014 13.1698 17.0622 12.8541 17.4337 12.5502C17.7878 12.2603 18.1557 11.9895 18.5403 11.7419C18.889 11.5173 19.2456 11.3056 19.6197 11.1258C19.9106 10.986 20.2068 10.8591 20.5133 10.7564C20.5286 10.7513 20.5448 10.749 20.5604 10.7451C20.372 10.8672 20.1827 10.9884 19.9953 11.1118C19.3688 11.5245 18.742 11.9367 18.1595 12.4117C17.7629 12.735 17.3881 13.082 17.0317 13.4489C16.9966 13.485 16.9856 13.5208 17.0191 13.562C17.2181 13.8073 17.2903 14.0925 17.2847 14.4026C17.2836 14.4638 17.288 14.5252 17.2934 14.5862C17.2972 14.6305 17.2806 14.6423 17.2381 14.6384C16.9295 14.6113 16.6484 14.5109 16.3998 14.3253C15.9973 14.0247 15.7858 13.6153 15.7221 13.1234C15.6916 12.8884 15.6998 12.6526 15.7513 12.4224C15.7799 12.2944 15.8293 12.17 15.8631 12.0419C15.8734 12.0028 15.8839 11.9639 15.8941 11.9247L15.8946 11.9252Z" fill="#CB6F00"/>
<path d="M9.6565 12.2787C9.87899 12.6758 10.1248 13.0596 10.3393 13.4613C10.3967 13.5689 10.4492 13.679 10.504 13.7878C10.5165 13.8042 10.5324 13.819 10.527 13.8428C10.5485 13.9227 10.59 13.997 10.5918 14.0822C10.5926 14.0999 10.6087 14.1211 10.5808 14.1327C10.2682 13.3878 9.82471 12.7186 9.37562 12.0529C8.83283 11.2479 8.21808 10.4992 7.58055 9.76851C7.12506 9.24619 6.67213 8.72157 6.22202 8.19465C6.05201 7.99596 5.85435 7.849 5.60446 7.76067C5.3602 7.67438 5.1482 7.53049 5.00584 7.30441C4.94465 7.20712 4.89857 7.10265 4.88448 6.98641C4.8745 6.90422 4.8914 6.82716 4.93236 6.75675C4.98485 6.66637 5.07446 6.64742 5.16945 6.64307C5.40757 6.73396 5.63288 6.84636 5.80519 7.04197C6.90999 8.2963 7.91954 9.62333 8.84179 11.0175C9.07939 11.3767 9.30982 11.7402 9.53488 12.1074C9.57149 12.1673 9.60836 12.2275 9.65675 12.2792L9.6565 12.2787Z" fill="#FEFEFE"/>
<path d="M4.03138 14.2954C4.07721 14.2995 4.09975 14.3392 4.12996 14.3643C4.46409 14.6419 4.8082 14.9063 5.15718 15.1647C5.40937 15.3513 5.67514 15.5139 5.96011 15.645C6.33802 15.8186 6.73001 15.9466 7.14146 16.0147C7.41952 16.0608 7.69809 16.0964 7.98024 16.0859C8.39758 16.0705 8.79956 15.9825 9.18489 15.8194C9.40944 15.7244 9.62195 15.6089 9.82038 15.4665C10.0948 15.2697 10.3294 15.0333 10.5281 14.7609C10.5721 14.7007 10.5887 14.6984 10.6499 14.7463C10.6151 14.756 10.5969 14.7814 10.5839 14.8131C10.3691 15.3429 9.99013 15.7187 9.49086 15.9835C9.15647 16.1607 8.80775 16.2935 8.43138 16.3486C8.1121 16.3954 7.79128 16.4059 7.47149 16.3737C6.35108 16.2608 5.40937 15.7723 4.6131 14.9893C4.397 14.777 4.20472 14.5435 4.03113 14.2949L4.03138 14.2954Z" fill="#FE007A"/>
<path d="M7.7283 13.7889C7.70398 13.7973 7.68426 13.7827 7.66404 13.7748C6.70671 13.3994 5.83081 12.8879 5.05118 12.2145C4.97283 12.1469 4.86837 12.1262 4.77313 12.0911C4.7255 12.0734 4.67609 12.0591 4.62642 12.0481C4.29843 11.9748 4.08259 11.761 3.9259 11.4799C3.81913 11.2884 3.89108 11.122 4.10589 11.0767C4.29126 11.1409 4.44105 11.259 4.58315 11.3898C5.11058 11.8758 5.63085 12.3707 6.20027 12.8082C6.60558 13.1198 7.05134 13.3705 7.48737 13.636C7.56853 13.6854 7.65533 13.7269 7.72856 13.7889H7.7283Z" fill="#FEFEFE"/>
<path d="M20.5965 10.6779C20.6013 10.7051 20.579 10.693 20.5696 10.6943C19.9717 10.7755 19.3949 10.9304 18.8467 11.1864C18.6232 11.2909 18.4009 11.3982 18.1659 11.4755C18.065 11.5088 17.9626 11.5367 17.8558 11.5423C17.8208 11.5441 17.7867 11.5403 17.7527 11.5318C17.7007 11.519 17.6633 11.4924 17.6595 11.4337C18.1884 11.1695 18.7238 10.9242 19.3091 10.8054C19.7124 10.7238 20.1179 10.6733 20.5294 10.6738C20.5516 10.6738 20.5739 10.6764 20.5965 10.6777V10.6779Z" fill="#FEFEFE"/>
<path d="M9.57669 6.48463C9.46096 6.62084 9.34549 6.75757 9.22899 6.89327C9.0851 7.06097 8.94888 7.23405 8.84621 7.4312C8.8393 7.44912 8.83316 7.4673 8.81805 7.48061C8.7607 7.58098 8.70565 7.68263 8.64574 7.78146C8.55433 7.93226 8.51541 8.10048 8.48315 8.26998C8.44577 8.46712 8.4153 8.66555 8.41582 8.86705C8.40583 8.96102 8.40583 9.05524 8.41582 9.14921C8.40916 9.24804 8.42734 9.34584 8.42811 9.44442C8.29881 9.23831 8.1882 9.02221 8.09065 8.79971C8.04354 8.69218 8.03995 8.58669 8.09628 8.47148C8.46011 7.72718 8.94274 7.07147 9.54673 6.50486C9.55544 6.49666 9.5667 6.49129 9.57669 6.48438V6.48463Z" fill="#D4006B"/>
<path d="M19.6715 12.1851C19.5706 12.5781 19.4523 12.9611 19.2767 13.3047C19.1653 13.2015 19.0532 13.0976 18.941 12.9934C18.9351 12.9877 18.9305 12.9811 18.9249 12.9749C18.8911 12.9378 18.8274 12.9045 18.8317 12.8628C18.8353 12.828 18.8996 12.7988 18.938 12.7683C19.1825 12.5737 19.427 12.3794 19.6718 12.1848L19.6715 12.1851Z" fill="#CB6F00"/>
<path d="M9.24377 8.41284C9.12189 8.66222 9.02153 8.91928 8.96289 9.19145C8.93652 9.31486 8.9122 9.43878 8.90528 9.56526C8.89863 9.59676 8.90759 9.63004 8.89658 9.66128C8.87789 9.83026 8.87866 9.99925 8.8912 10.1685C8.83103 10.0661 8.77087 9.96391 8.71095 9.8615C8.73656 9.8108 8.72939 9.75396 8.73246 9.70122C8.75499 9.32382 8.85715 8.97177 9.05455 8.64916C9.1073 8.56314 9.16209 8.47685 9.24351 8.41284H9.24377Z" fill="#BE0064"/>
<path d="M18.0689 13.3489L17.9583 13.3497C17.9414 13.3397 17.9309 13.3251 17.9299 13.3057C17.9245 13.2063 17.924 13.107 17.9299 13.0079C17.9306 12.9938 17.9386 12.981 17.9457 12.9687C17.9575 12.949 17.9744 12.9582 17.989 12.9621C18.265 13.0363 18.5034 13.1751 18.7021 13.3807C18.7062 13.3848 18.708 13.3912 18.711 13.3966C18.559 13.3728 18.4071 13.3482 18.2525 13.3492C18.1913 13.3395 18.1298 13.3395 18.0686 13.3492L18.0689 13.3489Z" fill="#D60072"/>
<path d="M17.9456 12.968C17.9456 13.0715 17.9456 13.1749 17.9456 13.2786C17.9456 13.3029 17.9446 13.3275 17.9582 13.3493C17.7764 13.3674 17.5956 13.3936 17.4174 13.4348C17.5895 13.2747 17.7649 13.1183 17.9456 12.968Z" fill="#D60072"/>
<path d="M11.732 19.0937C11.7935 19.0717 11.8567 19.086 11.9192 19.0845C11.8575 19.1014 11.7945 19.0922 11.732 19.0937Z" fill="#C10065"/>
<path d="M11.1521 19.0842C11.1941 19.0842 11.2368 19.0737 11.2775 19.0929C11.2353 19.0949 11.1933 19.098 11.1521 19.0842Z" fill="#C10065"/>
<path d="M10.9905 19.073C11.0168 19.072 11.0442 19.0628 11.0686 19.0814C11.0422 19.083 11.0156 19.0853 10.9905 19.073Z" fill="#C10065"/>
<path d="M19.6555 9.0124C19.637 8.99538 19.6233 8.97709 19.6398 8.95117C19.6543 8.96921 19.655 8.99081 19.6555 9.0124Z" fill="#EBD9A0"/>
<path d="M19.6067 8.89017C19.6105 8.88585 19.6143 8.88153 19.6181 8.87695C19.6339 8.89499 19.6316 8.91583 19.6275 8.93692C19.6107 8.92548 19.6125 8.90617 19.6067 8.89017Z" fill="#FBEFC9"/>
<path d="M7.07961 13.1014C7.07097 13.1057 7.06208 13.1101 7.05344 13.1144C7.04455 13.1108 7.02956 13.1024 7.03464 13.0974C7.04836 13.0829 7.06538 13.0913 7.07987 13.1014H7.07961Z" fill="#C7005F"/>
<path d="M10.8573 19.0596C10.8789 19.0588 10.9015 19.0515 10.9208 19.0685C10.8989 19.0703 10.8773 19.0713 10.8573 19.0596Z" fill="#C10065"/>
<path d="M12.125 19.0695C12.1441 19.0522 12.1669 19.0596 12.1885 19.0603C12.1687 19.072 12.1469 19.071 12.125 19.0695Z" fill="#C10065"/>
<path d="M12.0023 19.0803C12.0221 19.0641 12.0447 19.0712 12.0665 19.0725C12.0462 19.0842 12.0241 19.0829 12.0023 19.0803Z" fill="#C10065"/>
<path d="M4.377 7.43728C4.24514 7.43831 4.14273 7.33769 4.14247 7.20634C4.14196 7.07832 4.24284 6.97616 4.3706 6.97463C4.50016 6.97309 4.60718 7.07806 4.60718 7.20608C4.60718 7.33257 4.50374 7.43626 4.37726 7.43728H4.377Z" fill="#FEFEFE"/>
<path d="M3.69004 11.7295C3.68952 11.8263 3.61655 11.8995 3.51977 11.8998C3.42581 11.8998 3.34746 11.8232 3.34644 11.7295C3.34516 11.6343 3.42606 11.5546 3.52284 11.5562C3.61886 11.5577 3.69029 11.632 3.68978 11.7295H3.69004Z" fill="#FEFEFE"/>
<path d="M5.18662 8.04493C5.25857 8.04416 5.31438 8.0987 5.31592 8.17116C5.31746 8.24361 5.26343 8.29943 5.19072 8.30071C5.11852 8.30199 5.0627 8.24745 5.06167 8.175C5.06065 8.10279 5.11544 8.04544 5.18662 8.04493Z" fill="#FEFDFD"/>
<path d="M10.5807 14.1327C10.5956 14.1184 10.5853 14.0984 10.5917 14.0823C10.6027 14.1117 10.614 14.1412 10.5904 14.1698C10.5871 14.1573 10.5838 14.145 10.5805 14.1325L10.5807 14.1327Z" fill="#FDC7E1"/>
<path d="M16.1038 9.01691C16.0908 8.74141 16.1325 8.427 16.2864 8.13384C16.3957 7.92517 16.547 7.759 16.7618 7.65556C16.8934 7.59206 17.1044 7.6786 17.1382 7.80995C17.1625 7.90392 17.1211 8.00812 17.0378 8.05779C16.8015 8.19861 16.6748 8.40524 16.6428 8.67894C16.6077 8.97773 16.6346 9.27448 16.6502 9.57225C16.6566 9.69233 16.6881 9.81113 16.6722 9.93224C16.6594 10.03 16.6133 10.111 16.5155 10.1404C16.4144 10.1709 16.3332 10.1217 16.2654 10.0482C16.1891 9.96552 16.1845 9.85876 16.1686 9.7566C16.1333 9.52821 16.1118 9.29855 16.1041 9.01742L16.1038 9.01691Z" fill="#202020"/>
<path d="M18.2105 7.63901C18.3188 7.63722 18.4084 7.67767 18.489 7.74168C18.7568 7.95496 18.9192 8.23865 19.0392 8.55281C19.1207 8.76557 19.1427 8.98884 19.1737 9.21108C19.2 9.40131 19.2249 9.5918 19.2533 9.78178C19.2751 9.92772 19.1678 10.0749 19.0236 10.0913C18.8984 10.1054 18.7847 9.99276 18.7686 9.84682C18.7277 9.47556 18.6949 9.10252 18.5876 8.74202C18.5077 8.47369 18.371 8.24531 18.1342 8.08503C18.0968 8.05968 18.0678 8.0246 18.0402 7.98876C17.9828 7.91425 17.9667 7.83334 18.01 7.74834C18.0515 7.66666 18.1239 7.63517 18.2102 7.63927L18.2105 7.63901Z" fill="#202020"/>
<path d="M15.4829 7.67847C15.5185 7.68359 15.5443 7.70893 15.5438 7.75067C15.5433 7.79317 15.5154 7.81801 15.4732 7.82082C15.4327 7.82364 15.4002 7.78677 15.4025 7.74529C15.4045 7.70637 15.4368 7.67719 15.4826 7.67872L15.4829 7.67847Z" fill="#FEFDF9"/>
<path d="M10.5269 13.8436C10.5141 13.8275 10.5052 13.8096 10.5039 13.7886C10.5648 13.8308 10.626 13.8728 10.6872 13.9151C10.69 13.9261 10.6883 13.9322 10.6752 13.9268C10.6258 13.8992 10.5764 13.8715 10.5272 13.8439L10.5269 13.8436Z" fill="#F9B806"/>
<path d="M10.6752 13.9263C10.6793 13.9225 10.6831 13.9186 10.6872 13.9146C10.709 13.9314 10.7412 13.9366 10.7492 13.9691C10.7246 13.9547 10.6998 13.9404 10.6752 13.9261V13.9263Z" fill="#ED9A0D"/>
<path d="M11.438 18.7633C11.405 18.7589 11.3697 18.7758 11.3392 18.7517C11.372 18.7563 11.4073 18.7402 11.438 18.7633Z" fill="#E40071"/>
<path d="M11.8543 18.7518C11.8279 18.7746 11.7967 18.7595 11.7678 18.7631C11.7941 18.7411 11.8254 18.7554 11.8543 18.7518Z" fill="#E50071"/>
<path d="M8.41567 9.14983C8.39621 9.05586 8.39621 8.96164 8.41567 8.86768C8.41567 8.96164 8.41567 9.05586 8.41567 9.14983Z" fill="#DA006D"/>
<path d="M12.2713 6.6406C12.1932 6.64163 12.1151 6.64265 12.037 6.64368C12.1149 6.62575 12.193 6.6278 12.2713 6.6406Z" fill="#FE613D"/>
<path d="M8.81805 7.47995C8.82746 7.46368 8.83686 7.44742 8.846 7.43091C8.84931 7.43421 8.85261 7.43777 8.85591 7.44107C8.84804 7.4586 8.83914 7.47512 8.81805 7.47995Z" fill="#F6AED2"/>
<path d="M9.08379 9.03652C9.25123 8.52905 9.52161 8.08406 9.89568 7.70257C10.3335 7.25604 10.8571 6.95468 11.4665 6.81975C12.2195 6.65307 12.9528 6.74115 13.6507 7.06555C14.4992 7.4601 15.0994 8.09584 15.434 8.97251C15.5641 9.31304 15.6161 9.67123 15.6404 10.0335C15.6493 10.0814 15.6639 10.1288 15.6504 10.1782C15.6038 10.595 15.4911 10.9932 15.3221 11.3769C15.1388 11.7928 14.8797 12.154 14.543 12.4577C14.2094 12.7585 13.8258 12.9756 13.3985 13.1152C13.0882 13.2163 12.7715 13.2721 12.4438 13.2773C11.9043 13.286 11.3945 13.1756 10.918 12.9221C10.5934 12.7496 10.3158 12.5176 10.0744 12.2406C9.81042 11.9382 9.59893 11.6017 9.42688 11.241C9.26788 10.9079 9.15957 10.5581 9.10222 10.1925C9.0633 9.9434 9.04666 9.69351 9.05716 9.44234C9.06177 9.32891 9.06791 9.21446 9.08891 9.10206C9.093 9.0803 9.0971 9.05751 9.08404 9.03652H9.08379Z" fill="#FEC100"/>
<path d="M15.6503 10.1786C15.6539 10.13 15.6314 10.0829 15.6403 10.0337C15.6467 10.0411 15.6529 10.0485 15.6593 10.056C15.6601 10.0972 15.6708 10.1389 15.6503 10.1784V10.1786Z" fill="#E4B57D"/>
<path d="M8.89663 9.66193C8.89561 9.62967 8.88946 9.5969 8.90534 9.56592C8.90918 9.57411 8.91302 9.5823 8.91686 9.5905C8.91225 9.61482 8.91353 9.64094 8.89663 9.66193Z" fill="#ECC0BA"/>
<path d="M18.6231 14.7982C18.631 14.5964 18.6046 14.3716 18.5604 14.1486C18.5419 14.0556 18.5048 13.9694 18.4523 13.8905C18.3965 13.8068 18.428 13.7146 18.5248 13.6826C18.5734 13.6667 18.6221 13.6726 18.6689 13.69C18.7974 13.7379 18.885 13.8278 18.9293 13.9568C19.0187 14.2172 19.0683 14.4853 19.0732 14.761C19.075 14.8632 19.0763 14.9656 19.0727 15.0678C19.0678 15.2035 18.969 15.2987 18.842 15.2961C18.716 15.2936 18.6233 15.193 18.6231 15.0575C18.6228 14.9799 18.6231 14.9021 18.6231 14.7982Z" fill="#FEFEFE"/>
<path d="M18.9476 17.5588C18.9476 17.7657 18.7814 17.9334 18.5743 17.9352C18.3672 17.937 18.1928 17.7644 18.1936 17.558C18.1943 17.3532 18.3644 17.1822 18.5687 17.1814C18.7781 17.1804 18.9476 17.3491 18.9476 17.5588Z" fill="#FEFEFE"/>
<path d="M18.3565 14.4734C18.3565 14.5474 18.2956 14.6101 18.2216 14.6114C18.1456 14.6129 18.0815 14.5484 18.0828 14.4713C18.0841 14.3971 18.1458 14.3367 18.2206 14.3367C18.2943 14.3367 18.3563 14.3989 18.3565 14.4731V14.4734Z" fill="#FEFDFE"/>
<path d="M18.4001 17.0249C18.3983 17.0825 18.3507 17.1288 18.2936 17.1283C18.2332 17.1278 18.1876 17.0794 18.1894 17.0172C18.1909 16.9578 18.2357 16.9145 18.2951 16.9148C18.3566 16.9153 18.4019 16.9627 18.4001 17.0246V17.0249Z" fill="#FEFDFD"/>
<path d="M18.0689 13.3483C18.1301 13.3289 18.1915 13.3289 18.2527 13.3483C18.1915 13.3483 18.1301 13.3483 18.0689 13.3483Z" fill="#D80173"/>
<path d="M10.7579 8.2646C10.9117 8.26691 11.0367 8.31351 11.1445 8.40747C11.5147 8.72982 11.8854 9.05115 12.2544 9.37478C12.2907 9.40678 12.3028 9.40474 12.3274 9.363C12.5701 8.94899 12.8141 8.53549 13.0601 8.12353C13.194 7.8995 13.4677 7.79938 13.7153 7.87824C13.9655 7.95813 14.1299 8.19624 14.1124 8.45458C14.1058 8.55418 14.0735 8.64533 14.0223 8.73136C13.7481 9.19325 13.4757 9.65642 13.2007 10.1178C13.1756 10.1598 13.18 10.1805 13.2161 10.2118C13.6198 10.5607 14.0221 10.9115 14.4248 11.2618C14.5948 11.4095 14.667 11.5951 14.6238 11.8158C14.581 12.034 14.4476 12.1822 14.2341 12.2475C14.0336 12.309 13.849 12.2682 13.69 12.1308C13.3356 11.8245 12.9826 11.517 12.6313 11.2075C12.5867 11.1681 12.5739 11.1763 12.547 11.2226C12.3012 11.642 12.056 12.0616 11.8043 12.4777C11.6737 12.6938 11.4712 12.7844 11.2238 12.7447C10.9893 12.7068 10.8352 12.5635 10.7696 12.3333C10.7225 12.1687 10.7563 12.0155 10.8434 11.8693C11.1225 11.4008 11.3982 10.9302 11.6778 10.4622C11.7044 10.4176 11.6998 10.3969 11.6617 10.3638C11.2423 10.0016 10.8242 9.63773 10.4071 9.27313C10.2238 9.11285 10.1562 8.91084 10.2233 8.67682C10.2888 8.44793 10.4491 8.31402 10.6839 8.27177C10.7118 8.26665 10.7407 8.2664 10.7581 8.26486L10.7579 8.2646Z" fill="#202020"/>
<path d="M24 17.9991C24 21.3125 21.3148 24 18 24C14.6852 24 12 21.3144 12 17.9991C12 14.6837 14.687 12 18 12C21.313 12 24 14.6856 24 17.9991Z" fill="#321D47"/>
<path d="M20.2783 19.3182H19.0108L18.7727 18.7369H17.1639L16.9258 19.3182H15.6583L17.1752 15.8625H18.7595L20.2783 19.3182ZM17.9702 16.7607L17.5502 17.7919H18.3883L17.9702 16.7607Z" fill="white"/>
<path d="M17.9683 15.1294C18.454 15.1294 18.8477 14.7356 18.8477 14.25C18.8477 13.7643 18.454 13.3706 17.9683 13.3706C17.4827 13.3706 17.089 13.7643 17.089 14.25C17.089 14.7356 17.4827 15.1294 17.9683 15.1294Z" fill="#E6007A"/>
<path d="M17.9683 22.5356C18.454 22.5356 18.8477 22.1419 18.8477 21.6562C18.8477 21.1706 18.454 20.7769 17.9683 20.7769C17.4827 20.7769 17.089 21.1706 17.089 21.6562C17.089 22.1419 17.4827 22.5356 17.9683 22.5356Z" fill="#E6007A"/>
<path d="M14.721 16.8899C15.2066 16.8899 15.6003 16.4961 15.6003 16.0105C15.6003 15.5248 15.2066 15.1311 14.721 15.1311C14.2353 15.1311 13.8416 15.5248 13.8416 16.0105C13.8416 16.4961 14.2353 16.8899 14.721 16.8899Z" fill="#E6007A"/>
<path d="M21.2178 16.8899C21.7035 16.8899 22.0972 16.4961 22.0972 16.0105C22.0972 15.5248 21.7035 15.1311 21.2178 15.1311C20.7322 15.1311 20.3385 15.5248 20.3385 16.0105C20.3385 16.4961 20.7322 16.8899 21.2178 16.8899Z" fill="#E6007A"/>
<path d="M14.7207 20.8046C15.2063 20.8046 15.6 20.4109 15.6 19.9253C15.6 19.4396 15.2063 19.0459 14.7207 19.0459C14.235 19.0459 13.8413 19.4396 13.8413 19.9253C13.8413 20.4109 14.235 20.8046 14.7207 20.8046Z" fill="#E6007A"/>
<path d="M21.2175 20.8046C21.7032 20.8046 22.0969 20.4109 22.0969 19.9253C22.0969 19.4396 21.7032 19.0459 21.2175 19.0459C20.7319 19.0459 20.3382 19.4396 20.3382 19.9253C20.3382 20.4109 20.7319 20.8046 21.2175 20.8046Z" fill="#E6007A"/>
</svg>
