<svg width="24" height="24" viewBox="0 0 24 24" fill="none" xmlns="http://www.w3.org/2000/svg">
<g clip-path="url(#clip0_19091_29321)">
<path d="M12 24C18.6274 24 24 18.6274 24 12C24 5.37258 18.6274 0 12 0C5.37258 0 0 5.37258 0 12C0 18.6274 5.37258 24 12 24Z" fill="#009393"/>
<path fill-rule="evenodd" clip-rule="evenodd" d="M18.0618 6.00085V8.26347H13.5109V9.83222C16.7072 9.99986 19.1052 10.6884 19.123 11.5137L19.1229 13.2341C19.1051 14.0594 16.7072 14.7479 13.5109 14.9156V18.7655H10.489V14.9156C7.29278 14.7479 4.89473 14.0594 4.87694 13.2341L4.87706 11.5137C4.89483 10.6884 7.29278 9.99986 10.489 9.83222V8.26347H5.93811V6.00085H18.0618ZM12 13.7336C15.4109 13.7336 18.262 13.1514 18.9597 12.3739C18.368 11.7146 16.2279 11.1957 13.5109 11.0532V12.6956C13.0239 12.7212 12.5184 12.7347 12 12.7347C11.4815 12.7347 10.976 12.7212 10.489 12.6956V11.0532C7.77206 11.1957 5.63194 11.7146 5.04027 12.3739C5.738 13.1514 8.58899 13.7336 12 13.7336Z" fill="white"/>
<path d="M24.0506 18.0384C24.0506 21.3518 21.3655 24.0393 18.0506 24.0393C14.7358 24.0393 12.0506 21.3537 12.0506 18.0384C12.0506 14.723 14.7377 12.0393 18.0506 12.0393C21.3636 12.0393 24.0506 14.7249 24.0506 18.0384Z" fill="#321D47"/>
<path d="M20.3288 19.3575H19.0613L18.8231 18.7762H17.2144L16.9763 19.3575H15.7088L17.2256 15.9019H18.81L20.3288 19.3575ZM18.0206 16.8L17.6006 17.8312H18.4388L18.0206 16.8Z" fill="white"/>
<path d="M18.0187 15.1687C18.5044 15.1687 18.8981 14.775 18.8981 14.2893C18.8981 13.8036 18.5044 13.4099 18.0187 13.4099C17.5331 13.4099 17.1394 13.8036 17.1394 14.2893C17.1394 14.775 17.5331 15.1687 18.0187 15.1687Z" fill="#E6007A"/>
<path d="M18.0187 22.5749C18.5044 22.5749 18.8981 22.1812 18.8981 21.6955C18.8981 21.2099 18.5044 20.8162 18.0187 20.8162C17.5331 20.8162 17.1394 21.2099 17.1394 21.6955C17.1394 22.1812 17.5331 22.5749 18.0187 22.5749Z" fill="#E6007A"/>
<path d="M14.7714 16.9292C15.257 16.9292 15.6507 16.5355 15.6507 16.0498C15.6507 15.5641 15.257 15.1704 14.7714 15.1704C14.2857 15.1704 13.892 15.5641 13.892 16.0498C13.892 16.5355 14.2857 16.9292 14.7714 16.9292Z" fill="#E6007A"/>
<path d="M21.2682 16.9292C21.7539 16.9292 22.1476 16.5355 22.1476 16.0498C22.1476 15.5641 21.7539 15.1704 21.2682 15.1704C20.7826 15.1704 20.3889 15.5641 20.3889 16.0498C20.3889 16.5355 20.7826 16.9292 21.2682 16.9292Z" fill="#E6007A"/>
<path d="M14.7712 20.8438C15.2569 20.8438 15.6506 20.4501 15.6506 19.9645C15.6506 19.4788 15.2569 19.0851 14.7712 19.0851C14.2856 19.0851 13.8918 19.4788 13.8918 19.9645C13.8918 20.4501 14.2856 20.8438 14.7712 20.8438Z" fill="#E6007A"/>
<path d="M21.2681 20.8438C21.7538 20.8438 22.1475 20.4501 22.1475 19.9645C22.1475 19.4788 21.7538 19.0851 21.2681 19.0851C20.7824 19.0851 20.3887 19.4788 20.3887 19.9645C20.3887 20.4501 20.7824 20.8438 21.2681 20.8438Z" fill="#E6007A"/>
</g>
<defs>
<clipPath id="clip0_19091_29321">
<rect width="24" height="24" fill="white"/>
</clipPath>
</defs>
</svg>
