<svg width="24" height="24" viewBox="0 0 24 24" fill="none" xmlns="http://www.w3.org/2000/svg">
<g clip-path="url(#clip0_20200_24123)">
<path d="M12 24C18.6274 24 24 18.6274 24 12C24 5.37258 18.6274 0 12 0C5.37258 0 0 5.37258 0 12C0 18.6274 5.37258 24 12 24Z" fill="black"/>
<path d="M4.04984 15.7011V15.8698C4.04984 15.8698 10.6273 13.4355 11.906 14.0642L11.1347 14.2769C11.2022 14.2769 12.4522 14.3536 12.4522 14.3536C12.4815 14.5955 12.5677 14.8282 12.7046 15.035C12.8416 15.2418 13.0258 15.4176 13.244 15.5497C13.9969 16.0155 14.0112 16.2685 14.0112 16.2685C14.0112 16.2685 13.6204 16.418 13.6204 16.6077C13.9838 16.5103 14.3596 16.4594 14.7375 16.4563C15.0784 16.4677 15.4165 16.5186 15.7441 16.6077C15.7441 16.6077 15.7052 16.4161 15.1794 16.2685C14.6536 16.1209 14.1462 15.5995 13.8905 15.3101C13.7371 15.1251 13.6376 14.9059 13.6018 14.6741C13.5659 14.4423 13.5949 14.2057 13.6859 13.9875C13.868 13.5505 14.5043 13.3071 15.7952 12.6784C17.3276 11.9366 17.6774 11.3807 17.8922 10.9533C18.107 10.5258 18.4303 9.66904 18.6083 9.26652C18.7563 8.89029 19.0109 8.55895 19.3448 8.30813C19.5719 8.14521 20.6071 7.77911 20.6071 7.77911C20.6071 7.77911 19.8174 7.14849 19.5596 6.95873C19.2374 6.67284 18.8299 6.48564 18.3914 6.42203C17.8431 6.35495 17.2866 6.69613 16.9102 6.92423C16.5338 7.15232 15.8054 7.81936 15.5108 8.01104C15.2162 8.20271 14.4613 8.39439 13.2604 9.08251C12.0594 9.77063 7.29255 12.6209 7.29255 12.6209L8.52008 12.6324L3.01055 15.3101H3.56089L2.76709 15.8851C3.20674 15.9794 3.66821 15.9136 4.05804 15.7011H4.04984Z" fill="white"/>
</g>
<defs>
<clipPath id="clip0_20200_24123">
<rect width="24" height="24" fill="white"/>
</clipPath>
</defs>
</svg>
