<svg width="24" height="24" viewBox="0 0 24 24" fill="none" xmlns="http://www.w3.org/2000/svg">
<path d="M24 11.9981C24 18.6251 18.6297 24 12 24C5.37031 24 0 18.6288 0 11.9981C0 5.36738 5.37409 0 12 0C18.6259 0 24 5.37116 24 11.9981Z" fill="black"/>
<path d="M11.6213 19.9177H11.216C11.2124 19.9093 11.2145 19.9029 11.2222 19.898C11.3164 19.8737 11.4121 19.8911 11.5071 19.887C11.5432 19.8855 11.5806 19.8811 11.6152 19.898C11.6228 19.9029 11.6249 19.9095 11.6213 19.9177Z" fill="#7F7F7F"/>
<path d="M2.2511 12.0349V11.8877C2.25852 11.8838 2.26492 11.8854 2.26979 11.8923C2.28618 11.9384 2.28618 11.9845 2.26979 12.0305C2.26492 12.0375 2.25852 12.039 2.2511 12.0352V12.0349Z" fill="#808080"/>
<path d="M11.6212 19.9183C11.6217 19.9149 11.622 19.9116 11.6222 19.9083C11.6509 19.8832 11.6796 19.8829 11.708 19.9085C11.7088 19.9119 11.7085 19.9152 11.7072 19.9183H11.6212Z" fill="#BCBCBC"/>
<path d="M11.2152 19.9074C11.2152 19.9107 11.2155 19.914 11.2163 19.9174H11.1302C11.1297 19.914 11.1295 19.9107 11.1295 19.9074C11.1581 19.8823 11.1866 19.8823 11.2152 19.9074Z" fill="#BCBCBC"/>
<path d="M2.26108 11.8869L2.25596 11.8864L2.2511 11.8879V11.8142C2.25468 11.8137 2.25801 11.8134 2.2616 11.8137C2.28362 11.8383 2.28413 11.8629 2.26108 11.8869Z" fill="#BEBEBE"/>
<path d="M2.2511 12.0348C2.25466 12.035 2.25821 12.0353 2.26177 12.0356C2.28083 12.0561 2.28108 12.0765 2.26101 12.0965L2.25593 12.0975L2.2511 12.0958V12.0348Z" fill="#BEBEBE"/>
<path d="M2.26135 12.0973C2.26135 12.0769 2.26186 12.0564 2.26212 12.0359C2.26212 11.9862 2.26161 11.9365 2.26135 11.8869C2.26135 11.8625 2.26186 11.838 2.26186 11.8136C2.29233 11.4905 2.34584 11.173 2.51688 10.8891C2.74731 10.5066 3.0927 10.2797 3.51491 10.1589C3.53027 10.1545 3.5464 10.154 3.56586 10.1512C3.50518 9.99758 3.44245 9.84728 3.38587 9.69469C3.22584 9.26352 3.09142 8.82493 3.01768 8.3697C2.93729 7.8735 2.92218 7.37499 3.08989 6.89672C3.28755 6.33241 3.66469 5.92403 4.2546 5.75633C4.66221 5.64034 5.06495 5.70384 5.45541 5.85465C5.75805 5.97166 6.02868 6.14192 6.26372 6.36442C6.40787 6.50114 6.51771 6.66859 6.64214 6.82272C6.90944 7.15352 7.17367 7.48663 7.43918 7.81896C7.44405 7.82511 7.44994 7.83023 7.45992 7.84072C7.49193 7.77083 7.52163 7.70502 7.55235 7.63974C8.10821 6.46043 8.98052 5.58632 10.1263 4.97849C10.8388 4.60058 11.5977 4.35658 12.3902 4.21268C12.8336 4.13229 13.2801 4.07724 13.7308 4.08236C14.9098 4.09567 16.0336 4.35427 17.0971 4.86583C17.803 5.20559 18.4385 5.64623 18.9862 6.20798C19.7461 6.98735 20.2564 7.90601 20.5132 8.96447C20.5949 9.30065 20.6481 9.64143 20.6717 9.98657C20.6742 10.0245 20.6875 10.0324 20.7229 10.0344C21.0422 10.0529 21.3392 10.1404 21.6164 10.3038C21.7885 10.4049 21.7921 10.6136 21.6295 10.7327C21.3161 10.9621 21.0014 11.1897 20.686 11.4158C20.6476 11.4432 20.6299 11.4736 20.6241 11.5195C20.5488 12.0978 20.4328 12.667 20.2428 13.2195C20.1279 13.5537 19.9919 13.8786 19.8326 14.194C19.816 14.2268 19.8111 14.2562 19.8188 14.2931C19.8362 14.3771 19.8439 14.4629 19.847 14.5489C19.8833 15.6063 19.8582 16.6643 19.8621 17.722C19.8646 18.4517 19.2486 19.0188 18.5036 18.986C17.8898 18.9591 17.3629 18.4563 17.305 17.8436C17.2899 17.6823 17.3007 17.5204 17.2971 17.3591C17.2966 17.3374 17.2971 17.3156 17.2971 17.2813C17.1845 17.3771 17.081 17.4651 16.9776 17.553C16.3677 18.0717 15.7299 18.5513 15.0279 18.9407C14.2836 19.3537 13.4973 19.6512 12.6582 19.8033C12.3441 19.8601 12.0271 19.8934 11.7083 19.9077C11.6797 19.9077 11.6512 19.9077 11.6226 19.9075H11.2155C11.1868 19.9075 11.1584 19.9075 11.1297 19.9075C9.61575 19.8409 8.26311 19.3171 7.0326 18.4542C6.13135 17.8221 5.35402 17.0614 4.70164 16.174C4.68679 16.1537 4.66938 16.1376 4.64941 16.123C3.83419 15.5367 3.23967 14.7706 2.80492 13.8714C2.60239 13.4528 2.43751 13.0221 2.33279 12.569C2.29694 12.4135 2.27211 12.2563 2.26186 12.0968L2.26135 12.0973Z" fill="#202020"/>
<path d="M7.72827 13.7888C7.75823 13.7949 7.78383 13.8467 7.80969 13.819C7.83248 13.7947 7.79971 13.7555 7.78332 13.7258C7.7654 13.6933 7.73646 13.67 7.70779 13.6467C7.48965 13.4695 7.2715 13.2918 7.05336 13.1144C7.05259 13.0906 7.06718 13.098 7.07973 13.1013C7.26331 13.1305 7.44637 13.1625 7.63277 13.1687C7.80508 13.1743 7.97586 13.1694 8.14536 13.0947C8.08032 13.0706 8.01785 13.0696 7.95768 13.0591C7.25896 12.9385 6.64344 12.6394 6.09168 12.1993C5.69278 11.8811 5.36403 11.5014 5.08623 11.0753C4.87884 10.7571 4.66274 10.4442 4.48531 10.107C4.28509 9.72677 4.1604 9.31941 4.0439 8.90847C3.94866 8.5723 3.85904 8.23535 3.81603 7.8874C3.78582 7.64339 3.79247 7.40144 3.84931 7.16256C3.92408 6.84789 4.25821 6.56906 4.5826 6.54653C4.78539 6.53245 4.98125 6.56292 5.16893 6.64255C5.16022 6.65663 5.14512 6.65663 5.13129 6.65919C4.96026 6.69043 4.86783 6.82177 4.89983 6.99357C4.94413 7.23271 5.07163 7.41911 5.26776 7.56044C5.39962 7.65543 5.54044 7.73378 5.69611 7.78293C5.90759 7.84976 6.06301 7.99417 6.20562 8.15419C6.38485 8.35569 6.56202 8.55924 6.73587 8.7656C6.985 9.06107 7.2395 9.35167 7.49169 9.64432C7.81456 10.0192 8.14075 10.3914 8.4503 10.7775C8.76752 11.1736 9.06914 11.5812 9.35666 11.9996C9.63267 12.4011 9.89588 12.8102 10.1435 13.2296C10.3142 13.5189 10.4625 13.8195 10.5933 14.1288C10.5979 14.1439 10.602 14.159 10.5987 14.1751C10.5838 14.212 10.5565 14.2404 10.5308 14.2691C10.2925 14.5326 10.0178 14.7492 9.70283 14.9148C9.22224 15.1675 8.71043 15.3173 8.17198 15.3749C7.98508 15.3949 7.7974 15.4092 7.60896 15.4021C7.02443 15.3801 6.46191 15.259 5.92296 15.0295C5.49691 14.8483 5.10082 14.6166 4.73725 14.3295C4.49427 14.1378 4.27254 13.9232 4.06439 13.6943C3.7976 13.4006 3.56947 13.0791 3.37846 12.7319C3.28015 12.5529 3.18336 12.3726 3.115 12.1788C3.10809 12.1594 3.10886 12.1386 3.09913 12.1205C3.07378 11.9187 3.06405 11.7154 3.12729 11.5206C3.21383 11.2545 3.37974 11.0592 3.67163 11.01C3.82115 10.9849 3.96735 11.0123 4.10561 11.0763C4.09306 11.0986 4.06899 11.1004 4.04826 11.1078C3.93125 11.1501 3.87236 11.2548 3.90283 11.3756C3.93099 11.487 3.99321 11.581 4.06695 11.667C4.17423 11.792 4.29175 11.9041 4.44486 11.9732C4.50682 12.0011 4.57236 12.0173 4.6374 12.0347C4.75415 12.0659 4.86783 12.1056 4.97869 12.154C5.06703 12.1927 5.13129 12.2628 5.20375 12.3222C5.64644 12.6848 6.11678 13.0051 6.62117 13.2762C6.94762 13.4518 7.28405 13.6047 7.62739 13.7432C7.66145 13.757 7.69371 13.7752 7.72802 13.7885L7.72827 13.7888Z" fill="#FE0079"/>
<path d="M19.6557 9.01252C19.7267 9.23219 19.7658 9.45853 19.7996 9.68589C19.816 9.79496 19.8245 9.90506 19.8388 10.0144C19.8437 10.0515 19.8365 10.0653 19.7948 10.073C19.19 10.1818 18.6001 10.3426 18.0504 10.6235C17.7519 10.7761 17.4807 10.9686 17.2874 11.2521C17.2621 11.2894 17.2385 11.3279 17.2234 11.3704C17.2032 11.4269 17.1812 11.4892 17.2352 11.5358C17.2884 11.5821 17.3547 11.5696 17.4144 11.5452C17.4971 11.5112 17.5775 11.4715 17.6589 11.4341C17.7206 11.536 17.8174 11.5363 17.9173 11.5207C18.1234 11.4881 18.3141 11.4085 18.5036 11.3258C18.7396 11.2229 18.9693 11.1051 19.2108 11.0145C19.6337 10.8557 20.0698 10.7492 20.5168 10.686C20.5429 10.6824 20.5701 10.6883 20.5957 10.678C20.6149 10.6775 20.6348 10.6716 20.6622 10.6865C20.6248 10.7077 20.5926 10.7262 20.5601 10.7446C20.3668 10.8329 20.1645 10.8985 19.9694 10.9825C19.5421 11.1668 19.1355 11.389 18.7402 11.6336C18.31 11.8996 17.8983 12.1917 17.5053 12.5102C17.248 12.7186 16.995 12.9322 16.7515 13.1567C16.6207 13.2773 16.4896 13.3969 16.3623 13.5213C16.2622 13.6194 16.1381 13.6015 16.0723 13.4778C15.9593 13.2653 15.8982 13.0379 15.891 12.7965C15.881 12.4639 15.9432 12.1456 16.0799 11.8425C16.1363 11.7175 16.2059 11.6 16.282 11.5078C16.1411 11.5949 16.0321 11.7357 15.9396 11.8919C15.9294 11.9093 15.9258 11.9367 15.8956 11.9342C15.8948 11.9342 15.8935 11.9313 15.8933 11.9298C15.8933 11.9277 15.8938 11.9257 15.8941 11.9237C15.9573 11.6274 15.998 11.3284 16.0129 11.026C16.0431 10.4192 15.9232 9.84463 15.6434 9.3044C15.639 9.29595 15.6303 9.28955 15.6237 9.28212C15.6052 9.27598 15.6004 9.26036 15.5968 9.24423C15.5195 8.89551 15.3587 8.58263 15.171 8.28383C15.0637 8.11331 15.0753 7.93947 15.1157 7.75896C15.1329 7.68292 15.1684 7.61302 15.2058 7.54466C15.2322 7.49652 15.2688 7.46938 15.3254 7.46042C15.5246 7.42944 15.7115 7.36441 15.8687 7.23434C15.9942 7.13039 16.1084 7.01722 16.1391 6.84491C16.1596 6.72969 16.1288 6.626 16.0807 6.52512C16.04 6.43986 16.0415 6.43218 16.1276 6.39377C16.2735 6.32848 16.4266 6.2975 16.5864 6.29597C16.8288 6.29366 17.0688 6.31184 17.3025 6.38046C17.4966 6.4373 17.6748 6.52845 17.8448 6.63573C18.1262 6.81342 18.385 7.01953 18.615 7.26071C18.8902 7.54927 19.1242 7.86854 19.316 8.2188C19.4322 8.4308 19.5372 8.64741 19.6097 8.87861C19.6204 8.89653 19.6176 8.91829 19.6268 8.93673C19.6309 8.94134 19.6353 8.94569 19.6394 8.9503C19.6378 8.97257 19.6435 8.99306 19.6552 9.012L19.6557 9.01252Z" fill="#FEC100"/>
<path d="M15.3532 13.2878C15.4374 13.7264 15.6221 14.115 15.929 14.4422C16.0627 14.5846 16.2186 14.6985 16.3861 14.7981C16.405 14.8314 16.3871 14.8624 16.3771 14.8924C16.2918 15.1522 16.1733 15.3962 16.0281 15.628C15.8307 15.9431 15.6049 16.2358 15.3345 16.4918C15.1366 16.6792 14.9251 16.8503 14.7024 17.0072C14.4361 17.1949 14.1603 17.367 13.8651 17.5062C13.3505 17.749 12.8131 17.9121 12.2475 17.9848C11.9415 18.0239 11.6345 18.0309 11.3288 18.0158C10.7842 17.9889 10.2545 17.8777 9.74217 17.6883C9.52325 17.6074 9.30972 17.5132 9.10259 17.4054C9.07468 17.3908 9.03141 17.381 9.03346 17.3444C9.03525 17.3116 9.07749 17.3068 9.10489 17.295C9.51711 17.1145 9.88657 16.8697 10.2248 16.5732C10.6017 16.243 10.8219 15.821 10.9653 15.3514C11.0203 15.1712 11.0608 14.9873 11.0897 14.8012C11.0992 14.7398 11.1232 14.7272 11.1778 14.7585C11.4264 14.9003 11.6965 14.9548 11.9794 14.9533C12.3642 14.9512 12.7483 14.9341 13.1262 14.8565C13.6839 14.7421 14.1731 14.4911 14.5994 14.1135C14.8665 13.8772 15.0977 13.6117 15.2851 13.3083C15.2938 13.2944 15.3025 13.2806 15.3156 13.2701C15.3402 13.2507 15.346 13.2699 15.3524 13.288L15.3532 13.2878Z" fill="#FE0079"/>
<path d="M15.3533 13.2877C15.3328 13.2572 15.3243 13.2766 15.3126 13.2958C15.2511 13.3972 15.1838 13.4943 15.1123 13.5888C14.8924 13.8786 14.6336 14.1282 14.3394 14.3418C13.9873 14.5973 13.5979 14.7681 13.1741 14.8628C13.0131 14.8989 12.8505 14.9209 12.6859 14.9345C12.4316 14.9552 12.1777 14.9762 11.9224 14.9688C11.6538 14.9611 11.3965 14.9076 11.1635 14.7658C11.1261 14.743 11.1118 14.7501 11.1049 14.7955C11.0234 15.3262 10.8624 15.8273 10.5372 16.2636C10.3688 16.4899 10.1527 16.6676 9.92812 16.835C9.66184 17.0335 9.37636 17.1989 9.06911 17.3261C9.05964 17.33 9.05093 17.3353 9.03711 17.3425C9.05298 17.363 9.07372 17.373 9.0942 17.3835C9.48389 17.5847 9.88997 17.7432 10.3165 17.8469C10.5715 17.9089 10.8299 17.9516 11.0913 17.9803C11.3647 18.0105 11.6384 18.0113 11.9114 17.999C12.2696 17.9829 12.6232 17.9214 12.9691 17.8246C13.304 17.7312 13.6276 17.6073 13.9389 17.4516C14.2853 17.2785 14.6067 17.0665 14.9124 16.8299C15.0852 16.6963 15.2504 16.5539 15.4047 16.399C15.6667 16.1356 15.8856 15.8393 16.0738 15.52C16.2079 15.2927 16.318 15.0541 16.3861 14.7978C16.6568 14.937 16.9471 14.9923 17.2487 14.9949C17.2864 14.9952 17.2981 15.0064 17.2974 15.0438C17.2948 15.1624 17.2953 15.2806 17.2948 15.3992C17.1338 15.4501 17.0621 15.5871 16.9822 15.7185C16.7799 16.0511 16.5536 16.367 16.2947 16.6581C15.8328 17.1776 15.3031 17.6131 14.6912 17.9468C14.2897 18.1657 13.8744 18.3533 13.4394 18.4947C13.0804 18.6114 12.7123 18.6875 12.3372 18.7305C12.1748 18.7492 12.0125 18.7681 11.8486 18.7674C11.8182 18.7663 11.788 18.7679 11.7585 18.7773C11.6546 18.7845 11.5506 18.785 11.4469 18.7773C11.4136 18.7663 11.3791 18.7668 11.3448 18.7676C10.9323 18.7604 10.5275 18.6928 10.125 18.6086C9.74991 18.53 9.38404 18.4202 9.02687 18.2819C8.60825 18.1198 8.20857 17.9194 7.82759 17.682C7.58948 17.5338 7.36186 17.3709 7.14423 17.1938C7.1199 17.174 7.08713 17.1587 7.0902 17.1185C7.25253 17.1354 7.41384 17.162 7.57719 17.172C8.57112 17.2324 9.47851 17.022 10.2341 16.3299C10.3885 16.1886 10.5324 16.0383 10.6601 15.8726C10.7712 15.7285 10.8286 15.5559 10.9075 15.3946C10.943 15.3216 10.9832 15.2497 10.9978 15.1677C11.0094 15.103 10.9976 15.0484 10.9479 15.0005C10.8729 14.9286 10.8132 14.8413 10.7282 14.7786C10.7047 14.7611 10.6814 14.7455 10.6509 14.7455C10.5923 14.7197 10.5572 14.7471 10.5229 14.7937C10.2686 15.1396 9.9573 15.4227 9.58554 15.6376C9.1746 15.8752 8.73345 16.0229 8.26132 16.0787C8.09028 16.0989 7.91848 16.111 7.7472 16.1005C7.36237 16.0767 6.98241 16.0201 6.61244 15.9082C6.2207 15.7899 5.84663 15.6299 5.49868 15.4143C5.19553 15.2266 4.9162 15.0052 4.6343 14.7875C4.4561 14.6498 4.28148 14.5079 4.10789 14.3648C4.081 14.3425 4.06308 14.3118 4.03236 14.2941C3.87464 14.0847 3.7392 13.8614 3.62526 13.6259C3.45628 13.2766 3.2919 12.9251 3.18104 12.5521C3.13905 12.4112 3.10909 12.2674 3.10013 12.1199C3.18027 12.3029 3.26374 12.4847 3.35821 12.6609C3.5167 12.9563 3.70361 13.2331 3.91407 13.4943C4.07716 13.6968 4.25716 13.8837 4.44714 14.0601C4.72443 14.3174 5.02808 14.5402 5.35684 14.7289C5.67509 14.9117 6.00743 15.0615 6.35717 15.1716C6.62755 15.2566 6.90279 15.3193 7.18519 15.35C7.36749 15.37 7.55005 15.3879 7.73337 15.3851C8.12587 15.3785 8.51275 15.3283 8.8904 15.221C9.29571 15.106 9.67771 14.9388 10.0254 14.6984C10.2402 14.5499 10.4259 14.3704 10.591 14.1692C10.6007 14.138 10.5866 14.11 10.5787 14.0814C10.5685 14.0222 10.5531 13.9644 10.5316 13.908C10.5239 13.8878 10.5129 13.8676 10.5219 13.8445C10.5398 13.8235 10.5562 13.8402 10.5695 13.8491C10.6051 13.873 10.6443 13.8904 10.6804 13.9134C10.7049 13.9313 10.7336 13.9416 10.7597 13.9564C11.1763 14.2061 11.6236 14.362 12.108 14.414C12.7512 14.4828 13.3639 14.3871 13.9389 14.0857C14.4441 13.821 14.8514 13.4474 15.1582 12.9658C15.2009 12.8985 15.247 12.8334 15.2875 12.7646C15.2985 12.7456 15.3105 12.7249 15.3377 12.7251C15.3162 12.9128 15.3236 13.1 15.3535 13.2864L15.3533 13.2877Z" fill="#C10065"/>
<path d="M8.71089 9.86169C8.60642 9.72958 8.50657 9.59465 8.42797 9.44486C8.39187 9.34911 8.39571 9.24925 8.3975 9.14965C8.40032 9.05953 8.39801 8.96915 8.39852 8.87902C8.40134 8.5705 8.45152 8.26838 8.53883 7.97368C8.58184 7.8285 8.67248 7.70305 8.74827 7.57247C8.7667 7.54072 8.78411 7.5082 8.80485 7.47799C8.82022 7.46186 8.83865 7.44829 8.8494 7.42781C9.39271 6.73369 10.0625 6.19781 10.8657 5.83372C11.3107 5.63196 11.778 5.49422 12.256 5.39462C12.5786 5.32754 12.9045 5.28503 13.2338 5.26302C13.4814 5.24637 13.7292 5.24484 13.9758 5.25636C14.5252 5.28171 15.0644 5.3749 15.5921 5.53313C15.956 5.64221 16.306 5.78431 16.6455 5.95303C16.7845 6.02216 16.9215 6.09616 17.0536 6.17835C17.0713 6.18936 17.1017 6.19781 17.0951 6.22392C17.0889 6.24748 17.0595 6.24799 17.0377 6.25157C16.9891 6.25951 16.9397 6.25439 16.8907 6.25593C16.7438 6.26028 16.5963 6.2462 16.4496 6.26694C15.9078 6.34323 15.5005 6.61412 15.2437 7.10085C15.1236 7.32846 15.0583 7.57144 15.0509 7.82978C15.0493 7.88458 15.034 7.93886 15.0445 7.99467C15.047 8.00824 15.0483 8.02565 15.0312 8.03154C15.0153 8.03692 15.005 8.02309 14.9956 8.01285C14.9449 7.95678 14.9019 7.89431 14.8517 7.83747C14.5705 7.51742 14.2433 7.25729 13.8652 7.05937C13.5057 6.87118 13.1255 6.75289 12.7255 6.69247C12.5737 6.66968 12.4206 6.66302 12.2675 6.65586C12.1945 6.6451 12.1213 6.64715 12.0483 6.65458C11.8381 6.68325 11.6266 6.70348 11.4192 6.75341C11.0762 6.83611 10.7553 6.97001 10.454 7.1518C10.2166 7.29518 10.0013 7.46672 9.80698 7.66464C9.61137 7.86435 9.44571 8.08659 9.30925 8.33059C9.29055 8.36413 9.2775 8.40203 9.24575 8.42737C9.10518 8.57203 9.00789 8.74435 8.92877 8.92716C8.82278 9.17142 8.76645 9.42822 8.75109 9.69424C8.74853 9.73905 8.7388 9.78334 8.737 9.82841C8.73649 9.843 8.73521 9.86297 8.71089 9.86169Z" fill="#FE0079"/>
<path d="M15.3374 12.7264C15.2862 12.8025 15.2334 12.8775 15.184 12.9548C14.7277 13.6704 14.0907 14.1398 13.2706 14.3589C12.9665 14.4401 12.6549 14.4652 12.342 14.4501C11.8258 14.4252 11.3337 14.3062 10.8834 14.042C10.8396 14.0161 10.7937 13.9933 10.7489 13.9692C10.7331 13.9442 10.7031 13.9388 10.6819 13.9211C10.6163 13.8848 10.5569 13.8394 10.497 13.7951C10.4816 13.7808 10.4724 13.7624 10.4637 13.7439C10.2965 13.3878 10.0925 13.0521 9.89096 12.7149C9.81338 12.5851 9.74092 12.452 9.66821 12.3193C9.66129 12.3065 9.65464 12.294 9.65643 12.2789C9.64952 12.1842 9.61034 12.0979 9.58243 12.009C9.40039 11.4319 9.20913 10.8581 8.95566 10.3071C8.93441 10.2608 8.91264 10.2147 8.89139 10.1686C8.84402 10.0061 8.8599 9.84219 8.88013 9.67807C8.88806 9.64837 8.89728 9.61892 8.90266 9.58845C8.93953 9.41717 8.99304 9.25049 9.04911 9.08432C9.055 9.06691 9.06114 9.0495 9.07676 9.03772C9.12131 9.04617 9.10569 9.08099 9.10288 9.10531C9.08265 9.28198 9.06857 9.4589 9.07087 9.6371C9.07651 10.0811 9.15716 10.511 9.31232 10.9265C9.48181 11.3812 9.72428 11.7947 10.0333 12.1675C10.5359 12.7733 11.1775 13.1346 11.9605 13.2344C12.755 13.3358 13.4908 13.1648 14.1611 12.7303C14.5905 12.452 14.9292 12.0838 15.1758 11.6334C15.4121 11.2015 15.5606 10.7411 15.6231 10.2526C15.6264 10.2262 15.6334 10.2004 15.6387 10.1743C15.65 10.1328 15.6431 10.0905 15.6444 10.0488C15.6474 9.85499 15.6377 9.66168 15.6205 9.46889C15.618 9.44072 15.6141 9.41128 15.638 9.38849C15.7158 9.59588 15.7619 9.81146 15.7831 10.0306C15.8582 10.8016 15.7099 11.5418 15.4598 12.2661C15.4078 12.4169 15.3589 12.5677 15.3374 12.7262V12.7264Z" fill="#CB6F00"/>
<path d="M9.08363 9.03649C9.01654 9.21751 8.96406 9.40314 8.91669 9.59005C8.89774 9.5903 8.89698 9.5752 8.89288 9.56265C8.89032 9.4331 8.91976 9.30789 8.94665 9.18295C8.99632 8.95303 9.07492 8.73283 9.17426 8.51981C9.19219 8.48141 9.21293 8.44377 9.24339 8.4133C9.38114 8.16392 9.53681 7.92683 9.73319 7.71919C10.2745 7.14643 10.9353 6.80027 11.7144 6.68096C11.8214 6.66457 11.9295 6.65612 12.037 6.64409C12.1151 6.63385 12.1932 6.63973 12.2713 6.64101C12.5706 6.64921 12.8663 6.68428 13.1554 6.76468C13.9061 6.97361 14.5277 7.37558 15.0022 7.99827C15.0093 8.00748 15.0129 8.02105 15.0306 8.02336C15.0211 7.7686 15.0549 7.5205 15.1438 7.28085C15.3801 6.64434 15.961 6.23955 16.64 6.23955C16.7891 6.23955 16.9378 6.23955 17.0955 6.23955C17.0822 6.20626 17.0612 6.2014 17.0459 6.19218C16.3305 5.76588 15.5614 5.48834 14.7397 5.35366C14.2187 5.26815 13.6948 5.23845 13.1689 5.283C12.1317 5.37056 11.145 5.62839 10.2512 6.18143C9.71015 6.51632 9.24928 6.94186 8.85601 7.44164C8.84398 7.44369 8.8409 7.43601 8.83911 7.42654C8.87675 7.31849 8.94613 7.22913 9.01296 7.13952C9.18604 6.90883 9.37474 6.6912 9.57624 6.48483C9.90858 6.16325 10.2832 5.89825 10.6836 5.66935C11.3611 5.28197 12.0869 5.03259 12.8602 4.92864C13.9816 4.77809 15.068 4.92864 16.1203 5.33523C16.7555 5.58051 17.3564 5.88929 17.8892 6.31943C18.7144 6.98564 19.29 7.82288 19.608 8.83576C19.6124 8.84933 19.6147 8.86341 19.6177 8.87724C19.6231 8.88953 19.6172 8.89235 19.6062 8.89055C19.3817 8.29015 19.0591 7.7494 18.6138 7.28623C18.2812 6.94007 17.9107 6.64101 17.4627 6.45744C17.0894 6.30458 16.6992 6.27207 16.3021 6.35067C16.2299 6.36501 16.1628 6.39701 16.0957 6.42748C16.0683 6.43977 16.0563 6.44924 16.0762 6.48458C16.2155 6.7314 16.1825 6.94954 15.9841 7.15309C15.7995 7.34256 15.5726 7.44343 15.314 7.47902C15.2784 7.48389 15.2544 7.49643 15.2352 7.52716C15.1207 7.70946 15.08 7.90686 15.1115 8.11937C15.1166 8.15419 15.1312 8.18466 15.1496 8.21487C15.325 8.50343 15.4889 8.79736 15.5829 9.12457C15.598 9.17706 15.6105 9.23031 15.6243 9.28331C15.6151 9.32018 15.633 9.35372 15.6379 9.3888C15.6476 9.61104 15.6663 9.83302 15.6594 10.056C15.6377 10.0594 15.6338 10.0417 15.6266 10.0281C15.6046 9.7982 15.5749 9.56931 15.5258 9.34323C15.4515 9.00142 15.3135 8.68649 15.1315 8.38949C14.994 8.1652 14.8324 7.95884 14.6463 7.77398C14.4338 7.56326 14.1977 7.38045 13.9371 7.23067C13.5143 6.98769 13.0622 6.83688 12.5772 6.78235C12.3939 6.76161 12.2101 6.75188 12.0263 6.76033C11.6279 6.77851 11.2446 6.86505 10.8815 7.03301C10.5197 7.20045 10.1933 7.41885 9.91421 7.70536C9.56984 8.05895 9.30766 8.46502 9.13842 8.92973C9.12459 8.96736 9.1187 9.00961 9.08363 9.03675V9.03649Z" fill="#FEFEFE"/>
<path d="M18.7108 13.3959C18.9246 13.6197 19.0626 13.8845 19.1364 14.1838C19.1843 14.3781 19.1858 14.5763 19.1858 14.7747C19.1866 15.7197 19.1873 16.6648 19.1878 17.6098C19.1878 17.8753 19.0736 18.0778 18.8348 18.1943C18.6084 18.3049 18.3844 18.2803 18.1816 18.1295C18.027 18.0146 17.9466 17.8553 17.9356 17.6628C17.9317 17.5954 17.9335 17.5279 17.9335 17.4603C17.9335 16.6112 17.934 15.7625 17.933 14.9135C17.933 14.7645 17.9486 14.6159 17.9366 14.4664C17.9046 14.0685 17.744 13.7362 17.4427 13.473C17.4319 13.4638 17.4225 13.4533 17.4125 13.4433C17.4115 13.4423 17.4117 13.4392 17.4125 13.4379C17.4135 13.4364 17.4158 13.4356 17.4176 13.4346C17.5162 13.378 17.6281 13.376 17.7356 13.357C17.8096 13.344 17.8854 13.3424 17.9599 13.3312C17.9968 13.3299 18.0336 13.3296 18.0705 13.3304C18.1307 13.3322 18.1906 13.3317 18.2507 13.3304C18.3836 13.3271 18.5145 13.3463 18.6453 13.3662C18.6704 13.3701 18.6914 13.3813 18.7114 13.3957L18.7108 13.3959Z" fill="#FD018A"/>
<path d="M7.08972 17.1194C7.18419 17.2221 7.30018 17.2989 7.41104 17.3809C7.73442 17.6205 8.07802 17.8287 8.43903 18.0066C8.86789 18.2178 9.31314 18.3871 9.77631 18.5087C10.115 18.5978 10.4574 18.6662 10.804 18.711C10.981 18.7338 11.1592 18.7601 11.3389 18.7519C11.3704 18.7681 11.4062 18.7484 11.4377 18.7635C11.5478 18.7635 11.6577 18.7635 11.7678 18.7635C11.7952 18.7489 11.8269 18.7676 11.8543 18.7522C12.1662 18.745 12.4737 18.703 12.7801 18.6464C13.1688 18.5748 13.5431 18.4572 13.9072 18.3067C14.4336 18.0893 14.9326 17.8215 15.3894 17.4794C15.6593 17.2774 15.9074 17.0495 16.1393 16.805C16.4957 16.4292 16.7948 16.01 17.058 15.565C17.1125 15.4729 17.1886 15.4163 17.2943 15.3999C17.2953 15.6147 17.2959 15.8295 17.2976 16.0443C17.2979 16.0825 17.2677 16.1022 17.2495 16.1253C17.1899 16.2013 17.1212 16.2707 17.0577 16.3439C16.8982 16.5277 16.718 16.6911 16.5485 16.8652C16.4525 16.9638 16.3447 17.0488 16.241 17.1386C16.1317 17.2334 16.0182 17.3222 15.9053 17.4124C15.7445 17.5406 15.5753 17.6566 15.4045 17.7703C15.1695 17.9267 14.9283 18.0724 14.6769 18.202C14.2045 18.4452 13.7316 18.6864 13.2218 18.8451C12.9194 18.9394 12.6117 19.0087 12.2975 19.05C12.2611 19.0548 12.2256 19.0617 12.1887 19.0607C12.1685 19.0712 12.1449 19.0587 12.1247 19.0699C12.1055 19.071 12.086 19.0722 12.0668 19.0733C12.0458 19.0822 12.0228 19.0722 12.0018 19.0812C11.9741 19.0825 11.9465 19.0838 11.9186 19.0853C11.8566 19.0978 11.7934 19.0809 11.7314 19.0945C11.5798 19.1004 11.4283 19.1009 11.2767 19.094C11.2355 19.0822 11.1924 19.0973 11.1512 19.0853C11.1233 19.0843 11.0957 19.0832 11.0678 19.0822C11.0427 19.071 11.015 19.083 10.9897 19.0738C10.9666 19.0725 10.9433 19.071 10.9203 19.0697C10.9001 19.0589 10.8765 19.071 10.8563 19.0607C10.6479 19.0502 10.4441 19.0093 10.2405 18.9667C9.80499 18.8761 9.38329 18.7407 8.97338 18.5684C8.67151 18.4414 8.37937 18.2952 8.09389 18.1341C7.72136 17.9239 7.36957 17.6832 7.03185 17.4223C6.87311 17.2997 6.71718 17.1727 6.57816 17.0201C6.74842 17.0534 6.91868 17.0867 7.08895 17.12L7.08972 17.1194Z" fill="#E50071"/>
<path d="M15.8946 11.9251C15.932 11.9015 15.9405 11.858 15.9627 11.8242C16.0616 11.6757 16.1742 11.5423 16.3481 11.456C16.1338 11.7033 16.016 11.9837 15.952 12.2892C15.8677 12.6919 15.888 13.0836 16.0777 13.4569C16.1443 13.5878 16.2546 13.6065 16.3583 13.5051C16.7014 13.1697 17.0621 12.854 17.4337 12.5501C17.7878 12.2602 18.1557 11.9893 18.5402 11.7417C18.889 11.5172 19.2456 11.3055 19.6197 11.1257C19.9106 10.9859 20.2068 10.8589 20.5133 10.7563C20.5286 10.7511 20.5448 10.7488 20.5604 10.745C20.3719 10.8671 20.1827 10.9882 19.9953 11.1116C19.3688 11.5244 18.742 11.9366 18.1595 12.4115C17.7629 12.7349 17.3881 13.0818 17.0317 13.4487C16.9966 13.4848 16.9856 13.5207 17.0191 13.5619C17.2181 13.8072 17.2903 14.0924 17.2846 14.4025C17.2836 14.4637 17.288 14.5251 17.2933 14.5861C17.2972 14.6304 17.2805 14.6421 17.238 14.6383C16.9295 14.6111 16.6484 14.5108 16.3998 14.3252C15.9973 14.0246 15.7858 13.6152 15.7221 13.1233C15.6916 12.8883 15.6998 12.6525 15.7512 12.4223C15.7799 12.2943 15.8293 12.1698 15.8631 12.0418C15.8734 12.0026 15.8839 11.9637 15.8941 11.9246L15.8946 11.9251Z" fill="#CB6F00"/>
<path d="M9.6565 12.2786C9.87899 12.6757 10.1248 13.0595 10.3393 13.4612C10.3967 13.5687 10.4492 13.6788 10.504 13.7876C10.5165 13.804 10.5324 13.8189 10.527 13.8427C10.5485 13.9226 10.59 13.9968 10.5918 14.0821C10.5926 14.0998 10.6087 14.121 10.5808 14.1325C10.2682 13.3877 9.82471 12.7184 9.37562 12.0527C8.83283 11.2478 8.21808 10.4991 7.58055 9.76838C7.12506 9.24607 6.67213 8.72145 6.22202 8.19453C6.05201 7.99584 5.85435 7.84888 5.60446 7.76054C5.3602 7.67426 5.1482 7.53037 5.00584 7.30429C4.94465 7.20699 4.89857 7.10253 4.88448 6.98629C4.8745 6.9041 4.8914 6.82703 4.93236 6.75662C4.98485 6.66624 5.07446 6.6473 5.16945 6.64294C5.40757 6.73384 5.63288 6.84624 5.80519 7.04185C6.90999 8.29617 7.91954 9.62321 8.84179 11.0173C9.07939 11.3766 9.30982 11.7401 9.53488 12.1073C9.57149 12.1672 9.60836 12.2274 9.65675 12.2791L9.6565 12.2786Z" fill="#FEFEFE"/>
<path d="M4.03135 14.2954C4.07718 14.2995 4.09972 14.3392 4.12993 14.3643C4.46406 14.6419 4.80817 14.9063 5.15715 15.1647C5.40934 15.3513 5.67511 15.5139 5.96008 15.645C6.33799 15.8186 6.72998 15.9466 7.14143 16.0147C7.41949 16.0608 7.69806 16.0964 7.98021 16.0859C8.39755 16.0705 8.79953 15.9825 9.18486 15.8194C9.40941 15.7244 9.62192 15.6089 9.82035 15.4665C10.0948 15.2697 10.3293 15.0333 10.528 14.7609C10.5721 14.7007 10.5887 14.6984 10.6499 14.7463C10.6151 14.756 10.5969 14.7814 10.5838 14.8131C10.369 15.3429 9.9901 15.7187 9.49083 15.9835C9.15644 16.1607 8.80772 16.2935 8.43135 16.3486C8.11207 16.3954 7.79125 16.4059 7.47146 16.3737C6.35105 16.2608 5.40934 15.7723 4.61307 14.9893C4.39697 14.777 4.20469 14.5435 4.0311 14.2949L4.03135 14.2954Z" fill="#FE007A"/>
<path d="M7.72829 13.789C7.70396 13.7974 7.68425 13.7828 7.66402 13.7749C6.7067 13.3995 5.8308 12.888 5.05117 12.2146C4.97282 12.147 4.86836 12.1263 4.77311 12.0912C4.72549 12.0735 4.67607 12.0592 4.6264 12.0482C4.29842 11.975 4.08258 11.7612 3.92588 11.48C3.81912 11.2885 3.89106 11.1221 4.10588 11.0768C4.29125 11.141 4.44103 11.2591 4.58313 11.3899C5.11057 11.8759 5.63083 12.3708 6.20026 12.8084C6.60556 13.12 7.05132 13.3706 7.48736 13.6361C7.56852 13.6855 7.65532 13.727 7.72854 13.789H7.72829Z" fill="#FEFEFE"/>
<path d="M20.5965 10.6781C20.6013 10.7052 20.579 10.6932 20.5696 10.6944C19.9717 10.7756 19.3949 10.9305 18.8467 11.1865C18.6232 11.291 18.4009 11.3983 18.1659 11.4756C18.065 11.5089 17.9626 11.5368 17.8558 11.5424C17.8208 11.5442 17.7867 11.5404 17.7527 11.5319C17.7007 11.5191 17.6633 11.4925 17.6595 11.4339C18.1884 11.1696 18.7238 10.9244 19.3091 10.8056C19.7124 10.7239 20.1179 10.6734 20.5294 10.674C20.5516 10.674 20.5739 10.6765 20.5965 10.6778V10.6781Z" fill="#FEFEFE"/>
<path d="M9.57667 6.48475C9.46094 6.62096 9.34547 6.75769 9.22897 6.89339C9.08508 7.06109 8.94887 7.23417 8.8462 7.43132C8.83929 7.44924 8.83314 7.46742 8.81803 7.48074C8.76068 7.5811 8.70563 7.68275 8.64572 7.78158C8.55432 7.93238 8.5154 8.1006 8.48314 8.2701C8.44576 8.46725 8.41529 8.66567 8.4158 8.86717C8.40582 8.96114 8.40582 9.05536 8.4158 9.14933C8.40914 9.24816 8.42732 9.34596 8.42809 9.44454C8.29879 9.23843 8.18818 9.02233 8.09063 8.79984C8.04352 8.6923 8.03994 8.58681 8.09627 8.4716C8.46009 7.7273 8.94272 7.07159 9.54672 6.50498C9.55542 6.49679 9.56669 6.49141 9.57667 6.4845V6.48475Z" fill="#D4006B"/>
<path d="M19.6715 12.1851C19.5706 12.5781 19.4523 12.9611 19.2767 13.3047C19.1653 13.2015 19.0532 13.0976 18.941 12.9934C18.9351 12.9877 18.9305 12.9811 18.9249 12.9749C18.8911 12.9378 18.8273 12.9045 18.8317 12.8628C18.8353 12.828 18.8995 12.7988 18.9379 12.7683C19.1825 12.5737 19.427 12.3794 19.6718 12.1848L19.6715 12.1851Z" fill="#CB6F00"/>
<path d="M9.24375 8.41296C9.12188 8.66234 9.02151 8.9194 8.96288 9.19157C8.93651 9.31498 8.91218 9.4389 8.90527 9.56539C8.89861 9.59688 8.90757 9.63016 8.89656 9.6614C8.87787 9.83038 8.87864 9.99937 8.89119 10.1686C8.83102 10.0662 8.77085 9.96403 8.71094 9.86162C8.73654 9.81092 8.72937 9.75408 8.73244 9.70134C8.75498 9.32394 8.85713 8.97189 9.05454 8.64929C9.10728 8.56326 9.16207 8.47697 9.24349 8.41296H9.24375Z" fill="#BE0064"/>
<path d="M18.0689 13.3489L17.9583 13.3497C17.9414 13.3397 17.9309 13.3251 17.9299 13.3057C17.9245 13.2063 17.924 13.107 17.9299 13.0079C17.9306 12.9938 17.9386 12.981 17.9457 12.9687C17.9575 12.949 17.9744 12.9582 17.989 12.9621C18.265 13.0363 18.5034 13.1751 18.7021 13.3807C18.7062 13.3848 18.7079 13.3912 18.711 13.3966C18.5589 13.3728 18.4071 13.3482 18.2525 13.3492C18.1913 13.3395 18.1298 13.3395 18.0686 13.3492L18.0689 13.3489Z" fill="#D60072"/>
<path d="M17.9456 12.9681C17.9456 13.0716 17.9456 13.175 17.9456 13.2787C17.9456 13.303 17.9446 13.3276 17.9582 13.3494C17.7764 13.3676 17.5956 13.3937 17.4174 13.4349C17.5895 13.2749 17.7649 13.1184 17.9456 12.9681Z" fill="#D60072"/>
<path d="M11.732 19.0937C11.7934 19.0717 11.8567 19.086 11.9192 19.0845C11.8575 19.1014 11.7945 19.0922 11.732 19.0937Z" fill="#C10065"/>
<path d="M11.1521 19.0842C11.1941 19.0842 11.2368 19.0737 11.2775 19.0929C11.2353 19.0949 11.1933 19.098 11.1521 19.0842Z" fill="#C10065"/>
<path d="M10.9904 19.0729C11.0168 19.0718 11.0442 19.0626 11.0685 19.0813C11.0422 19.0829 11.0155 19.0852 10.9904 19.0729Z" fill="#C10065"/>
<path d="M19.6555 9.0124C19.637 8.99538 19.6232 8.97709 19.6398 8.95117C19.6542 8.96921 19.655 8.99081 19.6555 9.0124Z" fill="#EBD9A0"/>
<path d="M19.6067 8.89004C19.6105 8.88572 19.6143 8.8814 19.6181 8.87683C19.6338 8.89487 19.6316 8.91571 19.6275 8.93679C19.6107 8.92536 19.6125 8.90605 19.6067 8.89004Z" fill="#FBEFC9"/>
<path d="M7.0796 13.1013C7.07096 13.1056 7.06207 13.1099 7.05343 13.1143C7.04453 13.1107 7.02954 13.1023 7.03463 13.0972C7.04835 13.0828 7.06537 13.0911 7.07985 13.1013H7.0796Z" fill="#C7005F"/>
<path d="M10.8573 19.0596C10.8789 19.0588 10.9015 19.0515 10.9208 19.0685C10.8989 19.0703 10.8773 19.0713 10.8573 19.0596Z" fill="#C10065"/>
<path d="M12.125 19.0695C12.1441 19.0522 12.1669 19.0596 12.1885 19.0603C12.1687 19.072 12.1469 19.071 12.125 19.0695Z" fill="#C10065"/>
<path d="M12.0022 19.0802C12.022 19.064 12.0447 19.0711 12.0665 19.0723C12.0462 19.084 12.0241 19.0828 12.0022 19.0802Z" fill="#C10065"/>
<path d="M4.37699 7.43741C4.24513 7.43843 4.14271 7.33781 4.14246 7.20646C4.14195 7.07844 4.24282 6.97628 4.37059 6.97475C4.50014 6.97321 4.60716 7.07819 4.60716 7.20621C4.60716 7.33269 4.50373 7.43638 4.37724 7.43741H4.37699Z" fill="#FEFEFE"/>
<path d="M3.69002 11.7295C3.68951 11.8263 3.61654 11.8995 3.51976 11.8998C3.42579 11.8998 3.34744 11.8232 3.34642 11.7295C3.34514 11.6343 3.42605 11.5546 3.52283 11.5562C3.61884 11.5577 3.69028 11.632 3.68977 11.7295H3.69002Z" fill="#FEFEFE"/>
<path d="M5.18661 8.04493C5.25855 8.04416 5.31437 8.0987 5.3159 8.17116C5.31744 8.24361 5.26342 8.29943 5.1907 8.30071C5.1185 8.30199 5.06268 8.24745 5.06166 8.175C5.06064 8.10279 5.11543 8.04544 5.18661 8.04493Z" fill="#FEFDFD"/>
<path d="M10.5807 14.1327C10.5956 14.1184 10.5853 14.0984 10.5917 14.0823C10.6027 14.1117 10.614 14.1412 10.5904 14.1698C10.5871 14.1573 10.5838 14.145 10.5804 14.1325L10.5807 14.1327Z" fill="#FDC7E1"/>
<path d="M16.1038 9.01691C16.0907 8.74141 16.1325 8.427 16.2864 8.13384C16.3957 7.92517 16.547 7.759 16.7618 7.65556C16.8934 7.59206 17.1044 7.6786 17.1382 7.80995C17.1625 7.90392 17.121 8.00812 17.0378 8.05779C16.8015 8.19861 16.6748 8.40524 16.6428 8.67894C16.6077 8.97773 16.6346 9.27448 16.6502 9.57225C16.6566 9.69233 16.6881 9.81113 16.6722 9.93224C16.6594 10.03 16.6133 10.111 16.5155 10.1404C16.4144 10.1709 16.3332 10.1217 16.2654 10.0482C16.1891 9.96552 16.1845 9.85876 16.1686 9.7566C16.1333 9.52821 16.1117 9.29855 16.1041 9.01742L16.1038 9.01691Z" fill="#202020"/>
<path d="M18.2104 7.63901C18.3187 7.63722 18.4083 7.67767 18.489 7.74168C18.7568 7.95496 18.9191 8.23865 19.0392 8.55281C19.1206 8.76557 19.1427 8.98884 19.1736 9.21108C19.2 9.40131 19.2248 9.5918 19.2533 9.78178C19.275 9.92772 19.1678 10.0749 19.0236 10.0913C18.8984 10.1054 18.7847 9.99276 18.7686 9.84682C18.7276 9.47556 18.6949 9.10252 18.5876 8.74202C18.5077 8.47369 18.371 8.24531 18.1341 8.08503C18.0967 8.05968 18.0678 8.0246 18.0402 7.98876C17.9828 7.91425 17.9667 7.83334 18.01 7.74834C18.0514 7.66666 18.1239 7.63517 18.2102 7.63927L18.2104 7.63901Z" fill="#202020"/>
<path d="M15.4829 7.67834C15.5185 7.68347 15.5443 7.70881 15.5438 7.75055C15.5433 7.79305 15.5154 7.81788 15.4732 7.8207C15.4327 7.82352 15.4002 7.78665 15.4025 7.74517C15.4045 7.70625 15.4368 7.67706 15.4826 7.6786L15.4829 7.67834Z" fill="#FEFDF9"/>
<path d="M10.5269 13.8435C10.5141 13.8274 10.5052 13.8094 10.5039 13.7885C10.5648 13.8307 10.626 13.8727 10.6872 13.9149C10.69 13.9259 10.6883 13.9321 10.6752 13.9267C10.6258 13.8991 10.5764 13.8714 10.5272 13.8438L10.5269 13.8435Z" fill="#F9B806"/>
<path d="M10.6752 13.9263C10.6793 13.9225 10.6831 13.9186 10.6872 13.9146C10.709 13.9314 10.7412 13.9366 10.7492 13.9691C10.7246 13.9547 10.6998 13.9404 10.6752 13.9261V13.9263Z" fill="#ED9A0D"/>
<path d="M11.438 18.7631C11.405 18.7588 11.3696 18.7757 11.3392 18.7516C11.3719 18.7562 11.4073 18.7401 11.438 18.7631Z" fill="#E40071"/>
<path d="M11.8543 18.7517C11.8279 18.7745 11.7967 18.7594 11.7678 18.763C11.7941 18.7409 11.8254 18.7553 11.8543 18.7517Z" fill="#E50071"/>
<path d="M8.41566 9.14971C8.3962 9.05574 8.3962 8.96152 8.41566 8.86755C8.41566 8.96152 8.41566 9.05574 8.41566 9.14971Z" fill="#DA006D"/>
<path d="M12.2713 6.6406C12.1932 6.64163 12.1151 6.64265 12.037 6.64368C12.1149 6.62575 12.1929 6.6278 12.2713 6.6406Z" fill="#FE613D"/>
<path d="M8.81802 7.47995C8.82742 7.46368 8.83683 7.44742 8.84597 7.43091C8.84928 7.43421 8.85258 7.43777 8.85588 7.44107C8.84801 7.4586 8.83911 7.47512 8.81802 7.47995Z" fill="#F6AED2"/>
<path d="M9.08379 9.03652C9.25123 8.52905 9.52161 8.08406 9.89568 7.70257C10.3335 7.25604 10.8571 6.95468 11.4665 6.81975C12.2195 6.65307 12.9528 6.74115 13.6507 7.06555C14.4992 7.4601 15.0994 8.09584 15.434 8.97251C15.5641 9.31304 15.6161 9.67123 15.6404 10.0335C15.6493 10.0814 15.6639 10.1288 15.6504 10.1782C15.6038 10.595 15.4911 10.9932 15.3221 11.3769C15.1388 11.7928 14.8797 12.154 14.543 12.4577C14.2094 12.7585 13.8258 12.9756 13.3985 13.1152C13.0882 13.2163 12.7715 13.2721 12.4438 13.2773C11.9043 13.286 11.3945 13.1756 10.918 12.9221C10.5934 12.7496 10.3158 12.5176 10.0744 12.2406C9.81042 11.9382 9.59893 11.6017 9.42688 11.241C9.26788 10.9079 9.15957 10.5581 9.10222 10.1925C9.0633 9.9434 9.04666 9.69351 9.05716 9.44234C9.06177 9.32891 9.06791 9.21446 9.08891 9.10206C9.093 9.0803 9.0971 9.05751 9.08404 9.03652H9.08379Z" fill="#FEC100"/>
<path d="M15.6503 10.1786C15.6539 10.13 15.6313 10.0829 15.6403 10.0337C15.6467 10.0411 15.6529 10.0485 15.6593 10.056C15.66 10.0972 15.6708 10.1389 15.6503 10.1784V10.1786Z" fill="#E4B57D"/>
<path d="M8.89661 9.66181C8.89559 9.62955 8.88945 9.59678 8.90532 9.5658C8.90916 9.57399 8.913 9.58218 8.91684 9.59038C8.91223 9.6147 8.91351 9.64081 8.89661 9.66181Z" fill="#ECC0BA"/>
<path d="M18.623 14.7982C18.631 14.5964 18.6046 14.3716 18.5603 14.1486C18.5419 14.0556 18.5048 13.9694 18.4523 13.8905C18.3965 13.8068 18.4279 13.7146 18.5247 13.6826C18.5734 13.6667 18.622 13.6726 18.6689 13.69C18.7974 13.7379 18.885 13.8278 18.9293 13.9568C19.0186 14.2172 19.0683 14.4853 19.0732 14.761C19.075 14.8632 19.0762 14.9656 19.0726 15.0678C19.0678 15.2035 18.969 15.2987 18.842 15.2961C18.716 15.2936 18.6233 15.193 18.623 15.0575C18.6228 14.9799 18.623 14.9021 18.623 14.7982Z" fill="#FEFEFE"/>
<path d="M18.9476 17.5589C18.9476 17.7658 18.7814 17.9335 18.5743 17.9353C18.3672 17.9371 18.1928 17.7645 18.1936 17.5582C18.1943 17.3533 18.3644 17.1823 18.5687 17.1815C18.7781 17.1805 18.9476 17.3492 18.9476 17.5589Z" fill="#FEFEFE"/>
<path d="M18.3565 14.4734C18.3565 14.5474 18.2956 14.6101 18.2216 14.6114C18.1455 14.6129 18.0815 14.5484 18.0828 14.4713C18.0841 14.3971 18.1458 14.3367 18.2206 14.3367C18.2943 14.3367 18.3563 14.3989 18.3565 14.4731V14.4734Z" fill="#FEFDFE"/>
<path d="M18.4001 17.0248C18.3983 17.0824 18.3507 17.1287 18.2936 17.1282C18.2331 17.1277 18.1876 17.0793 18.1894 17.0171C18.1909 16.9577 18.2357 16.9144 18.2951 16.9147C18.3565 16.9152 18.4019 16.9626 18.4001 17.0245V17.0248Z" fill="#FEFDFD"/>
<path d="M18.0689 13.3485C18.1301 13.329 18.1915 13.329 18.2527 13.3485C18.1915 13.3485 18.1301 13.3485 18.0689 13.3485Z" fill="#D80173"/>
<path d="M10.7578 8.2646C10.9117 8.26691 11.0367 8.31351 11.1445 8.40747C11.5147 8.72982 11.8854 9.05115 12.2544 9.37478C12.2907 9.40678 12.3028 9.40474 12.3273 9.363C12.5701 8.94899 12.8141 8.53549 13.0601 8.12353C13.194 7.8995 13.4677 7.79938 13.7153 7.87824C13.9655 7.95813 14.1298 8.19624 14.1124 8.45458C14.1058 8.55418 14.0735 8.64533 14.0223 8.73136C13.7481 9.19325 13.4757 9.65642 13.2007 10.1178C13.1756 10.1598 13.1799 10.1805 13.216 10.2118C13.6198 10.5607 14.0221 10.9115 14.4248 11.2618C14.5948 11.4095 14.667 11.5951 14.6237 11.8158C14.581 12.034 14.4476 12.1822 14.2341 12.2475C14.0336 12.309 13.849 12.2682 13.69 12.1308C13.3356 11.8245 12.9825 11.517 12.6313 11.2075C12.5867 11.1681 12.5739 11.1763 12.547 11.2226C12.3012 11.642 12.0559 12.0616 11.8043 12.4777C11.6737 12.6938 11.4712 12.7844 11.2238 12.7447C10.9893 12.7068 10.8352 12.5635 10.7696 12.3333C10.7225 12.1687 10.7563 12.0155 10.8434 11.8693C11.1224 11.4008 11.3982 10.9302 11.6778 10.4622C11.7044 10.4176 11.6998 10.3969 11.6617 10.3638C11.2423 10.0016 10.8242 9.63773 10.4071 9.27313C10.2237 9.11285 10.1562 8.91084 10.2232 8.67682C10.2888 8.44793 10.4491 8.31402 10.6838 8.27177C10.7118 8.26665 10.7407 8.2664 10.7581 8.26486L10.7578 8.2646Z" fill="#202020"/>
</svg>
