<svg width="150" height="40" viewBox="0 0 150 40" fill="none" xmlns="http://www.w3.org/2000/svg">
<g clip-path="url(#clip0_1514_56228)">
<path fill-rule="evenodd" clip-rule="evenodd" d="M0 24.8616V22.0377L16.0592 13L32.1185 22.0377V24.8616L16.0592 34.7696L0 24.8616ZM16.0592 16.7833L28.0209 23.515L16.0592 30.895L4.09756 23.515L16.0592 16.7833Z" fill="#1E2134"/>
<path fill-rule="evenodd" clip-rule="evenodd" d="M0 16.8616V14.0377L16.0592 5L32.1185 14.0377V16.8615L16.0592 26.7696L0 16.8616ZM4.09755 15.515L16.0592 8.78331L28.0209 15.515L16.0592 22.895L4.09755 15.515Z" fill="#6848FF"/>
</g>
<path d="M48.8357 26.3248C47.7903 26.3248 46.7764 26.1867 45.7939 25.9107C44.8241 25.622 44.0432 25.2518 43.4512 24.8001L44.4903 22.5036C45.0571 22.9177 45.731 23.2503 46.5119 23.5012C47.2928 23.7522 48.0737 23.8777 48.8546 23.8777C49.7237 23.8777 50.3661 23.7522 50.7817 23.5012C51.1974 23.2377 51.4052 22.8926 51.4052 22.466C51.4052 22.1522 51.2793 21.895 51.0273 21.6942C50.788 21.4809 50.4731 21.3114 50.0827 21.186C49.7048 21.0605 49.1884 20.9224 48.5334 20.7718C47.5258 20.5334 46.7008 20.295 46.0584 20.0565C45.4161 19.8181 44.8619 19.4354 44.3958 18.9083C43.9424 18.3812 43.7157 17.6785 43.7157 16.8001C43.7157 16.0346 43.9235 15.3444 44.3392 14.7295C44.7548 14.102 45.3783 13.6063 46.2096 13.2424C47.0535 12.8785 48.08 12.6965 49.2892 12.6965C50.1331 12.6965 50.9581 12.7969 51.7642 12.9977C52.5703 13.1985 53.2756 13.4871 53.8802 13.8636L52.9356 16.1789C51.7138 15.4887 50.492 15.1436 49.2703 15.1436C48.4138 15.1436 47.7777 15.2816 47.3621 15.5577C46.959 15.8338 46.7575 16.1977 46.7575 16.6495C46.7575 17.1012 46.9905 17.4401 47.4565 17.666C47.9352 17.8793 48.6594 18.0926 49.6293 18.306C50.6369 18.5444 51.4619 18.7828 52.1043 19.0212C52.7466 19.2597 53.2945 19.6361 53.748 20.1507C54.214 20.6652 54.447 21.3616 54.447 22.2401C54.447 22.993 54.2329 23.6832 53.8047 24.3107C53.389 24.9256 52.7592 25.415 51.9153 25.7789C51.0714 26.1428 50.0449 26.3248 48.8357 26.3248Z" fill="#1E2134"/>
<path d="M66.5707 15.9718V26.0989H63.7745V24.8942C63.3841 25.3334 62.918 25.6722 62.3764 25.9107C61.8348 26.1365 61.2491 26.2495 60.6193 26.2495C59.2842 26.2495 58.2262 25.8667 57.4453 25.1012C56.6644 24.3358 56.2739 23.2001 56.2739 21.6942V15.9718H59.2212V21.2612C59.2212 22.8926 59.9077 23.7083 61.2806 23.7083C61.986 23.7083 62.5528 23.4824 62.981 23.0307C63.4092 22.5663 63.6234 21.8824 63.6234 20.9789V15.9718H66.5707Z" fill="#1E2134"/>
<path d="M75.3093 15.8212C76.2539 15.8212 77.1104 16.0409 77.8787 16.4801C78.6597 16.9067 79.2705 17.5154 79.7114 18.306C80.1522 19.084 80.3726 19.9938 80.3726 21.0354C80.3726 22.0769 80.1522 22.993 79.7114 23.7836C79.2705 24.5616 78.6597 25.1703 77.8787 25.6095C77.1104 26.0361 76.2539 26.2495 75.3093 26.2495C73.9112 26.2495 72.8468 25.8103 72.1163 24.9318V26.0989H69.3012V12.1318H72.2486V17.0448C72.9917 16.2291 74.0119 15.8212 75.3093 15.8212ZM74.7991 23.8401C75.5549 23.8401 76.1721 23.5891 76.6507 23.0871C77.1419 22.5726 77.3875 21.8887 77.3875 21.0354C77.3875 20.182 77.1419 19.5044 76.6507 19.0024C76.1721 18.4879 75.5549 18.2307 74.7991 18.2307C74.0434 18.2307 73.4199 18.4879 72.9287 19.0024C72.4501 19.5044 72.2108 20.182 72.2108 21.0354C72.2108 21.8887 72.4501 22.5726 72.9287 23.0871C73.4199 23.5891 74.0434 23.8401 74.7991 23.8401Z" fill="#1E2134"/>
<path d="M86.8989 26.3248C85.8535 26.3248 84.8396 26.1867 83.8571 25.9107C82.8873 25.622 82.1063 25.2518 81.5144 24.8001L82.5535 22.5036C83.1203 22.9177 83.7941 23.2503 84.5751 23.5012C85.356 23.7522 86.1369 23.8777 86.9178 23.8777C87.7869 23.8777 88.4293 23.7522 88.8449 23.5012C89.2606 23.2377 89.4684 22.8926 89.4684 22.466C89.4684 22.1522 89.3424 21.895 89.0905 21.6942C88.8512 21.4809 88.5363 21.3114 88.1459 21.186C87.768 21.0605 87.2516 20.9224 86.5966 20.7718C85.589 20.5334 84.764 20.295 84.1216 20.0565C83.4792 19.8181 82.925 19.4354 82.459 18.9083C82.0056 18.3812 81.7789 17.6785 81.7789 16.8001C81.7789 16.0346 81.9867 15.3444 82.4023 14.7295C82.818 14.102 83.4415 13.6063 84.2728 13.2424C85.1167 12.8785 86.1432 12.6965 87.3524 12.6965C88.1963 12.6965 89.0213 12.7969 89.8274 12.9977C90.6335 13.1985 91.3388 13.4871 91.9434 13.8636L90.9987 16.1789C89.777 15.4887 88.5552 15.1436 87.3335 15.1436C86.477 15.1436 85.8409 15.2816 85.4252 15.5577C85.0222 15.8338 84.8207 16.1977 84.8207 16.6495C84.8207 17.1012 85.0537 17.4401 85.5197 17.666C85.9983 17.8793 86.7226 18.0926 87.6924 18.306C88.7001 18.5444 89.5251 18.7828 90.1674 19.0212C90.8098 19.2597 91.3577 19.6361 91.8112 20.1507C92.2772 20.6652 92.5102 21.3616 92.5102 22.2401C92.5102 22.993 92.2961 23.6832 91.8678 24.3107C91.4522 24.9256 90.8224 25.415 89.9785 25.7789C89.1346 26.1428 88.1081 26.3248 86.8989 26.3248Z" fill="#1E2134"/>
<path d="M104.709 15.9718V29.7507H101.762V25.026C101.032 25.8416 100.018 26.2495 98.7203 26.2495C97.7631 26.2495 96.894 26.0361 96.113 25.6095C95.3447 25.1828 94.7401 24.5742 94.2993 23.7836C93.8585 22.993 93.638 22.0769 93.638 21.0354C93.638 19.9938 93.8585 19.0777 94.2993 18.2871C94.7401 17.4965 95.3447 16.8879 96.113 16.4612C96.894 16.0346 97.7631 15.8212 98.7203 15.8212C100.106 15.8212 101.164 16.2605 101.894 17.1389V15.9718H104.709ZM99.2304 23.8401C99.9736 23.8401 100.591 23.5891 101.082 23.0871C101.573 22.5726 101.819 21.8887 101.819 21.0354C101.819 20.182 101.573 19.5044 101.082 19.0024C100.591 18.4879 99.9736 18.2307 99.2304 18.2307C98.4747 18.2307 97.8512 18.4879 97.36 19.0024C96.8688 19.5044 96.6232 20.182 96.6232 21.0354C96.6232 21.8887 96.8688 22.5726 97.36 23.0871C97.8512 23.5891 98.4747 23.8401 99.2304 23.8401Z" fill="#1E2134"/>
<path d="M117.678 15.9718V26.0989H114.882V24.8942C114.492 25.3334 114.026 25.6722 113.484 25.9107C112.942 26.1365 112.357 26.2495 111.727 26.2495C110.392 26.2495 109.334 25.8667 108.553 25.1012C107.772 24.3358 107.382 23.2001 107.382 21.6942V15.9718H110.329V21.2612C110.329 22.8926 111.015 23.7083 112.388 23.7083C113.094 23.7083 113.66 23.4824 114.089 23.0307C114.517 22.5663 114.731 21.8824 114.731 20.9789V15.9718H117.678Z" fill="#1E2134"/>
<path d="M124.509 15.8212C126.083 15.8212 127.292 16.1977 128.136 16.9507C128.98 17.6911 129.402 18.8142 129.402 20.3201V26.0989H126.644V24.8377C126.089 25.7789 125.057 26.2495 123.545 26.2495C122.764 26.2495 122.084 26.1177 121.505 25.8542C120.938 25.5907 120.503 25.2267 120.201 24.7624C119.899 24.2981 119.748 23.7711 119.748 23.1812C119.748 22.2401 120.1 21.4997 120.806 20.9601C121.524 20.4205 122.626 20.1507 124.112 20.1507H126.455C126.455 19.5107 126.259 19.0212 125.869 18.6824C125.479 18.3311 124.893 18.1554 124.112 18.1554C123.57 18.1554 123.035 18.2432 122.506 18.4189C121.99 18.582 121.549 18.8079 121.183 19.0965L120.125 17.0448C120.68 16.6558 121.341 16.3546 122.109 16.1412C122.89 15.9279 123.69 15.8212 124.509 15.8212ZM124.282 24.273C124.786 24.273 125.233 24.1601 125.623 23.9342C126.014 23.6958 126.291 23.3507 126.455 22.8989V21.8636H124.433C123.224 21.8636 122.619 22.2589 122.619 23.0495C122.619 23.426 122.764 23.7271 123.054 23.953C123.356 24.1663 123.766 24.273 124.282 24.273Z" fill="#1E2134"/>
<path d="M134.885 17.3083C135.237 16.8189 135.71 16.4487 136.302 16.1977C136.906 15.9467 137.599 15.8212 138.38 15.8212V18.5318C138.052 18.5067 137.832 18.4942 137.719 18.4942C136.875 18.4942 136.213 18.7326 135.735 19.2095C135.256 19.6738 135.017 20.3765 135.017 21.3177V26.0989H132.069V15.9718H134.885V17.3083Z" fill="#1E2134"/>
<path d="M149.997 21.073C149.997 21.1107 149.978 21.3742 149.94 21.8636H142.251C142.389 22.4911 142.717 22.9867 143.233 23.3507C143.749 23.7146 144.392 23.8965 145.16 23.8965C145.689 23.8965 146.155 23.8212 146.558 23.6707C146.974 23.5075 147.358 23.2565 147.711 22.9177L149.279 24.6118C148.322 25.7036 146.923 26.2495 145.085 26.2495C143.938 26.2495 142.924 26.0299 142.043 25.5907C141.161 25.1389 140.481 24.5177 140.002 23.7271C139.524 22.9365 139.284 22.0393 139.284 21.0354C139.284 20.044 139.517 19.153 139.983 18.3624C140.462 17.5593 141.111 16.9381 141.929 16.4989C142.761 16.0471 143.686 15.8212 144.707 15.8212C145.702 15.8212 146.602 16.0346 147.408 16.4612C148.215 16.8879 148.844 17.5028 149.298 18.306C149.764 19.0965 149.997 20.0189 149.997 21.073ZM144.726 18.0424C144.058 18.0424 143.498 18.2307 143.044 18.6071C142.591 18.9836 142.314 19.4981 142.213 20.1507H147.219C147.119 19.5107 146.842 19.0024 146.388 18.626C145.935 18.2369 145.381 18.0424 144.726 18.0424Z" fill="#1E2134"/>
<defs>
<clipPath id="clip0_1514_56228">
<rect width="32.1185" height="32" fill="white" transform="translate(0 4)"/>
</clipPath>
</defs>
</svg>
