<svg width="24" height="24" viewBox="0 0 24 24" fill="none" xmlns="http://www.w3.org/2000/svg">
<g clip-path="url(#clip0_4679_31661)">
<path d="M12 0C5.37258 0 0 5.37258 0 12C0 18.6274 5.37258 24 12 24C18.6274 24 24 18.6274 24 12C24 5.37258 18.6274 0 12 0Z" fill="#4CAF50"/>
<path fill-rule="evenodd" clip-rule="evenodd" d="M7.51953 5.44336C7.10532 5.44336 6.76953 5.77915 6.76953 6.19336C6.76953 6.60757 7.10532 6.94336 7.51953 6.94336H16.4789C16.8931 6.94336 17.2289 6.60757 17.2289 6.19336C17.2289 5.77915 16.8931 5.44336 16.4789 5.44336H7.51953ZM4.37207 9.11688C4.37207 8.70266 4.70786 8.36688 5.12207 8.36688C9.70774 8.36688 14.2934 8.36688 18.8791 8.36688C19.2933 8.36688 19.6291 8.70267 19.6291 9.11688C19.6291 9.53109 19.2933 9.86688 18.8791 9.86688H17.8271V16.5417H18.8791C19.2933 16.5417 19.6291 16.8775 19.6291 17.2917C19.6291 17.7059 19.2933 18.0417 18.8791 18.0417C14.2934 18.0417 9.70777 18.0417 5.12207 18.0417C4.70786 18.0417 4.37207 17.7059 4.37207 17.2917C4.37207 16.8775 4.70786 16.5417 5.12207 16.5417H6.16602V9.86688H5.12207C4.70786 9.86688 4.37207 9.53109 4.37207 9.11688ZM14.4395 16.5417H16.3271V10.8107C16.3271 10.2895 15.9046 9.86688 15.3833 9.86688C14.862 9.86688 14.4395 10.2895 14.4395 10.8107V16.5417ZM11.9966 9.86688C12.5173 9.86688 12.9395 10.289 12.9395 10.8097V16.5417H11.0537V10.8097C11.0537 10.289 11.4758 9.86688 11.9966 9.86688ZM7.66602 10.8107C7.66602 10.2895 8.08859 9.86688 8.60986 9.86688C9.13114 9.86688 9.55371 10.2895 9.55371 10.8107V16.5417H7.66602V10.8107Z" fill="white"/>
</g>
<defs>
<clipPath id="clip0_4679_31661">
<rect width="24" height="24" fill="white"/>
</clipPath>
</defs>
</svg>
