<svg width="24" height="24" viewBox="0 0 24 24" fill="none" xmlns="http://www.w3.org/2000/svg">
<g clip-path="url(#clip0_1476_51947)">
<path d="M12 0C5.37258 0 0 5.37258 0 12C0 18.6274 5.37258 24 12 24C18.6274 24 24 18.6274 24 12C24 5.37258 18.6274 0 12 0Z" fill="#E0E4EB"/>
<path fill-rule="evenodd" clip-rule="evenodd" d="M16.0613 6.6773C15.7784 6.56018 15.4753 6.49993 15.1691 6.5C14.863 6.50007 14.5599 6.56046 14.2771 6.67772C13.9943 6.79497 13.7373 6.9668 13.521 7.18337L12.1345 8.56981C11.8416 8.8627 11.3668 8.8627 11.0739 8.56981C10.781 8.27691 10.781 7.80204 11.0739 7.50915L12.4598 6.12321V6.12321C12.8154 5.76735 13.2378 5.48478 13.7025 5.2921C14.1674 5.09937 14.6656 5.00012 15.1688 5C15.672 4.99988 16.1703 5.09891 16.6352 5.29141C17.1001 5.48392 17.5225 5.76614 17.8783 6.12195C18.2341 6.47775 18.5163 6.90018 18.7088 7.36508C18.9013 7.82999 19.0004 8.32827 19.0002 8.83146C19.0001 9.33464 18.9009 9.83288 18.7082 10.2977C18.5155 10.7624 18.2331 11.1846 17.8773 11.5402V11.5402L15.897 13.5205C15.5413 13.8762 15.119 14.1583 14.6543 14.3508C14.1896 14.5433 13.6914 14.6424 13.1884 14.6424C12.6854 14.6424 12.1873 14.5433 11.7225 14.3508C11.2578 14.1583 10.8355 13.8762 10.4798 13.5205C10.1869 13.2276 10.1869 12.7527 10.4798 12.4598C10.7727 12.1669 11.2476 12.1669 11.5404 12.4598C11.7569 12.6762 12.0138 12.8479 12.2965 12.965C12.5793 13.0821 12.8823 13.1424 13.1884 13.1424C13.4945 13.1424 13.7975 13.0821 14.0803 12.965C14.363 12.8479 14.6199 12.6762 14.8364 12.4598L16.8166 10.4795C17.0332 10.2632 17.2053 10.006 17.3225 9.72319C17.4398 9.44039 17.5002 9.13725 17.5002 8.83111C17.5003 8.52496 17.4401 8.2218 17.3229 7.93895C17.2058 7.65609 17.0341 7.39908 16.8176 7.18261C16.6012 6.96613 16.3442 6.79442 16.0613 6.6773ZM10.8121 10.8576C10.506 10.8576 10.203 10.9179 9.92022 11.035C9.63746 11.1521 9.38054 11.3238 9.16413 11.5402L7.18387 13.5205C6.96729 13.7368 6.79522 13.994 6.67796 14.2768C6.5607 14.5596 6.50032 14.8627 6.50024 15.1689C6.50017 15.475 6.56042 15.7782 6.67754 16.0611C6.79467 16.3439 6.96637 16.6009 7.18285 16.8174C7.39933 17.0339 7.65634 17.2056 7.93919 17.3227C8.22205 17.4398 8.52521 17.5001 8.83135 17.5C9.1375 17.4999 9.44063 17.4395 9.72343 17.3223C10.0062 17.205 10.2632 17.0332 10.4795 16.8166L11.866 15.4302C12.1589 15.1373 12.6337 15.1373 12.9266 15.4302C13.2195 15.7231 13.2195 16.198 12.9266 16.4909L11.5407 17.8768V17.8768C11.1851 18.2326 10.7627 18.5152 10.2979 18.7079C9.83312 18.9006 9.33489 18.9999 8.8317 19C8.32852 19.0001 7.83024 18.9011 7.36533 18.7086C6.90042 18.5161 6.478 18.2339 6.12219 17.8781C5.76638 17.5222 5.48417 17.0998 5.29166 16.6349C5.09915 16.17 5.00013 15.6717 5.00024 15.1685C5.00036 14.6654 5.09962 14.1671 5.29234 13.7023C5.48506 13.2375 5.76748 12.8152 6.12345 12.4596L8.10347 10.4795C8.45917 10.1238 8.88145 9.84168 9.3462 9.64918C9.81094 9.45667 10.3091 9.35759 10.8121 9.35759C11.3151 9.35759 11.8132 9.45667 12.278 9.64918C12.7427 9.84168 13.165 10.1238 13.5207 10.4795C13.8136 10.7724 13.8136 11.2473 13.5207 11.5402C13.2278 11.8331 12.7529 11.8331 12.4601 11.5402C12.2436 11.3238 11.9867 11.1521 11.704 11.035C11.4212 10.9179 11.1181 10.8576 10.8121 10.8576Z" fill="#9DA9BB"/>
</g>
<defs>
<clipPath id="clip0_1476_51947">
<rect width="24" height="24" fill="white"/>
</clipPath>
</defs>
</svg>
