<svg width="240" height="160" viewBox="0 0 240 160" fill="none" xmlns="http://www.w3.org/2000/svg">
<path d="M116.903 78.6016H34.0234V149.565H116.903V78.6016Z" fill="#F6F7FA" stroke="#C2C8D4" stroke-linecap="round" stroke-linejoin="round"/>
<path d="M116.903 59.4297H34.0234V78.6017H116.903V59.4297Z" fill="#F6F7FA" stroke="#C2C8D4" stroke-linecap="round" stroke-linejoin="round"/>
<path d="M34.0234 78.6016L116.903 149.565" stroke="#C2C8D4" stroke-linecap="round" stroke-linejoin="round"/>
<path d="M116.489 79.1484L34.0234 149.564" stroke="#C2C8D4" stroke-linecap="round" stroke-linejoin="round"/>
<path d="M205.975 60.2891H118.15V117.55H205.975V60.2891Z" fill="#F6F7FA" stroke="#C2C8D4" stroke-linecap="round" stroke-linejoin="round"/>
<path d="M205.975 41.1172H118.15V60.2892H205.975V41.1172Z" fill="#F6F7FA" stroke="#C2C8D4" stroke-linecap="round" stroke-linejoin="round"/>
<path d="M118.523 60.6484L205.977 117.553" stroke="#C2C8D4" stroke-linecap="round" stroke-linejoin="round"/>
<path d="M205.977 60.2891L118.523 117.637" stroke="#C2C8D4" stroke-linecap="round" stroke-linejoin="round"/>
<path d="M201.587 45.3438L190.864 56.067" stroke="#C2C8D4" stroke-linecap="round" stroke-linejoin="round"/>
<path d="M190.864 45.3438L201.587 56.067" stroke="#C2C8D4" stroke-linecap="round" stroke-linejoin="round"/>
<path d="M176.396 29.5H57.0103V135.765H176.396V29.5Z" fill="white" stroke="#C2C8D4" stroke-linecap="round" stroke-linejoin="round"/>
<path d="M176.396 10.4297H57.0103V29.6017H176.396V10.4297Z" fill="#F6F7FA" stroke="#C2C8D4" stroke-linecap="round" stroke-linejoin="round"/>
<path d="M171.94 18.5078H161.25V25.7569H171.94V18.5078Z" fill="#F6F7FA" stroke="#C2C8D4" stroke-linecap="round" stroke-linejoin="round"/>
<path d="M168.403 14.2812H157.713V21.5304H168.403V14.2812Z" fill="#F6F7FA" stroke="#C2C8D4" stroke-linecap="round" stroke-linejoin="round"/>
<path d="M151.145 25.3828H139.076" stroke="#C2C8D4" stroke-linecap="round" stroke-linejoin="round"/>
<path d="M133.389 83.3438L129.178 88.9046L133.389 94.5898H120.714V100.212H129.253L135.389 105.894L129.253 111.455H120.714V121.701H130.573V125.513H102.405V121.701H112.263V111.455H99.5879L103.799 105.894L99.5879 100.209H112.263V94.5874H103.724L97.5879 88.9046L103.724 83.3438H133.389Z" fill="#F6F7FA" stroke="#C2C8D4" stroke-linecap="round" stroke-linejoin="round"/>
<path d="M113.672 66.4728V54.1987C114.737 54.1987 116.204 53.998 117.24 53.7785C120.825 53.025 122.012 48.4055 118.94 46.1919C116.085 44.1357 112.351 46.2295 112.264 49.6026H106.63C106.705 41.5842 115.644 36.9529 122.282 41.6241C127.932 45.6004 127.594 54.4662 121.646 58.0013C120.881 58.4567 120.082 58.7847 119.304 59.1773V66.4681L113.672 66.4728Z" fill="#C2C8D4"/>
<path d="M115.913 70.7304C119.873 70.0896 120.453 75.7208 117.061 76.2678C113.101 76.9086 112.521 71.2773 115.913 70.7304Z" fill="#C2C8D4"/>
<path d="M113.672 66.4728V54.1987C114.737 54.1987 116.204 53.998 117.24 53.7785C120.825 53.025 122.012 48.4055 118.94 46.1919C116.085 44.1357 112.351 46.2295 112.264 49.6026H106.63C106.705 41.5842 115.644 36.9529 122.282 41.6241C127.932 45.6004 127.594 54.4662 121.646 58.0013C120.881 58.4567 120.082 58.7847 119.304 59.1773V66.4681L113.672 66.4728Z" stroke="#C2C8D4" stroke-linecap="round" stroke-linejoin="round"/>
<path d="M115.913 70.7304C119.873 70.0896 120.453 75.7208 117.061 76.2678C113.101 76.9086 112.521 71.2773 115.913 70.7304Z" stroke="#C2C8D4" stroke-linecap="round" stroke-linejoin="round"/>
<path d="M142.795 56.146H152.713V59.7364H142.795V56.146Z" fill="#EBEEF4"/>
<path d="M137.993 45.9078L145.556 39.4922L147.879 42.2302L140.316 48.6458L137.993 45.9078Z" fill="#EBEEF4"/>
<path d="M137.993 70.9714L145.556 77.387L147.879 74.649L140.316 68.2334L137.993 70.9714Z" fill="#EBEEF4"/>
<path d="M142.795 56.146H152.713V59.7364H142.795V56.146Z" stroke="#C2C8D4" stroke-linecap="round" stroke-linejoin="round"/>
<path d="M137.993 45.9078L145.556 39.4922L147.879 42.2302L140.316 48.6458L137.993 45.9078Z" stroke="#C2C8D4" stroke-linecap="round" stroke-linejoin="round"/>
<path d="M137.993 70.9714L145.556 77.387L147.879 74.649L140.316 68.2334L137.993 70.9714Z" stroke="#C2C8D4" stroke-linecap="round" stroke-linejoin="round"/>
<path d="M90.7313 56.146H80.8135V59.7364H90.7313V56.146Z" fill="#EBEEF4"/>
<path d="M95.5332 45.9078L87.97 39.4922L85.6474 42.2302L93.2106 48.6458L95.5332 45.9078Z" fill="#EBEEF4"/>
<path d="M95.5332 70.9714L87.97 77.387L85.6474 74.649L93.2106 68.2334L95.5332 70.9714Z" fill="#EBEEF4"/>
<path d="M90.7313 56.146H80.8135V59.7364H90.7313V56.146Z" stroke="#C2C8D4" stroke-linecap="round" stroke-linejoin="round"/>
<path d="M95.5332 45.9078L87.97 39.4922L85.6474 42.2302L93.2106 48.6458L95.5332 45.9078Z" stroke="#C2C8D4" stroke-linecap="round" stroke-linejoin="round"/>
<path d="M95.5332 70.9714L87.97 77.387L85.6474 74.649L93.2106 68.2334L95.5332 70.9714Z" stroke="#C2C8D4" stroke-linecap="round" stroke-linejoin="round"/>
<path d="M173.94 158.993C187.056 158.993 197.689 148.281 197.689 135.067C197.689 121.853 187.056 111.141 173.94 111.141C160.823 111.141 150.19 121.853 150.19 135.067C150.19 148.281 160.823 158.993 173.94 158.993Z" fill="#F6F7FA" stroke="#C2C8D4" stroke-linecap="round" stroke-linejoin="round"/>
<path d="M164.225 149.67C164.225 147.184 165.213 144.8 166.97 143.042C168.728 141.284 171.112 140.297 173.598 140.297C176.084 140.297 178.468 141.284 180.225 143.042C181.983 144.8 182.97 147.184 182.97 149.67" fill="#F6F7FA"/>
<path d="M164.225 149.67C164.225 147.184 165.213 144.8 166.97 143.042C168.728 141.284 171.112 140.297 173.598 140.297C176.084 140.297 178.468 141.284 180.225 143.042C181.983 144.8 182.97 147.184 182.97 149.67" stroke="#C2C8D4" stroke-linecap="round" stroke-linejoin="round"/>
<path d="M169.056 133.847C170.176 133.847 171.084 130.813 171.084 127.072C171.084 123.33 170.176 120.297 169.056 120.297C167.937 120.297 167.029 123.33 167.029 127.072C167.029 130.813 167.937 133.847 169.056 133.847Z" fill="#C2C8D4"/>
<path d="M178.025 133.847C179.136 133.847 180.037 130.813 180.037 127.072C180.037 123.33 179.136 120.297 178.025 120.297C176.913 120.297 176.012 123.33 176.012 127.072C176.012 130.813 176.913 133.847 178.025 133.847Z" fill="#C2C8D4"/>
</svg>
