<svg width="240" height="160" viewBox="0 0 240 160" fill="none" xmlns="http://www.w3.org/2000/svg">
<g clip-path="url(#clip0_32632_91090)">
<path d="M177.236 52.5744C185.948 52.5744 193.011 45.5115 193.011 36.7989C193.011 28.0864 185.948 21.0234 177.236 21.0234C168.524 21.0234 161.462 28.0864 161.462 36.7989C161.462 45.5115 168.524 52.5744 177.236 52.5744Z" fill="#E0E4EB" stroke="#C2C8D4" stroke-linecap="round" stroke-linejoin="round"/>
<path d="M151.261 24.4923C155.56 24.4923 159.046 21.0067 159.046 16.7071C159.046 12.4074 155.56 8.92188 151.261 8.92188C146.961 8.92188 143.476 12.4074 143.476 16.7071C143.476 21.0067 146.961 24.4923 151.261 24.4923Z" fill="#E0E4EB" stroke="#C2C8D4" stroke-linecap="round" stroke-linejoin="round"/>
<path d="M151.261 70.0391H57.9745V137.687H151.261V70.0391Z" fill="white" stroke="#C2C8D4" stroke-linecap="round" stroke-linejoin="round"/>
<path d="M66.584 11.2976L73.8353 0.445312L77.1682 13.0645L87.5489 5.15447L86.6054 18.1719L98.992 14.0616L93.873 26.0671L106.924 26.2008L98.1837 35.894L110.483 40.2585L99.0693 46.5888L109.287 54.7114L96.4347 56.9909L103.462 67.9903L90.5668 65.9753L93.6397 78.6599L82.0985 72.5658L80.8875 85.5609L71.9497 76.0505L66.584 87.9489L61.2183 76.0505L52.282 85.5609L51.0695 72.5658L39.5283 78.6599L42.6026 65.9753L29.7078 67.9903L36.7332 56.9909L23.883 54.7114L34.0987 46.5888L22.6853 40.2585L34.9858 35.894L26.2456 26.2008L39.295 26.0671L34.176 14.0616L46.5626 18.1719L45.6191 5.15447L55.9998 13.0645L59.3342 0.445312L66.584 11.2976Z" fill="#F6F7FA" stroke="#C2C8D4" stroke-linecap="round" stroke-linejoin="round"/>
<path d="M49.8033 63.4065C49.8033 58.9558 51.5713 54.6873 54.7183 51.5402C57.8652 48.393 62.1334 46.625 66.5839 46.625C71.0344 46.625 75.3026 48.393 78.4495 51.5402C81.5965 54.6873 83.3645 58.9558 83.3645 63.4065" fill="#F6F7FA"/>
<path d="M49.8033 63.4065C49.8033 58.9558 51.5713 54.6873 54.7183 51.5402C57.8652 48.393 62.1334 46.625 66.5839 46.625C71.0344 46.625 75.3026 48.393 78.4495 51.5402C81.5965 54.6873 83.3645 58.9558 83.3645 63.4065" stroke="#C2C8D4" stroke-linecap="round" stroke-linejoin="round"/>
<path d="M60 40.3203C61.6232 40.3203 62.939 35.9236 62.939 30.5C62.939 25.0764 61.6232 20.6797 60 20.6797C58.3769 20.6797 57.061 25.0764 57.061 30.5C57.061 35.9236 58.3769 40.3203 60 40.3203Z" fill="#C2C8D4"/>
<path d="M73.0001 40.3203C74.6111 40.3203 75.9171 35.9236 75.9171 30.5C75.9171 25.0764 74.6111 20.6797 73.0001 20.6797C71.389 20.6797 70.083 25.0764 70.083 30.5C70.083 35.9236 71.389 40.3203 73.0001 40.3203Z" fill="#C2C8D4"/>
<path d="M38.2459 93.8444L41.7007 85.5391L44.038 94.2263L52.6861 91.7491L47.3502 98.9934L54.6802 104.211L45.6904 104.556L46.1808 113.54L40.3054 106.725L33.5875 112.711L35.2518 103.869L26.3853 102.347L34.335 98.136L29.9961 90.2557L38.2459 93.8444Z" fill="#EBEEF4" stroke="#C2C8D4" stroke-linecap="round" stroke-linejoin="round"/>
<path d="M19.6674 79.5792L22.9186 74.2578L22.4877 80.4797L27.8088 83.7326L21.5872 83.3017L18.336 88.6231L18.7669 82.4011L13.4458 79.1483L19.6674 79.5792Z" fill="#EBEEF4" stroke="#C2C8D4" stroke-linecap="round" stroke-linejoin="round"/>
<path d="M180.716 48.0547H87.4301V115.702H180.716V48.0547Z" fill="white" stroke="#C2C8D4" stroke-linecap="round" stroke-linejoin="round"/>
<path d="M180.716 31.0391H87.4301V48.0479H180.716V31.0391Z" fill="white" stroke="#C2C8D4" stroke-linecap="round" stroke-linejoin="round"/>
<path d="M175.93 34.7578L166.489 44.1999" stroke="#C2C8D4" stroke-linecap="round" stroke-linejoin="round"/>
<path d="M166.489 34.7578L175.93 44.1999" stroke="#C2C8D4" stroke-linecap="round" stroke-linejoin="round"/>
<path d="M154.524 13.4453L147.996 19.9719" stroke="#C2C8D4" stroke-linecap="round" stroke-linejoin="round"/>
<path d="M147.996 13.4453L154.524 19.9719" stroke="#C2C8D4" stroke-linecap="round" stroke-linejoin="round"/>
<path d="M162.013 38.2344H153.219V44.1977H162.013V38.2344Z" stroke="#C2C8D4" stroke-linecap="round" stroke-linejoin="round"/>
<path d="M159.104 34.7578H150.31V40.7212H159.104V34.7578Z" stroke="#C2C8D4" stroke-linecap="round" stroke-linejoin="round"/>
<path d="M145.185 44.1953H134.558" stroke="#C2C8D4" stroke-linecap="round" stroke-linejoin="round"/>
<path d="M217.477 117.766C217.477 117.766 199.92 139.462 178.263 139.462C156.606 139.462 139.05 117.766 139.05 117.766C139.05 117.766 156.606 96.0703 178.263 96.0703C199.92 96.0703 217.477 117.766 217.477 117.766Z" fill="#F6F7FA" stroke="#C2C8D4" stroke-linecap="round" stroke-linejoin="round"/>
<path d="M186.545 130.673C184.661 137.714 178.35 140.161 170.847 138.501C163.827 136.953 159.564 130.785 161.445 123.745C162.349 120.365 164.539 117.487 167.532 115.747C170.525 114.006 174.076 113.544 177.405 114.462C180.733 115.381 183.566 117.605 185.28 120.645C186.994 123.685 187.449 127.292 186.545 130.673Z" fill="#C2C8D4"/>
<path d="M138.05 151.255C138.05 151.255 144.767 142.953 153.057 142.953C161.347 142.953 168.065 151.255 168.065 151.255C168.065 151.255 161.347 159.558 153.057 159.558C144.767 159.558 138.05 151.255 138.05 151.255Z" fill="#EBEEF4" stroke="#C2C8D4" stroke-linecap="round" stroke-linejoin="round"/>
<path d="M156.211 155.558C159.577 155.558 162.306 152.829 162.306 149.463C162.306 146.096 159.577 143.367 156.211 143.367C152.844 143.367 150.115 146.096 150.115 149.463C150.115 152.829 152.844 155.558 156.211 155.558Z" fill="#C2C8D4"/>
<path d="M184.926 96.7901L187.517 84.2734" stroke="#C2C8D4" stroke-linecap="round" stroke-linejoin="round"/>
<path d="M196.417 100.832L202.689 89.7734" stroke="#C2C8D4" stroke-linecap="round" stroke-linejoin="round"/>
<path d="M207.879 107.841L216.451 99.3203" stroke="#C2C8D4" stroke-linecap="round" stroke-linejoin="round"/>
<path d="M217.379 117.794L226.554 113.648" stroke="#C2C8D4" stroke-linecap="round" stroke-linejoin="round"/>
<path d="M165.359 58.125H72.073V125.773H165.359V58.125Z" fill="#F6F7FA" stroke="#C2C8D4" stroke-linecap="round" stroke-linejoin="round"/>
<path d="M118.716 114.722C130.854 114.722 140.693 104.882 140.693 92.7437C140.693 80.6055 130.854 70.7656 118.716 70.7656C106.579 70.7656 96.7394 80.6055 96.7394 92.7437C96.7394 104.882 106.579 114.722 118.716 114.722Z" fill="white" stroke="#C2C8D4" stroke-linecap="round" stroke-linejoin="round"/>
<path d="M123.323 92.7403L130.409 99.8271L125.803 104.44L118.716 97.3528L111.63 104.44L107.023 99.8271L114.111 92.7403L107.023 85.6535L111.63 81.0469L118.716 88.1336L125.803 81.0469L130.409 85.6535L123.323 92.7403Z" fill="#C2C8D4" stroke="#C2C8D4" stroke-linecap="round" stroke-linejoin="round"/>
<path d="M173.556 96.4067L171.995 84.2734" stroke="#C2C8D4" stroke-linecap="round" stroke-linejoin="round"/>
</g>
<defs>
<clipPath id="clip0_32632_91090">
<rect width="240" height="160" fill="white"/>
</clipPath>
</defs>
</svg>
