<svg width="240" height="160" viewBox="0 0 240 160" fill="none" xmlns="http://www.w3.org/2000/svg">
<g clip-path="url(#clip0_33215_39246)">
<path d="M145.894 62.7969V124.983L145.824 125.144L138.157 108.185L125.392 121.74L123.665 103.22L107.167 111.91L111.562 93.8295L93.1368 96.7036L103.182 81.0264L84.8167 77.7726L99.4183 66.2L93.2672 62.7969H145.894Z" fill="#212433" stroke="#575C72" stroke-linecap="round" stroke-linejoin="round"/>
<path d="M206.832 77.772L188.477 81.0259L198.512 96.703L180.087 93.8289L184.482 111.909L167.994 103.22L166.257 121.739L153.492 108.184L145.894 124.982V62.7963H93.2672L83.1108 57.1806L100.683 50.9637L88.1884 37.149L106.835 36.9585L99.5189 19.8501L117.223 25.7065L115.878 7.15643L130.7 18.4291L135.468 0.449219L145.824 15.9153L156.181 0.449219L160.949 18.4291L175.781 7.15643L174.426 25.7065L192.13 19.8501L184.814 36.9585L203.461 37.149L190.975 50.9637L208.548 57.1806L192.24 66.1995L206.832 77.772Z" fill="#1E2130" stroke="#575C72" stroke-linecap="round" stroke-linejoin="round"/>
<path d="M126 98C126 92.9609 128.107 88.1282 131.858 84.565C135.609 81.0018 140.696 79 146 79C151.304 79 156.391 81.0018 160.142 84.565C163.893 88.1282 166 92.9609 166 98" stroke="#575C72" stroke-linecap="round" stroke-linejoin="round"/>
<path d="M134 55C136.209 55 138 48.9558 138 41.5C138 34.0442 136.209 28 134 28C131.791 28 130 34.0442 130 41.5C130 48.9558 131.791 55 134 55Z" fill="#575C72"/>
<path d="M157.5 55C159.433 55 161 48.9558 161 41.5C161 34.0442 159.433 28 157.5 28C155.567 28 154 34.0442 154 41.5C154 48.9558 155.567 55 157.5 55Z" fill="#575C72"/>
<path d="M145.894 124.98V146.143H62.3259V62.793H93.2659L99.4183 66.1974L84.8154 77.77L103.181 81.0225L93.1356 96.6997L111.562 93.8269L107.166 111.906L123.664 103.216L125.391 121.737L138.156 108.182L145.823 125.14L145.894 124.98Z" stroke="#575C72" stroke-linecap="round" stroke-linejoin="round"/>
<path d="M55.4664 69.6406H69.1931V55.9482H55.4664V69.6406Z" fill="#363A4D" stroke="#575C72" stroke-linecap="round" stroke-linejoin="round"/>
<path d="M139.032 69.6406H152.759V55.9482H139.032V69.6406Z" fill="#363A4D" stroke="#575C72" stroke-linecap="round" stroke-linejoin="round"/>
<path d="M139.032 152.996H152.759V139.304H139.032V152.996Z" fill="#363A4D" stroke="#575C72" stroke-linecap="round" stroke-linejoin="round"/>
<path d="M55.4664 152.996H69.1931V139.304H55.4664V152.996Z" fill="#363A4D" stroke="#575C72" stroke-linecap="round" stroke-linejoin="round"/>
<path d="M62.3259 84.6252V119.653L57.2071 132.596L52.0186 119.683L39.7654 126.32L44.11 113.096L30.4517 110.323L42.2945 102.985L33.613 92.0931L47.4224 94.0663L47.794 80.1602L57.0871 90.5215L62.3259 84.6252Z" fill="#282B3B" stroke="#575C72" stroke-linecap="round" stroke-linejoin="round"/>
<path d="M70.2034 113.028L74.619 126.222L62.3258 119.655V84.6272L66.3401 80.1133L66.7814 94.0181L80.5804 91.9651L71.9596 102.897L83.8527 110.175L70.2034 113.028Z" fill="#212433" stroke="#575C72" stroke-linecap="round" stroke-linejoin="round"/>
<path d="M189.681 136.676L195.072 128.027L195.745 138.189L205.885 137.001L198.34 143.862L205.593 151.028L195.512 149.423L194.416 159.548L189.389 150.685L180.771 156.143L184.584 146.696L174.932 143.378L184.713 140.462L181.296 130.865L189.681 136.676Z" fill="#282B3B" stroke="#575C72" stroke-linecap="round" stroke-linejoin="round"/>
</g>
<defs>
<clipPath id="clip0_33215_39246">
<rect width="240" height="160" fill="white"/>
</clipPath>
</defs>
</svg>
