<svg width="240" height="160" viewBox="0 0 240 160" fill="none" xmlns="http://www.w3.org/2000/svg">
<g clip-path="url(#clip0_35567_50470)">
<path d="M163.613 17.75H33.7617V113.077H163.613V17.75Z" fill="#363A4D" stroke="#575C72" stroke-linecap="round" stroke-linejoin="round"/>
<path d="M93.9358 17.8601H33.7617L46.3555 0.445312H81.3421L93.9358 17.8601Z" fill="#363A4D" stroke="#575C72" stroke-linecap="round" stroke-linejoin="round"/>
<path d="M184.926 29.8438H55.0752V125.17H184.926V29.8438Z" fill="#282B3B" stroke="#575C72" stroke-linecap="round" stroke-linejoin="round"/>
<path d="M115.248 29.8444H55.0752L67.6677 12.4297H102.654L115.248 29.8444Z" fill="#282B3B" stroke="#575C72" stroke-linecap="round" stroke-linejoin="round"/>
<path d="M206.238 42H76.3867V137.327H206.238V42Z" fill="#212433" stroke="#575C72" stroke-linecap="round" stroke-linejoin="round"/>
<path d="M137.858 88.9767V76.7026C138.923 76.7026 140.39 76.5019 141.426 76.2824C145.011 75.5289 146.198 70.9094 143.126 68.6958C140.271 66.6396 136.537 68.7334 136.45 72.1065H130.816C130.892 64.0881 139.83 59.4568 146.468 64.128C152.118 68.1043 151.78 76.9702 145.832 80.5052C145.067 80.9606 144.268 81.2886 143.49 81.6812V88.972L137.858 88.9767Z" fill="#575C72"/>
<path d="M140.099 93.2343C144.059 92.5935 144.639 98.2247 141.247 98.7717C137.287 99.4125 136.707 93.7813 140.099 93.2343Z" fill="#575C72"/>
<path d="M137.858 88.9767V76.7026C138.923 76.7026 140.39 76.5019 141.426 76.2824C145.011 75.5289 146.198 70.9094 143.126 68.6958C140.271 66.6396 136.537 68.7334 136.45 72.1065H130.816C130.892 64.0881 139.83 59.4568 146.468 64.128C152.118 68.1043 151.78 76.9702 145.832 80.5052C145.067 80.9606 144.268 81.2886 143.49 81.6812V88.972L137.858 88.9767Z" stroke="#575C72" stroke-linecap="round" stroke-linejoin="round"/>
<path d="M140.099 93.2343C144.059 92.5935 144.639 98.2247 141.247 98.7717C137.287 99.4125 136.707 93.7813 140.099 93.2343Z" stroke="#575C72" stroke-linecap="round" stroke-linejoin="round"/>
<path d="M166.982 78.6538H176.899V82.2442H166.982V78.6538Z" fill="#282B3B"/>
<path d="M162.18 68.4156L169.743 62L172.065 64.738L164.502 71.1536L162.18 68.4156Z" fill="#282B3B"/>
<path d="M162.18 93.4792L169.743 99.8948L172.065 97.1568L164.502 90.7412L162.18 93.4792Z" fill="#282B3B"/>
<path d="M166.982 78.6538H176.899V82.2442H166.982V78.6538Z" stroke="#575C72" stroke-linecap="round" stroke-linejoin="round"/>
<path d="M162.18 68.4156L169.743 62L172.065 64.738L164.502 71.1536L162.18 68.4156Z" stroke="#575C72" stroke-linecap="round" stroke-linejoin="round"/>
<path d="M162.18 93.4792L169.743 99.8948L172.065 97.1568L164.502 90.7412L162.18 93.4792Z" stroke="#575C72" stroke-linecap="round" stroke-linejoin="round"/>
<path d="M114.918 78.6538H105V82.2442H114.918V78.6538Z" fill="#282B3B"/>
<path d="M119.72 68.4156L112.157 62L109.834 64.738L117.397 71.1536L119.72 68.4156Z" fill="#282B3B"/>
<path d="M119.72 93.4792L112.157 99.8948L109.834 97.1568L117.397 90.7412L119.72 93.4792Z" fill="#282B3B"/>
<path d="M114.918 78.6538H105V82.2442H114.918V78.6538Z" stroke="#575C72" stroke-linecap="round" stroke-linejoin="round"/>
<path d="M119.72 68.4156L112.157 62L109.834 64.738L117.397 71.1536L119.72 68.4156Z" stroke="#575C72" stroke-linecap="round" stroke-linejoin="round"/>
<path d="M119.72 93.4792L112.157 99.8948L109.834 97.1568L117.397 90.7412L119.72 93.4792Z" stroke="#575C72" stroke-linecap="round" stroke-linejoin="round"/>
<path d="M136.561 42.041H76.3867L88.9805 24.625H123.967L136.561 42.041Z" fill="#212433" stroke="#575C72" stroke-linecap="round" stroke-linejoin="round"/>
<path d="M141.94 158.989C155.056 158.989 165.689 148.277 165.689 135.063C165.689 121.849 155.056 111.137 141.94 111.137C128.823 111.137 118.19 121.849 118.19 135.063C118.19 148.277 128.823 158.989 141.94 158.989Z" fill="#1E2130" stroke="#575C72" stroke-linecap="round" stroke-linejoin="round"/>
<path d="M132.225 149.666C132.225 147.18 133.212 144.796 134.97 143.038C136.728 141.28 139.112 140.293 141.597 140.293C144.083 140.293 146.467 141.28 148.225 143.038C149.982 144.796 150.97 147.18 150.97 149.666" fill="#1E2130"/>
<path d="M132.225 149.666C132.225 147.18 133.212 144.796 134.97 143.038C136.728 141.28 139.112 140.293 141.597 140.293C144.083 140.293 146.467 141.28 148.225 143.038C149.982 144.796 150.97 147.18 150.97 149.666" stroke="#575C72" stroke-linecap="round" stroke-linejoin="round"/>
<path d="M137.057 133.843C138.177 133.843 139.084 130.809 139.084 127.068C139.084 123.326 138.177 120.293 137.057 120.293C135.937 120.293 135.029 123.326 135.029 127.068C135.029 130.809 135.937 133.843 137.057 133.843Z" fill="#575C72"/>
<path d="M146.024 133.843C147.136 133.843 148.037 130.809 148.037 127.068C148.037 123.326 147.136 120.293 146.024 120.293C144.913 120.293 144.012 123.326 144.012 127.068C144.012 130.809 144.913 133.843 146.024 133.843Z" fill="#575C72"/>
</g>
<defs>
<clipPath id="clip0_35567_50470">
<rect width="173.369" height="160" fill="white" transform="translate(33.3154)"/>
</clipPath>
</defs>
</svg>
