<svg width="24" height="24" viewBox="0 0 24 24" fill="none" xmlns="http://www.w3.org/2000/svg">
<path d="M12.1766 22.2013C16.7299 22.2013 20.9653 18.8323 20.9653 12.4253C20.9653 6.59562 16.8803 2.71283 13.9428 0.929003C13.29 0.532351 12.5274 1.05351 12.5274 1.8413V3.85541C12.5274 5.44422 11.8882 8.34419 10.112 9.55067C9.20493 10.1666 8.22402 9.24437 8.11432 8.12052L8.02361 7.19721C7.91814 6.12404 6.87183 5.47287 6.05124 6.12735C4.57565 7.30078 3.03467 9.36116 3.03467 12.4242C3.03467 18.2637 6.70155 22.2013 12.1766 22.2013Z" fill="url(#paint0_linear_27405_121067)"/>
<path d="M8.07562 17.8785C8.07562 21.0778 10.1767 22.2142 12.0335 22.2142C13.8902 22.2142 15.9243 20.7045 15.9243 17.8785C15.9243 16.2948 15.006 15.3167 14.2873 14.8588C14.0675 14.7184 13.8119 14.8954 13.7928 15.1714C13.73 16.0481 12.9564 16.7466 12.4305 16.0799C11.9652 15.4913 11.769 14.6305 11.769 14.0798V13.3593C11.769 12.9271 11.3687 12.6389 11.0256 12.8611C9.75187 13.6829 8.07562 15.3753 8.07562 17.8785Z" fill="#FFD000"/>
<defs>
<linearGradient id="paint0_linear_27405_121067" x1="12" y1="0.792969" x2="12" y2="22.2013" gradientUnits="userSpaceOnUse">
<stop stop-color="#FF7B71"/>
<stop offset="1" stop-color="#F44336"/>
</linearGradient>
</defs>
</svg>
