<svg width="24" height="24" viewBox="0 0 24 24" fill="none" xmlns="http://www.w3.org/2000/svg">
<path fill-rule="evenodd" clip-rule="evenodd" d="M6.16637 6.16637C9.3882 2.94454 14.6118 2.94454 17.8336 6.16637L17.834 6.16671C21.0554 9.38857 21.0553 14.6119 17.8336 17.8336C14.6118 21.0554 9.38818 21.0554 6.16637 17.8336C2.94454 14.6118 2.94454 9.38818 6.16637 6.16637L6.16637 6.16637ZM18.8943 18.8943C22.7019 15.0867 22.7019 8.91332 18.8943 5.10571C15.0867 1.2981 8.91332 1.2981 5.10571 5.10571C1.2981 8.9133 1.2981 15.0867 5.10571 18.8943C8.9133 22.7019 15.0867 22.7019 18.8943 18.8943ZM12.4688 6.73584C12.4688 6.32163 12.133 5.98584 11.7188 5.98584C11.3045 5.98584 10.9688 6.32163 10.9688 6.73584V13.0638C10.9688 13.328 11.1077 13.5726 11.3345 13.708L15.4186 16.1441C15.7743 16.3563 16.2347 16.2399 16.4469 15.8842C16.6591 15.5285 16.5428 15.0681 16.187 14.8559L12.4688 12.6379V6.73584Z" fill="#1E2134"/>
</svg>
