<svg width="24" height="24" viewBox="0 0 24 24" fill="none" xmlns="http://www.w3.org/2000/svg">
<path fill-rule="evenodd" clip-rule="evenodd" d="M3.75 5C3.75 4.21824 4.28938 3.75 4.76471 3.75H19.2353C19.7106 3.75 20.25 4.21824 20.25 5V19C20.25 19.7818 19.7106 20.25 19.2353 20.25H4.76471C4.28938 20.25 3.75 19.7818 3.75 19V5ZM4.76471 2.25C3.29003 2.25 2.25 3.57176 2.25 5V19C2.25 20.4282 3.29003 21.75 4.76471 21.75H19.2353C20.71 21.75 21.75 20.4282 21.75 19V5C21.75 3.57176 20.71 2.25 19.2353 2.25H4.76471ZM8.66667 7.25C8.25245 7.25 7.91667 7.58579 7.91667 8C7.91667 8.41421 8.25245 8.75 8.66667 8.75H15.3333C15.7475 8.75 16.0833 8.41421 16.0833 8C16.0833 7.58579 15.7475 7.25 15.3333 7.25H8.66667ZM7 11.25C6.58579 11.25 6.25 11.5858 6.25 12C6.25 12.4142 6.58579 12.75 7 12.75H17C17.4142 12.75 17.75 12.4142 17.75 12C17.75 11.5858 17.4142 11.25 17 11.25H7ZM8.66667 15.25C8.25245 15.25 7.91667 15.5858 7.91667 16C7.91667 16.4142 8.25245 16.75 8.66667 16.75H15.3333C15.7475 16.75 16.0833 16.4142 16.0833 16C16.0833 15.5858 15.7475 15.25 15.3333 15.25H8.66667Z" fill="#1E2134"/>
</svg>
