<svg width="24" height="24" viewBox="0 0 24 24" fill="none" xmlns="http://www.w3.org/2000/svg">
<path d="M6.04138 21C6.58637 19.8814 7.43388 18.9388 8.48736 18.2794C9.54084 17.62 10.7579 17.2703 12 17.2703C13.2421 17.2703 14.4592 17.62 15.5126 18.2794C16.5661 18.9388 17.4136 19.8814 17.9586 21M18.9138 10.6947C20.5425 10.9295 22.0119 11.8019 23 13.1207M15.0448 5.88411C15.2852 5.38138 15.648 4.94745 16.0999 4.62239C16.5518 4.29734 17.0781 4.09164 17.6303 4.0243C18.1825 3.95696 18.7427 4.03014 19.2591 4.23709C19.7756 4.44405 20.2318 4.77809 20.5854 5.20838C20.939 5.63868 21.1788 6.15133 21.2825 6.69902C21.3862 7.2467 21.3505 7.81174 21.1788 8.34196C21.0071 8.87218 20.7048 9.35048 20.2999 9.73269C19.8949 10.1149 19.4005 10.3887 18.8621 10.5288M5.13793 10.5288C4.59954 10.3887 4.10506 10.1149 3.70014 9.73269C3.29523 9.35048 2.99294 8.87218 2.8212 8.34196C2.64946 7.81174 2.6138 7.2467 2.71751 6.69902C2.82123 6.15133 3.06097 5.63868 3.41461 5.20838C3.76825 4.77809 4.22437 4.44405 4.74086 4.23709C5.25734 4.03014 5.81753 3.95696 6.3697 4.0243C6.92186 4.09164 7.44819 4.29734 7.90007 4.62239C8.35196 4.94745 8.71483 5.38138 8.95517 5.88411M1 13.1207C1.98806 11.8019 3.45747 10.9295 5.08621 10.6947M16.1379 13.1207C16.1379 15.411 14.2853 17.2677 12 17.2677C9.71468 17.2677 7.86207 15.411 7.86207 13.1207C7.86207 10.8303 9.71468 8.97364 12 8.97364C14.2853 8.97364 16.1379 10.8303 16.1379 13.1207Z" stroke="#1E2134" stroke-width="1.5" stroke-linecap="round" stroke-linejoin="round"/>
</svg>
