<svg width="24" height="24" viewBox="0 0 24 24" fill="none" xmlns="http://www.w3.org/2000/svg">
<path d="M12 16.9091C13.8075 16.9091 15.2727 15.4438 15.2727 13.6364C15.2727 11.8289 13.8075 10.3636 12 10.3636C10.1925 10.3636 8.72727 11.8289 8.72727 13.6364C8.72727 15.4438 10.1925 16.9091 12 16.9091ZM12 16.9091C14.4325 16.9091 16.4517 18.6782 16.8412 21H19C20.1046 21 21 20.1046 21 19V5C21 3.89543 20.1046 3 19 3H5C3.89543 3 3 3.89543 3 5V19C3 20.1046 3.89543 21 5 21H7.15878C7.5483 18.6782 9.56755 16.9091 12 16.9091Z" stroke="#1E2134" stroke-width="1.5" stroke-linecap="round" stroke-linejoin="round"/>
</svg>
