<svg width="24" height="24" viewBox="0 0 24 24" fill="none" xmlns="http://www.w3.org/2000/svg">
<path d="M13.533 12C13.533 15.7279 10.5035 18.75 6.76648 18.75C3.02944 18.75 0 15.7279 0 12C0 8.27206 3.02944 5.25 6.76648 5.25C10.5035 5.25 13.533 8.27206 13.533 12Z" fill="#1E2134"/>
<path d="M20.9182 12C20.9182 15.506 19.4035 18.3482 17.535 18.3482C15.6665 18.3482 14.1518 15.506 14.1518 12C14.1518 8.49399 15.6665 5.65182 17.535 5.65182C19.4035 5.65182 20.9182 8.49399 20.9182 12Z" fill="#1E2134"/>
<path d="M22.7685 17.7085C23.4485 17.7085 24 15.1528 24 12C24 8.8472 23.4485 6.29123 22.7685 6.29123C22.0883 6.29123 21.5369 8.8472 21.5369 12C21.5369 15.1528 22.0883 17.7085 22.7685 17.7085Z" fill="#1E2134"/>
</svg>
