<svg width="24" height="24" viewBox="0 0 24 24" fill="none" xmlns="http://www.w3.org/2000/svg">
<path d="M22.7428 12.0045V11.9622C22.7216 5.97496 17.8989 1.08875 11.9963 1.08875C6.09366 1.08875 1.24976 5.97496 1.24976 12.0045C1.24976 18.0348 6.07174 22.9112 11.9963 22.9112C14.7148 22.9131 17.3294 21.8667 19.2961 19.9898C19.4898 19.8128 19.6053 19.5661 19.6171 19.304C19.629 19.0419 19.5362 18.7859 19.3592 18.5921C19.1822 18.3984 18.9356 18.283 18.6735 18.2711C18.4114 18.2593 18.1553 18.3521 17.9616 18.529L17.9404 18.5502C17.0919 19.3569 16.089 19.9838 14.9921 20.3933C13.8953 20.8028 12.7269 20.9864 11.5573 20.9331C10.3877 20.8798 9.24092 20.5907 8.18581 20.0832C7.1307 19.5757 6.18903 18.8602 5.41732 17.9797L10.0081 10.6179V14.0244C10.0081 15.6522 10.6428 16.1819 11.1763 16.33C11.7099 16.4781 12.5101 16.3708 13.3769 14.9963L15.8956 10.9065C15.9628 10.7871 16.0407 10.6738 16.1268 10.5672V12.6416C16.1268 14.1642 16.7404 15.3915 17.7976 15.9832C18.2856 16.2489 18.8365 16.3775 19.3917 16.3553C19.947 16.333 20.4858 16.1608 20.9511 15.857C22.1722 15.0643 22.8282 13.6761 22.7428 12.0045ZM19.9498 14.1469C19.7802 14.2637 19.5825 14.3331 19.3771 14.3478C19.1716 14.3626 18.966 14.3221 18.7815 14.2308C18.3583 13.9776 18.1037 13.4071 18.1037 12.6242V10.2264C18.1037 9.08533 17.6593 8.25938 16.8983 8.0493C15.6069 7.65937 14.6351 9.25461 14.2746 9.84706L11.9963 13.5061V9.0007C11.9751 7.96466 11.6358 7.35105 11.001 7.15987C10.5779 7.03367 9.94308 7.0979 9.33023 8.0289L4.23166 16.194C3.55338 14.9015 3.19792 13.4641 3.19563 12.0045C3.19563 7.07523 7.15085 3.07694 11.9963 3.07694C16.8417 3.07694 20.7969 7.07523 20.7969 12.0045V12.0476C20.8475 12.9982 20.5422 13.7615 19.9505 14.1408L19.9498 14.1469Z" fill="#1E2134"/>
</svg>
