<svg width="24" height="24" viewBox="0 0 24 24" fill="none" xmlns="http://www.w3.org/2000/svg">
<path d="M12 1C18.0753 1 23 5.9247 23 12C23 18.0753 18.0753 23 12 23C5.9247 23 1 18.0753 1 12C1 5.9247 5.9247 1 12 1ZM15.3 5.4C14.97 5.4 14.6752 5.5441 14.4739 5.774L12.6589 5.411C12.5854 5.39617 12.5097 5.39651 12.4364 5.41199C12.3631 5.42748 12.2937 5.45778 12.2325 5.50104C12.1713 5.54431 12.1196 5.59962 12.0806 5.66358C12.0416 5.72754 12.016 5.7988 12.0055 5.873L11.6007 8.7088C10.0354 8.7781 8.5878 9.2511 7.4801 10.0266C7.26906 10.1741 7.06805 10.3354 6.8784 10.5095C6.48736 10.3181 6.03651 10.2889 5.62409 10.4285C5.21167 10.568 4.87111 10.8649 4.67663 11.2544C4.48215 11.6439 4.44952 12.0946 4.58584 12.5081C4.72216 12.9215 5.01639 13.2644 5.4044 13.4619L5.4 13.65C5.4 15.1702 6.2822 16.4352 7.4801 17.2734C8.6813 18.116 10.2829 18.6 12 18.6C13.716 18.6 15.3187 18.1149 16.5199 17.2734C17.7189 16.4352 18.6 15.1702 18.6 13.65L18.5956 13.463C18.9873 13.2675 19.2852 12.9245 19.424 12.5093C19.5627 12.0942 19.5308 11.6409 19.3354 11.2493C19.1399 10.8576 18.7968 10.5596 18.3817 10.4209C17.9665 10.2822 17.5133 10.314 17.1216 10.5095C16.932 10.335 16.731 10.1733 16.5199 10.0255C15.4859 9.3028 14.1549 8.8419 12.7084 8.7275L13.012 6.6034L14.2572 6.852C14.3219 7.04366 14.4383 7.21376 14.5934 7.34358C14.7486 7.47341 14.9365 7.55795 15.1366 7.58789C15.3366 7.61783 15.5411 7.59202 15.7274 7.51329C15.9138 7.43457 16.0748 7.30598 16.1928 7.14166C16.3108 6.97735 16.3812 6.78368 16.3963 6.58195C16.4114 6.38021 16.3705 6.17823 16.2782 5.99821C16.186 5.81818 16.0458 5.6671 15.8732 5.56156C15.7006 5.45602 15.5023 5.40012 15.3 5.4ZM9.25 12C9.68761 12 10.1073 12.1738 10.4167 12.4833C10.7262 12.7927 10.9 13.2124 10.9 13.65C10.9 14.0876 10.7262 14.5073 10.4167 14.8167C10.1073 15.1262 9.68761 15.3 9.25 15.3C8.81239 15.3 8.39271 15.1262 8.08327 14.8167C7.77384 14.5073 7.6 14.0876 7.6 13.65C7.6 13.2124 7.77384 12.7927 8.08327 12.4833C8.39271 12.1738 8.81239 12 9.25 12ZM14.75 12C15.1876 12 15.6073 12.1738 15.9167 12.4833C16.2262 12.7927 16.4 13.2124 16.4 13.65C16.4 14.0876 16.2262 14.5073 15.9167 14.8167C15.6073 15.1262 15.1876 15.3 14.75 15.3C14.3124 15.3 13.8927 15.1262 13.5833 14.8167C13.2738 14.5073 13.1 14.0876 13.1 13.65C13.1 13.2124 13.2738 12.7927 13.5833 12.4833C13.8927 12.1738 14.3124 12 14.75 12Z" fill="#1E2134"/>
</svg>
