<svg width="24" height="24" viewBox="0 0 24 24" fill="none" xmlns="http://www.w3.org/2000/svg">
<path d="M8.90507 16.4995H15.0955C14.4757 19.7728 13.235 22 12.0003 22C10.8036 22 9.6009 19.9058 8.96306 16.7955L8.90507 16.5015V16.4995ZM3.06853 16.5004H7.37345C7.73736 18.5827 8.35621 20.3548 9.16501 21.594C6.62317 20.8393 4.48362 19.1082 3.21449 16.7795L3.06853 16.5004ZM16.6282 16.5004H20.9321C20.3165 17.72 19.4582 18.8009 18.4101 19.6768C17.3619 20.5527 16.1459 21.2051 14.8366 21.594C15.5914 20.4358 16.1803 18.8157 16.5512 16.9125L16.6282 16.5004ZM16.9301 9.9998H21.7989C22.1364 11.6616 22.048 13.3819 21.5419 15.0003H16.8391C16.9922 13.5575 17.0357 12.1052 16.9691 10.6559L16.9291 9.9988L16.9301 9.9998ZM2.20274 9.9988H7.07153C6.96694 11.4709 6.97797 12.9489 7.10452 14.4192L7.16151 14.9993H2.45868C1.95226 13.3809 1.86352 11.6607 2.20074 9.9988H2.20274ZM8.57815 9.9988H15.4255C15.5397 11.4723 15.5273 12.9529 15.3885 14.4242L15.3265 14.9993H8.67513C8.50039 13.5018 8.45623 11.992 8.54316 10.4868L8.57815 9.9988H15.4255H8.57616H8.57815ZM14.9446 2.57406L14.8366 2.40404C16.3225 2.84547 17.6858 3.62558 18.8195 4.68308C19.9531 5.74058 20.8261 7.04664 21.37 8.49865H16.7811C16.4652 6.08241 15.8244 4.0062 14.9436 2.57506L14.9446 2.57406ZM9.04404 2.44104L9.16601 2.40404C8.28423 3.75518 7.62939 5.73437 7.28148 8.05861L7.21949 8.49865H2.63263C3.16899 7.06683 4.02552 5.77666 5.13674 4.72675C6.24796 3.67685 7.58445 2.89502 9.04404 2.44104ZM12.0003 2C13.319 2 14.6456 4.54225 15.2135 8.18362L15.2605 8.49865H8.74011C9.28098 4.68927 10.6446 2 12.0003 2Z" fill="#1E2134"/>
</svg>
