<svg width="24" height="24" viewBox="0 0 24 24" fill="none" xmlns="http://www.w3.org/2000/svg">
<path fill-rule="evenodd" clip-rule="evenodd" d="M20.1667 22.5H3.83333C2.54467 22.5 1.5 21.4553 1.5 20.1667V3.83333C1.5 2.54467 2.54467 1.5 3.83333 1.5H20.1667C21.4553 1.5 22.5 2.54467 22.5 3.83333V20.1667C22.5 21.4553 21.4553 22.5 20.1667 22.5ZM16.467 19.5834H19.5833V13.1817C19.5833 10.4731 18.0479 9.16339 15.9032 9.16339C13.7576 9.16339 12.8546 10.8343 12.8546 10.8343V9.4723H9.85135V19.5834H12.8546V14.2757C12.8546 12.8535 13.5092 12.0072 14.7622 12.0072C15.9141 12.0072 16.467 12.8205 16.467 14.2757V19.5834ZM4.41663 6.28254C4.41663 7.3129 5.24556 8.14834 6.26852 8.14834C7.29148 8.14834 8.11992 7.3129 8.11992 6.28254C8.11992 5.25219 7.29148 4.41675 6.26852 4.41675C5.24556 4.41675 4.41663 5.25219 4.41663 6.28254ZM7.84937 19.5834H4.71779V9.4723H7.84937V19.5834Z" fill="#1E2134"/>
</svg>
