<svg width="24" height="24" viewBox="0 0 24 24" fill="none" xmlns="http://www.w3.org/2000/svg">
<g clip-path="url(#clip0_23284_151046)">
<path d="M10.0885 8.12502L11.7762 3.57413L7.33695 3.5741L9.31567 8.19756C9.55355 8.10796 9.83193 8.08063 10.0885 8.12502Z" fill="#1E2134"/>
<path d="M1.76902 7.08155L6.42049 3.9747L4.88099 6.84046C4.2873 6.6835 3.64255 7.0026 3.41061 7.57586L1.76902 7.08155Z" fill="#1E2134"/>
<path d="M14.3511 4.41122L12.2281 3.65373L10.5163 8.26962C10.8748 8.45666 11.1468 8.78675 11.2566 9.18417L15.0336 8.31657L14.3511 4.41122Z" fill="#1E2134"/>
<path d="M21.9223 6.73416L17.6008 4.54282H15.0623L17.3586 6.77045C17.5628 6.61276 17.8188 6.51895 18.0967 6.51895C18.632 6.51895 19.086 6.86704 19.2447 7.34922L21.9223 6.73416Z" fill="#1E2134"/>
<path d="M17.0458 13.0044L18.3013 13.6323L21.6329 11.4674L18.7946 8.71402C18.1846 9.1463 17.2951 8.90472 16.9907 8.21464L15.4776 8.56219L15.9639 11.3444C16.7924 11.3707 17.3509 12.2488 17.0458 13.0044Z" fill="#1E2134"/>
<path d="M22.2166 7.01419L24 9.92901L21.9725 11.2465L19.0754 8.4361C19.2279 8.22589 19.3141 7.96031 19.3041 7.6832L22.2166 7.01419Z" fill="#1E2134"/>
<path d="M21.4369 13.9078L18.8598 13.6733L21.882 11.7093L23.0071 12.8007L21.4369 13.9078Z" fill="#1E2134"/>
<path d="M17.0892 7.05976L14.8321 4.87026L15.419 8.228L16.8988 7.88809C16.8601 7.59736 16.9341 7.29327 17.0892 7.05976Z" fill="#1E2134"/>
<path d="M23.927 10.3803L23.253 12.4886L22.2219 11.4883L23.927 10.3803Z" fill="#1E2134"/>
<path d="M18.0671 13.8939L16.6389 15.2081L16.371 13.6754C16.5709 13.5958 16.7446 13.4645 16.8754 13.298L18.0671 13.8939Z" fill="#1E2134"/>
<path d="M15.092 8.65088L11.3085 9.51995C11.3162 9.71756 11.2837 9.91332 11.2183 10.09L14.8908 11.9267C15.0433 11.6753 15.2849 11.4838 15.5718 11.3963L15.092 8.65088Z" fill="#1E2134"/>
<path d="M9.49883 11.0137L8.79117 12.9219C9.2786 13.1937 9.56366 13.7443 9.50627 14.2981L11.7043 14.8202L10.0879 11.0307C9.89553 11.064 9.68732 11.0577 9.49883 11.0137Z" fill="#1E2134"/>
<path d="M7.29361 20.4259L6.11259 20.1157L7.82407 15.5296C7.97571 15.5606 8.14026 15.5664 8.29537 15.5456L9.10975 18.3289L7.29361 20.4259Z" fill="#1E2134"/>
<path d="M16.2577 15.3233L15.9844 13.7591C15.1817 13.7983 14.5522 13.0039 14.7572 12.2388L11.0643 10.3919C10.9268 10.5993 10.7381 10.7698 10.5164 10.8856L12.2501 14.95L12.6063 15.0346L16.2577 15.3233Z" fill="#1E2134"/>
<path d="M6.26383 18.4171L5.80632 17.9338L5.32275 13.6527L6.70983 13.9822C6.64363 14.5342 6.91921 15.0891 7.40139 15.369L6.26383 18.4171Z" fill="#1E2134"/>
<path d="M11.822 15.1965L9.46086 17.9228L8.72687 15.4143C9.05197 15.2543 9.30631 14.9725 9.4303 14.6284L11.822 15.1965Z" fill="#1E2134"/>
<path d="M8.3686 9.42265L5.66745 8.60929C5.50008 8.93443 5.19344 9.17616 4.82636 9.25563L5.28262 13.295L6.7908 13.6532C7.02937 13.0234 7.7078 12.6459 8.36604 12.7686L9.07962 10.8444C8.59058 10.5521 8.30945 9.98802 8.3686 9.42265Z" fill="#1E2134"/>
<path d="M4.12351 9.20415C4.20321 9.23424 4.28682 9.25637 4.37336 9.26957L4.81553 13.1842L2.30569 12.588L4.12351 9.20415Z" fill="#1E2134"/>
<path d="M3.34508 16.8636L2.13778 14.6568L2.14016 12.8968L4.85627 13.5419L5.31282 17.5839L3.34508 16.8636Z" fill="#1E2134"/>
<path d="M6.97942 3.88768L8.91981 8.4216C8.70301 8.5934 8.53566 8.82489 8.44257 9.09123L5.77962 8.28937C5.8752 7.81731 5.68078 7.31729 5.28912 7.03414L6.97942 3.88768Z" fill="#1E2134"/>
<path d="M1.5388 7.36613L0 9.6296L0.64309 12.5192H1.82986L3.73661 8.9698C3.438 8.70406 3.28388 8.30134 3.32734 7.90469L1.5388 7.36613Z" fill="#1E2134"/>
</g>
<defs>
<clipPath id="clip0_23284_151046">
<rect width="24" height="24" fill="white"/>
</clipPath>
</defs>
</svg>
