<svg width="24" height="24" viewBox="0 0 24 24" fill="none" xmlns="http://www.w3.org/2000/svg">
<path d="M13.4531 12C13.4531 15.5899 10.5815 18.5 7.03906 18.5C3.49666 18.5 0.625 15.5899 0.625 12C0.625 8.41014 3.49666 5.5 7.03906 5.5C10.5815 5.5 13.4531 8.41014 13.4531 12Z" fill="#1E2134"/>
<path d="M20.4538 12C20.4538 15.3762 19.0179 18.1131 17.2467 18.1131C15.4755 18.1131 14.0397 15.3762 14.0397 12C14.0397 8.62384 15.4755 5.88694 17.2467 5.88694C19.0179 5.88694 20.4538 8.62384 20.4538 12Z" fill="#1E2134"/>
<path d="M22.2076 17.4971C22.8522 17.4971 23.375 15.036 23.375 12C23.375 8.96397 22.8522 6.50267 22.2076 6.50267C21.5628 6.50267 21.0402 8.96397 21.0402 12C21.0402 15.036 21.5628 17.4971 22.2076 17.4971Z" fill="#1E2134"/>
</svg>
