<svg width="24" height="24" viewBox="0 0 24 24" fill="none" xmlns="http://www.w3.org/2000/svg">
<path d="M9.52406 15.5996H14.4764C13.9805 18.2182 12.988 20 12.0002 20C11.0429 20 10.0807 18.3246 9.57045 15.8364L9.52406 15.6012V15.5996ZM4.85482 15.6004H8.29876C8.58989 17.2661 9.08497 18.6839 9.73201 19.6752C7.69854 19.0715 5.9869 17.6866 4.97159 15.8236L4.85482 15.6004ZM15.7025 15.6004H19.1457C18.6532 16.576 17.9666 17.4407 17.128 18.1414C16.2895 18.8421 15.3167 19.364 14.2693 19.6752C14.8731 18.7487 15.3442 17.4525 15.6409 15.93L15.7025 15.6004ZM15.9441 10.3998H19.8391C20.1091 11.7293 20.0384 13.1055 19.6335 14.4002H15.8713C15.9938 13.246 16.0285 12.0842 15.9753 10.9247L15.9433 10.399L15.9441 10.3998ZM4.16219 10.399H8.05722C7.97355 11.5767 7.98238 12.7591 8.08362 13.9354L8.12921 14.3994H4.36694C3.96181 13.1048 3.89082 11.7286 4.16059 10.399H4.16219ZM9.26252 10.399H14.7404C14.8317 11.5778 14.8218 12.7623 14.7108 13.9394L14.6612 14.3994H9.3401C9.20031 13.2015 9.16499 11.9936 9.23453 10.7895L9.26252 10.399H14.7404H9.26092H9.26252ZM14.3557 4.45925L14.2693 4.32323C15.458 4.67638 16.5487 5.30047 17.4556 6.14646C18.3625 6.99246 19.0609 8.03731 19.496 9.19892H15.8249C15.5722 7.26593 15.0595 5.60496 14.3549 4.46005L14.3557 4.45925ZM9.63523 4.35284L9.73281 4.32323C9.02738 5.40414 8.50351 6.9875 8.22518 8.84689L8.17559 9.19892H4.50611C4.93519 8.05347 5.62041 7.02132 6.50939 6.1814C7.39837 5.34148 8.46756 4.71602 9.63523 4.35284ZM12.0002 4C13.0552 4 14.1165 6.0338 14.5708 8.9469L14.6084 9.19892H9.39209C9.82478 6.15142 10.9157 4 12.0002 4Z" fill="#1E2134"/>
</svg>
