<svg width="24" height="24" viewBox="0 0 24 24" fill="none" xmlns="http://www.w3.org/2000/svg">
<path d="M17.0122 8.00592C16.5319 4.63185 13.6502 2.54541 8.74623 2.54541C3.77908 2.54541 0.505562 4.71531 0.518202 8.24437C0.505562 10.9865 2.33823 12.763 6.12995 13.4783L9.49194 14.1102C11.1856 14.4321 11.9566 15.0163 11.9818 15.9344C11.9566 17.0193 10.7053 17.7943 8.82207 17.7943C6.90093 17.7943 5.62438 17.0193 5.29577 15.529L0 15.7913C0.505562 19.2965 3.66533 21.4545 8.80943 21.4545C13.8398 21.4545 17.4419 19.0342 17.4545 15.4217C17.4419 12.7749 15.6092 11.1892 11.8428 10.462L8.32914 9.79429C6.52176 9.4247 5.85189 8.84049 5.86453 7.95823C5.85189 6.86136 7.16635 6.14601 8.8347 6.14601C10.7053 6.14601 11.8175 7.11173 12.0829 8.29206L17.0122 8.00592Z" fill="#1E2134"/>
<path d="M24 19.2729C24 20.4778 23.0232 21.4547 21.8182 21.4547C20.6132 21.4547 19.6364 20.4778 19.6364 19.2729C19.6364 18.0679 20.6132 17.091 21.8182 17.091C23.0232 17.091 24 18.0679 24 19.2729Z" fill="#1E2134"/>
</svg>
