<svg width="24" height="24" viewBox="0 0 24 24" fill="none" xmlns="http://www.w3.org/2000/svg">
<path fill-rule="evenodd" clip-rule="evenodd" d="M5.18421 1.5H18.8158C20.8505 1.5 22.5 3.14948 22.5 5.18421V9.11102C22.412 9.10515 22.3236 9.10218 22.2346 9.10218H22.2143C21.7447 9.10218 21.1686 9.21608 20.7587 9.42245C20.292 9.63852 19.8805 9.9616 19.538 10.3857C18.9867 11.0688 18.6528 11.992 18.5716 13.0295C18.569 13.0606 18.5667 13.0917 18.5645 13.1228C18.5623 13.1539 18.5609 13.1818 18.5595 13.2115C18.5566 13.267 18.5544 13.3227 18.5532 13.3787C18.5512 13.4683 18.5506 13.5586 18.5522 13.6494C18.6069 15.9993 19.8763 17.8772 22.1309 17.8772C22.2572 17.8772 22.3802 17.8713 22.5 17.8598V18.8158C22.5 20.8505 20.8505 22.5 18.8158 22.5H5.18421C3.14948 22.5 1.5 20.8505 1.5 18.8158V5.18421C1.5 3.14948 3.14948 1.5 5.18421 1.5ZM18.6635 6.51305L18.6469 6.51668C18.0298 6.65601 17.7164 6.86379 17.7164 7.61315H17.7136L17.7164 16.6031C17.7693 17.1949 18.0874 17.3777 18.6469 17.5039L18.6635 17.5077V17.6349H14.3563V17.5077L14.3729 17.5039C14.9318 17.3777 15.2424 17.1949 15.2953 16.6031V7.85729L11.1438 17.6147H10.915L6.88105 8.12203V16.3864C6.88105 17.1358 7.19445 17.3436 7.81175 17.4829L7.8281 17.4865V17.6147H5.35547V17.4861L5.37183 17.4825C5.98912 17.3431 6.30373 17.1354 6.30373 16.386V7.61315C6.30373 6.86379 5.99033 6.65601 5.37304 6.51668L5.35668 6.51305V6.38481H9.0011L12.1413 13.7653L15.2815 6.38481H18.6635V6.51305Z" fill="#1E2134"/>
<path d="M22.5 15.9525V12.7725H20.5717C20.4848 14.3083 21.3247 15.6067 22.5 15.9525Z" fill="#1E2134"/>
<path d="M22.5 12.3282V9.63575C22.4067 9.61018 22.3068 9.59646 22.2006 9.59469C21.2508 9.61428 20.6848 10.752 20.6143 12.3282H22.5Z" fill="#1E2134"/>
</svg>
