<svg width="24" height="24" viewBox="0 0 24 24" fill="none" xmlns="http://www.w3.org/2000/svg">
<path d="M10.6066 10.9275C11.3314 10.9275 11.919 10.3399 11.919 9.61508C11.919 8.89026 11.3314 8.30267 10.6066 8.30267C9.88176 8.30267 9.29417 8.89026 9.29417 9.61508C9.29417 10.3399 9.88176 10.9275 10.6066 10.9275Z" fill="#1E2134"/>
<path fill-rule="evenodd" clip-rule="evenodd" d="M22.914 12.0001C22.914 18.0277 18.0276 22.9141 12 22.9141C5.97236 22.9141 1.086 18.0277 1.086 12.0001C1.086 5.97242 5.97236 1.08606 12 1.08606C18.0276 1.08606 22.914 5.97242 22.914 12.0001ZM13.6495 21.0822C17.9595 20.3046 21.2291 16.5342 21.2291 12.0001C21.2291 6.90295 17.0971 2.77092 12 2.77092C6.90288 2.77092 2.77086 6.90295 2.77086 12.0001C2.77086 13.8388 3.3086 15.552 4.23541 16.9909C4.88517 15.3277 5.01201 13.7979 5.17347 11.8504L5.19651 11.5731C5.33568 9.47205 5.90974 7.72861 9.48359 6.74479C10.3012 6.54957 11.1497 6.62109 12.0118 6.82404C12.7907 6.64042 13.6914 6.62882 14.1727 7.04632C14.3969 7.23574 14.5438 7.40389 14.6288 7.54886C14.6578 7.60878 14.6849 7.67256 14.7081 7.74021L14.7407 7.7531C15.4641 8.03865 16.1797 8.32115 16.869 8.52108C20.5646 9.53004 20.2051 11.5479 18.3999 13.2353C18.1392 13.5049 17.8671 13.7655 17.623 13.9993C17.4417 14.1729 17.2758 14.3318 17.1416 14.4685C15.8145 15.8177 13.5102 18.3955 13.6495 21.0822ZM8.73944 9.59769C8.73944 10.6279 9.57636 11.4629 10.6066 11.4629C11.6368 11.4629 12.4718 10.6279 12.4718 9.59769C12.4718 8.56747 11.6368 7.73248 10.6066 7.73248C9.57443 7.73248 8.73944 8.56747 8.73944 9.59769ZM12.1142 13.4576L12.0949 13.4808C12.5259 13.9679 13.2024 14.1921 13.8441 14.252C14.4955 14.3119 15.1391 14.1902 15.7557 14.0317C16.3742 13.8712 16.9734 13.649 17.5475 13.3784C18.1157 13.0981 18.6743 12.7811 19.144 12.3539L19.1285 12.3346L19.1247 12.3288C19.0879 12.3597 19.0493 12.3887 19.0087 12.4177C18.8251 12.5434 18.6376 12.6632 18.4462 12.7792C18.4443 12.7811 18.4424 12.7811 18.4404 12.783C18.1331 12.9551 17.8103 13.102 17.4856 13.2353C16.9077 13.475 16.3085 13.6625 15.6997 13.7881C15.0889 13.9118 14.4704 13.9563 13.8615 13.9408C13.2546 13.9215 12.6477 13.8016 12.1142 13.4576ZM17.2865 11.057C17.0642 11.0589 16.8845 11.2387 16.8845 11.4629C16.8845 11.6871 17.0681 11.8669 17.2904 11.8649C17.5127 11.8649 17.6924 11.6813 17.6924 11.459C17.6905 11.2367 17.5107 11.057 17.2865 11.057Z" fill="#1E2134"/>
</svg>
