<svg width="24" height="24" viewBox="0 0 24 24" fill="none" xmlns="http://www.w3.org/2000/svg">
<path d="M20.7371 6.13398L17.8661 3.26298C17.6123 3.00917 17.268 2.86658 16.9091 2.86658C16.5501 2.86658 16.2059 3.00917 15.9521 3.26298L13.0811 6.13398C12.8273 6.38779 12.6847 6.73203 12.6847 7.09098C12.6847 7.44992 12.8273 7.79417 13.0811 8.04798L15.9521 10.919C16.2059 11.1728 16.5501 11.3154 16.9091 11.3154C17.268 11.3154 17.6123 11.1728 17.8661 10.919L20.7371 8.04798C20.9909 7.79417 21.1335 7.44992 21.1335 7.09098C21.1335 6.73203 20.9909 6.38779 20.7371 6.13398Z" fill="#1E2134"/>
<path d="M3.83283 3.83285C4.04594 3.61974 4.33498 3.50002 4.63636 3.50002H9.54545C9.84684 3.50002 10.1359 3.61974 10.349 3.83285C10.5621 4.04596 10.6818 4.335 10.6818 4.63638V9.54547C10.6818 9.84686 10.5621 10.1359 10.349 10.349C10.1359 10.5621 9.84684 10.6818 9.54545 10.6818H4.63636C4.33498 10.6818 4.04594 10.5621 3.83283 10.349C3.61972 10.1359 3.5 9.84686 3.5 9.54547V4.63638C3.5 4.335 3.61972 4.04596 3.83283 3.83285Z" fill="#1E2134"/>
<path d="M3.83283 13.651C4.04594 13.4379 4.33498 13.3182 4.63636 13.3182H9.54545C9.84684 13.3182 10.1359 13.4379 10.349 13.651C10.5621 13.8641 10.6818 14.1532 10.6818 14.4546V19.3637C10.6818 19.665 10.5621 19.9541 10.349 20.1672C10.1359 20.3803 9.84684 20.5 9.54545 20.5H4.63636C4.33498 20.5 4.04594 20.3803 3.83283 20.1672C3.61972 19.9541 3.5 19.665 3.5 19.3637V14.4546C3.5 14.1532 3.61972 13.8641 3.83283 13.651Z" fill="#1E2134"/>
<path d="M13.651 13.651C13.8641 13.4379 14.1532 13.3182 14.4545 13.3182H19.3636C19.665 13.3182 19.9541 13.4379 20.1672 13.651C20.3803 13.8641 20.5 14.1532 20.5 14.4546V19.3637C20.5 19.665 20.3803 19.9541 20.1672 20.1672C19.9541 20.3803 19.665 20.5 19.3636 20.5H14.4545C14.1532 20.5 13.8641 20.3803 13.651 20.1672C13.4379 19.9541 13.3182 19.665 13.3182 19.3637V14.4546C13.3182 14.1532 13.4379 13.8641 13.651 13.651Z" fill="#1E2134"/>
</svg>
