<svg width="24" height="24" viewBox="0 0 24 24" fill="none" xmlns="http://www.w3.org/2000/svg">
<path d="M8.35847 18.2718C8.35847 18.3605 8.25645 18.4315 8.12782 18.4315C7.98145 18.4448 7.87944 18.3738 7.87944 18.2718C7.87944 18.1831 7.98145 18.1121 8.11008 18.1121C8.24315 18.0988 8.35847 18.1698 8.35847 18.2718ZM6.97903 18.0722C6.94798 18.1609 7.03669 18.2629 7.16976 18.2895C7.28508 18.3339 7.41815 18.2895 7.44476 18.2008C7.47137 18.1121 7.3871 18.0101 7.25403 17.9702C7.13871 17.9391 7.01008 17.9835 6.97903 18.0722ZM8.93952 17.9968C8.81089 18.0278 8.72218 18.1121 8.73548 18.2141C8.74879 18.3028 8.86411 18.3605 8.99718 18.3294C9.12581 18.2984 9.21452 18.2141 9.20121 18.1254C9.1879 18.0411 9.06814 17.9835 8.93952 17.9968ZM11.8581 1C5.70605 1 1 5.67057 1 11.8226C1 16.7415 4.09597 20.9508 8.51814 22.4323C9.08589 22.5343 9.28548 22.1839 9.28548 21.8956C9.28548 21.6206 9.27218 20.1036 9.27218 19.1722C9.27218 19.1722 6.16734 19.8375 5.51532 17.8504C5.51532 17.8504 5.00968 16.5597 4.28226 16.227C4.28226 16.227 3.26653 15.5306 4.35323 15.544C4.35323 15.544 5.45766 15.6327 6.06532 16.6883C7.03669 18.4004 8.66452 17.9081 9.29879 17.6153C9.40081 16.9056 9.68911 16.4133 10.0085 16.1206C7.52903 15.8456 5.02742 15.4863 5.02742 11.2194C5.02742 9.9996 5.36452 9.3875 6.07419 8.60686C5.95887 8.31855 5.58185 7.12984 6.18952 5.59516C7.11653 5.30686 9.25 6.79274 9.25 6.79274C10.1371 6.54436 11.0907 6.41573 12.0355 6.41573C12.9802 6.41573 13.9339 6.54436 14.821 6.79274C14.821 6.79274 16.9544 5.30242 17.8815 5.59516C18.4891 7.13428 18.1121 8.31855 17.9968 8.60686C18.7065 9.39194 19.1411 10.004 19.1411 11.2194C19.1411 15.4996 16.5286 15.8411 14.0492 16.1206C14.4573 16.471 14.8032 17.1363 14.8032 18.1786C14.8032 19.6734 14.7899 21.523 14.7899 21.8867C14.7899 22.175 14.994 22.5254 15.5573 22.4234C19.9927 20.9508 23 16.7415 23 11.8226C23 5.67057 18.0101 1 11.8581 1ZM5.31129 16.298C5.25363 16.3423 5.26694 16.4444 5.34234 16.5286C5.41331 16.5996 5.51532 16.6306 5.57298 16.573C5.63064 16.5286 5.61734 16.4266 5.54194 16.3423C5.47097 16.2714 5.36895 16.2403 5.31129 16.298ZM4.83226 15.9387C4.80121 15.9964 4.84556 16.0673 4.93427 16.1117C5.00524 16.1561 5.09395 16.1427 5.125 16.0806C5.15605 16.023 5.11169 15.952 5.02298 15.9077C4.93427 15.8811 4.86331 15.8944 4.83226 15.9387ZM6.26935 17.5177C6.19839 17.5754 6.225 17.7085 6.32702 17.7927C6.42903 17.8948 6.55766 17.9081 6.61532 17.8371C6.67298 17.7794 6.64637 17.6464 6.55766 17.5621C6.46008 17.4601 6.32702 17.4468 6.26935 17.5177ZM5.76371 16.8657C5.69274 16.9101 5.69274 17.0254 5.76371 17.1274C5.83468 17.2294 5.95444 17.2738 6.0121 17.2294C6.08306 17.1718 6.08306 17.0565 6.0121 16.9544C5.95 16.8524 5.83468 16.8081 5.76371 16.8657Z" fill="#1E2134"/>
</svg>
