<svg width="24" height="24" viewBox="0 0 24 24" fill="none" xmlns="http://www.w3.org/2000/svg">
<path fill-rule="evenodd" clip-rule="evenodd" d="M7.73206 2.40015H14.6448L15.9391 4.34121C15.839 4.48492 15.7386 4.62864 15.6381 4.77245C14.089 6.99009 12.5241 9.23026 11.5744 11.7796C11.3153 12.4749 11.1862 13.0875 11.1685 13.623C11.9596 13.9287 12.8478 13.9289 13.6947 13.929C13.8148 13.929 13.9341 13.9291 14.0522 13.93L15.3429 15.8661L15.3465 21.6001C12.4363 21.6001 9.43251 21.1332 7.36407 18.8725V21.6001H1.63009L0.335754 19.659V2.40015L6.06974 2.41067L6.92795 3.71468C7.19046 3.2731 7.46054 2.83622 7.73206 2.40015ZM12.1303 4.91288C12.6184 4.18864 13.0434 3.56674 13.4056 3.04717H8.09183C7.57226 3.88162 7.06844 4.7397 6.58036 5.62139C6.10803 6.50307 5.72228 7.41624 5.42314 8.36091V3.04717H0.983215V19.0119H5.42314V14.7846C5.801 15.5876 6.27334 16.2567 6.84015 16.7921C7.40695 17.3274 8.03672 17.7603 8.72948 18.091C9.42223 18.4217 10.1622 18.6578 10.9494 18.7995C11.7524 18.9412 12.5711 19.0119 13.4056 19.0119V14.5721C12.9332 14.5721 12.4452 14.5406 11.9413 14.4776C11.4533 14.4146 11.0046 14.2808 10.5952 14.0761C10.2016 13.8715 9.87094 13.5959 9.60328 13.2495C9.35138 12.8874 9.22543 12.4072 9.22543 11.8089C9.22543 11.1477 9.37499 10.4156 9.67413 9.61259C9.97329 8.80964 10.3354 8.00666 10.7605 7.20369C11.2013 6.40073 11.6579 5.63713 12.1303 4.91288Z" fill="#1E2134"/>
<path fill-rule="evenodd" clip-rule="evenodd" d="M16.6586 13.9251V19.659L17.9529 21.6001H23.6869V15.8661H23.6856L22.3926 13.9266L16.6586 13.9251ZM21.7462 19.012V14.5721H17.3063V19.012H21.7462Z" fill="#1E2134"/>
</svg>
