<svg width="24" height="24" viewBox="0 0 24 24" fill="none" xmlns="http://www.w3.org/2000/svg">
<path d="M13.5374 12.0008C13.5374 15.7647 10.5069 18.8159 6.76884 18.8159C3.03073 18.8159 0 15.764 0 12.0008C0 8.23766 3.0305 5.18555 6.76884 5.18555C10.5072 5.18555 13.5374 8.23697 13.5374 12.0008ZM20.9628 12.0008C20.9628 15.5437 19.4476 18.4169 17.5784 18.4169C15.7092 18.4169 14.194 15.5437 14.194 12.0008C14.194 8.45797 15.709 5.58477 17.5782 5.58477C19.4474 5.58477 20.9626 8.45705 20.9626 12.0008M24 12.0008C24 15.1744 23.4672 17.7486 22.8097 17.7486C22.1522 17.7486 21.6196 15.1751 21.6196 12.0008C21.6196 8.82661 22.1524 6.25305 22.8097 6.25305C23.4669 6.25305 24 8.82638 24 12.0008Z" fill="black"/>
</svg>
