<svg width="24" height="24" viewBox="0 0 24 24" fill="none" xmlns="http://www.w3.org/2000/svg">
<path opacity="0.4" d="M10.86 1.74096C11.4896 1.11138 12.5103 1.11138 13.1399 1.74096C13.7695 2.37054 13.7695 3.3913 13.1399 4.02088L5.54017 11.6206C5.33031 11.8305 5.33031 12.1707 5.54017 12.3806L7.06012 13.9005C7.26998 14.1104 7.61024 14.1104 7.8201 13.9005L15.4198 6.3008C16.0494 5.67122 17.0702 5.67122 17.6998 6.3008L22.3632 10.9643C22.9356 11.5366 22.9356 12.4646 22.3632 13.0369L13.1399 22.2603C12.5103 22.8898 11.4896 22.8898 10.86 22.2603C10.2304 21.6307 10.2304 20.6099 10.86 19.9803L18.4597 12.3806C18.6696 12.1707 18.6696 11.8305 18.4597 11.6206L16.9398 10.1007C16.7299 9.89081 16.3897 9.89081 16.1798 10.1007L8.58007 17.7004C7.95049 18.33 6.92973 18.33 6.30015 17.7004L1.63667 13.0369C1.06432 12.4646 1.06432 11.5366 1.63667 10.9643L10.86 1.74096Z" fill="#1E2134"/>
<path d="M4.02023 10.8606C4.64981 11.4902 4.64981 12.511 4.02023 13.1406C3.39064 13.7702 2.36989 13.7702 1.7403 13.1406C1.11072 12.511 1.11072 11.4902 1.7403 10.8606C2.36989 10.2311 3.39064 10.2311 4.02023 10.8606Z" fill="#1E2134"/>
<path d="M13.1399 1.74096C13.7695 2.37054 13.7695 3.3913 13.1399 4.02088C12.5103 4.65046 11.4896 4.65046 10.86 4.02088C10.2304 3.3913 10.2304 2.37054 10.86 1.74096C11.4896 1.11138 12.5103 1.11138 13.1399 1.74096Z" fill="#1E2134"/>
<path d="M17.6998 6.3008C18.3293 6.93039 18.3293 7.95114 17.6998 8.58073C17.0702 9.21031 16.0494 9.21031 15.4198 8.58073C14.7903 7.95114 14.7903 6.93039 15.4198 6.3008C16.0494 5.67122 17.0702 5.67122 17.6998 6.3008Z" fill="#1E2134"/>
<path d="M13.1399 10.8606C13.7695 11.4902 13.7695 12.511 13.1399 13.1406C12.5103 13.7702 11.4896 13.7702 10.86 13.1406C10.2304 12.511 10.2304 11.4902 10.86 10.8606C11.4896 10.2311 12.5103 10.2311 13.1399 10.8606Z" fill="#1E2134"/>
<path d="M8.58007 6.3008C9.20965 6.93039 9.20965 7.95114 8.58007 8.58073C7.95049 9.21031 6.92973 9.21031 6.30015 8.58073C5.67056 7.95114 5.67056 6.93039 6.30015 6.3008C6.92973 5.67122 7.95049 5.67122 8.58007 6.3008Z" fill="#1E2134"/>
<path d="M8.58007 15.4205C9.20965 16.0501 9.20965 17.0708 8.58007 17.7004C7.95049 18.33 6.92973 18.33 6.30015 17.7004C5.67056 17.0708 5.67056 16.0501 6.30015 15.4205C6.92973 14.7909 7.95049 14.7909 8.58007 15.4205Z" fill="#1E2134"/>
<path d="M13.1399 19.9803C13.7695 20.6099 13.7695 21.6307 13.1399 22.2603C12.5103 22.8898 11.4896 22.8898 10.86 22.2603C10.2304 21.6307 10.2304 20.6099 10.86 19.9803C11.4896 19.3508 12.5103 19.3508 13.1399 19.9803Z" fill="#1E2134"/>
<path d="M17.6998 15.4205C18.3293 16.0501 18.3293 17.0708 17.6998 17.7004C17.0702 18.33 16.0494 18.33 15.4198 17.7004C14.7903 17.0708 14.7903 16.0501 15.4198 15.4205C16.0494 14.7909 17.0702 14.7909 17.6998 15.4205Z" fill="#1E2134"/>
<path d="M22.2596 10.8606C22.8892 11.4902 22.8892 12.511 22.2596 13.1406C21.63 13.7702 20.6093 13.7702 19.9797 13.1406C19.3501 12.511 19.3501 11.4902 19.9797 10.8606C20.6093 10.2311 21.63 10.2311 22.2596 10.8606Z" fill="#1E2134"/>
</svg>
