<svg width="24" height="24" viewBox="0 0 24 24" fill="none" xmlns="http://www.w3.org/2000/svg">
<path fill-rule="evenodd" clip-rule="evenodd" d="M20.6008 4.95882C21.5424 5.20588 22.2847 5.92941 22.5382 6.84706C23.009 8.52353 22.9909 12.0176 22.9909 12.0176C22.9909 12.0176 22.9909 15.4941 22.5382 17.1706C22.2847 18.0882 21.5424 18.8118 20.6008 19.0588C18.8806 19.5 12 19.5 12 19.5C12 19.5 5.13743 19.5 3.39916 19.0412C2.45759 18.7941 1.71521 18.0706 1.46171 17.1529C1.00903 15.4941 1.00903 12 1.00903 12C1.00903 12 1.00903 8.52353 1.46171 6.84706C1.71521 5.92941 2.4757 5.18824 3.39916 4.94118C5.11932 4.5 12 4.5 12 4.5C12 4.5 18.8806 4.5 20.6008 4.95882ZM15.5309 12.0001L9.80908 15.2119V8.78833L15.5309 12.0001Z" fill="#1E2134"/>
</svg>
