<svg width="24" height="24" viewBox="0 0 24 24" fill="none" xmlns="http://www.w3.org/2000/svg">
<path fill-rule="evenodd" clip-rule="evenodd" d="M4.78125 1.5H19.2187C21.0309 1.5 22.5 2.96907 22.5 4.78125V19.2187C22.5 21.0309 21.0309 22.5 19.2187 22.5H4.78125C2.96907 22.5 1.5 21.0309 1.5 19.2187V4.78125C1.5 2.96907 2.96907 1.5 4.78125 1.5ZM18.3 18.6718L18.3001 9.33479C17.8936 9.58132 17.4176 9.72306 16.9087 9.72306C16.3999 9.72306 15.924 9.58135 15.5175 9.33487L15.5176 9.42909C14.6449 11.6337 13.4987 12.5961 12 12.5961C10.5013 12.5961 9.35519 11.6337 8.48243 9.42909L8.48247 9.33487C8.07603 9.58135 7.60005 9.72306 7.09125 9.72306C6.58244 9.72306 6.10646 9.58135 5.70002 9.33486L5.7 18.6718H8.4825L8.48241 14.142C9.48058 14.9359 10.6562 15.3496 12 15.3496C13.3438 15.3496 14.5194 14.9359 15.5176 14.142L15.5175 18.6718H18.3ZM8.745 6.9961C8.745 7.91729 8.00459 8.66407 7.09125 8.66407C6.17791 8.66407 5.4375 7.91729 5.4375 6.9961C5.4375 6.0749 6.17791 5.32812 7.09125 5.32812C8.00459 5.32812 8.745 6.0749 8.745 6.9961ZM18.5625 6.9961C18.5625 7.91729 17.8221 8.66407 16.9087 8.66407C15.9954 8.66407 15.255 7.91729 15.255 6.9961C15.255 6.0749 15.9954 5.32812 16.9087 5.32812C17.8221 5.32812 18.5625 6.0749 18.5625 6.9961Z" fill="#1E2134"/>
</svg>
