<svg width="24" height="24" viewBox="0 0 24 24" fill="none" xmlns="http://www.w3.org/2000/svg">
<path d="M20.9121 6.01867L17.9815 3.08799C17.7224 2.8289 17.371 2.68335 17.0046 2.68335C16.6382 2.68335 16.2868 2.8289 16.0277 3.08799L13.097 6.01867C12.8379 6.27776 12.6923 6.62916 12.6923 6.99557C12.6923 7.36197 12.8379 7.71337 13.097 7.97246L16.0277 10.9031C16.2868 11.1622 16.6382 11.3078 17.0046 11.3078C17.371 11.3078 17.7224 11.1622 17.9815 10.9031L20.9121 7.97246C21.1712 7.71337 21.3168 7.36197 21.3168 6.99557C21.3168 6.62916 21.1712 6.27776 20.9121 6.01867Z" fill="#1E2134"/>
<path d="M3.65648 3.66971C3.87402 3.45217 4.16907 3.32996 4.47671 3.32996H9.48785C9.7955 3.32996 10.0905 3.45217 10.3081 3.66971C10.5256 3.88725 10.6478 4.1823 10.6478 4.48994V9.50108C10.6478 9.80873 10.5256 10.1038 10.3081 10.3213C10.0905 10.5389 9.7955 10.6611 9.48785 10.6611H4.47671C4.16907 10.6611 3.87402 10.5389 3.65648 10.3213C3.43894 10.1038 3.31673 9.80873 3.31673 9.50108V4.48994C3.31673 4.1823 3.43894 3.88725 3.65648 3.66971Z" fill="#1E2134"/>
<path d="M3.65648 13.692C3.87402 13.4745 4.16906 13.3522 4.47671 13.3522H9.48785C9.7955 13.3522 10.0905 13.4745 10.3081 13.692C10.5256 13.9095 10.6478 14.2046 10.6478 14.5122V19.5234C10.6478 19.831 10.5256 20.1261 10.3081 20.3436C10.0905 20.5611 9.7955 20.6834 9.48785 20.6834H4.47671C4.16907 20.6834 3.87402 20.5611 3.65648 20.3436C3.43894 20.1261 3.31673 19.831 3.31673 19.5234V14.5122C3.31673 14.2046 3.43894 13.9095 3.65648 13.692Z" fill="#1E2134"/>
<path d="M13.6788 13.692C13.8963 13.4745 14.1913 13.3522 14.499 13.3522H19.5101C19.8178 13.3522 20.1128 13.4745 20.3304 13.692C20.5479 13.9095 20.6701 14.2046 20.6701 14.5122V19.5234C20.6701 19.831 20.5479 20.1261 20.3304 20.3436C20.1128 20.5611 19.8178 20.6834 19.5101 20.6834H14.499C14.1913 20.6834 13.8963 20.5611 13.6788 20.3436C13.4612 20.1261 13.339 19.831 13.339 19.5234V14.5122C13.339 14.2046 13.4612 13.9095 13.6788 13.692Z" fill="#1E2134"/>
</svg>
