<svg width="24" height="24" viewBox="0 0 24 24" fill="none" xmlns="http://www.w3.org/2000/svg">
<path fill-rule="evenodd" clip-rule="evenodd" d="M3.25 12C3.25 7.16751 7.16751 3.25 12 3.25C16.8325 3.25 20.75 7.16751 20.75 12C20.75 16.8325 16.8325 20.75 12 20.75C7.16751 20.75 3.25 16.8325 3.25 12ZM12 1.75C6.33908 1.75 1.75 6.33908 1.75 12C1.75 17.6609 6.33908 22.25 12 22.25C17.6609 22.25 22.25 17.6609 22.25 12C22.25 6.33908 17.6609 1.75 12 1.75ZM5.71008 11.9999C5.71008 12.6947 6.27331 13.2579 6.96808 13.2579C7.66286 13.2579 8.22608 12.6947 8.22608 11.9999C8.22608 11.3052 7.66286 10.7419 6.96808 10.7419C6.27331 10.7419 5.71008 11.3052 5.71008 11.9999ZM12.0001 13.2579C11.3053 13.2579 10.7421 12.6947 10.7421 11.9999C10.7421 11.3052 11.3053 10.7419 12.0001 10.7419C12.6949 10.7419 13.2581 11.3052 13.2581 11.9999C13.2581 12.6947 12.6949 13.2579 12.0001 13.2579ZM17.0321 13.2579C16.3373 13.2579 15.7741 12.6947 15.7741 11.9999C15.7741 11.3052 16.3373 10.7419 17.0321 10.7419C17.7269 10.7419 18.2901 11.3052 18.2901 11.9999C18.2901 12.6947 17.7269 13.2579 17.0321 13.2579Z" fill="#1E2134"/>
</svg>
