<svg width="24" height="24" viewBox="0 0 24 24" fill="none" xmlns="http://www.w3.org/2000/svg">
<path fill-rule="evenodd" clip-rule="evenodd" d="M8 3.75C5.65279 3.75 3.75 5.65279 3.75 8V16C3.75 18.3472 5.65279 20.25 8 20.25H16C18.3472 20.25 20.25 18.3472 20.25 16V11C20.25 10.5858 20.5858 10.25 21 10.25C21.4142 10.25 21.75 10.5858 21.75 11V16C21.75 19.1756 19.1756 21.75 16 21.75H8C4.82436 21.75 2.25 19.1756 2.25 16V8C2.25 4.82436 4.82436 2.25 8 2.25H13C13.4142 2.25 13.75 2.58579 13.75 3C13.75 3.41421 13.4142 3.75 13 3.75H8ZM16.25 5.00098C16.25 4.58676 16.5858 4.25098 17 4.25098H18.249V3C18.249 2.58579 18.5848 2.25 18.999 2.25C19.4132 2.25 19.749 2.58579 19.749 3V4.25098H21C21.4142 4.25098 21.75 4.58676 21.75 5.00098C21.75 5.41519 21.4142 5.75098 21 5.75098H19.749V7C19.749 7.41421 19.4132 7.75 18.999 7.75C18.5848 7.75 18.249 7.41421 18.249 7V5.75098H17C16.5858 5.75098 16.25 5.41519 16.25 5.00098ZM12 7.75C11.0335 7.75 10.25 8.5335 10.25 9.5C10.25 10.4665 11.0335 11.25 12 11.25C12.9665 11.25 13.75 10.4665 13.75 9.5C13.75 8.5335 12.9665 7.75 12 7.75ZM8.75 9.5C8.75 7.70507 10.2051 6.25 12 6.25C13.7949 6.25 15.25 7.70507 15.25 9.5C15.25 11.2949 13.7949 12.75 12 12.75C10.2051 12.75 8.75 11.2949 8.75 9.5ZM9.78894 13.75H9.78859C8.49703 13.7506 7.32854 14.5163 6.81247 15.7003C6.64697 16.08 6.82061 16.522 7.20032 16.6875C7.58003 16.853 8.02202 16.6794 8.18753 16.2997C8.46523 15.6626 9.09395 15.2505 9.78894 15.25H9.78929H14.2107H14.2108H14.2111C14.906 15.2505 15.5348 15.6626 15.8125 16.2997C15.978 16.6794 16.42 16.853 16.7997 16.6875C17.1794 16.522 17.353 16.08 17.1875 15.7003C16.6715 14.5163 15.503 13.7506 14.2114 13.75H14.2111H9.78894Z" fill="#1E2134"/>
</svg>
