<svg width="24" height="24" viewBox="0 0 24 24" fill="none" xmlns="http://www.w3.org/2000/svg">
<path fill-rule="evenodd" clip-rule="evenodd" d="M8.06111 3.55311C9.13192 2.4823 10.8681 2.4823 11.9389 3.55311C13.0097 4.62393 13.0097 6.36007 11.9389 7.43088C10.8681 8.5017 9.13192 8.5017 8.06111 7.43088C6.99029 6.36007 6.99029 4.62393 8.06111 3.55311ZM7.00045 2.49245C8.65705 0.835849 11.3429 0.835849 12.9995 2.49245C14.6561 4.14906 14.6561 6.83494 12.9995 8.49154C11.3429 10.1481 8.65705 10.1481 7.00045 8.49154C5.34384 6.83494 5.34384 4.14906 7.00045 2.49245ZM10 11.241C7.86705 11.241 5.73203 11.757 4.10462 12.7045C2.48403 13.6481 1.25 15.1018 1.25 16.983V17.983C1.25 18.9492 2.03379 19.733 3 19.733H11.9397C12.9122 21.5299 14.8138 22.75 17 22.75C20.1763 22.75 22.75 20.1751 22.75 17C22.75 13.8262 20.1788 11.2525 17.0048 11.25L17.0045 11.25C16.0249 11.249 15.093 11.5083 14.2754 11.9611C12.9678 11.4928 11.4877 11.241 10 11.241ZM13.0701 18.6213C13.093 18.6626 13.112 18.7064 13.1268 18.7521C13.7942 20.2254 15.2776 21.25 17 21.25H17.0006C19.348 21.2497 21.25 19.3467 21.25 17C21.25 14.6542 19.3498 12.7521 17.0042 12.75L17.0035 12.75H17.0032C16.2338 12.7491 15.5012 12.9703 14.8675 13.3512C14.8051 13.4078 14.7339 13.4532 14.6573 13.4859C13.5198 14.261 12.75 15.5664 12.75 17C12.75 17.5742 12.8638 18.1217 13.0701 18.6213ZM11.25 17C11.25 15.506 11.8551 14.1229 12.8285 13.0877C11.9365 12.8626 10.9734 12.741 10 12.741C8.08495 12.741 6.21997 13.2086 4.85938 14.0008C3.49197 14.797 2.75 15.8393 2.75 16.983V17.983C2.75 18.1208 2.86221 18.233 3 18.233H11.3825C11.2957 17.8358 11.25 17.4233 11.25 17ZM16.9991 14.0281C16.5114 14.0281 16.1073 14.4236 16.1111 14.922L16.1111 14.9171H16.3891L16.3891 14.9232L16.1112 14.9268L16.1111 14.922C16.1137 15.4109 16.5105 15.8061 17.0001 15.8061C17.4913 15.8061 17.8891 15.4083 17.8891 14.9171C17.8891 14.4224 17.4878 14.0281 16.9991 14.0281ZM17.6111 14.9171L17.6111 14.9123L17.6112 14.9171H17.6111ZM17.7501 17.2501C17.7501 16.8359 17.4143 16.5001 17.0001 16.5001C16.5859 16.5001 16.2501 16.8359 16.2501 17.2501V19.2501C16.2501 19.6643 16.5859 20.0001 17.0001 20.0001C17.4143 20.0001 17.7501 19.6643 17.7501 19.2501V17.2501Z" fill="#1E2134"/>
</svg>
