<svg width="24" height="24" viewBox="0 0 24 24" fill="none" xmlns="http://www.w3.org/2000/svg">
<path fill-rule="evenodd" clip-rule="evenodd" d="M11.9389 3.55311C10.8681 2.4823 9.13192 2.4823 8.06111 3.55311C6.99029 4.62393 6.99029 6.36007 8.06111 7.43088C9.13192 8.5017 10.8681 8.5017 11.9389 7.43088C13.0097 6.36007 13.0097 4.62393 11.9389 3.55311ZM12.9995 2.49245C11.3429 0.835849 8.65705 0.835849 7.00045 2.49245C5.34384 4.14906 5.34384 6.83494 7.00045 8.49154C8.65705 10.1481 11.3429 10.1481 12.9995 8.49154C14.6561 6.83494 14.6561 4.14906 12.9995 2.49245ZM4.10462 12.7045C5.73203 11.757 7.86705 11.241 10 11.241C11.0886 11.241 12.1707 11.3758 13.1828 11.6301C13.1904 11.632 13.1981 11.6341 13.2057 11.6362L13.3262 11.6706C13.3623 11.5968 13.4105 11.5288 13.4697 11.4697C13.6103 11.329 13.8011 11.25 14 11.25H21C21.4142 11.25 21.75 11.5858 21.75 12V15V21C21.75 21.2674 21.6077 21.5145 21.3764 21.6487C21.1452 21.7829 20.86 21.7838 20.6279 21.6512L17.5 19.8638L14.3721 21.6512C14.14 21.7838 13.8548 21.7829 13.6236 21.6487C13.3923 21.5145 13.25 21.2674 13.25 21V19.733H3C2.03379 19.733 1.25 18.9492 1.25 17.983V16.983C1.25 15.1018 2.48403 13.6481 4.10462 12.7045ZM13.25 18.233V15V13.2087L12.8059 13.082C11.9183 12.86 10.963 12.741 10 12.741C8.08495 12.741 6.21997 13.2086 4.85938 14.0008C3.49197 14.797 2.75 15.8393 2.75 16.983V17.983C2.75 18.1208 2.86221 18.233 3 18.233H13.25ZM14.75 14.25V12.75H20.25V14.25H14.75ZM14.75 15.75H20.25V19.7076L17.8721 18.3488C17.6415 18.2171 17.3585 18.2171 17.1279 18.3488L14.75 19.7076V15.75Z" fill="#1E2134"/>
</svg>
