<svg width="24" height="24" viewBox="0 0 24 24" fill="none" xmlns="http://www.w3.org/2000/svg">
<path fill-rule="evenodd" clip-rule="evenodd" d="M9.68726 2.5317C9.8531 2.91126 9.67984 3.3534 9.30028 3.51924C6.03179 4.94731 3.75 8.20796 3.75 11.9999C3.75 17.1085 7.89137 21.2499 13 21.2499C15.5877 21.2499 17.9262 20.1883 19.6059 18.4749C19.8958 18.1791 20.3707 18.1743 20.6665 18.4643C20.9623 18.7543 20.967 19.2291 20.677 19.5249C18.7268 21.5142 16.007 22.7499 13 22.7499C7.06294 22.7499 2.25 17.937 2.25 11.9999C2.25 7.59054 4.90459 3.80287 8.69972 2.14471C9.07929 1.97887 9.52143 2.15213 9.68726 2.5317ZM13 5.74989C9.54822 5.74989 6.75 8.54811 6.75 11.9999C6.75 15.4517 9.54822 18.2499 13 18.2499C13.4142 18.2499 13.75 18.5857 13.75 18.9999C13.75 19.4141 13.4142 19.7499 13 19.7499C8.71979 19.7499 5.25 16.2801 5.25 11.9999C5.25 7.71968 8.71979 4.24989 13 4.24989C14.8965 4.24989 16.6356 4.93204 17.9824 6.06352C18.2996 6.32996 18.3407 6.80305 18.0743 7.1202C17.8078 7.43735 17.3347 7.47846 17.0176 7.21202C15.9309 6.29909 14.5306 5.74989 13 5.74989ZM9.75 11.9999C9.75 10.205 11.2051 8.74989 13 8.74989C13.5726 8.74989 14.1085 8.89731 14.5741 9.15569C14.9363 9.35667 15.3928 9.22598 15.5938 8.86379C15.7948 8.5016 15.6641 8.04506 15.3019 7.84409C14.6193 7.46531 13.8337 7.24989 13 7.24989C10.3766 7.24989 8.25 9.37653 8.25 11.9999C8.25 14.6232 10.3766 16.7499 13 16.7499C14.1226 16.7499 15.156 16.3595 15.9691 15.7078C16.2923 15.4487 16.3443 14.9767 16.0852 14.6535C15.8261 14.3303 15.3541 14.2783 15.0309 14.5374C14.4744 14.9835 13.7693 15.2499 13 15.2499C11.2051 15.2499 9.75 13.7948 9.75 11.9999Z" fill="#1E2134"/>
</svg>
