<svg width="24" height="24" viewBox="0 0 24 24" fill="none" xmlns="http://www.w3.org/2000/svg">
<path fill-rule="evenodd" clip-rule="evenodd" d="M6.33067 2.24609C4.07492 2.24609 2.24628 4.07474 2.24628 6.33048V7.99818C2.24628 8.41239 2.58206 8.74818 2.99628 8.74818C3.41049 8.74818 3.74628 8.41239 3.74628 7.99818V6.33048C3.74628 4.90316 4.90335 3.74609 6.33067 3.74609H12C12.4142 3.74609 12.75 3.41031 12.75 2.99609C12.75 2.58188 12.4142 2.24609 12 2.24609H6.33067ZM20.4734 2.46576C20.7663 2.17287 21.2412 2.17287 21.5341 2.46576C21.827 2.75866 21.827 3.23353 21.5341 3.52642L20.5337 4.52684C20.2408 4.81973 19.7659 4.81973 19.473 4.52684C19.1801 4.23395 19.1801 3.75907 19.473 3.46618L20.4734 2.46576ZM8.99878 9.74854C6.0979 9.74854 3.74628 12.1002 3.74628 15.001C3.74628 17.9019 6.0979 20.2535 8.99878 20.2535C11.8997 20.2535 14.2513 17.9019 14.2513 15.001C14.2513 12.1002 11.8997 9.74854 8.99878 9.74854ZM2.24628 15.001C2.24628 11.2717 5.26947 8.24854 8.99878 8.24854C12.7281 8.24854 15.7513 11.2717 15.7513 15.001C15.7513 18.7303 12.7281 21.7535 8.99878 21.7535C5.26947 21.7535 2.24628 18.7303 2.24628 15.001ZM16.532 2.46576C16.2391 2.17287 15.7642 2.17287 15.4713 2.46576C15.1784 2.75866 15.1784 3.23353 15.4713 3.52642L16.4717 4.52684C16.7646 4.81973 17.2395 4.81973 17.5324 4.52684C17.8253 4.23395 17.8253 3.75907 17.5324 3.46618L16.532 2.46576ZM17.5324 6.46772C17.8253 6.76061 17.8253 7.23548 17.5324 7.52838L16.532 8.52879C16.2391 8.82169 15.7642 8.82169 15.4713 8.52879C15.1784 8.2359 15.1784 7.76103 15.4713 7.46813L16.4717 6.46772C16.7646 6.17482 17.2395 6.17482 17.5324 6.46772ZM20.5337 6.46772C20.2408 6.17482 19.7659 6.17482 19.473 6.46772C19.1801 6.76061 19.1801 7.23548 19.473 7.52838L20.4734 8.52879C20.7663 8.82169 21.2412 8.82169 21.5341 8.52879C21.827 8.2359 21.827 7.76103 21.5341 7.46813L20.5337 6.46772ZM21.0037 11.25C21.4179 11.25 21.7537 11.5858 21.7537 12V17.6694C21.7537 19.9251 19.9251 21.7537 17.6693 21.7537H16.0016C15.5874 21.7537 15.2516 21.418 15.2516 21.0037C15.2516 20.5895 15.5874 20.2537 16.0016 20.2537H17.6693C19.0967 20.2537 20.2537 19.0967 20.2537 17.6694V12C20.2537 11.5858 20.5895 11.25 21.0037 11.25Z" fill="#1E2134"/>
</svg>
