<svg width="24" height="24" viewBox="0 0 24 24" fill="none" xmlns="http://www.w3.org/2000/svg">
<path fill-rule="evenodd" clip-rule="evenodd" d="M6.5 2.25C8.84835 2.25 10.75 4.15293 10.75 6.5C10.75 8.84707 8.84835 10.75 6.5 10.75C5.45073 10.75 4.49137 10.3685 3.75 9.73828V17C3.75 18.7948 5.20521 20.25 7 20.25H11C11.4142 20.25 11.75 20.5858 11.75 21C11.75 21.4142 11.4142 21.75 11 21.75H7C4.37679 21.75 2.25 19.6232 2.25 17V7C2.25 6.94819 2.25465 6.89748 2.26465 6.84863C2.25531 6.73364 2.25 6.6174 2.25 6.5C2.25 4.15279 4.15279 2.25 6.5 2.25ZM17 2.25C19.6232 2.25 21.75 4.37679 21.75 7V17C21.75 17.0512 21.7442 17.1011 21.7344 17.1494C21.7438 17.2651 21.75 17.3819 21.75 17.5C21.75 19.8471 19.8484 21.75 17.5 21.75C15.1528 21.75 13.25 19.8472 13.25 17.5C13.25 15.1528 15.1528 13.25 17.5 13.25C18.5492 13.25 19.5089 13.6302 20.25 14.2598V7C20.25 5.20521 18.7948 3.75 17 3.75H12C11.5858 3.75 11.25 3.41421 11.25 3C11.25 2.58579 11.5858 2.25 12 2.25H17ZM17.5 14.75C15.9812 14.75 14.75 15.9812 14.75 17.5C14.75 19.0188 15.9812 20.25 17.5 20.25C19.0196 20.25 20.25 19.0189 20.25 17.5C20.25 15.9811 19.0196 14.75 17.5 14.75ZM6.5 3.75C4.98121 3.75 3.75 4.98121 3.75 6.5C3.75 8.01879 4.98121 9.25 6.5 9.25C8.01965 9.25 9.25 8.01893 9.25 6.5C9.25 4.98107 8.01965 3.75 6.5 3.75Z" fill="#1E2134"/>
</svg>
