<svg width="24" height="24" viewBox="0 0 24 24" fill="none" xmlns="http://www.w3.org/2000/svg">
<path fill-rule="evenodd" clip-rule="evenodd" d="M8 3.75C5.65279 3.75 3.75 5.65279 3.75 8V16C3.75 18.3472 5.65279 20.25 8 20.25H16C18.3472 20.25 20.25 18.3472 20.25 16V12C20.25 11.5858 20.5858 11.25 21 11.25C21.4142 11.25 21.75 11.5858 21.75 12V16C21.75 19.1756 19.1756 21.75 16 21.75H8C4.82436 21.75 2.25 19.1756 2.25 16V8C2.25 4.82436 4.82436 2.25 8 2.25H12C12.4142 2.25 12.75 2.58579 12.75 3C12.75 3.41421 12.4142 3.75 12 3.75H8ZM8.09082 7.84082C7.95303 7.84082 7.84082 7.95303 7.84082 8.09082V11.2498H11.2498V8.09082C11.2498 7.95303 11.1376 7.84082 10.9998 7.84082H8.09082ZM12.7498 11.2498V8.09082C12.7498 7.12461 11.966 6.34082 10.9998 6.34082H8.09082C7.12461 6.34082 6.34082 7.12461 6.34082 8.09082V11.9998V15.9088C6.34082 16.875 7.12461 17.6588 8.09082 17.6588H11.9998H15.9088C16.875 17.6588 17.6588 16.875 17.6588 15.9088V12.9998C17.6588 12.0336 16.875 11.2498 15.9088 11.2498H12.7498ZM11.2498 12.7498H7.84082V15.9088C7.84082 16.0466 7.95303 16.1588 8.09082 16.1588H11.2498V12.7498ZM12.7498 16.1588V12.7498H15.9088C16.0466 12.7498 16.1588 12.862 16.1588 12.9998V15.9088C16.1588 16.0466 16.0466 16.1588 15.9088 16.1588H12.7498ZM17.0908 2.25C16.1246 2.25 15.3408 3.03379 15.3408 4V6.909C15.3408 7.87521 16.1246 8.659 17.0908 8.659H19.9998C20.966 8.659 21.7498 7.87521 21.7498 6.909V4C21.7498 3.03379 20.966 2.25 19.9998 2.25H17.0908ZM16.8408 4C16.8408 3.86221 16.953 3.75 17.0908 3.75H19.9998C20.1376 3.75 20.2498 3.86221 20.2498 4V6.909C20.2498 7.04679 20.1376 7.159 19.9998 7.159H17.0908C16.953 7.159 16.8408 7.04679 16.8408 6.909V4Z" fill="#1E2134"/>
</svg>
