<svg width="24" height="24" viewBox="0 0 24 24" fill="none" xmlns="http://www.w3.org/2000/svg">
<path fill-rule="evenodd" clip-rule="evenodd" d="M9.93254 3.41931C11.0717 2.28015 12.9186 2.28015 14.0578 3.41931C15.197 4.55847 15.197 6.40541 14.0578 7.54457C12.9186 8.68373 11.0717 8.68373 9.93254 7.54457C8.79338 6.40541 8.79338 4.55847 9.93254 3.41931ZM15.1185 2.35865C13.3935 0.633706 10.5968 0.633706 8.87188 2.35865C7.14693 4.08359 7.14693 6.88029 8.87188 8.60523C8.91929 8.65264 8.96751 8.69875 9.0165 8.74356L7.94734 10.6302L6.73078 12.777C5.2033 12.2808 3.45861 12.6394 2.24508 13.8529C0.522474 15.5755 0.522474 18.3684 2.24508 20.091C3.96768 21.8136 6.76057 21.8136 8.48318 20.091C9.14577 19.4284 9.5535 18.6075 9.70636 17.75H12H14.2939C14.4467 18.6075 14.8545 19.4284 15.5171 20.091C17.2397 21.8136 20.0326 21.8136 21.7552 20.091C23.4778 18.3684 23.4778 15.5755 21.7552 13.8529C20.5416 12.6393 18.7968 12.2807 17.2693 12.7771L16.0527 10.6302L14.9802 8.73773C15.027 8.69476 15.0731 8.65059 15.1185 8.60523C16.8434 6.88029 16.8434 4.08359 15.1185 2.35865ZM13.7169 9.55084C12.6215 10.0139 11.3773 10.015 10.2813 9.55413L9.25236 11.3698L8.05756 13.4782C8.20537 13.5924 8.34759 13.7173 8.48318 13.8529C9.1602 14.5299 9.57114 15.3723 9.71599 16.25H12H14.2842C14.4291 15.3723 14.84 14.5299 15.5171 13.8529C15.6526 13.7174 15.7948 13.5925 15.9425 13.4783L14.7476 11.3698L13.7169 9.55084ZM3.30574 14.9136C4.44255 13.7768 6.2857 13.7768 7.42252 14.9136C8.55933 16.0504 8.55933 17.8935 7.42252 19.0303C6.2857 20.1672 4.44255 20.1672 3.30574 19.0303C2.16892 17.8935 2.16892 16.0504 3.30574 14.9136ZM16.5777 14.9136C17.7145 13.7768 19.5577 13.7768 20.6945 14.9136C21.8313 16.0504 21.8313 17.8935 20.6945 19.0303C19.5577 20.1672 17.7145 20.1672 16.5777 19.0303C15.4409 17.8935 15.4409 16.0504 16.5777 14.9136Z" fill="#1E2134"/>
</svg>
