<svg width="24" height="24" viewBox="0 0 24 24" fill="none" xmlns="http://www.w3.org/2000/svg">
<path d="M17.5029 2.24609C19.0219 2.24632 20.2529 3.47802 20.2529 4.99707V19.0029L20.2393 19.2842C20.0983 20.6711 18.927 21.7537 17.5029 21.7539H6.49805C4.97892 21.7538 3.74716 20.5221 3.74707 19.0029V4.99707C3.74714 3.47792 4.9789 2.24616 6.49805 2.24609H17.5029ZM6.49805 3.74609C5.80733 3.74616 5.24714 4.30635 5.24707 4.99707V19.0029C5.24716 19.6936 5.80734 20.2538 6.49805 20.2539H17.5029C18.1503 20.2537 18.6829 19.7614 18.7471 19.1309L18.7529 19.0029V4.99707L18.7471 4.86914C18.683 4.23854 18.1504 3.7463 17.5029 3.74609H6.49805ZM15.9639 14.8057C16.2626 14.5188 16.7375 14.5285 17.0244 14.8271C17.3111 15.1259 17.3016 15.6008 17.0029 15.8877L14.5273 18.2656C14.2736 18.5094 13.8906 18.54 13.6045 18.3574L13.4883 18.2666L12 16.8389L11.9473 16.7832C11.7013 16.4937 11.7099 16.0594 11.9785 15.7793C12.2472 15.4992 12.681 15.4723 12.9805 15.7061L13.0391 15.7568L14.0068 16.6855L15.9639 14.8057ZM10.5762 11.2539C10.9544 11.2922 11.2499 11.6117 11.25 12C11.2499 12.3883 10.9544 12.7078 10.5762 12.7461L10.5 12.75H8.49902C8.08489 12.75 7.74916 12.4141 7.74902 12C7.74914 11.5859 8.08488 11.25 8.49902 11.25H10.5L10.5762 11.2539ZM14.5781 7.25195C14.9562 7.29035 15.2518 7.60987 15.252 7.99805C15.252 8.38635 14.9563 8.7057 14.5781 8.74414L14.502 8.74805H8.49902C8.08481 8.74805 7.74902 8.41226 7.74902 7.99805C7.7492 7.58399 8.08492 7.24805 8.49902 7.24805H14.502L14.5781 7.25195Z" fill="#1E2134"/>
</svg>
