<svg width="24" height="24" viewBox="0 0 24 24" fill="none" xmlns="http://www.w3.org/2000/svg">
<path d="M5.13086 5.10291C7.92037 2.31358 12.1162 1.47909 15.7607 2.98865C19.405 4.49839 21.781 8.05477 21.7812 11.9994C21.7812 15.9443 19.4052 19.5013 15.7607 21.0111C12.1161 22.5208 7.92041 21.6862 5.13086 18.8969C4.8382 18.6039 4.83804 18.1281 5.13086 17.8353C5.42363 17.5431 5.89864 17.5431 6.19141 17.8353C8.55196 20.1959 12.1023 20.9029 15.1865 19.6254C18.2706 18.3478 20.2812 15.3376 20.2812 11.9994C20.281 8.66139 18.2704 5.65191 15.1865 4.37439C12.1024 3.097 8.55192 3.80312 6.19141 6.16345C5.89855 6.45615 5.42372 6.45615 5.13086 6.16345C4.83824 5.87059 4.83819 5.39573 5.13086 5.10291ZM11.999 7.24841C12.5958 7.24841 13.1686 7.48554 13.5908 7.90759L16.0918 10.4076L16.2412 10.5726C16.5696 10.9731 16.7509 11.4768 16.751 11.9994C16.7509 12.5215 16.5703 13.0256 16.2422 13.4261L16.0928 13.5912L13.5918 16.0922C13.1699 16.5141 12.597 16.7513 12 16.7513C11.4781 16.7512 10.9746 16.5704 10.5742 16.2426L10.4092 16.0931L7.90723 13.5922C7.48527 13.1703 7.24809 12.5973 7.24805 12.0004C7.24812 11.4038 7.48538 10.8316 7.90723 10.4095L10.4072 7.90759L10.5723 7.75818C10.9726 7.42995 11.4766 7.2485 11.999 7.24841ZM6.07422 14.2552C6.45234 14.2937 6.74794 14.6131 6.74805 15.0013C6.74791 15.3895 6.45232 15.709 6.07422 15.7474L5.99805 15.7513H3.99707C3.58295 15.7513 3.24722 15.4154 3.24707 15.0013C3.24718 14.5872 3.58293 14.2513 3.99707 14.2513H5.99805L6.07422 14.2552ZM11.999 8.74841C11.85 8.74849 11.7053 8.79287 11.583 8.87439L11.4688 8.96814L8.96777 11.4701C8.82739 11.6107 8.74812 11.8014 8.74805 12.0004C8.74809 12.1992 8.82699 12.3909 8.96777 12.5316L11.4697 15.0316L11.584 15.1254C11.7062 15.2068 11.8508 15.2512 12 15.2513C12.1988 15.2513 12.3905 15.1723 12.5312 15.0316L15.0312 12.5306L15.125 12.4164C15.2067 12.2939 15.2509 12.1489 15.251 11.9994C15.2509 11.8502 15.2066 11.7058 15.125 11.5834L15.0312 11.4691L12.5303 8.96814C12.3895 8.82747 12.1982 8.74841 11.999 8.74841ZM4.07324 11.2533C4.45134 11.2916 4.74679 11.6113 4.74707 11.9994C4.74707 12.3877 4.45147 12.7071 4.07324 12.7455L3.99707 12.7494H1.99609C1.58188 12.7494 1.24609 12.4136 1.24609 11.9994C1.24639 11.5854 1.58206 11.2494 1.99609 11.2494H3.99707L4.07324 11.2533ZM6.07422 8.25232C6.45233 8.2907 6.74789 8.61021 6.74805 8.99841C6.74805 9.38673 6.4524 9.70608 6.07422 9.74451L5.99805 9.74841H3.99707C3.58286 9.74841 3.24707 9.41263 3.24707 8.99841C3.24723 8.58434 3.58296 8.24841 3.99707 8.24841H5.99805L6.07422 8.25232Z" fill="#1E2134"/>
</svg>
