<svg width="24" height="24" viewBox="0 0 24 24" fill="none" xmlns="http://www.w3.org/2000/svg">
<path fill-rule="evenodd" clip-rule="evenodd" d="M9.93254 3.41931C11.0717 2.28015 12.9186 2.28015 14.0578 3.41931C14.8028 4.16436 15.0606 5.21217 14.8311 6.16671C14.8291 6.17436 14.8272 6.18201 14.8255 6.18968C14.7018 6.68615 14.4459 7.15644 14.0578 7.54457C12.9186 8.68373 11.0717 8.68373 9.93254 7.54457C8.79338 6.40541 8.79338 4.55847 9.93254 3.41931ZM15.9422 7.46715C15.7357 7.8776 15.4611 8.26256 15.1185 8.60523C13.3935 10.3302 10.5968 10.3302 8.87188 8.60523C7.14693 6.88029 7.14693 4.08359 8.87188 2.35865C10.5968 0.633706 13.3935 0.633706 15.1185 2.35865C16.1039 3.34413 16.5264 4.67941 16.3859 5.96481C17.5965 6.70798 18.5851 7.7483 19.2793 8.95461C19.4859 9.31362 19.3624 9.77214 19.0033 9.97874C18.6443 10.1853 18.1858 10.0618 17.9792 9.70277C17.4724 8.82208 16.7784 8.05314 15.9422 7.46715ZM3.30574 14.9136C4.44255 13.7768 6.2857 13.7768 7.42252 14.9136C8.55933 16.0504 8.55933 17.8935 7.42252 19.0303C6.2857 20.1672 4.44255 20.1672 3.30574 19.0303C2.16892 17.8935 2.16892 16.0504 3.30574 14.9136ZM3.5905 12.932C3.10222 13.1462 2.64483 13.4532 2.24508 13.8529C0.522474 15.5755 0.522474 18.3684 2.24508 20.091C3.96768 21.8136 6.76057 21.8136 8.48318 20.091C10.2058 18.3684 10.2058 15.5755 8.48318 13.8529C7.55806 12.9278 6.32426 12.4995 5.11333 12.568C5.20235 11.5561 5.51805 10.5769 6.02106 9.70276C6.22765 9.34375 6.10409 8.88523 5.74508 8.67863C5.38606 8.47204 4.92755 8.5956 4.72095 8.95462C4.03194 10.152 3.62932 11.5192 3.5905 12.932ZM16.5777 14.9136C17.7145 13.7768 19.5577 13.7768 20.6945 14.9136C21.8313 16.0504 21.8313 17.8935 20.6945 19.0303C19.5772 20.1476 17.7776 20.1668 16.6369 19.0879C16.6286 19.0796 16.6201 19.0715 16.6115 19.0636C16.6002 19.0526 16.5889 19.0415 16.5777 19.0303C15.4409 17.8935 15.4409 16.0504 16.5777 14.9136ZM14.9519 19.3992C13.8214 17.687 14.0097 15.3602 15.5171 13.8529C17.2397 12.1303 20.0326 12.1303 21.7552 13.8529C23.4778 15.5755 23.4778 18.3684 21.7552 20.091C20.195 21.6511 17.757 21.7983 16.0312 20.5324C14.778 21.217 13.3884 21.5588 12.0001 21.5588C11.5859 21.5588 11.2501 21.223 11.2501 20.8088C11.2501 20.3946 11.5859 20.0588 12.0001 20.0588C13.0109 20.0588 14.0207 19.8387 14.9519 19.3992Z" fill="#1E2134"/>
</svg>
