<svg width="24" height="24" viewBox="0 0 24 24" fill="none" xmlns="http://www.w3.org/2000/svg">
<path fill-rule="evenodd" clip-rule="evenodd" d="M8.06111 3.55311C9.13192 2.4823 10.8681 2.4823 11.9389 3.55311C13.0097 4.62393 13.0097 6.36007 11.9389 7.43088C10.8681 8.5017 9.13192 8.5017 8.06111 7.43088C6.99029 6.36007 6.99029 4.62393 8.06111 3.55311ZM7.00045 2.49245C8.65705 0.835849 11.3429 0.835849 12.9995 2.49245C14.6561 4.14906 14.6561 6.83494 12.9995 8.49154C11.3429 10.1481 8.65705 10.1481 7.00045 8.49154C5.34384 6.83494 5.34384 4.14906 7.00045 2.49245ZM10 11.241C7.86705 11.241 5.73203 11.757 4.10462 12.7045C2.48403 13.6481 1.25 15.1018 1.25 16.983V17.983C1.25 18.9492 2.03379 19.733 3 19.733H11.9397C12.9122 21.5299 14.8138 22.75 17 22.75C20.1763 22.75 22.75 20.1751 22.75 17C22.75 13.8262 20.1788 11.2525 17.0048 11.25L17.0045 11.25C16.0249 11.249 15.093 11.5083 14.2754 11.9611C12.9678 11.4928 11.4877 11.241 10 11.241ZM13.0701 18.6213C13.093 18.6626 13.112 18.7064 13.1268 18.7521C13.7942 20.2254 15.2776 21.25 17 21.25H17.0006C19.348 21.2497 21.25 19.3467 21.25 17C21.25 14.6542 19.3498 12.7521 17.0042 12.75L17.0035 12.75H17.0032C16.2338 12.7491 15.5012 12.9703 14.8675 13.3512C14.8051 13.4078 14.7339 13.4532 14.6573 13.4859C13.5198 14.261 12.75 15.5664 12.75 17C12.75 17.5742 12.8638 18.1217 13.0701 18.6213ZM11.25 17C11.25 15.506 11.8551 14.1229 12.8285 13.0877C11.9365 12.8626 10.9734 12.741 10 12.741C8.08495 12.741 6.21997 13.2086 4.85938 14.0008C3.49197 14.797 2.75 15.8393 2.75 16.983V17.983C2.75 18.1208 2.86221 18.233 3 18.233H11.3825C11.2957 17.8358 11.25 17.4233 11.25 17ZM15.75 17C15.75 16.3326 16.334 15.7493 17.0008 15.75H17.0011C17.0013 15.75 17.0015 15.75 17.0018 15.75C17.6914 15.7509 18.25 16.3102 18.25 17C18.25 17.6901 17.6908 18.2496 17.0007 18.25C17.0004 18.25 17.0002 18.25 17 18.25C16.3097 18.25 15.75 17.6905 15.75 17ZM14.25 17C14.25 18.5191 15.4815 19.75 17 19.75C18.5191 19.75 19.75 18.5185 19.75 17C19.75 15.4822 18.5204 14.2513 17.0024 14.25L17.0021 14.25C15.5058 14.2485 14.25 15.5043 14.25 17Z" fill="#1E2134"/>
</svg>
