<svg width="24" height="24" viewBox="0 0 24 24" fill="none" xmlns="http://www.w3.org/2000/svg">
<path fill-rule="evenodd" clip-rule="evenodd" d="M7 3.75C5.20521 3.75 3.75 5.20521 3.75 7V17C3.75 18.7948 5.20521 20.25 7 20.25H17C18.7948 20.25 20.25 18.7948 20.25 17V7C20.25 5.20521 18.7948 3.75 17 3.75H7ZM2.25 7C2.25 4.37679 4.37679 2.25 7 2.25H17C19.6232 2.25 21.75 4.37679 21.75 7V17C21.75 19.6232 19.6232 21.75 17 21.75H7C4.37679 21.75 2.25 19.6232 2.25 17V7ZM10.9908 9.87295C10.8361 10.2169 10.75 10.5984 10.75 11C10.75 12.5188 11.9812 13.75 13.5 13.75C13.516 13.75 13.5321 13.7499 13.548 13.7496C13.5972 13.7425 13.6473 13.7402 13.6976 13.743C15.1249 13.6418 16.25 12.4525 16.25 11C16.25 9.48107 15.0196 8.25 13.5 8.25C12.4125 8.25 11.4725 8.88121 11.0263 9.79724C11.0158 9.82321 11.004 9.84847 10.9908 9.87295ZM9.27348 10.5505C8.36958 10.9988 7.75 11.9264 7.75 13C7.75 14.5188 8.98121 15.75 10.5 15.75C11.1856 15.75 11.8116 15.4965 12.2927 15.0761C10.5336 14.5558 9.25 12.9278 9.25 11C9.25 10.8482 9.25796 10.6982 9.27348 10.5505ZM14.1212 15.205C13.3785 16.4248 12.0423 17.25 10.5 17.25C8.15279 17.25 6.25 15.3472 6.25 13C6.25 10.87 7.81894 9.12298 9.85529 8.81276C10.5986 7.57683 11.9527 6.75 13.5 6.75C15.8484 6.75 17.75 8.65293 17.75 11C17.75 13.1361 16.1748 14.9044 14.1212 15.205Z" fill="#1E2134"/>
</svg>
