<svg width="24" height="24" viewBox="0 0 24 24" fill="none" xmlns="http://www.w3.org/2000/svg">
<path d="M12 12.9912C14.1329 12.9912 16.2681 13.5075 17.8955 14.4551C19.5159 15.3987 20.75 16.8523 20.75 18.7334V19.7334C20.7498 20.639 20.0609 21.3841 19.1787 21.4736L19 21.4834H5C4.03393 21.4834 3.25023 20.6994 3.25 19.7334V18.7334C3.25 16.8523 4.48408 15.3987 6.10449 14.4551C7.7319 13.5075 9.86705 12.9912 12 12.9912ZM12 14.4912C10.085 14.4912 8.21997 14.9588 6.85938 15.751C5.49204 16.5471 4.75 17.5897 4.75 18.7334V19.7334C4.75023 19.871 4.86236 19.9834 5 19.9834H19L19.0508 19.9785C19.1642 19.955 19.2498 19.8536 19.25 19.7334V18.7334C19.25 17.5897 18.508 16.5471 17.1406 15.751C15.78 14.9588 13.9151 14.4912 12 14.4912ZM9 4.24219C10.6565 2.58571 13.3424 2.58597 14.999 4.24219L15.1494 4.40039C16.6543 6.06559 16.604 8.63626 14.999 10.2412C13.3424 11.8977 10.6566 11.8978 9 10.2412C7.34382 8.58461 7.34362 5.89867 9 4.24219ZM13.7305 5.11523C12.6535 4.23676 11.0645 4.29882 10.0605 5.30273C8.98995 6.37343 8.99015 8.10985 10.0605 9.18066C11.1313 10.2515 12.8677 10.2514 13.9385 9.18066C14.9423 8.17684 15.0052 6.5887 14.127 5.51172L13.9385 5.30273L13.7305 5.11523Z" fill="#1E2134"/>
</svg>
