<svg width="24" height="24" viewBox="0 0 24 24" fill="none" xmlns="http://www.w3.org/2000/svg">
<path fill-rule="evenodd" clip-rule="evenodd" d="M14.375 2.00515C12.9053 1.15665 11.0947 1.15665 9.625 2.00515L4.53174 4.94575C3.06208 5.79426 2.15674 7.36236 2.15674 9.05937V14.9406C2.15674 16.6376 3.06208 18.2057 4.53174 19.0542L9.625 21.9948C11.0947 22.8433 12.9053 22.8433 14.375 21.9948L19.4683 19.0542C20.9379 18.2057 21.8433 16.6376 21.8433 14.9406V9.05937C21.8433 7.36236 20.9379 5.79426 19.4683 4.94575L14.375 2.00515ZM10.375 3.30419C11.3806 2.72364 12.6195 2.72364 13.625 3.30419L18.7183 6.24479C19.7238 6.82535 20.3433 7.89826 20.3433 9.05937V14.9406C20.3433 16.1017 19.7238 17.1746 18.7183 17.7552L13.625 20.6958C12.6195 21.2763 11.3806 21.2763 10.375 20.6958L5.28174 17.7552C4.27618 17.1746 3.65674 16.1017 3.65674 14.9406V9.05937C3.65674 7.89826 4.27618 6.82535 5.28174 6.24479L10.375 3.30419ZM11.9999 7.79943C11.0169 7.79943 10.2196 8.59671 10.2196 9.57975C10.2196 10.5628 11.0169 11.3601 11.9999 11.3601C12.983 11.3601 13.7803 10.5628 13.7803 9.57975C13.7803 8.59671 12.983 7.79943 11.9999 7.79943ZM8.7196 9.57975C8.7196 7.76828 10.1885 6.29943 11.9999 6.29943C13.8114 6.29943 15.2803 7.76828 15.2803 9.57975C15.2803 11.3912 13.8114 12.8601 11.9999 12.8601C10.1885 12.8601 8.7196 11.3912 8.7196 9.57975ZM7.53724 14.7329C8.11983 14.1937 8.88304 13.8915 9.68033 13.8915H9.68628H9.69227H9.69829H9.70435H9.71045H9.71658H9.72275H9.72895H9.73519H9.74146H9.74777H9.75412H9.7605H9.76691H9.77336H9.77984H9.78636H9.79291H9.7995H9.80612H9.81277H9.81946H9.82618H9.83293H9.83972H9.84654H9.8534H9.86028H9.8672H9.87416H9.88114H9.88816H9.89521H9.90229H9.9094H9.91654H9.92372H9.93093H9.93816H9.94543H9.95273H9.96007H9.96743H9.97482H9.98224H9.9897H9.99718H10.0047H10.0122H10.0198H10.0274H10.035H10.0427H10.0504H10.0581H10.0659H10.0736H10.0814H10.0893H10.0971H10.105H10.1129H10.1209H10.1289H10.1369H10.1449H10.1529H10.161H10.1691H10.1773H10.1854H10.1936H10.2018H10.2101H10.2184H10.2266H10.235H10.2433H10.2517H10.2601H10.2685H10.2769H10.2854H10.2939H10.3024H10.311H10.3196H10.3281H10.3368H10.3454H10.3541H10.3628H10.3715H10.3802H10.389H10.3978H10.4066H10.4154H10.4242H10.4331H10.442H10.4509H10.4599H10.4688H10.4778H10.4868H10.4958H10.5049H10.514H10.5231H10.5322H10.5413H10.5505H10.5596H10.5688H10.578H10.5873H10.5965H10.6058H10.6151H10.6244H10.6337H10.6431H10.6525H10.6618H10.6713H10.6807H10.6901H10.6996H10.7091H10.7186H10.7281H10.7376H10.7472H10.7568H10.7663H10.7759H10.7856H10.7952H10.8049H10.8145H10.8242H10.8339H10.8437H10.8534H10.8631H10.8729H10.8827H10.8925H10.9023H10.9122H10.922H10.9319H10.9417H10.9516H10.9615H10.9715H10.9814H10.9913H11.0013H11.0113H11.0213H11.0313H11.0413H11.0513H11.0613H11.0714H11.0815H11.0916H11.1016H11.1118H11.1219H11.132H11.1421H11.1523H11.1625H11.1726H11.1828H11.193H11.2032H11.2134H11.2237H11.2339H11.2442H11.2544H11.2647H11.275H11.2853H11.2956H11.3059H11.3162H11.3266H11.3369H11.3472H11.3576H11.368H11.3783H11.3887H11.3991H11.4095H11.4199H11.4303H11.4408H11.4512H11.4616H11.4721H11.4825H11.493H11.5035H11.5139H11.5244H11.5349H11.5454H11.5559H11.5664H11.5769H11.5874H11.598H11.6085H11.619H11.6296H11.6401H11.6507H11.6612H11.6718H11.6823H11.6929H11.7035H11.714H11.7246H11.7352H11.7458H11.7564H11.767H11.7776H11.7882H11.7988H11.8094H11.82H11.8306H11.8412H11.8518H11.8624H11.873H11.8837H11.8943H11.9049H11.9155H11.9262H11.9368H11.9474H11.958H11.9687H11.9793H11.9899H12.0006H12.0112H12.0218H12.0324H12.0431H12.0537H12.0643H12.075H12.0856H12.0962H12.1068H12.1174H12.1281H12.1387H12.1493H12.1599H12.1705H12.1811H12.1917H12.2023H12.2129H12.2235H12.2341H12.2447H12.2553H12.2659H12.2765H12.2871H12.2976H12.3082H12.3188H12.3293H12.3399H12.3505H12.361H12.3716H12.3821H12.3926H12.4032H12.4137H12.4242H12.4347H12.4452H12.4557H12.4662H12.4767H12.4872H12.4976H12.5081H12.5186H12.529H12.5395H12.5499H12.5603H12.5708H12.5812H12.5916H12.602H12.6124H12.6228H12.6331H12.6435H12.6539H12.6642H12.6746H12.6849H12.6952H12.7055H12.7158H12.7261H12.7364H12.7467H12.7569H12.7672H12.7774H12.7877H12.7979H12.8081H12.8183H12.8285H12.8387H12.8488H12.859H12.8691H12.8792H12.8894H12.8995H12.9096H12.9196H12.9297H12.9398H12.9498H12.9598H12.9699H12.9799H12.9898H12.9998H13.0098H13.0197H13.0297H13.0396H13.0495H13.0594H13.0693H13.0791H13.089H13.0988H13.1086H13.1184H13.1282H13.138H13.1477H13.1575H13.1672H13.1769H13.1866H13.1962H13.2059H13.2155H13.2252H13.2348H13.2444H13.2539H13.2635H13.273H13.2825H13.292H13.3015H13.311H13.3204H13.3299H13.3393H13.3487H13.358H13.3674H13.3767H13.386H13.3953H13.4046H13.4138H13.4231H13.4323H13.4415H13.4507H13.4598H13.4689H13.4781H13.4872H13.4962H13.5053H13.5143H13.5233H13.5323H13.5412H13.5502H13.5591H13.568H13.5769H13.5857H13.5946H13.6034H13.6121H13.6209H13.6296H13.6384H13.647H13.6557H13.6644H13.673H13.6816H13.6901H13.6987H13.7072H13.7157H13.7242H13.7326H13.741H13.7494H13.7578H13.7661H13.7745H13.7828H13.791H13.7993H13.8075H13.8157H13.8238H13.832H13.8401H13.8482H13.8562H13.8643H13.8723H13.8802H13.8882H13.8961H13.904H13.9118H13.9197H13.9275H13.9353H13.943H13.9507H13.9584H13.9661H13.9737H13.9813H13.9889H13.9964H14.0039H14.0114H14.0189H14.0263H14.0337H14.041H14.0484H14.0557H14.063H14.0702H14.0774H14.0846H14.0917H14.0988H14.1059H14.113H14.12H14.127H14.1339H14.1408H14.1477H14.1546H14.1614H14.1682H14.1749H14.1817H14.1883H14.195H14.2016H14.2082H14.2148H14.2213H14.2278H14.2342H14.2406H14.247H14.2533H14.2597H14.2659H14.2722H14.2784H14.2845H14.2907H14.2968H14.3028H14.3088H14.3148H14.3208C15.1187 13.8915 15.8809 14.1942 16.4633 14.7334L16.4635 14.7335C16.8072 15.0519 17.0782 15.4434 17.2524 15.8834C17.4048 16.2685 17.2162 16.7043 16.8311 16.8568C16.446 17.0092 16.0102 16.8206 15.8577 16.4355C15.7677 16.2082 15.6266 16.003 15.4442 15.8341C15.1361 15.5488 14.7368 15.3915 14.3208 15.3915H14.3148H14.3088H14.3028H14.2968H14.2907H14.2845H14.2784H14.2722H14.2659H14.2597H14.2533H14.247H14.2406H14.2342H14.2278H14.2213H14.2148H14.2082H14.2016H14.195H14.1883H14.1817H14.1749H14.1682H14.1614H14.1546H14.1477H14.1408H14.1339H14.127H14.12H14.113H14.1059H14.0988H14.0917H14.0846H14.0774H14.0702H14.063H14.0557H14.0484H14.041H14.0337H14.0263H14.0189H14.0114H14.0039H13.9964H13.9889H13.9813H13.9737H13.9661H13.9584H13.9507H13.943H13.9353H13.9275H13.9197H13.9118H13.904H13.8961H13.8882H13.8802H13.8723H13.8643H13.8562H13.8482H13.8401H13.832H13.8238H13.8157H13.8075H13.7993H13.791H13.7828H13.7745H13.7661H13.7578H13.7494H13.741H13.7326H13.7242H13.7157H13.7072H13.6987H13.6901H13.6816H13.673H13.6644H13.6557H13.647H13.6384H13.6296H13.6209H13.6121H13.6034H13.5946H13.5857H13.5769H13.568H13.5591H13.5502H13.5412H13.5323H13.5233H13.5143H13.5053H13.4962H13.4872H13.4781H13.4689H13.4598H13.4507H13.4415H13.4323H13.4231H13.4138H13.4046H13.3953H13.386H13.3767H13.3674H13.358H13.3487H13.3393H13.3299H13.3204H13.311H13.3015H13.292H13.2825H13.273H13.2635H13.2539H13.2444H13.2348H13.2252H13.2155H13.2059H13.1962H13.1866H13.1769H13.1672H13.1575H13.1477H13.138H13.1282H13.1184H13.1086H13.0988H13.089H13.0791H13.0693H13.0594H13.0495H13.0396H13.0297H13.0197H13.0098H12.9998H12.9898H12.9799H12.9699H12.9598H12.9498H12.9398H12.9297H12.9196H12.9096H12.8995H12.8894H12.8792H12.8691H12.859H12.8488H12.8387H12.8285H12.8183H12.8081H12.7979H12.7877H12.7774H12.7672H12.7569H12.7467H12.7364H12.7261H12.7158H12.7055H12.6952H12.6849H12.6746H12.6642H12.6539H12.6435H12.6331H12.6228H12.6124H12.602H12.5916H12.5812H12.5708H12.5603H12.5499H12.5395H12.529H12.5186H12.5081H12.4976H12.4872H12.4767H12.4662H12.4557H12.4452H12.4347H12.4242H12.4137H12.4032H12.3926H12.3821H12.3716H12.361H12.3505H12.3399H12.3293H12.3188H12.3082H12.2976H12.2871H12.2765H12.2659H12.2553H12.2447H12.2341H12.2235H12.2129H12.2023H12.1917H12.1811H12.1705H12.1599H12.1493H12.1387H12.1281H12.1174H12.1068H12.0962H12.0856H12.075H12.0643H12.0537H12.0431H12.0324H12.0218H12.0112H12.0006H11.9899H11.9793H11.9687H11.958H11.9474H11.9368H11.9262H11.9155H11.9049H11.8943H11.8837H11.873H11.8624H11.8518H11.8412H11.8306H11.82H11.8094H11.7988H11.7882H11.7776H11.767H11.7564H11.7458H11.7352H11.7246H11.714H11.7035H11.6929H11.6823H11.6718H11.6612H11.6507H11.6401H11.6296H11.619H11.6085H11.598H11.5874H11.5769H11.5664H11.5559H11.5454H11.5349H11.5244H11.5139H11.5035H11.493H11.4825H11.4721H11.4616H11.4512H11.4408H11.4303H11.4199H11.4095H11.3991H11.3887H11.3783H11.368H11.3576H11.3472H11.3369H11.3266H11.3162H11.3059H11.2956H11.2853H11.275H11.2647H11.2544H11.2442H11.2339H11.2237H11.2134H11.2032H11.193H11.1828H11.1726H11.1625H11.1523H11.1421H11.132H11.1219H11.1118H11.1016H11.0916H11.0815H11.0714H11.0613H11.0513H11.0413H11.0313H11.0213H11.0113H11.0013H10.9913H10.9814H10.9715H10.9615H10.9516H10.9417H10.9319H10.922H10.9122H10.9023H10.8925H10.8827H10.8729H10.8631H10.8534H10.8437H10.8339H10.8242H10.8145H10.8049H10.7952H10.7856H10.7759H10.7663H10.7568H10.7472H10.7376H10.7281H10.7186H10.7091H10.6996H10.6901H10.6807H10.6713H10.6618H10.6525H10.6431H10.6337H10.6244H10.6151H10.6058H10.5965H10.5873H10.578H10.5688H10.5596H10.5505H10.5413H10.5322H10.5231H10.514H10.5049H10.4958H10.4868H10.4778H10.4688H10.4599H10.4509H10.442H10.4331H10.4242H10.4154H10.4066H10.3978H10.389H10.3802H10.3715H10.3628H10.3541H10.3454H10.3368H10.3281H10.3196H10.311H10.3024H10.2939H10.2854H10.2769H10.2685H10.2601H10.2517H10.2433H10.235H10.2266H10.2184H10.2101H10.2018H10.1936H10.1854H10.1773H10.1691H10.161H10.1529H10.1449H10.1369H10.1289H10.1209H10.1129H10.105H10.0971H10.0893H10.0814H10.0736H10.0659H10.0581H10.0504H10.0427H10.035H10.0274H10.0198H10.0122H10.0047H9.99718H9.9897H9.98224H9.97482H9.96743H9.96007H9.95273H9.94543H9.93816H9.93093H9.92372H9.91654H9.9094H9.90229H9.89521H9.88816H9.88114H9.87416H9.8672H9.86028H9.8534H9.84654H9.83972H9.83293H9.82618H9.81946H9.81277H9.80612H9.7995H9.79291H9.78636H9.77984H9.77336H9.76691H9.7605H9.75412H9.74777H9.74146H9.73519H9.72895H9.72275H9.71658H9.71045H9.70435H9.69829H9.69227H9.68628H9.68033C9.26396 15.3915 8.86358 15.5491 8.55574 15.8341L8.55463 15.8351C8.3751 16.0006 8.2338 16.2063 8.14147 16.4376C7.98786 16.8222 7.55149 17.0096 7.16681 16.856C6.78214 16.7023 6.59482 16.266 6.74843 15.8813C6.92247 15.4454 7.19093 15.0524 7.53724 14.7329Z" fill="#1E2134"/>
</svg>
