<svg width="24" height="24" viewBox="0 0 24 24" fill="none" xmlns="http://www.w3.org/2000/svg">
<path fill-rule="evenodd" clip-rule="evenodd" d="M3.74625 4.99705C3.74625 4.30623 4.30626 3.74622 4.99708 3.74622H16.0017C16.6925 3.74622 17.2525 4.30623 17.2525 4.99705V7.9983C17.2525 8.41251 17.5883 8.7483 18.0025 8.7483C18.4167 8.7483 18.7525 8.41251 18.7525 7.9983V4.99705C18.7525 3.47781 17.5209 2.24622 16.0017 2.24622H4.99708C3.47784 2.24622 2.24625 3.47781 2.24625 4.99705V19.0029C2.24625 20.5221 3.47784 21.7537 4.99708 21.7537H7.99833C8.41254 21.7537 8.74833 21.4179 8.74833 21.0037C8.74833 20.5895 8.41254 20.2537 7.99833 20.2537H4.99708C4.30626 20.2537 3.74625 19.6937 3.74625 19.0029V4.99705ZM18.331 14.8783L17.9543 15.1786L20.9392 17.7047L20.9402 17.7055C21.5959 18.2576 21.8895 19.1291 21.7013 19.9655C21.513 20.8023 20.874 21.4643 20.0444 21.682C19.2151 21.8997 18.3337 21.637 17.7588 21.0011L17.758 21.0003L15.084 18.0559L14.8606 18.3339C14.5128 18.77 13.9956 19.0371 13.4386 19.0681C12.881 19.0991 12.3367 18.8904 11.9427 18.4946L11.9426 18.4945L10.8279 17.3748L10.8275 17.3744C10.4321 16.9781 10.2239 16.4324 10.2547 15.8735C10.2855 15.3143 10.5526 14.7947 10.9894 14.4442L10.9915 14.4426L12.4568 13.2753L12.4571 13.2751L12.4571 13.2751C12.763 13.0311 13.0412 12.7543 13.2868 12.4497L13.2869 12.4496L14.466 10.9867C14.8137 10.5509 15.3308 10.2839 15.8876 10.253C16.4452 10.222 16.9896 10.4307 17.3836 10.8266L17.3847 10.8277L18.4941 11.9471L18.4952 11.9482C18.8902 12.3443 19.0983 12.8896 19.0675 13.4481C19.0366 14.0072 18.7694 14.5268 18.3326 14.877L18.331 14.8783ZM16.2979 14.5808L16.3141 14.5679L17.3943 13.7068L17.3949 13.7063C17.4988 13.6227 17.5624 13.4988 17.5697 13.3656C17.5771 13.2321 17.5273 13.1018 17.4328 13.0072L17.4308 13.0051L16.3204 11.8848L16.32 11.8843C16.228 11.7921 16.1009 11.7435 15.9708 11.7507C15.8405 11.7579 15.7194 11.8205 15.6382 11.9227L15.6352 11.9264L15.6352 11.9264L14.4547 13.391L14.4547 13.391C14.1402 13.7812 13.7838 14.1357 13.392 14.4481L12.9244 13.8618L13.3917 14.4483L11.9281 15.6142L11.9273 15.6148C11.8233 15.6986 11.7597 15.8226 11.7524 15.956C11.745 16.0897 11.7949 16.2203 11.8895 16.3151L11.8902 16.3158L13.0057 17.4363L13.0058 17.4363C13.0978 17.5289 13.2251 17.5776 13.3554 17.5704C13.4857 17.5632 13.6068 17.5006 13.688 17.3984L13.6904 17.3955L13.6904 17.3955L14.4563 16.4427C14.4614 16.4361 14.4666 16.4296 14.4719 16.4232L14.8669 15.9319L14.8671 15.9315C15.1815 15.5409 15.538 15.1863 15.9303 14.874L15.9305 14.8738L15.9307 14.8736L16.2979 14.5808ZM16.0357 16.872L16.0354 16.8724L18.8698 19.9934L18.8712 19.9949C19.0705 20.2155 19.3761 20.3066 19.6636 20.2312C19.9511 20.1557 20.1726 19.9263 20.2379 19.6362C20.3031 19.3462 20.2013 19.044 19.9738 18.8527L19.972 18.8512L16.76 16.1329C16.4953 16.3549 16.2528 16.6023 16.036 16.8717L16.0359 16.8718L16.0357 16.872ZM6.24792 7.99838C6.24792 7.58416 6.58371 7.24838 6.99792 7.24838H13.0004C13.4146 7.24838 13.7504 7.58416 13.7504 7.99838C13.7504 8.41259 13.4146 8.74838 13.0004 8.74838H6.99792C6.58371 8.74838 6.24792 8.41259 6.24792 7.99838ZM6.99792 11.25C6.58371 11.25 6.24792 11.5858 6.24792 12C6.24792 12.4142 6.58371 12.75 6.99792 12.75H8.99876C9.41297 12.75 9.74876 12.4142 9.74876 12C9.74876 11.5858 9.41297 11.25 8.99876 11.25H6.99792ZM11.923 20.2337C11.5088 20.2337 11.173 20.5695 11.173 20.9837C11.173 21.3979 11.5088 21.7337 11.923 21.7337H13.9238C14.338 21.7337 14.6738 21.3979 14.6738 20.9837C14.6738 20.5695 14.338 20.2337 13.9238 20.2337H11.923Z" fill="#1E2134"/>
</svg>
