<svg width="24" height="24" viewBox="0 0 24 24" fill="none" xmlns="http://www.w3.org/2000/svg">
<path fill-rule="evenodd" clip-rule="evenodd" d="M8.75 4C8.75 3.86221 8.86221 3.75 9 3.75H20C20.1378 3.75 20.25 3.86221 20.25 4V6C20.25 6.13779 20.1378 6.25 20 6.25H9C8.86221 6.25 8.75 6.13779 8.75 6V5V4ZM7.25 5.75V6C7.25 6.96621 8.03379 7.75 9 7.75H20C20.9662 7.75 21.75 6.96621 21.75 6V4C21.75 3.03379 20.9662 2.25 20 2.25H9C8.03379 2.25 7.25 3.03379 7.25 4V4.25H3.75V3C3.75 2.58579 3.41421 2.25 3 2.25C2.58579 2.25 2.25 2.58579 2.25 3V5V12V18C2.25 18.9662 3.03379 19.75 4 19.75H7.25V20C7.25 20.9662 8.03379 21.75 9 21.75H20C20.9662 21.75 21.75 20.9662 21.75 20V18C21.75 17.0338 20.9662 16.25 20 16.25H9C8.03379 16.25 7.25 17.0338 7.25 18V18.25H4C3.86221 18.25 3.75 18.1378 3.75 18V12.75H7.25V13C7.25 13.9662 8.03379 14.75 9 14.75H20C20.9662 14.75 21.75 13.9662 21.75 13V11C21.75 10.0338 20.9662 9.25 20 9.25H9C8.03379 9.25 7.25 10.0338 7.25 11V11.25H3.75V5.75H7.25ZM8.75 19V20C8.75 20.1378 8.86221 20.25 9 20.25H20C20.1378 20.25 20.25 20.1378 20.25 20V18C20.25 17.8622 20.1378 17.75 20 17.75H9C8.86221 17.75 8.75 17.8622 8.75 18V19ZM8.75 12V13C8.75 13.1378 8.86221 13.25 9 13.25H20C20.1378 13.25 20.25 13.1378 20.25 13V11C20.25 10.8622 20.1378 10.75 20 10.75H9C8.86221 10.75 8.75 10.8622 8.75 11V12Z" fill="#1E2134"/>
</svg>
