<svg width="24" height="24" viewBox="0 0 24 24" fill="none" xmlns="http://www.w3.org/2000/svg">
<path fill-rule="evenodd" clip-rule="evenodd" d="M6 2.25C3.92893 2.25 2.25 3.92893 2.25 6V9C2.25 9.41421 2.58579 9.75 3 9.75C3.41421 9.75 3.75 9.41421 3.75 9V6C3.75 4.75736 4.75736 3.75 6 3.75H11C11.4142 3.75 11.75 3.41421 11.75 3C11.75 2.58579 11.4142 2.25 11 2.25H6ZM21.75 13C21.75 12.5858 21.4142 12.25 21 12.25C20.5858 12.25 20.25 12.5858 20.25 13V18C20.25 19.2426 19.2426 20.25 18 20.25H17C16.5858 20.25 16.25 20.5858 16.25 21C16.25 21.4142 16.5858 21.75 17 21.75H18C20.0711 21.75 21.75 20.0711 21.75 18V13ZM17 3.75C15.2051 3.75 13.75 5.20507 13.75 7C13.75 8.79493 15.2051 10.25 17 10.25C18.7949 10.25 20.25 8.79493 20.25 7C20.25 5.20507 18.7949 3.75 17 3.75ZM12.25 7C12.25 4.37665 14.3766 2.25 17 2.25C19.6234 2.25 21.75 4.37665 21.75 7C21.75 9.62335 19.6234 11.75 17 11.75C14.3766 11.75 12.25 9.62335 12.25 7ZM18.7695 7.04091C19.0683 6.75397 19.0778 6.27919 18.7909 5.98046C18.504 5.68173 18.0292 5.67216 17.7305 5.95909L16.688 6.96042L16.2692 6.55874C15.9702 6.27201 15.4955 6.2819 15.2087 6.58083C14.922 6.87977 14.9319 7.35454 15.2308 7.64126L16.1691 8.54126C16.4594 8.81972 16.9177 8.81956 17.2078 8.54091L18.7695 7.04091ZM8 11.75C7.0335 11.75 6.25 12.5335 6.25 13.5C6.25 14.4665 7.0335 15.25 8 15.25C8.9665 15.25 9.75 14.4665 9.75 13.5C9.75 12.5335 8.9665 11.75 8 11.75ZM4.75 13.5C4.75 11.7051 6.20507 10.25 8 10.25C9.79493 10.25 11.25 11.7051 11.25 13.5C11.25 15.2949 9.79493 16.75 8 16.75C6.20507 16.75 4.75 15.2949 4.75 13.5ZM5.5 17.75C3.70507 17.75 2.25 19.2051 2.25 21C2.25 21.4142 2.58579 21.75 3 21.75C3.41421 21.75 3.75 21.4142 3.75 21C3.75 20.0335 4.5335 19.25 5.5 19.25H10.5C11.4665 19.25 12.25 20.0335 12.25 21C12.25 21.4142 12.5858 21.75 13 21.75C13.4142 21.75 13.75 21.4142 13.75 21C13.75 19.2051 12.2949 17.75 10.5 17.75H5.5Z" fill="#1E2134"/>
</svg>
