<svg width="24" height="24" viewBox="0 0 24 24" fill="none" xmlns="http://www.w3.org/2000/svg">
<g clip-path="url(#clip0_40753_10347)">
<path d="M11.4 20.84H7.06C5.90274 20.8374 4.79378 20.3758 3.97641 19.5565C3.15903 18.7373 2.7 17.6273 2.7 16.47V12.25" stroke="currentColor" stroke-width="1.4" stroke-linecap="round" stroke-linejoin="round"/>
<path d="M12.38 2.69995H16.47C17.6273 2.69995 18.7373 3.15898 19.5565 3.97636C20.3758 4.79373 20.8374 5.90269 20.84 7.05995V11.42" stroke="currentColor" stroke-width="1.4" stroke-linecap="round" stroke-linejoin="round"/>
<path d="M6.81 11.0699C8.986 11.0699 10.75 9.30594 10.75 7.12994C10.75 4.95394 8.986 3.18994 6.81 3.18994C4.634 3.18994 2.87 4.95394 2.87 7.12994C2.87 9.30594 4.634 11.0699 6.81 11.0699Z" stroke="currentColor" stroke-width="1.4" stroke-miterlimit="10"/>
<path d="M16.95 20.84C19.0708 20.84 20.79 19.1208 20.79 17C20.79 14.8793 19.0708 13.16 16.95 13.16C14.8292 13.16 13.11 14.8793 13.11 17C13.11 19.1208 14.8292 20.84 16.95 20.84Z" stroke="currentColor" stroke-width="1.4" stroke-linecap="round" stroke-linejoin="round"/>
</g>
<defs>
<clipPath id="clip0_40753_10347">
<rect width="19.54" height="19.54" fill="white" transform="translate(2 2)"/>
</clipPath>
</defs>
</svg>
