<svg width="24" height="24" viewBox="0 0 24 24" fill="none" xmlns="http://www.w3.org/2000/svg">
<path fill-rule="evenodd" clip-rule="evenodd" d="M9.23787 1.46338C9.23787 1.04917 8.90208 0.713379 8.48787 0.713379C8.07366 0.713379 7.73787 1.04917 7.73787 1.46338V4.22554H5.97571C4.45693 4.22554 3.22571 5.45676 3.22571 6.97554V17.0242C3.22571 18.543 4.45693 19.7742 5.97571 19.7742L11.25 19.7742V22.5364C11.25 22.9506 11.5858 23.2864 12 23.2864C12.4142 23.2864 12.75 22.9506 12.75 22.5364V19.7742L18.0244 19.7742C19.5431 19.7742 20.7744 18.543 20.7744 17.0242V6.97554C20.7744 5.45676 19.5431 4.22554 18.0244 4.22554H16.2622L16.2622 1.46338C16.2622 1.04917 15.9264 0.713379 15.5122 0.713379C15.098 0.713379 14.7622 1.04917 14.7622 1.46338L14.7622 4.22554H12.75V1.46338C12.75 1.04917 12.4142 0.713379 12 0.713379C11.5858 0.713379 11.25 1.04917 11.25 1.46338V4.22554H9.23787V1.46338ZM4.72571 6.97554C4.72571 6.28519 5.28535 5.72554 5.97571 5.72554H8.48787H12H15.5122H18.0244C18.7147 5.72554 19.2744 6.28519 19.2744 6.97554V17.0242C19.2744 17.7146 18.7147 18.2742 18.0244 18.2742L12 18.2742L5.97571 18.2742C5.28535 18.2742 4.72571 17.7146 4.72571 17.0242V6.97554ZM12 7.58496C9.64613 7.58496 7.73785 9.4932 7.73785 11.8471V12.1526C7.73785 14.5065 9.64612 16.4147 12 16.4147C14.3539 16.4147 16.2622 14.5065 16.2622 12.1526V11.8471C16.2622 9.4932 14.3539 7.58496 12 7.58496ZM9.23785 11.8471C9.23785 10.3216 10.4745 9.08496 12 9.08496C13.5255 9.08496 14.7622 10.3216 14.7622 11.8471V12.1526C14.7622 13.678 13.5255 14.9147 12 14.9147C10.4746 14.9147 9.23785 13.678 9.23785 12.1526V11.8471Z" fill="#1E2134"/>
</svg>
