<svg width="24" height="24" viewBox="0 0 24 24" fill="none" xmlns="http://www.w3.org/2000/svg">
<path fill-rule="evenodd" clip-rule="evenodd" d="M2.25 8C2.25 4.82436 4.82436 2.25 8 2.25H16C19.1756 2.25 21.75 4.82436 21.75 8V16C21.75 19.1756 19.1756 21.75 16 21.75H8C4.82436 21.75 2.25 19.1756 2.25 16V8ZM8 3.75C5.65279 3.75 3.75 5.65279 3.75 8V16C3.75 18.3472 5.65279 20.25 8 20.25H16C18.3472 20.25 20.25 18.3472 20.25 16V8C20.25 5.65279 18.3472 3.75 16 3.75H8ZM14.191 9.79926C14.71 9.24445 15 8.51218 15 7.75C15 6.92157 14.3284 6.25 13.5 6.25H10.5C9.67157 6.25 9 6.92157 9 7.75C9 8.54237 9.3072 9.263 9.80899 9.79927C7.92627 10.7209 6.66523 12.6893 6.75005 14.9159C6.75869 16.4825 8.0313 17.7499 9.59995 17.75H9.60001H14.4H14.4001C15.9687 17.7499 17.2413 16.4825 17.25 14.9159C17.3348 12.6893 16.0737 10.7209 14.191 9.79926ZM12 10.7509C9.83526 10.8648 8.16101 12.6994 8.24939 14.8695C8.2498 14.8796 8.25001 14.8898 8.25001 14.8999C8.25007 15.6455 8.85444 16.2499 9.60001 16.25L12 10.7509ZM12 10.7509C14.1648 10.8648 15.839 12.6994 15.7506 14.8695C15.7502 14.8796 15.75 14.8898 15.75 14.8999C15.75 15.6455 15.1456 16.2499 14.4 16.25H14.4H9.60007L12 10.7509ZM10.5 7.75H13.5C13.5 8.14782 13.342 8.52936 13.0607 8.81066C12.7794 9.09196 12.3978 9.25 12 9.25C11.1716 9.25 10.5 8.57843 10.5 7.75Z" fill="#1E2134"/>
</svg>
