<svg width="24" height="24" viewBox="0 0 24 24" fill="none" xmlns="http://www.w3.org/2000/svg">
<path fill-rule="evenodd" clip-rule="evenodd" d="M11.5 2.75C11.0862 2.75 10.75 3.08621 10.75 3.5V5.5V12C10.75 12.4142 10.4142 12.75 10 12.75C9.58579 12.75 9.25 12.4142 9.25 12V5.5C9.25 5.08621 8.91379 4.75 8.5 4.75C8.08621 4.75 7.75 5.08621 7.75 5.5V7.5V12C7.75 12.4142 7.41421 12.75 7 12.75C6.58579 12.75 6.25 12.4142 6.25 12V7.5C6.25 7.08621 5.91379 6.75 5.5 6.75C5.08621 6.75 4.75 7.08621 4.75 7.5V11V16C4.75 18.8998 7.10021 21.25 10 21.25H11.789C13.544 21.25 15.183 20.3725 16.157 18.912L16.157 18.9119L19.669 13.644L19.6691 13.6437C19.8816 13.3252 19.8398 12.9005 19.5687 12.6293C19.2546 12.3152 18.7454 12.3152 18.4313 12.6293L16.5303 14.5303C16.3158 14.7448 15.9932 14.809 15.713 14.6929C15.4327 14.5768 15.25 14.3033 15.25 14V11V5.5C15.25 5.08621 14.9138 4.75 14.5 4.75C14.0862 4.75 13.75 5.08621 13.75 5.5V12C13.75 12.4142 13.4142 12.75 13 12.75C12.5858 12.75 12.25 12.4142 12.25 12V5.5V3.5C12.25 3.08621 11.9138 2.75 11.5 2.75ZM13.7468 3.37927C13.684 2.19314 12.7017 1.25 11.5 1.25C10.2983 1.25 9.31597 2.19314 9.25319 3.37927C9.01768 3.29557 8.76414 3.25 8.5 3.25C7.29829 3.25 6.31597 4.19314 6.25319 5.37927C6.01768 5.29557 5.76414 5.25 5.5 5.25C4.25779 5.25 3.25 6.25779 3.25 7.5V11V16C3.25 19.7282 6.27179 22.75 10 22.75H11.789C14.0459 22.75 16.153 21.6215 17.405 19.7441L17.405 19.744L20.9169 14.4763L20.917 14.476C21.5264 13.5626 21.4061 12.3455 20.6293 11.5687C19.7294 10.6688 18.2706 10.6688 17.3707 11.5687L16.75 12.1893V11V5.5C16.75 4.25779 15.7422 3.25 14.5 3.25C14.2359 3.25 13.9823 3.29557 13.7468 3.37927Z" fill="#1E2134"/>
</svg>
