<svg width="24" height="24" viewBox="0 0 24 24" fill="none" xmlns="http://www.w3.org/2000/svg">
<path d="M19.6835 15.5547C20.0281 15.394 20.4456 15.5179 20.6444 15.8516C20.843 16.1852 20.7525 16.6105 20.4471 16.8369L20.3837 16.8799L12.3837 21.6445C12.1472 21.7852 11.8525 21.7853 11.6161 21.6445L3.61609 16.8799L3.55261 16.8369C3.24732 16.6105 3.15688 16.1852 3.35535 15.8516C3.55411 15.5179 3.97166 15.394 4.31628 15.5547L4.38367 15.5908L11.9999 20.127L19.6161 15.5908L19.6835 15.5547ZM19.6835 11.3193C20.0281 11.1586 20.4456 11.2826 20.6444 11.6162C20.8431 11.9499 20.7525 12.3751 20.4471 12.6016L20.3837 12.6445L12.3837 17.4092C12.1472 17.55 11.8525 17.55 11.6161 17.4092L3.61609 12.6445L3.55261 12.6016C3.24732 12.3751 3.15669 11.9498 3.35535 11.6162C3.55409 11.2825 3.97168 11.1587 4.31628 11.3193L4.38367 11.3555L11.9999 15.8916L19.6161 11.3555L19.6835 11.3193ZM11.7069 2.30957C11.925 2.217 12.1767 2.23226 12.3837 2.35547L20.3837 7.12109C20.6105 7.2563 20.7497 7.50057 20.7499 7.76465C20.7499 8.02892 20.6107 8.27392 20.3837 8.40918L12.3837 13.1738C12.1473 13.3145 11.8524 13.3145 11.6161 13.1738L3.61609 8.40918C3.38913 8.27391 3.24989 8.02887 3.24988 7.76465C3.25002 7.5006 3.38928 7.25631 3.61609 7.12109L11.6161 2.35547L11.7069 2.30957ZM5.4657 7.76465L11.9999 11.6553L18.5331 7.76465L11.9999 3.87305L5.4657 7.76465Z" fill="#1E2134"/>
</svg>
