<svg width="24" height="24" viewBox="0 0 24 24" fill="none" xmlns="http://www.w3.org/2000/svg">
<path fill-rule="evenodd" clip-rule="evenodd" d="M6.99792 2.24634C6.58371 2.24634 6.24792 2.58212 6.24792 2.99634C6.24792 3.41055 6.58371 3.74634 6.99792 3.74634H17.0021C17.4163 3.74634 17.7521 3.41055 17.7521 2.99634C17.7521 2.58212 17.4163 2.24634 17.0021 2.24634H6.99792ZM4.74731 5.99756C4.74731 5.58334 5.0831 5.24756 5.49731 5.24756H18.5027C18.9169 5.24756 19.2527 5.58334 19.2527 5.99756C19.2527 6.41177 18.9169 6.74756 18.5027 6.74756H5.49731C5.0831 6.74756 4.74731 6.41177 4.74731 5.99756ZM4.99705 9.74882C4.30623 9.74882 3.74622 10.3088 3.74622 10.9996V12.0001C3.74622 12.4143 3.41043 12.7501 2.99622 12.7501C2.582 12.7501 2.24622 12.4143 2.24622 12.0001V10.9996C2.24622 9.4804 3.47781 8.24882 4.99705 8.24882H19.0029C20.5221 8.24882 21.7537 9.4804 21.7537 10.9996V19.003C21.7537 20.5222 20.5221 21.7538 19.0029 21.7538H14.0008C13.5866 21.7538 13.2508 21.418 13.2508 21.0038C13.2508 20.5896 13.5866 20.2538 14.0008 20.2538H19.0029C19.6937 20.2538 20.2537 19.6938 20.2537 19.003V10.9996C20.2537 10.3088 19.6937 9.74882 19.0029 9.74882H4.99705ZM7.49809 13.7505C5.42599 13.7505 3.74622 15.4303 3.74622 17.5024C3.74622 19.5745 5.42599 21.2543 7.49809 21.2543C9.57019 21.2543 11.25 19.5745 11.25 17.5024C11.25 16.5073 10.8547 15.553 10.1511 14.8494C9.44745 14.1458 8.49315 13.7505 7.49809 13.7505ZM12.75 17.5024C12.75 16.1095 12.1966 14.7737 11.2117 13.7888C10.2268 12.8038 8.89097 12.2505 7.49809 12.2505C4.59756 12.2505 2.24622 14.6019 2.24622 17.5024C2.24622 20.4029 4.59756 22.7543 7.49809 22.7543C10.3986 22.7543 12.75 20.4029 12.75 17.5024ZM8.14111 15.9847C8.14111 15.5704 7.80533 15.2347 7.39111 15.2347C6.9769 15.2347 6.64111 15.5704 6.64111 15.9847V17.7434C6.64111 18.0049 6.77731 18.2475 7.00055 18.3837L8.38313 19.227C8.73674 19.4427 9.19827 19.3309 9.41397 18.9773C9.62967 18.6237 9.51787 18.1622 9.16425 17.9465L8.14111 17.3224V15.9847Z" fill="#1E2134"/>
</svg>
