<svg width="24" height="24" viewBox="0 0 24 24" fill="none" xmlns="http://www.w3.org/2000/svg">
<path fill-rule="evenodd" clip-rule="evenodd" d="M3.05738 7.69213C3.05738 5.13241 5.13244 3.05734 7.69217 3.05734H16.3078C18.8675 3.05734 20.9426 5.13241 20.9426 7.69213V17.3848C20.9426 19.3497 19.3497 20.9426 17.3848 20.9426H15.2309C14.8167 20.9426 14.4809 21.2784 14.4809 21.6926C14.4809 22.1068 14.8167 22.4426 15.2309 22.4426H17.3848C20.1781 22.4426 22.4426 20.1781 22.4426 17.3848V7.69213C22.4426 4.30398 19.696 1.55734 16.3078 1.55734H7.69217C4.30402 1.55734 1.55738 4.30398 1.55738 7.69213V10.923C1.55738 11.3372 1.89316 11.673 2.30738 11.673C2.72159 11.673 3.05738 11.3372 3.05738 10.923V7.69213ZM11.1131 12.8117C11.028 12.7509 10.919 12.7345 10.8197 12.7676L10.8182 12.7681L3.27951 15.2612L3.27688 15.2621C3.14634 15.3047 3.05788 15.4262 3.05738 15.5635V16.9864C3.05788 17.1237 3.14634 17.2452 3.27688 17.2879L3.27951 17.2887L8.67109 19.0718C8.67838 19.0741 8.68561 19.0765 8.69279 19.079L10.8182 19.7819L10.8255 19.7843L10.8255 19.7843C10.8561 19.7948 10.8882 19.8001 10.9205 19.8L10.923 19.8C11.1019 19.8 11.2474 19.6563 11.25 19.4778V13.0725C11.2483 12.9688 11.1976 12.872 11.1131 12.8117ZM5.22494 19.512L7.55188 20.2816C7.39992 20.5663 7.13933 20.7878 6.81675 20.886C6.3132 21.0393 5.7677 20.8589 5.45479 20.4356C5.25432 20.1645 5.17715 19.8312 5.22494 19.512ZM2.81116 18.7137L3.79128 19.0379C3.59914 19.8157 3.7533 20.6573 4.24862 21.3273C4.939 22.2612 6.14255 22.6592 7.25354 22.321C8.05058 22.0784 8.67608 21.4946 8.98553 20.7557L10.3441 21.205C10.5309 21.2684 10.727 21.3005 10.9243 21.3H10.923V20.55L10.9256 21.3L10.9243 21.3C11.927 21.2993 12.742 20.4905 12.75 19.4876H12.75V19.4816V13.0683H12.75L12.75 13.0618C12.7449 12.4774 12.4605 11.9308 11.985 11.5911C11.5097 11.2516 10.9007 11.1598 10.3465 11.3442L10.3457 11.3444L2.81116 13.8362L2.80967 13.8367C2.06391 14.081 1.55894 14.7762 1.55738 15.5611L1.55738 15.5626V16.9874L1.55738 16.9889C1.55894 17.7737 2.06391 18.469 2.80967 18.7132L2.81116 18.7137Z" fill="#1E2134"/>
</svg>
