<svg width="24" height="24" viewBox="0 0 24 24" fill="none" xmlns="http://www.w3.org/2000/svg">
<path fill-rule="evenodd" clip-rule="evenodd" d="M11.9389 3.55311C10.8681 2.4823 9.13192 2.4823 8.06111 3.55311C6.99029 4.62393 6.99029 6.36007 8.06111 7.43088C9.13192 8.5017 10.8681 8.5017 11.9389 7.43088C13.0097 6.36007 13.0097 4.62393 11.9389 3.55311ZM12.9995 2.49245C11.3429 0.835849 8.65705 0.835849 7.00045 2.49245C5.34384 4.14906 5.34384 6.83494 7.00045 8.49154C8.65705 10.1481 11.3429 10.1481 12.9995 8.49154C14.6561 6.83494 14.6561 4.14906 12.9995 2.49245ZM4.10462 12.7045C5.73203 11.7569 7.86705 11.241 10 11.241C11.2892 11.241 12.5409 11.4076 13.7631 11.7831C13.7794 11.788 13.7953 11.7935 13.8109 11.7995L14.466 10.9867C14.8137 10.5509 15.3308 10.2839 15.8876 10.253C16.4452 10.222 16.9896 10.4307 17.3836 10.8266L17.3847 10.8277L18.4941 11.9471L18.4952 11.9482C18.8902 12.3443 19.0983 12.8896 19.0675 13.4481C19.0366 14.0072 18.7694 14.5268 18.3326 14.877L18.331 14.8783L17.9543 15.1786L20.9392 17.7047L20.9402 17.7055C21.5959 18.2576 21.8895 19.1291 21.7013 19.9655C21.513 20.8023 20.874 21.4643 20.0444 21.682C19.2151 21.8997 18.3337 21.637 17.7588 21.0011L17.758 21.0003L15.084 18.0559L14.8606 18.3339C14.5128 18.77 13.9956 19.0371 13.4386 19.0681C12.881 19.0991 12.3367 18.8904 11.9427 18.4946L11.9426 18.4945L10.8279 17.3748L10.8275 17.3744C10.4321 16.9781 10.2239 16.4324 10.2547 15.8735C10.2855 15.3143 10.5526 14.7947 10.9894 14.4442L10.9915 14.4426L12.4568 13.2753L12.4571 13.2751L12.4571 13.2751C12.547 13.2034 12.6346 13.1288 12.7196 13.0515C11.8437 12.8395 10.9404 12.741 10 12.741C8.08495 12.741 6.21997 13.2085 4.85938 14.0007C3.49197 14.7969 2.75 15.8392 2.75 16.983V17.983C2.75 18.1208 2.86221 18.233 3 18.233H10C10.4142 18.233 10.75 18.5688 10.75 18.983C10.75 19.3972 10.4142 19.733 10 19.733H3C2.03379 19.733 1.25 18.9492 1.25 17.983V16.983C1.25 15.1017 2.48403 13.648 4.10462 12.7045ZM16.2979 14.5808L16.3141 14.5679L17.3943 13.7068L17.3949 13.7063C17.4988 13.6227 17.5624 13.4988 17.5697 13.3656C17.5771 13.2321 17.5273 13.1018 17.4328 13.0072L17.4308 13.0051L16.3204 11.8848L16.32 11.8843C16.228 11.7921 16.1009 11.7435 15.9708 11.7507C15.8405 11.7579 15.7194 11.8205 15.6382 11.9227L15.6352 11.9264L15.6352 11.9264L14.4547 13.391L14.4547 13.391C14.1402 13.7812 13.7838 14.1357 13.392 14.4481L12.9244 13.8618L13.3917 14.4483L11.9281 15.6142L11.9273 15.6148C11.8233 15.6986 11.7597 15.8226 11.7524 15.956C11.745 16.0897 11.7949 16.2203 11.8895 16.3151L11.8902 16.3158L13.0057 17.4363L13.0058 17.4363C13.0978 17.5289 13.2251 17.5776 13.3554 17.5704C13.4857 17.5632 13.6068 17.5006 13.688 17.3984L13.6904 17.3955L14.4564 16.4425C14.4614 16.436 14.4666 16.4297 14.4718 16.4234L14.8669 15.9319L14.8671 15.9315C15.1815 15.5409 15.538 15.1863 15.9303 14.874L15.9305 14.8738L15.9307 14.8736L16.2979 14.5808ZM16.0357 16.872L16.0354 16.8724L18.8698 19.9934L18.8712 19.9949C19.0705 20.2155 19.3761 20.3066 19.6636 20.2312C19.9511 20.1557 20.1726 19.9263 20.2379 19.6362C20.3031 19.3462 20.2013 19.044 19.9738 18.8527L19.972 18.8512L16.76 16.1329C16.4953 16.3549 16.2528 16.6023 16.036 16.8717L16.0359 16.8718L16.0357 16.872ZM11.923 20.2337C11.5088 20.2337 11.173 20.5695 11.173 20.9837C11.173 21.3979 11.5088 21.7337 11.923 21.7337H13.9238C14.338 21.7337 14.6738 21.3979 14.6738 20.9837C14.6738 20.5695 14.338 20.2337 13.9238 20.2337H11.923Z" fill="#1E2134"/>
</svg>
