<svg width="24" height="24" viewBox="0 0 24 24" fill="none" xmlns="http://www.w3.org/2000/svg">
<circle cx="12" cy="9" r="3" stroke="#1E2134" stroke-width="1.5"/>
<path d="M17 18C17 15.2386 14.7614 13 12 13C9.23858 13 7 15.2386 7 18" stroke="#1E2134" stroke-width="1.5" stroke-linecap="round"/>
<path d="M17 13C18.6569 13 20 11.6569 20 10C20 8.34315 18.6569 7 17 7" stroke="#1E2134" stroke-width="1.5" stroke-linecap="round"/>
<path d="M22 18C22 15.2386 19.7614 13 17 13" stroke="#1E2134" stroke-width="1.5" stroke-linecap="round"/>
<path d="M7 13C5.34315 13 4 11.6569 4 10C4 8.34315 5.34315 7 7 7" stroke="#1E2134" stroke-width="1.5" stroke-linecap="round"/>
<path d="M2 18C2 15.2386 4.23858 13 7 13" stroke="#1E2134" stroke-width="1.5" stroke-linecap="round"/>
</svg>
