<svg width="24" height="24" viewBox="0 0 24 24" fill="none" xmlns="http://www.w3.org/2000/svg">
<path fill-rule="evenodd" clip-rule="evenodd" d="M10.907 3.25896C10.6541 3.4486 10.5678 3.65333 10.5678 3.81631C10.5678 3.97929 10.6541 4.18402 10.907 4.37366C11.1601 4.56347 11.5441 4.70305 12.0001 4.70305C12.4562 4.70305 12.8402 4.56347 13.0932 4.37366C13.3461 4.18402 13.4324 3.97929 13.4324 3.81631C13.4324 3.65333 13.3461 3.4486 13.0932 3.25896C12.8402 3.06914 12.4562 2.92957 12.0001 2.92957C11.5441 2.92957 11.1601 3.06914 10.907 3.25896ZM10.007 2.05896C10.5437 1.65639 11.2509 1.42957 12.0001 1.42957C12.7493 1.42957 13.4565 1.65639 13.9932 2.05896C14.5302 2.4617 14.9324 3.07534 14.9324 3.81631C14.9324 4.55728 14.5302 5.17092 13.9932 5.57366C13.4565 5.97623 12.7493 6.20305 12.0001 6.20305C11.2509 6.20305 10.5437 5.97623 10.007 5.57366C9.46999 5.17092 9.06779 4.55728 9.06779 3.81631C9.06779 3.07534 9.46999 2.4617 10.007 2.05896ZM10.907 9.80599C10.6541 9.99563 10.5678 10.2004 10.5678 10.3633C10.5678 10.5263 10.6541 10.7311 10.907 10.9207C11.1601 11.1105 11.5441 11.2501 12.0001 11.2501C12.4562 11.2501 12.8402 11.1105 13.0932 10.9207C13.3461 10.7311 13.4324 10.5263 13.4324 10.3633C13.4324 10.2004 13.3461 9.99563 13.0932 9.80599C12.8402 9.61618 12.4562 9.4766 12.0001 9.4766C11.5441 9.4766 11.1601 9.61618 10.907 9.80599ZM10.007 8.60599C10.5437 8.20342 11.2509 7.9766 12.0001 7.9766C12.7493 7.9766 13.4565 8.20342 13.9932 8.60599C14.5302 9.00874 14.9324 9.62237 14.9324 10.3633C14.9324 11.1043 14.5302 11.718 13.9932 12.1207C13.4565 12.5233 12.7493 12.7501 12.0001 12.7501C11.2509 12.7501 10.5437 12.5233 10.007 12.1207C9.46999 11.718 9.06779 11.1043 9.06779 10.3633C9.06779 9.62237 9.46999 9.00874 10.007 8.60599ZM17.1147 6.54427C17.1147 6.38129 17.201 6.17656 17.4539 5.98692C17.707 5.79711 18.091 5.65753 18.547 5.65753C19.0031 5.65753 19.3871 5.79711 19.6402 5.98692C19.893 6.17656 19.9793 6.38129 19.9793 6.54427C19.9793 6.70725 19.893 6.91198 19.6402 7.10162C19.3871 7.29144 19.0031 7.43101 18.547 7.43101C18.091 7.43101 17.707 7.29144 17.4539 7.10162C17.201 6.91198 17.1147 6.70725 17.1147 6.54427ZM18.547 4.15753C17.7978 4.15753 17.0906 4.38435 16.5539 4.78692C16.0169 5.18967 15.6147 5.8033 15.6147 6.54427C15.6147 7.28524 16.0169 7.89888 16.5539 8.30162C17.0906 8.7042 17.7978 8.93102 18.547 8.93102C19.2962 8.93102 20.0034 8.7042 20.5402 8.30162C21.0771 7.89888 21.4793 7.28524 21.4793 6.54427C21.4793 5.8033 21.0771 5.18967 20.5402 4.78692C20.0034 4.38435 19.2962 4.15753 18.547 4.15753ZM4.02075 6.54427C4.02075 6.38129 4.10709 6.17656 4.35994 5.98692C4.61302 5.79711 4.99703 5.65753 5.45307 5.65753C5.90912 5.65753 6.29313 5.79711 6.54621 5.98692C6.79906 6.17656 6.8854 6.38129 6.8854 6.54427C6.8854 6.70725 6.79906 6.91198 6.54621 7.10162C6.29313 7.29144 5.90912 7.43101 5.45307 7.43101C4.99703 7.43101 4.61302 7.29144 4.35994 7.10162C4.10709 6.91198 4.02075 6.70725 4.02075 6.54427ZM5.45307 4.15753C4.70386 4.15753 3.9967 4.38435 3.45994 4.78692C2.92295 5.18967 2.52075 5.8033 2.52075 6.54427C2.52075 7.28524 2.92295 7.89888 3.45994 8.30162C3.9967 8.7042 4.70386 8.93102 5.45307 8.93102C6.20229 8.93102 6.90945 8.7042 7.44621 8.30162C7.9832 7.89888 8.3854 7.28524 8.3854 6.54427C8.3854 5.8033 7.9832 5.18967 7.44621 4.78692C6.90945 4.38435 6.20229 4.15753 5.45307 4.15753ZM3.27075 10.1589C3.68497 10.1589 4.02075 10.4947 4.02075 10.9089V16.3648C4.02075 16.9073 4.32727 17.4032 4.81252 17.6459L11.25 20.8646V15.2735C11.25 14.8593 11.5857 14.5235 12 14.5235C12.4142 14.5235 12.75 14.8593 12.75 15.2735V20.8647L19.1876 17.6459C19.6728 17.4032 19.9793 16.9073 19.9793 16.3648V10.9089C19.9793 10.4947 20.3151 10.1589 20.7293 10.1589C21.1435 10.1589 21.4793 10.4947 21.4793 10.9089V16.3648C21.4793 17.4754 20.8518 18.4908 19.8584 18.9875L13.3114 22.261C12.4859 22.6737 11.5142 22.6737 10.6887 22.261L4.1417 18.9875L4.47711 18.3167L4.1417 18.9875C3.14828 18.4908 2.52075 17.4754 2.52075 16.3648V10.9089C2.52075 10.4947 2.85654 10.1589 3.27075 10.1589Z" fill="#1E2134"/>
</svg>
