<svg width="24" height="24" viewBox="0 0 24 24" fill="none" xmlns="http://www.w3.org/2000/svg">
<path fill-rule="evenodd" clip-rule="evenodd" d="M10.5 3.75C10.0858 3.75 9.75 4.08579 9.75 4.5C9.75 6.01878 10.9812 7.25 12.5 7.25H12.962C12.9944 7.24982 13.0267 7.24982 13.059 7.25H13.5C15.0188 7.25 16.25 6.01878 16.25 4.5C16.25 4.08579 15.9142 3.75 15.5 3.75H10.5ZM16.1407 7.83025C17.1212 7.05171 17.75 5.84928 17.75 4.5C17.75 3.25736 16.7426 2.25 15.5 2.25H10.5C9.25736 2.25 8.25 3.25736 8.25 4.5C8.25 5.85186 8.88118 7.0563 9.86491 7.83471C8.91293 8.20146 8.01693 8.73818 7.22439 9.43773C6.91384 9.71184 6.88431 10.1858 7.15841 10.4963C7.43252 10.8069 7.90647 10.8364 8.21702 10.5623C9.55617 9.38029 11.2519 8.75945 12.9704 8.75H13.0501C14.0459 8.75547 15.0476 8.96633 15.9904 9.39233C18.5861 10.5652 20.2532 13.1508 20.25 15.9992V16V17C20.25 18.7949 18.7949 20.25 17 20.25H13C12.5858 20.25 12.25 20.5858 12.25 21C12.25 21.4142 12.5858 21.75 13 21.75H17C19.6234 21.75 21.75 19.6234 21.75 17V16.0009V16H21L21.75 16.0009C21.7538 12.5624 19.7415 9.44116 16.608 8.02539C16.4535 7.95556 16.2977 7.89053 16.1407 7.83025ZM4.5 12.25C3.25736 12.25 2.25 13.2574 2.25 14.5V15.5C2.25 16.0763 2.46664 16.6019 2.82292 17C2.46664 17.3981 2.25 17.9237 2.25 18.5V19.5C2.25 20.7426 3.25736 21.75 4.5 21.75H8.5C9.74264 21.75 10.75 20.7426 10.75 19.5V18.5C10.75 17.9237 10.5334 17.3981 10.1771 17C10.5334 16.6019 10.75 16.0763 10.75 15.5V14.5C10.75 13.2574 9.74264 12.25 8.5 12.25H4.5ZM4.5 16.25H8.5C8.91421 16.25 9.25 15.9142 9.25 15.5V14.5C9.25 14.0858 8.91421 13.75 8.5 13.75H4.5C4.08579 13.75 3.75 14.0858 3.75 14.5V15.5C3.75 15.9142 4.08579 16.25 4.5 16.25ZM4.5 17.75C4.08579 17.75 3.75 18.0858 3.75 18.5V19.5C3.75 19.9142 4.08579 20.25 4.5 20.25H8.5C8.91421 20.25 9.25 19.9142 9.25 19.5V18.5C9.25 18.0858 8.91421 17.75 8.5 17.75H4.5Z" fill="#1E2134"/>
</svg>
