<svg width="24" height="24" viewBox="0 0 24 24" fill="none" xmlns="http://www.w3.org/2000/svg">
<circle cx="12" cy="12" r="9" stroke="#1E2134" stroke-width="1.5"/>
<path d="M16.3788 8.96506C16.0499 9.01936 15.721 9.07366 15.3921 9.12797C15.4569 9.56444 15.491 10.0535 15.4986 10.5208C15.5141 11.7121 15.3702 12.9237 14.8973 13.9522C14.413 14.9635 13.5593 15.8713 12.6718 16.6857C12.236 17.0981 11.514 17.0981 11.0782 16.6857C10.1907 15.8713 9.33695 14.9635 8.85273 13.9522C8.20186 12.5146 8.14799 10.7338 8.35786 9.12797L8.00419 9.52661C8.71909 9.30565 9.39458 9.0956 10.1137 8.7155C10.8373 8.29976 11.4883 7.86107 12.1559 7.41367L11.5722 7.3979C12.2371 7.88767 12.8786 8.34799 13.6701 8.73276C13.8861 8.83268 14.1007 8.92258 14.3157 9.00856C14.7856 9.19549 15.2504 9.36259 15.7305 9.52189C15.8338 9.20497 15.9371 8.88805 16.0404 8.57113C15.5894 8.42151 15.1294 8.25624 14.6866 8.07989C14.4835 7.99869 14.2828 7.91441 14.0904 7.82538C13.4514 7.51792 12.7882 7.0546 12.1778 6.6021L11.8916 6.38436L11.5941 6.58633C10.947 7.02069 10.2768 7.46923 9.62579 7.84264C9.07823 8.13575 8.37738 8.36773 7.72489 8.56641L7.42252 8.65436L7.37122 8.96506C7.14232 10.7763 7.17151 12.6209 7.9458 14.3734C8.55139 15.6212 9.46578 16.5556 10.4058 17.426C11.187 18.1774 12.563 18.1774 13.3442 17.426C14.2842 16.5556 15.1986 15.6212 15.8042 14.3734C16.3724 13.1273 16.512 11.7963 16.4984 10.5052C16.489 9.99117 16.4575 9.49645 16.3788 8.96506ZM15.3921 9.12797L16.3788 8.96506L16.3293 8.6653L16.0404 8.57113L15.7305 9.52189L15.3921 9.12797Z" fill="#1E2134"/>
<path d="M10.0435 12.5868L10.8861 13.4295C11.2784 13.8218 11.9151 13.8197 12.3049 13.4249L14.0403 11.6671" stroke="#1E2134" stroke-linecap="round"/>
</svg>
