<svg width="24" height="24" viewBox="0 0 24 24" fill="none" xmlns="http://www.w3.org/2000/svg">
<path fill-rule="evenodd" clip-rule="evenodd" d="M8.06111 3.55311C9.13192 2.4823 10.8681 2.4823 11.9389 3.55311C13.0097 4.62393 13.0097 6.36007 11.9389 7.43088C10.8681 8.5017 9.13192 8.5017 8.06111 7.43088C6.99029 6.36007 6.99029 4.62393 8.06111 3.55311ZM7.00045 2.49245C8.65705 0.835849 11.3429 0.835849 12.9995 2.49245C14.6561 4.14906 14.6561 6.83494 12.9995 8.49154C11.3429 10.1481 8.65705 10.1481 7.00045 8.49154C5.34384 6.83494 5.34384 4.14906 7.00045 2.49245ZM10 11.241C7.86705 11.241 5.73203 11.7569 4.10462 12.7045C2.48403 13.648 1.25 15.1017 1.25 16.983V17.983C1.25 18.9492 2.03379 19.733 3 19.733H11.9397C12.9122 21.5299 14.8138 22.75 17 22.75C20.1763 22.75 22.75 20.1751 22.75 17C22.75 13.8262 20.1788 11.2525 17.0048 11.25L17.0045 11.25C16.025 11.249 15.093 11.5082 14.2754 11.961C12.9678 11.4928 11.4877 11.241 10 11.241ZM13.07 18.621C13.0929 18.6625 13.112 18.7064 13.1268 18.7522C13.7943 20.2255 15.2777 21.25 17 21.25H17.0006C19.348 21.2497 21.25 19.3467 21.25 17C21.25 14.6542 19.3498 12.7521 17.0042 12.75L17.0035 12.75H17.0032C16.2337 12.7491 15.501 12.9703 14.8673 13.3513C14.805 13.4078 14.734 13.4531 14.6576 13.4857C13.5199 14.2609 12.75 15.5663 12.75 17C12.75 17.5741 12.8638 18.1215 13.07 18.621ZM11.25 17C11.25 15.506 11.8551 14.1228 12.8286 13.0877C11.9366 12.8625 10.9734 12.741 10 12.741C8.08495 12.741 6.21997 13.2085 4.85938 14.0007C3.49197 14.7969 2.75 15.8392 2.75 16.983V17.983C2.75 18.1208 2.86221 18.233 3 18.233H11.3825C11.2957 17.8358 11.25 17.4232 11.25 17ZM17.7803 14.2197C17.4874 13.9268 17.0126 13.9268 16.7197 14.2197L14.7197 16.2197C14.579 16.3603 14.5 16.5511 14.5 16.75V18.75C14.5 19.1642 14.8358 19.5 15.25 19.5H17.25C17.4489 19.5 17.6397 19.421 17.7803 19.2803L19.7803 17.2803C20.0732 16.9874 20.0732 16.5126 19.7803 16.2197L17.7803 14.2197ZM16 18V17.0607L17.25 15.8107L18.1893 16.75L16.9393 18H16Z" fill="#1E2134"/>
</svg>
