<svg width="24" height="24" viewBox="0 0 24 24" fill="none" xmlns="http://www.w3.org/2000/svg">
<path fill-rule="evenodd" clip-rule="evenodd" d="M11.9389 3.55311C10.8681 2.4823 9.13192 2.4823 8.06111 3.55311C6.99029 4.62393 6.99029 6.36007 8.06111 7.43088C9.13192 8.5017 10.8681 8.5017 11.9389 7.43088C13.0097 6.36007 13.0097 4.62393 11.9389 3.55311ZM12.9995 2.49245C11.3429 0.835849 8.65705 0.835849 7.00045 2.49245C5.34384 4.14906 5.34384 6.83494 7.00045 8.49154C8.65705 10.1481 11.3429 10.1481 12.9995 8.49154C14.6561 6.83494 14.6561 4.14906 12.9995 2.49245ZM11.1993 16.1256C11.1993 17.3481 11.9969 18.3842 13.1002 18.742L14.0026 21.0189C14.3271 21.8379 15.1188 22.3757 15.9997 22.3757C16.7104 22.3756 17.3751 22.0241 17.7752 21.4367C18.1753 20.8493 18.259 20.102 17.9987 19.4407L17.7815 18.8889L20.1108 20.1603C20.653 20.4562 21.3111 20.4444 21.8423 20.1292C22.3735 19.8139 22.6992 19.2419 22.6992 18.6242V12.6271C22.6992 12.0093 22.3735 11.4374 21.8423 11.1221C21.3111 10.8069 20.653 10.795 20.1108 11.091L17.7573 12.3756H15.3006C13.5991 11.5807 11.8403 11.241 10 11.241C7.86705 11.241 5.73203 11.7569 4.10462 12.7045C2.48403 13.648 1.25 15.1017 1.25 16.983V17.983C1.25 18.9492 2.03379 19.733 3 19.733H10C10.4142 19.733 10.75 19.3972 10.75 18.983C10.75 18.5688 10.4142 18.233 10 18.233H3C2.86221 18.233 2.75 18.1208 2.75 17.983V16.983C2.75 15.8392 3.49197 14.7969 4.85938 14.0007C6.21997 13.2085 8.08495 12.741 10 12.741C10.7773 12.741 11.5303 12.8082 12.2645 12.952C11.6164 13.4551 11.1993 14.2416 11.1993 15.1256V16.1256ZM15.397 20.4662L14.7666 18.8756H16.1643L16.6029 19.99C16.6814 20.1896 16.6562 20.4151 16.5354 20.5923C16.4147 20.7696 16.2141 20.8757 15.9997 20.8757C15.7339 20.8757 15.495 20.7134 15.397 20.4662ZM16.6602 17.3756C16.6701 17.3754 16.6799 17.3754 16.6896 17.3756H17.1993V13.8756H13.9493C13.2589 13.8756 12.6993 14.4352 12.6993 15.1256V16.1256C12.6993 16.7356 13.1362 17.2435 13.7142 17.3535C13.7471 17.3562 13.7797 17.3611 13.8118 17.3681C13.8569 17.3731 13.9028 17.3756 13.9493 17.3756H16.6602ZM20.8294 18.8436L18.6993 17.6809V13.5703L20.8294 12.4076C20.9069 12.3653 21.0009 12.367 21.0768 12.4121C21.1527 12.4571 21.1992 12.5388 21.1992 12.6271V18.6242C21.1992 18.7124 21.1527 18.7942 21.0768 18.8392C21.0009 18.8842 20.9069 18.8859 20.8294 18.8436Z" fill="#1E2134"/>
</svg>
