<svg width="24" height="24" viewBox="0 0 24 24" fill="none" xmlns="http://www.w3.org/2000/svg">
<path fill-rule="evenodd" clip-rule="evenodd" d="M14.7273 1.25C14.1818 1.25 13.7955 1.70241 13.7955 2.19002V4.019C13.7955 5.67655 14.9527 7.09896 16.5227 7.37929V7.84323C16.5227 9.03477 15.6066 9.94359 14.5455 9.94359H3.72727C1.77597 9.94359 0.25 11.5871 0.25 13.5439V16.1093C0.25 18.0661 1.77597 19.7096 3.72727 19.7096H9.98211C10.0719 21.3767 11.4009 22.75 13.0909 22.75H13.1364C13.6818 22.75 14.0682 22.2976 14.0682 21.81V19.7078C17.9528 19.6196 21.0227 16.3101 21.0227 12.3088V7.37929C22.5928 7.09896 23.75 5.67655 23.75 4.019V2.19002C23.75 1.70241 23.3637 1.25 22.8182 1.25H21.255C20.2361 1.25 19.3228 1.77381 18.7727 2.59182C18.2227 1.77381 17.3093 1.25 16.2905 1.25H14.7273ZM15.2955 4.019V2.75H16.2905C16.9255 2.75 17.5181 3.17709 17.733 3.85499L17.8191 4.12684L17.985 4.65024H18.5341H19.0114H19.5604L19.7263 4.12684L19.8125 3.85499C20.0273 3.17709 20.62 2.75 21.255 2.75H22.25V4.019C22.25 5.10559 21.4153 5.92933 20.4545 5.92933H20.2727H19.5227V6.67933V12.3088C19.5227 15.5993 16.9786 18.2096 13.9091 18.2096H13.3182H12.5682V18.9596V21.1565C11.947 20.9285 11.4773 20.3048 11.4773 19.5297V18.9596V18.2096H10.7273H3.72727C2.66611 18.2096 1.75 17.3008 1.75 16.1093V13.5439C1.75 12.3524 2.66611 11.4436 3.72727 11.4436H14.5455C16.4968 11.4436 18.0227 9.80011 18.0227 7.84323V6.67933V5.92933H17.2727H17.0909C16.1302 5.92933 15.2955 5.10559 15.2955 4.019ZM8.22816 16.5061C8.8412 16.5061 9.33816 16.0083 9.33816 15.3943C9.33816 14.7803 8.8412 14.2826 8.22816 14.2826C7.61513 14.2826 7.11816 14.7803 7.11816 15.3943C7.11816 16.0083 7.61513 16.5061 8.22816 16.5061Z" fill="#1E2134"/>
</svg>
