<svg width="24" height="24" viewBox="0 0 24 24" fill="none" xmlns="http://www.w3.org/2000/svg">
<path d="M21 6.92794L12.3212 2.0832C12.1224 1.97227 11.8776 1.97227 11.6788 2.0832L3 6.92794M21 6.92794V16.6174C21 16.8393 20.8776 17.0443 20.6788 17.1553L12 22M21 6.92794L15.3382 10.0885M12 22L12.0001 15.6781M12 22L3.32116 17.1553C3.12242 17.0443 3 16.8393 3 16.6174V6.92794M3 6.92794L8.66194 10.0886M12.0001 15.6781C14.1285 15.6781 15.854 14.0098 15.854 11.9519C15.854 11.273 15.6662 10.6366 15.3382 10.0885M12.0001 15.6781C9.87168 15.6781 8.14625 14.0098 8.14625 11.9519C8.14625 11.2731 8.33396 10.6367 8.66194 10.0886M15.3382 10.0885C14.6718 8.97487 13.4265 8.22566 12.0001 8.22566C10.5737 8.22566 9.32832 8.97491 8.66194 10.0886" stroke="#1E2134" stroke-width="1.5" stroke-linecap="round" stroke-linejoin="round"/>
</svg>
