<svg width="24" height="24" viewBox="0 0 24 24" fill="none" xmlns="http://www.w3.org/2000/svg">
<path fill-rule="evenodd" clip-rule="evenodd" d="M6.66667 4.75C5.60799 4.75 4.75 5.60799 4.75 6.66667C4.75 7.72534 5.60799 8.58333 6.66667 8.58333H8.58333V6.66667C8.58333 5.60799 7.72534 4.75 6.66667 4.75ZM6.66667 3.25C4.77956 3.25 3.25 4.77956 3.25 6.66667C3.25 8.55377 4.77956 10.0833 6.66667 10.0833H8.58335V13.9167H6.66667C4.77956 13.9167 3.25 15.4462 3.25 17.3333C3.25 19.2204 4.77956 20.75 6.66667 20.75C8.55377 20.75 10.0833 19.2204 10.0833 17.3333V15.4167H13.9167V17.3333C13.9167 19.2204 15.4463 20.75 17.3334 20.75C19.2205 20.75 20.75 19.2204 20.75 17.3333C20.75 15.4462 19.2205 13.9167 17.3334 13.9167H15.4167V10.0833H17.3334C19.2205 10.0833 20.75 8.55377 20.75 6.66667C20.75 4.77956 19.2205 3.25 17.3334 3.25C15.4463 3.25 13.9167 4.77956 13.9167 6.66667V8.58333H10.0833V6.66667C10.0833 4.77956 8.55377 3.25 6.66667 3.25ZM10.0833 10.0833V13.9167H13.9167V10.0833H10.0833ZM4.75 17.3333C4.75 16.2747 5.60799 15.4167 6.66667 15.4167H8.58333V17.3333C8.58333 18.392 7.72534 19.25 6.66667 19.25C5.60799 19.25 4.75 18.392 4.75 17.3333ZM17.3334 19.25C18.392 19.25 19.25 18.392 19.25 17.3333C19.25 16.2747 18.392 15.4167 17.3334 15.4167H15.4167V17.3333C15.4167 18.392 16.2747 19.25 17.3334 19.25ZM15.4167 6.66667C15.4167 5.60799 16.2747 4.75 17.3334 4.75C18.392 4.75 19.25 5.60799 19.25 6.66667C19.25 7.72534 18.392 8.58333 17.3334 8.58333H15.4167V6.66667Z" fill="#1E2134"/>
</svg>
