<svg width="24" height="24" viewBox="0 0 24 24" fill="none" xmlns="http://www.w3.org/2000/svg">
<path fill-rule="evenodd" clip-rule="evenodd" d="M7.75 7C7.75 5.20507 9.20507 3.75 11 3.75C12.7949 3.75 14.25 5.20507 14.25 7C14.25 8.79493 12.7949 10.25 11 10.25C9.20507 10.25 7.75 8.79493 7.75 7ZM11 2.25C8.37665 2.25 6.25 4.37665 6.25 7C6.25 9.62335 8.37665 11.75 11 11.75C13.6234 11.75 15.75 9.62335 15.75 7C15.75 4.37665 13.6234 2.25 11 2.25ZM16.75 14.25C14.817 14.25 13.25 15.817 13.25 17.75C13.25 19.683 14.817 21.25 16.75 21.25C18.683 21.25 20.25 19.683 20.25 17.75C20.25 15.817 18.683 14.25 16.75 14.25ZM11.75 17.75C11.75 14.9886 13.9886 12.75 16.75 12.75C19.5114 12.75 21.75 14.9886 21.75 17.75C21.75 20.5114 19.5114 22.75 16.75 22.75C13.9886 22.75 11.75 20.5114 11.75 17.75ZM2.25 19C2.25 16.3766 4.37665 14.25 7 14.25H10C10.4142 14.25 10.75 14.5858 10.75 15C10.75 15.4142 10.4142 15.75 10 15.75H7C5.20507 15.75 3.75 17.2051 3.75 19V20C3.75 20.4142 3.41421 20.75 3 20.75C2.58579 20.75 2.25 20.4142 2.25 20V19ZM14.9554 16.575C14.9554 16.1607 15.2912 15.825 15.7054 15.825H17.7054C18.1197 15.825 18.4554 16.1607 18.4554 16.575C18.4554 16.9892 18.1197 17.325 17.7054 17.325H15.7054C15.2912 17.325 14.9554 16.9892 14.9554 16.575ZM15.7054 18.0751C15.2912 18.0751 14.9554 18.4109 14.9554 18.8251C14.9554 19.2393 15.2912 19.5751 15.7054 19.5751H17.7054C18.1197 19.5751 18.4554 19.2393 18.4554 18.8251C18.4554 18.4109 18.1197 18.0751 17.7054 18.0751H15.7054Z" fill="#1E2134"/>
</svg>
