<svg width="24" height="24" viewBox="0 0 24 24" fill="none" xmlns="http://www.w3.org/2000/svg">
<path fill-rule="evenodd" clip-rule="evenodd" d="M10.0001 4.75C7.71069 4.75 5.84902 6.61518 5.84902 8.92308C5.84902 11.231 7.71069 13.0962 10.0001 13.0962C12.2895 13.0962 14.1512 11.231 14.1512 8.92308C14.1512 6.61518 12.2895 4.75 10.0001 4.75ZM13.0571 13.6954C14.6184 12.6852 15.6512 10.9241 15.6512 8.92308C15.6512 5.79309 13.1243 3.25 10.0001 3.25C6.87594 3.25 4.34902 5.79309 4.34902 8.92308C4.34902 10.9239 5.38165 12.685 6.94282 13.6952C4.38385 14.7429 2.47969 17.0664 2.01036 19.8764C1.94213 20.285 2.21801 20.6715 2.62656 20.7398C3.03512 20.808 3.42163 20.5321 3.48987 20.1236C4.01422 16.9841 6.73236 14.5962 10.0001 14.5962C11.0681 14.5962 12.075 14.8505 12.966 15.3016C13.3355 15.4887 13.7868 15.3408 13.9739 14.9713C14.161 14.6017 14.0131 14.1505 13.6435 13.9634C13.4523 13.8665 13.2567 13.7771 13.0571 13.6954ZM18.4652 14.875C16.911 14.875 15.651 16.135 15.651 17.6892C15.651 19.2435 16.911 20.5034 18.4652 20.5034C19.8145 20.5034 20.9436 19.5531 21.2165 18.2847C21.3036 17.8797 21.7025 17.6221 22.1074 17.7092C22.5124 17.7963 22.77 18.1952 22.6829 18.6001C22.2645 20.5452 20.536 22.0034 18.4652 22.0034C16.0825 22.0034 14.151 20.0719 14.151 17.6892C14.151 15.3065 16.0825 13.375 18.4652 13.375C18.8853 13.375 19.2926 13.4353 19.6784 13.5481C20.0759 13.6644 20.3039 14.081 20.1876 14.4785C20.0713 14.8761 19.6547 15.1041 19.2572 14.9878C19.0069 14.9145 18.7413 14.875 18.4652 14.875ZM22.2209 15.9181C22.5138 15.6252 22.5138 15.1503 22.2209 14.8574C21.928 14.5645 21.4531 14.5645 21.1602 14.8574L18.4277 17.5899L17.646 16.8082C17.3531 16.5153 16.8782 16.5153 16.5854 16.8082C16.2925 17.1011 16.2925 17.576 16.5854 17.8689L17.8974 19.1809C18.1903 19.4738 18.6652 19.4738 18.9581 19.1809L22.2209 15.9181Z" fill="#1E2134"/>
</svg>
