<svg width="24" height="24" viewBox="0 0 24 24" fill="none" xmlns="http://www.w3.org/2000/svg">
<path fill-rule="evenodd" clip-rule="evenodd" d="M1.04608 3.43787C1.04608 3.02365 1.38187 2.68787 1.79608 2.68787H3.72508C4.07658 2.68787 4.38092 2.93197 4.4572 3.27509L4.99364 5.68787H20.0501C21.1653 5.68787 21.994 6.71569 21.7616 7.80445L21.7614 7.80521L20.2594 14.8052L20.2594 14.8053C20.0861 15.6121 19.3735 16.1879 18.5481 16.1879H7.13108C6.30618 16.1879 5.59395 15.6116 5.4208 14.8053L5.42078 14.8052L3.65936 6.59793L3.12352 4.18787H1.79608C1.38187 4.18787 1.04608 3.85208 1.04608 3.43787ZM5.32012 7.18787L6.88736 14.4904C6.91221 14.6061 7.01398 14.6879 7.13108 14.6879H18.5481C18.6666 14.6879 18.768 14.6057 18.7928 14.4905L18.7928 14.4904L20.2946 7.49128C20.3282 7.33404 20.2088 7.18787 20.0501 7.18787H5.32012ZM8.49402 17.8763C7.75276 17.8763 7.15117 18.4779 7.15833 19.2192C7.15475 19.9605 7.75634 20.562 8.4976 20.562C9.23886 20.562 9.84045 19.9605 9.84045 19.2192C9.84045 18.4779 9.23886 17.8763 8.49402 17.8763ZM15.5064 19.2192C15.4992 18.4779 16.1008 17.8763 16.8421 17.8763C17.5869 17.8763 18.1885 18.4779 18.1885 19.2192C18.1885 19.9605 17.5869 20.562 16.8457 20.562C16.1044 20.562 15.5028 19.9605 15.5064 19.2192Z" fill="#1E2134"/>
</svg>
