<svg width="24" height="24" viewBox="0 0 24 24" fill="none" xmlns="http://www.w3.org/2000/svg">
<path fill-rule="evenodd" clip-rule="evenodd" d="M8 2.25C5.92893 2.25 4.25 3.92893 4.25 6V10C4.25 10.4142 4.58579 10.75 5 10.75C5.41421 10.75 5.75 10.4142 5.75 10V6C5.75 4.75736 6.75736 3.75 8 3.75H14.75V6.5C14.75 8.01878 15.9812 9.25 17.5 9.25H20.25V18C20.25 19.2426 19.2426 20.25 18 20.25H13C12.5858 20.25 12.25 20.5858 12.25 21C12.25 21.4142 12.5858 21.75 13 21.75H18C20.0711 21.75 21.75 20.0711 21.75 18V8.50931L21.75 8.5029L21.75 8.5L21.75 8.49349C21.7458 7.50464 21.3512 6.5572 20.6516 5.85767L18.1423 3.34835C17.4431 2.6491 16.4961 2.25451 15.5077 2.25004L8 2.25ZM16.25 3.882V6.5C16.25 7.19036 16.8096 7.75 17.5 7.75H20.118L16.25 3.882ZM2.25 14.5C2.25 13.2574 3.25736 12.25 4.5 12.25H8.5C9.74264 12.25 10.75 13.2574 10.75 14.5V15.5C10.75 16.0763 10.5334 16.6019 10.1771 17C10.5334 17.3981 10.75 17.9237 10.75 18.5V19.5C10.75 20.7426 9.74264 21.75 8.5 21.75H4.5C3.25736 21.75 2.25 20.7426 2.25 19.5V18.5C2.25 17.9237 2.46664 17.3981 2.82292 17C2.46664 16.6019 2.25 16.0763 2.25 15.5V14.5ZM4.5 16.25H8.5C8.91421 16.25 9.25 15.9142 9.25 15.5V14.5C9.25 14.0858 8.91421 13.75 8.5 13.75H4.5C4.08579 13.75 3.75 14.0858 3.75 14.5V15.5C3.75 15.9142 4.08579 16.25 4.5 16.25ZM8.5 17.75H4.5C4.08579 17.75 3.75 18.0858 3.75 18.5V19.5C3.75 19.9142 4.08579 20.25 4.5 20.25H8.5C8.91421 20.25 9.25 19.9142 9.25 19.5V18.5C9.25 18.0858 8.91421 17.75 8.5 17.75Z" fill="#1E2134"/>
</svg>
