<svg width="24" height="24" viewBox="0 0 24 24" fill="none" xmlns="http://www.w3.org/2000/svg">
<path fill-rule="evenodd" clip-rule="evenodd" d="M2.25 12C2.25 6.61584 6.61473 2.25 12 2.25C15.117 2.25 17.8903 3.71308 19.674 5.98655V4.80322C19.674 4.38901 20.0098 4.05322 20.424 4.05322C20.8382 4.05322 21.174 4.38901 21.174 4.80322V7.69622C21.174 8.11044 20.8382 8.44622 20.424 8.44622H17.531C17.1168 8.44622 16.781 8.11044 16.781 7.69622C16.781 7.28201 17.1168 6.94622 17.531 6.94622H18.5204C17.0108 5.00095 14.6515 3.75 12 3.75C7.44327 3.75 3.75 7.44416 3.75 12C3.75 16.5558 7.44327 20.25 12 20.25C16.5567 20.25 20.25 16.5558 20.25 12C20.25 11.5858 20.5858 11.25 21 11.25C21.4142 11.25 21.75 11.5858 21.75 12C21.75 17.3842 17.3853 21.75 12 21.75C6.61473 21.75 2.25 17.3842 2.25 12ZM10.0553 10.0551C11.1294 8.98099 12.8706 8.98099 13.9447 10.0551C15.0188 11.1292 15.0188 12.8703 13.9447 13.9444C12.8706 15.0185 11.1294 15.0185 10.0553 13.9444C8.98123 12.8703 8.98123 11.1292 10.0553 10.0551ZM8.99468 8.99443C10.6546 7.33454 13.3454 7.33454 15.0053 8.99443C16.6652 10.6543 16.6652 13.3452 15.0053 15.0051C13.3454 16.665 10.6546 16.665 8.99468 15.0051C7.33478 13.3452 7.33478 10.6543 8.99468 8.99443Z" fill="#1E2134"/>
</svg>
