<svg width="24" height="24" viewBox="0 0 24 24" fill="none" xmlns="http://www.w3.org/2000/svg">
<path fill-rule="evenodd" clip-rule="evenodd" d="M11.9389 3.55311C10.8681 2.4823 9.13192 2.4823 8.06111 3.55311C6.99029 4.62393 6.99029 6.36007 8.06111 7.43088C9.13192 8.5017 10.8681 8.5017 11.9389 7.43088C13.0097 6.36007 13.0097 4.62393 11.9389 3.55311ZM12.9995 2.49245C11.3429 0.835849 8.65705 0.835849 7.00045 2.49245C5.34384 4.14906 5.34384 6.83494 7.00045 8.49154C8.65705 10.1481 11.3429 10.1481 12.9995 8.49154C14.6561 6.83494 14.6561 4.14906 12.9995 2.49245ZM4.10462 12.7045C5.73203 11.757 7.86705 11.241 10 11.241C11.9591 11.241 13.8621 11.6184 15.6123 12.5181L16.6383 12.2432L18.5791 10.3932C19.0262 9.96699 19.6649 9.80809 20.2597 9.97511C20.8544 10.1421 21.317 10.6103 21.4769 11.207L23.0291 16.9998C23.1889 17.5965 23.0224 18.2332 22.5909 18.6752C22.1593 19.1172 21.5267 19.299 20.9264 19.1535L18.3473 18.5282L18.6999 19.0051C19.1225 19.5765 19.2351 20.32 19.0007 20.9909C18.7663 21.6619 18.2152 22.1734 17.5287 22.3574C16.6778 22.5854 15.7739 22.2708 15.2485 21.5638L13.8879 19.733H3C2.03379 19.733 1.25 18.9492 1.25 17.983V16.983C1.25 15.1018 2.48403 13.6481 4.10462 12.7045ZM17.8573 13.1534L18.9212 17.1239L21.2798 17.6957C21.3655 17.7165 21.4559 17.6905 21.5176 17.6274C21.5792 17.5642 21.603 17.4733 21.5802 17.388L20.028 11.5952C20.0052 11.51 19.9391 11.4431 19.8541 11.4192C19.7691 11.3954 19.6779 11.4181 19.614 11.479L17.8573 13.1534ZM16.9011 17.3491C16.8915 17.3515 16.882 17.354 16.8726 17.3568L14.254 18.0584C14.2092 18.0704 14.1642 18.0798 14.1194 18.0867C14.0866 18.0883 14.0538 18.092 14.0212 18.0979C13.4345 18.1412 12.881 17.7637 12.7231 17.1745L12.4643 16.2086C12.2856 15.5418 12.6813 14.8563 13.3482 14.6777L16.4874 13.8365L17.3933 17.2172L16.9011 17.3491ZM11.5522 18.233C11.433 18.0276 11.3386 17.8032 11.2742 17.5627L11.0154 16.5968C10.6223 15.1298 11.4929 13.6219 12.9599 13.2288L13.1918 13.1666C12.1782 12.8751 11.1099 12.741 10 12.741C8.08495 12.741 6.21997 13.2086 4.85938 14.0008C3.49197 14.797 2.75 15.8393 2.75 16.983V17.983C2.75 18.1208 2.86221 18.233 3 18.233H11.5522ZM15.4318 19.2957L16.7818 18.934L17.4939 19.8969C17.6214 20.0694 17.6554 20.2937 17.5846 20.4962C17.5139 20.6986 17.3476 20.853 17.1404 20.9085C16.8837 20.9773 16.6109 20.8824 16.4524 20.669L15.4318 19.2957Z" fill="#1E2134"/>
</svg>
