<svg width="24" height="24" viewBox="0 0 24 24" fill="none" xmlns="http://www.w3.org/2000/svg">
<path d="M20.4241 13.149C20.4835 12.7061 20.5094 12.2524 20.4986 11.79C20.3895 7.25943 16.6811 3.57793 12.1495 3.50015C7.3371 3.41805 3.41802 7.33721 3.5012 12.1497C3.57898 16.6803 7.2604 20.3888 11.7909 20.4979C12.2521 20.5087 12.7069 20.4839 13.1498 20.4234C13.5927 20.3629 14.001 20.7107 14.001 21.1655C14.001 21.5415 13.7223 21.8601 13.3497 21.9098C12.4347 22.033 11.4798 22.033 10.5033 21.8915C6.21474 21.2714 2.79797 17.8999 2.12715 13.62C1.06312 6.83273 6.83263 1.0631 13.6186 2.12715C17.8985 2.79799 21.2699 6.21375 21.891 10.5023C22.0325 11.4789 22.0336 12.4338 21.9094 13.3499C21.8586 13.7226 21.541 14.0013 21.1651 14.0013C20.7103 14.0013 20.3614 13.6005 20.423 13.15L20.4241 13.149ZM15.6538 16.6879C15.8223 15.6033 16.7729 14.5122 18.1534 14.5122C19.534 14.5122 20.5278 15.4899 20.6531 16.6879H20.9145C21.3218 16.6879 21.6523 17.0184 21.6523 17.4257V20.4493C21.6523 20.8566 21.3218 21.1871 20.9145 21.1871H15.3902C14.983 21.1871 14.6524 20.8566 14.6524 20.4493V17.4257C14.6524 17.0184 14.983 16.6879 15.3902 16.6879H15.6516H15.6538ZM17.0268 16.6133H19.4368C19.4368 15.9479 18.8977 15.4089 18.2323 15.4089C17.5669 15.4089 17.0278 15.9479 17.0278 16.6133H17.0268ZM15.738 18.2143V19.6456C15.738 19.9189 15.9044 20.1404 16.1086 20.1404H20.1994C20.4036 20.1404 20.5699 19.9189 20.5699 19.6456V18.2143C20.5699 17.941 20.4036 17.7195 20.1994 17.7195H16.1086C15.9044 17.7195 15.738 17.941 15.738 18.2143ZM13.2859 9.04401L14.956 10.7141C15.6667 11.4249 15.6667 12.5764 14.956 13.2862L13.2859 14.9562C12.5751 15.667 11.4236 15.667 10.7139 14.9562L9.04386 13.2862C8.33307 12.5754 8.33307 11.4238 9.04386 10.7141L10.7139 9.04401C11.4247 8.3332 12.5762 8.3332 13.2859 9.04401ZM10.2278 12.4306L11.5694 13.7723C11.8071 14.0099 12.1917 14.0099 12.4293 13.7723L13.7709 12.4306C14.0086 12.1929 14.0086 11.8084 13.7709 11.5707L12.4293 10.229C12.1917 9.99139 11.8071 9.99139 11.5694 10.229L10.2278 11.5707C9.99014 11.8084 9.99014 12.1929 10.2278 12.4306Z" fill="#1E2134"/>
</svg>
