<svg width="24" height="24" viewBox="0 0 24 24" fill="none" xmlns="http://www.w3.org/2000/svg">
<g clip-path="url(#clip0_15853_9576)">
<path d="M-0.0637207 6.62069C-0.0637207 2.96418 2.90046 0 6.55697 0H17.3156C20.972 0 23.9363 2.96418 23.9363 6.62069V17.3793C23.9363 21.0358 20.972 24 17.3156 24H6.55697C2.90046 24 -0.0637207 21.0358 -0.0637207 17.3793V6.62069Z" fill="#171E43"/>
<path d="M7.71748 12.1832C7.91262 12.1832 8.0708 12.3304 8.0708 12.5121L8.0708 16.3822C8.0708 16.5638 7.91262 16.711 7.71748 16.711C7.52235 16.711 7.36417 16.5638 7.36417 16.3822L7.36417 12.5121C7.36417 12.3304 7.52235 12.1832 7.71748 12.1832Z" fill="#4FCCC6"/>
<path d="M5.99995 13.1016C6.19509 13.1016 6.35327 13.2488 6.35327 13.4304L6.35327 16.1787C6.35327 16.3603 6.19509 16.5076 5.99995 16.5076C5.80482 16.5076 5.64664 16.3603 5.64664 16.1787L5.64664 13.4304C5.64664 13.2488 5.80482 13.1016 5.99995 13.1016Z" fill="#4FCCC6"/>
<path d="M9.72807 12.5121C9.72807 12.3304 9.56988 12.1832 9.37475 12.1832C9.17962 12.1832 9.02143 12.3304 9.02143 12.5121V20.0713C9.02143 20.2529 9.17962 20.4001 9.37475 20.4001C9.56988 20.4001 9.72807 20.2529 9.72807 20.0713L9.72807 12.5121Z" fill="#4FCCC6"/>
<path d="M11.0019 12.7717C11.197 12.7717 11.3552 12.9189 11.3552 13.1005V15.7938C11.3552 15.9754 11.197 16.1226 11.0019 16.1226C10.8067 16.1226 10.6486 15.9754 10.6486 15.7938V13.1005C10.6486 12.9189 10.8067 12.7717 11.0019 12.7717Z" fill="#4FCCC6"/>
<path d="M13.0426 13.9379C13.0426 13.7563 12.8844 13.6091 12.6893 13.6091C12.4941 13.6091 12.336 13.7563 12.336 13.9379V14.8046C12.336 14.9862 12.4941 15.1334 12.6893 15.1334C12.8844 15.1334 13.0426 14.9862 13.0426 14.8046V13.9379Z" fill="#4FCCC6"/>
<path d="M14.3465 14.2721C14.5417 14.2721 14.6999 14.4193 14.6999 14.6009V18.5775C14.6999 18.7591 14.5417 18.9064 14.3465 18.9064C14.1514 18.9064 13.9932 18.7591 13.9932 18.5775V14.6009C13.9932 14.4193 14.1514 14.2721 14.3465 14.2721Z" fill="#4FCCC6"/>
<path d="M16.3873 14.8046C16.3873 14.623 16.2291 14.4758 16.0339 14.4758C15.8388 14.4758 15.6806 14.623 15.6806 14.8046V18.0796C15.6806 18.2612 15.8388 18.4084 16.0339 18.4084C16.2291 18.4084 16.3873 18.2612 16.3873 18.0796V14.8046Z" fill="#4FCCC6"/>
<path d="M17.7515 14.0424C17.9466 14.0424 18.1048 14.1896 18.1048 14.3712V15.975C18.1048 16.1566 17.9466 16.3038 17.7515 16.3038C17.5563 16.3038 17.3982 16.1566 17.3982 15.975V14.3712C17.3982 14.1896 17.5563 14.0424 17.7515 14.0424Z" fill="#4FCCC6"/>
<path d="M18.8466 9.97224C18.8466 10.3779 18.8059 10.7747 18.728 11.1593C15.3935 12.8152 13.8264 11.8598 12.2702 10.9111C10.6183 9.90403 8.97851 8.90442 5.24974 11.0439C5.18634 10.6955 5.15333 10.3375 5.15333 9.97224C5.15333 6.45299 8.21866 3.6001 12 3.6001C15.7812 3.6001 18.8466 6.45299 18.8466 9.97224Z" fill="#F2B705"/>
<path d="M9.3926 11.2813C8.41476 11.2109 7.15114 11.4897 5.34084 12.5445C5.17544 12.6409 4.95743 12.5942 4.85388 12.4403C4.75034 12.2863 4.80047 12.0834 4.96587 11.9871C6.8482 10.8903 8.26366 10.5404 9.44707 10.6256C11.5234 10.775 12.8488 12.5221 14.8401 12.8458C15.7745 12.9978 16.9658 12.8479 18.6771 11.9772C18.8484 11.8901 19.063 11.9487 19.1566 12.108C19.2502 12.2674 19.1873 12.4672 19.0161 12.5543C17.2119 13.4722 15.8568 13.6788 14.7185 13.4937C11.8154 12.7717 11.4102 11.4264 9.3926 11.2813Z" fill="#4FCCC6"/>
</g>
<defs>
<clipPath id="clip0_15853_9576">
<rect width="24" height="24" fill="white"/>
</clipPath>
</defs>
</svg>
