<svg width="24" height="24" viewBox="0 0 24 24" fill="none" xmlns="http://www.w3.org/2000/svg">
<g clip-path="url(#clip0_10929_2757)">
<path d="M0 6.62069C0 2.96418 2.96418 0 6.62069 0H17.3793C21.0358 0 24 2.96418 24 6.62069V17.3793C24 21.0358 21.0358 24 17.3793 24H6.62069C2.96418 24 0 21.0358 0 17.3793V6.62069Z" fill="black"/>
<path d="M20 12.4802H4.01418C4.05256 13.1279 4.16809 13.7549 4.3517 14.3522L11.2313 14.3521L11.6618 13.7601H19.8197C19.9131 13.3448 19.9741 12.9172 20 12.4802Z" fill="white"/>
<path d="M19.2978 15.3122H4.71636C5.02651 15.9926 5.42927 16.622 5.90855 17.1842L9.17188 17.1842L9.60237 16.5922H18.5644C18.8464 16.191 19.0924 15.7628 19.2978 15.3122Z" fill="white"/>
<path d="M17.1353 18.1442H6.87891C8.26802 19.3028 10.0561 20 12.0071 20C13.9581 20 15.7461 19.3028 17.1353 18.1442Z" fill="white"/>
<path d="M4.01417 11.5202C4.05252 10.8724 4.16801 10.2454 4.3516 9.64813H19.6626C19.7896 10.0615 19.8841 10.4892 19.9429 10.9281H13.7212L13.2907 11.5201L4.01417 11.5202Z" fill="white"/>
<path d="M15.3501 8.68806L15.7806 8.09606H18.9977C18.742 7.64001 18.4429 7.21155 18.106 6.81625H5.90814C5.42897 7.37848 5.02629 8.0078 4.71621 8.68813L15.3501 8.68806Z" fill="white"/>
<path d="M6.87834 5.85625H17.1358C15.7466 4.69736 13.9584 4 12.0071 4C10.0558 4 8.26753 4.69736 6.87834 5.85625Z" fill="white"/>
<path d="M4.00007 11.9652C4.00002 11.9768 4 11.9884 4 12C4 12.0116 4.00002 12.0232 4.00007 12.0348V11.9652Z" fill="white"/>
</g>
<defs>
<clipPath id="clip0_10929_2757">
<rect width="24" height="24" fill="white"/>
</clipPath>
</defs>
</svg>
