<svg width="24" height="24" viewBox="0 0 24 24" fill="none" xmlns="http://www.w3.org/2000/svg">
<g clip-path="url(#clip0_12537_5509)">
<path d="M0 6.62069C0 2.96418 2.96418 0 6.62069 0H17.3793C21.0358 0 24 2.96418 24 6.62069V17.3793C24 21.0358 21.0358 24 17.3793 24H6.62069C2.96418 24 0 21.0358 0 17.3793V6.62069Z" fill="#171E43"/>
<path d="M13.6528 4C10.8523 4 8.55252 6.27319 8.30524 9.17426C8.28088 9.46002 8.50832 9.69332 8.78599 9.69332H18.5196C18.7972 9.69332 19.0247 9.46002 19.0003 9.17426C18.753 6.27319 16.4533 4 13.6528 4Z" fill="#53CBC8"/>
<path d="M19.9292 11.3993C20.1067 11.3993 20.2506 11.2506 20.2506 11.0673C20.2506 10.8839 20.1067 10.7352 19.9292 10.7352L7.51279 10.7352C7.33528 10.7352 7.19138 10.8839 7.19138 11.0673C7.19138 11.2506 7.33528 11.3993 7.51279 11.3993L19.9292 11.3993Z" fill="#E1147B"/>
<path d="M14.0064 12.9197C14.1839 12.9197 14.3278 12.771 14.3278 12.5876C14.3278 12.4042 14.1839 12.2555 14.0064 12.2555L4.97966 12.2555C4.80215 12.2555 4.65825 12.4042 4.65825 12.5876C4.65825 12.771 4.80215 12.9197 4.97966 12.9197H14.0064Z" fill="#E1147B"/>
<path d="M18.3651 14.4397C18.5426 14.4397 18.6865 14.2911 18.6865 14.1077C18.6865 13.9243 18.5426 13.7756 18.3651 13.7756H7.51286C7.33535 13.7756 7.19145 13.9243 7.19145 14.1077C7.19145 14.2911 7.33535 14.4397 7.51286 14.4397H18.3651Z" fill="#E1147B"/>
<path d="M9.92488 15.9598C10.1024 15.9598 10.2463 15.8112 10.2463 15.6278C10.2463 15.4444 10.1024 15.2957 9.92488 15.2957H5.61992C5.44241 15.2957 5.29851 15.4444 5.29851 15.6278C5.29851 15.8112 5.44241 15.9598 5.61992 15.9598H9.92488Z" fill="#E1147B"/>
<path d="M18.5697 17.4799C18.7472 17.4799 18.8911 17.3312 18.8911 17.1479C18.8911 16.9645 18.7472 16.8158 18.5697 16.8158H13.0336C12.8561 16.8158 12.7122 16.9645 12.7122 17.1479C12.7122 17.3312 12.8561 17.4799 13.0336 17.4799H18.5697Z" fill="#E1147B"/>
<path d="M15.2213 19C15.3988 19 15.5427 18.8513 15.5427 18.6679C15.5427 18.4846 15.3988 18.3359 15.2213 18.3359H9.68521C9.5077 18.3359 9.3638 18.4846 9.3638 18.6679C9.3638 18.8513 9.5077 19 9.68521 19H15.2213Z" fill="#E1147B"/>
<path d="M20.1786 15.9598C20.3561 15.9598 20.5 15.8112 20.5 15.6278C20.5 15.4444 20.3561 15.2957 20.1786 15.2957H11.2584C11.0809 15.2957 10.937 15.4444 10.937 15.6278C10.937 15.8112 11.0809 15.9598 11.2584 15.9598H20.1786Z" fill="#E1147B"/>
<path d="M6.03314 11.0659C6.03314 10.8833 6.17646 10.7352 6.35326 10.7352C6.53006 10.7352 6.67339 10.8833 6.67339 11.0659C6.67339 11.2486 6.53006 11.3967 6.35326 11.3967C6.17646 11.3967 6.03314 11.2486 6.03314 11.0659Z" fill="#E1147B"/>
<path d="M3.5 12.5863C3.5 12.4036 3.64332 12.2555 3.82013 12.2555C3.99693 12.2555 4.14025 12.4036 4.14025 12.5863C4.14025 12.7689 3.99693 12.917 3.82013 12.917C3.64332 12.917 3.5 12.7689 3.5 12.5863Z" fill="#E1147B"/>
<path d="M6.03314 14.1064C6.03314 13.9237 6.17646 13.7756 6.35326 13.7756C6.53006 13.7756 6.67339 13.9237 6.67339 14.1064C6.67339 14.289 6.53006 14.4371 6.35326 14.4371C6.17646 14.4371 6.03314 14.289 6.03314 14.1064Z" fill="#E1147B"/>
<path d="M4.14025 15.6264C4.14025 15.4438 4.28358 15.2957 4.46038 15.2957C4.63718 15.2957 4.7805 15.4438 4.7805 15.6264C4.7805 15.8091 4.63718 15.9572 4.46038 15.9572C4.28358 15.9572 4.14025 15.8091 4.14025 15.6264Z" fill="#E1147B"/>
<path d="M11.5539 17.1465C11.5539 16.9639 11.6973 16.8158 11.8741 16.8158C12.0509 16.8158 12.1942 16.9639 12.1942 17.1465C12.1942 17.3292 12.0509 17.4773 11.8741 17.4773C11.6973 17.4773 11.5539 17.3292 11.5539 17.1465Z" fill="#E1147B"/>
<path d="M8.20552 18.6666C8.20552 18.484 8.34885 18.3359 8.52565 18.3359C8.70245 18.3359 8.84577 18.484 8.84577 18.6666C8.84577 18.8493 8.70245 18.9973 8.52565 18.9973C8.34885 18.9973 8.20552 18.8493 8.20552 18.6666Z" fill="#E1147B"/>
</g>
<defs>
<clipPath id="clip0_12537_5509">
<rect width="24" height="24" fill="white"/>
</clipPath>
</defs>
</svg>
