<svg width="24" height="24" viewBox="0 0 24 24" fill="none" xmlns="http://www.w3.org/2000/svg">
<g clip-path="url(#clip0_15853_9549)">
<path d="M-0.0637207 6.62069C-0.0637207 2.96418 2.90046 0 6.55697 0H17.3156C20.972 0 23.9363 2.96418 23.9363 6.62069V17.3793C23.9363 21.0358 20.972 24 17.3156 24H6.55697C2.90046 24 -0.0637207 21.0358 -0.0637207 17.3793V6.62069Z" fill="#11091B"/>
<path d="M14.5697 9.44456C13.9074 8.79179 13.0142 8.42674 12.0842 8.42872C12.0722 8.42872 12.0594 8.42872 12.0488 8.42872C11.1065 8.43342 10.2046 8.81226 9.54158 9.48189C8.87857 10.1515 8.50874 11.0571 8.51344 11.9994C8.51814 12.9417 8.89699 13.8436 9.56665 14.5065C10.2363 15.1695 11.1419 15.5394 12.0842 15.5347H12.1197C12.8223 15.5275 13.507 15.3121 14.0873 14.9158C14.6675 14.5195 15.1172 13.96 15.3794 13.3081C15.6417 12.6562 15.7047 11.9412 15.5606 11.2535C15.4164 10.5658 15.0716 9.93629 14.5697 9.44456Z" fill="url(#paint0_linear_15853_9549)"/>
<path d="M13.5998 9.01443C13.1833 8.90809 12.8487 8.99458 12.5768 9.27388C12.5433 9.30928 12.5118 9.34656 12.4825 9.38553C12.4117 9.47521 12.3514 9.55283 12.2139 9.58473C12.0285 9.6217 11.8385 9.62959 11.6506 9.60813C11.5968 9.59997 11.5517 9.59005 11.512 9.58083C11.372 9.54893 11.2873 9.52979 11.1197 9.68929C11.0673 9.74243 11.0198 9.8002 10.9779 9.86191C10.9034 9.96434 10.8333 10.0611 10.7181 10.1054C10.6647 10.1252 10.6087 10.1371 10.5518 10.1409L10.5366 10.1341L10.533 10.1416C10.4516 10.1436 10.3701 10.1383 10.2895 10.126C10.2261 10.1166 10.1622 10.1109 10.0981 10.109C10.1852 9.98196 10.2614 9.84786 10.326 9.70808C10.4434 9.69 10.5433 9.61309 10.6401 9.53759C10.6911 9.4956 10.7454 9.45767 10.8024 9.42417C10.9963 9.31783 11.0902 9.22745 11.2586 9.04278C11.4181 8.86804 11.5897 8.75923 11.7974 8.6497C11.9013 8.59662 11.9917 8.52034 12.0615 8.42676C12.7551 8.43172 13.4045 8.5937 13.9755 8.97083C13.9142 9.00911 13.7862 9.06122 13.5998 9.01443Z" fill="#DADADA"/>
<path d="M15.5253 11.4866C15.4762 11.4676 15.4288 11.4446 15.3835 11.4178C15.3135 11.3734 15.2359 11.3423 15.1546 11.326L14.9472 11.2243C14.6204 11.168 14.4864 11.2105 14.1564 11.118C14.0034 11.0728 13.844 11.0531 13.6846 11.0595L13.6765 11.0528L13.6704 11.0602C13.5574 11.0652 13.4436 11.0811 13.316 11.0988L13.2284 11.1112C13.193 11.1159 13.1533 11.1222 13.1083 11.1293C12.8272 11.1736 12.3561 11.2481 12.1927 11.0648L12.1835 11.0733C11.933 10.9257 11.6476 10.8478 11.3569 10.8475C10.9039 10.8475 10.7618 10.7253 10.5034 10.503C10.4594 10.4651 10.4105 10.4233 10.3566 10.3786C10.38 10.3786 10.4034 10.3786 10.4275 10.3786C10.5445 10.4191 10.6674 10.4398 10.7912 10.4399C10.8149 10.44 10.8385 10.4388 10.8621 10.4364C10.9268 10.4294 10.9871 10.4004 11.0329 10.3541C11.0534 10.3364 11.0749 10.3199 11.0974 10.3049C11.1475 10.2752 11.2052 10.2611 11.2633 10.2645C11.2885 10.2645 11.3147 10.2623 11.3431 10.2588C11.4661 10.2436 11.5526 10.1748 11.6362 10.1082C11.7138 10.0465 11.7872 9.98801 11.8868 9.97206C11.9116 9.9678 11.9368 9.96603 11.963 9.9639C12.0292 9.96437 12.0944 9.94855 12.153 9.91783C12.1846 9.89773 12.2136 9.87393 12.2395 9.84694C12.269 9.81281 12.3052 9.78507 12.3458 9.76541C12.477 9.7204 12.5355 9.61229 12.6057 9.52262C12.6368 9.48292 12.7829 9.46165 12.8222 9.4216C13.1175 9.11784 13.3539 9.00974 13.8062 9.12422C14.0366 9.182 14.1252 9.19263 14.2025 9.13627C14.5825 9.41875 14.9023 9.77435 15.1429 10.1822C15.3835 10.59 15.5402 11.0418 15.6037 11.5111C15.5771 11.5046 15.5509 11.4964 15.5253 11.4866Z" fill="#DADADA"/>
<path d="M11.0288 14.557C11.0245 14.5349 11.0223 14.5125 11.0224 14.49C11.0216 14.4378 11.0158 14.3858 11.0051 14.3348C10.9806 14.2157 10.9466 14.193 10.9037 14.1621C10.8676 14.1389 10.8365 14.1086 10.8122 14.0732C10.7697 14.008 10.7384 13.9361 10.7197 13.8605L10.7165 13.8506C10.7477 13.8702 10.7799 13.8881 10.8129 13.9045C10.8289 13.9126 10.8484 13.924 10.8732 13.9367C10.965 13.9863 11.0912 14.0551 11.155 14.0494C11.2099 14.0416 11.2598 14.0133 11.2946 13.97C11.3244 13.9403 11.4205 13.9966 11.4616 13.9892C11.5371 13.9757 11.6246 13.9537 11.7381 14.0002C11.7859 14.0197 11.8274 14.0356 11.8589 14.0466C11.9181 14.065 11.9784 14.0905 12.0362 14.1146C12.1318 14.1596 12.2327 14.1925 12.3364 14.2128C12.3942 14.2207 12.4525 14.2243 12.5108 14.2235C12.6186 14.2172 12.726 14.2399 12.822 14.2894C13.0442 14.4003 13.0921 14.4092 13.3345 14.3854C13.5164 14.3674 13.7475 14.35 13.9236 14.3787C14.0902 14.4056 14.2427 14.4833 14.3912 14.58C14.3912 14.5949 14.4135 14.6453 14.4149 14.6598C13.7999 15.2243 12.9951 15.5368 12.1602 15.5353C12.0869 15.5353 12.0142 15.5324 11.9422 15.5275C11.9091 15.4919 11.8727 15.4597 11.8334 15.4311C11.7865 15.4021 11.7361 15.3792 11.6835 15.363C11.6147 15.3382 11.5417 15.3127 11.5034 15.2691C11.4481 15.2081 11.4541 15.1401 11.4598 15.0741C11.4684 15.0297 11.4646 14.9837 11.4488 14.9412C11.4162 14.8739 11.345 14.8324 11.2695 14.7888C11.2246 14.7647 11.1822 14.7365 11.1426 14.7044C11.1033 14.6737 11.0695 14.6365 11.0426 14.5946C11.0469 14.5832 11.0288 14.557 11.0288 14.557Z" fill="#DADADA"/>
<path d="M10.1542 9.1771C10.1481 9.26738 10.153 9.35808 10.1688 9.44718C10.1851 9.56521 10.2003 9.67686 10.1553 9.80411L10.1507 9.81687H10.1464V9.82609C10.0869 9.9785 9.94722 10.1944 9.88094 10.2929C9.73065 10.2727 9.66118 10.1607 9.58745 10.0423C9.54332 9.96168 9.48578 9.88917 9.41731 9.82786C9.38353 9.80182 9.348 9.77814 9.31097 9.75697C9.56577 9.44015 9.87277 9.16912 10.2187 8.95557C10.1849 9.02526 10.1631 9.10015 10.1542 9.1771Z" fill="#DADADA"/>
<path d="M14.5996 14.4518C14.5943 14.3809 14.5908 14.3064 14.5901 14.232C14.5862 13.8421 14.5677 13.7142 14.3065 13.4951C14.1055 13.3257 13.8737 13.242 13.7996 12.9893C13.7589 12.8497 13.7578 12.6703 13.7567 12.4832C13.7567 12.4006 13.7567 12.3173 13.7518 12.2351C13.7711 12.1547 13.8001 12.077 13.8379 12.0036C13.8819 11.9079 13.9528 11.8087 13.9379 11.7045C13.9255 11.6173 13.9379 11.68 13.8999 11.5627C13.8666 11.4595 13.8042 11.4018 13.7302 11.3419C13.8701 11.3406 14.0093 11.3602 14.1435 11.4C14.4745 11.4946 14.7843 11.3709 15.1125 11.4273L15.1455 11.4329C15.2229 11.4484 15.2968 11.4779 15.3635 11.5201C15.41 11.5478 15.4587 11.5715 15.5092 11.591C15.5419 11.6026 15.5754 11.6117 15.6095 11.618C15.6271 11.7383 15.636 11.8597 15.6361 11.9813C15.6376 12.9107 15.2737 13.8034 14.623 14.467L14.5996 14.4518Z" fill="#DADADA"/>
<path d="M8.91623 13.0221C8.94707 13.0327 8.9772 13.043 9.00485 13.0536C9.12828 13.0957 9.24593 13.1531 9.35505 13.2245C9.47025 13.3035 9.56028 13.3819 9.62621 13.508C9.6971 13.6431 9.74991 13.7303 9.89276 13.8051L9.93529 13.8274C10.1108 13.9185 10.2373 13.9844 10.3291 14.162C10.3847 14.2683 10.4858 14.314 10.5832 14.3569C10.6364 14.3784 10.6874 14.4047 10.7357 14.4356L10.7552 14.4491L10.7906 14.4725C10.8058 14.5207 10.8406 14.5668 10.926 14.6416C10.9718 14.6788 11.0211 14.7117 11.0731 14.7397C11.1514 14.7855 11.2255 14.8283 11.2567 14.8921C11.2705 14.933 11.2735 14.9767 11.2652 15.019C11.2585 15.097 11.2503 15.1853 11.3237 15.2672C11.3744 15.3232 11.4584 15.3533 11.5396 15.3823C11.5947 15.3993 11.6475 15.4231 11.6966 15.4532C11.7261 15.4748 11.7541 15.4985 11.7802 15.5241C11.0512 15.4616 10.3593 15.1758 9.79866 14.7057C9.23804 14.2355 8.83607 13.6039 8.64755 12.897C8.72163 12.9562 8.82514 12.9916 8.91623 13.0221Z" fill="#DADADA"/>
<path d="M9.48323 10.1341C9.5442 10.232 9.60694 10.3319 9.71753 10.379C9.61615 10.3964 9.58354 10.3684 9.47685 10.4592C9.42014 10.5074 9.2975 10.4992 9.2461 10.5541C9.15855 10.647 9.13799 10.8083 9.02705 10.8664C8.90948 10.9255 8.7874 10.9752 8.66196 11.0149C8.78956 10.5626 8.94552 10.2245 9.22909 9.86475C9.26239 9.88369 9.29404 9.90539 9.32373 9.92961C9.38802 9.98832 9.44195 10.0575 9.48323 10.1341Z" fill="#DADADA"/>
<path d="M13.9761 13.5139L13.9998 13.5338C14.2306 13.7277 14.293 13.7801 14.2961 14.1158C14.2961 14.1743 14.299 14.232 14.3029 14.2895C14.1583 14.198 14.0069 14.1229 13.8442 14.097C13.6638 14.0679 13.4299 14.0849 13.2459 14.103C13.0105 14.1264 13.0612 14.0637 12.845 13.9556C12.7071 13.8868 12.5232 13.9414 12.4257 13.941C12.3691 13.9418 12.3126 13.9384 12.2566 13.9308C12.1558 13.9109 12.0578 13.8788 11.9649 13.8351C11.906 13.8106 11.9316 13.7617 11.8706 13.7425C11.8405 13.733 11.7132 13.7397 11.6657 13.7206C11.542 13.6702 11.3875 13.6079 11.302 13.6231C11.2558 13.6348 11.2146 13.661 11.1844 13.6979C11.1555 13.7356 11.1135 13.7609 11.0667 13.7688C11.0132 13.7727 10.8895 13.705 10.8047 13.66C10.7806 13.6468 10.7594 13.6355 10.7431 13.6274C10.6984 13.6051 10.6553 13.5798 10.614 13.5519C10.614 13.549 10.6123 13.5455 10.6112 13.5426L10.6041 13.5451C10.5068 13.4754 10.4145 13.3989 10.328 13.3162C10.1526 13.1512 9.94209 13.0282 9.71231 12.9564C9.85693 12.9365 9.9778 12.8674 10.1022 12.7955C10.2058 12.7302 10.3169 12.6779 10.4333 12.6399C10.5751 12.598 10.7374 12.5973 10.8941 12.5963C11.06 12.5963 11.2315 12.5945 11.3814 12.5449C11.5374 12.4931 11.6547 12.3808 11.7685 12.272C11.8883 12.1571 12.0368 12.1394 12.2056 12.0947C12.3403 12.0593 12.5111 11.9462 12.7178 11.9335C12.9744 11.9182 13.2392 11.9019 13.4079 11.8374C13.5043 11.959 13.533 12.1309 13.5422 12.3141C13.5424 12.3148 13.5424 12.3156 13.5422 12.3163C13.5458 12.39 13.5465 12.4651 13.5468 12.5399C13.5468 12.7122 13.549 12.8749 13.5872 13.0053C13.656 13.2449 13.7974 13.3636 13.9761 13.5139Z" fill="#DADADA"/>
<path d="M8.62564 12.8097C8.56122 12.5535 8.52872 12.2904 8.52887 12.0263C8.52503 11.7479 8.55394 11.47 8.61501 11.1984C8.74489 11.1601 8.87158 11.1118 8.99392 11.0537C9.10026 10.9988 9.18214 10.9807 9.26295 10.895C9.3076 10.8452 9.35493 10.7978 9.40473 10.7532C9.60217 10.5855 9.78223 10.6082 9.97187 10.6327C10.0172 10.6387 10.0633 10.644 10.1101 10.6472C10.1736 10.6982 10.2292 10.6752 10.2785 10.7181C10.5096 10.9169 10.6475 11.1197 11.0686 11.1197C11.3741 11.1197 11.6119 11.1229 11.8533 11.2678C11.8597 11.2721 11.8661 11.276 11.8732 11.2799C11.9359 11.3182 11.9994 11.3607 12.0646 11.4068L12.1057 11.4362C12.2407 11.5326 12.3683 11.6241 12.5456 11.6528C12.6062 11.6609 12.6674 11.6635 12.7285 11.6606C12.8444 11.6584 12.9458 11.6563 13.0337 11.7463C12.8696 11.8048 12.614 11.8204 12.3662 11.8353C12.1578 11.8481 11.9607 11.8601 11.8228 11.8963C11.6456 11.9434 11.5177 12.0653 11.3943 12.1834C11.2784 12.2943 11.1692 12.3989 11.0207 12.4481C10.8722 12.4974 10.7074 12.4971 10.5443 12.4978C10.3813 12.4985 10.2218 12.4999 10.0743 12.5428C9.95536 12.5816 9.84166 12.6349 9.7358 12.7016C9.58409 12.7891 9.43876 12.8724 9.24771 12.8621C9.19277 12.849 9.13747 12.8391 9.08182 12.8309L9.06623 12.8263V12.8288C8.92011 12.8107 8.77278 12.8043 8.62564 12.8097Z" fill="#DADADA"/>
<path d="M6.86023 8.21155C6.5124 8.21419 6.1647 8.19692 5.81884 8.1598C5.10177 8.07509 4.72959 7.89539 4.64913 7.59269C4.51975 7.11809 5.21024 6.71898 5.74121 6.45846C7.76162 5.4731 12.1923 4.45053 15.6189 4.17902C16.6783 4.09502 17.5684 4.0897 18.1965 4.16343C18.9135 4.24814 19.2857 4.42784 19.3662 4.73054C19.4956 5.20514 18.8051 5.60425 18.2741 5.86477C16.2537 6.85013 11.823 7.8727 8.39645 8.14421C7.83251 8.18922 7.31571 8.21155 6.86023 8.21155ZM17.1448 4.53985C16.7375 4.53985 16.2452 4.55863 15.6515 4.60578C12.2692 4.87515 7.90659 5.87788 5.92659 6.84375C5.0759 7.2588 5.05782 7.48175 5.05853 7.48175C5.08653 7.58525 5.732 7.9287 8.36349 7.71994C11.7457 7.45198 16.1084 6.44783 18.0884 5.48197C18.9391 5.06691 18.9571 4.84573 18.9564 4.84396C18.9345 4.76386 18.5435 4.53985 17.1448 4.53985Z" fill="#DADADA"/>
<path d="M6.84583 19.8845C6.498 19.8871 6.1503 19.8699 5.80444 19.8328C5.08737 19.748 4.71519 19.5683 4.63473 19.2656C4.50358 18.7925 5.19442 18.3933 5.7261 18.1342C7.74651 17.1489 12.1772 16.1263 15.6038 15.8548C16.6632 15.7708 17.5533 15.7655 18.1814 15.8392C18.8984 15.9239 19.2706 16.1036 19.3528 16.4063C19.4822 16.8809 18.7917 17.28 18.2608 17.5405C16.2404 18.5259 11.8096 19.5485 8.38311 19.82C7.8174 19.8618 7.3006 19.8845 6.84583 19.8845ZM17.1297 16.2128C16.7224 16.2128 16.2301 16.2316 15.6364 16.2787C12.2541 16.5467 7.89148 17.5508 5.91148 18.5167C5.06079 18.9317 5.04271 19.1529 5.04342 19.1547C5.07178 19.2582 5.71512 19.6017 8.34838 19.3929C11.7306 19.1246 16.0933 18.1208 18.0733 17.1549C18.924 16.7399 18.942 16.5169 18.9413 16.5169C18.9193 16.4368 18.5284 16.2128 17.1297 16.2128Z" fill="#DADADA"/>
</g>
<defs>
<linearGradient id="paint0_linear_15853_9549" x1="12.0825" y1="15.5354" x2="12.0825" y2="8.42872" gradientUnits="userSpaceOnUse">
<stop stop-color="#603211"/>
<stop offset="0.17" stop-color="#DD7D26"/>
<stop offset="0.35" stop-color="#603211"/>
<stop offset="0.54" stop-color="#9C3520"/>
<stop offset="0.77" stop-color="#DD7D26"/>
<stop offset="1" stop-color="#603211"/>
</linearGradient>
<clipPath id="clip0_15853_9549">
<rect width="24" height="24" fill="white"/>
</clipPath>
</defs>
</svg>
