<svg width="24" height="24" viewBox="0 0 24 24" fill="none" xmlns="http://www.w3.org/2000/svg">
<g clip-path="url(#clip0_10929_3551)">
<path d="M0 6.62069C0 2.96418 2.96418 0 6.62069 0H17.3793C21.0358 0 24 2.96418 24 6.62069V17.3793C24 21.0358 21.0358 24 17.3793 24H6.62069C2.96418 24 0 21.0358 0 17.3793V6.62069Z" fill="black"/>
<path d="M21.0252 12.5914L19.8153 11.4821L18.6424 12.7614C18.1974 13.2467 17.5499 13.4943 16.8946 13.4295L16.5874 13.3991C16.1507 13.356 15.7188 13.521 15.4223 13.8446L10.7783 18.9101L11.9883 20.0195L17.2886 14.2381C17.6308 13.8648 18.1486 13.7063 18.6411 13.8242L18.8714 13.8793C19.3639 13.9972 19.8817 13.8387 20.2239 13.4654L21.0252 12.5914Z" fill="url(#paint0_linear_10929_3551)"/>
<path d="M18.4246 10.207L17.2146 9.09766L14.8092 11.7214C14.3642 12.2068 13.7167 12.4543 13.0615 12.3896L12.7543 12.3592C12.3174 12.316 11.8858 12.4811 11.5891 12.8046L8.17773 16.5258L9.38777 17.635L13.4554 13.1982C13.7977 12.8248 14.3154 12.6664 14.808 12.7843L15.0382 12.8393C15.5307 12.9572 16.0485 12.7988 16.3907 12.4255L18.4246 10.207Z" fill="url(#paint1_linear_10929_3551)"/>
<path d="M15.8224 7.82251L14.6123 6.7132L10.9743 10.6814C10.5294 11.1668 9.88185 11.4143 9.22659 11.3496L8.91943 11.3192C8.48258 11.276 8.05089 11.4411 7.75425 11.7647L5.57544 14.1413L6.78547 15.2506L9.62051 12.1582C9.96277 11.7848 10.4805 11.6264 10.9731 11.7443L11.2033 11.7994C11.6959 11.9173 12.2136 11.7588 12.5559 11.3855L15.8224 7.82251Z" fill="url(#paint2_linear_10929_3551)"/>
<path d="M13.222 5.43805L12.012 4.32874L7.1414 9.64144C6.69644 10.1268 6.04892 10.3743 5.39365 10.3096L5.08649 10.2792C4.64964 10.2361 4.21796 10.4011 3.92132 10.7247L2.9751 11.7568L4.18511 12.8661L5.78758 11.1182C6.12985 10.7448 6.64762 10.5864 7.1402 10.7043L7.37036 10.7594C7.86293 10.8773 8.3807 10.7188 8.72296 10.3455L13.222 5.43805Z" fill="url(#paint3_linear_10929_3551)"/>
</g>
<defs>
<linearGradient id="paint0_linear_10929_3551" x1="19.8153" y1="11.4821" x2="11.9884" y2="20.0195" gradientUnits="userSpaceOnUse">
<stop offset="0.209652" stop-color="#0BA37B"/>
<stop offset="0.335908" stop-color="#0CFEC0"/>
</linearGradient>
<linearGradient id="paint1_linear_10929_3551" x1="17.2146" y1="9.09766" x2="9.38776" y2="17.635" gradientUnits="userSpaceOnUse">
<stop offset="0.321604" stop-color="#13936C"/>
<stop offset="0.506424" stop-color="#28D596"/>
</linearGradient>
<linearGradient id="paint2_linear_10929_3551" x1="14.6123" y1="6.7132" x2="6.78547" y2="15.2506" gradientUnits="userSpaceOnUse">
<stop offset="0.501239" stop-color="#1D8C68"/>
<stop offset="0.641372" stop-color="#15B786"/>
</linearGradient>
<linearGradient id="paint3_linear_10929_3551" x1="12.012" y1="4.32874" x2="4.18511" y2="12.8661" gradientUnits="userSpaceOnUse">
<stop offset="0.649631" stop-color="#1B7E5E"/>
<stop offset="0.796711" stop-color="#13A076"/>
</linearGradient>
<clipPath id="clip0_10929_3551">
<rect width="24" height="24" fill="white"/>
</clipPath>
</defs>
</svg>
