<svg width="24" height="24" viewBox="0 0 24 24" fill="none" xmlns="http://www.w3.org/2000/svg">
<g clip-path="url(#clip0_15853_9527)">
<path d="M-0.0637207 6.62069C-0.0637207 2.96418 2.90046 0 6.55697 0H17.3156C20.972 0 23.9363 2.96418 23.9363 6.62069V17.3793C23.9363 21.0358 20.972 24 17.3156 24H6.55697C2.90046 24 -0.0637207 21.0358 -0.0637207 17.3793V6.62069Z" fill="black"/>
<path d="M18.3257 9.41181C18.2615 9.58043 15.5645 7.88791 13.1015 9.04261C11.3108 9.88215 10.571 11.5097 10.571 12.8975C10.571 13.991 10.9512 14.8172 11.3668 15.3556C12.0428 16.2312 12.6716 16.5607 13.2147 16.8534C14.0894 17.3249 15.5771 17.3406 16.0288 17.3172C16.8699 17.2736 17.8581 17.0307 18.6913 16.6422C19.0094 16.4939 19.5261 16.1722 19.9786 15.8123C20.7513 15.1979 21.4631 14.425 21.4507 14.4848C21.431 14.5796 21.439 14.6546 21.0525 15.3319C19.9076 17.3386 18.0041 18.2139 18.0041 18.2139C15.3225 19.6308 12.9427 18.8959 12.4802 18.7195C10.4497 17.9451 9.39071 16.4933 9.14326 16.0316C8.73975 15.2786 8.01637 12.5128 8.98562 10.3145C9.7039 8.68536 11.3692 7.88494 11.553 7.80833C14.52 6.57152 18.384 9.2586 18.3257 9.41181Z" fill="url(#paint0_linear_15853_9527)"/>
<path d="M18.4103 9.27158C18.2897 9.38314 17.4236 8.34497 16.033 7.59523C15.6354 7.38091 14.1187 6.61066 12.2661 6.65022C9.19506 6.71546 7.15419 8.96529 6.79026 9.38223C4.97129 11.4662 4.11488 14.675 5.13797 17.1722C6.46763 20.4171 10.9165 22.2834 10.5782 22.3203L10.189 22.196C9.71942 22.011 3.95644 19.4191 3.75001 14.2542C3.63363 11.3439 4.57067 8.98693 5.13797 8.34354C6.12925 7.21934 6.92409 6.67815 7.59415 6.32067C8.94055 5.6029 11.4727 4.98783 13.352 5.27038C15.4606 5.5875 16.7842 7.05751 17.4297 7.77441C18.0119 8.42091 18.5077 9.18138 18.4103 9.27158Z" fill="url(#paint1_linear_15853_9527)"/>
<path d="M18.3948 9.40911C18.5372 9.34594 18.3471 7.41337 17.0894 5.94372C16.5822 5.34987 16.0245 4.80988 15.3398 4.43198C12.5091 2.9006 9.0286 4.13207 8.27519 4.43198C7.50341 4.73905 5.8567 5.57816 4.47426 7.29978C2.91592 9.24066 2.68513 11.3229 2.59641 12.2344C2.21728 16.1263 4.24476 19.1828 4.38905 19.1367C4.47315 19.1099 3.55335 17.1651 3.74979 14.2542C3.82461 13.1461 3.97835 11.1164 5.38621 9.16816C6.23906 8.01918 7.22567 7.06277 8.51272 6.43133C9.25746 6.0641 11.9223 4.88044 14.5909 5.82048C15.4039 6.11274 16.1525 6.55889 16.7954 7.1343C17.9572 8.19415 18.2783 9.46093 18.3948 9.40911Z" fill="url(#paint2_linear_15853_9527)"/>
<path d="M14.295 20.3104C14.2281 20.424 9.61111 19.1089 7.87664 15.8678C7.6156 15.3802 6.41009 12.7812 7.201 10.7578C7.53174 9.91148 8.18293 8.96399 8.44595 8.66969C8.87084 8.19441 9.59161 7.7671 10.5069 7.37989C10.9181 7.21 11.6694 7.03317 12.1107 6.9746C12.5482 6.92084 13.2202 6.93237 13.659 6.9746C14.5119 7.05665 15.6647 8.05078 15.6323 8.05078C15.6235 8.05078 14.7173 7.76079 13.7803 7.69651C13.0037 7.64325 12.1612 7.82326 11.8624 7.9287C11.2031 8.16133 10.2995 8.66969 9.77702 9.31199C9.25454 9.95428 8.80853 10.8621 8.71354 12.0791C8.6439 12.9711 8.73947 14.2724 9.1269 15.2869C9.31261 15.7732 9.63246 16.3921 10.2472 17.2071C11.5558 18.9419 14.3433 20.2291 14.295 20.3104Z" fill="url(#paint3_linear_15853_9527)"/>
<path d="M11.7933 6.56769C12.5943 6.45246 13.2798 6.41271 14.074 6.56769C14.9854 6.75041 15.4895 6.93874 16.1102 7.25559C17.1705 7.79682 18.5124 9.18458 18.4101 9.39286C18.2281 9.76414 15.4028 6.78078 11.5214 7.80748C10.4237 8.18143 9.74675 8.53059 9.04576 9.06394C7.85178 9.97231 7.26014 11.1671 7.07318 11.6557C6.75222 12.4947 6.66503 12.9667 6.6262 13.8594C6.6262 15.0614 6.85159 15.7587 7.12416 16.5229C7.51193 17.6107 8.23514 18.8542 8.11897 18.7736C6.79032 17.8524 5.96004 15.01 5.86831 14.4209C5.77658 13.8318 5.38484 11.28 7.07318 9.15525C8.61236 7.21827 11.1962 6.65449 11.7933 6.56769Z" fill="url(#paint4_linear_15853_9527)"/>
</g>
<defs>
<linearGradient id="paint0_linear_15853_9527" x1="16.6362" y1="7.54647" x2="16.6362" y2="19.116" gradientUnits="userSpaceOnUse">
<stop stop-color="#FAB961"/>
<stop offset="1"/>
</linearGradient>
<linearGradient id="paint1_linear_15853_9527" x1="11.0814" y1="5.20018" x2="11.0814" y2="22.3489" gradientUnits="userSpaceOnUse">
<stop stop-color="#FAB961"/>
<stop offset="1"/>
</linearGradient>
<linearGradient id="paint2_linear_15853_9527" x1="10.4948" y1="3.77582" x2="10.4948" y2="19.1376" gradientUnits="userSpaceOnUse">
<stop/>
<stop offset="0.414296" stop-color="#FAB961"/>
</linearGradient>
<linearGradient id="paint3_linear_15853_9527" x1="10.6801" y1="7.50203" x2="10.6801" y2="19.9942" gradientUnits="userSpaceOnUse">
<stop/>
<stop offset="1" stop-color="#FAB961"/>
</linearGradient>
<linearGradient id="paint4_linear_15853_9527" x1="12.0895" y1="6.76658" x2="12.0895" y2="18.7773" gradientUnits="userSpaceOnUse">
<stop/>
<stop offset="1" stop-color="#FAB961"/>
</linearGradient>
<clipPath id="clip0_15853_9527">
<rect width="24" height="24" fill="white"/>
</clipPath>
</defs>
</svg>
