<svg width="24" height="24" viewBox="0 0 24 24" fill="none" xmlns="http://www.w3.org/2000/svg">
<g clip-path="url(#clip0_15854_11726)">
<mask id="mask0_15854_11726" style="mask-type:alpha" maskUnits="userSpaceOnUse" x="0" y="0" width="24" height="24">
<path d="M0 6.62069C0 2.96418 2.96418 0 6.62069 0H17.3793C21.0358 0 24 2.96418 24 6.62069V17.3793C24 21.0358 21.0358 24 17.3793 24H6.62069C2.96418 24 0 21.0358 0 17.3793V6.62069Z" fill="black"/>
</mask>
<g mask="url(#mask0_15854_11726)">
<rect x="-0.960052" y="-0.959473" width="25.92" height="25.92" fill="#E6007A"/>
<g filter="url(#filter0_f_15854_11726)">
<path fill-rule="evenodd" clip-rule="evenodd" d="M23.664 -1.2839C19.452 10.0561 7.6914 10.0211 5.84394 15.8881C3.11457 24.5559 17.7386 38.2642 26.5799 27.5522C34.2136 18.3033 26.8987 -9.99277 23.664 -1.2839Z" fill="#921FC0"/>
</g>
<g filter="url(#filter1_f_15854_11726)">
<path fill-rule="evenodd" clip-rule="evenodd" d="M28.1993 6.81561C21.3967 13.8505 15.5633 10.7036 10.8588 14.3783C7.6526 16.8828 13.7915 23.7923 11.9999 29.1723C10.3811 34.0335 23.3495 36.7179 28.1993 33.3837C36.4258 27.728 33.9945 0.82245 28.1993 6.81561Z" fill="url(#paint0_radial_15854_11726)"/>
</g>
</g>
<path d="M6.41801 6.40474V7.22667C6.53014 6.96901 6.7187 6.752 6.95818 6.605C7.19767 6.458 7.47652 6.38809 7.75703 6.40474H8.49731V7.4444H7.57196C6.75004 7.4444 6.43434 7.83086 6.43434 8.77798V10.2803H8.17616V11.2546H3.93046V10.2803H5.13885V7.38996H3.93046V6.40474H6.41801Z" fill="white"/>
<path d="M11.9864 11.3744C10.7943 11.3744 9.6676 10.6885 9.6676 8.83241C9.6676 6.97628 10.7943 6.30132 11.9864 6.30132C13.1785 6.30132 14.2998 6.97628 14.2998 8.83241C14.2998 10.6885 13.1676 11.3744 11.9864 11.3744ZM11.9864 7.25388C11.3659 7.25388 10.9685 7.71655 10.9685 8.83241C10.9685 9.94827 11.3659 10.4164 11.9864 10.4164C12.6069 10.4164 13.0043 9.94827 13.0043 8.83241C13.0043 7.71655 12.6069 7.25388 11.9864 7.25388Z" fill="white"/>
<path d="M19.9444 8.15745H18.7196C18.6434 7.64035 18.4039 7.25388 17.827 7.25388C17.25 7.25388 16.8853 7.74921 16.8853 8.83785C16.8853 9.92649 17.2445 10.4164 17.8215 10.4164C18.2189 10.4164 18.6217 10.2204 18.7414 9.48015H19.9879C19.9343 10.0137 19.6792 10.5067 19.2746 10.8587C18.87 11.2107 18.3465 11.3951 17.8106 11.3744C16.3954 11.3744 15.5952 10.2857 15.5952 8.83785C15.5952 7.38996 16.4172 6.30132 17.8378 6.30132C18.3601 6.28115 18.8701 6.46262 19.2623 6.80815C19.6544 7.15369 19.8986 7.6368 19.9444 8.15745Z" fill="white"/>
<path d="M6.16218 17.9661C4.97556 17.9661 3.84882 17.2803 3.84882 15.4241C3.84882 13.568 4.97556 12.893 6.16218 12.893C7.34879 12.893 8.48098 13.568 8.48098 15.4241C8.48098 17.2803 7.34335 17.9661 6.16218 17.9661ZM6.16218 13.8456C5.54165 13.8456 5.1443 14.3083 5.1443 15.4241C5.1443 16.54 5.54165 17.0081 6.16218 17.0081C6.7827 17.0081 7.1855 16.54 7.1855 15.4241C7.1855 14.3083 6.78814 13.8456 6.16218 13.8456Z" fill="white"/>
<path d="M14.1201 14.7492H12.8954C12.8247 14.2321 12.5797 13.8456 12.0027 13.8456C11.4258 13.8456 11.0665 14.3409 11.0665 15.435C11.0665 16.5291 11.4421 17.0081 11.9864 17.0081C12.3838 17.0081 12.792 16.8121 12.9063 16.0719H14.1637C14.1088 16.6049 13.8533 17.0972 13.449 17.4489C13.0448 17.8006 12.5219 17.9855 11.9864 17.9661C10.5712 17.9661 9.77102 16.8775 9.77102 15.435C9.77102 13.9926 10.5875 12.893 12.0136 12.893C12.5366 12.8702 13.0481 13.0507 13.4408 13.3967C13.8335 13.7428 14.077 14.2275 14.1201 14.7492Z" fill="white"/>
<path d="M17.8052 17.9661C16.6186 17.9661 15.4918 17.2803 15.4918 15.4241C15.4918 13.568 16.6186 12.893 17.8052 12.893C18.9918 12.893 20.1512 13.568 20.1512 15.4241C20.1512 17.2803 18.9864 17.9661 17.8052 17.9661ZM17.8052 13.8456C17.1847 13.8456 16.7873 14.3083 16.7873 15.4241C16.7873 16.54 17.1847 17.0081 17.8052 17.0081C18.4257 17.0081 18.8285 16.54 18.8285 15.4241C18.8285 14.3083 18.4311 13.8456 17.8052 13.8456Z" fill="white"/>
</g>
<defs>
<filter id="filter0_f_15854_11726" x="0.509735" y="-7.92725" width="34.4299" height="44.4004" filterUnits="userSpaceOnUse" color-interpolation-filters="sRGB">
<feFlood flood-opacity="0" result="BackgroundImageFix"/>
<feBlend mode="normal" in="SourceGraphic" in2="BackgroundImageFix" result="shape"/>
<feGaussianBlur stdDeviation="2.5" result="effect1_foregroundBlur_15854_11726"/>
</filter>
<filter id="filter1_f_15854_11726" x="3.91504" y="-0.0498047" width="35.5813" height="40.9136" filterUnits="userSpaceOnUse" color-interpolation-filters="sRGB">
<feFlood flood-opacity="0" result="BackgroundImageFix"/>
<feBlend mode="normal" in="SourceGraphic" in2="BackgroundImageFix" result="shape"/>
<feGaussianBlur stdDeviation="3" result="effect1_foregroundBlur_15854_11726"/>
</filter>
<radialGradient id="paint0_radial_15854_11726" cx="0" cy="0" r="1" gradientUnits="userSpaceOnUse" gradientTransform="translate(23.0201 17.6438) rotate(48.005) scale(10.5654 13.1637)">
<stop stop-color="#1AA0FF"/>
<stop offset="1" stop-color="#1AA0FF"/>
</radialGradient>
<clipPath id="clip0_15854_11726">
<rect width="24" height="24" fill="white"/>
</clipPath>
</defs>
</svg>
