<svg width="24" height="24" viewBox="0 0 24 24" fill="none" xmlns="http://www.w3.org/2000/svg">
<g clip-path="url(#clip0_10929_3538)">
<path d="M0.5 6.62069C0.5 3.24032 3.24032 0.5 6.62069 0.5H17.3793C20.7596 0.5 23.5 3.24033 23.5 6.62069V17.3793C23.5 20.7596 20.7596 23.5 17.3793 23.5H6.62069C3.24033 23.5 0.5 20.7596 0.5 17.3793V6.62069Z" fill="white" stroke="#282B3B"/>
<path fill-rule="evenodd" clip-rule="evenodd" d="M5.16782 15.1518C4.71829 14.1894 4.46719 13.1158 4.46719 11.9835C4.46719 7.84407 7.82283 4.48845 11.9622 4.48845C14.2671 4.48845 16.3289 5.52892 17.7038 7.16571L18.5241 6.47747C16.9527 4.60683 14.5964 3.41772 11.9622 3.41772C7.2315 3.41772 3.39648 7.25274 3.39648 11.9835C3.39648 13.2775 3.68344 14.5045 4.19719 15.6043L5.16782 15.1518Z" fill="black"/>
<path fill-rule="evenodd" clip-rule="evenodd" d="M11.962 17.0693C9.15318 17.0693 6.87615 14.7922 6.87615 11.9834C6.87615 9.17455 9.15318 6.89749 11.962 6.89749C13.5261 6.89749 14.9249 7.60371 15.8579 8.71439L16.6784 8.02597C15.549 6.68146 13.8553 5.82678 11.962 5.82678C8.56183 5.82678 5.80542 8.58319 5.80542 11.9834C5.80542 15.3836 8.56183 18.14 11.962 18.14V17.0693Z" fill="black"/>
<path fill-rule="evenodd" clip-rule="evenodd" d="M13.8077 13.5319C13.3658 14.0579 12.7031 14.3925 11.9623 14.3925C10.6318 14.3925 9.5532 13.3139 9.5532 11.9834C9.5532 10.6529 10.6318 9.57425 11.9623 9.57425C12.7031 9.57425 13.3658 9.90878 13.8077 10.4349L14.7304 9.66065C14.0675 8.87148 13.0736 8.36969 11.9623 8.36969C9.96653 8.36969 8.34863 9.98759 8.34863 11.9834C8.34863 13.9791 9.96653 15.5971 11.9623 15.5971C12.9808 15.5971 13.9004 15.1754 14.5573 14.4975L13.8077 13.5319Z" fill="black"/>
</g>
<defs>
<clipPath id="clip0_10929_3538">
<rect width="24" height="24" fill="white"/>
</clipPath>
</defs>
</svg>
