<svg width="24" height="24" viewBox="0 0 24 24" fill="none" xmlns="http://www.w3.org/2000/svg">
<g clip-path="url(#clip0_15853_9525)">
<path d="M-0.0637207 6.62069C-0.0637207 2.96418 2.90046 0 6.55697 0H17.3156C20.972 0 23.9363 2.96418 23.9363 6.62069V17.3793C23.9363 21.0358 20.972 24 17.3156 24H6.55697C2.90046 24 -0.0637207 21.0358 -0.0637207 17.3793V6.62069Z" fill="black"/>
<path d="M3.67779 16.3954V16.5723C3.67779 16.5723 10.8452 14.0192 12.2385 14.6786L11.3981 14.9017C11.4716 14.9017 12.8338 14.9821 12.8338 14.9821C12.8657 15.2358 12.9596 15.4799 13.1088 15.6968C13.258 15.9137 13.4588 16.0981 13.6965 16.2366C14.5169 16.7251 14.5325 16.9905 14.5325 16.9905C14.5325 16.9905 14.1067 17.1473 14.1067 17.3463C14.5027 17.2441 14.9121 17.1907 15.324 17.1875C15.6955 17.1994 16.0639 17.2528 16.4208 17.3463C16.4208 17.3463 16.3785 17.1453 15.8055 16.9905C15.2326 16.8357 14.6797 16.2889 14.401 15.9853C14.2339 15.7913 14.1255 15.5614 14.0864 15.3183C14.0473 15.0751 14.0789 14.827 14.1781 14.5981C14.3765 14.1398 15.0698 13.8845 16.4766 13.2251C18.1463 12.4471 18.5276 11.8641 18.7616 11.4158C18.9957 10.9675 19.348 10.0688 19.5419 9.64666C19.7032 9.25206 19.9806 8.90455 20.3445 8.64148C20.5919 8.4706 21.72 8.08663 21.72 8.08663C21.72 8.08663 20.8595 7.42522 20.5786 7.2262C20.2275 6.92635 19.7835 6.73001 19.3056 6.6633C18.7081 6.59294 18.1018 6.95078 17.6915 7.19001C17.2813 7.42924 16.4877 8.12884 16.1667 8.32988C15.8456 8.53091 15.023 8.73195 13.7144 9.45366C12.4057 10.1754 7.21133 13.1648 7.21133 13.1648L8.54895 13.1768L2.54529 15.9853H3.14499L2.28 16.5884C2.75908 16.6873 3.26194 16.6183 3.68673 16.3954H3.67779Z" fill="white"/>
</g>
<defs>
<clipPath id="clip0_15853_9525">
<rect width="24" height="24" fill="white"/>
</clipPath>
</defs>
</svg>
