<svg width="24" height="24" viewBox="0 0 24 24" fill="none" xmlns="http://www.w3.org/2000/svg">
<g clip-path="url(#clip0_28719_282447)">
<mask id="mask0_28719_282447" style="mask-type:luminance" maskUnits="userSpaceOnUse" x="0" y="0" width="24" height="24">
<path d="M24 0H0V24H24V0Z" fill="white"/>
</mask>
<g mask="url(#mask0_28719_282447)">
<path d="M0 6.62069C0 2.96418 2.96418 0 6.62069 0H17.3793C21.0358 0 24 2.96418 24 6.62069V17.3793C24 21.0358 21.0358 24 17.3793 24H6.62069C2.96418 24 0 21.0358 0 17.3793V6.62069Z" fill="#050506"/>
<path d="M16.6513 15.0293H14.0991L13.6196 13.806H10.3803L9.90083 15.0293H7.34863L10.4029 7.75659H13.5932L16.6513 15.0293ZM12.0037 9.64676L11.158 11.8172H12.8457L12.0037 9.64676Z" fill="white"/>
<path d="M13.701 4.44001C13.701 5.37945 12.9395 6.14101 12 6.14101C11.0606 6.14101 10.299 5.37945 10.299 4.44001C10.299 3.50058 11.0606 2.73901 12 2.73901C12.9395 2.73901 13.701 3.50058 13.701 4.44001Z" fill="#26DB8D"/>
<path d="M13.701 19.5599C13.701 20.4993 12.9395 21.2609 12 21.2609C11.0606 21.2609 10.299 20.4993 10.299 19.5599C10.299 18.6205 11.0606 17.8589 12 17.8589C12.9395 17.8589 13.701 18.6205 13.701 19.5599Z" fill="#26DB8D"/>
<path d="M19.3976 9.69367C18.584 10.1634 17.5437 9.88464 17.0739 9.07107C16.6042 8.25749 16.883 7.21717 17.6966 6.74746C18.5101 6.27774 19.5504 6.55649 20.0202 7.37007C20.4899 8.18364 20.2111 9.22396 19.3976 9.69367Z" fill="#26DB8D"/>
<path d="M6.30324 17.2537C5.48967 17.7234 4.44935 17.4447 3.97963 16.6311C3.50992 15.8175 3.78867 14.7772 4.60224 14.3075C5.41582 13.8378 6.45613 14.1165 6.92585 14.9301C7.39557 15.7437 7.11682 16.784 6.30324 17.2537Z" fill="#26DB8D"/>
<path d="M4.60225 9.69368C5.41582 10.1634 6.45614 9.88464 6.92586 9.07107C7.39558 8.25749 7.11682 7.21718 6.30325 6.74746C5.48967 6.27774 4.44936 6.55649 3.97964 7.37007C3.50992 8.18364 3.78867 9.22396 4.60225 9.69368Z" fill="#26DB8D"/>
<path d="M17.6966 17.2537C18.5101 17.7234 19.5504 17.4447 20.0202 16.6311C20.4899 15.8175 20.2111 14.7772 19.3976 14.3075C18.584 13.8378 17.5437 14.1165 17.0739 14.9301C16.6042 15.7437 16.883 16.784 17.6966 17.2537Z" fill="#26DB8D"/>
</g>
</g>
<defs>
<clipPath id="clip0_28719_282447">
<rect width="24" height="24" fill="white"/>
</clipPath>
</defs>
</svg>
