<svg width="24" height="24" viewBox="0 0 24 24" fill="none" xmlns="http://www.w3.org/2000/svg">
<g clip-path="url(#clip0_23235_148390)">
<path d="M0 6.62069C0 2.96418 2.96418 0 6.62069 0H17.3793C21.0358 0 24 2.96418 24 6.62069V17.3793C24 21.0358 21.0358 24 17.3793 24H6.62069C2.96418 24 0 21.0358 0 17.3793V6.62069Z" fill="black"/>
<path d="M16.6513 15.0294H14.0991L13.6196 13.8061H10.3803L9.90083 15.0294H7.34863L10.4029 7.75671H13.5932L16.6513 15.0294ZM12.0037 9.64688L11.158 11.8173H12.8457L12.0037 9.64688Z" fill="white"/>
<path d="M13.701 4.44001C13.701 5.37945 12.9395 6.14101 12 6.14101C11.0606 6.14101 10.299 5.37945 10.299 4.44001C10.299 3.50058 11.0606 2.73901 12 2.73901C12.9395 2.73901 13.701 3.50058 13.701 4.44001Z" fill="white"/>
<path d="M13.701 19.56C13.701 20.4994 12.9395 21.261 12 21.261C11.0606 21.261 10.299 20.4994 10.299 19.56C10.299 18.6206 11.0606 17.859 12 17.859C12.9395 17.859 13.701 18.6206 13.701 19.56Z" fill="white"/>
<path d="M19.3976 9.69362C18.584 10.1633 17.5437 9.88458 17.0739 9.07101C16.6042 8.25743 16.883 7.21711 17.6966 6.7474C18.5101 6.27768 19.5504 6.55643 20.0202 7.37001C20.4899 8.18358 20.2111 9.2239 19.3976 9.69362Z" fill="white"/>
<path d="M6.30325 17.2536C5.48968 17.7233 4.44936 17.4446 3.97964 16.631C3.50993 15.8174 3.78868 14.7771 4.60225 14.3074C5.41583 13.8377 6.45614 14.1164 6.92586 14.93C7.39558 15.7436 7.11683 16.7839 6.30325 17.2536Z" fill="white"/>
<path d="M4.60225 9.69361C5.41582 10.1633 6.45614 9.88457 6.92586 9.071C7.39558 8.25742 7.11682 7.21711 6.30325 6.74739C5.48967 6.27767 4.44936 6.55642 3.97964 7.37C3.50992 8.18357 3.78867 9.22389 4.60225 9.69361Z" fill="white"/>
<path d="M17.6966 17.2536C18.5101 17.7233 19.5504 17.4446 20.0202 16.631C20.4899 15.8174 20.2111 14.7771 19.3976 14.3074C18.584 13.8377 17.5437 14.1164 17.0739 14.93C16.6042 15.7436 16.883 16.7839 17.6966 17.2536Z" fill="white"/>
</g>
<defs>
<clipPath id="clip0_23235_148390">
<rect width="24" height="24" fill="white"/>
</clipPath>
</defs>
</svg>
