<svg width="24" height="24" viewBox="0 0 24 24" fill="none" xmlns="http://www.w3.org/2000/svg">
<g clip-path="url(#clip0_15853_9564)">
<path d="M-0.0637207 6.62069C-0.0637207 2.96418 2.90046 0 6.55697 0H17.3156C20.972 0 23.9363 2.96418 23.9363 6.62069V17.3793C23.9363 21.0358 20.972 24 17.3156 24H6.55697C2.90046 24 -0.0637207 21.0358 -0.0637207 17.3793V6.62069Z" fill="#11091B"/>
<path d="M12.0066 16.4345C14.4363 16.4345 16.406 14.4569 16.406 12.0173C16.406 9.57775 14.4363 7.6001 12.0066 7.6001C9.57683 7.6001 7.60715 9.57775 7.60715 12.0173C7.60715 14.4569 9.57683 16.4345 12.0066 16.4345Z" fill="#6822FB"/>
<path fill-rule="evenodd" clip-rule="evenodd" d="M19.7446 14.4631C19.4924 14.4387 19.238 14.473 19.0014 14.5634C18.7647 14.6538 18.5524 14.7978 18.3811 14.984L18.3808 14.9843L13.5637 20.1571C14.9988 19.8782 16.3361 19.2838 17.4267 18.3161C18.5846 17.2887 19.4304 15.958 19.8681 14.4753L19.7448 14.4631H19.7446ZM18.895 14.2863C19.1747 14.1795 19.4754 14.1389 19.7735 14.1677L19.7738 14.1678L20.2493 14.2148L20.2032 14.384C19.7664 15.989 18.8703 17.4323 17.6245 18.5378C16.3749 19.6466 14.8211 20.2792 13.1773 20.5244L12.7573 20.5871L18.1618 14.7834L18.1621 14.783C18.3646 14.5631 18.6155 14.3931 18.895 14.2863ZM11.061 3.76709L5.94406 9.33271C5.71132 9.58566 5.4151 9.77207 5.08597 9.87268C4.75685 9.9733 4.40677 9.98447 4.07187 9.90505L4.07133 9.90493L3.8588 9.85602L3.90552 9.70376C4.36829 8.19773 5.24359 6.85052 6.43281 5.81393C7.62202 4.77735 9.07788 4.09259 10.6363 3.83682L11.061 3.76709ZM4.23905 9.63658C4.50925 9.68343 4.78693 9.6618 5.04656 9.57366C5.30619 9.48553 5.53943 9.33372 5.72486 9.13219L10.2467 4.21379C8.85943 4.51972 7.57595 5.18063 6.52257 6.13147C5.46919 7.08231 4.68216 8.29031 4.23905 9.63658ZM20.1935 11.985C20.1666 10.8232 19.8911 9.68058 19.3855 8.63355L19.6537 8.50483C20.1775 9.58995 20.463 10.7741 20.491 11.9782L20.1935 11.985ZM17.3412 5.98287C16.5939 5.34127 15.736 4.84019 14.8093 4.50396L14.911 4.22512C15.8715 4.57361 16.7607 5.09297 17.5353 5.75798L17.3412 5.98287Z" fill="#C5FBFF"/>
<path fill-rule="evenodd" clip-rule="evenodd" d="M5.66793 6.65002C6.96868 5.12153 8.7716 4.1036 10.7551 3.77783L10.8035 4.07061C8.94988 4.37503 7.25778 5.30629 6.01135 6.70799C4.76491 8.10969 4.04008 9.89644 3.95858 11.7682L4.63573 11.0301C4.83825 10.81 5.08922 10.6399 5.36888 10.5331C5.64855 10.4262 5.94926 10.3856 6.24734 10.4144L7.6636 10.5539H7.66384C8.05354 10.5918 8.44672 10.5388 8.8124 10.3992C9.17808 10.2597 9.50627 10.0373 9.7711 9.74972M9.77116 9.7496L14.9365 4.13222L15.0298 4.16607C15.9904 4.51457 16.8796 5.03396 17.6542 5.69899L17.7705 5.7989L12.8839 11.1134L12.8839 11.1135C12.651 11.3665 12.3547 11.5529 12.0255 11.6535C11.6963 11.7541 11.3461 11.7652 11.0111 11.6857L11.0106 11.6856L9.80166 11.3889L9.80118 11.3888C9.51781 11.3217 9.2216 11.3311 8.94312 11.4163C8.66464 11.5014 8.41399 11.6591 8.21704 11.8731L8.21668 11.8735L4.68478 15.6826C5.14208 16.6243 5.83576 17.4456 6.61523 18.1477L11.4641 12.8787C11.6666 12.6587 11.9176 12.4886 12.1973 12.3817C12.4769 12.2749 12.7776 12.2343 13.0757 12.2631L13.076 12.2631L14.4935 12.4026C14.8833 12.4403 15.2765 12.3874 15.6422 12.2478C16.0079 12.1082 16.3362 11.8859 16.6011 11.5982L19.6801 8.24852L19.7754 8.44584C20.2993 9.53095 20.5848 10.7151 20.6128 11.9192L20.6141 11.9784L19.7171 12.9648L19.7168 12.9651C19.4839 13.2181 19.1876 13.4045 18.8584 13.505C18.5292 13.6056 18.179 13.6168 17.844 13.5373L16.6331 13.248C16.3496 13.1807 16.0533 13.1901 15.7748 13.2752C15.4962 13.3603 15.2455 13.5181 15.0484 13.7321L9.44311 19.8281C10.3101 20.1302 11.222 20.284 12.1404 20.2831H12.1407C12.5287 20.2835 12.9163 20.2558 13.3003 20.2001L13.3006 20.2C14.8846 19.9738 16.3674 19.2893 17.5653 18.2313C18.7633 17.1734 19.6239 15.7883 20.0407 14.2475L20.328 14.3248C19.8961 15.9215 19.0042 17.3569 17.7627 18.4534C16.5213 19.5499 14.9847 20.2592 13.3431 20.4937C12.9449 20.5515 12.5429 20.5803 12.1405 20.5798C11.1119 20.5808 10.0917 20.3945 9.13015 20.0301L8.9251 19.9524L14.8292 13.5316C15.062 13.2785 15.3583 13.0921 15.6876 12.9915C16.0168 12.8909 16.367 12.8798 16.702 12.9593L17.9129 13.2486C18.1963 13.3159 18.4925 13.3065 18.771 13.2214C19.0495 13.1363 19.3002 12.9787 19.4973 12.7647L19.4975 12.7644L20.3137 11.8671C20.2812 10.7995 20.0389 9.74874 19.6004 8.77431L16.8203 11.7989L16.8202 11.7989C16.5242 12.1204 16.1573 12.3689 15.7486 12.5249C15.3398 12.6809 14.9003 12.7402 14.4647 12.6979L13.047 12.5585C12.7948 12.534 12.5403 12.5684 12.3037 12.6588C12.067 12.7491 11.8546 12.8931 11.6833 13.0793L6.63675 18.5632L6.52736 18.4671C5.65901 17.7047 4.87163 16.7898 4.37236 15.718L4.33033 15.6279L7.99784 11.6725C8.23067 11.4195 8.52699 11.2331 8.85621 11.1325C9.18542 11.0319 9.53559 11.0208 9.87056 11.1003L9.8711 11.1004L11.08 11.397L11.0805 11.3971C11.3639 11.4643 11.6601 11.4549 11.9386 11.3698C12.217 11.2846 12.4677 11.1269 12.6646 10.9129L12.6647 10.9128L17.3427 5.82504C16.6487 5.25159 15.8642 4.79684 15.021 4.47931L9.99036 9.95024L9.9903 9.9503C9.69427 10.2718 9.32743 10.5203 8.91867 10.6763C8.50992 10.8323 8.07043 10.8915 7.63483 10.8493L7.63459 10.8492L6.21857 10.7098L6.21845 10.7098C5.96624 10.6854 5.71181 10.7198 5.47518 10.8102C5.23856 10.9006 5.02622 11.0445 4.85487 11.2307L3.65335 12.5405V12.123C3.65318 10.1182 4.36716 8.17853 5.66793 6.65002" fill="white"/>
<path fill-rule="evenodd" clip-rule="evenodd" d="M19.7445 14.4631C19.4923 14.4387 19.2378 14.473 19.0012 14.5634C18.7646 14.6538 18.5523 14.7978 18.3809 14.984L18.3806 14.9843L13.5636 20.1571C14.9987 19.8782 16.336 19.2838 17.4266 18.3161C18.5845 17.2887 19.4303 15.958 19.8679 14.4753L19.7446 14.4631H19.7445ZM18.8948 14.2863C19.1745 14.1795 19.4753 14.1389 19.7734 14.1677L19.7737 14.1678L20.2492 14.2148L20.2031 14.384C19.7662 15.989 18.8702 17.4323 17.6244 18.5378C16.3748 19.6466 14.821 20.2792 13.1771 20.5244L12.7571 20.5871L18.1617 14.7834L18.162 14.783C18.3645 14.5631 18.6153 14.3931 18.8948 14.2863ZM11.0608 3.76709L5.94391 9.33271C5.71117 9.58566 5.41494 9.77207 5.08582 9.87268C4.7567 9.9733 4.40662 9.98447 4.07172 9.90505L4.07118 9.90493L3.85864 9.85602L3.90537 9.70376C4.36814 8.19773 5.24344 6.85052 6.43266 5.81393C7.62187 4.77735 9.07773 4.09259 10.6362 3.83682L11.0608 3.76709ZM4.2389 9.63658C4.5091 9.68343 4.78678 9.6618 5.0464 9.57366C5.30603 9.48553 5.53928 9.33372 5.72471 9.13219L10.2465 4.21379C8.85928 4.51972 7.57579 5.18063 6.52241 6.13147C5.46903 7.08231 4.682 8.29031 4.2389 9.63658ZM20.1934 11.985C20.1664 10.8232 19.891 9.68058 19.3854 8.63355L19.6535 8.50483C20.1774 9.58995 20.4629 10.7741 20.4909 11.9782L20.1934 11.985ZM17.3411 5.98287C16.5937 5.34127 15.7359 4.84019 14.8092 4.50396L14.9109 4.22512C15.8714 4.57361 16.7606 5.09297 17.5352 5.75798L17.3411 5.98287Z" fill="white"/>
<path fill-rule="evenodd" clip-rule="evenodd" d="M5.54918 6.70911C6.84994 5.18062 8.65286 4.16269 10.6363 3.83691L10.6847 4.1297C8.83114 4.43411 7.13903 5.36537 5.8926 6.76707C4.64617 8.16877 3.92133 9.95552 3.83983 11.8273L4.51699 11.0891C4.7195 10.8691 4.97048 10.699 5.25014 10.5922C5.5298 10.4853 5.83052 10.4447 6.1286 10.4735L7.54486 10.613H7.54509C7.93479 10.6508 8.32798 10.5979 8.69366 10.4583C9.05934 10.3188 9.38752 10.0964 9.65236 9.8088M9.65242 9.80868L14.8178 4.1913L14.9111 4.22515C15.8716 4.57366 16.7608 5.09304 17.5355 5.75807L17.6517 5.85798L12.7652 11.1725L12.7651 11.1726C12.5323 11.4256 12.236 11.612 11.9068 11.7126C11.5775 11.8132 11.2274 11.8243 10.8924 11.7448L10.8919 11.7447L9.68291 11.448L9.68244 11.4479C9.39906 11.3808 9.10285 11.3902 8.82438 11.4754C8.5459 11.5605 8.29525 11.7182 8.09829 11.9322L8.09793 11.9326L4.56603 15.7417C5.02333 16.6834 5.71702 17.5047 6.49649 18.2068L11.3454 12.9378C11.5479 12.7178 11.7989 12.5476 12.0785 12.4408C12.3582 12.334 12.6589 12.2934 12.957 12.3222L12.9572 12.3222L14.3748 12.4617C14.7645 12.4994 15.1577 12.4464 15.5235 12.3069C15.8892 12.1673 16.2174 11.9449 16.4823 11.6573L19.5613 8.3076L19.6566 8.50492C20.1806 9.59003 20.4661 10.7742 20.494 11.9783L20.4954 12.0375L19.5983 13.0239L19.598 13.0242C19.3652 13.2771 19.0689 13.4635 18.7396 13.5641C18.4104 13.6647 18.0603 13.6759 17.7253 13.5964L16.5143 13.307C16.2309 13.2398 15.9346 13.2492 15.656 13.3343C15.3774 13.4194 15.1267 13.5772 14.9297 13.7912L9.32436 19.8871C10.1913 20.1892 11.1033 20.3431 12.0216 20.3421H12.0219C12.41 20.3426 12.7975 20.3149 13.1815 20.2591L13.1819 20.2591C14.7659 20.0329 16.2486 19.3484 17.4466 18.2904C18.6446 17.2324 19.5052 15.8474 19.922 14.3066L20.2092 14.3838C19.7773 15.9806 18.8855 17.416 17.644 18.5125C16.4025 19.6089 14.8659 20.3183 13.2244 20.5528C12.8261 20.6106 12.4242 20.6394 12.0217 20.6389C10.9931 20.6399 9.97294 20.4536 9.01141 20.0892L8.80636 20.0115L14.7104 13.5906C14.9432 13.3376 15.2396 13.1512 15.5688 13.0506C15.8981 12.95 16.2482 12.9389 16.5832 13.0184L17.7942 13.3077C18.0776 13.3749 18.3738 13.3655 18.6523 13.2805C18.9308 13.1954 19.1815 13.0378 19.3785 12.8238L19.3788 12.8235L20.195 11.9262C20.1625 10.8586 19.9201 9.80782 19.4817 8.8334L16.7015 11.858L16.7015 11.858C16.4054 12.1795 16.0386 12.428 15.6298 12.584C15.2211 12.74 14.7816 12.7992 14.346 12.757L12.9283 12.6175C12.676 12.5931 12.4216 12.6274 12.1849 12.7178C11.9483 12.8082 11.7359 12.9522 11.5646 13.1384L6.51801 18.6223L6.40862 18.5262C5.54027 17.7638 4.75289 16.8489 4.25361 15.7771L4.21158 15.6869L7.87909 11.7316C8.11192 11.4786 8.40825 11.2922 8.73746 11.1916C9.06668 11.091 9.41685 11.0799 9.75182 11.1593L9.75235 11.1595L10.9613 11.4561L10.9618 11.4562C11.2451 11.5234 11.5414 11.514 11.8198 11.4289C12.0983 11.3437 12.3489 11.186 12.5459 10.972L12.5459 10.9719L17.224 5.88413C16.53 5.31067 15.7454 4.85593 14.9023 4.53839L9.87161 10.0093L9.87155 10.0094C9.57552 10.3309 9.20868 10.5794 8.79993 10.7354C8.39118 10.8914 7.95169 10.9506 7.51608 10.9084L7.51584 10.9083L6.09983 10.7689L6.09971 10.7688C5.8475 10.7445 5.59306 10.7789 5.35644 10.8693C5.11982 10.9597 4.90747 11.1036 4.73612 11.2898L3.53461 12.5996V12.1821C3.53444 10.1773 4.24842 8.23761 5.54918 6.70911" fill="white"/>
</g>
<defs>
<clipPath id="clip0_15853_9564">
<rect width="24" height="24" fill="white"/>
</clipPath>
</defs>
</svg>
