<svg width="24" height="24" viewBox="0 0 24 24" fill="none" xmlns="http://www.w3.org/2000/svg">
<g clip-path="url(#clip0_15853_9574)">
<path d="M-0.0637207 6.62069C-0.0637207 2.96418 2.90046 0 6.55697 0H17.3156C20.972 0 23.9363 2.96418 23.9363 6.62069V17.3793C23.9363 21.0358 20.972 24 17.3156 24H6.55697C2.90046 24 -0.0637207 21.0358 -0.0637207 17.3793V6.62069Z" fill="url(#paint0_linear_15853_9574)"/>
<path fill-rule="evenodd" clip-rule="evenodd" d="M9.22466 3.94451C7.96366 4.38007 6.86304 5.06648 5.93327 5.99721C5.2585 6.67269 4.72665 7.41464 4.30753 8.26522C3.8336 9.22705 3.55288 10.2432 3.45913 11.3363C3.43792 11.5835 3.42967 12.2303 3.4444 12.4898C3.56537 14.6199 4.44142 16.5782 5.94344 18.076C7.29299 19.4217 9.04503 20.2753 10.9291 20.5049C11.2555 20.5447 11.441 20.5561 11.847 20.5614C12.3497 20.5679 12.6452 20.5521 13.0842 20.4952C16.1515 20.0975 18.7811 18.0392 19.9169 15.1469C19.9795 14.9876 20.0881 14.6848 20.0881 14.6696C20.0881 14.6666 20.0314 14.7496 19.9622 14.8541C18.8873 16.4771 17.2469 17.6435 15.3714 18.1184C14.1349 18.4315 12.8153 18.4355 11.5756 18.1297C9.91372 17.7198 8.43257 16.7711 7.3544 15.4261C6.02599 13.769 5.43553 11.6544 5.70901 9.53381C5.88057 8.20355 6.39602 6.94187 7.20944 5.86126C7.44565 5.54744 7.61425 5.35308 7.90574 5.05859C8.29855 4.66174 8.68134 4.34612 9.14026 4.04068C9.24752 3.96928 9.33132 3.91121 9.32649 3.91162C9.32166 3.91203 9.27584 3.92683 9.22466 3.94451ZM13.0842 4.09313C13.0599 4.09515 12.9828 4.10136 12.9127 4.10693C12.2352 4.16077 11.5146 4.3414 10.8762 4.61746C9.96494 5.01146 9.13548 5.63313 8.48595 6.40887C7.23623 7.90145 6.72878 9.89383 7.10998 11.8114C7.12605 11.8922 7.1632 12.0527 7.19256 12.168C7.22191 12.2833 7.24593 12.3792 7.24593 12.3811C7.24593 12.3829 7.24973 12.3845 7.25437 12.3845C7.25901 12.3845 7.26583 12.355 7.26952 12.3189C7.3008 12.0136 7.45264 11.4596 7.60328 11.1012C8.09808 9.92384 8.99865 8.94416 10.1289 8.35365C11.0102 7.89326 12.0642 7.6827 12.9237 7.79537C13.9007 7.92346 14.6737 8.47477 15.0563 9.31635C15.1656 9.5569 15.2474 9.85384 15.2647 10.0726C15.2713 10.1568 15.2809 10.1901 15.2985 10.1901C15.3145 10.1901 15.7304 10.3947 15.9348 10.5031C16.4512 10.7771 17.0276 11.1231 17.096 11.2001L17.1151 11.2216L17.0465 11.2152C16.6258 11.1759 16.1967 11.1876 15.8175 11.2487C14.776 11.4164 14.0369 11.9127 13.652 12.7028C13.5076 12.9993 13.4173 13.3008 13.373 13.6346C13.3547 13.7719 13.3521 14.0729 13.368 14.2016C13.4518 14.8804 13.7989 15.4475 14.3614 15.8244C14.6268 16.0023 14.9277 16.1211 15.2686 16.1828C15.3983 16.2063 15.4336 16.2086 15.6751 16.2091C15.9581 16.2096 16.033 16.2021 16.2678 16.1499C16.4107 16.118 16.6596 16.036 16.8114 15.9705C17.2748 15.7708 17.7377 15.4301 18.1594 14.9782C19.1706 13.8944 19.7529 12.5913 19.8939 11.0963C19.9142 10.881 19.9112 10.1618 19.8891 9.95014C19.8009 9.10712 19.5879 8.36588 19.2262 7.6434C18.6085 6.40988 17.5797 5.38363 16.3412 4.76567C15.6292 4.4104 14.8828 4.19676 14.0539 4.11102C13.9112 4.09626 13.2032 4.08319 13.0842 4.09313ZM13.4417 8.93962C13.377 8.96098 13.3379 8.98506 13.282 9.03789C13.1856 9.12905 13.1379 9.26715 13.1607 9.38942C13.1778 9.48153 13.2222 9.56266 13.2897 9.62515C13.3718 9.70115 13.4334 9.72384 13.5592 9.72435C13.686 9.72488 13.7461 9.70234 13.832 9.62197C13.8962 9.56189 13.9299 9.50596 13.9521 9.42276C13.9999 9.24327 13.9071 9.04937 13.7323 8.96332C13.676 8.93559 13.6576 8.93161 13.5747 8.9293C13.5163 8.92767 13.4661 8.93157 13.4417 8.93962Z" fill="white"/>
</g>
<defs>
<linearGradient id="paint0_linear_15853_9574" x1="-0.0637207" y1="0" x2="23.9676" y2="24.0305" gradientUnits="userSpaceOnUse">
<stop stop-color="#00D2D3"/>
<stop offset="1" stop-color="#C70CBA"/>
</linearGradient>
<clipPath id="clip0_15853_9574">
<rect width="24" height="24" fill="white"/>
</clipPath>
</defs>
</svg>
