<svg width="24" height="24" viewBox="0 0 24 24" fill="none" xmlns="http://www.w3.org/2000/svg">
<g clip-path="url(#clip0_11241_7388)">
<path d="M0 6.62069C0 2.96418 2.96418 0 6.62069 0H17.3793C21.0358 0 24 2.96418 24 6.62069V17.3793C24 21.0358 21.0358 24 17.3793 24H6.62069C2.96418 24 0 21.0358 0 17.3793V6.62069Z" fill="#DB378A"/>
<path d="M6.60268 7.77014C7.16423 7.77014 7.61949 8.22628 7.61949 8.78898C7.61949 9.22953 7.34037 9.60481 6.94966 9.74694L6.94972 15.0247C7.67708 14.9926 8.35344 14.8592 8.95437 14.6382L8.95435 10.5919C8.56365 10.4498 8.28452 10.0745 8.28452 9.63398C8.28452 9.07128 8.73978 8.61515 9.30134 8.61515C9.86289 8.61515 10.3182 9.07128 10.3182 9.63398C10.3182 10.0745 10.039 10.4498 9.64832 10.5919L9.64836 14.326C10.3165 13.964 10.8518 13.4742 11.2067 12.8827C10.9659 12.6652 10.8145 12.3503 10.8145 12C10.8145 11.3439 11.3453 10.8122 12 10.8122C12.0538 10.8122 12.1067 10.8157 12.1586 10.8227C13.0615 9.24963 14.9975 8.29687 17.3075 8.27278L17.3973 8.27232H21.108C21.2996 8.27232 21.455 8.42797 21.455 8.61997C21.455 8.80512 21.3105 8.95647 21.1284 8.96704L21.108 8.96763H20.443L20.443 14.253C20.8337 14.3952 21.1128 14.7704 21.1128 15.211C21.1128 15.7737 20.6575 16.2298 20.096 16.2298C19.5345 16.2298 19.0792 15.7737 19.0792 15.211C19.0792 14.7704 19.3583 14.3951 19.7491 14.253L19.749 8.96763H17.7442L17.7443 14.253C18.135 14.3952 18.4141 14.7704 18.4141 15.211C18.4141 15.7737 17.9589 16.2298 17.3973 16.2298C16.8358 16.2298 16.3805 15.7737 16.3805 15.211C16.3805 14.7704 16.6596 14.3952 17.0503 14.253L17.0503 8.97525C16.3229 9.00743 15.6466 9.14078 15.0456 9.36181L15.0457 13.408C15.4364 13.5502 15.7155 13.9254 15.7155 14.366C15.7155 14.9287 15.2602 15.3848 14.6987 15.3848C14.1371 15.3848 13.6818 14.9287 13.6818 14.366C13.6818 13.9254 13.961 13.5502 14.3517 13.408L14.3516 9.67401C13.6835 10.0359 13.1482 10.5258 12.7933 11.1173C13.0341 11.3348 13.1855 11.6497 13.1855 12C13.1855 12.656 12.6547 13.1878 12 13.1878C11.9462 13.1878 11.8933 13.1842 11.8414 13.1773C10.9385 14.7503 9.00248 15.7031 6.69253 15.7272L6.60268 15.7277H2.89201C2.70039 15.7277 2.54504 15.572 2.54504 15.38C2.54504 15.1949 2.68949 15.0435 2.87163 15.0329L2.89201 15.0323L3.55704 15.0323L3.55704 9.74694C3.16633 9.60482 2.8872 9.22953 2.8872 8.78898C2.8872 8.22628 3.34246 7.77014 3.90401 7.77014C4.46557 7.77014 4.92083 8.22628 4.92083 8.78898C4.92083 9.22949 4.64175 9.60475 4.2511 9.7469L4.25098 15.0323H6.25567L6.25569 9.74694C5.86498 9.60481 5.58586 9.22953 5.58586 8.78898C5.58586 8.22628 6.04112 7.77014 6.60268 7.77014Z" fill="white"/>
</g>
<defs>
<clipPath id="clip0_11241_7388">
<rect width="24" height="24" fill="white"/>
</clipPath>
</defs>
</svg>
