<svg width="24" height="24" viewBox="0 0 24 24" fill="none" xmlns="http://www.w3.org/2000/svg">
<g clip-path="url(#clip0_11241_7391)">
<path d="M0 6.62069C0 2.96418 2.96418 0 6.62069 0H17.3793C21.0358 0 24 2.96418 24 6.62069V17.3793C24 21.0358 21.0358 24 17.3793 24H6.62069C2.96418 24 0 21.0358 0 17.3793V6.62069Z" fill="black"/>
<path opacity="0.7" d="M0 16.6288V17.3793C0 21.0298 2.95459 23.9904 6.60293 24L17.3969 24C21.0453 23.9905 24 21.0299 24 17.3793V16.6959C21.2553 17.4389 17.1206 18.2652 12.3047 18.2652C7.34342 18.2652 2.90955 17.3883 0 16.6288Z" fill="url(#paint0_linear_11241_7391)"/>
<path d="M6.59538 24C3.1396 23.987 0.30802 21.3263 0.0235596 17.9411C3.18546 17.572 7.91583 17.1165 12.001 17.1165C16.0853 17.1165 20.8147 17.5719 23.9766 17.9409C23.6922 21.3263 20.8604 23.9871 17.4045 24L6.59538 24Z" fill="url(#paint1_linear_11241_7391)"/>
<path d="M0 16.9085V17.3793C0 18.0948 0.113501 18.7838 0.323481 19.4293C0.780573 19.3764 1.26899 19.3219 1.78222 19.2674C4.79675 18.9473 8.63408 18.6309 12.0009 18.6309C15.3677 18.6309 19.2051 18.9473 22.2196 19.2674C22.7322 19.3218 23.22 19.3762 23.6766 19.4291C23.8865 18.7837 24 18.0947 24 17.3793V16.9083C23.5269 16.8535 23.0206 16.7969 22.4879 16.7404C19.4411 16.4169 15.5005 16.0897 12.0009 16.0897C8.50129 16.0897 4.5607 16.4169 1.51392 16.7404C0.980566 16.797 0.473588 16.8536 0 16.9085Z" fill="url(#paint2_linear_11241_7391)"/>
<path d="M5.60145 18.9895C5.3549 18.9895 5.11729 19.0205 5.02052 19.0467C4.87968 19.0863 4.84455 19.1479 4.81804 19.2757L4.25914 21.8546C4.2502 21.9073 4.24158 21.9513 4.24158 21.9954C4.24158 22.1232 4.32525 22.2065 4.46162 22.2065C4.61141 22.2065 4.67305 22.1097 4.70371 21.96L4.86211 21.2251C4.97198 21.2382 5.11729 21.2516 5.32424 21.2516C6.2354 21.2516 6.80292 20.7588 6.80292 20.015C6.80292 19.3635 6.34942 18.9895 5.60145 18.9895ZM5.3022 20.8291C5.16136 20.8291 5.05118 20.8246 4.95026 20.8115L5.24504 19.4427C5.33733 19.4296 5.47403 19.4117 5.61487 19.4117C6.09903 19.4117 6.34559 19.6407 6.34559 20.0192C6.34527 20.5033 5.993 20.8291 5.3022 20.8291Z" fill="white"/>
<path d="M19.9396 21.357C19.8648 21.357 19.8163 21.4011 19.724 21.5023C19.5611 21.6697 19.4599 21.762 19.3324 21.762C19.2181 21.762 19.1565 21.6697 19.1565 21.5199C19.1565 21.4362 19.174 21.335 19.1961 21.2251L19.3589 20.4592H19.8476C20.0015 20.4592 20.0941 20.3711 20.0941 20.2127C20.0941 20.1245 20.037 20.0588 19.9051 20.0588H19.4468L19.526 19.7023C19.5349 19.6496 19.5435 19.6011 19.5435 19.557C19.5435 19.4337 19.4599 19.3456 19.3235 19.3456C19.1782 19.3456 19.1124 19.4424 19.0814 19.5922L18.9802 20.0588H18.7732C18.6148 20.0588 18.5225 20.1469 18.5225 20.3053C18.5225 20.3935 18.5842 20.4592 18.7161 20.4592H18.8965L18.7336 21.2161C18.7161 21.2998 18.694 21.4362 18.694 21.577C18.694 21.9335 18.8789 22.1931 19.275 22.1931C19.5039 22.1931 19.7061 22.0788 19.8604 21.9421C20.0101 21.8102 20.12 21.6473 20.12 21.5416C20.12 21.4407 20.0408 21.357 19.9396 21.357Z" fill="white"/>
<path d="M9.81745 19.2491C9.81745 19.1214 9.72931 19.0377 9.59294 19.0377C9.44763 19.0377 9.38183 19.1345 9.35086 19.2843L8.8009 21.8412C8.78781 21.8939 8.77886 21.9379 8.77886 21.982C8.77886 22.1097 8.86701 22.1931 8.99891 22.1931C9.14869 22.1931 9.21449 22.0963 9.24546 21.9465L9.79542 19.39C9.80436 19.337 9.81745 19.2932 9.81745 19.2491Z" fill="white"/>
<path d="M17.673 20.0147C16.9688 20.0147 16.4891 20.7144 16.4891 21.379C16.4891 21.3915 16.4894 21.4039 16.4897 21.4161C16.3792 21.5837 16.2381 21.7575 16.1413 21.7575C16.071 21.7575 16.0445 21.6914 16.0445 21.5901C16.0445 21.4669 16.0797 21.2599 16.1193 21.0795L16.4846 19.3894C16.4936 19.3367 16.5022 19.2926 16.5022 19.2485C16.5022 19.1208 16.4185 19.0371 16.2821 19.0371C16.1324 19.0371 16.071 19.1339 16.0401 19.2836L15.842 20.199C15.7363 20.0891 15.5821 20.014 15.3489 20.014C14.8814 20.014 14.411 20.374 14.2276 20.9262C14.0258 21.448 13.8453 21.7568 13.7029 21.7568C13.6502 21.7568 13.6192 21.7128 13.6192 21.638C13.6192 21.418 13.7425 20.8811 13.7952 20.6215C13.8128 20.5247 13.8217 20.4851 13.8217 20.4279C13.8217 20.2344 13.5004 20.0054 13.0824 20.0054C12.5988 20.0054 12.161 20.3117 11.9416 20.7665C11.6155 21.3426 11.3163 21.7568 11.1681 21.7568C11.102 21.7568 11.0799 21.6732 11.0624 21.594L10.9528 20.9875L11.626 20.4375C11.6877 20.3848 11.7669 20.3098 11.7669 20.213C11.7669 20.0942 11.6877 20.015 11.5689 20.015C11.4807 20.015 11.406 20.0677 11.3313 20.1293L10.3192 20.9654L10.658 19.39C10.667 19.3373 10.6801 19.2932 10.6801 19.2491C10.6801 19.1214 10.5919 19.0377 10.4556 19.0377C10.3102 19.0377 10.2445 19.1345 10.2135 19.2843L9.66352 21.8412C9.65042 21.8939 9.64148 21.9379 9.64148 21.982C9.64148 22.1097 9.72963 22.1931 9.86153 22.1931C10.0113 22.1931 10.0771 22.0963 10.1081 21.9465L10.1787 21.6166L10.5922 21.2823L10.6935 21.7926C10.7331 21.9951 10.8388 22.1931 11.1115 22.1931C11.383 22.1931 11.5967 21.9453 11.8106 21.6103C11.8755 21.9612 12.1252 22.1931 12.4717 22.1931C12.8195 22.1931 13.0571 21.9861 13.2111 21.7089V21.7179C13.2111 22.004 13.3564 22.1931 13.6116 22.1931C13.8425 22.1931 14.0341 22.0539 14.2053 21.7581C14.3024 22.0159 14.5195 22.1931 14.8217 22.1931C15.1781 22.1931 15.4333 21.9775 15.5961 21.6783V21.7048C15.5961 22.0216 15.7545 22.1934 16.0142 22.1934C16.2435 22.1934 16.4383 22.0602 16.6047 21.8437C16.7312 22.0602 16.9579 22.1934 17.2642 22.1934C17.9684 22.1934 18.4481 21.4937 18.4481 20.8246C18.4478 20.3535 18.1616 20.0147 17.673 20.0147ZM13.2855 20.9083C13.1577 21.4582 12.885 21.7709 12.5768 21.7709C12.3699 21.7709 12.2555 21.6125 12.2555 21.3749C12.2555 20.9083 12.5944 20.4065 13.0476 20.4065C13.1839 20.4065 13.2896 20.4461 13.3819 20.5033L13.2855 20.9083ZM15.7367 20.6751C15.5958 21.3222 15.2745 21.7709 14.9226 21.7709C14.729 21.7709 14.6144 21.6211 14.6144 21.3749C14.6144 20.9041 14.9401 20.4155 15.3758 20.4155C15.5431 20.4155 15.6705 20.4727 15.7632 20.5474L15.7367 20.6751ZM17.3166 21.7709C17.0614 21.7709 16.9557 21.586 16.9557 21.3528C16.9557 20.9258 17.2505 20.4375 17.6203 20.4375C17.8755 20.4375 17.9812 20.6224 17.9812 20.8556C17.9812 21.2867 17.6864 21.7709 17.3166 21.7709Z" fill="white"/>
<path d="M7.89868 20.0147C7.19447 20.0147 6.71478 20.7144 6.71478 21.379C6.71478 21.8542 7.00093 22.1931 7.48925 22.1931C8.19346 22.1931 8.67315 21.4934 8.67315 20.8243C8.67315 20.3535 8.387 20.0147 7.89868 20.0147ZM7.54226 21.7709C7.28709 21.7709 7.18138 21.586 7.18138 21.3528C7.18138 20.9258 7.47616 20.4375 7.84599 20.4375C8.10116 20.4375 8.20687 20.6224 8.20687 20.8556C8.20655 21.2867 7.91177 21.7709 7.54226 21.7709Z" fill="white"/>
<path d="M12.0001 12.9559H5.57312L15.2135 3.3902H18.427L12.0001 12.9559Z" fill="url(#paint3_linear_11241_7391)"/>
</g>
<defs>
<linearGradient id="paint0_linear_11241_7391" x1="-3.55493" y1="15.5374" x2="27.9821" y2="21.0671" gradientUnits="userSpaceOnUse">
<stop stop-color="#9E3BFF"/>
<stop offset="1" stop-color="#6D55FF"/>
</linearGradient>
<linearGradient id="paint1_linear_11241_7391" x1="-3.55493" y1="16.831" x2="27.5567" y2="16.831" gradientUnits="userSpaceOnUse">
<stop stop-color="#9E3BFF"/>
<stop offset="1" stop-color="#492CFF"/>
</linearGradient>
<linearGradient id="paint2_linear_11241_7391" x1="-3.54345" y1="23.8996" x2="27.4358" y2="24.4634" gradientUnits="userSpaceOnUse">
<stop stop-color="white" stop-opacity="0"/>
<stop offset="0.500885" stop-color="#9F7BFF"/>
<stop offset="1" stop-color="white" stop-opacity="0"/>
</linearGradient>
<linearGradient id="paint3_linear_11241_7391" x1="12.0001" y1="3.3902" x2="12.0001" y2="12.9559" gradientUnits="userSpaceOnUse">
<stop stop-color="#7AEDCF"/>
<stop offset="0.201333" stop-color="#68CEFA"/>
<stop offset="0.403244" stop-color="#689CF8"/>
<stop offset="0.602076" stop-color="#AC57C0"/>
<stop offset="0.801867" stop-color="#E65659"/>
<stop offset="1" stop-color="#F2C241"/>
</linearGradient>
<clipPath id="clip0_11241_7391">
<rect width="24" height="24" fill="white"/>
</clipPath>
</defs>
</svg>
