<svg width="24" height="24" viewBox="0 0 24 24" fill="none" xmlns="http://www.w3.org/2000/svg">
<g clip-path="url(#clip0_10929_3548)">
<path d="M0 6.62069C0 2.96418 2.96418 0 6.62069 0H17.3793C21.0358 0 24 2.96418 24 6.62069V17.3793C24 21.0358 21.0358 24 17.3793 24H6.62069C2.96418 24 0 21.0358 0 17.3793V6.62069Z" fill="#1A0A2D"/>
<path d="M19.8129 18.3H8.83465C8.78317 18.3 8.7317 18.2862 8.6849 18.2587L4.71664 15.8581C4.58561 15.7801 4.53881 15.6102 4.61837 15.4817C4.66984 15.3991 4.76343 15.344 4.86638 15.3486H15.8446C15.8961 15.3486 15.9476 15.3624 15.9944 15.3899L19.9626 17.7905C20.0937 17.8685 20.1405 18.0384 20.0609 18.1669C20.0094 18.2495 19.9158 18.3 19.8129 18.3ZM8.9142 17.7446H18.8208L15.7698 15.8948H5.86313L8.9142 17.7446Z" fill="white"/>
<path d="M19.1298 8.65171H8.15155C8.10008 8.65171 8.0486 8.63794 8.00181 8.6104L4.03823 6.2098C3.90252 6.13177 3.8604 5.96193 3.93995 5.83341C3.99143 5.7462 4.08502 5.69571 4.18797 5.7003H15.1662C15.2177 5.7003 15.2692 5.71407 15.316 5.74161L19.2842 8.14221C19.4199 8.22024 19.462 8.39008 19.3825 8.5186C19.3263 8.60581 19.2327 8.6563 19.1298 8.65171ZM8.23111 8.1009H18.1377L15.0867 6.25111H5.18004L8.23111 8.1009Z" fill="white"/>
<path d="M11.8682 10.3087C10.9322 10.3087 10.1662 11.1852 10.221 12.0988C10.2725 12.9664 10.9838 13.6595 11.8682 13.7008C12.8029 13.7008 13.6091 12.9348 13.5997 11.9887C13.5802 11.0623 12.7898 10.3087 11.8682 10.3087Z" fill="white"/>
</g>
<defs>
<clipPath id="clip0_10929_3548">
<rect width="24" height="24" fill="white"/>
</clipPath>
</defs>
</svg>
