<svg width="24" height="24" viewBox="0 0 24 24" fill="none" xmlns="http://www.w3.org/2000/svg">
<g clip-path="url(#clip0_15853_9545)">
<path d="M-0.0637207 6.62069C-0.0637207 2.96418 2.90046 0 6.55697 0H17.3156C20.972 0 23.9363 2.96418 23.9363 6.62069V17.3793C23.9363 21.0358 20.972 24 17.3156 24H6.55697C2.90046 24 -0.0637207 21.0358 -0.0637207 17.3793V6.62069Z" fill="url(#paint0_linear_15853_9545)"/>
<path d="M15.7948 4.60986L10.8527 9.07993C10.341 9.54262 9.67515 9.80007 8.98383 9.80252L7.5108 9.80602L7.50577 4.61036H4.84256V19.4587H6.29499C7.10737 19.4587 7.86499 19.0302 8.26238 18.3261C8.2659 18.3211 8.26741 18.3161 8.27042 18.3131C8.53418 17.8415 8.66631 16.9099 8.64069 16.2738C8.58342 14.8197 8.34829 14.4416 8.34829 14.4416C8.29906 15.4382 7.25307 15.4922 7.25307 15.4922C7.99712 14.7852 7.59168 14.2501 7.59168 14.2501C6.27439 15.1837 5.94532 14.1871 5.9202 14.0966C5.9614 14.1316 6.33619 14.4431 7.04859 13.4715C7.80168 12.4449 8.80598 10.7331 9.44503 10.2931C10.0851 9.85153 10.6925 9.88803 10.6925 9.88803C10.6925 9.88803 11.0422 9.41647 11.9671 9.02442C12.8915 8.63487 13.4843 9.20645 13.4843 9.20645C12.5388 9.96554 11.2552 11.2122 11.1833 12.9989C11.1261 14.4446 14.257 16.9254 13.7069 20.5899C14.0359 19.7578 14.1681 18.9242 14.055 17.8925C13.9646 17.0599 13.4255 15.3212 13.4255 15.3212L16.4324 19.4567H19.7572L13.2587 10.5706L19.7572 4.60986H15.7948Z" fill="white"/>
<path d="M9.73991 11.0037C9.52991 11.3502 9.52991 11.4562 9.52991 11.4562C9.52991 11.4562 10.2639 11.3327 10.4629 10.4641C10.4644 10.4641 9.99463 10.5841 9.73991 11.0037Z" fill="white"/>
</g>
<defs>
<linearGradient id="paint0_linear_15853_9545" x1="-0.0637207" y1="0" x2="23.9363" y2="24" gradientUnits="userSpaceOnUse">
<stop stop-color="#FF4D3C"/>
<stop offset="1" stop-color="#E91657"/>
</linearGradient>
<clipPath id="clip0_15853_9545">
<rect width="24" height="24" fill="white"/>
</clipPath>
</defs>
</svg>
