<svg width="24" height="24" viewBox="0 0 24 24" fill="none" xmlns="http://www.w3.org/2000/svg">
<g clip-path="url(#clip0_12537_5490)">
<path d="M0.5 6.62069C0.5 3.24032 3.24032 0.5 6.62069 0.5H17.3793C20.7596 0.5 23.5 3.24033 23.5 6.62069V17.3793C23.5 20.7596 20.7596 23.5 17.3793 23.5H6.62069C3.24033 23.5 0.5 20.7596 0.5 17.3793V6.62069Z" fill="white" stroke="#EBEEF4"/>
<path d="M6.6 9.0499C7.46906 9.0499 8.175 8.34397 8.175 7.4749C8.175 6.60584 7.46906 5.8999 6.6 5.8999C5.73094 5.8999 5.025 6.60584 5.025 7.4749C5.025 8.34397 5.73094 9.0499 6.6 9.0499Z" fill="black"/>
<path fill-rule="evenodd" clip-rule="evenodd" d="M7.5 13.5499C7.5 12.3462 8.02594 11.2633 8.86125 10.5237V10.5208C8.34937 10.1608 7.725 9.9499 7.05 9.9499H6.15C4.40906 9.9499 3 11.359 3 13.0999C3 14.3571 3.73687 15.4399 4.8 15.9462V16.6999C4.8 17.1977 5.20219 17.5999 5.7 17.5999H7.5C7.99781 17.5999 8.4 17.1977 8.4 16.6999V16.0952C7.8375 15.4005 7.5 14.5146 7.5 13.5499ZM4.35 13.0999C4.35 12.6443 4.51875 12.2252 4.8 11.9102V14.2896C4.51875 13.9746 4.35 13.5555 4.35 13.0999Z" fill="black"/>
<path d="M16.4322 14.2914C16.9376 13.8965 17.5737 13.6612 18.2647 13.6612C18.5914 13.6612 18.9059 13.7138 19.2 13.811V11.913C19.4812 12.228 19.65 12.6471 19.65 13.1027C19.65 13.393 19.5815 13.6673 19.4591 13.9103C19.8824 14.0959 20.2544 14.377 20.5475 14.7265C20.8346 14.2519 21 13.6955 21 13.0999C21 11.359 19.5909 9.9499 17.85 9.9499H16.95C16.275 9.9499 15.6506 10.1608 15.1388 10.5208C15.9741 11.2633 16.5 12.3462 16.5 13.5499C16.5 13.8032 16.4767 14.051 16.4322 14.2914Z" fill="black"/>
<path d="M17.4 9.0499C18.2691 9.0499 18.975 8.34397 18.975 7.4749C18.975 6.60584 18.2691 5.8999 17.4 5.8999C16.5309 5.8999 15.825 6.60584 15.825 7.4749C15.825 8.34397 16.5309 9.0499 17.4 9.0499Z" fill="black"/>
<path d="M10.2 7.6999C10.2 8.69272 11.0072 9.4999 12 9.4999C12.9928 9.4999 13.8 8.69272 13.8 7.6999C13.8 6.70709 12.9928 5.8999 12 5.8999C11.0072 5.8999 10.2 6.70709 10.2 7.6999Z" fill="black"/>
<path fill-rule="evenodd" clip-rule="evenodd" d="M13.8 16.3962C14.8631 15.8899 15.6 14.8071 15.6 13.5499C15.6 11.809 14.1909 10.3999 12.45 10.3999H11.55C9.80906 10.3999 8.4 11.809 8.4 13.5499C8.4 14.8071 9.13687 15.8899 10.2 16.3962V17.5999C10.2 18.0977 10.6022 18.4999 11.1 18.4999H12.9C13.3978 18.4999 13.8 18.0977 13.8 17.5999V16.3962ZM10.2 14.7396C9.91875 14.4218 9.75 14.0055 9.75 13.5499C9.75 13.0943 9.91875 12.678 10.2 12.3602V14.7396ZM13.8 14.7424V12.363C14.0812 12.678 14.25 13.0971 14.25 13.5527C14.25 14.0083 14.0812 14.4246 13.8 14.7424Z" fill="black"/>
<circle cx="18.2649" cy="17.0061" r="1.81176" fill="#E6007A"/>
</g>
<defs>
<clipPath id="clip0_12537_5490">
<rect width="24" height="24" fill="white"/>
</clipPath>
</defs>
</svg>
