<svg width="24" height="24" viewBox="0 0 24 24" fill="none" xmlns="http://www.w3.org/2000/svg">
<g clip-path="url(#clip0_10929_3532)">
<path d="M0 6.62069C0 2.96418 2.96418 0 6.62069 0H17.3793C21.0358 0 24 2.96418 24 6.62069V17.3793C24 21.0358 21.0358 24 17.3793 24H6.62069C2.96418 24 0 21.0358 0 17.3793V6.62069Z" fill="#E6007A"/>
<path d="M12 7.58217C13.5273 7.58217 14.7655 6.86711 14.7655 5.98503C14.7655 5.10295 13.5273 4.38788 12 4.38788C10.4726 4.38788 9.23441 5.10295 9.23441 5.98503C9.23441 6.86711 10.4726 7.58217 12 7.58217Z" fill="white"/>
<path d="M12 19.612C13.5273 19.612 14.7655 18.8969 14.7655 18.0149C14.7655 17.1328 13.5273 16.4177 12 16.4177C10.4726 16.4177 9.23441 17.1328 9.23441 18.0149C9.23441 18.8969 10.4726 19.612 12 19.612Z" fill="white"/>
<path d="M8.14536 9.79112C8.90905 8.47825 8.90421 7.05644 8.13456 6.6154C7.3649 6.17436 6.12188 6.88111 5.35819 8.19397C4.59451 9.50683 4.59935 10.9286 5.369 11.3697C6.13865 11.8107 7.38167 11.104 8.14536 9.79112Z" fill="white"/>
<path d="M18.6418 15.806C19.4055 14.4932 19.4007 13.0713 18.631 12.6303C17.8614 12.1893 16.6183 12.896 15.8546 14.2089C15.091 15.5217 15.0958 16.9435 15.8654 17.3846C16.6351 17.8256 17.8781 17.1189 18.6418 15.806Z" fill="white"/>
<path d="M8.13455 17.3845C8.9042 16.9435 8.90904 15.5216 8.14536 14.2088C7.38167 12.8959 6.13865 12.1892 5.36899 12.6302C4.59934 13.0713 4.5945 14.4931 5.35819 15.8059C6.12188 17.1188 7.3649 17.8255 8.13455 17.3845Z" fill="white"/>
<path d="M18.6309 11.3697C19.4006 10.9287 19.4054 9.50688 18.6417 8.19402C17.8781 6.88116 16.635 6.1744 15.8654 6.61544C15.0957 7.05648 15.0909 8.4783 15.8546 9.79116C16.6183 11.104 17.8613 11.8108 18.6309 11.3697Z" fill="white"/>
</g>
<defs>
<clipPath id="clip0_10929_3532">
<rect width="24" height="24" fill="white"/>
</clipPath>
</defs>
</svg>
