<svg width="24" height="24" viewBox="0 0 24 24" fill="none" xmlns="http://www.w3.org/2000/svg">
<g clip-path="url(#clip0_15853_9535)">
<path d="M-0.0637207 6.62069C-0.0637207 2.96418 2.90046 0 6.55697 0H17.3156C20.972 0 23.9363 2.96418 23.9363 6.62069V17.3793C23.9363 21.0358 20.972 24 17.3156 24H6.55697C2.90046 24 -0.0637207 21.0358 -0.0637207 17.3793V6.62069Z" fill="#1A2023"/>
<path fill-rule="evenodd" clip-rule="evenodd" d="M16.2663 5.61394C15.0034 4.77008 13.5184 4.31973 11.9994 4.31982C10.9911 4.31982 9.99253 4.51847 9.06063 4.90441C8.12909 5.29034 7.2823 5.85599 6.56916 6.56909C5.85602 7.28222 5.29065 8.12878 4.90456 9.06049C4.51847 9.99225 4.31999 10.9909 4.31999 11.9994C4.31999 13.5184 4.77019 15.0033 5.61408 16.2663C6.45797 17.5293 7.65752 18.5137 9.06063 19.0951C10.4641 19.6765 12.0084 19.8286 13.4981 19.5323C14.9881 19.2359 16.3565 18.5045 17.4307 17.4304C18.5046 16.3563 19.2362 14.9878 19.5325 13.498C19.8287 12.0082 19.6766 10.464 19.0953 9.06058C18.514 7.65725 17.5296 6.45779 16.2663 5.61394ZM11.9994 18.7192C11.9994 18.7192 9.49416 15.7108 9.49416 11.9994C9.49416 8.28844 11.9994 5.27993 11.9994 5.27993C11.9994 5.27993 14.505 8.28799 14.505 11.9994C14.505 15.7108 11.9994 18.7192 11.9994 18.7192Z" fill="#4FFFB0"/>
</g>
<defs>
<clipPath id="clip0_15853_9535">
<rect width="24" height="24" fill="white"/>
</clipPath>
</defs>
</svg>
