<svg width="24" height="24" viewBox="0 0 24 24" fill="none" xmlns="http://www.w3.org/2000/svg">
<g clip-path="url(#clip0_15854_11722)">
<path d="M-0.0637207 6.62069C-0.0637207 2.96418 2.90046 0 6.55697 0H17.3156C20.972 0 23.9363 2.96418 23.9363 6.62069V17.3793C23.9363 21.0358 20.972 24 17.3156 24H6.55697C2.90046 24 -0.0637207 21.0358 -0.0637207 17.3793V6.62069Z" fill="#1F1F1F"/>
<path d="M6.11589 7.38706L12.7821 3.39307C13.0122 3.25504 13.2951 3.25504 13.5252 3.39307L17.7238 5.90821C18.146 6.16016 18.222 6.76047 17.8779 7.11977L16.4551 8.60519C16.2187 8.85276 15.8493 8.90315 15.558 8.72788L13.5315 7.51413C13.2972 7.37391 13.008 7.37391 12.7737 7.51413L5.74437 11.7688V8.05528C5.74437 7.77923 5.8858 7.52509 6.11589 7.38706Z" fill="#FA8C16"/>
<path d="M17.7386 18.0812L13.5231 20.6073C13.293 20.7454 13.0101 20.7454 12.7821 20.6073L6.11589 16.6133C5.8858 16.4753 5.74437 16.2212 5.74437 15.9451V12.5777L9.17882 10.5117V13.8879C9.17882 14.1639 9.32025 14.4181 9.55034 14.5539L12.7821 16.4907C13.0122 16.6287 13.2951 16.6287 13.5231 16.4907L15.5685 15.2659C15.8598 15.0907 16.2271 15.1411 16.4636 15.3886L17.8905 16.8697C18.2367 17.2268 18.1607 17.8293 17.7386 18.0812Z" fill="white"/>
</g>
<defs>
<clipPath id="clip0_15854_11722">
<rect width="24" height="24" fill="white"/>
</clipPath>
</defs>
</svg>
