<svg width="24" height="24" viewBox="0 0 24 24" fill="none" xmlns="http://www.w3.org/2000/svg">
<g clip-path="url(#clip0_15854_9637)">
<path d="M0 6.62069C0 2.96418 2.96418 0 6.62069 0H17.3793C21.0358 0 24 2.96418 24 6.62069V17.3793C24 21.0358 21.0358 24 17.3793 24H6.62069C2.96418 24 0 21.0358 0 17.3793V6.62069Z" fill="black"/>
<path opacity="0.7" d="M0 16.6289V17.3794C0 21.0299 2.95459 23.9905 6.60293 24L17.3969 24C21.0453 23.9905 24 21.0299 24 17.3794V16.696C21.2553 17.439 17.1206 18.2653 12.3047 18.2653C7.34342 18.2653 2.90955 17.3883 0 16.6289Z" fill="url(#paint0_linear_15854_9637)"/>
<path d="M6.59532 23.9997C3.13954 23.9867 0.307959 21.3261 0.0234985 17.9409C3.1854 17.5718 7.91577 17.1162 12.0009 17.1162C16.0853 17.1162 20.8146 17.5716 23.9765 17.9407C23.6921 21.3261 20.8604 23.9868 17.4045 23.9997L6.59532 23.9997Z" fill="url(#paint1_linear_15854_9637)"/>
<path d="M0 16.9087V17.3794C0 18.0949 0.113501 18.7839 0.323481 19.4294C0.780573 19.3765 1.26899 19.322 1.78222 19.2675C4.79675 18.9474 8.63408 18.631 12.0009 18.631C15.3677 18.631 19.2051 18.9474 22.2196 19.2675C22.7322 19.3219 23.22 19.3763 23.6766 19.4292C23.8865 18.7838 24 18.0949 24 17.3794V16.9085C23.5269 16.8536 23.0206 16.7971 22.4879 16.7405C19.4411 16.417 15.5005 16.0898 12.0009 16.0898C8.50129 16.0898 4.5607 16.417 1.51392 16.7405C0.980566 16.7971 0.473588 16.8538 0 16.9087Z" fill="url(#paint2_linear_15854_9637)"/>
<path d="M4.89315 22.0745C4.68483 22.0745 4.51465 21.9058 4.51465 21.6992V19.8868C4.51465 19.6803 4.68483 19.5145 4.89315 19.5145C5.10148 19.5145 5.27167 19.6832 5.27167 19.8898V21.7021C5.26873 21.9058 5.10148 22.0745 4.89315 22.0745Z" fill="white"/>
<path d="M6.49255 22.0745C6.38106 22.0745 6.2725 22.025 6.20208 21.9407L5.43919 21.0359C5.32182 20.8963 5.32182 20.6956 5.43919 20.5559L6.20208 19.6483C6.33705 19.4884 6.57471 19.468 6.73316 19.5989C6.89161 19.7298 6.91508 19.9684 6.78304 20.1254L6.22261 20.7945L6.78304 21.4607C6.91508 21.6207 6.89454 21.8563 6.73316 21.9872C6.66568 22.0425 6.58058 22.0745 6.49255 22.0745Z" fill="white"/>
<path d="M9.00389 22.0745H7.40471C7.19638 22.0745 7.02621 21.9058 7.02621 21.6992V19.8868C7.02621 19.6803 7.19638 19.5116 7.40471 19.5116C7.61304 19.5116 7.78323 19.6803 7.78323 19.8868V21.3239H8.62823V19.8868C8.62823 19.6803 8.7984 19.5116 9.00672 19.5116C9.21516 19.5116 9.38534 19.6803 9.38534 19.8868V21.6992C9.38238 21.9058 9.21221 22.0745 9.00389 22.0745Z" fill="white"/>
<path d="M11.5188 22.0745H9.91973C9.71141 22.0687 9.54714 21.897 9.55293 21.6904C9.55883 21.4927 9.72015 21.3326 9.91973 21.3268H11.1404V21.3064L9.81416 20.9312C9.65272 20.8846 9.54124 20.7392 9.54124 20.5705V19.8868C9.54124 19.6803 9.71141 19.5145 9.91973 19.5145H11.5188C11.7272 19.5145 11.8973 19.6832 11.8973 19.8898C11.8973 20.0962 11.7272 20.2651 11.5188 20.2651H10.2982V20.2883L11.6245 20.6636C11.7859 20.7101 11.8973 20.8556 11.8973 21.0243V21.7021C11.8973 21.9086 11.7272 22.0745 11.5188 22.0745Z" fill="white"/>
<path d="M16.7734 22.0745C16.5651 22.0745 16.3978 21.9058 16.3978 21.6992V20.7014L16.2218 20.8526C16.0809 20.972 15.8726 20.972 15.7288 20.8526L15.5528 20.7014V21.6992C15.5528 21.9058 15.3826 22.0745 15.1743 22.0745C14.966 22.0745 14.7957 21.9058 14.7957 21.6992V19.8868C14.7957 19.6803 14.966 19.5116 15.1743 19.5116C15.2653 19.5116 15.3503 19.5436 15.4208 19.6017L15.9754 20.073L16.527 19.6017C16.6853 19.468 16.9231 19.4854 17.061 19.6424C17.1196 19.7094 17.1519 19.7966 17.1519 19.8868V21.6992C17.1549 21.9058 16.9847 22.0745 16.7734 22.0745Z" fill="white"/>
<path d="M14.2592 22.0745C14.0509 22.0745 13.8807 21.9058 13.8807 21.6992V21.3821L12.9388 20.2621H12.8097V21.3239H13.3789C13.5873 21.3298 13.7517 21.5013 13.7457 21.7079C13.7398 21.9058 13.5785 22.0657 13.3789 22.0715H12.4312C12.2229 22.0715 12.0557 21.9028 12.0557 21.6962V19.8868C12.0557 19.6803 12.2259 19.5145 12.4312 19.5145H13.1178C13.2293 19.5145 13.3378 19.5639 13.4084 19.6483L14.5497 21.0068C14.6055 21.0737 14.6377 21.1581 14.6377 21.2454V21.6992C14.6377 21.9058 14.4705 22.0745 14.2592 22.0745Z" fill="white"/>
<path d="M19.517 22.0745C19.3087 22.0745 19.1385 21.9058 19.1385 21.6992V21.3821L18.1966 20.2621H18.0646V21.3239H18.6338C18.8421 21.3298 19.0065 21.5013 19.0006 21.7079C18.9947 21.9058 18.8334 22.0657 18.6338 22.0715H17.689C17.4807 22.0715 17.3105 21.9028 17.3105 21.6962V19.8868C17.3105 19.6803 17.4807 19.5145 17.689 19.5145H18.3756C18.4871 19.5145 18.5927 19.5639 18.6661 19.6483L19.8075 21.0068C19.8633 21.0737 19.8955 21.1581 19.8955 21.2454V21.6992C19.8955 21.9086 19.7253 22.0745 19.517 22.0745Z" fill="white"/>
<path d="M12.792 18.6011C12.7656 18.5778 12.7363 18.5604 12.7011 18.5545C12.657 18.5487 12.613 18.5778 12.5837 18.5981C12.5543 18.6186 12.4956 18.6709 12.4722 18.6913C12.4487 18.7116 12.39 18.7233 12.2932 18.7814C12.1963 18.8396 11.8208 19.0781 11.8208 19.0781H11.9176L11.4805 19.3021H11.5244L11.4629 19.3487C11.4981 19.3575 11.5332 19.3516 11.5655 19.3341V19.3487C11.5655 19.3487 12.0849 19.1451 12.1847 19.1974L12.123 19.2148C12.1289 19.2148 12.2256 19.2206 12.2256 19.2206C12.2315 19.2614 12.255 19.2993 12.2902 19.3196C12.3489 19.3575 12.3519 19.3807 12.3519 19.3807C12.3519 19.3807 12.3225 19.3923 12.3225 19.4098C12.3782 19.3923 12.4369 19.3923 12.4898 19.4098C12.4898 19.4098 12.4869 19.3923 12.4458 19.3807C12.4047 19.3632 12.3695 19.337 12.343 19.2993C12.3196 19.2673 12.3108 19.2265 12.3254 19.1886C12.3401 19.1509 12.39 19.1304 12.4926 19.0781C12.613 19.017 12.6424 18.9705 12.657 18.9327C12.6717 18.8948 12.7011 18.825 12.7128 18.7901C12.7245 18.7581 12.745 18.732 12.7715 18.7086C12.8037 18.6913 12.8389 18.6766 12.8713 18.6651C12.877 18.6679 12.8126 18.6156 12.792 18.6011Z" fill="white"/>
<path d="M12.0001 12.9558H5.57315L15.2136 3.39014H18.4271L12.0001 12.9558Z" fill="url(#paint3_linear_15854_9637)"/>
</g>
<defs>
<linearGradient id="paint0_linear_15854_9637" x1="-3.55493" y1="15.5375" x2="27.9821" y2="21.0671" gradientUnits="userSpaceOnUse">
<stop stop-color="#9E3BFF"/>
<stop offset="1" stop-color="#6D55FF"/>
</linearGradient>
<linearGradient id="paint1_linear_15854_9637" x1="-3.55499" y1="16.8307" x2="27.5567" y2="16.8307" gradientUnits="userSpaceOnUse">
<stop stop-color="#9E3BFF"/>
<stop offset="1" stop-color="#492CFF"/>
</linearGradient>
<linearGradient id="paint2_linear_15854_9637" x1="-3.54345" y1="23.8997" x2="27.4358" y2="24.4635" gradientUnits="userSpaceOnUse">
<stop stop-color="white" stop-opacity="0"/>
<stop offset="0.500885" stop-color="#9F7BFF"/>
<stop offset="1" stop-color="white" stop-opacity="0"/>
</linearGradient>
<linearGradient id="paint3_linear_15854_9637" x1="12.0001" y1="3.39014" x2="12.0001" y2="12.9558" gradientUnits="userSpaceOnUse">
<stop stop-color="#7AEDCF"/>
<stop offset="0.201333" stop-color="#68CEFA"/>
<stop offset="0.403244" stop-color="#689CF8"/>
<stop offset="0.602076" stop-color="#AC57C0"/>
<stop offset="0.801867" stop-color="#E65659"/>
<stop offset="1" stop-color="#F2C241"/>
</linearGradient>
<clipPath id="clip0_15854_9637">
<rect width="24" height="24" fill="white"/>
</clipPath>
</defs>
</svg>
