<svg width="24" height="24" viewBox="0 0 24 24" fill="none" xmlns="http://www.w3.org/2000/svg">
<g clip-path="url(#clip0_35425_24293)">
<path fill-rule="evenodd" clip-rule="evenodd" d="M24.0001 12C24.0001 18.6275 18.6275 24.0001 12 24.0001C5.3726 24.0001 0 18.6275 0 12C0 5.3726 5.3726 0 12 0C18.6275 0 24.0001 5.3726 24.0001 12ZM12.6345 3.02983C12.2412 2.80277 11.7567 2.80277 11.3634 3.02983L4.32267 7.09482C4.09062 7.22879 3.94767 7.47639 3.94767 7.74434V15.8743C3.94767 16.3284 4.18993 16.748 4.58321 16.9751L11.624 21.0401C11.856 21.1741 12.1419 21.1741 12.374 21.0401L19.4147 16.9751C19.808 16.748 20.0503 16.3284 20.0503 15.8743V7.74434C20.0503 7.47639 19.9073 7.22879 19.6753 7.09482L12.6345 3.02983ZM6.19767 7.74434L11.999 4.39495L17.8003 7.74434L14.9177 9.40857C14.2078 8.59708 13.1637 8.08319 11.9991 8.08319C10.8343 8.08319 9.79024 8.59711 9.08032 9.40864L6.19767 7.74434ZM15.6685 10.7072L18.5503 9.04338V15.7421L12.749 19.0915L12.7491 15.7636C14.5311 15.4143 15.8755 13.844 15.8755 11.9597C15.8755 11.522 15.8028 11.1005 15.6685 10.7072ZM11.2491 15.7636L11.249 19.0915L5.44767 15.7421V9.04338L8.32959 10.7073C8.19536 11.1006 8.12259 11.5221 8.12259 11.9597C8.12259 13.844 9.46706 15.4143 11.2491 15.7636ZM9.94013 10.7719C10.3522 10.0596 11.1204 9.58319 11.9991 9.58319C12.8777 9.58319 13.6459 10.0596 14.058 10.7718C14.2598 11.1206 14.3755 11.5255 14.3755 11.9597C14.3755 13.2722 13.3116 14.3361 11.9991 14.3361C10.6866 14.3361 9.62259 13.2722 9.62259 11.9597C9.62259 11.5255 9.73833 11.1207 9.94013 10.7719Z" fill="#C2C8D4"/>
</g>
<defs>
<clipPath id="clip0_35425_24293">
<rect width="24" height="24" fill="white"/>
</clipPath>
</defs>
</svg>
