<svg width="40" height="40" viewBox="0 0 40 40" fill="none" xmlns="http://www.w3.org/2000/svg">
<g clip-path="url(#clip0_14896_21725)">
<path d="M0.580315 26.2938C0.74597 26.4675 0.95105 26.6299 1.19555 26.7809C1.49123 26.9635 1.78135 27.09 2.06589 27.1603C2.35328 27.2324 2.62034 27.2579 2.86706 27.2368C3.11958 27.2159 3.33558 27.1571 3.51507 27.0605C3.6769 26.9734 3.77951 26.882 3.82289 26.7863C3.87205 26.6909 3.87925 26.595 3.84447 26.4987C3.81264 26.4008 3.75473 26.3038 3.67073 26.2077C3.59251 26.1117 3.50552 26.0189 3.40975 25.9291C3.31682 25.8411 3.23095 25.7592 3.15214 25.6833C3.07911 25.6076 3.03045 25.5401 3.00616 25.4809C2.98765 25.4218 3.01223 25.3741 3.0799 25.3377C3.13287 25.3091 3.19558 25.2935 3.26805 25.2906C3.34052 25.2877 3.42406 25.3019 3.51868 25.3332C3.61624 25.3628 3.7233 25.4136 3.83986 25.4856C3.97065 25.5664 4.0851 25.6609 4.18321 25.7691C4.28427 25.8758 4.36615 25.9944 4.42886 26.1249L5.33781 25.9363C5.27824 25.7975 5.17528 25.6574 5.02893 25.516C4.88837 25.3747 4.72 25.2435 4.52383 25.1224C4.23099 24.9415 3.94088 24.815 3.65349 24.743C3.36611 24.6709 3.09763 24.6445 2.84806 24.6638C2.60133 24.6849 2.38528 24.7453 2.1999 24.8451C2.03513 24.9338 1.92958 25.0268 1.88326 25.124C1.83988 25.2197 1.8341 25.3165 1.86593 25.4144C1.90071 25.5107 1.9572 25.6068 2.03542 25.7027C2.11648 25.8004 2.20347 25.8933 2.2964 25.9813C2.39217 26.071 2.47657 26.1538 2.54959 26.2295C2.62262 26.3052 2.66981 26.3735 2.69116 26.4343C2.71251 26.4951 2.68788 26.5445 2.61726 26.5825C2.56724 26.6094 2.50605 26.6227 2.43368 26.6222C2.3671 26.6219 2.2865 26.6061 2.19188 26.5749C2.10021 26.542 1.99609 26.4896 1.87952 26.4176C1.70609 26.3105 1.5592 26.1875 1.43883 26.0485C1.32425 25.9097 1.24429 25.7753 1.19894 25.6452L0.277344 25.8209C0.319455 25.9626 0.420445 26.1202 0.580315 26.2938Z" fill="white"/>
<path d="M3.39588 28.0685L6.48543 26.4054L7.32982 26.9269L4.24027 28.5901L3.39588 28.0685Z" fill="white"/>
<path d="M8.35703 27.5614L5.26748 29.2245L6.0479 29.7065L7.64127 28.8488L7.11581 30.0141L7.4911 30.2459L9.59445 30.0022L7.96271 30.8892L8.73887 31.3686L11.8199 29.7002L11.1248 29.2709L8.31793 29.6007L9.05216 27.9907L8.35703 27.5614Z" fill="white"/>
<path fill-rule="evenodd" clip-rule="evenodd" d="M13.8119 30.9306L9.40459 31.7798L10.266 32.3119L11.0991 32.1325L12.365 32.9144L11.9975 33.3813L12.876 33.9239L14.6435 31.4442L13.8119 30.9306ZM12.7595 32.4132L13.3643 31.6448L11.9933 31.94L12.7595 32.4132Z" fill="white"/>
<path d="M19.9998 34.7128L36.8123 24.3016V14.4075L19.9998 4.91086L3.18726 14.4075L-0.000244141 12.5471L19.9998 1.25L39.9998 12.5472V26.0769L19.9998 38.4619L14.0139 34.7552L17.0411 32.8806L19.9998 34.7128Z" fill="#F7574F"/>
<path d="M30.5888 18.2167L19.9998 12.2354L9.43958 18.2004L6.30438 16.3105L19.9998 8.57452L33.724 16.3268L30.5888 18.2167Z" fill="#F7574F"/>
<path fill-rule="evenodd" clip-rule="evenodd" d="M11.8617 26.0062L19.9998 31.0456L28.1378 26.0062V20.5009L19.9998 15.904L11.8617 20.5009V26.0062ZM19.9998 27.2475L24.9086 24.2076V22.3856L19.9998 19.6127L15.0909 22.3856V24.2076L19.9998 27.2475Z" fill="#F7574F"/>
</g>
<defs>
<clipPath id="clip0_14896_21725">
<rect width="40" height="40" fill="white"/>
</clipPath>
</defs>
</svg>
