<svg width="24" height="24" viewBox="0 0 24 24" fill="none" xmlns="http://www.w3.org/2000/svg">
<path d="M12 22.5C17.799 22.5 22.5 17.799 22.5 12C22.5 6.20101 17.799 1.5 12 1.5C6.20101 1.5 1.5 6.20101 1.5 12C1.5 17.799 6.20101 22.5 12 22.5Z" fill="#321D47"/>
<path d="M16.6516 15.0293H14.0994L13.6199 13.806H10.3805L9.90107 15.0293H7.34888L10.4032 7.75659H13.5935L16.6516 15.0293ZM12.004 9.64676L11.1583 11.8172H12.8459L12.004 9.64676Z" fill="white"/>
<path d="M13.701 4.4405C13.701 5.37994 12.9395 6.1415 12 6.1415C11.0606 6.1415 10.299 5.37994 10.299 4.4405C10.299 3.50107 11.0606 2.7395 12 2.7395C12.9395 2.7395 13.701 3.50107 13.701 4.4405Z" fill="#E40B7B"/>
<path d="M13.701 19.5606C13.701 20.5 12.9395 21.2616 12 21.2616C11.0606 21.2616 10.299 20.5 10.299 19.5606C10.299 18.6212 11.0606 17.8596 12 17.8596C12.9395 17.8596 13.701 18.6212 13.701 19.5606Z" fill="#E40B7B"/>
<path d="M19.3976 9.69417C18.584 10.1639 17.5437 9.88514 17.074 9.07156C16.6043 8.25799 16.883 7.21767 17.6966 6.74795C18.5102 6.27824 19.5505 6.55699 20.0202 7.37056C20.4899 8.18414 20.2112 9.22446 19.3976 9.69417Z" fill="#E40B7B"/>
<path d="M6.30324 17.2542C5.48967 17.7239 4.44935 17.4452 3.97963 16.6316C3.50992 15.818 3.78867 14.7777 4.60224 14.308C5.41582 13.8383 6.45613 14.117 6.92585 14.9306C7.39557 15.7442 7.11682 16.7845 6.30324 17.2542Z" fill="#E40B7B"/>
<path d="M4.60225 9.69417C5.41583 10.1639 6.45614 9.88513 6.92586 9.07156C7.39558 8.25798 7.11683 7.21766 6.30325 6.74795C5.48967 6.27823 4.44936 6.55698 3.97964 7.37056C3.50992 8.18413 3.78867 9.22445 4.60225 9.69417Z" fill="#E40B7B"/>
<path d="M17.6966 17.2542C18.5101 17.7239 19.5505 17.4452 20.0202 16.6316C20.4899 15.818 20.2111 14.7777 19.3976 14.308C18.584 13.8383 17.5437 14.117 17.074 14.9306C16.6042 15.7442 16.883 16.7845 17.6966 17.2542Z" fill="#E40B7B"/>
</svg>
