<svg width="40" height="40" viewBox="0 0 40 40" fill="none" xmlns="http://www.w3.org/2000/svg">
<path d="M20 38C29.9411 38 38 29.9411 38 20C38 10.0589 29.9411 2 20 2C10.0589 2 2 10.0589 2 20C2 29.9411 10.0589 38 20 38Z" fill="url(#paint0_linear_22738_11931)"/>
<path d="M22.8352 7.40078C22.8352 8.96651 21.5659 10.2358 20.0002 10.2358C18.4345 10.2358 17.1652 8.96651 17.1652 7.40078C17.1652 5.83505 18.4345 4.56578 20.0002 4.56578C21.5659 4.56578 22.8352 5.83505 22.8352 7.40078Z" fill="white"/>
<path d="M22.8352 32.6008C22.8352 34.1665 21.5659 35.4358 20.0002 35.4358C18.4345 35.4358 17.1652 34.1665 17.1652 32.6008C17.1652 31.0351 18.4345 29.7658 20.0002 29.7658C21.5659 29.7658 22.8352 31.0351 22.8352 32.6008Z" fill="white"/>
<path d="M32.3294 16.1568C30.9735 16.9396 29.2396 16.4751 28.4567 15.1191C27.6739 13.7631 28.1385 12.0293 29.4944 11.2464C30.8504 10.4636 32.5842 10.9281 33.3671 12.2841C34.15 13.6401 33.6854 15.3739 32.3294 16.1568Z" fill="white"/>
<path d="M10.5056 28.7568C9.14961 29.5396 7.41575 29.0751 6.63289 27.7191C5.85002 26.3631 6.31461 24.6293 7.67057 23.8464C9.02653 23.0636 10.7604 23.5281 11.5433 24.8841C12.3261 26.2401 11.8615 27.9739 10.5056 28.7568Z" fill="white"/>
<path d="M7.67056 16.1568C9.02652 16.9396 10.7604 16.475 11.5432 15.1191C12.3261 13.7631 11.8615 12.0293 10.5056 11.2464C9.1496 10.4635 7.41574 10.9281 6.63288 12.2841C5.85002 13.64 6.3146 15.3739 7.67056 16.1568Z" fill="white"/>
<path d="M29.4944 28.7568C30.8504 29.5396 32.5842 29.075 33.3671 27.7191C34.15 26.3631 33.6854 24.6293 32.3294 23.8464C30.9734 23.0635 29.2396 23.5281 28.4567 24.8841C27.6739 26.24 28.1384 27.9739 29.4944 28.7568Z" fill="white"/>
<path fill-rule="evenodd" clip-rule="evenodd" d="M24.5674 19.6422C24.6454 19.6012 24.7204 19.5579 24.7924 19.5122C25.334 19.1752 25.724 18.7628 25.9623 18.2748C26.2115 17.7753 26.3361 17.235 26.3361 16.6541C26.3361 15.655 26.0219 14.8766 25.3936 14.3189C24.7653 13.7496 23.8878 13.465 22.7612 13.465H14.019V19.8259V26.5353H23.0862C24.397 26.5353 25.399 26.1984 26.0923 25.5245C26.7965 24.8391 27.1485 23.9503 27.1485 22.8582C27.1485 21.8242 26.7965 21.0051 26.0923 20.4009C25.6946 20.0543 25.1863 19.8014 24.5674 19.6422ZM23.2324 23.5901C22.9724 23.8341 22.6095 23.9561 22.1437 23.9561H17.3385V21.0806H21.9487C22.4904 21.0806 22.9074 21.2142 23.1999 21.4814C23.4924 21.7486 23.6387 22.103 23.6387 22.5445C23.6387 22.986 23.5033 23.3345 23.2324 23.5901ZM17.3385 18.5711H21.4775C21.8675 18.5711 22.1871 18.4491 22.4362 18.2051C22.6962 17.9495 22.8262 17.6242 22.8262 17.2292C22.8262 16.8691 22.7125 16.5844 22.485 16.3753C22.2575 16.1545 21.9379 16.0442 21.5262 16.0442H17.3385V18.5711Z" fill="white"/>
<defs>
<linearGradient id="paint0_linear_22738_11931" x1="38" y1="20" x2="2" y2="20" gradientUnits="userSpaceOnUse">
<stop stop-color="#E9176D"/>
<stop offset="1" stop-color="#F68728"/>
</linearGradient>
</defs>
</svg>
