<svg width="40" height="40" viewBox="0 0 40 40" fill="none" xmlns="http://www.w3.org/2000/svg">
<path d="M9.15392 11.5C10.2824 11.5 11.1972 12.4166 11.1972 13.5474C11.1972 14.4327 10.6363 15.1868 9.85121 15.4724L9.85131 26.0783C11.313 26.0136 12.6721 25.7457 13.8797 25.3015L13.8797 17.1705C13.0946 16.8849 12.5336 16.1307 12.5336 15.2454C12.5336 14.1147 13.4485 13.1981 14.577 13.1981C15.7054 13.1981 16.6203 14.1147 16.6203 15.2454C16.6203 16.1307 16.0594 16.8849 15.2742 17.1705L15.2743 24.6741C16.6169 23.9468 17.6926 22.9625 18.4059 21.7738C17.9219 21.3368 17.6177 20.704 17.6177 20C17.6177 18.6816 18.6843 17.613 20 17.613C20.108 17.613 20.2144 17.6202 20.3186 17.6342C22.1331 14.4731 26.0236 12.5585 30.6655 12.5101L30.8461 12.5091H38.3028C38.6878 12.5091 39 12.8219 39 13.2078C39 13.5798 38.7097 13.884 38.3437 13.9052L38.3028 13.9064H36.9664L36.9664 24.5276C37.7516 24.8132 38.3124 25.5673 38.3124 26.4526C38.3124 27.5833 37.3975 28.5 36.2691 28.5C35.1407 28.5 34.2258 27.5833 34.2258 26.4526C34.2258 25.5672 34.7868 24.813 35.572 24.5275L35.5719 13.9064H31.5432L31.5434 24.5276C32.3285 24.8132 32.8894 25.5673 32.8894 26.4526C32.8894 27.5833 31.9745 28.5 30.8461 28.5C29.7177 28.5 28.8028 27.5833 28.8028 26.4526C28.8028 25.5673 29.3636 24.8132 30.1488 24.5276L30.1487 13.9217C28.687 13.9864 27.3279 14.2543 26.1203 14.6985L26.1203 22.8295C26.9055 23.1151 27.4664 23.8692 27.4664 24.7546C27.4664 25.8852 26.5515 26.8019 25.423 26.8019C24.2946 26.8019 23.3797 25.8852 23.3797 24.7546C23.3797 23.8692 23.9406 23.1151 24.7257 22.8295L24.7257 15.3259C23.3831 16.0532 22.3074 17.0375 21.5941 18.2262C22.0781 18.6632 22.3823 19.296 22.3823 20C22.3823 21.3183 21.3157 22.387 20 22.387C19.892 22.387 19.7856 22.3798 19.6814 22.3658C17.867 25.5269 13.9764 27.4415 9.33449 27.4899L9.15392 27.4909H1.69725C1.31217 27.4909 1 27.1781 1 26.7922C1 26.4202 1.29027 26.116 1.65628 26.0948L1.69725 26.0936L3.03364 26.0935L3.03364 15.4724C2.24849 15.1868 1.68756 14.4327 1.68756 13.5474C1.68756 12.4166 2.60242 11.5 3.73089 11.5C4.85935 11.5 5.77421 12.4166 5.77421 13.5474C5.77421 14.4326 5.21339 15.1867 4.42837 15.4724L4.42813 26.0935H8.4566L8.45664 15.4724C7.67151 15.1868 7.1106 14.4327 7.1106 13.5474C7.1106 12.4166 8.02546 11.5 9.15392 11.5Z" fill="#DB378A"/>
</svg>
