<svg width="24" height="24" viewBox="0 0 24 24" fill="none" xmlns="http://www.w3.org/2000/svg">
<path d="M12 22.5C17.799 22.5 22.5 17.799 22.5 12C22.5 6.20101 17.799 1.5 12 1.5C6.20101 1.5 1.5 6.20101 1.5 12C1.5 17.799 6.20101 22.5 12 22.5Z" fill="#321D47"/>
<path d="M13.7011 4.44047C13.7011 5.37991 12.9396 6.14147 12.0001 6.14147C11.0607 6.14147 10.2991 5.37991 10.2991 4.44047C10.2991 3.50104 11.0607 2.73947 12.0001 2.73947C12.9396 2.73947 13.7011 3.50104 13.7011 4.44047Z" fill="#E40B7B"/>
<path d="M13.7011 19.5605C13.7011 20.4999 12.9396 21.2615 12.0001 21.2615C11.0607 21.2615 10.2991 20.4999 10.2991 19.5605C10.2991 18.621 11.0607 17.8595 12.0001 17.8595C12.9396 17.8595 13.7011 18.621 13.7011 19.5605Z" fill="#E40B7B"/>
<path d="M19.3976 9.69407C18.5841 10.1638 17.5438 9.88504 17.074 9.07146C16.6043 8.25789 16.8831 7.21757 17.6966 6.74785C18.5102 6.27814 19.5505 6.55689 20.0203 7.37046C20.49 8.18404 20.2112 9.22435 19.3976 9.69407Z" fill="#E40B7B"/>
<path d="M6.30335 17.2541C5.48977 17.7238 4.44945 17.445 3.97974 16.6315C3.51002 15.8179 3.78877 14.7776 4.60235 14.3079C5.41592 13.8381 6.45624 14.1169 6.92595 14.9305C7.39567 15.744 7.11692 16.7844 6.30335 17.2541Z" fill="#E40B7B"/>
<path d="M4.60234 9.69407C5.41592 10.1638 6.45623 9.88503 6.92595 9.07146C7.39567 8.25788 7.11692 7.21756 6.30334 6.74785C5.48976 6.27813 4.44945 6.55688 3.97973 7.37046C3.51001 8.18403 3.78876 9.22435 4.60234 9.69407Z" fill="#E40B7B"/>
<path d="M17.6966 17.2541C18.5102 17.7238 19.5505 17.445 20.0203 16.6315C20.49 15.8179 20.2112 14.7776 19.3976 14.3078C18.5841 13.8381 17.5438 14.1169 17.074 14.9305C16.6043 15.744 16.8831 16.7843 17.6966 17.2541Z" fill="#E40B7B"/>
<path fill-rule="evenodd" clip-rule="evenodd" d="M14.7405 11.7853C14.7872 11.7607 14.8322 11.7347 14.8754 11.7073C15.2004 11.5051 15.4344 11.2577 15.5774 10.9649C15.7269 10.6652 15.8016 10.341 15.8016 9.99247C15.8016 9.39298 15.6132 8.92594 15.2362 8.59134C14.8592 8.24977 14.3327 8.07898 13.6567 8.07898H8.41144V11.8955V15.9212H13.8517C14.6382 15.9212 15.2394 15.719 15.6554 15.3147C16.0779 14.9034 16.2891 14.3702 16.2891 13.7149C16.2891 13.0945 16.0779 12.6031 15.6554 12.2406C15.4167 12.0326 15.1118 11.8809 14.7405 11.7853ZM13.9395 14.1541C13.7835 14.3005 13.5657 14.3736 13.2862 14.3736H10.4031V12.6484H13.1693C13.4942 12.6484 13.7445 12.7285 13.92 12.8889C14.0955 13.0492 14.1832 13.2618 14.1832 13.5267C14.1832 13.7916 14.102 14.0007 13.9395 14.1541ZM10.4031 11.1427H12.8865C13.1205 11.1427 13.3122 11.0695 13.4617 10.9231C13.6177 10.7697 13.6957 10.5745 13.6957 10.3375C13.6957 10.1214 13.6275 9.95065 13.491 9.82517C13.3545 9.69273 13.1628 9.62651 12.9158 9.62651H10.4031V11.1427Z" fill="white"/>
</svg>
