<svg width="40" height="40" viewBox="0 0 40 40" fill="none" xmlns="http://www.w3.org/2000/svg">
<path d="M9.2 14.0998C10.9381 14.0998 12.35 12.6879 12.35 10.9498C12.35 9.21168 10.9381 7.7998 9.2 7.7998C7.46187 7.7998 6.05 9.21168 6.05 10.9498C6.05 12.6879 7.46187 14.0998 9.2 14.0998Z" fill="white"/>
<path fill-rule="evenodd" clip-rule="evenodd" d="M11 23.0998C11 20.6923 12.0519 18.5267 13.7225 17.0473V17.0417C12.6987 16.3217 11.45 15.8998 10.1 15.8998H8.3C4.81812 15.8998 2 18.7179 2 22.1998C2 24.7142 3.47375 26.8798 5.6 27.8923V29.3998C5.6 30.3954 6.40437 31.1998 7.4 31.1998H11C11.9956 31.1998 12.8 30.3954 12.8 29.3998V28.1904C11.675 26.8011 11 25.0292 11 23.0998ZM4.7 22.1998C4.7 21.2886 5.0375 20.4504 5.6 19.8204V24.5792C5.0375 23.9492 4.7 23.1111 4.7 22.1998Z" fill="white"/>
<path d="M28.8645 24.5829C29.8752 23.7931 31.1473 23.3224 32.5294 23.3224C33.1828 23.3224 33.8117 23.4276 34.4 23.622V19.8261C34.9625 20.4561 35.3 21.2942 35.3 22.2054C35.3 22.786 35.163 23.3346 34.9181 23.8207C35.7649 24.1917 36.5087 24.754 37.0951 25.4529C37.6693 24.5038 38 23.3909 38 22.1998C38 18.7179 35.1819 15.8998 31.7 15.8998H29.9C28.55 15.8998 27.3013 16.3217 26.2775 17.0417C27.9481 18.5267 29 20.6923 29 23.0998C29 23.6064 28.9535 24.1021 28.8645 24.5829Z" fill="white"/>
<path d="M30.8 14.0998C32.5381 14.0998 33.95 12.6879 33.95 10.9498C33.95 9.21168 32.5381 7.7998 30.8 7.7998C29.0619 7.7998 27.65 9.21168 27.65 10.9498C27.65 12.6879 29.0619 14.0998 30.8 14.0998Z" fill="white"/>
<path d="M16.4 11.3998C16.4 13.3854 18.0144 14.9998 20 14.9998C21.9856 14.9998 23.6 13.3854 23.6 11.3998C23.6 9.41418 21.9856 7.7998 20 7.7998C18.0144 7.7998 16.4 9.41418 16.4 11.3998Z" fill="white"/>
<path fill-rule="evenodd" clip-rule="evenodd" d="M23.6 28.7923C25.7262 27.7798 27.2 25.6142 27.2 23.0998C27.2 19.6179 24.3819 16.7998 20.9 16.7998H19.1C15.6181 16.7998 12.8 19.6179 12.8 23.0998C12.8 25.6142 14.2737 27.7798 16.4 28.7923V31.1998C16.4 32.1954 17.2044 32.9998 18.2 32.9998H21.8C22.7956 32.9998 23.6 32.1954 23.6 31.1998V28.7923ZM16.4 25.4792C15.8375 24.8436 15.5 24.0111 15.5 23.0998C15.5 22.1886 15.8375 21.3561 16.4 20.7204V25.4792ZM23.6 25.4848V20.7261C24.1625 21.3561 24.5 22.1942 24.5 23.1054C24.5 24.0167 24.1625 24.8492 23.6 25.4848Z" fill="white"/>
<circle cx="32.5295" cy="29.279" r="4.6911" fill="#E6007A"/>
<path d="M32.5292 27.3514C33.1916 27.3514 33.7286 27.0393 33.7286 26.6542C33.7286 26.2692 33.1916 25.957 32.5292 25.957C31.8669 25.957 31.3299 26.2692 31.3299 26.6542C31.3299 27.0393 31.8669 27.3514 32.5292 27.3514Z" fill="white"/>
<path d="M32.5292 32.6028C33.1916 32.6028 33.7286 32.2906 33.7286 31.9056C33.7286 31.5205 33.1916 31.2084 32.5292 31.2084C31.8669 31.2084 31.3299 31.5205 31.3299 31.9056C31.3299 32.2906 31.8669 32.6028 32.5292 32.6028Z" fill="white"/>
<path d="M30.8576 28.3157C31.1888 27.7426 31.1867 27.1219 30.8529 26.9294C30.5191 26.7369 29.9801 27.0454 29.6489 27.6185C29.3177 28.1916 29.3198 28.8122 29.6536 29.0048C29.9873 29.1973 30.5264 28.8888 30.8576 28.3157Z" fill="white"/>
<path d="M35.4096 30.9413C35.7408 30.3682 35.7387 29.7476 35.4049 29.5551C35.0712 29.3625 34.5321 29.6711 34.2009 30.2442C33.8697 30.8172 33.8718 31.4379 34.2056 31.6304C34.5394 31.823 35.0784 31.5144 35.4096 30.9413Z" fill="white"/>
<path d="M30.8529 31.6304C31.1867 31.4379 31.1888 30.8172 30.8576 30.2441C30.5264 29.671 29.9873 29.3625 29.6536 29.555C29.3198 29.7476 29.3177 30.3682 29.6489 30.9413C29.9801 31.5144 30.5191 31.8229 30.8529 31.6304Z" fill="white"/>
<path d="M35.4049 29.0048C35.7387 28.8123 35.7408 28.1916 35.4096 27.6185C35.0784 27.0454 34.5393 26.7369 34.2056 26.9294C33.8718 27.1219 33.8697 27.7426 34.2009 28.3157C34.5321 28.8888 35.0711 29.1973 35.4049 29.0048Z" fill="white"/>
</svg>
