<svg width="40" height="40" viewBox="0 0 40 40" fill="none" xmlns="http://www.w3.org/2000/svg">
<path d="M11.8656 20.3737C12.2362 20.3737 12.5366 20.6741 12.5366 21.0448L12.5366 28.9429C12.5366 29.3135 12.2362 29.6139 11.8656 29.6139C11.4949 29.6139 11.1945 29.3135 11.1945 28.9429L11.1945 21.0448C11.1945 20.6741 11.4949 20.3737 11.8656 20.3737Z" fill="#4FCCC6"/>
<path d="M8.60337 22.2479C8.97399 22.2479 9.27444 22.5483 9.27444 22.9189L9.27444 28.5276C9.27444 28.8982 8.974 29.1987 8.60337 29.1987C8.23275 29.1987 7.9323 28.8983 7.9323 28.5276L7.9323 22.9189C7.9323 22.5483 8.23275 22.2479 8.60337 22.2479Z" fill="#4FCCC6"/>
<path d="M15.6844 21.0448C15.6844 20.6741 15.3839 20.3737 15.0133 20.3737C14.6427 20.3737 14.3422 20.6741 14.3422 21.0448V36.4714C14.3422 36.8421 14.6427 37.1425 15.0133 37.1425C15.3839 37.1425 15.6844 36.8421 15.6844 36.4714L15.6844 21.0448Z" fill="#4FCCC6"/>
<path d="M18.1038 21.5746C18.4744 21.5746 18.7748 21.875 18.7748 22.2457V27.742C18.7748 28.1126 18.4744 28.413 18.1038 28.413C17.7332 28.413 17.4327 28.1126 17.4327 27.742V22.2457C17.4327 21.875 17.7332 21.5746 18.1038 21.5746Z" fill="#4FCCC6"/>
<path d="M21.9798 23.9546C21.9798 23.584 21.6794 23.2835 21.3087 23.2835C20.9381 23.2835 20.6377 23.584 20.6377 23.9546V25.7233C20.6377 26.0939 20.9381 26.3943 21.3087 26.3943C21.6794 26.3943 21.9798 26.0939 21.9798 25.7233V23.9546Z" fill="#4FCCC6"/>
<path d="M24.4565 24.6365C24.8271 24.6365 25.1275 24.937 25.1275 25.3076V33.4231C25.1275 33.7937 24.8271 34.0941 24.4565 34.0941C24.0858 34.0941 23.7854 33.7937 23.7854 33.4231V25.3076C23.7854 24.937 24.0858 24.6365 24.4565 24.6365Z" fill="#4FCCC6"/>
<path d="M28.3325 25.7233C28.3325 25.3527 28.032 25.0522 27.6614 25.0522C27.2908 25.0522 26.9903 25.3527 26.9903 25.7233V32.4069C26.9903 32.7776 27.2908 33.078 27.6614 33.078C28.032 33.078 28.3325 32.7776 28.3325 32.4069V25.7233Z" fill="#4FCCC6"/>
<path d="M30.9236 24.1678C31.2942 24.1678 31.5947 24.4683 31.5947 24.8389V28.1119C31.5947 28.4825 31.2942 28.783 30.9236 28.783C30.553 28.783 30.2525 28.4825 30.2525 28.1119V24.8389C30.2525 24.4683 30.553 24.1678 30.9236 24.1678Z" fill="#4FCCC6"/>
<path d="M33.0036 15.8616C33.0036 16.6894 32.9263 17.4992 32.7784 18.2841C26.445 21.6634 23.4685 19.7137 20.5128 17.7776C17.3752 15.7224 14.2607 13.6824 7.17846 18.0487C7.05804 17.3376 6.99534 16.6069 6.99534 15.8616C6.99534 8.67954 12.8175 2.85742 19.9995 2.85742C27.1814 2.85742 33.0036 8.67954 33.0036 15.8616Z" fill="#F2B705"/>
<path d="M15.0472 18.533C13.1899 18.3894 10.7899 18.9583 7.35148 21.1109C7.03734 21.3076 6.62325 21.2124 6.42658 20.8982C6.22991 20.5841 6.32514 20.17 6.63928 19.9734C10.2145 17.7351 12.9029 17.0211 15.1506 17.1948C19.0942 17.4997 21.6118 21.0652 25.3939 21.7259C27.1687 22.036 29.4313 21.7302 32.6818 19.9533C33.007 19.7755 33.4147 19.8951 33.5925 20.2203C33.7702 20.5455 33.6507 20.9532 33.3255 21.131C29.8987 23.0042 27.325 23.4258 25.163 23.048C19.6489 21.5746 18.8794 18.8293 15.0472 18.533Z" fill="#4FCCC6"/>
</svg>
