<svg width="24" height="24" viewBox="0 0 24 24" fill="none" xmlns="http://www.w3.org/2000/svg">
<path fill-rule="evenodd" clip-rule="evenodd" d="M8.79415 2.53846C7.31929 3.04789 6.03203 3.85071 4.94458 4.93929C4.15537 5.72932 3.53332 6.5971 3.04313 7.59193C2.48882 8.71687 2.16049 9.90532 2.05084 11.1838C2.02604 11.4729 2.01639 12.2294 2.03362 12.5329C2.1751 15.0243 3.19972 17.3147 4.95647 19.0665C6.53489 20.6405 8.58406 21.6388 10.7877 21.9073C11.1694 21.9539 11.3864 21.9672 11.8612 21.9734C12.4491 21.981 12.7948 21.9625 13.3082 21.896C16.8957 21.4309 19.9713 19.0235 21.2997 15.6407C21.3729 15.4544 21.4999 15.1002 21.4999 15.0824C21.4999 15.0789 21.4337 15.176 21.3527 15.2982C20.0955 17.1964 18.1769 18.5607 15.9834 19.1161C14.5371 19.4824 12.9937 19.4869 11.5438 19.1293C9.60007 18.6499 7.86773 17.5404 6.60672 15.9673C5.05302 14.0291 4.36242 11.5559 4.68228 9.07566C4.88294 7.5198 5.4858 6.04416 6.43717 4.78028C6.71344 4.41323 6.91064 4.18592 7.25156 3.84149C7.71098 3.37733 8.15869 3.00818 8.69543 2.65094C8.82089 2.56744 8.9189 2.49952 8.91325 2.5C8.90761 2.50048 8.85401 2.51778 8.79415 2.53846ZM13.3082 2.7123C13.2798 2.71466 13.1896 2.72192 13.1077 2.72843C12.3153 2.7914 11.4725 3.00266 10.7258 3.32554C9.65997 3.78637 8.68984 4.51346 7.93017 5.42076C6.4685 7.16646 5.875 9.49673 6.32084 11.7395C6.33963 11.834 6.38309 12.0217 6.41743 12.1566C6.45175 12.2914 6.47984 12.4036 6.47984 12.4058C6.47984 12.408 6.48429 12.4098 6.48972 12.4098C6.49515 12.4098 6.50312 12.3753 6.50744 12.3331C6.54403 11.976 6.72162 11.3281 6.8978 10.9088C7.47652 9.53184 8.52981 8.38601 9.8518 7.69536C10.8825 7.15688 12.1153 6.91062 13.1205 7.04239C14.2632 7.19221 15.1673 7.83702 15.6147 8.82132C15.7426 9.10267 15.8383 9.44996 15.8585 9.70582C15.8663 9.80433 15.8775 9.8433 15.8981 9.8433C15.9168 9.8433 16.4032 10.0826 16.6423 10.2094C17.2462 10.5298 17.9204 10.9344 18.0004 11.0246L18.0227 11.0497L17.9425 11.0422C17.4504 10.9963 16.9486 11.0099 16.505 11.0813C15.2869 11.2775 14.4225 11.8579 13.9724 12.7821C13.8035 13.1289 13.6978 13.4815 13.646 13.8719C13.6247 14.0325 13.6215 14.3846 13.6401 14.5351C13.7382 15.3289 14.1442 15.9922 14.802 16.4331C15.1124 16.6411 15.4643 16.7801 15.8631 16.8523C16.0148 16.8797 16.0561 16.8824 16.3385 16.883C16.6695 16.8836 16.7571 16.8749 17.0317 16.8137C17.1989 16.7765 17.4899 16.6805 17.6676 16.604C18.2095 16.3704 18.7509 15.9719 19.2441 15.4433C20.4268 14.1757 21.1078 12.6517 21.2728 10.9031C21.2966 10.6513 21.293 9.8101 21.2671 9.5626C21.1641 8.57661 20.9149 7.70966 20.4918 6.86465C19.7694 5.42194 18.5661 4.22164 17.1176 3.49889C16.2848 3.08337 15.4118 2.83349 14.4424 2.73322C14.2755 2.71595 13.4474 2.70067 13.3082 2.7123ZM13.7264 8.3807C13.6507 8.40568 13.6049 8.43384 13.5396 8.49563C13.4268 8.60225 13.3711 8.76378 13.3977 8.90678C13.4177 9.01451 13.4696 9.1094 13.5486 9.18249C13.6446 9.27138 13.7167 9.29792 13.8638 9.29852C14.0121 9.29914 14.0823 9.27277 14.1828 9.17877C14.2579 9.1085 14.2974 9.04309 14.3233 8.94578C14.3792 8.73585 14.2707 8.50906 14.0663 8.40842C14.0004 8.37598 13.9789 8.37133 13.8819 8.36863C13.8137 8.36672 13.7549 8.37128 13.7264 8.3807Z" fill="url(#paint0_linear_1532_63497)"/>
<defs>
<linearGradient id="paint0_linear_1532_63497" x1="2.0249" y1="2.5" x2="21.5253" y2="21.9997" gradientUnits="userSpaceOnUse">
<stop stop-color="#00D2D3"/>
<stop offset="1" stop-color="#C70CBA"/>
</linearGradient>
</defs>
</svg>
