<svg width="24" height="24" viewBox="0 0 24 24" fill="none" xmlns="http://www.w3.org/2000/svg">
<g clip-path="url(#clip0_1532_63559)">
<mask id="mask0_1532_63559" style="mask-type:alpha" maskUnits="userSpaceOnUse" x="1" y="1" width="22" height="22">
<path d="M12.0034 22.5033C17.8024 22.5033 22.5034 17.8023 22.5034 12.0033C22.5034 6.20431 17.8024 1.5033 12.0034 1.5033C6.20443 1.5033 1.50342 6.20431 1.50342 12.0033C1.50342 17.8023 6.20443 22.5033 12.0034 22.5033Z" fill="white"/>
</mask>
<g mask="url(#mask0_1532_63559)">
<rect x="-0.960205" y="-0.959839" width="25.92" height="25.92" fill="#E6007A"/>
<g filter="url(#filter0_f_1532_63559)">
<path fill-rule="evenodd" clip-rule="evenodd" d="M23.6638 -1.2839C19.4518 10.0561 7.69125 10.0211 5.84379 15.8881C3.11442 24.5559 17.7385 38.2642 26.5798 27.5522C34.2134 18.3033 26.8986 -9.99277 23.6638 -1.2839Z" fill="#921FC0"/>
</g>
<g filter="url(#filter1_f_1532_63559)">
<path fill-rule="evenodd" clip-rule="evenodd" d="M28.1993 6.81561C21.3967 13.8505 15.5632 10.7036 10.8588 14.3783C7.65257 16.8828 13.7914 23.7923 11.9999 29.1723C10.3811 34.0335 23.3495 36.7179 28.1993 33.3837C36.4257 27.728 33.9945 0.82245 28.1993 6.81561Z" fill="url(#paint0_radial_1532_63559)"/>
</g>
</g>
<path d="M6.69685 6.95089V7.73368C6.80364 7.48829 6.98322 7.28161 7.2113 7.14161C7.43938 7.00161 7.70496 6.93504 7.97211 6.95089H8.67714V7.94104H7.79586C7.01307 7.94104 6.7124 8.3091 6.7124 9.21112V10.6419H8.37128V11.5698H4.32776V10.6419H5.47861V7.8892H4.32776V6.95089H6.69685Z" fill="white"/>
<path d="M12.0001 11.6839C10.8648 11.6839 9.7917 11.0307 9.7917 9.26296C9.7917 7.49521 10.8648 6.8524 12.0001 6.8524C13.1354 6.8524 14.2033 7.49521 14.2033 9.26296C14.2033 11.0307 13.125 11.6839 12.0001 11.6839ZM12.0001 7.7596C11.4091 7.7596 11.0307 8.20024 11.0307 9.26296C11.0307 10.3257 11.4091 10.7715 12.0001 10.7715C12.5911 10.7715 12.9695 10.3257 12.9695 9.26296C12.9695 8.20024 12.5911 7.7596 12.0001 7.7596Z" fill="white"/>
<path d="M19.5791 8.62014H18.4127C18.3401 8.12766 18.112 7.7596 17.5625 7.7596C17.013 7.7596 16.6657 8.23134 16.6657 9.26814C16.6657 10.3049 17.0078 10.7715 17.5573 10.7715C17.9358 10.7715 18.3194 10.5849 18.4334 9.87985H19.6206C19.5695 10.388 19.3265 10.8575 18.9412 11.1927C18.5559 11.528 18.0573 11.7036 17.547 11.6839C16.1991 11.6839 15.4371 10.6471 15.4371 9.26814C15.4371 7.8892 16.2199 6.8524 17.5729 6.8524C18.0703 6.83319 18.556 7.00602 18.9295 7.33509C19.3029 7.66417 19.5355 8.12428 19.5791 8.62014Z" fill="white"/>
<path d="M6.4532 17.9617C5.32309 17.9617 4.25 17.3085 4.25 15.5408C4.25 13.773 5.32309 13.1302 6.4532 13.1302C7.58331 13.1302 8.66158 13.773 8.66158 15.5408C8.66158 17.3085 7.57813 17.9617 6.4532 17.9617ZM6.4532 14.0374C5.86222 14.0374 5.48379 14.4781 5.48379 15.5408C5.48379 16.6035 5.86222 17.0493 6.4532 17.0493C7.04418 17.0493 7.42779 16.6035 7.42779 15.5408C7.42779 14.4781 7.04936 14.0374 6.4532 14.0374Z" fill="white"/>
<path d="M14.0322 14.898H12.8658C12.7984 14.4055 12.5651 14.0374 12.0156 14.0374C11.4661 14.0374 11.124 14.5092 11.124 15.5512C11.124 16.5931 11.4817 17.0493 12.0001 17.0493C12.3785 17.0493 12.7673 16.8627 12.8762 16.1577H14.0737C14.0214 16.6653 13.7781 17.1341 13.3931 17.4691C13.0081 17.8041 12.5101 17.9802 12.0001 17.9617C10.6522 17.9617 9.89019 16.9249 9.89019 15.5512C9.89019 14.1774 10.6678 13.1302 12.026 13.1302C12.524 13.1084 13.0112 13.2804 13.3852 13.6099C13.7593 13.9395 13.9911 14.4011 14.0322 14.898Z" fill="white"/>
<path d="M17.5418 17.9617C16.4117 17.9617 15.3386 17.3085 15.3386 15.5408C15.3386 13.773 16.4117 13.1302 17.5418 13.1302C18.6719 13.1302 19.7761 13.773 19.7761 15.5408C19.7761 17.3085 18.6667 17.9617 17.5418 17.9617ZM17.5418 14.0374C16.9508 14.0374 16.5724 14.4781 16.5724 15.5408C16.5724 16.6035 16.9508 17.0493 17.5418 17.0493C18.1328 17.0493 18.5164 16.6035 18.5164 15.5408C18.5164 14.4781 18.1379 14.0374 17.5418 14.0374Z" fill="white"/>
</g>
<defs>
<filter id="filter0_f_1532_63559" x="0.509521" y="-7.92737" width="34.4299" height="44.4003" filterUnits="userSpaceOnUse" color-interpolation-filters="sRGB">
<feFlood flood-opacity="0" result="BackgroundImageFix"/>
<feBlend mode="normal" in="SourceGraphic" in2="BackgroundImageFix" result="shape"/>
<feGaussianBlur stdDeviation="2.5" result="effect1_foregroundBlur_1532_63559"/>
</filter>
<filter id="filter1_f_1532_63559" x="3.91504" y="-0.0495605" width="35.5813" height="40.9135" filterUnits="userSpaceOnUse" color-interpolation-filters="sRGB">
<feFlood flood-opacity="0" result="BackgroundImageFix"/>
<feBlend mode="normal" in="SourceGraphic" in2="BackgroundImageFix" result="shape"/>
<feGaussianBlur stdDeviation="3" result="effect1_foregroundBlur_1532_63559"/>
</filter>
<radialGradient id="paint0_radial_1532_63559" cx="0" cy="0" r="1" gradientUnits="userSpaceOnUse" gradientTransform="translate(23.0201 17.6438) rotate(48.005) scale(10.5654 13.1637)">
<stop stop-color="#1AA0FF"/>
<stop offset="1" stop-color="#1AA0FF"/>
</radialGradient>
<clipPath id="clip0_1532_63559">
<rect width="24" height="24" fill="white"/>
</clipPath>
</defs>
</svg>
