<svg width="24" height="24" viewBox="0 0 24 24" fill="none" xmlns="http://www.w3.org/2000/svg">
<path d="M22.5 12C22.5 6.20101 17.799 1.5 12 1.5C6.20101 1.5 1.5 6.20101 1.5 12C1.5 17.799 6.20101 22.5 12 22.5C17.799 22.5 22.5 17.799 22.5 12Z" fill="#11091B"/>
<path d="M14.336 9.67669C13.7339 9.08325 12.9219 8.75138 12.0765 8.75318C12.0656 8.75318 12.054 8.75318 12.0443 8.75318C11.1876 8.75745 10.3678 9.10186 9.76503 9.71063C9.1623 10.3194 8.82609 11.1427 8.83036 11.9993C8.83464 12.856 9.17904 13.6759 9.78781 14.2786C10.3966 14.8813 11.2199 15.2175 12.0765 15.2133H12.1087C12.7475 15.2067 13.37 15.0109 13.8974 14.6506C14.4249 14.2903 14.8337 13.7817 15.0721 13.1891C15.3105 12.5965 15.3678 11.9464 15.2368 11.3212C15.1058 10.696 14.7923 10.1237 14.336 9.67669Z" fill="url(#paint0_linear_1532_63472)"/>
<path d="M13.4543 9.28572C13.0757 9.18905 12.7715 9.26768 12.5244 9.5216C12.4939 9.55378 12.4653 9.58766 12.4386 9.6231C12.3742 9.70462 12.3194 9.77519 12.1944 9.80419C12.0259 9.8378 11.8531 9.84498 11.6824 9.82546C11.6334 9.81805 11.5925 9.80903 11.5564 9.80065C11.4291 9.77165 11.3521 9.75425 11.1997 9.89925C11.152 9.94755 11.1089 10.0001 11.0708 10.0562C11.0031 10.1493 10.9393 10.2373 10.8346 10.2775C10.786 10.2955 10.7351 10.3064 10.6835 10.3098L10.6696 10.3036L10.6664 10.3104C10.5923 10.3122 10.5182 10.3075 10.445 10.2962C10.3874 10.2877 10.3293 10.2825 10.271 10.2808C10.3502 10.1653 10.4195 10.0434 10.4782 9.91633C10.5848 9.89989 10.6757 9.82997 10.7637 9.76134C10.8101 9.72316 10.8595 9.68868 10.9113 9.65822C11.0875 9.56155 11.1729 9.47938 11.326 9.3115C11.471 9.15264 11.6269 9.05372 11.8158 8.95415C11.9103 8.90589 11.9924 8.83654 12.0558 8.75146C12.6864 8.75598 13.2768 8.90324 13.7959 9.24609C13.7401 9.28089 13.6238 9.32826 13.4543 9.28572Z" fill="#DADADA"/>
<path d="M15.2049 11.533C15.1603 11.5157 15.1172 11.4948 15.076 11.4705C15.0123 11.4301 14.9418 11.4018 14.8678 11.387L14.6793 11.2945C14.3822 11.2433 14.2604 11.282 13.9604 11.1978C13.8213 11.1568 13.6764 11.1388 13.5315 11.1447L13.5241 11.1386L13.5186 11.1453C13.4158 11.1498 13.3124 11.1643 13.1964 11.1804L13.1168 11.1917C13.0846 11.1959 13.0485 11.2017 13.0076 11.2082C12.7521 11.2484 12.3238 11.3161 12.1753 11.1495L12.1669 11.1572C11.9392 11.0231 11.6797 10.9522 11.4154 10.952C11.0036 10.952 10.8744 10.8408 10.6395 10.6388C10.5996 10.6043 10.5551 10.5663 10.5061 10.5257C10.5274 10.5257 10.5486 10.5257 10.5705 10.5257C10.6769 10.5625 10.7886 10.5813 10.9012 10.5814C10.9227 10.5815 10.9442 10.5804 10.9656 10.5782C11.0244 10.5718 11.0793 10.5454 11.1209 10.5034C11.1395 10.4873 11.1591 10.4723 11.1796 10.4587C11.225 10.4316 11.2776 10.4188 11.3304 10.4219C11.3532 10.4219 11.3771 10.42 11.4029 10.4168C11.5147 10.4029 11.5933 10.3404 11.6694 10.2798C11.7399 10.2237 11.8066 10.1706 11.8972 10.1561C11.9197 10.1522 11.9426 10.1506 11.9665 10.1487C12.0266 10.1491 12.0859 10.1347 12.1392 10.1068C12.1679 10.0885 12.1942 10.0669 12.2178 10.0423C12.2446 10.0113 12.2775 9.98608 12.3145 9.96822C12.4337 9.92729 12.4869 9.82901 12.5507 9.74749C12.579 9.7114 12.7118 9.69207 12.7475 9.65565C13.016 9.3795 13.2309 9.28122 13.6421 9.3853C13.8515 9.43783 13.9321 9.44749 14.0023 9.39626C14.3478 9.65306 14.6385 9.97634 14.8572 10.3471C15.076 10.7179 15.2184 11.1286 15.2761 11.5552C15.2519 11.5493 15.2281 11.5419 15.2049 11.533Z" fill="#DADADA"/>
<path d="M11.1171 14.3248C11.1132 14.3048 11.1113 14.2844 11.1113 14.2639C11.1106 14.2165 11.1053 14.1692 11.0955 14.1228C11.0733 14.0145 11.0424 13.9939 11.0034 13.9659C10.9706 13.9447 10.9423 13.9172 10.9203 13.885C10.8816 13.8257 10.8531 13.7603 10.8362 13.6916L10.8333 13.6826C10.8616 13.7004 10.8909 13.7168 10.9209 13.7316C10.9354 13.739 10.9531 13.7493 10.9757 13.7609C11.0591 13.806 11.1739 13.8685 11.2319 13.8634C11.2818 13.8563 11.3272 13.8305 11.3588 13.7912C11.3859 13.7641 11.4732 13.8154 11.5106 13.8086C11.5792 13.7964 11.6588 13.7764 11.7619 13.8186C11.8054 13.8363 11.8431 13.8508 11.8718 13.8608C11.9256 13.8776 11.9804 13.9008 12.0329 13.9227C12.1199 13.9635 12.2116 13.9935 12.3058 14.0119C12.3584 14.0191 12.4114 14.0223 12.4644 14.0216C12.5624 14.0159 12.6601 14.0366 12.7473 14.0815C12.9493 14.1824 12.9928 14.1905 13.2132 14.1689C13.3786 14.1524 13.5886 14.1366 13.7488 14.1627C13.9002 14.1872 14.0388 14.2578 14.1738 14.3458C14.1738 14.3593 14.1941 14.4051 14.1954 14.4183C13.6363 14.9315 12.9046 15.2156 12.1457 15.2142C12.079 15.2142 12.0129 15.2116 11.9475 15.2071C11.9174 15.1748 11.8843 15.1454 11.8486 15.1194C11.806 15.0931 11.7602 15.0723 11.7123 15.0576C11.6498 15.035 11.5834 15.0118 11.5486 14.9722C11.4983 14.9168 11.5038 14.8549 11.509 14.795C11.5167 14.7545 11.5133 14.7127 11.499 14.6741C11.4693 14.6129 11.4046 14.5752 11.3359 14.5356C11.2952 14.5137 11.2565 14.488 11.2206 14.4589C11.1849 14.4309 11.1542 14.3971 11.1297 14.359C11.1336 14.3487 11.1171 14.3248 11.1171 14.3248Z" fill="#DADADA"/>
<path d="M10.322 9.43333C10.3164 9.51541 10.3209 9.59786 10.3352 9.67887C10.35 9.78617 10.3639 9.88767 10.323 10.0034L10.3188 10.015H10.3149V10.0233C10.2608 10.1619 10.1338 10.3581 10.0736 10.4477C9.93694 10.4293 9.87378 10.3275 9.80676 10.2199C9.76664 10.1466 9.71433 10.0807 9.65209 10.0249C9.62138 10.0013 9.58908 9.97974 9.55542 9.9605C9.78705 9.67247 10.0661 9.42608 10.3807 9.23193C10.3499 9.29529 10.3301 9.36338 10.322 9.43333Z" fill="#DADADA"/>
<path d="M14.3632 14.2292C14.3584 14.1647 14.3551 14.097 14.3545 14.0294C14.3509 13.6749 14.3342 13.5586 14.0967 13.3595C13.914 13.2054 13.7033 13.1294 13.6359 12.8996C13.5989 12.7727 13.5979 12.6096 13.5969 12.4395C13.5969 12.3644 13.5969 12.2887 13.5924 12.2139C13.61 12.1409 13.6363 12.0703 13.6707 12.0035C13.7107 11.9165 13.7751 11.8263 13.7616 11.7315C13.7503 11.6523 13.7616 11.7093 13.7271 11.6027C13.6968 11.5089 13.6401 11.4564 13.5728 11.4019C13.6999 11.4008 13.8266 11.4186 13.9485 11.4548C14.2494 11.5408 14.5311 11.4283 14.8295 11.4796L14.8594 11.4847C14.9298 11.4987 14.997 11.5256 15.0576 11.564C15.0998 11.5892 15.1441 11.6107 15.19 11.6284C15.2197 11.639 15.2502 11.6472 15.2812 11.6529C15.2973 11.7623 15.3053 11.8727 15.3054 11.9832C15.3067 12.8281 14.976 13.6397 14.3845 14.243L14.3632 14.2292Z" fill="#DADADA"/>
<path d="M9.19664 12.9294C9.22468 12.9391 9.25207 12.9484 9.2772 12.9581C9.38941 12.9963 9.49637 13.0485 9.59557 13.1134C9.70029 13.1853 9.78214 13.2565 9.84207 13.3712C9.90652 13.494 9.95453 13.5732 10.0844 13.6412L10.1231 13.6615C10.2826 13.7443 10.3976 13.8043 10.4811 13.9657C10.5316 14.0624 10.6235 14.104 10.7121 14.1429C10.7604 14.1625 10.8068 14.1864 10.8507 14.2145L10.8684 14.2267L10.9006 14.248C10.9145 14.2918 10.946 14.3337 11.0237 14.4017C11.0654 14.4356 11.1101 14.4655 11.1574 14.491C11.2286 14.5325 11.296 14.5715 11.3243 14.6295C11.3369 14.6666 11.3396 14.7064 11.3321 14.7449C11.3259 14.8158 11.3185 14.896 11.3852 14.9704C11.4313 15.0213 11.5077 15.0487 11.5815 15.0752C11.6316 15.0905 11.6795 15.1122 11.7242 15.1396C11.7511 15.1592 11.7765 15.1808 11.8003 15.204C11.1376 15.1472 10.5085 14.8874 9.99884 14.46C9.4892 14.0326 9.12377 13.4584 8.95239 12.8157C9.01974 12.8695 9.11383 12.9017 9.19664 12.9294Z" fill="#DADADA"/>
<path d="M9.71194 10.3035C9.76736 10.3924 9.8244 10.4833 9.92493 10.5262C9.83278 10.5419 9.80313 10.5165 9.70614 10.599C9.65458 10.6428 9.54309 10.6354 9.49637 10.6853C9.41678 10.7698 9.39809 10.9164 9.29723 10.9692C9.19035 11.023 9.07937 11.0681 8.96533 11.1042C9.08134 10.6931 9.22312 10.3857 9.4809 10.0586C9.51117 10.0758 9.53995 10.0955 9.56694 10.1176C9.62539 10.1709 9.67441 10.2338 9.71194 10.3035Z" fill="#DADADA"/>
<path d="M13.7963 13.3764L13.8179 13.3945C14.0276 13.5708 14.0844 13.6184 14.0873 13.9236C14.0873 13.9768 14.0898 14.0293 14.0934 14.0815C13.9619 13.9984 13.8243 13.93 13.6764 13.9065C13.5124 13.8801 13.2997 13.8956 13.1325 13.912C12.9185 13.9333 12.9646 13.8762 12.768 13.7779C12.6427 13.7154 12.4755 13.7651 12.3868 13.7647C12.3354 13.7655 12.2841 13.7623 12.2331 13.7554C12.1415 13.7374 12.0524 13.7081 11.9679 13.6684C11.9145 13.6462 11.9377 13.6017 11.8822 13.5843C11.8548 13.5756 11.7392 13.5817 11.696 13.5643C11.5835 13.5185 11.443 13.4618 11.3654 13.4757C11.3234 13.4863 11.2859 13.5102 11.2584 13.5437C11.2322 13.5779 11.1939 13.601 11.1514 13.6081C11.1028 13.6117 10.9903 13.5501 10.9133 13.5092C10.8914 13.4973 10.872 13.487 10.8572 13.4796C10.8166 13.4593 10.7775 13.4364 10.7399 13.4109C10.7399 13.4083 10.7383 13.4051 10.7373 13.4025L10.7309 13.4048C10.6424 13.3415 10.5585 13.2719 10.4799 13.1966C10.3204 13.0467 10.1291 12.9349 9.92017 12.8696C10.0516 12.8515 10.1615 12.7887 10.2746 12.7233C10.3687 12.6639 10.4698 12.6164 10.5756 12.5818C10.7045 12.5438 10.8521 12.5432 10.9945 12.5422C11.1453 12.5422 11.3012 12.5406 11.4376 12.4955C11.5793 12.4484 11.686 12.3463 11.7894 12.2474C11.8983 12.1429 12.0334 12.1268 12.1867 12.0862C12.3092 12.054 12.4645 11.9512 12.6524 11.9396C12.8857 11.9258 13.1264 11.9109 13.2797 11.8523C13.3674 11.9628 13.3935 12.1191 13.4019 12.2857C13.402 12.2863 13.402 12.287 13.4019 12.2876C13.4051 12.3547 13.4057 12.423 13.4061 12.491C13.4061 12.6476 13.408 12.7955 13.4428 12.914C13.5053 13.1319 13.6339 13.2398 13.7963 13.3764Z" fill="#DADADA"/>
<path d="M8.93251 12.7365C8.87396 12.5036 8.84441 12.2645 8.84455 12.0244C8.84105 11.7712 8.86733 11.5186 8.92285 11.2716C9.04092 11.2369 9.1561 11.1929 9.26731 11.1402C9.36398 11.0902 9.43842 11.0738 9.51189 10.9958C9.55247 10.9505 9.5955 10.9075 9.64078 10.8669C9.82026 10.7145 9.98395 10.7351 10.1563 10.7573C10.1976 10.7628 10.2395 10.7677 10.282 10.7706C10.3397 10.817 10.3903 10.796 10.4351 10.835C10.6452 11.0158 10.7705 11.2001 11.1533 11.2001C11.4311 11.2001 11.6473 11.203 11.8667 11.3348C11.8725 11.3387 11.8783 11.3422 11.8848 11.3457C11.9418 11.3805 11.9995 11.4192 12.0588 11.4611L12.0962 11.4878C12.2189 11.5755 12.3349 11.6586 12.4961 11.6847C12.5512 11.6921 12.6068 11.6945 12.6623 11.6918C12.7677 11.6899 12.8599 11.6879 12.9398 11.7698C12.7906 11.823 12.5583 11.8371 12.333 11.8507C12.1435 11.8623 11.9644 11.8732 11.839 11.9061C11.6779 11.949 11.5616 12.0598 11.4495 12.1671C11.3441 12.268 11.2448 12.363 11.1098 12.4078C10.9748 12.4526 10.825 12.4523 10.6767 12.4529C10.5285 12.4536 10.3835 12.4549 10.2495 12.4938C10.1413 12.5291 10.038 12.5776 9.94174 12.6382C9.80383 12.7178 9.67171 12.7935 9.49803 12.7842C9.44808 12.7723 9.39782 12.7632 9.34723 12.7558L9.33305 12.7516V12.7539C9.20021 12.7374 9.06628 12.7316 8.93251 12.7365Z" fill="#DADADA"/>
<path d="M7.32745 8.55573C7.01123 8.55813 6.69515 8.54242 6.38073 8.50868C5.72886 8.43167 5.39052 8.2683 5.31737 7.99311C5.19976 7.56165 5.82746 7.19882 6.31016 6.96198C8.14688 6.06617 12.1748 5.13654 15.2898 4.88971C16.2529 4.81334 17.062 4.80851 17.633 4.87553C18.2849 4.95255 18.6232 5.11592 18.6964 5.3911C18.814 5.82257 18.1863 6.1854 17.7036 6.42224C15.8669 7.31804 11.839 8.24768 8.72399 8.4945C8.21132 8.53543 7.74151 8.55573 7.32745 8.55573ZM16.677 5.21774C16.3067 5.21774 15.8591 5.23482 15.3194 5.27768C12.2447 5.52257 8.27867 6.43416 6.47869 7.31224C5.70534 7.68957 5.6889 7.89226 5.68955 7.89226C5.715 7.98635 6.30178 8.29859 8.69403 8.10879C11.7688 7.86519 15.7348 6.95231 17.5347 6.07423C18.3081 5.6969 18.3245 5.49583 18.3239 5.49422C18.3039 5.42139 17.9485 5.21774 16.677 5.21774Z" fill="#DADADA"/>
<path d="M7.31438 19.1677C6.99817 19.17 6.68208 19.1543 6.36767 19.1206C5.71579 19.0436 5.37745 18.8802 5.30431 18.605C5.18508 18.1749 5.81311 17.812 6.29645 17.5765C8.13317 16.6807 12.1611 15.751 15.2761 15.5042C16.2392 15.4278 17.0483 15.423 17.6193 15.49C18.2712 15.567 18.6095 15.7304 18.6843 16.0056C18.8019 16.4371 18.1742 16.7999 17.6915 17.0367C15.8548 17.9325 11.8269 18.8622 8.7119 19.109C8.19762 19.147 7.7278 19.1677 7.31438 19.1677ZM16.6633 15.8297C16.293 15.8297 15.8454 15.8467 15.3057 15.8896C12.231 16.1332 8.26496 17.0461 6.46498 17.9242C5.69163 18.3015 5.67519 18.5026 5.67584 18.5042C5.70162 18.5983 6.28647 18.9105 8.68032 18.7207C11.755 18.4768 15.7211 17.5642 17.521 16.6862C18.2944 16.3088 18.3108 16.1061 18.3102 16.1061C18.2902 16.0333 17.9348 15.8297 16.6633 15.8297Z" fill="#DADADA"/>
<defs>
<linearGradient id="paint0_linear_1532_63472" x1="12.0749" y1="15.2139" x2="12.0749" y2="8.75318" gradientUnits="userSpaceOnUse">
<stop stop-color="#603211"/>
<stop offset="0.17" stop-color="#DD7D26"/>
<stop offset="0.35" stop-color="#603211"/>
<stop offset="0.54" stop-color="#9C3520"/>
<stop offset="0.77" stop-color="#DD7D26"/>
<stop offset="1" stop-color="#603211"/>
</linearGradient>
</defs>
</svg>
