<svg width="40" height="40" viewBox="0 0 40 40" fill="none" xmlns="http://www.w3.org/2000/svg">
<path d="M37.9578 18.7785C37.2832 8.86077 28.6964 1.36759 18.7785 2.0422C13.8379 2.37825 9.49979 4.67862 6.47256 8.12809L6.47258 8.12807L6.46413 8.12198C6.44373 8.1502 6.42468 8.17805 6.40443 8.20625C3.3974 11.6726 1.70617 16.2815 2.04218 21.2215C2.0742 21.6922 2.12961 22.1554 2.19657 22.6146C2.19659 22.6147 2.19659 22.6148 2.19661 22.615C2.19962 22.6357 2.2027 22.6564 2.20561 22.6771C2.25088 22.9801 2.30343 23.2803 2.36339 23.5778C2.36343 23.5779 2.36345 23.5781 2.36349 23.5783C2.36459 23.5837 2.36563 23.5891 2.36669 23.5945C2.42128 23.8639 2.48192 24.1308 2.54827 24.3955L2.54839 24.396C2.54845 24.3962 2.54851 24.3964 2.54855 24.3966C4.62735 32.6868 12.3947 38.5582 21.2215 37.9578C31.1393 37.2832 38.6324 28.6963 37.9578 18.7785H37.9578ZM34.0397 19.045C34.1228 20.2661 34.0459 21.4616 33.8285 22.6117C33.8259 22.6052 33.8237 22.5983 33.8211 22.5917V22.5917C32.5161 19.402 29.9348 17.0991 27.6648 15.827C28.1242 10.4222 26.2906 8.14519 24.2154 7.77471C24.159 7.76384 24.1022 7.75457 24.0445 7.74742C22.3974 7.53617 20.8912 8.70038 20.6803 10.3473C20.469 11.9944 21.6332 13.5006 23.2801 13.712C23.4238 13.7301 23.566 13.7352 23.7067 13.733C23.7158 13.9154 23.7216 14.1092 23.7232 14.3119C21.8043 13.8364 20.0106 13.7433 18.3752 13.8904C17.7636 13.9311 17.1517 14.0082 16.543 14.1219C16.7471 12.2969 17.4319 10.2479 18.7605 8.74842C20.0449 7.29892 21.9544 6.4681 24.0375 6.68131C24.4324 6.72172 24.8538 6.81867 25.2331 6.94607C25.2505 6.95192 25.2691 6.95688 25.2863 6.96287C25.2865 6.96253 25.2869 6.96207 25.2871 6.96173C30.1121 8.92729 33.663 13.5064 34.0397 19.045V19.045ZM21.4939 21.7943C21.4926 21.7963 21.4912 21.7982 21.4899 21.8002C21.0604 22.4196 20.5496 23.0304 19.95 23.6212C19.0511 22.6648 18.3291 21.6349 17.7812 20.5694C17.7531 20.5123 17.7232 20.458 17.6957 20.4C17.6947 20.3979 17.6937 20.3957 17.6927 20.3936C17.3709 19.7117 17.0972 18.9636 16.8854 18.1486C18.1644 17.8477 19.4188 17.737 20.6167 17.7953C20.6801 17.7995 20.7422 17.8008 20.8061 17.806C20.8085 17.8062 20.8109 17.8064 20.8132 17.8065C21.5635 17.8687 22.3469 18.0055 23.1572 18.2289C22.7784 19.4866 22.2472 20.6277 21.5979 21.6356C21.5625 21.6885 21.5305 21.7416 21.4939 21.7943V21.7943ZM15.3433 6.72311C15.34 6.72745 15.3362 6.73154 15.3328 6.73588L15.3328 6.7359C13.224 9.45948 12.5199 12.8443 12.5525 15.4458C7.64236 17.7503 6.58727 20.4766 7.30405 22.459C7.32283 22.5132 7.34322 22.5671 7.36585 22.6206C8.00645 24.1527 9.76779 24.875 11.2996 24.2342C12.8316 23.5936 13.5539 21.8322 12.9135 20.3003C12.8574 20.1668 12.7907 20.0412 12.7184 19.9204C12.8736 19.8201 13.0402 19.7171 13.2172 19.6132C13.7648 21.5131 14.575 23.1201 15.5201 24.4631C15.8605 24.9713 16.2325 25.4618 16.6344 25.9312C14.9516 26.6672 12.8343 27.099 10.871 26.698C8.97349 26.3104 7.29924 25.0721 6.44234 23.1616C6.2799 22.7994 6.15325 22.3861 6.07387 21.9939C6.02503 21.6512 5.9841 21.3058 5.96025 20.955C5.52166 14.5072 9.52192 8.76707 15.3433 6.72311V6.72311ZM20.955 34.0397C17.1261 34.3002 13.547 32.9942 10.842 30.6728C14.2551 31.1373 17.5385 30.0545 19.7751 28.7256C24.2278 31.8282 27.1176 31.379 28.4764 29.7667C28.514 29.7233 28.5504 29.6787 28.5854 29.6323C29.5919 28.3115 29.3368 26.425 28.016 25.4188C26.6952 24.4123 24.8086 24.6675 23.8022 25.9881C23.7146 26.1034 23.6391 26.224 23.5707 26.347C23.4074 26.2633 23.2359 26.171 23.0587 26.0705C24.4314 24.6456 25.4097 23.1377 26.1005 21.6469C26.371 21.0969 26.6102 20.5283 26.8161 19.9444C28.2957 21.0337 29.7295 22.6521 30.3643 24.5539C30.9774 26.391 30.7421 28.4601 29.516 30.1575C29.2835 30.4793 28.9889 30.7957 28.6889 31.0605C28.6846 31.0644 28.6803 31.0684 28.6759 31.0724C26.5307 32.7584 23.8765 33.841 20.955 34.0397V34.0397Z" fill="url(#paint0_linear_22308_38862)"/>
<path style="mix-blend-mode:overlay" opacity="0.9" d="M24.2154 7.77471C24.159 7.76385 24.1022 7.75458 24.0445 7.74743C23.753 7.71006 23.4665 7.71777 23.1903 7.76157C24.9123 8.69833 26.1677 11.3084 25.5077 16.4569C25.289 18.1621 24.782 19.7848 24.0498 21.2738C23.4565 22.5541 22.6493 23.8466 21.5642 25.0888C22.0853 25.4796 22.5934 25.8067 23.0587 26.0705C24.4314 24.6456 25.4096 23.1377 26.1004 21.6469C26.8326 20.1579 27.3397 18.5352 27.5583 16.83C28.3442 10.6999 26.4148 8.16737 24.2154 7.77471V7.77471Z" fill="url(#paint1_radial_22308_38862)"/>
<g style="mix-blend-mode:overlay" opacity="0.8">
<path d="M25.5076 16.4569C26.1676 11.3084 24.9122 8.69835 23.1903 7.7616C23.1231 7.77226 23.0571 7.78658 22.9912 7.8017C24.677 8.77078 25.89 11.3784 25.2389 16.4569C25.0203 18.1621 24.5133 19.7848 23.7811 21.2738C23.2074 22.5117 22.4316 23.7607 21.4003 24.9649C21.4551 25.0073 21.5096 25.0478 21.5642 25.0888C22.6492 23.8467 23.4565 22.5541 24.0498 21.2738C24.782 19.7848 25.289 18.1621 25.5076 16.4569V16.4569Z" fill="white"/>
</g>
<path style="mix-blend-mode:overlay" opacity="0.5" d="M18.9626 28.1341C18.8008 28.0108 18.6451 27.8817 18.4893 27.7527C15.9482 28.8129 12.4255 29.4777 8.92773 28.6659C9.50052 29.396 10.1397 30.0702 10.8419 30.6728C14.255 31.1373 17.5384 30.0546 19.775 28.7256C19.5095 28.5406 19.2393 28.3449 18.9626 28.1341V28.1341Z" fill="url(#paint2_radial_22308_38862)"/>
<path style="mix-blend-mode:overlay" opacity="0.6" d="M18.4894 27.7527C18.4115 27.6882 18.3332 27.6243 18.2569 27.5584C15.6965 28.5816 12.1578 29.1933 8.66785 28.3235C8.75288 28.4389 8.83935 28.5532 8.92775 28.6659C12.4256 29.4776 15.9482 28.8129 18.4894 27.7527V27.7527Z" fill="url(#paint3_linear_22308_38862)"/>
<path style="mix-blend-mode:overlay" opacity="0.9" d="M7.30482 22.462C7.32361 22.5162 7.344 22.5701 7.36664 22.6236C7.47999 22.8947 7.62992 23.1389 7.80596 23.3563C7.75625 21.3966 9.38891 19.0044 14.1776 17.0017C15.7637 16.3385 17.4225 15.9662 19.0781 15.8558C20.4836 15.7295 22.0066 15.7823 23.6248 16.1009C23.7027 15.4542 23.732 14.8506 23.7278 14.3158C21.8074 13.8394 20.0125 13.7462 18.376 13.8933C16.7204 14.0037 15.0615 14.376 13.4755 15.0392C7.77369 17.4237 6.54514 20.3608 7.30482 22.462L7.30482 22.462Z" fill="url(#paint4_radial_22308_38862)"/>
<g style="mix-blend-mode:overlay" opacity="0.8">
<path d="M14.1776 17.0017C9.38885 19.0044 7.75619 21.3966 7.80591 23.3562C7.84876 23.4091 7.89415 23.4591 7.94017 23.5086C7.93653 21.5641 9.58829 19.2099 14.3119 17.2344C15.898 16.5712 17.5568 16.1989 19.2124 16.0885C20.5713 15.9663 22.0409 16.0137 23.5994 16.3048C23.6087 16.2361 23.6166 16.1686 23.6247 16.1009C22.0065 15.7823 20.4835 15.7295 19.0781 15.8558C17.4225 15.9662 15.7636 16.3385 14.1776 17.0017Z" fill="white"/>
</g>
<path style="mix-blend-mode:overlay" opacity="0.4" d="M27.5629 16.8312C27.537 17.033 27.5031 17.2324 27.4692 17.4318C29.658 19.1024 31.995 21.8207 33.0409 25.2558C33.3868 24.3947 33.6511 23.504 33.8218 22.5947C32.5176 19.4066 29.9382 17.1044 27.669 15.8319C27.6415 16.1544 27.6071 16.4863 27.5629 16.8312V16.8312Z" fill="url(#paint5_radial_22308_38862)"/>
<path style="mix-blend-mode:overlay" opacity="0.5" d="M27.4692 17.4318C27.4523 17.5315 27.4361 17.6313 27.4172 17.7303C29.5835 19.436 31.8826 22.1948 32.8743 25.6521C32.9318 25.5207 32.9875 25.3887 33.0409 25.2558C31.995 21.8207 29.658 19.1024 27.4692 17.4318V17.4318Z" fill="url(#paint6_linear_22308_38862)"/>
<path style="mix-blend-mode:overlay" opacity="0.9" d="M28.4783 29.7626C28.5159 29.7192 28.5524 29.6746 28.5874 29.6282C28.7655 29.3945 28.902 29.1425 29.0022 28.8814C27.33 29.9043 24.4419 29.6865 20.3132 26.5406C18.9458 25.4987 17.794 24.2482 16.8706 22.8696C16.0584 21.7157 15.3427 20.3703 14.8095 18.8096C14.2105 19.0654 13.6731 19.3419 13.212 19.613C13.7597 21.5142 14.5764 23.1153 15.5221 24.459C16.4455 25.8376 17.5973 27.088 18.9647 28.13C23.8806 31.8756 27.0385 31.471 28.4783 29.7626V29.7626Z" fill="url(#paint7_radial_22308_38862)"/>
<g style="mix-blend-mode:overlay" opacity="0.8">
<path d="M20.3131 26.5406C24.4419 29.6865 27.3299 29.9043 29.0022 28.8814C29.0266 28.8179 29.0471 28.7536 29.067 28.689C27.3848 29.6643 24.5201 29.411 20.4475 26.3079C19.0801 25.266 17.9283 24.0155 17.0049 22.6369C16.2196 21.5212 15.5259 20.2248 14.9987 18.7296C14.9345 18.7558 14.8722 18.7828 14.8094 18.8096C15.3426 20.3703 16.0584 21.7157 16.8705 22.8696C17.7939 24.2482 18.9457 25.4987 20.3131 26.5406V26.5406Z" fill="white"/>
</g>
<path style="mix-blend-mode:overlay" opacity="0.3" d="M13.4729 15.0339C13.6606 14.9554 13.8502 14.8851 14.0399 14.8147C14.3922 12.0839 15.5779 8.70084 18.0298 6.07751C17.1111 6.20851 16.2076 6.425 15.3347 6.73178C13.2259 9.45538 12.5219 12.8402 12.5544 15.4417C12.8474 15.3042 13.152 15.1681 13.4729 15.0339V15.0339Z" fill="url(#paint8_radial_22308_38862)"/>
<path style="mix-blend-mode:overlay" opacity="0.4" d="M14.0399 14.8148C14.1347 14.7796 14.2292 14.7437 14.3244 14.7106C14.7185 11.9816 15.9581 8.61119 18.4564 6.02368C18.3138 6.03958 18.1716 6.05733 18.0298 6.07755C15.578 8.70087 14.3923 12.084 14.0399 14.8148V14.8148Z" fill="url(#paint9_linear_22308_38862)"/>
<path style="mix-blend-mode:multiply" opacity="0.4" d="M18.7784 2.04219C13.8378 2.37823 9.49972 4.6786 6.47249 8.12807C6.44962 8.15414 6.42689 8.18027 6.40417 8.20647L6.40435 8.20623C6.99372 8.79084 8.91985 9.94357 9.70051 10.4243C11.2333 8.77584 13.1602 7.48958 15.3433 6.7231C15.4957 6.52665 15.6538 6.33282 15.8211 6.1439C17.8544 3.84957 20.631 2.63688 23.8515 2.63688C24.2099 2.63688 24.94 2.69394 24.9557 2.6951C23.0033 2.13418 20.9225 1.89635 18.7784 2.04219Z" fill="url(#paint10_linear_22308_38862)"/>
<path style="mix-blend-mode:multiply" opacity="0.4" d="M20.9549 34.0397C17.1261 34.3002 13.547 32.9942 10.842 30.6727H10.8419L10.8419 30.6727C10.5901 30.6385 10.3378 30.5974 10.0851 30.5457C7.08149 29.9321 4.64298 28.1338 3.03272 25.3448C2.85349 25.0343 2.69312 24.718 2.54858 24.3968C4.62744 32.6868 12.3947 38.5582 21.2214 37.9578C21.2606 37.0488 20.9926 34.9397 20.9549 34.0397V34.0397Z" fill="url(#paint11_linear_22308_38862)"/>
<path style="mix-blend-mode:multiply" opacity="0.4" d="M37.9578 18.7785C37.4048 18.7219 34.7038 18.9351 34.0397 19.045C34.1228 20.2661 34.0459 21.4616 33.8285 22.6118C33.9217 22.8406 34.0101 23.0728 34.0895 23.3107C35.0598 26.2187 34.7217 29.2296 33.1115 32.0187C32.9356 32.3233 32.7457 32.6151 32.5441 32.896C32.5402 32.9013 32.5358 32.9075 32.5326 32.9119C32.5324 32.9121 32.5409 32.9049 32.5456 32.9006C36.2015 29.3437 38.331 24.2663 37.9578 18.7785V18.7785Z" fill="url(#paint12_linear_22308_38862)"/>
<path style="mix-blend-mode:multiply" opacity="0.5" d="M24.0374 6.68129C24.4323 6.72169 24.8537 6.81865 25.233 6.94605C25.2505 6.9519 25.269 6.95685 25.2862 6.96284C25.2865 6.9625 25.2868 6.96205 25.2871 6.96171C26.8398 7.59425 28.2594 8.49873 29.485 9.61752C29.4876 9.61971 29.4902 9.62151 29.4929 9.62371C30.0835 8.94846 31.2208 8.20647 31.2208 8.20647C31.2208 8.20647 29.4794 6.42515 26.816 5.87234C24.9515 5.48534 20.746 5.1102 18.0936 9.62371C18.0936 9.62371 18.1042 9.61376 18.1197 9.59944C18.3159 9.30288 18.5245 9.01463 18.7604 8.74839C20.0449 7.29889 21.9544 6.46808 24.0374 6.68129V6.68129Z" fill="url(#paint13_linear_22308_38862)"/>
<path style="mix-blend-mode:multiply" opacity="0.5" d="M29.5156 30.1559C29.2831 30.4777 28.9885 30.7942 28.6885 31.059C28.6747 31.0712 28.6611 31.0847 28.6473 31.0966C28.6475 31.097 28.6477 31.0976 28.6479 31.0979C27.3237 32.1264 25.8306 32.9036 24.249 33.4055C24.2457 33.4067 24.2429 33.4081 24.2396 33.4093C24.5291 34.2584 24.603 35.6143 24.603 35.6143C24.603 35.6143 27.0164 34.9969 28.8268 32.9667C30.0943 31.5455 32.5219 28.091 29.9393 23.5372C29.9393 23.5372 29.9426 23.5514 29.9472 23.5719C30.106 23.8902 30.2513 24.2149 30.3639 24.5524C30.977 26.3895 30.7417 28.4585 29.5156 30.1559V30.1559Z" fill="url(#paint14_linear_22308_38862)"/>
<path style="mix-blend-mode:multiply" opacity="0.5" d="M6.44857 23.1669C6.28612 22.8047 6.15939 22.3913 6.08005 21.999C6.0764 21.981 6.07144 21.9625 6.06801 21.9446C6.06759 21.9445 6.06701 21.9445 6.0666 21.9444C5.83803 20.2834 5.91152 18.6018 6.26765 16.981C6.26823 16.9776 6.26848 16.9745 6.26905 16.9711C5.38894 16.7972 4.17773 16.1833 4.17773 16.1833C4.17773 16.1833 3.50578 18.5821 4.35872 21.165C4.95583 22.9732 6.7337 26.8029 11.9687 26.8431C11.9687 26.8431 11.9548 26.839 11.9346 26.8327C11.5797 26.811 11.2258 26.7745 10.8772 26.7033C8.97972 26.3157 7.30546 25.0774 6.44857 23.1669V23.1669Z" fill="url(#paint15_linear_22308_38862)"/>
<path style="mix-blend-mode:multiply" opacity="0.6" d="M23.2802 13.712C23.4238 13.7301 23.566 13.7352 23.7067 13.733C23.7067 13.733 23.6127 11.8627 23.383 10.9031C23.1534 9.94358 22.8147 9.30813 22.4426 8.94848C22.1761 8.69083 21.3346 8.36994 20.6803 10.3473C20.469 11.9944 21.6332 13.5006 23.2802 13.712Z" fill="url(#paint16_linear_22308_38862)"/>
<path style="mix-blend-mode:multiply" opacity="0.5" d="M12.9144 20.3033C12.8582 20.1698 12.7916 20.0442 12.7193 19.9234C12.7193 19.9234 11.1466 20.94 10.4304 21.6186C9.71422 22.2973 9.33327 22.9083 9.20783 23.4104C9.11797 23.77 9.2608 24.6592 11.3004 24.2372C12.8325 23.5966 13.5548 21.8352 12.9144 20.3033V20.3033Z" fill="url(#paint17_linear_22308_38862)"/>
<path style="mix-blend-mode:multiply" opacity="0.6" d="M23.8047 25.9832C23.7171 26.0986 23.6417 26.2191 23.5732 26.3421C23.5732 26.3421 25.2399 27.1958 26.1858 27.4767C27.1316 27.7576 27.8513 27.782 28.3488 27.6396C28.7052 27.5376 29.4038 26.9694 28.0185 25.414C26.6977 24.4075 24.8112 24.6626 23.8047 25.9832V25.9832Z" fill="url(#paint18_linear_22308_38862)"/>
<path style="mix-blend-mode:multiply" opacity="0.3" d="M23.1572 18.2289C22.7783 19.4865 22.2471 20.6277 21.5979 21.6356C21.5625 21.6884 21.5304 21.7416 21.4939 21.7943C21.4926 21.7963 21.4912 21.7982 21.4899 21.8002C21.0604 22.4196 20.5496 23.0304 19.95 23.6212C20.362 24.0596 20.8076 24.4841 21.297 24.8868C21.9116 25.3718 22.514 25.7616 23.0587 26.0705C24.4314 24.6456 25.4096 23.1377 26.1004 21.6469C26.3709 21.0968 26.6102 20.5283 26.816 19.9443C26.1828 19.4781 25.5412 19.1072 24.9501 18.8551C24.3388 18.5946 23.7412 18.3899 23.1572 18.2289V18.2289Z" fill="url(#paint19_linear_22308_38862)"/>
<path style="mix-blend-mode:multiply" opacity="0.3" d="M10.842 30.6727C14.2551 31.1372 17.5385 30.0545 19.7751 28.7256C19.5096 28.5406 19.2394 28.3448 18.9627 28.134C18.0994 27.4762 17.3226 26.735 16.6344 25.9311C14.9516 26.6672 12.8343 27.0989 10.871 26.698C8.97347 26.3104 7.29922 25.0721 6.44232 23.1615C6.27989 22.7994 6.15323 22.386 6.07385 21.9938C6.56974 25.4734 8.32558 28.5131 10.842 30.6727V30.6727Z" fill="url(#paint20_linear_22308_38862)"/>
<path style="mix-blend-mode:multiply" opacity="0.3" d="M19.95 23.6211C19.0511 22.6647 18.329 21.6348 17.7811 20.5694C17.7531 20.5123 17.7231 20.4579 17.6957 20.3999C17.6947 20.3978 17.6937 20.3957 17.6926 20.3935C17.3708 19.7116 17.0972 18.9636 16.8853 18.1486C16.3009 18.2861 15.7118 18.4595 15.1198 18.6814C14.3941 18.9705 13.7563 19.2965 13.2172 19.6131C13.7648 21.5131 14.5749 23.1201 15.5201 24.463C15.8605 24.9713 16.2325 25.4617 16.6344 25.9311C17.3559 25.6155 17.9988 25.2449 18.5133 24.8585C19.0437 24.4601 19.5191 24.0456 19.95 23.6211V23.6211Z" fill="url(#paint21_linear_22308_38862)"/>
<path style="mix-blend-mode:multiply" opacity="0.3" d="M15.3328 6.73587C13.224 9.45945 12.5199 12.8443 12.5525 15.4457C12.8465 15.3077 13.1525 15.171 13.4747 15.0362C14.4749 14.618 15.504 14.316 16.543 14.1219C16.7471 12.2968 17.4319 10.2479 18.7605 8.74839C20.0449 7.29889 21.9544 6.46807 24.0375 6.68128C24.4324 6.72169 24.8538 6.81864 25.2331 6.94604C25.2505 6.95189 25.2691 6.95685 25.2863 6.96284C25.2865 6.9625 25.2869 6.96204 25.2871 6.9617C23.368 6.1799 21.248 5.8104 19.045 5.96025C17.7512 6.04825 16.5115 6.31295 15.3433 6.72309C15.34 6.72742 15.3362 6.73152 15.3328 6.73585L15.3328 6.73587V6.73587Z" fill="url(#paint22_linear_22308_38862)"/>
<path style="mix-blend-mode:multiply" opacity="0.3" d="M33.821 22.5917C32.5161 19.402 29.9348 17.0991 27.6648 15.827C27.6373 16.1506 27.6027 16.4837 27.5583 16.83C27.4205 17.9053 27.1674 18.9475 26.816 19.9444C28.2957 21.0337 29.7295 22.6521 30.3643 24.5539C30.9774 26.391 30.7421 28.4601 29.516 30.1575C29.2835 30.4793 28.9889 30.7957 28.6889 31.0605C28.6845 31.0644 28.6802 31.0684 28.6759 31.0724C31.3186 28.9954 33.1876 26.0019 33.8285 22.6117C33.8258 22.6052 33.8237 22.5983 33.821 22.5917V22.5917V22.5917Z" fill="url(#paint23_linear_22308_38862)"/>
<path style="mix-blend-mode:multiply" opacity="0.3" d="M16.5323 16.2866C16.6121 16.9448 16.7333 17.5634 16.8854 18.1486C18.1644 17.8476 19.4188 17.737 20.6167 17.7953C20.6802 17.7995 20.7422 17.8008 20.8061 17.806C20.8085 17.8062 20.8109 17.8064 20.8132 17.8065C21.5635 17.8687 22.3469 18.0055 23.1573 18.2289C23.3306 17.6536 23.4751 17.0563 23.579 16.4321C23.6919 15.6562 23.7282 14.9387 23.7232 14.3119C21.8043 13.8364 20.0106 13.7433 18.3752 13.8903C17.7636 13.9311 17.1517 14.0082 16.543 14.1219C16.4554 14.9049 16.4549 15.6475 16.5323 16.2866H16.5323Z" fill="url(#paint24_linear_22308_38862)"/>
<defs>
<linearGradient id="paint0_linear_22308_38862" x1="7.71606" y1="32.2847" x2="30.669" y2="9.33177" gradientUnits="userSpaceOnUse">
<stop offset="0.001139" stop-color="#E6007A"/>
<stop offset="0.207149" stop-color="#703AC2"/>
<stop offset="0.456011" stop-color="#0070EB"/>
<stop offset="0.768132" stop-color="#0297FB"/>
<stop offset="1" stop-color="#0AE2FF"/>
</linearGradient>
<radialGradient id="paint1_radial_22308_38862" cx="0" cy="0" r="1" gradientUnits="userSpaceOnUse" gradientTransform="translate(25.1307 16.3564) scale(6.84395)">
<stop stop-color="white"/>
<stop offset="1" stop-color="white" stop-opacity="0"/>
</radialGradient>
<radialGradient id="paint2_radial_22308_38862" cx="0" cy="0" r="1" gradientUnits="userSpaceOnUse" gradientTransform="translate(15.0144 29.0528) scale(3.98187)">
<stop stop-color="white"/>
<stop offset="1" stop-color="white" stop-opacity="0"/>
</radialGradient>
<linearGradient id="paint3_linear_22308_38862" x1="9.03882" y1="28.3793" x2="12.8771" y2="28.326" gradientUnits="userSpaceOnUse">
<stop stop-color="white" stop-opacity="0"/>
<stop offset="1" stop-color="white"/>
</linearGradient>
<radialGradient id="paint4_radial_22308_38862" cx="0" cy="0" r="1" gradientUnits="userSpaceOnUse" gradientTransform="translate(14.2791 17.3784) rotate(-120) scale(6.84395)">
<stop stop-color="white"/>
<stop offset="1" stop-color="white" stop-opacity="0"/>
</radialGradient>
<radialGradient id="paint5_radial_22308_38862" cx="0" cy="0" r="1" gradientUnits="userSpaceOnUse" gradientTransform="translate(30.3327 19.7911) rotate(-120) scale(3.98187)">
<stop stop-color="white"/>
<stop offset="1" stop-color="white" stop-opacity="0"/>
</radialGradient>
<linearGradient id="paint6_linear_22308_38862" x1="32.7372" y1="25.3029" x2="30.7719" y2="22.0055" gradientUnits="userSpaceOnUse">
<stop stop-color="white" stop-opacity="0"/>
<stop offset="1" stop-color="white"/>
</linearGradient>
<radialGradient id="paint7_radial_22308_38862" cx="0" cy="0" r="1" gradientUnits="userSpaceOnUse" gradientTransform="translate(20.2655 25.9479) rotate(120) scale(6.84395)">
<stop stop-color="white"/>
<stop offset="1" stop-color="white" stop-opacity="0"/>
</radialGradient>
<radialGradient id="paint8_radial_22308_38862" cx="0" cy="0" r="1" gradientUnits="userSpaceOnUse" gradientTransform="translate(14.6514 11.1553) rotate(120) scale(3.98187)">
<stop stop-color="white"/>
<stop offset="1" stop-color="white" stop-opacity="0"/>
</radialGradient>
<linearGradient id="paint9_linear_22308_38862" x1="18.2225" y1="6.31704" x2="16.3495" y2="9.66772" gradientUnits="userSpaceOnUse">
<stop stop-color="white" stop-opacity="0"/>
<stop offset="1" stop-color="white"/>
</linearGradient>
<linearGradient id="paint10_linear_22308_38862" x1="19.0569" y1="4.61375" x2="13.1929" y2="6.31964" gradientUnits="userSpaceOnUse">
<stop stop-color="#231F20"/>
<stop offset="1" stop-color="white"/>
</linearGradient>
<linearGradient id="paint11_linear_22308_38862" x1="7.97511" y1="26.9786" x2="12.8796" y2="32.0963" gradientUnits="userSpaceOnUse">
<stop stop-color="#231F20"/>
<stop offset="1" stop-color="white"/>
</linearGradient>
<linearGradient id="paint12_linear_22308_38862" x1="34.2975" y1="26.2074" x2="36.0034" y2="21.0186" gradientUnits="userSpaceOnUse">
<stop stop-color="#231F20"/>
<stop offset="1" stop-color="white"/>
</linearGradient>
<linearGradient id="paint13_linear_22308_38862" x1="21.7289" y1="7.58095" x2="29.5909" y2="9.38113" gradientUnits="userSpaceOnUse">
<stop stop-color="#231F20"/>
<stop offset="1" stop-color="white"/>
</linearGradient>
<linearGradient id="paint14_linear_22308_38862" x1="29.8907" y1="27.7069" x2="24.4007" y2="33.6154" gradientUnits="userSpaceOnUse">
<stop stop-color="#231F20"/>
<stop offset="1" stop-color="white"/>
</linearGradient>
<linearGradient id="paint15_linear_22308_38862" x1="8.38197" y1="24.7163" x2="6.00998" y2="17.0075" gradientUnits="userSpaceOnUse">
<stop stop-color="#231F20"/>
<stop offset="1" stop-color="white"/>
</linearGradient>
<linearGradient id="paint16_linear_22308_38862" x1="23.4478" y1="10.4807" x2="20.96" y2="12.9685" gradientUnits="userSpaceOnUse">
<stop stop-color="#231F20"/>
<stop offset="1" stop-color="white"/>
</linearGradient>
<linearGradient id="paint17_linear_22308_38862" x1="10.0322" y1="21.7738" x2="13.4305" y2="22.6844" gradientUnits="userSpaceOnUse">
<stop stop-color="#231F20"/>
<stop offset="1" stop-color="white"/>
</linearGradient>
<linearGradient id="paint18_linear_22308_38862" x1="26.5193" y1="27.744" x2="25.6087" y2="24.3457" gradientUnits="userSpaceOnUse">
<stop stop-color="#231F20"/>
<stop offset="1" stop-color="white"/>
</linearGradient>
<linearGradient id="paint19_linear_22308_38862" x1="21.3463" y1="24.7222" x2="22.839" y2="22.6609" gradientUnits="userSpaceOnUse">
<stop stop-color="#231F20"/>
<stop offset="1" stop-color="white"/>
</linearGradient>
<linearGradient id="paint20_linear_22308_38862" x1="16.2067" y1="23.8297" x2="13.2214" y2="25.2513" gradientUnits="userSpaceOnUse">
<stop stop-color="#231F20"/>
<stop offset="1" stop-color="white"/>
</linearGradient>
<linearGradient id="paint21_linear_22308_38862" x1="15.1234" y1="18.8604" x2="16.0474" y2="20.7795" gradientUnits="userSpaceOnUse">
<stop stop-color="#231F20"/>
<stop offset="1" stop-color="white"/>
</linearGradient>
<linearGradient id="paint22_linear_22308_38862" x1="19.422" y1="12.9334" x2="18.7823" y2="10.73" gradientUnits="userSpaceOnUse">
<stop stop-color="#231F20"/>
<stop offset="1" stop-color="white"/>
</linearGradient>
<linearGradient id="paint23_linear_22308_38862" x1="26.3164" y1="23.0218" x2="28.1645" y2="23.4483" gradientUnits="userSpaceOnUse">
<stop stop-color="#231F20"/>
<stop offset="1" stop-color="white"/>
</linearGradient>
<linearGradient id="paint24_linear_22308_38862" x1="23.4162" y1="16.7789" x2="21.0706" y2="16.3524" gradientUnits="userSpaceOnUse">
<stop stop-color="#231F20"/>
<stop offset="1" stop-color="white"/>
</linearGradient>
</defs>
</svg>
