<svg width="41" height="40" viewBox="0 0 41 40" fill="none" xmlns="http://www.w3.org/2000/svg">
<path d="M19.6034 2H9.56301C9.21688 2 8.93628 2.27521 8.93628 2.6147V12.4624C8.93628 12.8019 9.21688 13.0771 9.56301 13.0771H19.6034C19.9495 13.0771 20.2301 12.8019 20.2301 12.4624V2.6147C20.2301 2.27521 19.9495 2 19.6034 2Z" fill="#FF6400"/>
<path d="M8.93628 27.5376V37.3853C8.93628 37.7248 9.21687 38 9.56301 38H19.6034C19.9495 38 20.2301 37.7248 20.2301 37.3853V27.5376C20.2301 27.198 19.9495 26.9228 19.6034 26.9228H9.56301C9.21687 26.9228 8.93628 27.198 8.93628 27.5376Z" fill="#FF6400"/>
<path d="M8.93628 15.0761V24.9238C8.93628 25.2633 9.21688 25.5386 9.56301 25.5386H19.6034C19.9496 25.5386 20.2301 25.2633 20.2301 24.9238V15.0761C20.2301 14.7366 19.9496 14.4614 19.6034 14.4614H9.56301C9.21688 14.4614 8.93628 14.7366 8.93628 15.0761Z" fill="#FF6400"/>
<path d="M21.6424 27.5376V37.3853C21.6424 37.7248 21.923 38 22.2691 38H32.3096C32.6557 38 32.9363 37.7248 32.9363 37.3853V27.5376C32.9363 27.198 32.6557 26.9228 32.3096 26.9228H22.2691C21.923 26.9228 21.6424 27.198 21.6424 27.5376Z" fill="#FF6400"/>
<path d="M21.6424 15.0761V24.9238C21.6424 25.2633 21.923 25.5386 22.2691 25.5386H32.3096C32.6557 25.5386 32.9363 25.2633 32.9363 24.9238V15.0761C32.9363 14.7366 32.6557 14.4614 32.3096 14.4614H22.2691C21.923 14.4614 21.6424 14.7366 21.6424 15.0761Z" fill="#FF6400"/>
</svg>
