<svg width="40" height="40" viewBox="0 0 40 40" fill="none" xmlns="http://www.w3.org/2000/svg">
<path d="M19.9999 10.8112C23.1769 10.8112 25.7524 9.32386 25.7524 7.48911C25.7524 5.65436 23.1769 4.16699 19.9999 4.16699C16.8229 4.16699 14.2475 5.65436 14.2475 7.48911C14.2475 9.32386 16.8229 10.8112 19.9999 10.8112Z" fill="#E6007A"/>
<path d="M19.9999 35.8337C23.1769 35.8337 25.7524 34.3463 25.7524 32.5115C25.7524 30.6768 23.1769 29.1894 19.9999 29.1894C16.8229 29.1894 14.2475 30.6768 14.2475 32.5115C14.2475 34.3463 16.8229 35.8337 19.9999 35.8337Z" fill="#E6007A"/>
<path d="M11.9822 15.4059C13.5707 12.6751 13.5607 9.71768 11.9597 8.8003C10.3588 7.88293 7.77332 9.35299 6.18483 12.0838C4.59634 14.8146 4.6064 17.772 6.2073 18.6894C7.80821 19.6068 10.3937 18.1367 11.9822 15.4059Z" fill="#E6007A"/>
<path d="M33.8152 27.9171C35.4037 25.1863 35.3936 22.2289 33.7927 21.3115C32.1918 20.3941 29.6063 21.8642 28.0178 24.595C26.4293 27.3258 26.4394 30.2832 28.0403 31.2006C29.6412 32.1179 32.2267 30.6479 33.8152 27.9171Z" fill="#E6007A"/>
<path d="M11.9597 31.2004C13.5606 30.283 13.5707 27.3256 11.9822 24.5948C10.3937 21.864 7.8082 20.3939 6.20729 21.3113C4.60639 22.2287 4.59633 25.1861 6.18482 27.9169C7.77331 30.6477 10.3588 32.1178 11.9597 31.2004Z" fill="#E6007A"/>
<path d="M33.7926 18.6895C35.3935 17.7721 35.4035 14.8147 33.815 12.0839C32.2266 9.35309 29.641 7.88302 28.0401 8.8004C26.4392 9.71778 26.4292 12.6752 28.0177 15.406C29.6061 18.1368 32.1917 19.6069 33.7926 18.6895Z" fill="#E6007A"/>
</svg>
