<svg width="40" height="40" viewBox="0 0 40 40" fill="none" xmlns="http://www.w3.org/2000/svg">
<path d="M25.7998 14.2332C24.3049 12.7599 22.289 11.936 20.1902 11.9404C20.163 11.9404 20.1342 11.9404 20.1102 11.9404C17.9833 11.9511 15.9478 12.8061 14.4514 14.3175C12.9551 15.8289 12.1204 17.8728 12.131 19.9996C12.1416 22.1265 12.9966 24.162 14.508 25.6584C16.0194 27.1548 18.0633 27.9895 20.1902 27.9788H20.2702C21.856 27.9626 23.4014 27.4766 24.7109 26.582C26.0205 25.6875 27.0354 24.4248 27.6273 22.9535C28.2192 21.4821 28.3614 19.8683 28.0362 18.3162C27.7109 16.764 26.9326 15.3431 25.7998 14.2332Z" fill="url(#paint0_linear_1514_56987)"/>
<path d="M23.6102 13.2629C22.6702 13.0229 21.915 13.2181 21.3014 13.8485C21.2258 13.9284 21.1547 14.0126 21.0886 14.1005C20.9286 14.3029 20.7926 14.4781 20.4822 14.5501C20.0638 14.6336 19.6349 14.6514 19.211 14.6029C19.0894 14.5845 18.9878 14.5621 18.8982 14.5413C18.5822 14.4693 18.391 14.4261 18.0126 14.7861C17.8944 14.906 17.7873 15.0364 17.6926 15.1757C17.5246 15.4069 17.3662 15.6253 17.1062 15.7253C16.9857 15.77 16.8593 15.7969 16.731 15.8053L16.6966 15.7901L16.6886 15.8069C16.5048 15.8114 16.3208 15.7996 16.139 15.7717C15.9959 15.7505 15.8517 15.7376 15.707 15.7333C15.9036 15.4467 16.0756 15.144 16.2214 14.8285C16.4862 14.7877 16.7118 14.6141 16.9302 14.4437C17.0455 14.3489 17.168 14.2633 17.2966 14.1877C17.7342 13.9477 17.9462 13.7437 18.3262 13.3269C18.6862 12.9325 19.0734 12.6869 19.5422 12.4397C19.7769 12.3199 19.9808 12.1477 20.1382 11.9365C21.7038 11.9477 23.1694 12.3133 24.4582 13.1645C24.3198 13.2509 24.031 13.3685 23.6102 13.2629Z" fill="#DADADA"/>
<path d="M27.9566 18.8419C27.8459 18.7991 27.7388 18.7472 27.6366 18.6867C27.4786 18.5864 27.3034 18.5162 27.1198 18.4795L26.6518 18.2499C25.9142 18.1227 25.6118 18.2187 24.867 18.0099C24.5217 17.908 24.162 17.8634 23.8022 17.8779L23.7838 17.8627L23.7702 17.8795C23.515 17.8907 23.2582 17.9267 22.9702 17.9667L22.7726 17.9947C22.6926 18.0051 22.603 18.0195 22.5014 18.0355C21.867 18.1355 20.8038 18.3035 20.435 17.8899L20.4142 17.9091C19.8489 17.576 19.2048 17.4 18.5486 17.3995C17.5262 17.3995 17.2054 17.1235 16.6222 16.6219C16.523 16.5363 16.4126 16.4419 16.291 16.3411C16.3438 16.3411 16.3966 16.3411 16.451 16.3411C16.715 16.4326 16.9924 16.4793 17.2718 16.4795C17.3253 16.4798 17.3787 16.4771 17.4318 16.4715C17.5778 16.4557 17.714 16.3902 17.8174 16.2859C17.8635 16.2458 17.9122 16.2087 17.963 16.1747C18.0759 16.1076 18.2063 16.0758 18.3374 16.0835C18.3942 16.0835 18.4534 16.0787 18.5174 16.0707C18.795 16.0363 18.9902 15.8811 19.179 15.7307C19.3542 15.5915 19.5198 15.4595 19.7446 15.4235C19.8006 15.4139 19.8574 15.4099 19.9166 15.4051C20.0659 15.4062 20.2132 15.3705 20.3454 15.3011C20.4166 15.2557 20.4822 15.202 20.5406 15.1411C20.6073 15.0641 20.6889 15.0015 20.7806 14.9571C21.0766 14.8555 21.2086 14.6115 21.367 14.4091C21.4374 14.3195 21.767 14.2715 21.8558 14.1811C22.5222 13.4955 23.0558 13.2515 24.0766 13.5099C24.5966 13.6403 24.7966 13.6643 24.971 13.5371C25.8288 14.1747 26.5504 14.9773 27.0935 15.8978C27.6366 16.8182 27.9901 17.838 28.1334 18.8971C28.0734 18.8825 28.0143 18.864 27.9566 18.8419Z" fill="#DADADA"/>
<path d="M17.8078 25.7731C17.7981 25.7233 17.7932 25.6727 17.7934 25.6219C17.7915 25.5041 17.7784 25.3868 17.7542 25.2715C17.699 25.0027 17.6222 24.9515 17.5254 24.8819C17.444 24.8294 17.3738 24.7611 17.319 24.6811C17.223 24.534 17.1524 24.3717 17.1102 24.2011L17.103 24.1787C17.1735 24.2229 17.2461 24.2635 17.3206 24.3003C17.3566 24.3187 17.4006 24.3443 17.4566 24.3731C17.6638 24.4851 17.9486 24.6403 18.0926 24.6275C18.2166 24.6099 18.3293 24.5459 18.4078 24.4483C18.475 24.3811 18.6918 24.5083 18.7846 24.4915C18.955 24.4611 19.1526 24.4115 19.4086 24.5163C19.5166 24.5603 19.6102 24.5963 19.6814 24.6211C19.815 24.6627 19.951 24.7203 20.0814 24.7747C20.2974 24.8761 20.5249 24.9505 20.759 24.9963C20.8894 25.0141 21.021 25.0221 21.1526 25.0203C21.3959 25.0061 21.6385 25.0575 21.855 25.1691C22.3566 25.4195 22.4646 25.4395 23.0118 25.3859C23.4222 25.3451 23.9438 25.3059 24.3414 25.3707C24.7174 25.4315 25.0614 25.6067 25.3966 25.8251C25.3966 25.8587 25.447 25.9723 25.4502 26.0051C24.0622 27.2793 22.2456 27.9847 20.3614 27.9811C20.1958 27.9811 20.0318 27.9747 19.8694 27.9635C19.7947 27.8833 19.7124 27.8105 19.6238 27.7459C19.518 27.6806 19.4043 27.6289 19.2854 27.5923C19.1302 27.5363 18.9654 27.4787 18.879 27.3803C18.7542 27.2427 18.7678 27.0891 18.7806 26.9403C18.7999 26.8399 18.7913 26.7362 18.7558 26.6403C18.6822 26.4883 18.5214 26.3947 18.351 26.2963C18.2498 26.2419 18.1539 26.1782 18.0646 26.1059C17.9761 26.0365 17.8998 25.9526 17.839 25.8579C17.8486 25.8323 17.8078 25.7731 17.8078 25.7731Z" fill="#DADADA"/>
<path d="M15.8339 13.6289C15.82 13.8327 15.831 14.0374 15.8667 14.2385C15.9035 14.5049 15.9379 14.7569 15.8363 15.0441L15.8259 15.0729H15.8163V15.0937C15.6819 15.4377 15.3667 15.9249 15.2171 16.1473C14.8779 16.1017 14.7211 15.8489 14.5547 15.5817C14.4551 15.3998 14.3252 15.2361 14.1707 15.0977C14.0944 15.0389 14.0142 14.9855 13.9307 14.9377C14.5057 14.2226 15.1986 13.6109 15.9795 13.1289C15.9032 13.2862 15.8539 13.4552 15.8339 13.6289Z" fill="#DADADA"/>
<path d="M25.8667 25.5359C25.8547 25.3759 25.8467 25.2079 25.8451 25.0399C25.8363 24.1599 25.7947 23.8711 25.2051 23.3767C24.7515 22.9943 24.2283 22.8055 24.0611 22.2351C23.9691 21.9199 23.9667 21.5151 23.9643 21.0927C23.9643 20.9063 23.9643 20.7183 23.9531 20.5327C23.9968 20.3514 24.062 20.1761 24.1475 20.0103C24.2467 19.7943 24.4067 19.5703 24.3731 19.3351C24.3451 19.1383 24.3731 19.2799 24.2875 19.0151C24.2123 18.7823 24.0715 18.6519 23.9043 18.5167C24.22 18.5139 24.5344 18.5582 24.8371 18.6479C25.5843 18.8615 26.2835 18.5823 27.0243 18.7095L27.0987 18.7223C27.2734 18.7572 27.4402 18.8239 27.5907 18.9191C27.6956 18.9816 27.8056 19.0351 27.9195 19.0791C27.9932 19.1054 28.0689 19.1257 28.1459 19.1399C28.1857 19.4114 28.2058 19.6855 28.2059 19.9599C28.2093 22.0576 27.3881 24.0725 25.9195 25.5703L25.8667 25.5359Z" fill="#DADADA"/>
<path d="M13.04 22.3088C13.1096 22.3328 13.1776 22.356 13.24 22.38C13.5186 22.4749 13.7841 22.6044 14.0304 22.7656C14.2904 22.944 14.4936 23.1208 14.6424 23.4056C14.8024 23.7104 14.9216 23.9072 15.244 24.076L15.34 24.1264C15.736 24.332 16.0216 24.4808 16.2288 24.8816C16.3544 25.1216 16.5824 25.2248 16.8024 25.3216C16.9223 25.37 17.0375 25.4295 17.1464 25.4992L17.1904 25.5296L17.2704 25.5824C17.3048 25.6912 17.3832 25.7952 17.576 25.964C17.6795 26.0481 17.7906 26.1223 17.908 26.1856C18.0848 26.2888 18.252 26.3856 18.3224 26.5296C18.3536 26.6217 18.3602 26.7205 18.3416 26.816C18.3264 26.992 18.308 27.1912 18.4736 27.376C18.588 27.5024 18.7776 27.5704 18.9608 27.636C19.0852 27.6741 19.2043 27.7279 19.3152 27.796C19.3819 27.8447 19.445 27.8982 19.504 27.956C17.8587 27.8149 16.2969 27.1698 15.0316 26.1087C13.7663 25.0475 12.8591 23.622 12.4336 22.0264C12.6008 22.16 12.8344 22.24 13.04 22.3088Z" fill="#DADADA"/>
<path d="M14.3194 15.7896C14.457 16.0104 14.5986 16.236 14.8482 16.3424C14.6194 16.3816 14.5458 16.3184 14.305 16.5232C14.177 16.632 13.9002 16.6136 13.7842 16.7376C13.5866 16.9472 13.5402 17.3112 13.2898 17.4424C13.0245 17.5758 12.7489 17.6879 12.4658 17.7776C12.7538 16.7568 13.1058 15.9936 13.7458 15.1816C13.821 15.2244 13.8924 15.2734 13.9594 15.328C14.1045 15.4606 14.2262 15.6166 14.3194 15.7896Z" fill="#DADADA"/>
<path d="M24.4601 23.4188L24.5137 23.4636C25.0345 23.9012 25.1753 24.0196 25.1825 24.7772C25.1825 24.9092 25.1889 25.0396 25.1977 25.1692C24.8713 24.9628 24.5297 24.7932 24.1625 24.7348C23.7553 24.6692 23.2273 24.7076 22.8121 24.7484C22.2809 24.8012 22.3953 24.6596 21.9073 24.4156C21.5961 24.2604 21.1809 24.3836 20.9609 24.3828C20.8333 24.3846 20.7058 24.3768 20.5793 24.3596C20.3518 24.3148 20.1307 24.2422 19.9209 24.1436C19.7881 24.0884 19.8457 23.978 19.7081 23.9348C19.6401 23.9132 19.3529 23.9284 19.2457 23.8852C18.9665 23.7716 18.6177 23.6308 18.4249 23.6652C18.3206 23.6916 18.2275 23.7508 18.1593 23.834C18.0942 23.919 17.9993 23.9762 17.8937 23.994C17.7729 24.0028 17.4937 23.85 17.3025 23.7484C17.2481 23.7188 17.2001 23.6932 17.1633 23.6748C17.0626 23.6245 16.9653 23.5675 16.8721 23.5044C16.8721 23.498 16.8681 23.49 16.8657 23.4836L16.8497 23.4892C16.63 23.3319 16.4217 23.1592 16.2265 22.9724C15.8306 22.6002 15.3555 22.3225 14.8369 22.1604C15.1633 22.1156 15.4361 21.9596 15.7169 21.7972C15.9506 21.6498 16.2016 21.5319 16.4641 21.446C16.7841 21.3516 17.1505 21.35 17.5041 21.3476C17.8785 21.3476 18.2657 21.3436 18.6041 21.2316C18.9561 21.1148 19.2209 20.8612 19.4777 20.6156C19.7481 20.3564 20.0833 20.3164 20.4641 20.2156C20.7681 20.1356 21.1537 19.8804 21.6201 19.8516C22.1993 19.8172 22.7969 19.7804 23.1777 19.6348C23.3953 19.9092 23.4601 20.2972 23.4809 20.7108C23.4813 20.7123 23.4813 20.714 23.4809 20.7156C23.4889 20.882 23.4905 21.0516 23.4913 21.2204C23.4913 21.6092 23.4961 21.9764 23.5825 22.2708C23.7377 22.8116 24.0569 23.0796 24.4601 23.4188Z" fill="#DADADA"/>
<path d="M12.3837 21.8298C12.2383 21.2517 12.165 20.6579 12.1653 20.0618C12.1566 19.4334 12.2219 18.8061 12.3597 18.193C12.6529 18.1067 12.9388 17.9975 13.2149 17.8666C13.4549 17.7426 13.6397 17.7018 13.8221 17.5082C13.9229 17.3958 14.0297 17.2889 14.1421 17.1882C14.5877 16.8098 14.9941 16.861 15.4221 16.9162C15.5245 16.9298 15.6285 16.9418 15.7341 16.949C15.8773 17.0642 16.0029 17.0122 16.1141 17.109C16.6357 17.5578 16.9469 18.0154 17.8973 18.0154C18.5869 18.0154 19.1237 18.0226 19.6685 18.3498C19.6829 18.3594 19.6973 18.3682 19.7133 18.377C19.8549 18.4634 19.9981 18.5594 20.1453 18.6634L20.2381 18.7298C20.5429 18.9474 20.8309 19.1538 21.2309 19.2186C21.3677 19.237 21.5059 19.2428 21.6437 19.2362C21.9053 19.2314 22.1341 19.2266 22.3325 19.4298C21.9621 19.5618 21.3853 19.597 20.8261 19.6306C20.3557 19.6594 19.9109 19.6866 19.5997 19.7682C19.1997 19.8746 18.9109 20.1498 18.6325 20.4162C18.3709 20.6666 18.1245 20.9026 17.7893 21.0138C17.4541 21.125 17.0821 21.1242 16.7141 21.1258C16.3461 21.1274 15.9861 21.1306 15.6533 21.2274C15.3849 21.3149 15.1283 21.4353 14.8893 21.5858C14.5469 21.7834 14.2189 21.9714 13.7877 21.9482C13.6637 21.9186 13.5389 21.8962 13.4133 21.8778L13.3781 21.8674V21.873C13.0483 21.8321 12.7158 21.8177 12.3837 21.8298Z" fill="#DADADA"/>
<path d="M8.39966 11.4506C7.61461 11.4565 6.82986 11.4175 6.04927 11.3338C4.43087 11.1426 3.59086 10.737 3.40926 10.0538C3.11726 8.98255 4.67566 8.08175 5.87406 7.49375C10.4341 5.26975 20.4341 2.96175 28.1677 2.34895C30.5589 2.15935 32.5677 2.14735 33.9853 2.31375C35.6037 2.50495 36.4437 2.91055 36.6253 3.59375C36.9173 4.66495 35.3589 5.56575 34.1605 6.15375C29.6005 8.37775 19.6005 10.6858 11.8669 11.2986C10.5941 11.4002 9.42766 11.4506 8.39966 11.4506ZM31.6117 3.16335C30.6925 3.16335 29.5813 3.20575 28.2413 3.31215C20.6077 3.92015 10.7613 6.18335 6.29247 8.36335C4.37247 9.30015 4.33166 9.80335 4.33326 9.80335C4.39646 10.037 5.85327 10.8122 11.7925 10.341C19.4261 9.73615 29.2725 7.46975 33.7413 5.28975C35.6613 4.35295 35.7021 3.85375 35.7005 3.84975C35.6509 3.66895 34.7685 3.16335 31.6117 3.16335Z" fill="#DADADA"/>
<path d="M8.36688 37.7967C7.58182 37.8026 6.79707 37.7636 6.01648 37.6799C4.39808 37.4887 3.55808 37.0831 3.37648 36.3999C3.08048 35.3319 4.63968 34.4311 5.83968 33.8463C10.3997 31.6223 20.3997 29.3143 28.1333 28.7015C30.5245 28.5119 32.5333 28.4999 33.9509 28.6663C35.5693 28.8575 36.4093 29.2631 36.5949 29.9463C36.8869 31.0175 35.3285 31.9183 34.1301 32.5063C29.5701 34.7303 19.5701 37.0383 11.8365 37.6511C10.5597 37.7455 9.39328 37.7967 8.36688 37.7967ZM31.5773 29.5095C30.6581 29.5095 29.5469 29.5519 28.2069 29.6583C20.5733 30.2631 10.7269 32.5295 6.25808 34.7095C4.33808 35.6463 4.29728 36.1455 4.29888 36.1495C4.36288 36.3831 5.81488 37.1583 11.7581 36.6871C19.3917 36.0815 29.2381 33.8159 33.7069 31.6359C35.6269 30.6991 35.6677 30.1959 35.6661 30.1959C35.6165 30.0151 34.7341 29.5095 31.5773 29.5095Z" fill="#DADADA"/>
<defs>
<linearGradient id="paint0_linear_1514_56987" x1="20.1862" y1="27.9804" x2="20.1862" y2="11.9404" gradientUnits="userSpaceOnUse">
<stop stop-color="#603211"/>
<stop offset="0.17" stop-color="#DD7D26"/>
<stop offset="0.35" stop-color="#603211"/>
<stop offset="0.54" stop-color="#9C3520"/>
<stop offset="0.77" stop-color="#DD7D26"/>
<stop offset="1" stop-color="#603211"/>
</linearGradient>
</defs>
</svg>
