<svg width="24" height="24" viewBox="0 0 24 24" fill="none" xmlns="http://www.w3.org/2000/svg">
<path d="M19.0286 8.01299C18.9573 8.20034 15.9607 6.31977 13.2241 7.60276C11.2344 8.53559 10.4124 10.344 10.4124 11.886C10.4124 13.101 10.8348 14.019 11.2966 14.6172C12.0476 15.5901 12.7463 15.9561 13.3498 16.2814C14.3217 16.8053 15.9747 16.8227 16.4766 16.7967C17.4111 16.7483 18.5091 16.4784 19.4349 16.0467C19.7884 15.8819 20.3624 15.5245 20.8652 15.1247C21.7238 14.442 22.5146 13.5832 22.5009 13.6496C22.479 13.755 22.4879 13.8384 22.0585 14.5909C20.7863 16.8205 18.6714 17.7931 18.6714 17.7931C15.6918 19.3674 13.0476 18.5509 12.5337 18.3549C10.2776 17.4945 9.10093 15.8813 8.82598 15.3683C8.37764 14.5316 7.57388 11.4586 8.65083 9.01594C9.44891 7.20582 11.2992 6.31646 11.5035 6.23134C14.8002 4.8571 19.0935 7.84275 19.0286 8.01299Z" fill="url(#paint0_linear_1532_63445)"/>
<path d="M19.1227 7.85726C18.9888 7.98121 18.0264 6.82769 16.4813 5.99465C16.0395 5.75652 14.3542 4.90068 12.2958 4.94463C8.88357 5.01713 6.61593 7.51693 6.21157 7.98021C4.19048 10.2957 3.23892 13.8611 4.37569 16.6357C5.85308 20.2411 10.7963 22.3149 10.4204 22.3558L9.98794 22.2177C9.46618 22.0122 3.06287 19.1323 2.83351 13.3935C2.7042 10.1598 3.74536 7.54098 4.37569 6.8261C5.47711 5.577 6.36027 4.97566 7.10477 4.57846C8.60077 3.78094 11.4143 3.09754 13.5024 3.41147C15.8453 3.76383 17.316 5.39718 18.0331 6.19373C18.6801 6.91207 19.2309 7.75703 19.1227 7.85726Z" fill="url(#paint1_linear_1532_63445)"/>
<path d="M19.1054 8.01007C19.2637 7.93987 19.0524 5.79258 17.655 4.15964C17.0914 3.4998 16.4718 2.89981 15.711 2.47993C12.5657 0.778387 8.69853 2.14669 7.86141 2.47993C7.00388 2.82111 5.1742 3.75346 3.63815 5.66637C1.90666 7.8229 1.65024 10.1365 1.55166 11.1493C1.1304 15.4737 3.38315 18.8697 3.54347 18.8185C3.63692 18.7887 2.61492 16.6279 2.83319 13.3935C2.91632 12.1623 3.08714 9.90702 4.65144 7.74235C5.59904 6.4657 6.69527 5.40303 8.12533 4.70143C8.95282 4.29339 11.9137 2.97821 14.8788 4.0227C15.7822 4.34744 16.614 4.84316 17.3283 5.4825C18.6192 6.66011 18.976 8.06765 19.1054 8.01007Z" fill="url(#paint2_linear_1532_63445)"/>
<path d="M14.5501 20.1229C14.4758 20.249 9.34578 18.7878 7.41859 15.1866C7.12855 14.6448 5.78909 11.757 6.66788 9.50884C7.03537 8.56848 7.75892 7.51571 8.05116 7.18871C8.52326 6.66062 9.32411 6.18583 10.3411 5.7556C10.798 5.56683 11.6328 5.37035 12.1231 5.30527C12.6093 5.24555 13.3559 5.25835 13.8434 5.30527C14.7911 5.39644 16.072 6.50103 16.036 6.50103C16.0262 6.50103 15.0193 6.17882 13.9782 6.1074C13.1153 6.04822 12.1792 6.24823 11.8472 6.36539C11.1147 6.62387 10.1107 7.18871 9.53012 7.90237C8.9496 8.61603 8.45403 9.62474 8.34848 10.9769C8.27111 11.9681 8.37729 13.414 8.80777 14.5412C9.01412 15.0815 9.36951 15.7691 10.0526 16.6747C11.5065 18.6022 14.6038 20.0325 14.5501 20.1229Z" fill="url(#paint3_linear_1532_63445)"/>
<path d="M11.7704 4.85318C12.6604 4.72515 13.4221 4.68098 14.3045 4.85318C15.3172 5.0562 15.8773 5.26545 16.567 5.61752C17.745 6.21888 19.236 7.76084 19.1225 7.99225C18.9202 8.40479 15.781 5.08994 11.4683 6.23073C10.2487 6.64623 9.49647 7.03418 8.71759 7.62679C7.39095 8.63609 6.73357 9.96367 6.52584 10.5066C6.16923 11.4387 6.07235 11.9632 6.02919 12.9551C6.02919 14.2907 6.27963 15.0654 6.58248 15.9145C7.01334 17.1232 7.81692 18.5049 7.68783 18.4153C6.21156 17.3918 5.28902 14.2335 5.1871 13.5789C5.08517 12.9244 4.64991 10.0891 6.52584 7.72825C8.23604 5.57605 11.107 4.94962 11.7704 4.85318Z" fill="url(#paint4_linear_1532_63445)"/>
<defs>
<linearGradient id="paint0_linear_1532_63445" x1="17.1514" y1="5.94038" x2="17.1514" y2="18.7954" gradientUnits="userSpaceOnUse">
<stop stop-color="#FAB961"/>
<stop offset="1"/>
</linearGradient>
<linearGradient id="paint1_linear_1532_63445" x1="10.9794" y1="3.33348" x2="10.9794" y2="22.3876" gradientUnits="userSpaceOnUse">
<stop stop-color="#FAB961"/>
<stop offset="1"/>
</linearGradient>
<linearGradient id="paint2_linear_1532_63445" x1="10.3277" y1="1.75086" x2="10.3277" y2="18.8195" gradientUnits="userSpaceOnUse">
<stop/>
<stop offset="0.414296" stop-color="#FAB961"/>
</linearGradient>
<linearGradient id="paint3_linear_1532_63445" x1="10.5336" y1="5.89131" x2="10.5336" y2="19.7715" gradientUnits="userSpaceOnUse">
<stop/>
<stop offset="1" stop-color="#FAB961"/>
</linearGradient>
<linearGradient id="paint4_linear_1532_63445" x1="12.0995" y1="5.07417" x2="12.0995" y2="18.4194" gradientUnits="userSpaceOnUse">
<stop/>
<stop offset="1" stop-color="#FAB961"/>
</linearGradient>
</defs>
</svg>
