<svg width="24" height="24" viewBox="0 0 24 24" fill="none" xmlns="http://www.w3.org/2000/svg">
<path d="M22.4173 20.4001H7.77961C7.71098 20.4001 7.64235 20.3817 7.57995 20.345L2.28893 17.1442C2.11423 17.0402 2.05183 16.8137 2.1579 16.6424C2.22654 16.5322 2.35133 16.4588 2.48859 16.4649H17.1262C17.1949 16.4649 17.2635 16.4832 17.3259 16.52L22.6169 19.7208C22.7916 19.8248 22.854 20.0513 22.748 20.2226C22.6793 20.3328 22.5545 20.4001 22.4173 20.4001ZM7.88568 19.6596H21.0945L17.0264 17.1932H3.81759L7.88568 19.6596Z" fill="white"/>
<path d="M21.5065 7.53569H6.86882C6.80019 7.53569 6.73155 7.51733 6.66916 7.48061L1.38438 4.27981C1.20344 4.17577 1.14728 3.94933 1.25335 3.77796C1.32199 3.66168 1.44678 3.59436 1.58404 3.60048H16.2217C16.2903 3.60048 16.359 3.61884 16.4213 3.65556L21.7124 6.85637C21.8933 6.96041 21.9495 7.18685 21.8434 7.35821C21.7685 7.47449 21.6437 7.54181 21.5065 7.53569ZM6.97489 6.80128H20.1837L16.1156 4.33489H2.9068L6.97489 6.80128Z" fill="white"/>
<path d="M11.8244 9.74504C10.5764 9.74504 9.55501 10.9137 9.62807 12.1319C9.6967 13.2886 10.6451 14.2127 11.8244 14.2678C13.0706 14.2678 14.1456 13.2465 14.133 11.985C14.107 10.7498 13.0532 9.74504 11.8244 9.74504Z" fill="white"/>
</svg>
