<svg width="24" height="25" viewBox="0 0 24 25" fill="none" xmlns="http://www.w3.org/2000/svg">
<path d="M12 22.6606C17.799 22.6606 22.5 17.9596 22.5 12.1606C22.5 6.36165 17.799 1.66064 12 1.66064C6.20101 1.66064 1.5 6.36165 1.5 12.1606C1.5 17.9596 6.20101 22.6606 12 22.6606Z" fill="url(#paint0_linear_28535_208554)"/>
<path d="M11.9998 21.326C17.0616 21.326 21.1651 17.2225 21.1651 12.1607C21.1651 7.09881 17.0616 2.99536 11.9998 2.99536C6.93792 2.99536 2.83447 7.09881 2.83447 12.1607C2.83447 17.2225 6.93792 21.326 11.9998 21.326Z" fill="#D7FF5E"/>
<path d="M8.54297 12.8842V14.4138C8.54297 15.5594 9.47162 16.488 10.6172 16.488H15.4572V16.2576C15.4572 15.1119 14.5286 14.1833 13.3829 14.1833H10.6172C9.70502 14.1833 8.91659 13.653 8.54297 12.8842Z" fill="#25143B"/>
<path d="M10.8477 13.9528V9.34332C10.8477 8.1977 9.91907 7.26904 8.77344 7.26904H8.54297V11.8785C8.54297 13.0242 9.47162 13.9528 10.6172 13.9528H10.8477Z" fill="#25143B"/>
<defs>
<linearGradient id="paint0_linear_28535_208554" x1="1.11625" y1="1.8486" x2="22.311" y2="22.4705" gradientUnits="userSpaceOnUse">
<stop offset="0.15" stop-color="#DAF460"/>
<stop offset="0.4" stop-color="#EA9067"/>
<stop offset="0.8" stop-color="#51327B"/>
</linearGradient>
</defs>
</svg>
