<svg width="40" height="41" viewBox="0 0 40 41" fill="none" xmlns="http://www.w3.org/2000/svg">
<path d="M20 37.6606C29.665 37.6606 37.5 29.8256 37.5 20.1606C37.5 10.4957 29.665 2.66064 20 2.66064C10.335 2.66064 2.5 10.4957 2.5 20.1606C2.5 29.8256 10.335 37.6606 20 37.6606Z" fill="url(#paint0_linear_28535_208572)"/>
<path d="M19.9996 35.4363C28.4361 35.4363 35.2751 28.5972 35.2751 20.1608C35.2751 11.7243 28.4361 4.88525 19.9996 4.88525C11.5632 4.88525 4.72412 11.7243 4.72412 20.1608C4.72412 28.5972 11.5632 35.4363 19.9996 35.4363Z" fill="#D7FF5E"/>
<path d="M14.2383 21.3666V23.9159C14.2383 25.8253 15.786 27.3731 17.6954 27.3731H25.762V26.9889C25.762 25.0796 24.2143 23.5318 22.3049 23.5318H17.6954C16.175 23.5318 14.861 22.648 14.2383 21.3666Z" fill="#25143B"/>
<path d="M18.0795 23.1477V15.4652C18.0795 13.5558 16.5318 12.0081 14.6224 12.0081H14.2383V19.6906C14.2383 21.5999 15.786 23.1477 17.6954 23.1477H18.0795Z" fill="#25143B"/>
<defs>
<linearGradient id="paint0_linear_28535_208572" x1="1.86041" y1="2.97391" x2="37.185" y2="37.3438" gradientUnits="userSpaceOnUse">
<stop offset="0.15" stop-color="#DAF460"/>
<stop offset="0.4" stop-color="#EA9067"/>
<stop offset="0.8" stop-color="#51327B"/>
</linearGradient>
</defs>
</svg>
