<svg width="24" height="24" viewBox="0 0 24 24" fill="none" xmlns="http://www.w3.org/2000/svg">
<path d="M12 22.5C17.799 22.5 22.5 17.799 22.5 12C22.5 6.20101 17.799 1.5 12 1.5C6.20101 1.5 1.5 6.20101 1.5 12C1.5 17.799 6.20101 22.5 12 22.5Z" fill="#1A1A1A"/>
<path d="M13.7011 4.44047C13.7011 5.37991 12.9396 6.14147 12.0001 6.14147C11.0607 6.14147 10.2991 5.37991 10.2991 4.44047C10.2991 3.50104 11.0607 2.73947 12.0001 2.73947C12.9396 2.73947 13.7011 3.50104 13.7011 4.44047Z" fill="#1CC776"/>
<path d="M13.7011 19.5605C13.7011 20.4999 12.9396 21.2615 12.0001 21.2615C11.0607 21.2615 10.2991 20.4999 10.2991 19.5605C10.2991 18.621 11.0607 17.8595 12.0001 17.8595C12.9396 17.8595 13.7011 18.621 13.7011 19.5605Z" fill="#1CC776"/>
<path d="M19.3976 9.69407C18.5841 10.1638 17.5438 9.88504 17.074 9.07146C16.6043 8.25789 16.8831 7.21757 17.6966 6.74785C18.5102 6.27814 19.5505 6.55689 20.0203 7.37046C20.49 8.18404 20.2112 9.22435 19.3976 9.69407Z" fill="#1CC776"/>
<path d="M6.30335 17.2541C5.48977 17.7238 4.44945 17.445 3.97974 16.6315C3.51002 15.8179 3.78877 14.7776 4.60235 14.3079C5.41592 13.8381 6.45624 14.1169 6.92595 14.9305C7.39567 15.744 7.11692 16.7844 6.30335 17.2541Z" fill="#1CC776"/>
<path d="M4.60234 9.69407C5.41592 10.1638 6.45623 9.88503 6.92595 9.07146C7.39567 8.25788 7.11692 7.21756 6.30334 6.74785C5.48976 6.27813 4.44945 6.55688 3.97973 7.37046C3.51001 8.18403 3.78876 9.22435 4.60234 9.69407Z" fill="#1CC776"/>
<path d="M17.6966 17.2541C18.5102 17.7238 19.5505 17.445 20.0203 16.6315C20.49 15.8179 20.2112 14.7776 19.3976 14.3078C18.5841 13.8381 17.5438 14.1169 17.074 14.9305C16.6043 15.744 16.8831 16.7843 17.6966 17.2541Z" fill="#1CC776"/>
<path d="M16.289 12.6717C16.2101 13.4031 15.983 14.0524 15.6079 14.6196C15.2328 15.1793 14.7359 15.6159 14.1173 15.9294C13.5053 16.2354 12.8044 16.3884 12.0147 16.3884C11.1591 16.3884 10.4056 16.2055 9.75406 15.8398C9.10254 15.4741 8.59909 14.9592 8.24371 14.295C7.88834 13.6308 7.71065 12.8658 7.71065 12.0001C7.71065 11.1343 7.88834 10.3694 8.24371 9.70516C8.59909 9.04095 9.10254 8.526 9.75406 8.1603C10.4056 7.79461 11.1591 7.61177 12.0147 7.61177C12.8044 7.61177 13.5053 7.76849 14.1173 8.08194C14.7359 8.38793 15.2328 8.82452 15.6079 9.39171C15.983 9.95145 16.2101 10.597 16.289 11.3284H14.1667C14.1008 10.9851 13.9725 10.6903 13.7817 10.444C13.5974 10.1977 13.3539 10.0112 13.0512 9.88428C12.755 9.74994 12.4095 9.68278 12.0147 9.68278C11.5671 9.68278 11.1789 9.77606 10.8498 9.96264C10.5273 10.1418 10.2773 10.4067 10.0996 10.7575C9.92188 11.1082 9.83304 11.5224 9.83304 12.0001C9.83304 12.4777 9.92188 12.8919 10.0996 13.2427C10.2773 13.5934 10.5273 13.8621 10.8498 14.0487C11.1789 14.2278 11.5671 14.3174 12.0147 14.3174C12.4095 14.3174 12.755 14.2577 13.0512 14.1382C13.3539 14.0114 13.5974 13.8248 13.7817 13.5785C13.9725 13.3248 14.1008 13.0225 14.1667 12.6717H16.289Z" fill="white"/>
</svg>
