<svg width="40" height="40" viewBox="0 0 40 40" fill="none" xmlns="http://www.w3.org/2000/svg">
<path d="M39.0002 21.2446L36.4529 18.9092L33.9836 21.6025C33.047 22.6243 31.6837 23.1454 30.3041 23.0091L29.6573 22.9452C28.7379 22.8543 27.8288 23.2017 27.2045 23.8829L17.4277 34.5472L19.9751 36.8827L31.1335 24.7114C31.854 23.9254 32.944 23.5918 33.9809 23.84L34.4657 23.956C35.5026 24.2042 36.5927 23.8706 37.3131 23.0847L39.0002 21.2446Z" fill="url(#paint0_linear_1514_56879)"/>
<path d="M33.5254 16.2251L30.9781 13.8896L25.9141 19.4134C24.9773 20.4352 23.6141 20.9563 22.2346 20.82L21.588 20.7561C20.6683 20.6652 19.7595 21.0126 19.135 21.6938L11.9531 29.5278L14.5006 31.8629L23.064 22.5223C23.7845 21.7363 24.8746 21.4028 25.9116 21.6509L26.3961 21.7669C27.4331 22.0151 28.5231 21.6816 29.2436 20.8956L33.5254 16.2251Z" fill="url(#paint1_linear_1514_56879)"/>
<path d="M28.0471 11.2045L25.4996 8.86914L17.8407 17.2233C16.9039 18.2451 15.5407 18.7663 14.1612 18.6299L13.5146 18.566C12.5949 18.4751 11.6861 18.8226 11.0616 19.5038L6.47461 24.5072L9.02204 26.8426L14.9905 20.3322C15.7111 19.5463 16.8011 19.2127 17.8382 19.4609L18.3227 19.5769C19.3597 19.8251 20.4498 19.4915 21.1703 18.7055L28.0471 11.2045Z" fill="url(#paint2_linear_1514_56879)"/>
<path d="M22.5724 6.18501L20.025 3.84961L9.77116 15.0343C8.83441 16.0561 7.47121 16.5772 6.09168 16.4409L5.44503 16.377C4.52535 16.2861 3.61656 16.6335 2.99205 17.3147L1 19.4876L3.5474 21.8231L6.92101 18.1432C7.64158 17.3572 8.73162 17.0237 9.76863 17.2718L10.2532 17.3878C11.2902 17.636 12.3802 17.3025 13.1008 16.5165L22.5724 6.18501Z" fill="url(#paint3_linear_1514_56879)"/>
<defs>
<linearGradient id="paint0_linear_1514_56879" x1="36.4529" y1="18.9092" x2="19.9752" y2="36.8827" gradientUnits="userSpaceOnUse">
<stop offset="0.209652" stop-color="#0BA37B"/>
<stop offset="0.335908" stop-color="#0CFEC0"/>
</linearGradient>
<linearGradient id="paint1_linear_1514_56879" x1="30.9781" y1="13.8896" x2="14.5006" y2="31.8629" gradientUnits="userSpaceOnUse">
<stop offset="0.321604" stop-color="#13936C"/>
<stop offset="0.506424" stop-color="#28D596"/>
</linearGradient>
<linearGradient id="paint2_linear_1514_56879" x1="25.4996" y1="8.86914" x2="9.02204" y2="26.8426" gradientUnits="userSpaceOnUse">
<stop offset="0.501239" stop-color="#1D8C68"/>
<stop offset="0.641372" stop-color="#15B786"/>
</linearGradient>
<linearGradient id="paint3_linear_1514_56879" x1="20.025" y1="3.84961" x2="3.5474" y2="21.8231" gradientUnits="userSpaceOnUse">
<stop offset="0.649631" stop-color="#1B7E5E"/>
<stop offset="0.796711" stop-color="#13A076"/>
</linearGradient>
</defs>
</svg>
