<svg width="24" height="24" viewBox="0 0 24 24" fill="none" xmlns="http://www.w3.org/2000/svg">
<path d="M16.6684 2.6123L10.4908 8.19989C9.85111 8.77825 9.01877 9.10006 8.15461 9.10313L6.31332 9.1075L6.30704 2.61293H2.97803V21.1734H4.79357C5.80904 21.1734 6.75606 20.6377 7.25281 19.7576C7.2572 19.7513 7.25909 19.7451 7.26285 19.7413C7.59255 19.1519 7.75772 17.9874 7.72569 17.1923C7.6541 15.3745 7.36019 14.902 7.36019 14.902C7.29865 16.1478 5.99116 16.2153 5.99116 16.2153C6.92122 15.3314 6.41443 14.6626 6.41443 14.6626C4.76782 15.8296 4.35648 14.5838 4.32508 14.4707C4.37658 14.5144 4.84506 14.9039 5.73556 13.6893C6.67693 12.406 7.9323 10.2664 8.73111 9.71633C9.53118 9.16438 10.2904 9.21002 10.2904 9.21002C10.2904 9.21002 10.7275 8.62057 11.8837 8.1305C13.0392 7.64357 13.7802 8.35803 13.7802 8.35803C12.5983 9.3069 10.9938 10.8652 10.904 13.0986C10.8324 14.9057 14.7461 18.0068 14.0584 22.5873C14.4698 21.5472 14.6349 20.5052 14.4936 19.2157C14.3806 18.1749 13.7067 16.0015 13.7067 16.0015L17.4653 21.1709H21.6214L13.4982 10.0632L21.6214 2.6123H16.6684Z" fill="url(#paint0_linear_1532_63523)"/>
<path d="M9.09972 10.6046C8.83722 11.0378 8.83722 11.1703 8.83722 11.1703C8.83722 11.1703 9.75472 11.0159 10.0034 9.93013C10.0053 9.93013 9.41749 10.0801 9.09909 10.6046H9.09972Z" fill="url(#paint1_linear_1532_63523)"/>
<defs>
<linearGradient id="paint0_linear_1532_63523" x1="30.9936" y1="15.6821" x2="15.6359" y2="-1.08882" gradientUnits="userSpaceOnUse">
<stop stop-color="#E40C5B"/>
<stop offset="1" stop-color="#FF4C3B"/>
</linearGradient>
<linearGradient id="paint1_linear_1532_63523" x1="10.5893" y1="10.7415" x2="9.6365" y2="9.69318" gradientUnits="userSpaceOnUse">
<stop stop-color="#E40C5B"/>
<stop offset="1" stop-color="#FF4C3B"/>
</linearGradient>
</defs>
</svg>
