<svg width="24" height="24" viewBox="0 0 24 24" fill="none" xmlns="http://www.w3.org/2000/svg">
<path d="M23.4003 12.7472L21.8719 11.3459L20.3903 12.9619C19.8283 13.575 19.0103 13.8877 18.1826 13.8059L17.7945 13.7675C17.2429 13.713 16.6974 13.9215 16.3228 14.3302L10.4568 20.7288L11.9852 22.13L18.6802 14.8273C19.1125 14.3557 19.7666 14.1555 20.3887 14.3045L20.6796 14.374C21.3017 14.5229 21.9557 14.3228 22.388 13.8512L23.4003 12.7472Z" fill="url(#paint0_linear_1532_63388)"/>
<path d="M20.1155 9.73523L18.5871 8.33398L15.5487 11.6482C14.9866 12.2613 14.1687 12.574 13.341 12.4922L12.953 12.4538C12.4012 12.3993 11.856 12.6078 11.4812 13.0165L7.17212 17.7169L8.70058 19.118L13.8386 13.5136C14.271 13.042 14.925 12.8419 15.5472 12.9908L15.8379 13.0603C16.4601 13.2092 17.1141 13.0091 17.5464 12.5375L20.1155 9.73523Z" fill="url(#paint1_linear_1532_63388)"/>
<path d="M16.8283 6.72326L15.2998 5.32202L10.7044 10.3345C10.1424 10.9476 9.32444 11.2603 8.49674 11.1785L8.10875 11.1402C7.55694 11.0856 7.01165 11.2941 6.63695 11.7028L3.88477 14.7048L5.41323 16.1061L8.99432 12.1999C9.42666 11.7283 10.0807 11.5282 10.7029 11.6771L10.9936 11.7467C11.6158 11.8956 12.2699 11.6954 12.7022 11.2239L16.8283 6.72326Z" fill="url(#paint2_linear_1532_63388)"/>
<path d="M13.5435 3.7113L12.0151 2.31006L5.86279 9.02085C5.30074 9.63395 4.48283 9.94662 3.65511 9.86482L3.26711 9.82647C2.71531 9.77195 2.17003 9.98041 1.79533 10.3891L0.600098 11.6929L2.12854 13.0941L4.15271 10.8862C4.58504 10.4146 5.23907 10.2145 5.86128 10.3634L6.15201 10.433C6.7742 10.5819 7.42822 10.3818 7.86056 9.91016L13.5435 3.7113Z" fill="url(#paint3_linear_1532_63388)"/>
<defs>
<linearGradient id="paint0_linear_1532_63388" x1="21.8719" y1="11.3459" x2="11.9852" y2="22.13" gradientUnits="userSpaceOnUse">
<stop offset="0.209652" stop-color="#0BA37B"/>
<stop offset="0.335908" stop-color="#0CFEC0"/>
</linearGradient>
<linearGradient id="paint1_linear_1532_63388" x1="18.5871" y1="8.33398" x2="8.70058" y2="19.118" gradientUnits="userSpaceOnUse">
<stop offset="0.321604" stop-color="#13936C"/>
<stop offset="0.506424" stop-color="#28D596"/>
</linearGradient>
<linearGradient id="paint2_linear_1532_63388" x1="15.2998" y1="5.32202" x2="5.41323" y2="16.1061" gradientUnits="userSpaceOnUse">
<stop offset="0.501239" stop-color="#1D8C68"/>
<stop offset="0.641372" stop-color="#15B786"/>
</linearGradient>
<linearGradient id="paint3_linear_1532_63388" x1="12.0151" y1="2.31006" x2="2.12854" y2="13.0941" gradientUnits="userSpaceOnUse">
<stop offset="0.649631" stop-color="#1B7E5E"/>
<stop offset="0.796711" stop-color="#13A076"/>
</linearGradient>
</defs>
</svg>
