<svg width="41" height="40" viewBox="0 0 41 40" fill="none" xmlns="http://www.w3.org/2000/svg">
<g clip-path="url(#clip0_17366_7487)">
<path d="M21 40C32.0458 40 41 31.0457 41 20C41 8.9543 32.0458 0 21 0C9.95431 0 1 8.9543 1 20C1 31.0457 9.95431 40 21 40Z" fill="#DE0376"/>
<path d="M30.9 29.6501C30.9 29.6501 30 29.7001 29.5 29.5001C28.25 29.0001 27.7 27.9501 27.7 26.1001V20.2501V6.50005C27.7 5.90005 27.25 5.50005 26.35 5.30005H26.05C25.5 5.30005 25.15 5.70005 24.9 6.55005V7.90005V15.2501C22.65 13.2501 20.25 12.2001 17.65 12.2001C15.6499 12.2001 13.75 12.8001 11.9 14.0501C8.99999 16.3001 7.54999 19.0501 7.54999 22.3001C7.54999 24.4501 8.24998 26.5501 9.69999 28.6001C12.05 31.1501 14.6 32.4501 17.3 32.4501H17.9C20.6499 32.4501 23.1 31.3001 25.3 28.9501C26.4 31.3001 28.05 32.4501 30.25 32.4501H30.6C31.35 32.4501 31.95 32.0501 31.95 31.1001V31.0001C31.95 30.1501 31.55 29.6501 30.9 29.6501ZM17.9 29.5501H17.45C16.75 29.5501 16 29.4501 15.15 29.2001C12 27.7501 10.45 25.5001 10.45 22.5001V22.1501C10.45 21.4501 10.6 20.6501 10.9 19.8001C12.4 16.7001 14.6 15.1501 17.55 15.1501H17.85C18.4 15.1501 19.15 15.2501 20.15 15.5001C23.35 17.0001 24.95 19.2001 24.95 22.2001V22.5001V22.6501C24.95 23.1501 24.85 23.9001 24.6 24.8501C23.05 28.0001 20.8 29.5501 17.9 29.5501Z" fill="white"/>
<path d="M34.0002 22.8999C34.6002 22.8999 35.1002 23.0999 35.6001 23.5499C36.0501 23.9999 36.2501 24.5499 36.2501 25.1499C36.2501 25.9999 35.8501 26.6499 35.0501 27.1499C34.7002 27.2999 34.3501 27.3999 34.0501 27.3999H33.9001C33.3001 27.3999 32.7502 27.0999 32.2001 26.5499C31.9001 26.0999 31.7001 25.6499 31.7001 25.1499C31.7001 24.3999 32.0001 23.7999 32.6502 23.2999C33.1501 23.0499 33.5501 22.8999 34.0002 22.8999Z" fill="white"/>
</g>
<defs>
<clipPath id="clip0_17366_7487">
<rect width="40" height="40" fill="white" transform="translate(0.936279)"/>
</clipPath>
</defs>
</svg>
