<svg width="24" height="24" viewBox="0 0 24 24" fill="none" xmlns="http://www.w3.org/2000/svg">
<path d="M12 22.5C17.799 22.5 22.5 17.799 22.5 12C22.5 6.20101 17.799 1.5 12 1.5C6.20101 1.5 1.5 6.20101 1.5 12C1.5 17.799 6.20101 22.5 12 22.5Z" fill="url(#paint0_linear_26090_118973)"/>
<path d="M13.7011 4.44047C13.7011 5.37991 12.9396 6.14147 12.0001 6.14147C11.0607 6.14147 10.2991 5.37991 10.2991 4.44047C10.2991 3.50104 11.0607 2.73947 12.0001 2.73947C12.9396 2.73947 13.7011 3.50104 13.7011 4.44047Z" fill="white"/>
<path d="M13.7011 19.5605C13.7011 20.4999 12.9396 21.2615 12.0001 21.2615C11.0607 21.2615 10.2991 20.4999 10.2991 19.5605C10.2991 18.621 11.0607 17.8595 12.0001 17.8595C12.9396 17.8595 13.7011 18.621 13.7011 19.5605Z" fill="white"/>
<path d="M19.3976 9.69407C18.5841 10.1638 17.5438 9.88504 17.074 9.07146C16.6043 8.25789 16.8831 7.21757 17.6966 6.74785C18.5102 6.27814 19.5505 6.55689 20.0203 7.37046C20.49 8.18404 20.2112 9.22435 19.3976 9.69407Z" fill="white"/>
<path d="M6.30335 17.2541C5.48977 17.7238 4.44945 17.445 3.97974 16.6315C3.51002 15.8179 3.78877 14.7776 4.60235 14.3079C5.41592 13.8381 6.45624 14.1169 6.92595 14.9305C7.39567 15.744 7.11692 16.7844 6.30335 17.2541Z" fill="white"/>
<path d="M4.60234 9.69407C5.41592 10.1638 6.45623 9.88503 6.92595 9.07146C7.39567 8.25788 7.11692 7.21756 6.30334 6.74785C5.48976 6.27813 4.44945 6.55688 3.97973 7.37046C3.51001 8.18403 3.78876 9.22435 4.60234 9.69407Z" fill="white"/>
<path d="M17.6966 17.2541C18.5102 17.7238 19.5505 17.445 20.0203 16.6315C20.49 15.8179 20.2112 14.7776 19.3976 14.3078C18.5841 13.8381 17.5438 14.1169 17.074 14.9305C16.6043 15.744 16.8831 16.7843 17.6966 17.2541Z" fill="white"/>
<path fill-rule="evenodd" clip-rule="evenodd" d="M14.5569 8.41341C14.0815 8.18269 13.5117 8.06733 12.8475 8.06733H8.41142V15.9327H10.6557V13.5312H12.8475C13.5117 13.5312 14.0815 13.4193 14.5569 13.1956C15.0393 12.9648 15.4099 12.6467 15.6686 12.2412C15.9272 11.8287 16.0566 11.3463 16.0566 10.794C16.0566 10.2487 15.9272 9.77325 15.6686 9.36774C15.4099 8.95525 15.0393 8.63714 14.5569 8.41341ZM10.6557 11.7378H12.7217C13.0572 11.7378 13.3194 11.654 13.5082 11.4862C13.697 11.3184 13.7913 11.0876 13.7913 10.794C13.7913 10.5004 13.697 10.2731 13.5082 10.1123C13.3194 9.94454 13.0572 9.86064 12.7217 9.86064H10.6557V11.7378Z" fill="white"/>
<defs>
<linearGradient id="paint0_linear_26090_118973" x1="22.5" y1="12" x2="1.5" y2="12" gradientUnits="userSpaceOnUse">
<stop stop-color="#E9176D"/>
<stop offset="1" stop-color="#F68728"/>
</linearGradient>
</defs>
</svg>
