<svg width="40" height="40" viewBox="0 0 40 40" fill="none" xmlns="http://www.w3.org/2000/svg">
<path d="M38 30.125C38 34.4742 34.4742 38 30.125 38L9.875 38C5.52576 38 2 34.4742 2 30.125L2.00001 9.875C2.00001 5.52576 5.52577 2 9.87501 2L30.125 2C34.4742 2 38 5.52576 38 9.875L38 30.125Z" fill="black"/>
<path fill-rule="evenodd" clip-rule="evenodd" d="M9.875 37L30.125 37C33.922 37 37 33.922 37 30.125L37 9.875C37 6.07805 33.922 3 30.125 3L9.87501 3C6.07805 3 3.00001 6.07804 3.00001 9.875L3 30.125C3 33.922 6.07805 37 9.875 37ZM30.125 38C34.4742 38 38 34.4742 38 30.125L38 9.875C38 5.52576 34.4742 2 30.125 2L9.87501 2C5.52576 2 2.00001 5.52576 2.00001 9.875L2 30.125C2 34.4742 5.52576 38 9.875 38L30.125 38Z" fill="white" fill-opacity="0.12"/>
<mask id="mask0_1514_56964" style="mask-type:alpha" maskUnits="userSpaceOnUse" x="2" y="2" width="36" height="36">
<path d="M2.90088 9.64649C2.90088 5.91857 5.92296 2.89648 9.65088 2.89648H30.3509C34.0788 2.89648 37.1009 5.91856 37.1009 9.64648V30.3465C37.1009 34.0744 34.0788 37.0965 30.3509 37.0965H9.65088C5.92296 37.0965 2.90088 34.0744 2.90088 30.3465V9.64649Z" fill="#D9D9D9"/>
</mask>
<g mask="url(#mask0_1514_56964)">
<path opacity="0.7" d="M-2.03589 25.0107C-2.03589 25.0107 8.03587 28.875 20.4319 28.875C32.8279 28.875 42.0388 25.0107 42.0388 25.0107V40.3336H-2.03589V25.0107Z" fill="url(#paint0_linear_1514_56964)"/>
<path d="M-2.03589 29.0715C-2.03589 29.0715 10.274 27.248 20.0015 27.248C29.7289 27.248 42.0388 29.0715 42.0388 29.0715V39.9884H-2.03589V29.0715Z" fill="url(#paint1_linear_1514_56964)"/>
<path d="M-2.03589 29.4162C-2.03589 29.4162 10.274 27.5928 20.0015 27.5928C29.7289 27.5928 42.0388 29.4162 42.0388 29.4162" stroke="url(#paint2_linear_1514_56964)" stroke-width="3.6"/>
<path d="M10.201 34.3886C9.90951 34.3886 9.67139 34.1525 9.67139 33.8635V31.3276C9.67139 31.0387 9.90951 30.8066 10.201 30.8066C10.4925 30.8066 10.7306 31.0427 10.7306 31.3318V33.8676C10.7265 34.1525 10.4925 34.3886 10.201 34.3886Z" fill="white"/>
<path d="M12.4393 34.3887C12.2833 34.3887 12.1314 34.3195 12.0329 34.2016L10.9654 32.9356C10.8012 32.7402 10.8012 32.4594 10.9654 32.264L12.0329 30.9941C12.2217 30.7703 12.5543 30.7417 12.776 30.9249C12.9977 31.1081 13.0305 31.4419 12.8458 31.6616L12.0616 32.5979L12.8458 33.53C13.0305 33.7538 13.0018 34.0835 12.776 34.2667C12.6816 34.344 12.5625 34.3887 12.4393 34.3887Z" fill="white"/>
<path d="M15.9527 34.3877H13.7151C13.4237 34.3877 13.1855 34.1516 13.1855 33.8625V31.3267C13.1855 31.0378 13.4237 30.8018 13.7151 30.8018C14.0066 30.8018 14.2448 31.0378 14.2448 31.3267V33.3374H15.4271V31.3267C15.4271 31.0378 15.6652 30.8018 15.9567 30.8018C16.2483 30.8018 16.4864 31.0378 16.4864 31.3267V33.8625C16.4823 34.1516 16.2442 34.3877 15.9527 34.3877Z" fill="white"/>
<path d="M19.4717 34.3886H17.2342C16.9427 34.3805 16.7129 34.1403 16.7209 33.8512C16.7292 33.5746 16.9549 33.3506 17.2342 33.3425H18.9421V33.3139L17.0865 32.789C16.8606 32.7237 16.7046 32.5202 16.7046 32.2842V31.3276C16.7046 31.0387 16.9427 30.8066 17.2342 30.8066H19.4717C19.7631 30.8066 20.0012 31.0427 20.0012 31.3318C20.0012 31.6206 19.7631 31.8569 19.4717 31.8569H17.7638V31.8894L19.6195 32.4145C19.8453 32.4796 20.0012 32.6831 20.0012 32.9191V33.8676C20.0012 34.1565 19.7631 34.3886 19.4717 34.3886Z" fill="white"/>
<path d="M26.8229 34.3877C26.5314 34.3877 26.2973 34.1516 26.2973 33.8625V32.4664L26.0511 32.678C25.8539 32.845 25.5625 32.845 25.3612 32.678L25.115 32.4664V33.8625C25.115 34.1516 24.8769 34.3877 24.5854 34.3877C24.2939 34.3877 24.0557 34.1516 24.0557 33.8625V31.3267C24.0557 31.0378 24.2939 30.8018 24.5854 30.8018C24.7127 30.8018 24.8316 30.8465 24.9303 30.9278L25.7062 31.5872L26.4781 30.9278C26.6996 30.7406 27.0323 30.7651 27.2253 30.9848C27.3072 31.0784 27.3525 31.2005 27.3525 31.3267V33.8625C27.3566 34.1516 27.1185 34.3877 26.8229 34.3877Z" fill="white"/>
<path d="M23.3063 34.3886C23.0148 34.3886 22.7767 34.1525 22.7767 33.8635V33.4198L21.4588 31.8527H21.2782V33.3384H22.0746C22.3661 33.3466 22.5961 33.5866 22.5879 33.8757C22.5796 34.1525 22.3539 34.3764 22.0746 34.3844H20.7486C20.4571 34.3844 20.2231 34.1484 20.2231 33.8593V31.3276C20.2231 31.0387 20.4613 30.8066 20.7486 30.8066H21.7093C21.8653 30.8066 22.0171 30.8759 22.1158 30.994L23.7128 32.8947C23.7908 32.9883 23.8359 33.1064 23.8359 33.2285V33.8635C23.8359 34.1525 23.6019 34.3886 23.3063 34.3886Z" fill="white"/>
<path d="M30.662 34.3886C30.3705 34.3886 30.1324 34.1525 30.1324 33.8635V33.4198L28.8145 31.8527H28.6297V33.3384H29.4262C29.7177 33.3466 29.9477 33.5866 29.9394 33.8757C29.9312 34.1525 29.7054 34.3764 29.4262 34.3844H28.1043C27.8128 34.3844 27.5747 34.1484 27.5747 33.8593V31.3276C27.5747 31.0387 27.8128 30.8066 28.1043 30.8066H29.065C29.221 30.8066 29.3687 30.8759 29.4715 30.994L31.0685 32.8947C31.1465 32.9883 31.1916 33.1064 31.1916 33.2285V33.8635C31.1916 34.1565 30.9535 34.3886 30.662 34.3886Z" fill="white"/>
<path d="M21.2523 29.5292C21.2153 29.4966 21.1743 29.4722 21.1251 29.4639C21.0635 29.4558 21.0018 29.4966 20.9608 29.5251C20.9197 29.5536 20.8376 29.6268 20.8049 29.6554C20.772 29.6838 20.6899 29.7001 20.5544 29.7814C20.4189 29.8628 19.8934 30.1967 19.8934 30.1967H20.0289L19.4172 30.51H19.4787L19.3926 30.5753C19.4418 30.5875 19.4911 30.5792 19.5362 30.5548V30.5753C19.5362 30.5753 20.2629 30.2903 20.4025 30.3635L20.3163 30.388C20.3245 30.388 20.4598 30.396 20.4598 30.396C20.4681 30.453 20.501 30.5061 20.5502 30.5345C20.6324 30.5875 20.6365 30.62 20.6365 30.62C20.6365 30.62 20.5953 30.6362 20.5953 30.6607C20.6733 30.6362 20.7554 30.6362 20.8295 30.6607C20.8295 30.6607 20.8253 30.6362 20.7678 30.62C20.7103 30.5956 20.6611 30.5589 20.6241 30.5061C20.5914 30.4613 20.579 30.4043 20.5995 30.3513C20.62 30.2984 20.6899 30.2698 20.8334 30.1967C21.0018 30.1111 21.043 30.046 21.0635 29.9932C21.0839 29.9401 21.1251 29.8425 21.1414 29.7936C21.1578 29.7489 21.1866 29.7124 21.2236 29.6797C21.2687 29.6554 21.3179 29.6349 21.3632 29.6187C21.3713 29.6227 21.2811 29.5495 21.2523 29.5292Z" fill="white"/>
</g>
<path d="M20.0001 21.3541H10.8953L24.5525 7.80273H29.1049L20.0001 21.3541Z" fill="url(#paint3_linear_1514_56964)"/>
<defs>
<linearGradient id="paint0_linear_1514_56964" x1="-2.03589" y1="25.0107" x2="42.6414" y2="32.8443" gradientUnits="userSpaceOnUse">
<stop stop-color="#9E3BFF"/>
<stop offset="1" stop-color="#6D55FF"/>
</linearGradient>
<linearGradient id="paint1_linear_1514_56964" x1="-2.03589" y1="26.8436" x2="42.0388" y2="26.8436" gradientUnits="userSpaceOnUse">
<stop stop-color="#9E3BFF"/>
<stop offset="1" stop-color="#492CFF"/>
</linearGradient>
<linearGradient id="paint2_linear_1514_56964" x1="-2.03589" y1="31.8109" x2="42.0388" y2="31.5526" gradientUnits="userSpaceOnUse">
<stop stop-color="white" stop-opacity="0"/>
<stop offset="0.500885" stop-color="#9F7BFF"/>
<stop offset="1" stop-color="white" stop-opacity="0"/>
</linearGradient>
<linearGradient id="paint3_linear_1514_56964" x1="20.0001" y1="7.80273" x2="20.0001" y2="21.3541" gradientUnits="userSpaceOnUse">
<stop stop-color="#7AEDCF"/>
<stop offset="0.201333" stop-color="#68CEFA"/>
<stop offset="0.403244" stop-color="#689CF8"/>
<stop offset="0.602076" stop-color="#AC57C0"/>
<stop offset="0.801867" stop-color="#E65659"/>
<stop offset="1" stop-color="#F2C241"/>
</linearGradient>
</defs>
</svg>
