<svg width="25" height="24" viewBox="0 0 25 24" fill="none" xmlns="http://www.w3.org/2000/svg">
<path d="M12.0637 22.5C17.8627 22.5 22.5637 17.799 22.5637 12C22.5637 6.20101 17.8627 1.5 12.0637 1.5C6.26473 1.5 1.56372 6.20101 1.56372 12C1.56372 17.799 6.26473 22.5 12.0637 22.5Z" fill="#050506"/>
<path d="M16.7153 15.0293H14.1631L13.6836 13.806H10.4442L9.96479 15.0293H7.4126L10.4669 7.75659H13.6572L16.7153 15.0293ZM12.0677 9.64676L11.222 11.8172H12.9096L12.0677 9.64676Z" fill="white"/>
<path d="M13.7647 4.4405C13.7647 5.37994 13.0032 6.1415 12.0637 6.1415C11.1243 6.1415 10.3627 5.37994 10.3627 4.4405C10.3627 3.50107 11.1243 2.7395 12.0637 2.7395C13.0032 2.7395 13.7647 3.50107 13.7647 4.4405Z" fill="#26DB8D"/>
<path d="M13.7647 19.5606C13.7647 20.5 13.0032 21.2616 12.0637 21.2616C11.1243 21.2616 10.3627 20.5 10.3627 19.5606C10.3627 18.6212 11.1243 17.8596 12.0637 17.8596C13.0032 17.8596 13.7647 18.6212 13.7647 19.5606Z" fill="#26DB8D"/>
<path d="M19.4613 9.69417C18.6477 10.1639 17.6074 9.88514 17.1377 9.07156C16.668 8.25799 16.9467 7.21767 17.7603 6.74795C18.5739 6.27824 19.6142 6.55699 20.0839 7.37056C20.5536 8.18414 20.2749 9.22446 19.4613 9.69417Z" fill="#26DB8D"/>
<path d="M6.36697 17.2542C5.5534 17.7239 4.51308 17.4452 4.04336 16.6316C3.57365 15.818 3.85239 14.7777 4.66596 14.308C5.47954 13.8383 6.51986 14.117 6.98958 14.9306C7.4593 15.7442 7.18055 16.7845 6.36697 17.2542Z" fill="#26DB8D"/>
<path d="M4.66597 9.69417C5.47955 10.1639 6.51986 9.88513 6.98958 9.07156C7.4593 8.25798 7.18055 7.21766 6.36697 6.74795C5.55339 6.27823 4.51308 6.55698 4.04336 7.37056C3.57364 8.18413 3.85239 9.22445 4.66597 9.69417Z" fill="#26DB8D"/>
<path d="M17.7603 17.2542C18.5738 17.7239 19.6142 17.4452 20.0839 16.6316C20.5536 15.818 20.2748 14.7777 19.4613 14.308C18.6477 13.8383 17.6074 14.117 17.1377 14.9306C16.6679 15.7442 16.9467 16.7845 17.7603 17.2542Z" fill="#26DB8D"/>
</svg>
