<svg width="40" height="40" viewBox="0 0 40 40" fill="none" xmlns="http://www.w3.org/2000/svg">
<path d="M23.4789 4.48291C17.4446 4.48291 12.4893 9.22401 11.9565 15.2747C11.904 15.8707 12.394 16.3573 12.9923 16.3573H33.9654C34.5637 16.3573 35.0538 15.8707 35.0013 15.2747C34.4685 9.22402 29.5132 4.48291 23.4789 4.48291Z" fill="#53CBC8"/>
<path d="M37.0028 19.9154C37.3852 19.9154 37.6953 19.6053 37.6953 19.2228C37.6953 18.8403 37.3852 18.5303 37.0028 18.5303L10.249 18.5303C9.86648 18.5303 9.55642 18.8403 9.55642 19.2228C9.55642 19.6053 9.86648 19.9154 10.249 19.9154L37.0028 19.9154Z" fill="#E1147B"/>
<path d="M24.2408 23.0863C24.6233 23.0863 24.9333 22.7762 24.9333 22.3937C24.9333 22.0113 24.6233 21.7012 24.2408 21.7012L4.79079 21.7012C4.4083 21.7012 4.09824 22.0113 4.09824 22.3937C4.09824 22.7762 4.4083 23.0863 4.79079 23.0863H24.2408Z" fill="#E1147B"/>
<path d="M33.6326 26.2567C34.0151 26.2567 34.3251 25.9466 34.3251 25.5641C34.3251 25.1816 34.0151 24.8716 33.6326 24.8716H10.2491C9.86662 24.8716 9.55655 25.1816 9.55655 25.5641C9.55655 25.9466 9.86662 26.2567 10.2491 26.2567H33.6326Z" fill="#E1147B"/>
<path d="M15.4463 29.4271C15.8288 29.4271 16.1389 29.117 16.1389 28.7345C16.1389 28.352 15.8288 28.042 15.4463 28.042H6.17037C5.78789 28.042 5.47782 28.352 5.47782 28.7345C5.47782 29.117 5.78789 29.4271 6.17037 29.4271H15.4463Z" fill="#E1147B"/>
<path d="M34.0734 32.5975C34.4559 32.5975 34.766 32.2874 34.766 31.9049C34.766 31.5224 34.4559 31.2124 34.0734 31.2124H22.1448C21.7623 31.2124 21.4523 31.5224 21.4523 31.9049C21.4523 32.2874 21.7623 32.5975 22.1448 32.5975H34.0734Z" fill="#E1147B"/>
<path d="M26.8585 35.7679C27.241 35.7679 27.551 35.4578 27.551 35.0753C27.551 34.6928 27.241 34.3828 26.8585 34.3828H14.9299C14.5474 34.3828 14.2374 34.6928 14.2374 35.0753C14.2374 35.4578 14.5474 35.7679 14.9299 35.7679H26.8585Z" fill="#E1147B"/>
<path d="M37.5401 29.4271C37.9226 29.4271 38.2327 29.117 38.2327 28.7345C38.2327 28.352 37.9226 28.042 37.5401 28.042H18.3196C17.9371 28.042 17.6271 28.352 17.6271 28.7345C17.6271 29.117 17.9371 29.4271 18.3196 29.4271H37.5401Z" fill="#E1147B"/>
<path d="M7.06073 19.2201C7.06073 18.8391 7.36955 18.5303 7.75051 18.5303C8.13146 18.5303 8.44029 18.8391 8.44029 19.2201C8.44029 19.601 8.13146 19.9098 7.75051 19.9098C7.36955 19.9098 7.06073 19.601 7.06073 19.2201Z" fill="#E1147B"/>
<path d="M1.60254 22.391C1.60254 22.01 1.91136 21.7012 2.29232 21.7012C2.67327 21.7012 2.9821 22.01 2.9821 22.391C2.9821 22.7719 2.67327 23.0808 2.29232 23.0808C1.91136 23.0808 1.60254 22.7719 1.60254 22.391Z" fill="#E1147B"/>
<path d="M7.06073 25.5614C7.06073 25.1804 7.36955 24.8716 7.75051 24.8716C8.13146 24.8716 8.44029 25.1804 8.44029 25.5614C8.44029 25.9423 8.13146 26.2511 7.75051 26.2511C7.36955 26.2511 7.06073 25.9423 7.06073 25.5614Z" fill="#E1147B"/>
<path d="M2.9821 28.7318C2.9821 28.3508 3.29092 28.042 3.67187 28.042C4.05283 28.042 4.36165 28.3508 4.36165 28.7318C4.36165 29.1127 4.05283 29.4215 3.67187 29.4215C3.29092 29.4215 2.9821 29.1127 2.9821 28.7318Z" fill="#E1147B"/>
<path d="M18.9565 31.9021C18.9565 31.5212 19.2653 31.2124 19.6463 31.2124C20.0272 31.2124 20.3361 31.5212 20.3361 31.9021C20.3361 32.2831 20.0272 32.5919 19.6463 32.5919C19.2653 32.5919 18.9565 32.2831 18.9565 31.9021Z" fill="#E1147B"/>
<path d="M11.7416 35.0725C11.7416 34.6916 12.0504 34.3828 12.4314 34.3828C12.8123 34.3828 13.1212 34.6916 13.1212 35.0725C13.1212 35.4535 12.8123 35.7623 12.4314 35.7623C12.0504 35.7623 11.7416 35.4535 11.7416 35.0725Z" fill="#E1147B"/>
</svg>
