<svg width="40" height="40" viewBox="0 0 40 40" fill="none" xmlns="http://www.w3.org/2000/svg">
<path d="M20 38C29.9411 38 38 29.9411 38 20C38 10.0589 29.9411 2 20 2C10.0589 2 2 10.0589 2 20C2 29.9411 10.0589 38 20 38Z" fill="url(#paint0_linear_20200_40336)"/>
<path d="M27.7525 25.049H23.4989L22.6997 23.0102H17.3008L16.5017 25.049H12.248L17.3385 12.9279H22.6557L27.7525 25.049ZM20.0065 16.0782L18.597 19.6955H21.4098L20.0065 16.0782Z" fill="white"/>
<path d="M22.8353 7.4008C22.8353 8.96652 21.566 10.2358 20.0003 10.2358C18.4346 10.2358 17.1653 8.96652 17.1653 7.4008C17.1653 5.83507 18.4346 4.5658 20.0003 4.5658C21.566 4.5658 22.8353 5.83507 22.8353 7.4008Z" fill="white"/>
<path d="M22.8353 32.6008C22.8353 34.1665 21.566 35.4358 20.0003 35.4358C18.4346 35.4358 17.1653 34.1665 17.1653 32.6008C17.1653 31.0351 18.4346 29.7658 20.0003 29.7658C21.566 29.7658 22.8353 31.0351 22.8353 32.6008Z" fill="white"/>
<path d="M32.3295 16.1568C30.9735 16.9397 29.2397 16.4751 28.4568 15.1191C27.674 13.7632 28.1385 12.0293 29.4945 11.2464C30.8505 10.4636 32.5843 10.9282 33.3672 12.2841C34.1501 13.6401 33.6855 15.3739 32.3295 16.1568Z" fill="white"/>
<path d="M10.5057 28.7568C9.14971 29.5397 7.41585 29.0751 6.63298 27.7191C5.85012 26.3632 6.31471 24.6293 7.67067 23.8464C9.02663 23.0636 10.7605 23.5282 11.5433 24.8841C12.3262 26.2401 11.8616 27.9739 10.5057 28.7568Z" fill="white"/>
<path d="M7.67066 16.1568C9.02662 16.9396 10.7605 16.4751 11.5433 15.1191C12.3262 13.7631 11.8616 12.0293 10.5057 11.2464C9.1497 10.4636 7.41584 10.9281 6.63298 12.2841C5.85011 13.6401 6.3147 15.3739 7.67066 16.1568Z" fill="white"/>
<path d="M29.4945 28.7568C30.8505 29.5396 32.5843 29.0751 33.3672 27.7191C34.15 26.3631 33.6855 24.6293 32.3295 23.8464C30.9735 23.0636 29.2397 23.5281 28.4568 24.8841C27.674 26.2401 28.1385 27.9739 29.4945 28.7568Z" fill="white"/>
<defs>
<linearGradient id="paint0_linear_20200_40336" x1="38" y1="20" x2="2" y2="20" gradientUnits="userSpaceOnUse">
<stop stop-color="#E9176D"/>
<stop offset="1" stop-color="#F68728"/>
</linearGradient>
</defs>
</svg>
