<svg width="40" height="40" viewBox="0 0 40 40" fill="none" xmlns="http://www.w3.org/2000/svg">
<path d="M13.4887 4.38403C10.767 7.52665 8.90591 12.5845 8.61133 18.3845H17.3684C17.661 14.2527 19.0201 11.4035 20 10.1973C17.7556 6.73019 14.8185 5.04547 13.4887 4.38403Z" fill="url(#paint0_linear_25895_34693)"/>
<path d="M22.6312 18.3848H31.3883C30.8936 8.64783 25.9855 1 19.9998 1C17.5797 1 15.3361 2.25111 13.4888 4.38413C14.8138 5.04323 17.754 6.72761 19.9998 10.1975C22.2036 13.6025 22.5604 16.9059 22.6312 18.3848Z" fill="url(#paint1_linear_25895_34693)"/>
<path d="M13.4887 35.6157C10.767 32.4731 8.90591 27.4153 8.61133 21.6152H17.3684C17.661 25.7471 19.0201 28.5963 20 29.8025C17.7558 33.2697 14.8185 34.9543 13.4887 35.6157Z" fill="url(#paint2_linear_25895_34693)"/>
<path d="M22.6312 21.6152H31.3883C30.8936 31.3522 25.9855 39 19.9998 39C17.5797 39 15.3361 37.7489 13.4888 35.6159C14.8138 34.9568 17.754 33.2724 19.9998 29.8025C22.2036 26.3975 22.5604 23.094 22.6312 21.6152Z" fill="url(#paint3_linear_25895_34693)"/>
<defs>
<linearGradient id="paint0_linear_25895_34693" x1="11.2477" y1="17.3774" x2="17.7072" y2="7.99795" gradientUnits="userSpaceOnUse">
<stop offset="0.1511" stop-color="#146BB5"/>
<stop offset="0.2679" stop-color="#1566AE"/>
<stop offset="0.4349" stop-color="#155CA0"/>
<stop offset="0.6321" stop-color="#144C8B"/>
<stop offset="0.8507" stop-color="#0E356F"/>
<stop offset="1" stop-color="#06235B"/>
</linearGradient>
<linearGradient id="paint1_linear_25895_34693" x1="27.7369" y1="8.1303" x2="17.5201" y2="13.5608" gradientUnits="userSpaceOnUse">
<stop stop-color="#7EC8EF"/>
<stop offset="1" stop-color="#405EAB"/>
</linearGradient>
<linearGradient id="paint2_linear_25895_34693" x1="11.2477" y1="22.6224" x2="17.7072" y2="32.0019" gradientUnits="userSpaceOnUse">
<stop offset="0.1511" stop-color="#152E52"/>
<stop offset="0.3877" stop-color="#142C4F"/>
<stop offset="0.7252" stop-color="#122645"/>
<stop offset="1" stop-color="#0F1F3B"/>
</linearGradient>
<linearGradient id="paint3_linear_25895_34693" x1="27.7369" y1="31.8696" x2="17.5201" y2="26.4391" gradientUnits="userSpaceOnUse">
<stop stop-color="#1B4F76"/>
<stop offset="1" stop-color="#142553"/>
</linearGradient>
</defs>
</svg>
