<svg width="40" height="40" viewBox="0 0 40 40" fill="none" xmlns="http://www.w3.org/2000/svg">
<path d="M34.994 22.4471C35.406 22.0356 35.9362 21.5061 36.4626 20.9809C37.637 19.8085 37.6376 17.9071 36.4633 16.7343L35.2193 15.4917C30.7653 19.9404 24.1003 20.8342 18.757 18.1738C22.3684 18.8407 26.111 18.3212 29.4274 16.5403C31.6459 15.3487 32.0672 12.3435 30.2861 10.5645L22.9421 3.22932C21.301 1.59023 18.6406 1.59023 17.0002 3.22932L9.08429 11.1357C14.2975 8.92355 20.5599 9.94915 24.7997 14.2132C18.3314 11.0773 10.3184 12.1899 4.94772 17.5535C4.53575 17.965 4.00491 18.4952 3.47843 19.021C2.30473 20.194 2.30535 22.0941 3.47843 23.2663L4.72182 24.5083C9.17577 20.0596 15.8408 19.1658 21.1841 21.8262C17.5727 21.1593 13.8301 21.6788 10.5138 23.4597C8.29518 24.6513 7.87387 27.6565 9.65496 29.4355L16.999 36.7707C18.64 38.4098 21.3004 38.4098 22.9409 36.7707L30.8568 28.8643C25.6436 31.0764 19.3812 30.0509 15.1407 25.7868C21.6091 28.9227 29.6221 27.8101 34.9927 22.4465L34.994 22.4471Z" fill="#E53E76"/>
</svg>
