<svg width="40" height="40" viewBox="0 0 40 40" fill="none" xmlns="http://www.w3.org/2000/svg">
<path d="M2.87612 29.0434V29.4074C2.87612 29.4074 17.6238 24.1541 20.4908 25.5108L18.7615 25.97C18.9128 25.97 21.7156 26.1354 21.7156 26.1354C21.7812 26.6573 21.9745 27.1596 22.2815 27.6059C22.5885 28.0523 23.0016 28.4317 23.4908 28.7166C25.1789 29.7218 25.211 30.2678 25.211 30.2678C25.211 30.2678 24.3348 30.5905 24.3348 31C25.1495 30.7897 25.9921 30.6798 26.8395 30.6732C27.6038 30.6978 28.3619 30.8076 29.0963 31C29.0963 31 29.0092 30.5863 27.8303 30.2678C26.6514 29.9493 25.5138 28.8242 24.9404 28.1996C24.5965 27.8003 24.3734 27.3274 24.293 26.8271C24.2126 26.3268 24.2776 25.8162 24.4817 25.3454C24.8899 24.4022 26.3165 23.8769 29.211 22.5201C32.6468 20.9193 33.4312 19.7197 33.9128 18.7973C34.3945 17.8748 35.1193 16.0258 35.5183 15.1571C35.8501 14.3452 36.4211 13.6301 37.1697 13.0889C37.6789 12.7373 40 11.9472 40 11.9472C40 11.9472 38.2294 10.5863 37.6514 10.1767C36.929 9.55978 36.0154 9.15579 35.0321 9.01852C33.8028 8.87374 32.555 9.61004 31.711 10.1023C30.867 10.5945 29.2339 12.034 28.5734 12.4477C27.9128 12.8614 26.2202 13.275 23.5275 14.76C20.8349 16.245 10.1468 22.396 10.1468 22.396L12.8991 22.4209L0.545867 28.1996H1.77982L0 29.4405C0.985762 29.644 2.02045 29.5021 2.8945 29.0434H2.87612Z" fill="white"/>
</svg>
