<svg width="24" height="24" viewBox="0 0 24 24" fill="none" xmlns="http://www.w3.org/2000/svg">
<path d="M16.6686 2.61255L10.491 8.20013C9.85135 8.77849 9.01901 9.1003 8.15485 9.10337L6.31357 9.10775L6.30729 2.61317H2.97827V21.1736H4.79381C5.80928 21.1736 6.7563 20.638 7.25305 19.7578C7.25745 19.7516 7.25933 19.7453 7.2631 19.7416C7.5928 19.1521 7.75796 17.9876 7.72593 17.1925C7.65434 15.3748 7.36044 14.9022 7.36044 14.9022C7.29889 16.148 5.9914 16.2155 5.9914 16.2155C6.92147 15.3317 6.41467 14.6628 6.41467 14.6628C4.76806 15.8298 4.35673 14.5841 4.32533 14.4709C4.37682 14.5147 4.84531 14.9041 5.73581 13.6896C6.67718 12.4063 7.93254 10.2666 8.73136 9.71657C9.53143 9.16463 10.2907 9.21026 10.2907 9.21026C10.2907 9.21026 10.7278 8.62081 11.8839 8.13075C13.0394 7.64381 13.7805 8.35828 13.7805 8.35828C12.5986 9.30715 10.994 10.8655 10.9042 13.0989C10.8326 14.906 14.7463 18.007 14.0587 22.5876C14.47 21.5474 14.6352 20.5054 14.4939 19.2159C14.3808 18.1751 13.707 16.0017 13.707 16.0017L17.4655 21.1711H21.6216L13.4985 10.0635L21.6216 2.61255H16.6686Z" fill="url(#paint0_linear_1532_63468)"/>
<path d="M9.09996 10.6048C8.83746 11.038 8.83746 11.1705 8.83746 11.1705C8.83746 11.1705 9.75496 11.0161 10.0037 9.93037C10.0055 9.93037 9.41773 10.0804 9.09933 10.6048H9.09996Z" fill="url(#paint1_linear_1532_63468)"/>
<defs>
<linearGradient id="paint0_linear_1532_63468" x1="30.9939" y1="15.6823" x2="15.6362" y2="-1.08857" gradientUnits="userSpaceOnUse">
<stop stop-color="#E40C5B"/>
<stop offset="1" stop-color="#FF4C3B"/>
</linearGradient>
<linearGradient id="paint1_linear_1532_63468" x1="10.5896" y1="10.7417" x2="9.63674" y2="9.69342" gradientUnits="userSpaceOnUse">
<stop stop-color="#E40C5B"/>
<stop offset="1" stop-color="#FF4C3B"/>
</linearGradient>
</defs>
</svg>
