<svg width="40" height="40" viewBox="0 0 40 40" fill="none" xmlns="http://www.w3.org/2000/svg">
<rect x="4" y="4" width="32" height="32" fill="#0BEAB3"/>
<path d="M12.0948 17.6406L10.4317 11H9.25715L12.0948 22.3307V26.6549L8.1746 11H7L11.5075 29H13.2691V11H12.0948V17.6406Z" fill="black"/>
<path d="M33 29L28.4925 11H26.7306V28.9996H27.9052L31.0053 25.7253L31.8254 28.9996L33 29ZM29.9632 21.5625L27.9056 23.7348V13.3451L29.9632 21.5625ZM27.9052 27.2451V25.4883L30.3102 22.9492L30.6583 24.3386L27.9052 27.2451Z" fill="black"/>
<path d="M14.5695 11V28.9996H15.7441L18.8443 25.7253L19.6643 28.9996H20.8389L16.3311 11H14.5695ZM17.8018 21.5625L15.7441 23.7348V13.3451L17.8018 21.5625ZM15.7441 27.2451V25.4883L18.1492 22.9492L18.4972 24.3386L15.7441 27.2451Z" fill="black"/>
<path d="M25.7147 22.1216L22.9297 11H21.1678V28.9996H22.3424V25.6618L23.4214 24.5227L24.5426 28.9996L25.7147 28.9906L24.3503 23.542L24.7818 23.0864L25.7147 22.1216ZM22.3424 23.9083V13.3451L24.4345 21.6997L22.3424 23.9083Z" fill="black"/>
</svg>
