<svg width="40" height="40" viewBox="0 0 40 40" fill="none" xmlns="http://www.w3.org/2000/svg">
<path d="M20 38C29.9411 38 38 29.9411 38 20C38 10.0589 29.9411 2 20 2C10.0589 2 2 10.0589 2 20C2 29.9411 10.0589 38 20 38Z" fill="#321D47"/>
<path d="M22.8352 7.40078C22.8352 8.96651 21.5659 10.2358 20.0002 10.2358C18.4345 10.2358 17.1652 8.96651 17.1652 7.40078C17.1652 5.83505 18.4345 4.56578 20.0002 4.56578C21.5659 4.56578 22.8352 5.83505 22.8352 7.40078Z" fill="#E40B7B"/>
<path d="M22.8352 32.6008C22.8352 34.1665 21.5659 35.4358 20.0002 35.4358C18.4345 35.4358 17.1652 34.1665 17.1652 32.6008C17.1652 31.0351 18.4345 29.7658 20.0002 29.7658C21.5659 29.7658 22.8352 31.0351 22.8352 32.6008Z" fill="#E40B7B"/>
<path d="M32.3294 16.1568C30.9734 16.9396 29.2396 16.4751 28.4567 15.1191C27.6739 13.7631 28.1385 12.0293 29.4944 11.2464C30.8504 10.4636 32.5842 10.9281 33.3671 12.2841C34.15 13.6401 33.6854 15.3739 32.3294 16.1568Z" fill="#E40B7B"/>
<path d="M10.5056 28.7568C9.14961 29.5396 7.41575 29.0751 6.63289 27.7191C5.85002 26.3631 6.31461 24.6293 7.67057 23.8464C9.02653 23.0636 10.7604 23.5281 11.5432 24.8841C12.3261 26.2401 11.8615 27.9739 10.5056 28.7568Z" fill="#E40B7B"/>
<path d="M7.67056 16.1568C9.02652 16.9396 10.7604 16.475 11.5432 15.1191C12.3261 13.7631 11.8615 12.0293 10.5056 11.2464C9.1496 10.4635 7.41574 10.9281 6.63288 12.2841C5.85001 13.64 6.3146 15.3739 7.67056 16.1568Z" fill="#E40B7B"/>
<path d="M29.4944 28.7568C30.8504 29.5396 32.5842 29.075 33.3671 27.7191C34.1499 26.3631 33.6854 24.6293 32.3294 23.8464C30.9734 23.0635 29.2396 23.5281 28.4567 24.8841C27.6739 26.24 28.1384 27.9739 29.4944 28.7568Z" fill="#E40B7B"/>
<path fill-rule="evenodd" clip-rule="evenodd" d="M24.2615 14.0223C23.4692 13.6378 22.5195 13.4455 21.4125 13.4455H14.019V26.5545H17.7595V22.5519H21.4125C22.5195 22.5519 23.4692 22.3654 24.2615 21.9926C25.0655 21.608 25.6831 21.0778 26.1143 20.402C26.5454 19.7145 26.761 18.9105 26.761 17.99C26.761 17.0811 26.5454 16.2887 26.1143 15.6129C25.6831 14.9254 25.0655 14.3952 24.2615 14.0223ZM17.7595 19.563H21.2028C21.7621 19.563 22.199 19.4232 22.5137 19.1435C22.8283 18.8639 22.9856 18.4794 22.9856 17.99C22.9856 17.5006 22.8283 17.1219 22.5137 16.8538C22.199 16.5742 21.7621 16.4344 21.2028 16.4344H17.7595V19.563Z" fill="white"/>
</svg>
