<svg width="40" height="40" viewBox="0 0 40 40" fill="none" xmlns="http://www.w3.org/2000/svg">
<path d="M36 20.9603H4.02837C4.10513 22.2559 4.33618 23.5099 4.70341 24.7044L18.4626 24.7042L19.3236 23.5202H35.6395C35.8262 22.6895 35.9482 21.8344 36 20.9603Z" fill="black"/>
<path d="M34.5956 26.6244H5.43272C6.05302 27.9852 6.85854 29.2439 7.8171 30.3685L14.3438 30.3683L15.2047 29.1843H33.1289C33.6928 28.382 34.1848 27.5256 34.5956 26.6244Z" fill="black"/>
<path d="M30.2705 32.2885H9.75782C12.536 34.6057 16.1121 36 20.0142 36C23.9162 36 27.4923 34.6057 30.2705 32.2885Z" fill="black"/>
<path d="M4.02833 19.0403C4.10504 17.7448 4.33603 16.4908 4.70321 15.2963H35.3251C35.5793 16.123 35.7682 16.9783 35.8858 17.8562H23.4424L22.5814 19.0402L4.02833 19.0403Z" fill="black"/>
<path d="M26.7002 13.3761L27.5612 12.1921H33.9954C33.484 11.28 32.8859 10.4231 32.212 9.6325H7.81629C6.85794 10.757 6.05259 12.0156 5.43242 13.3763L26.7002 13.3761Z" fill="black"/>
<path d="M9.75668 7.7125H30.2717C27.4933 5.39473 23.9167 4 20.0142 4C16.1116 4 12.5351 5.39473 9.75668 7.7125Z" fill="black"/>
<path d="M4.00015 19.9303C4.00005 19.9535 4 19.9768 4 20C4 20.0232 4.00005 20.0465 4.00015 20.0697V19.9303Z" fill="black"/>
</svg>
