<svg width="40" height="40" viewBox="0 0 40 40" fill="none" xmlns="http://www.w3.org/2000/svg">
<path fill-rule="evenodd" clip-rule="evenodd" d="M38 20C38 29.9411 29.9411 38 20 38C10.0589 38 2 29.9411 2 20C2 10.0589 10.0589 2 20 2C29.9411 2 38 10.0589 38 20ZM33.7476 27.6913C31.0514 32.5001 25.9053 35.75 20 35.75C11.3014 35.75 4.25 28.6986 4.25 20C4.25 19.9304 4.25041 19.861 4.25137 19.7917C5.25621 21.3369 6.92091 22.8669 9.0708 24.2317C9.03221 25.1426 9.3607 26.0662 10.0563 26.7618C11.308 28.0136 13.2988 28.0765 14.6248 26.9504C15.6575 27.3353 16.7393 27.6818 17.861 27.9824C24.2538 29.6953 30.2678 29.4643 33.7476 27.6913ZM15.7649 24.9717C16.6203 25.2792 17.5149 25.5602 18.4434 25.809C22.8011 26.9766 26.8671 27.1558 29.877 26.5948C33.0663 26.0002 34.2793 24.7764 34.5168 23.8898C34.7544 23.0033 34.3157 21.3369 31.8511 19.2272C30.8233 18.3477 29.5449 17.4902 28.0619 16.7062C28.0273 16.7441 27.9916 16.7814 27.9549 16.8181C26.6368 18.1362 24.5 18.1362 23.1819 16.8181C22.5069 16.143 22.1776 15.2531 22.1941 14.3684C21.9834 14.3076 21.7707 14.2484 21.5564 14.191C17.1988 13.0234 13.1327 12.8442 10.1229 13.4053C6.93355 13.9998 5.72052 15.2237 5.48294 16.1102C5.24536 16.9967 5.68399 18.6631 8.14877 20.7726C8.68037 21.2276 9.27913 21.6767 9.93845 22.1127C9.97649 22.0706 10.0158 22.0293 10.0563 21.9888C11.3742 20.6709 13.5112 20.6709 14.8293 21.9888C15.6406 22.8001 15.9525 23.9218 15.7649 24.9717ZM35.7486 20.2086C34.4521 18.2146 32.0565 16.2462 28.9379 14.6251C28.9908 13.6981 28.6631 12.7533 27.9549 12.0451C26.6368 10.7271 24.5 10.7271 23.1819 12.0451C23.1137 12.1133 23.0488 12.1838 22.9877 12.2561C22.7074 12.1738 22.4244 12.0942 22.1388 12.0177C15.7461 10.3048 9.73232 10.5358 6.25253 12.3086C8.94872 7.49989 14.0947 4.25 20 4.25C28.6986 4.25 35.75 11.3014 35.75 20L35.7499 20.0997L35.7486 20.2086Z" fill="#26DB8D"/>
</svg>
