<svg width="40" height="40" viewBox="0 0 40 40" fill="none" xmlns="http://www.w3.org/2000/svg">
<path d="M37.3622 34H12.9661C12.8517 34 12.7373 33.9694 12.6333 33.9082L3.81497 28.5735C3.5238 28.4001 3.4198 28.0227 3.59659 27.7371C3.71098 27.5535 3.91896 27.4311 4.14774 27.4413H28.5438C28.6582 27.4413 28.7726 27.4719 28.8766 27.5331L37.695 32.8678C37.9861 33.0412 38.0901 33.4186 37.9133 33.7042C37.799 33.8878 37.591 34 37.3622 34ZM13.1429 32.7658H35.1576L28.3774 28.6551H6.36273L13.1429 32.7658Z" fill="#075ABC"/>
<path d="M35.8442 12.5593H11.4481C11.3337 12.5593 11.2193 12.5287 11.1153 12.4675L2.30739 7.13286C2.00581 6.95945 1.91222 6.58205 2.08901 6.29645C2.20339 6.10264 2.41137 5.99044 2.64015 6.00064H27.0362C27.1506 6.00064 27.265 6.03124 27.369 6.09244L36.1874 11.4271C36.4889 11.6005 36.5825 11.9779 36.4057 12.2635C36.2809 12.4573 36.073 12.5695 35.8442 12.5593ZM11.6249 11.3353H33.6396L26.8594 7.22466H4.84474L11.6249 11.3353Z" fill="#075ABC"/>
<path d="M19.7073 16.2416C17.6274 16.2416 15.9251 18.1894 16.0469 20.2196C16.1613 22.1475 17.7419 23.6877 19.7073 23.7795C21.7845 23.7795 23.576 22.0774 23.555 19.9748C23.5117 17.9162 21.7553 16.2416 19.7073 16.2416Z" fill="#075ABC"/>
</svg>
