<svg width="40" height="40" viewBox="0 0 40 40" fill="none" xmlns="http://www.w3.org/2000/svg">
<path d="M9.2 14.0998C10.9381 14.0998 12.35 12.6879 12.35 10.9498C12.35 9.21168 10.9381 7.7998 9.2 7.7998C7.46187 7.7998 6.05 9.21168 6.05 10.9498C6.05 12.6879 7.46187 14.0998 9.2 14.0998Z" fill="black"/>
<path fill-rule="evenodd" clip-rule="evenodd" d="M11 23.0998C11 20.6923 12.0519 18.5267 13.7225 17.0473V17.0417C12.6987 16.3217 11.45 15.8998 10.1 15.8998H8.3C4.81812 15.8998 2 18.7179 2 22.1998C2 24.7142 3.47375 26.8798 5.6 27.8923V29.3998C5.6 30.3954 6.40437 31.1998 7.4 31.1998H11C11.9956 31.1998 12.8 30.3954 12.8 29.3998V28.1904C11.675 26.8011 11 25.0292 11 23.0998ZM4.7 22.1998C4.7 21.2886 5.0375 20.4504 5.6 19.8204V24.5792C5.0375 23.9492 4.7 23.1111 4.7 22.1998Z" fill="black"/>
<path d="M28.8645 24.5829C29.8752 23.7931 31.1473 23.3224 32.5294 23.3224C33.1828 23.3224 33.8117 23.4276 34.4 23.622V19.8261C34.9625 20.4561 35.3 21.2942 35.3 22.2054C35.3 22.786 35.163 23.3346 34.9181 23.8207C35.7649 24.1917 36.5087 24.754 37.0951 25.4529C37.6693 24.5038 38 23.3909 38 22.1998C38 18.7179 35.1819 15.8998 31.7 15.8998H29.9C28.55 15.8998 27.3013 16.3217 26.2775 17.0417C27.9481 18.5267 29 20.6923 29 23.0998C29 23.6064 28.9535 24.1021 28.8645 24.5829Z" fill="black"/>
<path d="M30.8 14.0998C32.5381 14.0998 33.95 12.6879 33.95 10.9498C33.95 9.21168 32.5381 7.7998 30.8 7.7998C29.0619 7.7998 27.65 9.21168 27.65 10.9498C27.65 12.6879 29.0619 14.0998 30.8 14.0998Z" fill="black"/>
<path d="M16.4 11.3998C16.4 13.3854 18.0144 14.9998 20 14.9998C21.9856 14.9998 23.6 13.3854 23.6 11.3998C23.6 9.41418 21.9856 7.7998 20 7.7998C18.0144 7.7998 16.4 9.41418 16.4 11.3998Z" fill="black"/>
<path fill-rule="evenodd" clip-rule="evenodd" d="M23.6 28.7923C25.7262 27.7798 27.2 25.6142 27.2 23.0998C27.2 19.6179 24.3819 16.7998 20.9 16.7998H19.1C15.6181 16.7998 12.8 19.6179 12.8 23.0998C12.8 25.6142 14.2737 27.7798 16.4 28.7923V31.1998C16.4 32.1954 17.2044 32.9998 18.2 32.9998H21.8C22.7956 32.9998 23.6 32.1954 23.6 31.1998V28.7923ZM16.4 25.4792C15.8375 24.8436 15.5 24.0111 15.5 23.0998C15.5 22.1886 15.8375 21.3561 16.4 20.7204V25.4792ZM23.6 25.4848V20.7261C24.1625 21.3561 24.5 22.1942 24.5 23.1054C24.5 24.0167 24.1625 24.8492 23.6 25.4848Z" fill="black"/>
<path d="M32.6895 33.967C35.2795 33.967 37.3791 31.8674 37.3791 29.2774C37.3791 26.6875 35.2795 24.5879 32.6895 24.5879C30.0996 24.5879 28 26.6875 28 29.2774C28 31.8674 30.0996 33.967 32.6895 33.967Z" fill="#E6007A"/>
<path d="M32.6895 33.967C35.2795 33.967 37.3791 31.8674 37.3791 29.2774C37.3791 26.6875 35.2795 24.5879 32.6895 24.5879C30.0996 24.5879 28 26.6875 28 29.2774C28 31.8674 30.0996 33.967 32.6895 33.967Z" fill="url(#paint0_linear_1514_57025)"/>
<path fill-rule="evenodd" clip-rule="evenodd" d="M28.0125 29.6079C28.0155 29.6509 28.0191 29.6937 28.0232 29.7364C28.0279 29.7847 28.0333 29.8328 28.0395 29.8806C28.0988 30.343 28.2254 30.7842 28.4092 31.1942C28.4003 31.1454 28.3903 31.0972 28.3801 31.0504C28.3592 30.9511 28.3279 30.8339 28.2937 30.7063C28.2245 30.4475 28.1438 30.1456 28.1151 29.8627C28.1628 29.8517 28.2107 29.8416 28.2588 29.8321C29.1881 30.6803 30.1055 31.5415 31.0109 32.4157C30.8938 32.7781 30.77 33.1384 30.6395 33.4963C30.684 33.518 30.7288 33.5389 30.774 33.5592C30.8987 33.2186 31.0175 32.8758 31.1303 32.531C31.3059 32.701 31.4811 32.8715 31.6558 33.0424C31.9689 33.349 32.2806 33.657 32.5908 33.9664C32.624 33.9671 32.6573 33.9675 32.6906 33.9675C32.7294 33.9675 32.7681 33.967 32.8066 33.9661C32.2696 33.4298 31.7282 32.8979 31.1824 32.3703C31.3628 31.8085 31.5274 31.2417 31.6758 30.6708C32.0019 31.5796 32.5932 32.3565 33.5802 32.6807C34.2916 32.9148 35.0651 32.8996 35.8005 32.7881C35.8601 32.7353 35.9182 32.681 35.975 32.6253C35.6392 32.679 35.3025 32.7107 34.9691 32.7184C34.1883 32.736 33.37 32.5828 32.7544 32.0703C32.2733 31.6709 31.9637 31.1132 31.771 30.5217C31.7843 30.5271 31.7976 30.5326 31.811 30.5379C32.4591 30.7967 33.1173 30.7188 33.6753 30.2942C34.0265 30.0269 34.282 29.7005 34.4887 29.3434C34.9443 29.3465 35.3999 29.3407 35.8551 29.326C35.695 29.7158 35.5479 30.1404 35.7574 30.5078C35.8498 30.6682 35.983 30.8038 36.1122 30.9354C36.1368 30.9604 36.1613 30.9853 36.1853 31.0102C36.3729 31.2053 36.5606 31.3985 36.7554 31.586C36.7208 31.6547 36.6858 31.7232 36.6504 31.7915C36.6909 31.7278 36.7299 31.6631 36.7673 31.5974C36.7934 31.5517 36.8187 31.5055 36.8432 31.4589C36.8575 31.4318 36.8715 31.4046 36.8852 31.3773C36.9422 31.2636 36.9947 31.1473 37.0425 31.0286C37.0723 30.9545 37.1003 30.8795 37.1264 30.8036C37.0988 30.8656 37.0708 30.9275 37.0425 30.9891C37.0438 30.4082 37.0881 29.8287 37.1885 29.2574C37.2524 29.2529 37.3162 29.2482 37.38 29.2434C37.3797 29.194 37.3786 29.1448 37.3767 29.0958C37.3232 29.0999 37.2697 29.1038 37.2162 29.1076C37.2493 28.9367 37.2875 28.7667 37.3312 28.5976C37.3139 28.4789 37.2922 28.3617 37.2663 28.2462C37.1802 28.533 37.1099 28.8241 37.0542 29.1186C36.7301 29.1401 36.4057 29.157 36.0812 29.1693C36.3639 28.3769 36.6175 27.5645 36.6253 26.7254C36.5759 26.6495 36.5245 26.5751 36.4709 26.5024C36.4786 26.6558 36.4775 26.8092 36.468 26.9607C36.4255 27.6289 36.2428 28.2796 36.0226 28.9076C35.9929 28.9931 35.9563 29.0827 35.9178 29.1751C35.4692 29.1901 35.0203 29.1964 34.5714 29.1942C34.7495 28.8591 34.8918 28.5015 35.0345 28.143C35.2468 27.6095 35.4598 27.0743 35.7924 26.609C35.826 26.5619 35.8609 26.5166 35.8969 26.4728C36.0712 26.4603 36.2454 26.4473 36.4196 26.4339C36.383 26.3859 36.3454 26.3387 36.307 26.2922C36.2182 26.299 36.1294 26.3056 36.0406 26.3121C36.091 26.2602 36.1431 26.2108 36.1966 26.1634C36.1658 26.1287 36.1344 26.0945 36.1025 26.0607C36.095 26.0676 36.0876 26.0745 36.0802 26.0815C35.9982 26.1585 35.9219 26.2403 35.8504 26.3259C34.852 26.3975 33.8518 26.4538 32.851 26.4904C32.8468 26.3345 32.8268 26.1825 32.7869 26.0388C32.7392 25.8688 32.6562 25.7328 32.5485 25.6278C32.5796 25.282 32.6049 24.9356 32.6245 24.5889C32.5734 24.5896 32.5225 24.5911 32.4718 24.5934C32.4544 24.9009 32.4324 25.2082 32.4058 25.515C32.301 25.4482 32.1822 25.4022 32.0557 25.3752C32.0608 25.3619 32.066 25.3487 32.0712 25.3354C32.1707 25.0834 32.2831 24.8375 32.4065 24.5969C32.3481 24.6004 32.29 24.6049 32.2322 24.6105C32.1123 24.8528 32.0039 25.1005 31.9073 25.3526C31.8145 25.3437 31.7191 25.3441 31.6233 25.353C31.0847 25.4037 30.5708 25.6355 30.0757 25.8589C30.0276 25.8806 29.9797 25.9022 29.932 25.9235C29.895 25.8047 29.8593 25.6854 29.8247 25.5658C29.7807 25.5998 29.7374 25.6345 29.6947 25.67C29.7258 25.7756 29.7578 25.881 29.7908 25.986C29.5447 26.0934 29.2995 26.2034 29.0552 26.3154C29.0004 26.3826 28.9474 26.4513 28.8963 26.5215C28.8815 26.5418 28.8669 26.5623 28.8524 26.5829C28.8326 26.611 28.8131 26.6394 28.7939 26.6679C29.2052 26.6785 29.6167 26.6846 30.0282 26.6866C30.1417 26.9974 30.2657 27.305 30.4021 27.6088C30.5497 27.9404 30.7124 28.2645 30.8926 28.5785C30.9869 28.7447 31.0975 28.9212 31.2642 29.0133C30.6596 28.9476 30.057 28.8673 29.4526 28.7867C29.3779 28.7767 29.3032 28.7668 29.2284 28.7569C28.8606 28.7091 28.4552 28.7116 28.1824 29.0056C28.0918 29.1021 28.0347 29.2163 28.0015 29.3384C28.0017 29.3563 28.002 29.3743 28.0024 29.3922C28.0042 29.4645 28.0075 29.5364 28.0125 29.6079ZM28.1045 29.6915C28.1047 29.7 28.1049 29.7084 28.1052 29.7169C28.1124 29.7152 28.1197 29.7136 28.1269 29.7119C28.1195 29.7051 28.112 29.6983 28.1045 29.6915ZM28.3122 29.6741C28.2463 29.6139 28.1803 29.5538 28.1142 29.4937C28.1554 29.1661 28.3324 28.9176 28.783 28.8825C28.9877 28.8655 29.1959 28.9004 29.3987 28.9343C29.4364 28.9406 29.4739 28.9469 29.5112 28.9528C29.7865 28.9955 30.0618 29.0332 30.337 29.0684C30.6782 29.1121 31.0203 29.1504 31.3633 29.1833C31.3942 29.5353 31.4518 29.8922 31.5423 30.238C31.4847 30.2109 31.4273 30.1836 31.3702 30.1563C30.996 29.978 30.6279 29.8025 30.2144 29.7064C29.597 29.5644 28.9441 29.5577 28.3122 29.6741ZM28.4487 29.7989C29.3305 30.6061 30.2019 31.4249 31.0625 32.2546C31.253 31.654 31.4252 31.0477 31.5789 30.4368C31.4778 30.3897 31.3779 30.34 31.278 30.2902C31.0968 30.1998 30.9157 30.1096 30.7274 30.0355C30.3971 29.9049 30.0492 29.8195 29.6989 29.7768C29.2843 29.7267 28.8624 29.7351 28.4487 29.7989ZM31.6576 30.1167C31.7287 29.8211 31.7954 29.5245 31.8578 29.2269C31.74 29.2174 31.6222 29.2073 31.5046 29.1965C31.5352 29.5072 31.5857 29.8149 31.6576 30.1167ZM31.6842 29.0564C31.7525 29.063 31.8208 29.0693 31.8892 29.0754C31.8983 29.0306 31.9074 28.9857 31.9164 28.9408C31.8447 28.9933 31.7674 29.0335 31.6842 29.0564ZM32.1077 28.7596C32.0865 28.8694 32.0648 28.9791 32.0424 29.0886C32.2003 29.1018 32.3583 29.1135 32.5167 29.1236C33.1563 29.1643 33.7972 29.1875 34.4383 29.1932C34.645 28.8232 34.8048 28.4189 34.9624 28.0203C35.0417 27.8197 35.1204 27.6206 35.2043 27.428C35.348 27.0992 35.514 26.7749 35.7262 26.485C35.2396 26.5192 34.7528 26.5498 34.2659 26.5764C33.7944 26.6018 33.3226 26.6233 32.8504 26.6405C32.8346 27.1057 32.694 27.5925 32.5367 27.9882C32.4459 28.2155 32.3052 28.5276 32.1077 28.7596ZM32.6873 26.6462C32.6805 26.8265 32.6554 27.0068 32.6243 27.1692C32.5642 27.4832 32.4691 27.7922 32.339 28.0836C32.2918 28.1903 32.2369 28.3084 32.1708 28.4218C32.2771 27.8355 32.3667 27.246 32.4394 26.6543C32.522 26.6517 32.6047 26.649 32.6873 26.6462ZM32.6884 26.4962C32.6827 26.2584 32.6387 26.0293 32.5277 25.8509C32.5066 26.0688 32.4832 26.2864 32.4576 26.5038C32.5345 26.5014 32.6115 26.4988 32.6884 26.4962ZM32.3037 26.5084C32.3362 26.2355 32.3651 25.962 32.3903 25.6882C32.2923 25.6029 32.1654 25.5419 32.0029 25.5149C31.8826 25.8421 31.7807 26.1796 31.6992 26.5235C31.9007 26.5194 32.1022 26.5143 32.3037 26.5084ZM31.5495 26.5265C31.6293 26.1787 31.7304 25.8358 31.8522 25.5001C31.3278 25.478 30.8033 25.711 30.3212 25.925C30.2393 25.9614 30.1586 25.9973 30.0793 26.0313C30.046 26.0456 30.0128 26.0599 29.9796 26.0743C30.0294 26.2296 30.0815 26.3841 30.1361 26.5377C30.6072 26.5391 31.0784 26.5352 31.5495 26.5265ZM30.1901 26.6872C30.6322 26.6882 31.0744 26.6846 31.5165 26.6767C31.364 27.4005 31.3038 28.1436 31.3424 28.8849C31.16 28.787 31.0381 28.5482 30.9399 28.3558C30.9226 28.3219 30.9061 28.2894 30.8901 28.2595C30.7274 27.953 30.5773 27.6365 30.4396 27.3174C30.3509 27.1093 30.268 26.8991 30.1901 26.6872ZM31.4831 28.9282C31.4367 28.1765 31.5037 27.412 31.665 26.6739C31.8718 26.6698 32.0786 26.6648 32.2854 26.6588C32.2004 27.3445 32.0927 28.0273 31.9625 28.7057C31.8678 28.8037 31.7569 28.8799 31.6258 28.9151C31.575 28.9287 31.5276 28.9325 31.4831 28.9282ZM29.9745 26.5371C29.9274 26.4038 29.8822 26.2701 29.8386 26.1358C29.5509 26.2619 29.265 26.3913 28.9803 26.5234C29.3116 26.5307 29.643 26.5352 29.9745 26.5371ZM34.3513 29.3422C33.5831 29.334 32.815 29.3005 32.0487 29.2417C32.0363 29.2408 32.0239 29.2398 32.0114 29.2389C31.9616 29.4774 31.9089 29.7153 31.8535 29.9526C31.8233 30.0813 31.7922 30.2098 31.7604 30.3381C32.3371 30.5901 32.9154 30.6249 33.4651 30.2767C33.847 30.0349 34.1267 29.7092 34.3513 29.3422ZM36.027 29.32C35.9977 29.401 35.9683 29.4818 35.9389 29.5624C35.9284 29.5912 35.918 29.6199 35.9075 29.6486C35.8299 29.8622 35.7574 30.0883 35.8349 30.3143C35.885 30.4626 35.9876 30.5781 36.0902 30.6912C36.2578 30.8745 36.433 31.0529 36.6082 31.2287C36.6803 31.3007 36.753 31.3722 36.8266 31.4429C36.8459 31.4039 36.865 31.3647 36.884 31.3255C36.869 30.6314 36.9111 29.9417 37.0271 29.2684C36.694 29.2904 36.3606 29.3076 36.027 29.32Z" fill="#E6007A"/>
<path d="M31.023 31.0574H32.1541L32.5147 29.7498C32.5644 29.5695 32.8179 29.5697 32.8675 29.75L33.2268 31.0574H34.3557L35.2212 27.7139H34.1614L33.8907 29.0408C33.8514 29.2335 33.5804 29.2388 33.5337 29.0478L33.2074 27.7139H32.1735L31.8556 29.0561C31.8103 29.2477 31.5386 29.244 31.4984 29.0512L31.403 28.5936C31.296 28.0809 30.8475 27.7139 30.328 27.7139H30.1597L31.023 31.0574Z" fill="white"/>
<defs>
<linearGradient id="paint0_linear_1514_57025" x1="28.2228" y1="29.0095" x2="43.4364" y2="29.0209" gradientUnits="userSpaceOnUse">
<stop stop-color="#F79420" stop-opacity="0.92"/>
<stop offset="1" stop-color="#C4C4C4" stop-opacity="0"/>
</linearGradient>
</defs>
</svg>
