<svg width="24" height="24" viewBox="0 0 24 24" fill="none" xmlns="http://www.w3.org/2000/svg">
<path fill-rule="evenodd" clip-rule="evenodd" d="M8.58793 21.4998H11.9761C11.9761 21.4998 11.9761 14.9862 11.9761 14.3897C11.9761 13.4666 12.5159 12.629 13.3563 12.2477L14.0135 11.9496C14.8539 11.5683 15.3937 10.7307 15.3937 9.80775C15.3937 9.19486 15.3937 2.5 15.3937 2.5C15.4044 2.5 12.0056 2.5 12.0056 2.5V9.80775C12.0056 10.7307 11.4657 11.5683 10.6253 11.9496L9.96824 12.2477C9.12773 12.629 8.58793 13.4666 8.58793 14.3897V21.4998ZM20.5767 2.50011C21.2262 2.50011 21.7526 3.02664 21.7526 3.67612V9.61032C21.7526 10.5333 21.213 11.3709 20.3724 11.7522L19.7154 12.0503C18.8749 12.4316 18.3351 13.2692 18.3351 14.1922V20.3239C18.3351 20.9734 17.8085 21.5 17.159 21.5H14.9468C14.9468 21.5 14.9468 14.8052 14.9468 14.1922C14.9468 13.2692 15.4866 12.4316 16.3271 12.0503L16.9841 11.7522C17.8247 11.3709 18.3645 10.5333 18.3645 9.61032V2.50011C18.3645 2.50011 19.8393 2.50011 20.5767 2.50011ZM9.05289 2.5H6.84068C6.19119 2.5 5.66468 3.02651 5.66468 3.67601V9.80775C5.66468 10.7307 5.12488 11.5683 4.28439 11.9496L3.62736 12.2477C2.78687 12.629 2.24707 13.4666 2.24707 14.3897V20.3239C2.24707 20.9734 2.77358 21.4998 3.42308 21.4998H5.63527C5.63527 19.1298 5.63527 16.7597 5.63527 14.3897C5.63527 13.4666 6.17506 12.629 7.01557 12.2477L7.67258 11.9496C8.51308 11.5683 9.05289 10.7307 9.05289 9.80775C9.05289 7.37183 9.05289 4.93592 9.05289 2.5Z" fill="url(#paint0_linear_31674_158982)"/>
<defs>
<linearGradient id="paint0_linear_31674_158982" x1="5.92769" y1="3.2125" x2="17.6907" y2="20.352" gradientUnits="userSpaceOnUse">
<stop stop-color="#FEE45D"/>
<stop offset="0.145" stop-color="#FEE45D"/>
<stop offset="0.775" stop-color="#AEFEC3"/>
</linearGradient>
</defs>
</svg>
