<svg width="24" height="24" viewBox="0 0 24 24" fill="none" xmlns="http://www.w3.org/2000/svg">
<path d="M11.9999 22.5C17.7989 22.5 22.4999 17.799 22.4999 12C22.4999 6.20101 17.7989 1.5 11.9999 1.5C6.20095 1.5 1.49994 6.20101 1.49994 12C1.49994 17.799 6.20095 22.5 11.9999 22.5Z" fill="url(#paint0_linear_33381_53089)"/>
<path d="M16.6515 15.0305H14.0993L13.6198 13.8072H10.3805L9.90101 15.0305H7.34882L10.4031 7.75781H13.5934L16.6515 15.0305ZM12.0039 9.64798L11.1582 11.8184H12.8459L12.0039 9.64798Z" fill="white"/>
<path d="M13.7011 4.43928C13.7011 5.37872 12.9396 6.14028 12.0001 6.14028C11.0607 6.14028 10.2991 5.37872 10.2991 4.43928C10.2991 3.49984 11.0607 2.73828 12.0001 2.73828C12.9396 2.73828 13.7011 3.49984 13.7011 4.43928Z" fill="white"/>
<path d="M13.7011 19.5593C13.7011 20.4987 12.9396 21.2603 12.0001 21.2603C11.0607 21.2603 10.2991 20.4987 10.2991 19.5593C10.2991 18.6198 11.0607 17.8583 12.0001 17.8583C12.9396 17.8583 13.7011 18.6198 13.7011 19.5593Z" fill="white"/>
<path d="M19.3976 9.69288C18.5841 10.1626 17.5438 9.88385 17.074 9.07027C16.6043 8.2567 16.8831 7.21638 17.6966 6.74666C18.5102 6.27695 19.5505 6.5557 20.0203 7.36927C20.49 8.18285 20.2112 9.22316 19.3976 9.69288Z" fill="white"/>
<path d="M6.30335 17.2529C5.48977 17.7226 4.44945 17.4438 3.97974 16.6303C3.51002 15.8167 3.78877 14.7764 4.60235 14.3067C5.41592 13.8369 6.45624 14.1157 6.92595 14.9293C7.39567 15.7428 7.11692 16.7832 6.30335 17.2529Z" fill="white"/>
<path d="M4.60234 9.69287C5.41592 10.1626 6.45623 9.88384 6.92595 9.07027C7.39567 8.25669 7.11692 7.21637 6.30334 6.74666C5.48976 6.27694 4.44945 6.55569 3.97973 7.36927C3.51001 8.18284 3.78876 9.22316 4.60234 9.69287Z" fill="white"/>
<path d="M17.6966 17.2529C18.5102 17.7226 19.5505 17.4438 20.0203 16.6303C20.49 15.8167 20.2112 14.7764 19.3976 14.3067C18.5841 13.8369 17.5438 14.1157 17.074 14.9293C16.6043 15.7428 16.8831 16.7832 17.6966 17.2529Z" fill="white"/>
<defs>
<linearGradient id="paint0_linear_33381_53089" x1="22.4999" y1="12" x2="1.49994" y2="12" gradientUnits="userSpaceOnUse">
<stop stop-color="#FFAE5E"/>
<stop offset="1" stop-color="#F68728"/>
</linearGradient>
</defs>
</svg>
