<svg width="24" height="24" viewBox="0 0 24 24" fill="none" xmlns="http://www.w3.org/2000/svg">
<path d="M5.49245 6.8999C6.16953 6.8999 6.71845 7.44988 6.71845 8.12833C6.71845 8.65951 6.3819 9.11199 5.91082 9.28336L5.91089 15.6469C6.78787 15.6081 7.60338 15.4473 8.32793 15.1808L8.32791 10.3022C7.85683 10.1308 7.52028 9.67834 7.52028 9.14716C7.52028 8.46871 8.0692 7.91874 8.74627 7.91874C9.42335 7.91874 9.97227 8.46871 9.97227 9.14716C9.97227 9.67834 9.63572 10.1308 9.16464 10.3022L9.16468 14.8044C9.97026 14.368 10.6156 13.7774 11.0436 13.0642C10.7532 12.802 10.5707 12.4223 10.5707 11.9999C10.5707 11.2089 11.2107 10.5677 12.0001 10.5677C12.0649 10.5677 12.1287 10.572 12.1913 10.5804C13.2799 8.68375 15.6143 7.53498 18.3994 7.50595L18.5077 7.50538H22.9817C23.2128 7.50538 23.4001 7.69305 23.4001 7.92456C23.4001 8.1478 23.2259 8.33028 23.0063 8.34303L22.9817 8.34374H22.1799L22.1799 14.7164C22.651 14.8878 22.9876 15.3403 22.9876 15.8715C22.9876 16.5499 22.4386 17.0999 21.7616 17.0999C21.0845 17.0999 20.5356 16.5499 20.5356 15.8715C20.5356 15.3402 20.8722 14.8877 21.3433 14.7164L21.3432 8.34374H18.926L18.9261 14.7164C19.3972 14.8878 19.7337 15.3403 19.7337 15.8715C19.7337 16.5499 19.1848 17.0999 18.5077 17.0999C17.8307 17.0999 17.2817 16.5499 17.2817 15.8715C17.2817 15.3403 17.6183 14.8878 18.0894 14.7164L18.0893 8.35293C17.2123 8.39172 16.3968 8.55251 15.6723 8.81901L15.6723 13.6976C16.1434 13.869 16.4799 14.3214 16.4799 14.8526C16.4799 15.531 15.931 16.0811 15.2539 16.0811C14.5769 16.0811 14.0279 15.531 14.0279 14.8526C14.0279 14.3214 14.3645 13.869 14.8355 13.6976L14.8355 9.19543C14.0299 9.6318 13.3846 10.2224 12.9566 10.9356C13.247 11.1978 13.4295 11.5775 13.4295 11.9999C13.4295 12.7909 12.7895 13.4321 12.0001 13.4321C11.9353 13.4321 11.8715 13.4278 11.8089 13.4194C10.7203 15.316 8.38594 16.4648 5.60079 16.4939L5.49245 16.4944H1.01845C0.787399 16.4944 0.600098 16.3068 0.600098 16.0752C0.600098 15.852 0.774259 15.6695 0.993865 15.6568L1.01845 15.6561L1.82028 15.656L1.82028 9.28337C1.34919 9.112 1.01264 8.65952 1.01264 8.12833C1.01264 7.44988 1.56155 6.8999 2.23863 6.8999C2.91571 6.8999 3.46462 7.44988 3.46462 8.12833C3.46462 8.65946 3.12813 9.11191 2.65712 9.28331L2.65698 15.656H5.07406L5.07408 9.28336C4.60301 9.11199 4.26646 8.65951 4.26646 8.12833C4.26646 7.44988 4.81537 6.8999 5.49245 6.8999Z" fill="white"/>
</svg>
