<svg width="24" height="24" viewBox="0 0 24 24" fill="none" xmlns="http://www.w3.org/2000/svg">
<path d="M12 22.5C17.7989 22.5 22.5 17.799 22.5 12C22.5 6.20101 17.7989 1.5 12 1.5C6.20096 1.5 1.49995 6.20101 1.49995 12C1.49995 17.799 6.20096 22.5 12 22.5Z" fill="#321D47"/>
<path d="M13.7011 4.4405C13.7011 5.37994 12.9396 6.1415 12.0001 6.1415C11.0607 6.1415 10.2991 5.37994 10.2991 4.4405C10.2991 3.50107 11.0607 2.7395 12.0001 2.7395C12.9396 2.7395 13.7011 3.50107 13.7011 4.4405Z" fill="#E40B7B"/>
<path d="M13.7011 19.5605C13.7011 20.4999 12.9396 21.2615 12.0001 21.2615C11.0607 21.2615 10.2991 20.4999 10.2991 19.5605C10.2991 18.6211 11.0607 17.8595 12.0001 17.8595C12.9396 17.8595 13.7011 18.6211 13.7011 19.5605Z" fill="#E40B7B"/>
<path d="M19.3976 9.6941C18.5841 10.1638 17.5438 9.88507 17.074 9.07149C16.6043 8.25792 16.8831 7.2176 17.6966 6.74788C18.5102 6.27817 19.5505 6.55692 20.0203 7.37049C20.49 8.18407 20.2112 9.22439 19.3976 9.6941Z" fill="#E40B7B"/>
<path d="M6.30335 17.2541C5.48977 17.7238 4.44945 17.4451 3.97974 16.6315C3.51002 15.8179 3.78877 14.7776 4.60235 14.3079C5.41592 13.8382 6.45624 14.1169 6.92595 14.9305C7.39567 15.7441 7.11692 16.7844 6.30335 17.2541Z" fill="#E40B7B"/>
<path d="M4.60234 9.6941C5.41592 10.1638 6.45623 9.88506 6.92595 9.07149C7.39567 8.25791 7.11692 7.2176 6.30334 6.74788C5.48976 6.27816 4.44945 6.55691 3.97973 7.37049C3.51001 8.18406 3.78876 9.22438 4.60234 9.6941Z" fill="#E40B7B"/>
<path d="M17.6966 17.2541C18.5102 17.7238 19.5505 17.4451 20.0203 16.6315C20.49 15.8179 20.2112 14.7776 19.3976 14.3079C18.5841 13.8382 17.5438 14.1169 17.074 14.9305C16.6043 15.7441 16.8831 16.7844 17.6966 17.2541Z" fill="#E40B7B"/>
<path fill-rule="evenodd" clip-rule="evenodd" d="M14.7926 8.53574C14.3031 8.29821 13.7165 8.17944 13.0327 8.17944H8.46564V16.2771H10.7762V13.8046H13.0327C13.7165 13.8046 14.3031 13.6894 14.7926 13.4591C15.2892 13.2216 15.6707 12.8941 15.937 12.4766C16.2034 12.0519 16.3365 11.5552 16.3365 10.9866C16.3365 10.4252 16.2034 9.93573 15.937 9.51825C15.6707 9.09357 15.2892 8.76607 14.7926 8.53574ZM10.7762 11.9583H12.9031C13.2486 11.9583 13.5185 11.872 13.7129 11.6992C13.9072 11.5265 14.0044 11.2889 14.0044 10.9866C14.0044 10.6843 13.9072 10.4504 13.7129 10.2848C13.5185 10.1121 13.2486 10.0257 12.9031 10.0257H10.7762V11.9583Z" fill="white"/>
</svg>
