<svg width="40" height="40" viewBox="0 0 40 40" fill="none" xmlns="http://www.w3.org/2000/svg">
<path d="M38 30.125C38 34.4742 34.4742 38 30.125 38L9.875 38C5.52576 38 2 34.4742 2 30.125L2.00001 9.875C2.00001 5.52576 5.52577 2 9.87501 2L30.125 2C34.4742 2 38 5.52576 38 9.875L38 30.125Z" fill="black"/>
<path fill-rule="evenodd" clip-rule="evenodd" d="M9.875 37L30.125 37C33.922 37 37 33.922 37 30.125L37 9.875C37 6.07805 33.922 3 30.125 3L9.87501 3C6.07805 3 3.00001 6.07804 3.00001 9.875L3 30.125C3 33.922 6.07805 37 9.875 37ZM30.125 38C34.4742 38 38 34.4742 38 30.125L38 9.875C38 5.52576 34.4742 2 30.125 2L9.87501 2C5.52576 2 2.00001 5.52576 2.00001 9.875L2 30.125C2 34.4742 5.52576 38 9.875 38L30.125 38Z" fill="#EBEEF4"/>
<path opacity="0.7" fill-rule="evenodd" clip-rule="evenodd" d="M30.125 37L9.875 37C6.07804 37 3 33.922 3 30.125L3 26.5576C7.12185 27.6335 13.4031 28.8758 20.4316 28.8758C27.2541 28.8758 33.1117 27.7052 37 26.6526V30.125C37 33.922 33.922 37 30.125 37Z" fill="url(#paint0_linear_4408_34357)"/>
<path fill-rule="evenodd" clip-rule="evenodd" d="M30.125 37L9.875 37C6.07804 37 3 33.922 3 30.125L3 28.4206C7.47938 27.897 14.1996 27.2484 20.0012 27.2484C25.8018 27.2484 32.5206 27.8968 37 28.4203V30.125C37 33.922 33.922 37 30.125 37Z" fill="url(#paint1_linear_4408_34357)"/>
<path fill-rule="evenodd" clip-rule="evenodd" d="M3.0146 30.5766C3.78646 30.4857 4.62895 30.3906 5.5248 30.2955C9.79537 29.842 15.2316 29.3938 20.0012 29.3938C24.7709 29.3938 30.2071 29.842 34.4776 30.2955C35.3725 30.3905 36.2142 30.4855 36.9854 30.5763C36.9951 30.4271 37 30.2766 37 30.125V26.9535C36.3298 26.8758 35.6124 26.7957 34.8577 26.7156C30.5415 26.2573 24.959 25.7938 20.0012 25.7938C15.0434 25.7938 9.46097 26.2573 5.14471 26.7156C4.38913 26.7958 3.67091 26.876 3 26.9538L3 30.1249C3 30.2767 3.00492 30.4273 3.0146 30.5766Z" fill="url(#paint2_linear_4408_34357)"/>
<path d="M10.9353 29.9019C10.586 29.9019 10.2494 29.9457 10.1123 29.9828C9.91276 30.0389 9.86299 30.1263 9.82544 30.3072L9.03367 33.9607C9.021 34.0353 9.00879 34.0978 9.00879 34.1602C9.00879 34.3412 9.12733 34.4593 9.32052 34.4593C9.53271 34.4593 9.62003 34.3222 9.66347 34.11L9.88788 33.0689C10.0435 33.0875 10.2494 33.1065 10.5426 33.1065C11.8334 33.1065 12.6373 32.4084 12.6373 31.3546C12.6373 30.4317 11.9949 29.9019 10.9353 29.9019ZM10.5113 32.5079C10.3118 32.5079 10.1557 32.5016 10.0128 32.483L10.4304 30.5439C10.5611 30.5253 10.7548 30.5 10.9543 30.5C11.6402 30.5 11.9895 30.8244 11.9895 31.3605C11.989 32.0464 11.49 32.5079 10.5113 32.5079Z" fill="white"/>
<path d="M31.2475 33.2558C31.1416 33.2558 31.0729 33.3182 30.9421 33.4616C30.7114 33.6987 30.568 33.8295 30.3874 33.8295C30.2255 33.8295 30.1381 33.6987 30.1381 33.4865C30.1381 33.368 30.163 33.2246 30.1942 33.0689L30.425 31.984H31.1172C31.3353 31.984 31.4665 31.8591 31.4665 31.6347C31.4665 31.5098 31.3855 31.4166 31.1987 31.4166H30.5494L30.6616 30.9117C30.6743 30.837 30.6865 30.7683 30.6865 30.7058C30.6865 30.5312 30.568 30.4063 30.3748 30.4063C30.1689 30.4063 30.0757 30.5434 30.0318 30.7556L29.8884 31.4166H29.5952C29.3708 31.4166 29.24 31.5415 29.24 31.7659C29.24 31.8908 29.3274 31.984 29.5142 31.984H29.7699L29.5391 33.0563C29.5142 33.1748 29.483 33.368 29.483 33.5675C29.483 34.0724 29.745 34.4403 30.306 34.4403C30.6304 34.4403 30.9168 34.2783 31.1353 34.0847C31.3475 33.8978 31.5031 33.6671 31.5031 33.5173C31.5031 33.3743 31.3909 33.2558 31.2475 33.2558Z" fill="white"/>
<path d="M16.9079 30.2697C16.9079 30.0887 16.783 29.9702 16.5899 29.9702C16.384 29.9702 16.2908 30.1073 16.2469 30.3195L15.4678 33.9417C15.4493 34.0163 15.4366 34.0788 15.4366 34.1412C15.4366 34.3222 15.5615 34.4403 15.7483 34.4403C15.9605 34.4403 16.0537 34.3032 16.0976 34.091L16.8767 30.4692C16.8894 30.3941 16.9079 30.3321 16.9079 30.2697Z" fill="white"/>
<path d="M28.0366 31.3542C27.0389 31.3542 26.3594 32.3455 26.3594 33.287C26.3594 33.3046 26.3598 33.3223 26.3603 33.3395C26.2037 33.577 26.0038 33.8231 25.8667 33.8231C25.7671 33.8231 25.7296 33.7295 25.7296 33.5861C25.7296 33.4114 25.7793 33.1182 25.8354 32.8626L26.353 30.4683C26.3657 30.3937 26.3779 30.3312 26.3779 30.2688C26.3779 30.0878 26.2594 29.9693 26.0662 29.9693C25.854 29.9693 25.7671 30.1064 25.7232 30.3186L25.4427 31.6152C25.293 31.4596 25.0744 31.3533 24.7442 31.3533C24.0818 31.3533 23.4153 31.8632 23.1556 32.6454C22.8697 33.3847 22.6141 33.8222 22.4123 33.8222C22.3376 33.8222 22.2938 33.7598 22.2938 33.6539C22.2938 33.3422 22.4684 32.5817 22.543 32.2138C22.5679 32.0767 22.5806 32.0206 22.5806 31.9396C22.5806 31.6655 22.1254 31.3411 21.5332 31.3411C20.8482 31.3411 20.2279 31.775 19.9171 32.4192C19.4552 33.2354 19.0312 33.8222 18.8213 33.8222C18.7276 33.8222 18.6964 33.7037 18.6715 33.5915L18.5163 32.7323L19.4701 31.9532C19.5574 31.8786 19.6696 31.7722 19.6696 31.6351C19.6696 31.4668 19.5574 31.3546 19.3891 31.3546C19.2642 31.3546 19.1584 31.4293 19.0525 31.5166L17.6187 32.7011L18.0987 30.4692C18.1114 30.3946 18.13 30.3321 18.13 30.2697C18.13 30.0887 18.0051 29.9702 17.8119 29.9702C17.606 29.9702 17.5128 30.1073 17.4689 30.3195L16.6898 33.9417C16.6713 34.0163 16.6586 34.0788 16.6586 34.1412C16.6586 34.3222 16.7835 34.4403 16.9704 34.4403C17.1826 34.4403 17.2758 34.3032 17.3196 34.091L17.4196 33.6236L18.0055 33.1499L18.149 33.8729C18.2051 34.1598 18.3548 34.4403 18.7412 34.4403C19.1258 34.4403 19.4285 34.0892 19.7316 33.6146C19.8234 34.1118 20.1772 34.4403 20.6681 34.4403C21.1608 34.4403 21.4975 34.1471 21.7155 33.7544V33.767C21.7155 34.1724 21.9214 34.4403 22.2829 34.4403C22.61 34.4403 22.8815 34.243 23.124 33.824C23.2615 34.1892 23.5692 34.4403 23.9972 34.4403C24.5021 34.4403 24.8636 34.1349 25.0944 33.7109V33.7485C25.0944 34.1973 25.3188 34.4407 25.6866 34.4407C26.0114 34.4407 26.2874 34.2521 26.5232 33.9453C26.7023 34.2521 27.0236 34.4407 27.4574 34.4407C28.4551 34.4407 29.1346 33.4494 29.1346 32.5016C29.1342 31.8342 28.7288 31.3542 28.0366 31.3542ZM21.821 32.6201C21.64 33.3992 21.2536 33.8421 20.817 33.8421C20.5238 33.8421 20.3618 33.6177 20.3618 33.2811C20.3618 32.6201 20.8419 31.9093 21.4839 31.9093C21.6771 31.9093 21.8268 31.9654 21.9576 32.0464L21.821 32.6201ZM25.2934 32.2898C25.0939 33.2065 24.6387 33.8421 24.1402 33.8421C23.866 33.8421 23.7036 33.63 23.7036 33.2811C23.7036 32.6142 24.165 31.922 24.7822 31.922C25.0192 31.922 25.1998 32.003 25.331 32.1089L25.2934 32.2898ZM27.5316 33.8421C27.1701 33.8421 27.0204 33.5802 27.0204 33.2499C27.0204 32.645 27.438 31.9532 27.9619 31.9532C28.3234 31.9532 28.4732 32.2152 28.4732 32.5455C28.4732 33.1562 28.0556 33.8421 27.5316 33.8421Z" fill="white"/>
<path d="M14.1897 31.3542C13.192 31.3542 12.5125 32.3455 12.5125 33.287C12.5125 33.9602 12.9179 34.4403 13.6096 34.4403C14.6073 34.4403 15.2868 33.449 15.2868 32.5011C15.2868 31.8342 14.8814 31.3542 14.1897 31.3542ZM13.6847 33.8421C13.3232 33.8421 13.1735 33.5802 13.1735 33.2499C13.1735 32.645 13.5911 31.9532 14.115 31.9532C14.4765 31.9532 14.6263 32.2152 14.6263 32.5455C14.6258 33.1562 14.2082 33.8421 13.6847 33.8421Z" fill="white"/>
<path d="M20.0003 21.3543H10.8955L24.5527 7.80298H29.1051L20.0003 21.3543Z" fill="url(#paint3_linear_4408_34357)"/>
<defs>
<linearGradient id="paint0_linear_4408_34357" x1="-2.03613" y1="25.0115" x2="42.6412" y2="32.8451" gradientUnits="userSpaceOnUse">
<stop stop-color="#9E3BFF"/>
<stop offset="1" stop-color="#6D55FF"/>
</linearGradient>
<linearGradient id="paint1_linear_4408_34357" x1="-2.03613" y1="26.844" x2="42.0386" y2="26.844" gradientUnits="userSpaceOnUse">
<stop stop-color="#9E3BFF"/>
<stop offset="1" stop-color="#492CFF"/>
</linearGradient>
<linearGradient id="paint2_linear_4408_34357" x1="-2.01986" y1="36.8578" x2="41.8673" y2="37.6565" gradientUnits="userSpaceOnUse">
<stop stop-color="white" stop-opacity="0"/>
<stop offset="0.500885" stop-color="#9F7BFF"/>
<stop offset="1" stop-color="white" stop-opacity="0"/>
</linearGradient>
<linearGradient id="paint3_linear_4408_34357" x1="20.0003" y1="7.80298" x2="20.0003" y2="21.3543" gradientUnits="userSpaceOnUse">
<stop stop-color="#7AEDCF"/>
<stop offset="0.201333" stop-color="#68CEFA"/>
<stop offset="0.403244" stop-color="#689CF8"/>
<stop offset="0.602076" stop-color="#AC57C0"/>
<stop offset="0.801867" stop-color="#E65659"/>
<stop offset="1" stop-color="#F2C241"/>
</linearGradient>
</defs>
</svg>
