<svg width="40" height="40" viewBox="0 0 40 40" fill="none" xmlns="http://www.w3.org/2000/svg">
<path d="M27.0612 6L17.7832 14.3919C16.8225 15.2605 15.5724 15.7438 14.2746 15.7484L11.5092 15.755L11.4998 6.00094H6.5V33.8765H9.22672C10.7518 33.8765 12.1741 33.0719 12.9202 31.7501C12.9268 31.7407 12.9296 31.7313 12.9353 31.7257C13.4304 30.8404 13.6785 29.0914 13.6304 27.8973C13.5229 25.1673 13.0815 24.4576 13.0815 24.4576C12.989 26.3286 11.0253 26.43 11.0253 26.43C12.4222 25.1025 11.661 24.098 11.661 24.098C9.18805 25.8507 8.57027 23.9797 8.52311 23.8098C8.60045 23.8755 9.30406 24.4604 10.6415 22.6363C12.0553 20.709 13.9407 17.4955 15.1404 16.6694C16.342 15.8404 17.4823 15.9089 17.4823 15.9089C17.4823 15.9089 18.1388 15.0237 19.8751 14.2876C21.6106 13.5563 22.7235 14.6294 22.7235 14.6294C20.9485 16.0545 18.5387 18.3949 18.4038 21.7492C18.2963 24.4632 24.1741 29.1205 23.1414 36C23.7591 34.4379 24.0072 32.8729 23.795 30.9362C23.6252 29.3731 22.6132 26.1089 22.6132 26.1089L28.2581 33.8727H34.5L22.3 17.1904L34.5 6H27.0612Z" fill="url(#paint0_linear_1514_56983)"/>
<path d="M15.694 18.0034C15.2998 18.654 15.2998 18.853 15.2998 18.853C15.2998 18.853 16.6777 18.6211 17.0512 16.9905C17.0541 16.9905 16.1713 17.2158 15.6931 18.0034H15.694Z" fill="url(#paint1_linear_1514_56983)"/>
<defs>
<linearGradient id="paint0_linear_1514_56983" x1="48.5759" y1="25.6292" x2="25.5106" y2="0.441378" gradientUnits="userSpaceOnUse">
<stop stop-color="#E40C5B"/>
<stop offset="1" stop-color="#FF4C3B"/>
</linearGradient>
<linearGradient id="paint1_linear_1514_56983" x1="17.9312" y1="18.209" x2="16.5002" y2="16.6346" gradientUnits="userSpaceOnUse">
<stop stop-color="#E40C5B"/>
<stop offset="1" stop-color="#FF4C3B"/>
</linearGradient>
</defs>
</svg>
