<svg width="40" height="40" viewBox="0 0 40 40" fill="none" xmlns="http://www.w3.org/2000/svg">
<path d="M38 30.125C38 34.4742 34.4742 38 30.125 38L9.875 38C5.52576 38 2 34.4742 2 30.125L2.00001 9.875C2.00001 5.52576 5.52577 2 9.87501 2L30.125 2C34.4742 2 38 5.52576 38 9.875L38 30.125Z" fill="black"/>
<path fill-rule="evenodd" clip-rule="evenodd" d="M9.875 37L30.125 37C33.922 37 37 33.922 37 30.125L37 9.875C37 6.07805 33.922 3 30.125 3L9.87501 3C6.07805 3 3.00001 6.07804 3.00001 9.875L3 30.125C3 33.922 6.07805 37 9.875 37ZM30.125 38C34.4742 38 38 34.4742 38 30.125L38 9.875C38 5.52576 34.4742 2 30.125 2L9.87501 2C5.52576 2 2.00001 5.52576 2.00001 9.875L2 30.125C2 34.4742 5.52576 38 9.875 38L30.125 38Z" fill="white" fill-opacity="0.12"/>
<mask id="mask0_1514_56857" style="mask-type:alpha" maskUnits="userSpaceOnUse" x="2" y="2" width="36" height="36">
<path d="M2.90088 9.64649C2.90088 5.91857 5.92296 2.89648 9.65088 2.89648H30.3509C34.0788 2.89648 37.1009 5.91856 37.1009 9.64648V30.3465C37.1009 34.0744 34.0788 37.0965 30.3509 37.0965H9.65088C5.92296 37.0965 2.90088 34.0744 2.90088 30.3465V9.64649Z" fill="#D9D9D9"/>
</mask>
<g mask="url(#mask0_1514_56857)">
<path opacity="0.7" d="M-2.03589 25.0107C-2.03589 25.0107 8.03587 28.875 20.4319 28.875C32.8279 28.875 42.0388 25.0107 42.0388 25.0107V40.3336H-2.03589V25.0107Z" fill="url(#paint0_linear_1514_56857)"/>
<path d="M-2.03589 29.0715C-2.03589 29.0715 10.274 27.248 20.0015 27.248C29.7289 27.248 42.0388 29.0715 42.0388 29.0715V39.9884H-2.03589V29.0715Z" fill="url(#paint1_linear_1514_56857)"/>
<path d="M-2.03589 29.4162C-2.03589 29.4162 10.274 27.5928 20.0015 27.5928C29.7289 27.5928 42.0388 29.4162 42.0388 29.4162" stroke="url(#paint2_linear_1514_56857)" stroke-width="3.6"/>
<path d="M10.9355 29.9023C10.5862 29.9023 10.2496 29.9462 10.1125 29.9833C9.91301 30.0394 9.86324 30.1268 9.82569 30.3077L9.03392 33.9612C9.02125 34.0358 9.00903 34.0983 9.00903 34.1607C9.00903 34.3417 9.12757 34.4598 9.32076 34.4598C9.53296 34.4598 9.62028 34.3227 9.66371 34.1105L9.88812 33.0694C10.0438 33.088 10.2496 33.107 10.5428 33.107C11.8336 33.107 12.6376 32.4089 12.6376 31.3551C12.6376 30.4321 11.9951 29.9023 10.9355 29.9023ZM10.5116 32.5084C10.3121 32.5084 10.156 32.5021 10.013 32.4835L10.4306 30.5444C10.5614 30.5258 10.755 30.5005 10.9545 30.5005C11.6404 30.5005 11.9897 30.8249 11.9897 31.361C11.9892 32.0469 11.4902 32.5084 10.5116 32.5084Z" fill="white"/>
<path d="M31.2478 33.2563C31.1419 33.2563 31.0731 33.3187 30.9424 33.4621C30.7116 33.6992 30.5682 33.83 30.3877 33.83C30.2257 33.83 30.1384 33.6992 30.1384 33.487C30.1384 33.3685 30.1633 33.2251 30.1945 33.0694L30.4252 31.9845H31.1175C31.3355 31.9845 31.4667 31.8596 31.4667 31.6352C31.4667 31.5103 31.3858 31.4171 31.1989 31.4171H30.5497L30.6619 30.9122C30.6745 30.8375 30.6867 30.7688 30.6867 30.7063C30.6867 30.5317 30.5682 30.4068 30.375 30.4068C30.1691 30.4068 30.0759 30.5439 30.0321 30.7561L29.8886 31.4171H29.5955C29.371 31.4171 29.2403 31.542 29.2403 31.7664C29.2403 31.8913 29.3276 31.9845 29.5145 31.9845H29.7701L29.5394 33.0567C29.5145 33.1753 29.4833 33.3685 29.4833 33.568C29.4833 34.0729 29.7452 34.4408 30.3062 34.4408C30.6306 34.4408 30.917 34.2788 31.1356 34.0851C31.3478 33.8983 31.5034 33.6675 31.5034 33.5178C31.5034 33.3748 31.3912 33.2563 31.2478 33.2563Z" fill="white"/>
<path d="M16.9082 30.2702C16.9082 30.0892 16.7833 29.9707 16.5901 29.9707C16.3842 29.9707 16.291 30.1078 16.2472 30.3199L15.4681 33.9422C15.4495 34.0168 15.4368 34.0793 15.4368 34.1417C15.4368 34.3227 15.5617 34.4408 15.7486 34.4408C15.9608 34.4408 16.054 34.3037 16.0978 34.0915L16.8769 30.4697C16.8896 30.3946 16.9082 30.3326 16.9082 30.2702Z" fill="white"/>
<path d="M28.0368 31.3547C27.0392 31.3547 26.3596 32.346 26.3596 33.2875C26.3596 33.3051 26.3601 33.3228 26.3605 33.34C26.204 33.5775 26.004 33.8236 25.8669 33.8236C25.7674 33.8236 25.7298 33.73 25.7298 33.5866C25.7298 33.4119 25.7796 33.1187 25.8357 32.8631L26.3533 30.4688C26.3659 30.3941 26.3782 30.3317 26.3782 30.2693C26.3782 30.0883 26.2596 29.9698 26.0664 29.9698C25.8542 29.9698 25.7674 30.1068 25.7235 30.319L25.443 31.6157C25.2932 31.4601 25.0747 31.3538 24.7444 31.3538C24.082 31.3538 23.4156 31.8637 23.1559 32.6459C22.87 33.3852 22.6143 33.8227 22.4125 33.8227C22.3379 33.8227 22.294 33.7603 22.294 33.6544C22.294 33.3427 22.4686 32.5821 22.5433 32.2143C22.5682 32.0772 22.5808 32.0211 22.5808 31.9401C22.5808 31.666 22.1257 31.3416 21.5334 31.3416C20.8485 31.3416 20.2282 31.7754 19.9173 32.4197C19.4554 33.2359 19.0315 33.8227 18.8215 33.8227C18.7279 33.8227 18.6967 33.7042 18.6718 33.592L18.5166 32.7328L19.4703 31.9537C19.5576 31.879 19.6699 31.7727 19.6699 31.6356C19.6699 31.4673 19.5576 31.3551 19.3893 31.3551C19.2645 31.3551 19.1586 31.4298 19.0527 31.5171L17.6189 32.7016L18.099 30.4697C18.1117 30.395 18.1302 30.3326 18.1302 30.2702C18.1302 30.0892 18.0053 29.9707 17.8121 29.9707C17.6063 29.9707 17.5131 30.1078 17.4692 30.3199L16.6901 33.9422C16.6715 34.0168 16.6589 34.0793 16.6589 34.1417C16.6589 34.3227 16.7837 34.4408 16.9706 34.4408C17.1828 34.4408 17.276 34.3037 17.3199 34.0915L17.4199 33.6241L18.0058 33.1504L18.1492 33.8734C18.2053 34.1602 18.3551 34.4408 18.7414 34.4408C19.126 34.4408 19.4287 34.0897 19.7318 33.6151C19.8237 34.1123 20.1775 34.4408 20.6684 34.4408C21.1611 34.4408 21.4977 34.1476 21.7158 33.7549V33.7675C21.7158 34.1729 21.9216 34.4408 22.2831 34.4408C22.6103 34.4408 22.8817 34.2435 23.1242 33.8245C23.2618 34.1897 23.5694 34.4408 23.9974 34.4408C24.5024 34.4408 24.8639 34.1354 25.0946 33.7114V33.749C25.0946 34.1978 25.319 34.4412 25.6868 34.4412C26.0117 34.4412 26.2877 34.2525 26.5234 33.9458C26.7026 34.2525 27.0238 34.4412 27.4577 34.4412C28.4553 34.4412 29.1349 33.4499 29.1349 32.5021C29.1344 31.8347 28.729 31.3547 28.0368 31.3547ZM21.8212 32.6206C21.6402 33.3997 21.2538 33.8426 20.8172 33.8426C20.5241 33.8426 20.3621 33.6182 20.3621 33.2816C20.3621 32.6206 20.8421 31.9098 21.4841 31.9098C21.6773 31.9098 21.8271 31.9659 21.9578 32.0469L21.8212 32.6206ZM25.2937 32.2903C25.0941 33.207 24.639 33.8426 24.1404 33.8426C23.8662 33.8426 23.7038 33.6304 23.7038 33.2816C23.7038 32.6147 24.1653 31.9225 24.7824 31.9225C25.0195 31.9225 25.2 32.0035 25.3312 32.1093L25.2937 32.2903ZM27.5319 33.8426C27.1704 33.8426 27.0206 33.5807 27.0206 33.2504C27.0206 32.6455 27.4382 31.9537 27.9622 31.9537C28.3237 31.9537 28.4734 32.2157 28.4734 32.5459C28.4734 33.1567 28.0558 33.8426 27.5319 33.8426Z" fill="white"/>
<path d="M14.1899 31.3547C13.1923 31.3547 12.5127 32.346 12.5127 33.2875C12.5127 33.9607 12.9181 34.4408 13.6099 34.4408C14.6075 34.4408 15.2871 33.4495 15.2871 32.5016C15.2871 31.8347 14.8817 31.3547 14.1899 31.3547ZM13.685 33.8426C13.3235 33.8426 13.1737 33.5807 13.1737 33.2504C13.1737 32.6455 13.5913 31.9537 14.1153 31.9537C14.4768 31.9537 14.6265 32.2157 14.6265 32.5459C14.6261 33.1567 14.2085 33.8426 13.685 33.8426Z" fill="white"/>
</g>
<path d="M20.0001 21.3541H10.8953L24.5525 7.80273H29.1049L20.0001 21.3541Z" fill="url(#paint3_linear_1514_56857)"/>
<defs>
<linearGradient id="paint0_linear_1514_56857" x1="-2.03589" y1="25.0107" x2="42.6414" y2="32.8443" gradientUnits="userSpaceOnUse">
<stop stop-color="#9E3BFF"/>
<stop offset="1" stop-color="#6D55FF"/>
</linearGradient>
<linearGradient id="paint1_linear_1514_56857" x1="-2.03589" y1="26.8436" x2="42.0388" y2="26.8436" gradientUnits="userSpaceOnUse">
<stop stop-color="#9E3BFF"/>
<stop offset="1" stop-color="#492CFF"/>
</linearGradient>
<linearGradient id="paint2_linear_1514_56857" x1="-2.03589" y1="31.8109" x2="42.0388" y2="31.5526" gradientUnits="userSpaceOnUse">
<stop stop-color="white" stop-opacity="0"/>
<stop offset="0.500885" stop-color="#9F7BFF"/>
<stop offset="1" stop-color="white" stop-opacity="0"/>
</linearGradient>
<linearGradient id="paint3_linear_1514_56857" x1="20.0001" y1="7.80273" x2="20.0001" y2="21.3541" gradientUnits="userSpaceOnUse">
<stop stop-color="#7AEDCF"/>
<stop offset="0.201333" stop-color="#68CEFA"/>
<stop offset="0.403244" stop-color="#689CF8"/>
<stop offset="0.602076" stop-color="#AC57C0"/>
<stop offset="0.801867" stop-color="#E65659"/>
<stop offset="1" stop-color="#F2C241"/>
</linearGradient>
</defs>
</svg>
