<svg width="40" height="40" viewBox="0 0 40 40" fill="none" xmlns="http://www.w3.org/2000/svg">
<path fill-rule="evenodd" clip-rule="evenodd" d="M6.08265 26.4203C5.16693 24.46 4.65544 22.2728 4.65544 19.9663C4.65544 11.5342 11.491 4.69869 19.9231 4.69869C24.6182 4.69869 28.8182 6.81816 31.6188 10.1524L33.2898 8.75038C30.0889 4.93983 25.289 2.51758 19.9231 2.51758C10.2864 2.51758 2.47437 10.3296 2.47437 19.9663C2.47437 22.6023 3.0589 25.1018 4.10543 27.3422L6.08265 26.4203Z" fill="black"/>
<path fill-rule="evenodd" clip-rule="evenodd" d="M19.9231 30.3263C14.2014 30.3263 9.56294 25.6878 9.56294 19.9661C9.56294 14.2443 14.2014 9.60588 19.9231 9.60588C23.1092 9.60588 25.9586 11.0445 27.8591 13.307L29.5304 11.9046C27.2299 9.16582 23.7798 7.4248 19.9231 7.4248C12.9967 7.4248 7.38184 13.0397 7.38184 19.9661C7.38184 26.8925 12.9967 32.5073 19.9231 32.5073V30.3263Z" fill="black"/>
<path fill-rule="evenodd" clip-rule="evenodd" d="M23.6822 23.1211C22.782 24.1927 21.4321 24.8741 19.923 24.8741C17.2127 24.8741 15.0155 22.677 15.0155 19.9667C15.0155 17.2564 17.2127 15.0592 19.923 15.0592C21.4321 15.0592 22.782 15.7407 23.6822 16.8124L25.5617 15.2352C24.2114 13.6276 22.1868 12.6055 19.923 12.6055C15.8575 12.6055 12.5618 15.9012 12.5618 19.9667C12.5618 24.0321 15.8575 27.3279 19.923 27.3279C21.9976 27.3279 23.871 26.469 25.209 25.0881L23.6822 23.1211Z" fill="black"/>
</svg>
