<svg width="24" height="24" viewBox="0 0 24 24" fill="none" xmlns="http://www.w3.org/2000/svg">
<path d="M1.72567 17.426V17.6444C1.72567 17.6444 10.5743 14.4923 12.2945 15.3064L11.2569 15.5819C11.3477 15.5819 13.0293 15.6812 13.0293 15.6812C13.0687 15.9943 13.1847 16.2956 13.3689 16.5635C13.5531 16.8313 13.8009 17.0589 14.0945 17.2299C15.1073 17.833 15.1266 18.1606 15.1266 18.1606C15.1266 18.1606 14.6009 18.3542 14.6009 18.5999C15.0897 18.4737 15.5952 18.4078 16.1037 18.4038C16.5623 18.4186 17.0171 18.4844 17.4578 18.5999C17.4578 18.5999 17.4055 18.3517 16.6982 18.1606C15.9908 17.9695 15.3083 17.2944 14.9642 16.9196C14.7579 16.6801 14.6241 16.3963 14.5758 16.0962C14.5276 15.796 14.5666 15.4896 14.689 15.2071C14.9339 14.6413 15.7899 14.326 17.5266 13.512C19.5881 12.5515 20.0587 11.8317 20.3477 11.2783C20.6367 10.7248 21.0716 9.61538 21.311 9.09417C21.5101 8.60701 21.8526 8.17799 22.3018 7.85322C22.6073 7.64226 24 7.16821 24 7.16821C24 7.16821 22.9376 6.35166 22.5908 6.10595C22.1574 5.73577 21.6092 5.49338 21.0193 5.41102C20.2817 5.32415 19.533 5.76593 19.0266 6.06128C18.5202 6.35662 17.5404 7.22033 17.144 7.46852C16.7477 7.71671 15.7321 7.9649 14.1165 8.85591C12.5009 9.74692 6.08807 13.4375 6.08807 13.4375L7.73944 13.4524L0.32752 16.9196H1.06789L0 17.6642C0.591457 17.7863 1.21227 17.7012 1.7367 17.426H1.72567Z" fill="black"/>
</svg>
