<svg width="40" height="40" viewBox="0 0 40 40" fill="none" xmlns="http://www.w3.org/2000/svg">
<path d="M27.0852 13.8412C26.975 14.1307 22.3446 11.2249 18.1161 13.2073C15.0417 14.6487 13.7715 17.443 13.7715 19.8257C13.7715 21.7031 14.4243 23.1215 15.1378 24.0458C16.2983 25.5492 17.3779 26.1148 18.3103 26.6173C19.8121 27.4268 22.3663 27.4538 23.1418 27.4136C24.5858 27.3387 26.2824 26.9217 27.7129 26.2547C28.259 26.0001 29.1461 25.4478 29.923 24.83C31.2496 23.7751 32.4716 22.4481 32.4503 22.5508C32.4165 22.7136 32.4302 22.8424 31.7668 24.0052C29.8011 27.4503 26.5331 28.9532 26.5331 28.9532C21.9292 31.3858 17.8435 30.124 17.0493 29.8212C13.5633 28.4917 11.7451 25.9991 11.3203 25.2064C10.6275 23.9136 9.38559 19.1652 11.0497 15.391C12.2828 12.594 15.1419 11.2198 15.4575 11.0883C20.5514 8.96484 27.1853 13.5782 27.0852 13.8412Z" fill="url(#paint0_linear_1514_56953)"/>
<path d="M27.2308 13.6003C27.0238 13.7919 25.5368 12.0095 23.1493 10.7223C22.4667 10.3543 19.8626 9.03191 16.6821 9.09983C11.4096 9.21185 7.90567 13.0745 7.28086 13.7903C4.15794 17.3681 2.68761 22.8773 4.44411 27.1645C6.72694 32.7355 14.365 35.9398 13.7842 36.003L13.116 35.7896C12.3098 35.4721 2.41559 31.0221 2.06118 22.1547C1.86138 17.1581 3.47015 13.1116 4.44411 12.007C6.146 10.0769 7.51063 9.14778 8.66102 8.53404C10.9726 7.30173 15.32 6.24575 18.5464 6.73084C22.1666 7.27529 24.439 9.79909 25.5472 11.0299C26.5468 12.1399 27.3979 13.4455 27.2308 13.6003Z" fill="url(#paint1_linear_1514_56953)"/>
<path d="M27.2045 13.8366C27.449 13.7281 27.1226 10.4102 24.9634 7.88702C24.0926 6.86747 23.135 5.94037 21.9595 5.29158C17.0996 2.66241 11.1241 4.77667 9.83059 5.29158C8.50556 5.81877 5.6784 7.2594 3.30494 10.2152C0.629491 13.5474 0.233271 17.1223 0.0809499 18.6872C-0.569964 25.3691 2.91093 30.6165 3.15865 30.5375C3.30303 30.4914 1.72388 27.1526 2.06114 22.1549C2.18959 20.2524 2.45353 16.7677 4.87064 13.4229C6.33485 11.4503 8.02871 9.80827 10.2384 8.72418C11.517 8.09369 16.0921 6.06151 20.6737 7.67543C22.0696 8.1772 23.3548 8.94318 24.4586 9.93107C26.4531 11.7507 27.0045 13.9256 27.2045 13.8366Z" fill="url(#paint2_linear_1514_56953)"/>
<path d="M20.1655 32.5524C20.0508 32.7474 12.124 30.4896 9.14617 24.925C8.69801 24.0879 6.62832 19.6258 7.98619 16.152C8.55403 14.699 9.67203 13.0722 10.1236 12.567C10.8531 11.751 12.0905 11.0174 13.6619 10.3526C14.3679 10.0609 15.6578 9.7573 16.4155 9.65675C17.1666 9.56445 18.3203 9.58424 19.0736 9.65675C20.538 9.79762 22.5171 11.5044 22.4615 11.5044C22.4465 11.5044 20.8906 11.0065 19.2819 10.8962C17.9485 10.8047 16.5021 11.1138 15.9891 11.2948C14.8572 11.6942 13.3059 12.567 12.4088 13.6697C11.5118 14.7724 10.7461 16.331 10.583 18.4204C10.4635 19.952 10.6275 22.1861 11.2927 23.9278C11.6115 24.7627 12.1607 25.8252 13.2161 27.2245C15.4627 30.2028 20.2486 32.4129 20.1655 32.5524Z" fill="url(#paint3_linear_1514_56953)"/>
<path d="M15.8706 8.9581C17.2457 8.76027 18.4227 8.69202 19.7862 8.9581C21.351 9.2718 22.2164 9.59513 23.2822 10.1391C25.1024 11.0683 27.4063 13.4509 27.2308 13.8085C26.9183 14.4459 22.0676 9.32394 15.4038 11.0866C13.5193 11.7287 12.357 12.3281 11.1535 13.2438C9.10359 14.8033 8.08782 16.8547 7.76684 17.6935C7.21581 19.1338 7.06611 19.9443 6.99944 21.477C6.99944 23.5406 7.3864 24.7377 7.85436 26.0498C8.52011 27.9173 9.76177 30.0523 9.56231 29.914C7.28122 28.3323 5.85574 23.4523 5.69825 22.4409C5.54077 21.4295 4.86821 17.0485 7.76684 13.4006C10.4094 10.0751 14.8455 9.10712 15.8706 8.9581Z" fill="url(#paint4_linear_1514_56953)"/>
<path d="M22.4087 17.4364L22.2883 17.7008C22.0096 17.4679 21.6486 17.3358 21.2432 17.3358C20.1981 17.3358 19.4507 18.0847 19.4507 19.1356C19.4507 20.1929 20.1981 20.9481 21.2432 20.9481C21.6422 20.9481 21.9969 20.8222 22.2757 20.5957L22.377 20.8348H23.2891V17.4364H22.4087ZM21.4016 19.916C20.9582 19.916 20.6351 19.5825 20.6351 19.1356C20.6351 18.6951 20.9582 18.3678 21.4016 18.3678C21.8449 18.3678 22.1679 18.6951 22.1679 19.1356C22.1679 19.5825 21.8449 19.916 21.4016 19.916Z" fill="white"/>
<path d="M24.4624 20.8348H25.6405V16.2092H24.4624V20.8348Z" fill="white"/>
<path d="M28.8311 19.8152C28.5841 19.8152 28.4321 19.6642 28.4321 19.4251V18.3426H29.2619V17.4364H28.4068V16.4484H28.1597L26.6269 18.0657V18.3426H27.254V19.6202C27.254 20.3754 27.7164 20.8347 28.4701 20.8347H29.2808V19.8152H28.8311Z" fill="white"/>
<path d="M33.3074 17.4364L33.1871 17.7008C32.9084 17.4679 32.5474 17.3358 32.142 17.3358C31.0969 17.3358 30.3495 18.0847 30.3495 19.1356C30.3495 20.1929 31.0969 20.9481 32.142 20.9481C32.5411 20.9481 32.8958 20.8222 33.1744 20.5957L33.2758 20.8348H34.1879V17.4364H33.3074ZM32.3003 19.916C31.857 19.916 31.534 19.5825 31.534 19.1356C31.534 18.6951 31.857 18.3678 32.3003 18.3678C32.7437 18.3678 33.0668 18.6951 33.0668 19.1356C33.0668 19.5825 32.7437 19.916 32.3003 19.916Z" fill="white"/>
<path d="M35.3676 17.0148H36.533V16.0205H35.3676V17.0148ZM35.3612 20.8348H36.5394V17.4365H35.3612V20.8348Z" fill="white"/>
<path d="M39.6217 17.4239C39.2163 17.4239 38.9249 17.5372 38.6842 17.8141L38.5005 17.4365H37.7088V20.8348H38.8869V19.1105C38.8869 18.6762 39.0643 18.4938 39.476 18.4938H39.9384V17.4239H39.6217Z" fill="white"/>
<defs>
<linearGradient id="paint0_linear_1514_56953" x1="24.1846" y1="10.6387" x2="24.1846" y2="30.5019" gradientUnits="userSpaceOnUse">
<stop stop-color="#FAB961"/>
<stop offset="1"/>
</linearGradient>
<linearGradient id="paint1_linear_1514_56953" x1="14.648" y1="6.61033" x2="14.648" y2="36.0522" gradientUnits="userSpaceOnUse">
<stop stop-color="#FAB961"/>
<stop offset="1"/>
</linearGradient>
<linearGradient id="paint2_linear_1514_56953" x1="13.6414" y1="4.16505" x2="13.6414" y2="30.5389" gradientUnits="userSpaceOnUse">
<stop/>
<stop offset="0.414296" stop-color="#FAB961"/>
</linearGradient>
<linearGradient id="paint3_linear_1514_56953" x1="13.9594" y1="10.5623" x2="13.9594" y2="32.0095" gradientUnits="userSpaceOnUse">
<stop/>
<stop offset="1" stop-color="#FAB961"/>
</linearGradient>
<linearGradient id="paint4_linear_1514_56953" x1="16.3792" y1="9.29956" x2="16.3792" y2="29.9203" gradientUnits="userSpaceOnUse">
<stop/>
<stop offset="1" stop-color="#FAB961"/>
</linearGradient>
</defs>
</svg>
