<svg width="40" height="40" viewBox="0 0 40 40" fill="none" xmlns="http://www.w3.org/2000/svg">
<path d="M20 38C29.9411 38 38 29.9411 38 20C38 10.0589 29.9411 2 20 2C10.0589 2 2 10.0589 2 20C2 29.9411 10.0589 38 20 38Z" fill="url(#paint0_linear_33381_53077)"/>
<path d="M27.7525 25.0508H23.4989L22.6997 23.012H17.3008L16.5017 25.0508H12.248L17.3385 12.9297H22.6557L27.7525 25.0508ZM20.0065 16.08L18.597 19.6973H21.4098L20.0065 16.08Z" fill="white"/>
<path d="M22.8352 7.40141C22.8352 8.96713 21.5659 10.2364 20.0002 10.2364C18.4345 10.2364 17.1652 8.96713 17.1652 7.40141C17.1652 5.83568 18.4345 4.56641 20.0002 4.56641C21.5659 4.56641 22.8352 5.83568 22.8352 7.40141Z" fill="white"/>
<path d="M22.8352 32.6014C22.8352 34.1671 21.5659 35.4364 20.0002 35.4364C18.4345 35.4364 17.1652 34.1671 17.1652 32.6014C17.1652 31.0357 18.4345 29.7664 20.0002 29.7664C21.5659 29.7664 22.8352 31.0357 22.8352 32.6014Z" fill="white"/>
<path d="M32.3294 16.1574C30.9735 16.9403 29.2396 16.4757 28.4567 15.1197C27.6739 13.7638 28.1385 12.0299 29.4944 11.247C30.8504 10.4642 32.5842 10.9288 33.3671 12.2847C34.15 13.6407 33.6854 15.3745 32.3294 16.1574Z" fill="white"/>
<path d="M10.5056 28.7574C9.14962 29.5403 7.41576 29.0757 6.63289 27.7197C5.85003 26.3638 6.31462 24.6299 7.67058 23.847C9.02654 23.0642 10.7604 23.5288 11.5433 24.8847C12.3261 26.2407 11.8615 27.9745 10.5056 28.7574Z" fill="white"/>
<path d="M7.67057 16.1574C9.02653 16.9403 10.7604 16.4757 11.5432 15.1197C12.3261 13.7638 11.8615 12.0299 10.5056 11.247C9.14961 10.4642 7.41575 10.9288 6.63289 12.2847C5.85002 13.6407 6.31461 15.3745 7.67057 16.1574Z" fill="white"/>
<path d="M29.4944 28.7574C30.8504 29.5403 32.5842 29.0757 33.3671 27.7197C34.15 26.3638 33.6854 24.6299 32.3294 23.847C30.9734 23.0642 29.2396 23.5288 28.4567 24.8847C27.6739 26.2407 28.1385 27.9745 29.4944 28.7574Z" fill="white"/>
<defs>
<linearGradient id="paint0_linear_33381_53077" x1="38" y1="20" x2="2" y2="20" gradientUnits="userSpaceOnUse">
<stop stop-color="#FFAE5E"/>
<stop offset="1" stop-color="#F68728"/>
</linearGradient>
</defs>
</svg>
