<svg width="24" height="24" viewBox="0 0 24 24" fill="none" xmlns="http://www.w3.org/2000/svg">
<path d="M22.5 12C22.5 6.20101 17.799 1.5 12 1.5C6.20101 1.5 1.5 6.20101 1.5 12C1.5 17.799 6.20101 22.5 12 22.5C17.799 22.5 22.5 17.799 22.5 12Z" fill="#11091B"/>
<path d="M12.0064 16.4343C14.4361 16.4343 16.4058 14.4566 16.4058 12.0171C16.4058 9.5775 14.4361 7.59985 12.0064 7.59985C9.57662 7.59985 7.60693 9.5775 7.60693 12.0171C7.60693 14.4566 9.57662 16.4343 12.0064 16.4343Z" fill="#6822FB"/>
<path fill-rule="evenodd" clip-rule="evenodd" d="M19.7445 14.4628C19.4923 14.4384 19.2378 14.4728 19.0012 14.5632C18.7646 14.6536 18.5523 14.7976 18.3809 14.9838L18.3806 14.9841L13.5636 20.1569C14.9987 19.878 16.336 19.2836 17.4266 18.3159C18.5845 17.2885 19.4303 15.9578 19.8679 14.475L19.7446 14.4628H19.7445ZM18.8948 14.2861C19.1745 14.1793 19.4753 14.1387 19.7734 14.1675L19.7737 14.1676L20.2492 14.2145L20.2031 14.3837C19.7662 15.9887 18.8702 17.4321 17.6244 18.5376C16.3748 19.6463 14.821 20.279 13.1771 20.5242L12.7571 20.5869L18.1617 14.7831L18.162 14.7828C18.3645 14.5629 18.6153 14.3929 18.8948 14.2861ZM11.0608 3.76685L5.94391 9.33247C5.71117 9.58542 5.41494 9.77183 5.08582 9.87244C4.7567 9.97305 4.40662 9.98423 4.07172 9.90481L4.07118 9.90469L3.85864 9.85577L3.90537 9.70351C4.36814 8.19748 5.24344 6.85027 6.43266 5.81369C7.62187 4.7771 9.07773 4.09235 10.6362 3.83657L11.0608 3.76685ZM4.2389 9.63633C4.5091 9.68319 4.78678 9.66155 5.0464 9.57342C5.30603 9.48528 5.53928 9.33347 5.72471 9.13194L10.2465 4.21355C8.85928 4.51948 7.57579 5.18038 6.52241 6.13122C5.46903 7.08206 4.682 8.29006 4.2389 9.63633ZM20.1934 11.9848C20.1664 10.823 19.891 9.68034 19.3854 8.6333L19.6535 8.50458C20.1774 9.58971 20.4629 10.7739 20.4909 11.9779L20.1934 11.9848ZM17.3411 5.98262C16.5937 5.34103 15.7359 4.83995 14.8092 4.50372L14.9109 4.22487C15.8714 4.57337 16.7606 5.09273 17.5352 5.75773L17.3411 5.98262Z" fill="#C5FBFF"/>
<path fill-rule="evenodd" clip-rule="evenodd" d="M5.6679 6.64954C6.96865 5.12104 8.77157 4.10311 10.7551 3.77734L10.8034 4.07012C8.94985 4.37454 7.25775 5.3058 6.01131 6.7075C4.76488 8.1092 4.04005 9.89595 3.95854 11.7677L4.6357 11.0296C4.83822 10.8095 5.08919 10.6394 5.36885 10.5326C5.64852 10.4258 5.94923 10.3851 6.24731 10.4139L7.66357 10.5535H7.66381C8.05351 10.5913 8.44669 10.5383 8.81237 10.3987C9.17805 10.2592 9.50624 10.0368 9.77107 9.74923M9.77113 9.74911L14.9365 4.13173L15.0298 4.16558C15.9903 4.51409 16.8795 5.03347 17.6542 5.6985L17.7705 5.79841L12.8839 11.1129L12.8838 11.113C12.651 11.366 12.3547 11.5524 12.0255 11.653C11.6963 11.7536 11.3461 11.7647 11.0111 11.6852L11.0106 11.6851L9.80163 11.3885L9.80115 11.3883C9.51778 11.3212 9.22157 11.3307 8.94309 11.4158C8.66461 11.5009 8.41396 11.6586 8.217 11.8726L8.21665 11.873L4.68475 15.6821C5.14205 16.6238 5.83573 17.4451 6.6152 18.1473L11.4641 12.8782C11.6666 12.6582 11.9176 12.4881 12.1972 12.3812C12.4769 12.2744 12.7776 12.2338 13.0757 12.2626L13.0759 12.2626L14.4935 12.4021C14.8832 12.4399 15.2765 12.3869 15.6422 12.2473C16.0079 12.1077 16.3361 11.8854 16.601 11.5978L19.68 8.24803L19.7754 8.44535C20.2993 9.53046 20.5848 10.7147 20.6127 11.9187L20.6141 11.9779L19.717 12.9643L19.7167 12.9646C19.4839 13.2176 19.1876 13.404 18.8584 13.5046C18.5291 13.6052 18.179 13.6163 17.844 13.5368L16.633 13.2475C16.3496 13.1802 16.0533 13.1896 15.7747 13.2747C15.4962 13.3599 15.2454 13.5176 15.0484 13.7317L9.44308 19.8276C10.31 20.1297 11.222 20.2835 12.1403 20.2826H12.1406C12.5287 20.2831 12.9162 20.2553 13.3002 20.1996L13.3006 20.1995C14.8846 19.9733 16.3673 19.2888 17.5653 18.2309C18.7633 17.1729 19.6239 15.7878 20.0407 14.247L20.328 14.3243C19.8961 15.921 19.0042 17.3565 17.7627 18.4529C16.5212 19.5494 14.9847 20.2587 13.3431 20.4932C12.9448 20.551 12.5429 20.5798 12.1405 20.5793C11.1118 20.5803 10.0917 20.394 9.13012 20.0296L8.92507 19.9519L14.8292 13.5311C15.062 13.278 15.3583 13.0916 15.6875 12.991C16.0168 12.8904 16.367 12.8793 16.7019 12.9588L17.9129 13.2481C18.1963 13.3154 18.4925 13.306 18.771 13.2209C19.0495 13.1359 19.3002 12.9782 19.4972 12.7643L19.4975 12.764L20.3137 11.8666C20.2812 10.799 20.0388 9.74825 19.6004 8.77383L16.8202 11.7984L16.8202 11.7985C16.5241 12.1199 16.1573 12.3685 15.7486 12.5245C15.3398 12.6805 14.9003 12.7397 14.4647 12.6974L13.047 12.558C12.7947 12.5335 12.5403 12.5679 12.3036 12.6583C12.067 12.7487 11.8546 12.8926 11.6833 13.0789L6.63672 18.5627L6.52733 18.4667C5.65898 17.7042 4.8716 16.7893 4.37233 15.7176L4.3303 15.6274L7.99781 11.672C8.23064 11.419 8.52696 11.2326 8.85618 11.132C9.18539 11.0314 9.53556 11.0203 9.87053 11.0998L9.87107 11.0999L11.08 11.3965L11.0805 11.3966C11.3639 11.4639 11.6601 11.4544 11.9385 11.3693C12.217 11.2842 12.4677 11.1264 12.6646 10.9124L12.6646 10.9123L17.3427 5.82456C16.6487 5.2511 15.8642 4.79636 15.021 4.47882L9.99033 9.94975L9.99027 9.94981C9.69424 10.2713 9.3274 10.5198 8.91864 10.6758C8.50989 10.8318 8.0704 10.891 7.63479 10.8488L7.63456 10.8487L6.21854 10.7093L6.21842 10.7093C5.96621 10.6849 5.71178 10.7193 5.47515 10.8097C5.23853 10.9001 5.02619 11.044 4.85484 11.2302L3.65332 12.54V12.1225C3.65315 10.1177 4.36713 8.17804 5.6679 6.64954" fill="white"/>
<path fill-rule="evenodd" clip-rule="evenodd" d="M19.7442 14.4628C19.492 14.4384 19.2376 14.4728 19.001 14.5632C18.7643 14.6536 18.552 14.7976 18.3807 14.9838L18.3804 14.9841L13.5633 20.1569C14.9984 19.878 16.3357 19.2836 17.4263 18.3159C18.5842 17.2885 19.43 15.9578 19.8677 14.475L19.7444 14.4628H19.7442ZM18.8946 14.2861C19.1743 14.1793 19.475 14.1387 19.7731 14.1675L19.7734 14.1676L20.2489 14.2145L20.2028 14.3837C19.766 15.9887 18.8699 17.4321 17.6241 18.5376C16.3745 19.6463 14.8207 20.279 13.1769 20.5242L12.7569 20.5869L18.1614 14.7831L18.1617 14.7828C18.3642 14.5629 18.6151 14.3929 18.8946 14.2861ZM11.0606 3.76685L5.94366 9.33247C5.71092 9.58542 5.4147 9.77183 5.08558 9.87244C4.75646 9.97305 4.40637 9.98423 4.07147 9.90481L4.07094 9.90469L3.8584 9.85577L3.90513 9.70351C4.36789 8.19748 5.2432 6.85027 6.43241 5.81369C7.62163 4.7771 9.07749 4.09235 10.6359 3.83657L11.0606 3.76685ZM4.23865 9.63633C4.50885 9.68319 4.78653 9.66155 5.04616 9.57342C5.30579 9.48528 5.53904 9.33347 5.72447 9.13194L10.2463 4.21355C8.85903 4.51948 7.57555 5.18038 6.52217 6.13122C5.46879 7.08206 4.68176 8.29006 4.23865 9.63633ZM20.1931 11.9848C20.1662 10.823 19.8907 9.68034 19.3851 8.6333L19.6533 8.50458C20.1772 9.58971 20.4626 10.7739 20.4906 11.9779L20.1931 11.9848ZM17.3408 5.98262C16.5935 5.34103 15.7356 4.83995 14.8089 4.50372L14.9106 4.22487C15.8711 4.57337 16.7603 5.09273 17.5349 5.75773L17.3408 5.98262Z" fill="white"/>
<path fill-rule="evenodd" clip-rule="evenodd" d="M5.549 6.70862C6.84976 5.18013 8.65268 4.1622 10.6362 3.83643L10.6846 4.12921C8.83096 4.43362 7.13885 5.36488 5.89242 6.76658C4.64599 8.16828 3.92115 9.95504 3.83965 11.8268L4.5168 11.0886C4.71932 10.8686 4.97029 10.6985 5.24996 10.5917C5.52962 10.4848 5.83034 10.4442 6.12842 10.473L7.54467 10.6125H7.54491C7.93461 10.6503 8.32779 10.5974 8.69347 10.4578C9.05915 10.3183 9.38734 10.0959 9.65217 9.80831M9.65223 9.80819L14.8176 4.19081L14.9109 4.22467C15.8714 4.57317 16.7606 5.09255 17.5353 5.75758L17.6516 5.85749L12.765 11.172L12.7649 11.1721C12.5321 11.4251 12.2358 11.6115 11.9066 11.7121C11.5774 11.8127 11.2272 11.8238 10.8922 11.7443L10.8917 11.7442L9.68273 11.4475L9.68226 11.4474C9.39888 11.3803 9.10267 11.3897 8.82419 11.4749C8.54572 11.56 8.29507 11.7177 8.09811 11.9317L8.09775 11.9321L4.56585 15.7412C5.02315 16.6829 5.71683 17.5042 6.4963 18.2063L11.3452 12.9373C11.5477 12.7173 11.7987 12.5472 12.0783 12.4403C12.358 12.3335 12.6587 12.2929 12.9568 12.3217L12.957 12.3217L14.3746 12.4612C14.7643 12.4989 15.1576 12.4459 15.5233 12.3064C15.889 12.1668 16.2172 11.9444 16.4822 11.6568L19.5612 8.30711L19.6565 8.50443C20.1804 9.58954 20.4659 10.7737 20.4938 11.9778L20.4952 12.037L19.5981 13.0234L19.5978 13.0237C19.365 13.2766 19.0687 13.463 18.7395 13.5636C18.4102 13.6642 18.0601 13.6754 17.7251 13.5959L16.5141 13.3066C16.2307 13.2393 15.9344 13.2487 15.6558 13.3338C15.3773 13.4189 15.1265 13.5767 14.9295 13.7907L9.32418 19.8867C10.1912 20.1887 11.1031 20.3426 12.0214 20.3417H12.0217C12.4098 20.3421 12.7973 20.3144 13.1813 20.2587L13.1817 20.2586C14.7657 20.0324 16.2484 19.3479 17.4464 18.2899C18.6444 17.232 19.505 15.8469 19.9218 14.3061L20.2091 14.3834C19.7772 15.9801 18.8853 17.4155 17.6438 18.512C16.4023 19.6085 14.8658 20.3178 13.2242 20.5523C12.826 20.6101 12.424 20.6389 12.0216 20.6384C10.9929 20.6394 9.97275 20.4531 9.01123 20.0887L8.80618 20.011L14.7103 13.5902C14.9431 13.3371 15.2394 13.1507 15.5686 13.0501C15.8979 12.9495 16.2481 12.9384 16.583 13.0179L17.794 13.3072C18.0774 13.3745 18.3736 13.3651 18.6521 13.28C18.9306 13.1949 19.1813 13.0373 19.3783 12.8233L19.3786 12.823L20.1948 11.9257C20.1623 10.8581 19.9199 9.80733 19.4815 8.83291L16.7014 11.8575L16.7013 11.8575C16.4053 12.179 16.0384 12.4275 15.6297 12.5835C15.2209 12.7395 14.7814 12.7988 14.3458 12.7565L12.9281 12.6171C12.6758 12.5926 12.4214 12.627 12.1847 12.7173C11.9481 12.8077 11.7357 12.9517 11.5644 13.1379L6.51782 18.6218L6.40843 18.5257C5.54008 17.7633 4.75271 16.8484 4.25343 15.7766L4.2114 15.6865L7.87891 11.7311C8.11174 11.4781 8.40806 11.2917 8.73728 11.1911C9.0665 11.0905 9.41667 11.0794 9.75164 11.1588L9.75217 11.159L10.9611 11.4556L10.9616 11.4557C11.245 11.5229 11.5412 11.5135 11.8196 11.4284C12.0981 11.3432 12.3488 11.1855 12.5457 10.9715L12.5457 10.9714L17.2238 5.88364C16.5298 5.31018 15.7453 4.85544 14.9021 4.5379L9.87143 10.0088L9.87137 10.0089C9.57534 10.3304 9.2085 10.5789 8.79975 10.7349C8.391 10.8909 7.9515 10.9501 7.5159 10.9079L7.51566 10.9078L6.09964 10.7684L6.09952 10.7684C5.84731 10.744 5.59288 10.7784 5.35626 10.8688C5.11964 10.9592 4.90729 11.1031 4.73594 11.2893L3.53442 12.5991V12.1816C3.53426 10.1768 4.24824 8.23712 5.549 6.70862" fill="white"/>
</svg>
