<svg width="40" height="40" viewBox="0 0 40 40" fill="none" xmlns="http://www.w3.org/2000/svg">
<path d="M18.6671 2H8.62673C8.2806 2 8 2.27521 8 2.6147V12.4625C8 12.8019 8.2806 13.0771 8.62673 13.0771H18.6671C19.0133 13.0771 19.2939 12.8019 19.2939 12.4625V2.6147C19.2939 2.27521 19.0133 2 18.6671 2Z" fill="#FF6400"/>
<path d="M8 27.5376V37.3853C8 37.7248 8.28059 38 8.62673 38H18.6671C19.0133 38 19.2939 37.7248 19.2939 37.3853V27.5376C19.2939 27.198 19.0133 26.9228 18.6671 26.9228H8.62673C8.28059 26.9228 8 27.198 8 27.5376Z" fill="#FF6400"/>
<path d="M8 15.0761V24.9238C8 25.2633 8.2806 25.5386 8.62673 25.5386H18.6671C19.0133 25.5386 19.2939 25.2633 19.2939 24.9238V15.0761C19.2939 14.7366 19.0133 14.4614 18.6671 14.4614H8.62673C8.2806 14.4614 8 14.7366 8 15.0761Z" fill="#FF6400"/>
<path d="M20.7061 27.5376V37.3853C20.7061 37.7248 20.9867 38 21.3328 38H31.3733C31.7194 38 32 37.7248 32 37.3853V27.5376C32 27.198 31.7194 26.9228 31.3733 26.9228H21.3328C20.9867 26.9228 20.7061 27.198 20.7061 27.5376Z" fill="white"/>
<path d="M20.7061 15.0761V24.9238C20.7061 25.2633 20.9867 25.5386 21.3328 25.5386H31.3733C31.7194 25.5386 32 25.2633 32 24.9238V15.0761C32 14.7366 31.7194 14.4614 31.3733 14.4614H21.3328C20.9867 14.4614 20.7061 14.7366 20.7061 15.0761Z" fill="white"/>
</svg>
