<svg width="40" height="40" viewBox="0 0 40 40" fill="none" xmlns="http://www.w3.org/2000/svg">
<path d="M6.85107 15.6377C6.85107 8.06166 12.7381 1.92004 20.0002 1.92004C27.2622 1.92004 33.1493 8.06166 33.1493 15.6377V24.3624C33.1493 28.4504 31.4352 32.1208 28.7158 34.6339V15.6377C28.7158 10.616 24.8137 6.54516 20.0002 6.54516C15.1866 6.54516 11.2845 10.616 11.2845 15.6377V34.6339C8.56518 32.1208 6.85107 28.4504 6.85107 24.3624V15.6377Z" fill="#F1305A"/>
<path d="M11.2845 34.6339C13.6047 36.7782 16.6567 38.08 20.0002 38.08C23.3436 38.08 26.3956 36.7782 28.7158 34.6339H11.2845Z" fill="#F1305A"/>
<path d="M25.4412 15.6377C22.4362 15.6377 20.0002 13.0964 20.0002 9.96144C20.0002 13.0964 17.5641 15.6377 14.5592 15.6377C17.5641 15.6377 20.0002 18.1791 20.0002 21.314C20.0002 18.1791 22.4362 15.6377 25.4412 15.6377Z" fill="#F1305A"/>
</svg>
