<svg width="40" height="40" viewBox="0 0 40 40" fill="none" xmlns="http://www.w3.org/2000/svg">
<path d="M20 38C29.9411 38 38 29.9411 38 20C38 10.0589 29.9411 2 20 2C10.0589 2 2 10.0589 2 20C2 29.9411 10.0589 38 20 38Z" fill="#321D47"/>
<path d="M27.7525 25.0489H23.4989L22.6997 23.0101H17.3008L16.5017 25.0489H12.248L17.3385 12.9279H22.6557L27.7525 25.0489ZM20.0065 16.0781L18.597 19.6954H21.4098L20.0065 16.0781Z" fill="white"/>
<path d="M22.835 7.4008C22.835 8.96652 21.5658 10.2358 20 10.2358C18.4343 10.2358 17.165 8.96652 17.165 7.4008C17.165 5.83507 18.4343 4.5658 20 4.5658C21.5658 4.5658 22.835 5.83507 22.835 7.4008Z" fill="#E40B7B"/>
<path d="M22.835 32.6008C22.835 34.1665 21.5658 35.4358 20 35.4358C18.4343 35.4358 17.165 34.1665 17.165 32.6008C17.165 31.0351 18.4343 29.7658 20 29.7658C21.5658 29.7658 22.835 31.0351 22.835 32.6008Z" fill="#E40B7B"/>
<path d="M32.3293 16.1568C30.9733 16.9397 29.2394 16.4751 28.4566 15.1191C27.6737 13.7632 28.1383 12.0293 29.4943 11.2464C30.8502 10.4636 32.5841 10.9282 33.3669 12.2841C34.1498 13.6401 33.6852 15.3739 32.3293 16.1568Z" fill="#E40B7B"/>
<path d="M10.5054 28.7568C9.14946 29.5397 7.4156 29.0751 6.63274 27.7191C5.84988 26.3632 6.31446 24.6293 7.67042 23.8464C9.02638 23.0636 10.7602 23.5282 11.5431 24.8841C12.326 26.2401 11.8614 27.9739 10.5054 28.7568Z" fill="#E40B7B"/>
<path d="M7.67042 16.1568C9.02637 16.9396 10.7602 16.4751 11.5431 15.1191C12.326 13.7631 11.8614 12.0293 10.5054 11.2464C9.14946 10.4636 7.4156 10.9281 6.63273 12.2841C5.84987 13.6401 6.31446 15.3739 7.67042 16.1568Z" fill="#E40B7B"/>
<path d="M29.4943 28.7568C30.8502 29.5396 32.5841 29.0751 33.3669 27.7191C34.1498 26.3631 33.6852 24.6293 32.3293 23.8464C30.9733 23.0636 29.2394 23.5281 28.4566 24.8841C27.6737 26.2401 28.1383 27.9739 29.4943 28.7568Z" fill="#E40B7B"/>
</svg>
