<svg width="24" height="24" viewBox="0 0 24 24" fill="none" xmlns="http://www.w3.org/2000/svg">
<path d="M12 22.5C17.799 22.5 22.5 17.799 22.5 12C22.5 6.20101 17.799 1.5 12 1.5C6.20101 1.5 1.5 6.20101 1.5 12C1.5 17.799 6.20101 22.5 12 22.5Z" fill="#F1305A"/>
<path d="M5.66943 9.89981C5.66943 6.25224 8.50382 3.29529 12.0002 3.29529C15.4966 3.29529 18.331 6.25224 18.331 9.89981V14.1004C18.331 16.0686 17.5057 17.8357 16.1965 19.0457V9.89981C16.1965 7.48207 14.3177 5.5221 12.0002 5.5221C9.68268 5.5221 7.80395 7.48207 7.80395 9.89981V19.0457C6.49471 17.8357 5.66943 16.0686 5.66943 14.1004V9.89981Z" fill="white"/>
<path d="M7.80395 19.0457C8.92104 20.0781 10.3905 20.7049 12.0002 20.7049C13.61 20.7049 15.0794 20.0781 16.1965 19.0457H7.80395Z" fill="white"/>
<path d="M14.6198 9.89981C13.1731 9.89981 12.0002 8.67625 12.0002 7.16691C12.0002 8.67625 10.8274 9.89981 9.38058 9.89981C10.8274 9.89981 12.0002 11.1234 12.0002 12.6327C12.0002 11.1234 13.1731 9.89981 14.6198 9.89981Z" fill="white"/>
</svg>
