<svg width="24" height="24" viewBox="0 0 24 24" fill="none" xmlns="http://www.w3.org/2000/svg">
<path d="M20.9964 13.4682C21.2435 13.2213 21.5617 12.9036 21.8775 12.5885C22.5821 11.8851 22.5825 10.7442 21.8779 10.0405L21.1315 9.29499C18.4592 11.9642 14.4601 12.5005 11.2542 10.9042C13.421 11.3044 15.6665 10.9927 17.6564 9.92414C18.9875 9.20918 19.2403 7.40603 18.1716 6.33866L13.7652 1.93754C12.7806 0.954088 11.1843 0.954088 10.2001 1.93754L5.45053 6.68139C8.57845 5.35408 12.3359 5.96944 14.8798 8.52786C10.9988 6.64633 6.19097 7.31389 2.96859 10.532C2.72141 10.7789 2.4029 11.0971 2.08701 11.4126C1.3828 12.1163 1.38317 13.2564 2.08701 13.9597L2.83305 14.7049C5.50542 12.0357 9.50444 11.4994 12.7104 13.0957C10.5436 12.6955 8.29801 13.0073 6.30821 14.0758C4.97707 14.7907 4.72428 16.5939 5.79293 17.6612L10.1993 22.0624C11.184 23.0458 12.7802 23.0458 13.7645 22.0624L18.514 17.3185C15.3861 18.6458 11.6287 18.0305 9.08441 15.472C12.9654 17.3536 17.7732 16.686 20.9956 13.4679L20.9964 13.4682Z" fill="#E53E76"/>
</svg>
