<svg width="40" height="40" viewBox="0 0 40 40" fill="none" xmlns="http://www.w3.org/2000/svg">
<path d="M20 38C29.9411 38 38 29.9411 38 20C38 10.0589 29.9411 2 20 2C10.0589 2 2 10.0589 2 20C2 29.9411 10.0589 38 20 38Z" fill="#1A1A1A"/>
<path d="M22.8352 7.40078C22.8352 8.96651 21.5659 10.2358 20.0002 10.2358C18.4345 10.2358 17.1652 8.96651 17.1652 7.40078C17.1652 5.83506 18.4345 4.56578 20.0002 4.56578C21.5659 4.56578 22.8352 5.83506 22.8352 7.40078Z" fill="white"/>
<path d="M22.8352 32.6008C22.8352 34.1665 21.5659 35.4358 20.0002 35.4358C18.4345 35.4358 17.1652 34.1665 17.1652 32.6008C17.1652 31.0351 18.4345 29.7658 20.0002 29.7658C21.5659 29.7658 22.8352 31.0351 22.8352 32.6008Z" fill="white"/>
<path d="M32.3294 16.1568C30.9734 16.9396 29.2396 16.4751 28.4567 15.1191C27.6739 13.7631 28.1385 12.0293 29.4944 11.2464C30.8504 10.4636 32.5842 10.9281 33.3671 12.2841C34.15 13.6401 33.6854 15.3739 32.3294 16.1568Z" fill="white"/>
<path d="M10.5056 28.7568C9.14961 29.5396 7.41575 29.0751 6.63289 27.7191C5.85002 26.3631 6.31461 24.6293 7.67057 23.8464C9.02653 23.0636 10.7604 23.5281 11.5432 24.8841C12.3261 26.2401 11.8615 27.9739 10.5056 28.7568Z" fill="white"/>
<path d="M7.67056 16.1568C9.02652 16.9396 10.7604 16.475 11.5432 15.1191C12.3261 13.7631 11.8615 12.0293 10.5056 11.2464C9.1496 10.4635 7.41574 10.9281 6.63288 12.2841C5.85001 13.64 6.3146 15.3739 7.67056 16.1568Z" fill="white"/>
<path d="M29.4944 28.7568C30.8504 29.5396 32.5842 29.075 33.3671 27.7191C34.1499 26.3631 33.6854 24.6293 32.3294 23.8464C30.9734 23.0635 29.2396 23.5281 28.4567 24.8841C27.6739 26.24 28.1384 27.9739 29.4944 28.7568Z" fill="white"/>
<path d="M27.1484 21.1196C27.0168 22.3385 26.6384 23.4207 26.0132 24.366C25.388 25.2989 24.5599 26.0266 23.5288 26.549C22.5088 27.059 21.3406 27.3139 20.0244 27.3139C18.5985 27.3139 17.3426 27.0092 16.2568 26.3997C15.1709 25.7902 14.3318 24.932 13.7395 23.8249C13.1472 22.7179 12.8511 21.443 12.8511 20.0001C12.8511 18.5572 13.1472 17.2823 13.7395 16.1753C14.3318 15.0682 15.1709 14.21 16.2568 13.6005C17.3426 12.991 18.5985 12.6863 20.0244 12.6863C21.3406 12.6863 22.5088 12.9475 23.5288 13.4699C24.5599 13.9799 25.388 14.7075 26.0132 15.6529C26.6384 16.5857 27.0168 17.6617 27.1484 18.8806H23.6111C23.5014 18.3085 23.2875 17.8172 22.9694 17.4067C22.6623 16.9962 22.2565 16.6853 21.7519 16.4738C21.2584 16.2499 20.6825 16.138 20.0244 16.138C19.2786 16.138 18.6314 16.2934 18.083 16.6044C17.5456 16.9029 17.1288 17.3445 16.8326 17.9291C16.5365 18.5137 16.3884 19.204 16.3884 20.0001C16.3884 20.7962 16.5365 21.4865 16.8326 22.0711C17.1288 22.6557 17.5456 23.1035 18.083 23.4145C18.6314 23.713 19.2786 23.8623 20.0244 23.8623C20.6825 23.8623 21.2584 23.7628 21.7519 23.5637C22.2565 23.3523 22.6623 23.0413 22.9694 22.6309C23.2875 22.2079 23.5014 21.7042 23.6111 21.1196H27.1484Z" fill="white"/>
</svg>
