<svg width="40" height="40" viewBox="0 0 40 40" fill="none" xmlns="http://www.w3.org/2000/svg">
<g clip-path="url(#clip0_18955_226123)">
<path d="M19.9999 37.9998C29.941 37.9998 37.9998 29.941 37.9998 19.9999C37.9998 10.0588 29.941 2 19.9999 2C10.0588 2 2 10.0588 2 19.9999C2 29.941 10.0588 37.9998 19.9999 37.9998Z" fill="#E6007A"/>
<path d="M19.9999 37.9998C29.941 37.9998 37.9998 29.941 37.9998 19.9999C37.9998 10.0588 29.941 2 19.9999 2C10.0588 2 2 10.0588 2 19.9999C2 29.941 10.0588 37.9998 19.9999 37.9998Z" fill="url(#paint0_linear_18955_226123)"/>
<path fill-rule="evenodd" clip-rule="evenodd" d="M2.0424 21.2655C2.05387 21.4305 2.06756 21.5949 2.08344 21.7586C2.10143 21.9441 2.12225 22.1287 2.14582 22.3125C2.3735 24.087 2.85957 25.7807 3.56511 27.3547C3.53077 27.167 3.49249 26.9823 3.45344 26.8026C3.37313 26.4215 3.25286 25.9717 3.12187 25.4818C2.85619 24.4883 2.54636 23.3296 2.43614 22.2435C2.6194 22.2015 2.80332 22.1624 2.98779 22.1262C6.55508 25.382 10.0765 28.6877 13.5519 32.0431C13.1023 33.4342 12.627 34.8173 12.1262 36.1913C12.2968 36.2743 12.4689 36.3548 12.6424 36.4326C13.1211 35.1252 13.577 33.8093 14.01 32.4859C14.6842 33.1384 15.3566 33.7928 16.0273 34.449C17.2291 35.6256 18.4254 36.8079 19.6162 37.9958C19.7436 37.9985 19.8714 37.9998 19.9994 37.9998C20.1482 37.9998 20.2966 37.998 20.4446 37.9944C18.3833 35.9359 16.305 33.894 14.2099 31.8691C14.9026 29.7127 15.5344 27.5368 16.104 25.3456C17.3557 28.8338 19.6256 31.8159 23.4141 33.0606C26.1449 33.9591 29.114 33.9009 31.9368 33.4725C32.1653 33.2699 32.3887 33.0615 32.6066 32.8477C31.3175 33.0541 30.025 33.1758 28.7453 33.2051C25.7484 33.2726 22.6072 32.6846 20.2442 30.7174C18.3973 29.1844 17.2092 27.0435 16.4695 24.773C16.5205 24.7941 16.5716 24.8149 16.6229 24.8354C19.1107 25.8287 21.6371 25.5296 23.7792 23.9C25.1271 22.8739 26.1081 21.6212 26.9014 20.2502C28.6501 20.262 30.3989 20.2397 32.1465 20.1833C31.5316 21.6797 30.9673 23.3095 31.7711 24.7197C32.1261 25.3354 32.6372 25.8559 33.1334 26.3612C33.2277 26.4572 33.3215 26.5528 33.4136 26.6483C34.134 27.3972 34.8545 28.1386 35.6022 28.8584C35.4694 29.1222 35.335 29.3851 35.199 29.6471C35.3544 29.4028 35.5041 29.1544 35.6479 28.9023C35.7479 28.7269 35.8451 28.5496 35.9393 28.3705C35.9939 28.2667 36.0476 28.1622 36.1003 28.0572C36.319 27.621 36.5206 27.1746 36.7041 26.719C36.8186 26.4346 36.926 26.1467 37.0262 25.8554C36.9201 26.0933 36.8128 26.3307 36.7041 26.5674C36.709 24.3373 36.8794 22.1132 37.2647 19.9203C37.5098 19.903 37.7548 19.885 37.9998 19.8663C37.9984 19.6768 37.9941 19.488 37.987 19.2999C37.7816 19.3154 37.5763 19.3304 37.3709 19.345C37.4979 18.6892 37.6445 18.0365 37.8122 17.3874C37.746 16.932 37.6628 16.4822 37.5632 16.0385C37.2326 17.1395 36.963 18.2571 36.7489 19.3876C35.505 19.4698 34.2598 19.5346 33.0141 19.582C34.0993 16.5402 35.0728 13.422 35.1026 10.2011C34.9132 9.90975 34.7157 9.62428 34.5102 9.34494C34.5397 9.93401 34.5354 10.5229 34.4991 11.1043C34.3358 13.6693 33.6347 16.1667 32.7892 18.5773C32.6751 18.9056 32.5347 19.2497 32.3871 19.6044C30.665 19.6619 28.9418 19.6862 27.2188 19.6774C27.9024 18.3914 28.4488 17.0185 28.9964 15.6423C29.8112 13.5948 30.6289 11.5402 31.9055 9.75437C32.0348 9.57366 32.1686 9.39959 32.3067 9.23166C32.9756 9.18349 33.6445 9.13359 34.3132 9.08207C34.1725 8.89795 34.0284 8.71663 33.881 8.5382C33.5401 8.56416 33.1993 8.58969 32.8584 8.61476C33.0517 8.4155 33.2516 8.22559 33.4573 8.04397C33.3388 7.91071 33.2184 7.77922 33.0961 7.64955C33.0673 7.67601 33.0387 7.70263 33.0102 7.72942C32.6958 8.02512 32.4027 8.33904 32.1284 8.66774C28.2957 8.94224 24.4566 9.15865 20.6151 9.29913C20.5989 8.70071 20.5223 8.11721 20.3691 7.5655C20.186 6.91293 19.8671 6.39079 19.454 5.98796C19.5732 4.66061 19.6704 3.33106 19.7456 2C19.5495 2.00271 19.3542 2.00855 19.1596 2.01749C19.0926 3.19793 19.0081 4.37722 18.9061 5.55489C18.5038 5.29852 18.0478 5.12187 17.5622 5.01849C17.582 4.96745 17.6019 4.91648 17.6219 4.86558C18.0036 3.89841 18.435 2.95427 18.9089 2.03073C18.6847 2.04413 18.4616 2.06163 18.2396 2.08317C17.7796 3.01326 17.3635 3.96406 16.9925 4.93159C16.6365 4.8976 16.2703 4.89885 15.9024 4.93307C13.8349 5.12766 11.8624 6.01755 9.9621 6.87484C9.77747 6.95814 9.59352 7.04113 9.41023 7.12314C9.26838 6.66694 9.13128 6.2091 8.99843 5.74985C8.82967 5.88033 8.6633 6.01374 8.49938 6.15C8.61874 6.5554 8.74164 6.95974 8.86836 7.36295C7.9238 7.77508 6.98256 8.19719 6.04463 8.62738C5.83431 8.88517 5.63098 9.14889 5.43495 9.41826C5.37809 9.49639 5.32184 9.57501 5.26622 9.65408C5.19028 9.76203 5.1155 9.87085 5.0419 9.98052C6.62072 10.0209 8.20016 10.0443 9.77977 10.0521C10.2155 11.245 10.6912 12.4258 11.2148 13.5921C11.7816 14.865 12.406 16.1088 13.0976 17.3142C13.4596 17.952 13.8842 18.6298 14.5242 18.9833C12.2035 18.731 9.89028 18.4227 7.57011 18.1134C7.28345 18.0752 6.99668 18.0369 6.70978 17.9988C5.29774 17.8156 3.74161 17.8252 2.69459 18.9534C2.3467 19.3242 2.12748 19.7624 2 20.2311C2.00087 20.3 2.00213 20.3688 2.00377 20.4374C2.01041 20.7151 2.02333 20.9911 2.0424 21.2655ZM2.39562 21.5866C2.39618 21.6189 2.39697 21.6513 2.398 21.6838C2.42587 21.6774 2.45374 21.6711 2.48163 21.6649C2.45296 21.6388 2.42429 21.6127 2.39562 21.5866ZM3.19282 21.5197C2.93969 21.2886 2.68635 21.0578 2.43277 20.8272C2.59096 19.5699 3.27017 18.6157 4.99996 18.4809C5.78556 18.4159 6.58482 18.5496 7.36319 18.6799C7.50799 18.7041 7.65208 18.7282 7.79521 18.7509C8.85184 18.9149 9.90847 19.0595 10.9651 19.1945C12.2747 19.3624 13.5878 19.5095 14.9044 19.6357C15.0232 20.987 15.244 22.3568 15.5916 23.6843C15.3703 23.5802 15.1503 23.4753 14.9308 23.3707C13.4944 22.686 12.0815 22.0125 10.4944 21.6437C8.12468 21.0987 5.61817 21.0727 3.19282 21.5197ZM3.7166 21.9986C7.10159 25.0973 10.4464 28.24 13.7498 31.425C14.4811 29.1196 15.1421 26.7923 15.732 24.4474C15.3438 24.2666 14.9605 24.0755 14.5772 23.8845C13.8815 23.5377 13.1862 23.1912 12.4636 22.9069C11.1956 22.4055 9.86044 22.0776 8.51565 21.9137C6.92419 21.7214 5.30464 21.7539 3.7166 21.9986ZM16.0342 23.2187C16.3069 22.084 16.5631 20.9452 16.8026 19.803C16.3503 19.7667 15.8983 19.7278 15.4468 19.6865C15.5643 20.879 15.7583 22.06 16.0342 23.2187ZM16.1363 19.1487C16.3984 19.1739 16.6606 19.1982 16.923 19.2216C16.9582 19.0495 16.993 18.8773 17.0275 18.705C16.7523 18.9066 16.4555 19.0607 16.1363 19.1487ZM17.7618 18.0092C17.6806 18.4307 17.5971 18.8517 17.5114 19.2723C18.1171 19.3228 18.7238 19.3679 19.3317 19.4066C21.7869 19.5627 24.247 19.652 26.708 19.6738C27.5014 18.2536 28.1149 16.7016 28.7197 15.1717C29.0241 14.4016 29.3263 13.6371 29.6481 12.8979C30.1997 11.6359 30.837 10.391 31.6516 9.27827C29.7838 9.40957 27.9152 9.52715 26.0461 9.62902C24.2365 9.72665 22.4251 9.80929 20.6127 9.87505C20.5521 11.6609 20.0124 13.5294 19.4085 15.0482C19.0599 15.9207 18.5198 17.1187 17.7618 18.0092ZM19.9866 9.89709C19.9604 10.5892 19.8642 11.2812 19.7447 11.9047C19.5142 13.11 19.1492 14.296 18.6497 15.4146C18.4684 15.8241 18.2576 16.2774 18.0041 16.7128C18.4122 14.4621 18.7559 12.1993 19.0352 9.92797C19.3523 9.91821 19.6695 9.90791 19.9866 9.89709ZM19.9911 9.32128C19.9691 8.40847 19.8002 7.52918 19.3741 6.84424C19.293 7.68062 19.2032 8.51607 19.1048 9.3504C19.4002 9.34115 19.6956 9.33145 19.9911 9.32128ZM18.5142 9.36827C18.6388 8.32043 18.7497 7.27087 18.8466 6.21995C18.4703 5.8922 17.9831 5.65808 17.3597 5.55473C16.8978 6.8104 16.5067 8.10606 16.1938 9.42626C16.9673 9.41023 17.7408 9.39086 18.5142 9.36827ZM15.6194 9.43753C15.9254 8.10255 16.3136 6.78628 16.7812 5.49794C14.7682 5.41295 12.7547 6.30718 10.9045 7.1289C10.5899 7.26862 10.2801 7.40623 9.97572 7.53659C9.84806 7.5915 9.72051 7.6466 9.59305 7.70188C9.78435 8.2979 9.9842 8.891 10.1937 9.48075C12.0021 9.48612 13.8108 9.4711 15.6194 9.43753ZM10.401 10.0544C12.0982 10.0584 13.7955 10.0445 15.4925 10.0143C14.907 12.7923 14.6761 15.6449 14.8242 18.4902C14.124 18.1147 13.6563 17.1981 13.2794 16.4592C13.213 16.3292 13.1495 16.2047 13.088 16.0896C12.4636 14.9132 11.8873 13.6982 11.3589 12.4736C11.0183 11.6747 10.7 10.8679 10.401 10.0544ZM15.3644 18.6567C15.1862 15.7709 15.4434 12.8364 16.0624 10.0035C16.8564 9.98769 17.6503 9.96831 18.444 9.94555C18.1179 12.5775 17.7043 15.1983 17.2044 17.8024C16.8409 18.1785 16.4155 18.4713 15.9121 18.6063C15.7171 18.6583 15.5349 18.6729 15.3644 18.6567ZM9.5735 9.47811C9.39273 8.96675 9.21907 8.45327 9.05189 7.93783C7.94756 8.42193 6.85015 8.91871 5.75711 9.42562C7.02896 9.45375 8.30114 9.47103 9.5735 9.47811ZM26.3739 20.2455C23.4251 20.214 20.4769 20.0854 17.5354 19.8598C17.4877 19.8563 17.44 19.8527 17.3923 19.8491C17.201 20.7646 16.9989 21.6779 16.7862 22.5887C16.6701 23.0826 16.5509 23.5759 16.4286 24.0685C18.6422 25.0356 20.8622 25.1694 22.9722 23.8326C24.4384 22.9044 25.5118 21.6544 26.3739 20.2455ZM32.8062 20.1604C32.6938 20.4713 32.5808 20.7815 32.4681 21.0908C32.4278 21.2013 32.3876 21.3117 32.3475 21.4219C32.0497 22.2415 31.7711 23.1094 32.0689 23.9772C32.2611 24.5462 32.6547 24.9897 33.0486 25.4236C33.6922 26.1275 34.3647 26.8121 35.0369 27.4871C35.3137 27.7632 35.593 28.0378 35.8756 28.3094C35.9494 28.1594 36.0228 28.0092 36.0956 27.8587C36.0381 25.1941 36.1999 22.5468 36.645 19.9625C35.3665 20.0468 34.0867 20.1128 32.8062 20.1604Z" fill="#E6007A"/>
<path d="M13.0738 27.4501H17.7724L19.2704 22.0181C19.477 21.2691 20.5302 21.2696 20.7361 22.0187L22.2289 27.4501H26.9185L30.5142 13.5601H26.1114L24.987 19.0724C24.8237 19.8729 23.6977 19.8951 23.5036 19.1016L22.1482 13.5601H17.8531L16.5327 19.136C16.3441 19.9321 15.2157 19.9167 15.0486 19.1157L14.6521 17.2148C14.2078 15.0849 12.3447 13.5601 10.1865 13.5601H9.48706L13.0738 27.4501Z" fill="white"/>
</g>
<defs>
<linearGradient id="paint0_linear_18955_226123" x1="2.85536" y1="18.9713" x2="61.2496" y2="19.0152" gradientUnits="userSpaceOnUse">
<stop stop-color="#F79420" stop-opacity="0.92"/>
<stop offset="1" stop-color="#C4C4C4" stop-opacity="0"/>
</linearGradient>
<clipPath id="clip0_18955_226123">
<rect width="40" height="40" fill="white"/>
</clipPath>
</defs>
</svg>
