<svg width="24" height="24" viewBox="0 0 24 24" fill="none" xmlns="http://www.w3.org/2000/svg">
<path fill-rule="evenodd" clip-rule="evenodd" d="M22.8 12C22.8 17.9646 17.9646 22.8 12 22.8C6.03528 22.8 1.19995 17.9646 1.19995 12C1.19995 6.03528 6.03528 1.19995 12 1.19995C17.9646 1.19995 22.8 6.03528 22.8 12ZM20.2485 16.6147C18.6308 19.5 15.5431 21.45 12 21.45C6.78081 21.45 2.54995 17.2191 2.54995 12C2.54995 11.9582 2.5502 11.9166 2.55078 11.875C3.15368 12.8021 4.1525 13.7201 5.44243 14.5389C5.41928 15.0855 5.61637 15.6397 6.03372 16.057C6.78477 16.8081 7.9792 16.8458 8.77483 16.1702C9.39446 16.4011 10.0435 16.609 10.7165 16.7894C14.5522 17.8171 18.1606 17.6785 20.2485 16.6147ZM9.4589 14.983C9.97215 15.1675 10.5089 15.3361 11.066 15.4854C13.6806 16.1859 16.1202 16.2934 17.9261 15.9568C19.8397 15.6001 20.5676 14.8658 20.71 14.3339C20.8526 13.8019 20.5894 12.8021 19.1106 11.5363C18.4939 11.0085 17.7269 10.4941 16.8371 10.0236C16.8163 10.0464 16.7949 10.0688 16.7729 10.0908C15.9821 10.8817 14.7 10.8817 13.9091 10.0908C13.5041 9.68574 13.3065 9.1518 13.3164 8.621C13.19 8.58449 13.0624 8.54898 12.9338 8.51454C10.3192 7.814 7.87958 7.70647 6.07368 8.04314C4.16008 8.39984 3.43226 9.13417 3.28972 9.66604C3.14717 10.198 3.41035 11.1978 4.88922 12.4635C5.20818 12.7365 5.56743 13.0059 5.96302 13.2676C5.98584 13.2423 6.00941 13.2175 6.03372 13.1932C6.82448 12.4025 8.10667 12.4025 8.89752 13.1932C9.38433 13.68 9.57145 14.3531 9.4589 14.983ZM21.4491 12.1251C20.6712 10.9287 19.2339 9.7477 17.3627 8.775C17.3944 8.21881 17.1978 7.65192 16.7729 7.227C15.9821 6.43623 14.7 6.43623 13.9091 7.227C13.8681 7.26795 13.8293 7.31022 13.7926 7.35364C13.6244 7.3042 13.4546 7.25649 13.2832 7.2106C9.44761 6.18286 5.83934 6.32145 3.75147 7.38512C5.36918 4.49989 8.45678 2.54995 12 2.54995C17.2191 2.54995 21.45 6.78081 21.45 12L21.4499 12.0598L21.4491 12.1251Z" fill="#26DB8D"/>
</svg>
