<svg width="40" height="40" viewBox="0 0 40 40" fill="none" xmlns="http://www.w3.org/2000/svg">
<path d="M38 30.125C38 34.4742 34.4742 38 30.125 38L9.875 38C5.52576 38 2 34.4742 2 30.125L2.00001 9.875C2.00001 5.52576 5.52577 2 9.87501 2L30.125 2C34.4742 2 38 5.52576 38 9.875L38 30.125Z" fill="black"/>
<path fill-rule="evenodd" clip-rule="evenodd" d="M9.875 37L30.125 37C33.922 37 37 33.922 37 30.125L37 9.875C37 6.07805 33.922 3 30.125 3L9.87501 3C6.07805 3 3.00001 6.07804 3.00001 9.875L3 30.125C3 33.922 6.07805 37 9.875 37ZM30.125 38C34.4742 38 38 34.4742 38 30.125L38 9.875C38 5.52576 34.4742 2 30.125 2L9.87501 2C5.52576 2 2.00001 5.52576 2.00001 9.875L2 30.125C2 34.4742 5.52576 38 9.875 38L30.125 38Z" fill="#EBEEF4"/>
<path opacity="0.7" fill-rule="evenodd" clip-rule="evenodd" d="M30.125 37L9.875 37C6.07804 37 3 33.922 3 30.125L3 26.5576C7.12185 27.6335 13.4031 28.8758 20.4316 28.8758C27.2541 28.8758 33.1117 27.7052 37 26.6526V30.125C37 33.922 33.922 37 30.125 37Z" fill="url(#paint0_linear_4408_34381)"/>
<path fill-rule="evenodd" clip-rule="evenodd" d="M30.125 37L9.875 37C6.07804 37 3 33.922 3 30.125L3 28.4206C7.47938 27.897 14.1996 27.2484 20.0012 27.2484C25.8018 27.2484 32.5206 27.8968 37 28.4203V30.125C37 33.922 33.922 37 30.125 37Z" fill="url(#paint1_linear_4408_34381)"/>
<path fill-rule="evenodd" clip-rule="evenodd" d="M3.0146 30.5766C3.78646 30.4857 4.62895 30.3906 5.5248 30.2955C9.79537 29.842 15.2316 29.3938 20.0012 29.3938C24.7709 29.3938 30.2071 29.842 34.4776 30.2955C35.3725 30.3905 36.2142 30.4855 36.9854 30.5763C36.9951 30.4271 37 30.2766 37 30.125V26.9535C36.3298 26.8758 35.6124 26.7957 34.8577 26.7156C30.5415 26.2573 24.959 25.7938 20.0012 25.7938C15.0434 25.7938 9.46097 26.2573 5.14471 26.7156C4.38913 26.7958 3.67091 26.876 3 26.9538L3 30.1249C3 30.2767 3.00492 30.4273 3.0146 30.5766Z" fill="url(#paint2_linear_4408_34381)"/>
<path d="M20.0003 21.3543H10.8955L24.5527 7.80298H29.1051L20.0003 21.3543Z" fill="url(#paint3_linear_4408_34381)"/>
<path d="M10.0257 34.4591C9.73422 34.4591 9.49609 34.223 9.49609 33.934V31.3981C9.49609 31.1092 9.73422 30.8771 10.0257 30.8771C10.3172 30.8771 10.5553 31.1132 10.5553 31.4023V33.9381C10.5512 34.223 10.3172 34.4591 10.0257 34.4591Z" fill="white"/>
<path d="M12.2641 34.4592C12.1081 34.4592 11.9562 34.39 11.8576 34.272L10.7902 33.0061C10.626 32.8107 10.626 32.5299 10.7902 32.3345L11.8576 31.0646C12.0465 30.8408 12.379 30.8122 12.6007 30.9954C12.8224 31.1785 12.8553 31.5124 12.6705 31.7321L11.8864 32.6683L12.6705 33.6004C12.8553 33.8242 12.8265 34.1539 12.6007 34.3371C12.5063 34.4144 12.3872 34.4592 12.2641 34.4592Z" fill="white"/>
<path d="M15.7776 34.458H13.5401C13.2486 34.458 13.0105 34.222 13.0105 33.9329V31.3971C13.0105 31.1082 13.2486 30.8721 13.5401 30.8721C13.8316 30.8721 14.0697 31.1082 14.0697 31.3971V33.4078H15.252V31.3971C15.252 31.1082 15.4901 30.8721 15.7816 30.8721C16.0732 30.8721 16.3113 31.1082 16.3113 31.3971V33.9329C16.3072 34.222 16.0691 34.458 15.7776 34.458Z" fill="white"/>
<path d="M19.2962 34.4591H17.0587C16.7672 34.451 16.5374 34.2108 16.5455 33.9217C16.5537 33.6451 16.7794 33.4211 17.0587 33.413H18.7666V33.3844L16.911 32.8595C16.6851 32.7942 16.5291 32.5907 16.5291 32.3547V31.3981C16.5291 31.1092 16.7672 30.8771 17.0587 30.8771H19.2962C19.5876 30.8771 19.8258 31.1132 19.8258 31.4023C19.8258 31.6912 19.5876 31.9274 19.2962 31.9274H17.5883V31.9599L19.4441 32.485C19.6698 32.5501 19.8258 32.7536 19.8258 32.9896V33.9381C19.8258 34.227 19.5876 34.4591 19.2962 34.4591Z" fill="white"/>
<path d="M26.6478 34.458C26.3563 34.458 26.1221 34.222 26.1221 33.9329V32.5368L25.8759 32.7484C25.6788 32.9154 25.3873 32.9154 25.1861 32.7484L24.9399 32.5368V33.9329C24.9399 34.222 24.7018 34.458 24.4103 34.458C24.1188 34.458 23.8805 34.222 23.8805 33.9329V31.3971C23.8805 31.1082 24.1188 30.8721 24.4103 30.8721C24.5375 30.8721 24.6565 30.9169 24.7551 30.9981L25.5311 31.6575L26.3029 30.9981C26.5245 30.811 26.8571 30.8355 27.0501 31.0551C27.1321 31.1488 27.1773 31.2709 27.1773 31.3971V33.9329C27.1815 34.222 26.9434 34.458 26.6478 34.458Z" fill="white"/>
<path d="M23.1312 34.4591C22.8397 34.4591 22.6016 34.223 22.6016 33.934V33.4903L21.2836 31.9232H21.103V33.4089H21.8995C22.191 33.4171 22.421 33.6571 22.4127 33.9462C22.4044 34.223 22.1787 34.4469 21.8995 34.4549H20.5734C20.282 34.4549 20.048 34.2189 20.048 33.9298V31.3981C20.048 31.1092 20.2861 30.8771 20.5734 30.8771H21.5341C21.6901 30.8771 21.842 30.9464 21.9406 31.0645L23.5376 32.9652C23.6156 33.0588 23.6607 33.177 23.6607 33.299V33.934C23.6607 34.223 23.4268 34.4591 23.1312 34.4591Z" fill="white"/>
<path d="M30.4867 34.4591C30.1952 34.4591 29.9571 34.223 29.9571 33.934V33.4903L28.6392 31.9232H28.4545V33.4089H29.2509C29.5424 33.4171 29.7724 33.6571 29.7641 33.9462C29.7559 34.223 29.5302 34.4469 29.2509 34.4549H27.929C27.6375 34.4549 27.3994 34.2189 27.3994 33.9298V31.3981C27.3994 31.1092 27.6375 30.8771 27.929 30.8771H28.8897C29.0457 30.8771 29.1934 30.9464 29.2962 31.0645L30.8932 32.9652C30.9712 33.0588 31.0163 33.177 31.0163 33.299V33.934C31.0163 34.227 30.7782 34.4591 30.4867 34.4591Z" fill="white"/>
<path d="M21.0765 29.5994C21.0395 29.5668 20.9986 29.5424 20.9493 29.5341C20.8877 29.526 20.826 29.5668 20.7851 29.5952C20.7439 29.6238 20.6618 29.697 20.6291 29.7256C20.5962 29.754 20.5141 29.7703 20.3786 29.8516C20.2431 29.933 19.7176 30.2669 19.7176 30.2669H19.8531L19.2414 30.5802H19.3029L19.2168 30.6455C19.266 30.6577 19.3153 30.6494 19.3604 30.625V30.6455C19.3604 30.6455 20.0871 30.3605 20.2267 30.4337L20.1405 30.4581C20.1487 30.4581 20.2841 30.4662 20.2841 30.4662C20.2923 30.5232 20.3252 30.5762 20.3745 30.6047C20.4566 30.6577 20.4607 30.6902 20.4607 30.6902C20.4607 30.6902 20.4196 30.7064 20.4196 30.7309C20.4975 30.7064 20.5797 30.7064 20.6537 30.7309C20.6537 30.7309 20.6496 30.7064 20.5921 30.6902C20.5346 30.6658 20.4853 30.6291 20.4483 30.5762C20.4156 30.5315 20.4032 30.4745 20.4237 30.4215C20.4442 30.3686 20.5141 30.34 20.6577 30.2669C20.826 30.1813 20.8672 30.1162 20.8877 30.0634C20.9082 30.0103 20.9493 29.9127 20.9657 29.8638C20.982 29.8191 21.0108 29.7826 21.0478 29.7498C21.0929 29.7256 21.1421 29.7051 21.1874 29.6889C21.1955 29.6929 21.1053 29.6197 21.0765 29.5994Z" fill="white"/>
<defs>
<linearGradient id="paint0_linear_4408_34381" x1="-2.03613" y1="25.0115" x2="42.6412" y2="32.8451" gradientUnits="userSpaceOnUse">
<stop stop-color="#9E3BFF"/>
<stop offset="1" stop-color="#6D55FF"/>
</linearGradient>
<linearGradient id="paint1_linear_4408_34381" x1="-2.03613" y1="26.844" x2="42.0386" y2="26.844" gradientUnits="userSpaceOnUse">
<stop stop-color="#9E3BFF"/>
<stop offset="1" stop-color="#492CFF"/>
</linearGradient>
<linearGradient id="paint2_linear_4408_34381" x1="-2.01986" y1="36.8578" x2="41.8673" y2="37.6565" gradientUnits="userSpaceOnUse">
<stop stop-color="white" stop-opacity="0"/>
<stop offset="0.500885" stop-color="#9F7BFF"/>
<stop offset="1" stop-color="white" stop-opacity="0"/>
</linearGradient>
<linearGradient id="paint3_linear_4408_34381" x1="20.0003" y1="7.80298" x2="20.0003" y2="21.3543" gradientUnits="userSpaceOnUse">
<stop stop-color="#7AEDCF"/>
<stop offset="0.201333" stop-color="#68CEFA"/>
<stop offset="0.403244" stop-color="#689CF8"/>
<stop offset="0.602076" stop-color="#AC57C0"/>
<stop offset="0.801867" stop-color="#E65659"/>
<stop offset="1" stop-color="#F2C241"/>
</linearGradient>
</defs>
</svg>
