<svg width="40" height="40" viewBox="0 0 40 40" fill="none" xmlns="http://www.w3.org/2000/svg">
<path fill-rule="evenodd" clip-rule="evenodd" d="M14.8409 34.3664H19.9642C19.9642 34.3664 19.9642 24.5172 19.9642 23.6152C19.9642 22.2194 20.7804 20.9529 22.0512 20.3763L23.0449 19.9256C24.3156 19.349 25.1319 18.0824 25.1319 16.6868C25.1319 15.7601 25.1319 5.63672 25.1319 5.63672C25.1481 5.63672 20.0087 5.63672 20.0087 5.63672V16.6868C20.0087 18.0824 19.1924 19.349 17.9215 19.9256L16.928 20.3763C15.6571 20.9529 14.8409 22.2194 14.8409 23.6152V34.3664ZM32.9691 5.63689C33.9512 5.63689 34.7472 6.43306 34.7472 7.41513V16.3883C34.7472 17.7839 33.9312 19.0505 32.6603 19.6271L31.6668 20.0778C30.3958 20.6544 29.5796 21.9209 29.5796 23.3166V32.5883C29.5796 33.5704 28.7833 34.3667 27.8012 34.3667H24.4561C24.4561 34.3667 24.4561 24.2435 24.4561 23.3166C24.4561 21.9209 25.2724 20.6544 26.5433 20.0778L27.5368 19.6271C28.8078 19.0505 29.624 17.7839 29.624 16.3883V5.63689C29.624 5.63689 31.8541 5.63689 32.9691 5.63689ZM15.5439 5.63672H12.1988C11.2167 5.63672 10.4206 6.43286 10.4206 7.41496V16.6868C10.4206 18.0824 9.60436 19.349 8.33345 19.9256L7.33995 20.3763C6.06904 20.9529 5.25281 22.2194 5.25281 23.6152V32.5883C5.25281 33.5704 6.04895 34.3664 7.03105 34.3664H10.3761C10.3761 30.7827 10.3761 27.1989 10.3761 23.6152C10.3761 22.2194 11.1923 20.9529 12.4633 20.3763L13.4568 19.9256C14.7277 19.349 15.5439 18.0824 15.5439 16.6868C15.5439 13.0034 15.5439 9.32008 15.5439 5.63672Z" fill="url(#paint0_linear_31565_126936)"/>
<defs>
<linearGradient id="paint0_linear_31565_126936" x1="10.8183" y1="6.71409" x2="28.6052" y2="32.6308" gradientUnits="userSpaceOnUse">
<stop stop-color="#FEE45D"/>
<stop offset="0.145" stop-color="#FEE45D"/>
<stop offset="0.775" stop-color="#AEFEC3"/>
</linearGradient>
</defs>
</svg>
