<svg width="24" height="24" viewBox="0 0 24 24" fill="none" xmlns="http://www.w3.org/2000/svg">
<path d="M12 22.5C17.799 22.5 22.5 17.799 22.5 12C22.5 6.20101 17.799 1.5 12 1.5C6.20101 1.5 1.5 6.20101 1.5 12C1.5 17.799 6.20101 22.5 12 22.5Z" fill="#00B2FF"/>
<path d="M13.701 4.44123C13.701 5.38067 12.9395 6.14223 12 6.14223C11.0606 6.14223 10.299 5.38067 10.299 4.44123C10.299 3.5018 11.0606 2.74023 12 2.74023C12.9395 2.74023 13.701 3.5018 13.701 4.44123Z" fill="#E40B7B"/>
<path d="M13.701 19.5612C13.701 20.5007 12.9395 21.2622 12 21.2622C11.0606 21.2622 10.299 20.5007 10.299 19.5612C10.299 18.6218 11.0606 17.8602 12 17.8602C12.9395 17.8602 13.701 18.6218 13.701 19.5612Z" fill="#E40B7B"/>
<path d="M19.3976 9.69484C18.584 10.1646 17.5437 9.8858 17.0739 9.07223C16.6042 8.25865 16.883 7.21834 17.6966 6.74862C18.5101 6.2789 19.5504 6.55765 20.0202 7.37123C20.4899 8.1848 20.2111 9.22512 19.3976 9.69484Z" fill="#E40B7B"/>
<path d="M6.30325 17.2548C5.48968 17.7246 4.44936 17.4458 3.97964 16.6322C3.50993 15.8186 3.78868 14.7783 4.60225 14.3086C5.41583 13.8389 6.45614 14.1177 6.92586 14.9312C7.39558 15.7448 7.11683 16.7851 6.30325 17.2548Z" fill="#E40B7B"/>
<path d="M4.60225 9.69483C5.41582 10.1645 6.45614 9.88579 6.92586 9.07222C7.39558 8.25864 7.11682 7.21833 6.30325 6.74861C5.48967 6.27889 4.44936 6.55764 3.97964 7.37122C3.50992 8.18479 3.78867 9.22511 4.60225 9.69483Z" fill="#E40B7B"/>
<path d="M17.6966 17.2548C18.5101 17.7245 19.5504 17.4458 20.0202 16.6322C20.4899 15.8186 20.2111 14.7783 19.3976 14.3086C18.584 13.8389 17.5437 14.1176 17.0739 14.9312C16.6042 15.7448 16.883 16.7851 17.6966 17.2548Z" fill="#E40B7B"/>
<path fill-rule="evenodd" clip-rule="evenodd" d="M14.5569 8.41053C14.0814 8.17981 13.5116 8.06445 12.8475 8.06445H8.41138V15.9298H10.6556V13.5283H12.8475C13.5116 13.5283 14.0814 13.4164 14.5569 13.1927C15.0393 12.962 15.4098 12.6439 15.6685 12.2384C15.9272 11.8259 16.0565 11.3434 16.0565 10.7911C16.0565 10.2458 15.9272 9.77037 15.6685 9.36486C15.4098 8.95237 15.0393 8.63426 14.5569 8.41053ZM10.6556 11.735H12.7216C13.0572 11.735 13.3194 11.6511 13.5081 11.4833C13.6969 11.3155 13.7913 11.0848 13.7913 10.7911C13.7913 10.4975 13.6969 10.2703 13.5081 10.1095C13.3194 9.94166 13.0572 9.85776 12.7216 9.85776H10.6556V11.735Z" fill="white"/>
</svg>
