<svg width="40" height="40" viewBox="0 0 40 40" fill="none" xmlns="http://www.w3.org/2000/svg">
<path fill-rule="evenodd" clip-rule="evenodd" d="M14.6571 4.2311C12.199 5.08015 10.0535 6.41818 8.24113 8.23247C6.92577 9.54919 5.88904 10.9955 5.07204 12.6535C4.14819 14.5284 3.60099 16.5092 3.41823 18.64C3.37689 19.1219 3.36081 20.3827 3.38953 20.8886C3.62533 25.0408 5.33303 28.8581 8.26095 31.7778C10.8917 34.4011 14.3069 36.065 17.9796 36.5126C18.6158 36.5901 18.9774 36.6123 19.7688 36.6226C20.7487 36.6354 21.3249 36.6046 22.1805 36.4936C28.1596 35.7185 33.2857 31.7062 35.4997 26.0682C35.6217 25.7576 35.8333 25.1673 35.8333 25.1377C35.8333 25.1318 35.7229 25.2937 35.588 25.4974C33.4927 28.6611 30.295 30.9348 26.6391 31.8605C24.2286 32.4709 21.6564 32.4786 19.2399 31.8825C16.0003 31.0834 13.113 29.2342 11.0114 26.6124C8.42186 23.3821 7.27086 19.2602 7.80397 15.1264C8.1384 12.5333 9.14317 10.0739 10.7288 7.96746C11.1892 7.35572 11.5179 6.97686 12.0861 6.40281C12.8518 5.62921 13.598 5.01396 14.4926 4.41856C14.7016 4.27939 14.865 4.16619 14.8556 4.167C14.8462 4.1678 14.7568 4.19663 14.6571 4.2311ZM22.1805 4.52082C22.1332 4.52475 21.9828 4.53686 21.8463 4.54771C20.5256 4.65266 19.121 5.00476 17.8764 5.54289C16.1001 6.31094 14.4832 7.52276 13.2171 9.03493C10.781 11.9444 9.79183 15.8282 10.5349 19.5662C10.5662 19.7237 10.6386 20.0365 10.6959 20.2613C10.7531 20.4861 10.7999 20.673 10.7999 20.6766C10.7999 20.6803 10.8073 20.6833 10.8164 20.6833C10.8254 20.6833 10.8387 20.6258 10.8459 20.5555C10.9069 19.9604 11.2029 18.8804 11.4965 18.1817C12.461 15.8867 14.2165 13.977 16.4198 12.8259C18.1377 11.9285 20.1923 11.518 21.8676 11.7376C23.7722 11.9873 25.2791 13.062 26.0247 14.7025C26.2378 15.1714 26.3974 15.7503 26.431 16.1767C26.444 16.3409 26.4627 16.4058 26.497 16.4058C26.5282 16.4058 27.3388 16.8046 27.7373 17.016C28.7439 17.5499 29.8676 18.2244 30.0008 18.3746L30.038 18.4165L29.9044 18.4041C29.0842 18.3274 28.2479 18.3502 27.5086 18.4692C25.4783 18.7961 24.0377 19.7636 23.2875 21.3039C23.0059 21.8819 22.8299 22.4695 22.7435 23.1201C22.7079 23.3878 22.7027 23.9746 22.7337 24.2255C22.8971 25.5486 23.5738 26.654 24.6701 27.3888C25.1875 27.7355 25.774 27.9672 26.4386 28.0875C26.6914 28.1332 26.7603 28.1377 27.2311 28.1386C27.7826 28.1397 27.9287 28.1251 28.3863 28.0232C28.665 27.9612 29.1501 27.8012 29.4461 27.6736C30.3494 27.2844 31.2516 26.6201 32.0736 25.7392C34.0449 23.6266 35.1799 21.0865 35.4548 18.1722C35.4944 17.7526 35.4885 16.3505 35.4454 15.938C35.2736 14.2947 34.8584 12.8498 34.1532 11.4414C32.9492 9.03689 30.9437 7.0364 28.5295 5.83181C27.1416 5.13927 25.6865 4.72281 24.0709 4.55569C23.7927 4.52691 22.4126 4.50144 22.1805 4.52082ZM22.8774 13.9682C22.7513 14.0098 22.675 14.0567 22.5661 14.1597C22.3782 14.3374 22.2853 14.6066 22.3296 14.845C22.363 15.0245 22.4496 15.1827 22.5811 15.3045C22.7412 15.4526 22.8613 15.4969 23.1066 15.4979C23.3537 15.4989 23.4707 15.4549 23.6382 15.2983C23.7634 15.1812 23.8291 15.0721 23.8723 14.91C23.9655 14.5601 23.7847 14.1821 23.444 14.0144C23.3342 13.9603 23.2983 13.9525 23.1367 13.948C23.0229 13.9449 22.9249 13.9525 22.8774 13.9682Z" fill="url(#paint0_linear_1514_57009)"/>
<defs>
<linearGradient id="paint0_linear_1514_57009" x1="3.375" y1="4.16699" x2="35.8757" y2="36.6665" gradientUnits="userSpaceOnUse">
<stop stop-color="#00D2D3"/>
<stop offset="1" stop-color="#C70CBA"/>
</linearGradient>
</defs>
</svg>
