<svg width="24" height="24" viewBox="0 0 24 24" fill="none" xmlns="http://www.w3.org/2000/svg">
<path fill-rule="evenodd" clip-rule="evenodd" d="M12 2.25C6.61522 2.25 2.25 6.61522 2.25 12C2.25 17.3848 6.61522 21.75 12 21.75C17.3848 21.75 21.75 17.3848 21.75 12C21.75 6.61522 17.3848 2.25 12 2.25ZM20.25 12C20.25 16.5563 16.5563 20.25 12 20.25C7.44365 20.25 3.75 16.5563 3.75 12C3.75 7.44365 7.44365 3.75 12 3.75C16.5563 3.75 20.25 7.44365 20.25 12ZM16.9994 9.50076C17.285 9.20081 17.2734 8.72608 16.9735 8.44041C16.6736 8.15475 16.1988 8.16633 15.9132 8.46627L10.4164 14.2378L7.7926 11.483C7.50693 11.183 7.0322 11.1715 6.73226 11.4571C6.43232 11.7428 6.42075 12.2175 6.70642 12.5175L9.87334 15.8426C10.0149 15.9912 10.2112 16.0753 10.4164 16.0753C10.6217 16.0753 10.818 15.9912 10.9595 15.8426L16.9994 9.50076Z" fill="#1E2134"/>
</svg>
