<svg width="24" height="24" viewBox="0 0 24 24" fill="none" xmlns="http://www.w3.org/2000/svg">
<g clip-path="url(#clip0_21025_70743)">
<path d="M9.37734 9.53345C9.37734 8.07347 10.5547 6.89566 12 6.89566C13.4453 6.89566 14.6227 8.07347 14.6227 9.53345C14.6227 10.9934 13.4453 12.1712 12 12.1712C10.5547 12.1712 9.37734 10.9934 9.37734 9.53345Z" fill="#EBEEF4"/>
<path fill-rule="evenodd" clip-rule="evenodd" d="M12 24C18.6274 24 24 18.6274 24 12C24 5.37258 18.6274 0 12 0C5.37258 0 0 5.37258 0 12C0 18.6274 5.37258 24 12 24ZM16.1227 9.53345C16.1227 10.8429 15.516 12.0119 14.5682 12.7706C16.2123 13.5855 17.4158 15.1583 17.7288 17.0324C17.797 17.441 17.5212 17.8275 17.1126 17.8957C16.7041 17.964 16.3175 17.6881 16.2493 17.2795C15.9069 15.2293 14.1318 13.6712 12 13.6712C9.86825 13.6712 8.09314 15.2293 7.7507 17.2795C7.68247 17.6881 7.29595 17.964 6.8874 17.8957C6.47884 17.8275 6.20296 17.441 6.2712 17.0324C6.58422 15.1583 7.78769 13.5855 9.43179 12.7706C8.48397 12.0119 7.87734 10.8429 7.87734 9.53345C7.87734 7.25138 9.71996 5.39566 12 5.39566C14.28 5.39566 16.1227 7.25138 16.1227 9.53345Z" fill="#EBEEF4"/>
</g>
<defs>
<clipPath id="clip0_21025_70743">
<rect width="24" height="24" fill="white"/>
</clipPath>
</defs>
</svg>
