<svg width="24" height="24" viewBox="0 0 24 24" fill="none" xmlns="http://www.w3.org/2000/svg">
<path fill-rule="evenodd" clip-rule="evenodd" d="M3.96078 3.75C3.3056 3.75 2.75 4.29514 2.75 5V19C2.75 19.7049 3.3056 20.25 3.96078 20.25H20.0392C20.6944 20.25 21.25 19.7049 21.25 19V5C21.25 4.29514 20.6944 3.75 20.0392 3.75H3.96078ZM1.25 5C1.25 3.49486 2.44931 2.25 3.96078 2.25H20.0392C21.5507 2.25 22.75 3.49486 22.75 5V19C22.75 20.5051 21.5507 21.75 20.0392 21.75H3.96078C2.44931 21.75 1.25 20.5051 1.25 19V5ZM6.56403 6.70561L6.56367 6.7052L6.56349 6.705C6.29058 6.39427 5.81749 6.36307 5.50612 6.63552C5.19439 6.90828 5.16281 7.3821 5.43557 7.69383L6 7.19995C5.43557 7.69383 5.43581 7.6941 5.43606 7.69439L5.43665 7.69507L5.43812 7.69674L5.44224 7.70139L5.45515 7.71582C5.46583 7.72767 5.48067 7.74395 5.49964 7.76437C5.53758 7.8052 5.59208 7.86259 5.663 7.93415C5.80481 8.07724 6.01251 8.27723 6.28497 8.51502C6.8296 8.99033 7.63512 9.61848 8.69265 10.2452C10.8094 11.4995 13.9401 12.75 18 12.75C18.4142 12.75 18.75 12.4142 18.75 12C18.75 11.5857 18.4142 11.25 18 11.25C14.2599 11.25 11.3906 10.1004 9.45735 8.95473C8.48988 8.38142 7.7579 7.80957 7.27128 7.38488C7.02812 7.17267 6.84675 6.99767 6.72841 6.87825C6.66925 6.81857 6.6259 6.77283 6.5985 6.74334C6.58481 6.7286 6.57511 6.71794 6.56942 6.71163L6.56403 6.70561ZM6.21155 13.0165C5.81415 12.8997 5.39729 13.1271 5.28045 13.5245C5.16362 13.9219 5.39106 14.3388 5.78845 14.4556L17.7885 17.9836C18.1858 18.1005 18.6027 17.873 18.7195 17.4756C18.8364 17.0782 18.6089 16.6614 18.2115 16.5445L6.21155 13.0165Z" fill="#1E2134"/>
</svg>
