<svg width="20" height="20" viewBox="0 0 20 20" fill="none" xmlns="http://www.w3.org/2000/svg">
<path fill-rule="evenodd" clip-rule="evenodd" d="M5.25 7.58472C5.25 4.96157 7.37648 2.83508 9.99963 2.83508C12.6228 2.83508 14.7493 4.96157 14.7493 7.58472C14.7493 8.8621 14.246 10.0204 13.4253 10.8747C13.1092 11.2038 12.7852 11.5822 12.5073 12.0061C12.5049 12.006 12.5025 12.006 12.5 12.006H7.5C7.49739 12.006 7.49479 12.006 7.49219 12.0061C7.21437 11.5823 6.89037 11.204 6.57424 10.875C5.7534 10.0207 5.25 8.86226 5.25 7.58472ZM8.15644 13.506C8.21648 13.7671 8.25 14.0388 8.25 14.3205V14.4375H11.75V14.3199C11.75 14.0383 11.7835 13.7669 11.8434 13.506H8.15644ZM9.99963 1.33508C6.54806 1.33508 3.75 4.13314 3.75 7.58472C3.75 9.26502 4.41412 10.7918 5.49261 11.9142C6.24201 12.6942 6.75 13.4975 6.75 14.3205V15.1875C6.75 15.6017 7.08579 15.9375 7.5 15.9375H12.5C12.9142 15.9375 13.25 15.6017 13.25 15.1875V14.3199C13.25 13.4969 13.7578 12.6937 14.5071 11.9138C15.5853 10.7914 16.2493 9.26481 16.2493 7.58472C16.2493 4.13314 13.4512 1.33508 9.99963 1.33508ZM6.75 17.5C6.75 17.0858 7.08579 16.75 7.5 16.75H12.5C12.9142 16.75 13.25 17.0858 13.25 17.5C13.25 17.9143 12.9142 18.25 12.5 18.25H7.5C7.08579 18.25 6.75 17.9143 6.75 17.5Z" fill="#1E2134"/>
</svg>
