<svg width="24" height="24" viewBox="0 0 24 24" fill="none" xmlns="http://www.w3.org/2000/svg">
<path fill-rule="evenodd" clip-rule="evenodd" d="M13.5907 3.69165C15.4456 1.83675 18.4535 1.83675 20.3084 3.69165C22.1633 5.54654 22.1633 8.55441 20.3084 10.4093L17.4804 13.2373C17.1875 13.5302 16.7126 13.5302 16.4197 13.2373C16.1268 12.9444 16.1268 12.4695 16.4197 12.1766L19.2477 9.34865C20.5168 8.07954 20.5168 6.02141 19.2477 4.75231C17.9786 3.4832 15.9205 3.4832 14.6514 4.75231L11.8234 7.58031C11.5305 7.8732 11.0556 7.8732 10.7627 7.58031C10.4698 7.28741 10.4698 6.81254 10.7627 6.51965L13.5907 3.69165ZM7.58031 10.7627C7.8732 11.0556 7.8732 11.5305 7.58031 11.8234L4.75231 14.6514C3.4832 15.9205 3.4832 17.9786 4.75231 19.2477C6.02141 20.5168 8.07954 20.5168 9.34865 19.2477L12.1766 16.4197C12.4695 16.1268 12.9444 16.1268 13.2373 16.4197C13.5302 16.7126 13.5302 17.1875 13.2373 17.4804L10.4093 20.3084C8.55441 22.1633 5.54654 22.1633 3.69165 20.3084C1.83675 18.4535 1.83675 15.4456 3.69165 13.5907L6.51965 10.7627C6.81254 10.4698 7.28741 10.4698 7.58031 10.7627ZM3.75517 7.0478C3.36185 6.91793 2.93771 7.1315 2.80784 7.52483C2.67797 7.91816 2.89154 8.34229 3.28487 8.47217L5.40487 9.17217C5.79819 9.30204 6.22233 9.08847 6.3522 8.69514C6.48207 8.30181 6.2685 7.87768 5.87517 7.7478L3.75517 7.0478ZM7.52483 2.80784C7.91816 2.67797 8.34229 2.89154 8.47217 3.28487L9.17217 5.40487C9.30204 5.79819 9.08847 6.22233 8.69514 6.3522C8.30181 6.48207 7.87768 6.2685 7.7478 5.87517L7.0478 3.75517C6.91793 3.36185 7.1315 2.93771 7.52483 2.80784ZM18.5941 14.8275C18.2006 14.6982 17.7768 14.9123 17.6475 15.3059C17.5182 15.6994 17.7323 16.1232 18.1258 16.2525L20.2558 16.9525C20.6493 17.0818 21.0732 16.8677 21.2025 16.4742C21.3318 16.0807 21.1177 15.6568 20.7241 15.5275L18.5941 14.8275ZM15.3059 17.6475C15.6994 17.5182 16.1232 17.7323 16.2525 18.1258L16.9525 20.2558C17.0818 20.6493 16.8677 21.0732 16.4742 21.2025C16.0807 21.3318 15.6568 21.1177 15.5275 20.7241L14.8275 18.5941C14.6982 18.2006 14.9123 17.7768 15.3059 17.6475ZM15.3603 9.70031C15.6532 9.40742 15.6532 8.93255 15.3603 8.63965C15.0674 8.34676 14.5925 8.34676 14.2997 8.63965L8.63965 14.2997C8.34676 14.5925 8.34676 15.0674 8.63965 15.3603C8.93255 15.6532 9.40742 15.6532 9.70031 15.3603L15.3603 9.70031Z" fill="#1E2134"/>
</svg>
