<svg width="24" height="24" viewBox="0 0 24 24" fill="none" xmlns="http://www.w3.org/2000/svg">
<path fill-rule="evenodd" clip-rule="evenodd" d="M14.8436 5.7332L6.25037 3.75H18C19.2428 3.75 20.25 4.75721 20.25 6V8.25H17.5739C17.1807 7.01399 16.1609 6.03712 14.8436 5.7332ZM21.75 6V9V15C21.75 17.0712 20.0712 18.75 18 18.75H17.6756C17.2689 20.7665 15.2547 22.1372 13.1563 21.6528L13.1563 21.6528L5.15639 19.8058C3.45496 19.4133 2.25 17.8981 2.25 16.152V6.283V6C2.25 4.88923 2.73379 3.89051 3.49983 3.20492C4.16278 2.61161 5.04004 2.25 6 2.25H18C20.0712 2.25 21.75 3.92879 21.75 6ZM17.75 9.75H20.25V15C20.25 16.2428 19.2428 17.25 18 17.25H17.75V9.75ZM16.2323 9.10401L16.2305 9.09021C16.1088 8.17122 15.4292 7.40771 14.5064 7.1948L14.5063 7.19479L5.28134 5.06579L5.28101 5.06572C4.49732 4.88448 3.75 5.4792 3.75 6.283V16.152C3.75 17.1999 4.47304 18.1087 5.49361 18.3442L5.49372 18.3442L13.4937 20.1912L13.4937 20.1912C14.9041 20.5168 16.25 19.4463 16.25 18V9.387C16.25 9.29138 16.244 9.19691 16.2323 9.10401ZM14.5 13.73C14.5 13.1758 14.0503 12.73 13.499 12.73L13.4936 12.73C12.9427 12.734 12.5 13.1816 12.5 13.731C12.5 14.2812 12.9465 14.7325 13.5027 14.73C14.0537 14.7285 14.5 14.2813 14.5 13.73Z" fill="#1E2134"/>
</svg>
