<svg width="24" height="24" viewBox="0 0 24 24" fill="none" xmlns="http://www.w3.org/2000/svg">
<path d="M8.86961 9.88772H14.7392M8.86961 14.2703H14.7392M12 21H3.75C3.55109 21 3.36032 20.921 3.21967 20.7803C3.07902 20.6397 3 20.4489 3 20.25V12C3 10.8181 3.23279 9.64777 3.68508 8.55584C4.13737 7.46391 4.80031 6.47176 5.63603 5.63603C6.47176 4.80031 7.46391 4.13737 8.55584 3.68508C9.64777 3.23279 10.8181 3 12 3C13.1819 3 14.3522 3.23279 15.4442 3.68508C16.5361 4.13738 17.5282 4.80031 18.364 5.63604C19.1997 6.47177 19.8626 7.46392 20.3149 8.55585C20.7672 9.64778 21 10.8181 21 12C21 14.3869 20.0518 16.6761 18.364 18.364C16.6761 20.0518 14.387 21 12 21Z" stroke="#1E2134" stroke-width="1.5" stroke-linecap="round" stroke-linejoin="round"/>
</svg>
