<svg width="40" height="40" viewBox="0 0 40 40" fill="none" xmlns="http://www.w3.org/2000/svg">
<path d="M32 5C32 4.44772 31.5523 4 31 4C30.4477 4 30 4.44772 30 5H32ZM30 13C30 13.5523 30.4477 14 31 14C31.5523 14 32 13.5523 32 13H30ZM27 8C26.4477 8 26 8.44772 26 9C26 9.55228 26.4477 10 27 10V8ZM35 10C35.5523 10 36 9.55228 36 9C36 8.44772 35.5523 8 35 8V10ZM21.6653 5.9939C22.2176 5.9939 22.6653 5.54618 22.6653 4.9939C22.6653 4.44161 22.2176 3.9939 21.6653 3.9939V5.9939ZM35.0063 31.6717H34.0063H35.0063ZM36.0063 17.8989C36.0063 17.3466 35.5586 16.8989 35.0063 16.8989C34.454 16.8989 34.0063 17.3466 34.0063 17.8989H36.0063ZM4.99377 33.1937L3.99377 33.1913V33.1937H4.99377ZM8.48523 29.0043V28.0043L8.48181 28.0043L8.48523 29.0043ZM16.0075 29.0043L16.011 28.0043H16.0075V29.0043ZM19.499 33.1937H20.499L20.499 33.1913L19.499 33.1937ZM8.66533 22.0093L7.66534 22.0106V22.0106L8.66533 22.0093ZM11.9912 18.6701L11.9885 17.6701H11.9885L11.9912 18.6701ZM15.3348 21.9915L16.3348 21.9875V21.9875L15.3348 21.9915ZM30 5V9H32V5H30ZM30 9V13H32V9H30ZM27 10H31V8H27V10ZM31 10H35V8H31V10ZM8.3285 3.9939C5.93449 3.9939 3.99377 5.93462 3.99377 8.32862H5.99377C5.99377 7.03919 7.03906 5.9939 8.3285 5.9939V3.9939ZM8.3285 5.9939H21.6653V3.9939H8.3285V5.9939ZM31.6716 36.0064C34.0656 36.0064 36.0063 34.0657 36.0063 31.6717H34.0063C34.0063 32.9611 32.961 34.0064 31.6716 34.0064V36.0064ZM36.0063 31.6717L36.0063 17.8989H34.0063L34.0063 31.6717H36.0063ZM3.99377 8.32862V14.1644H5.99377V8.32862H3.99377ZM31.6716 34.0064H25.8358V36.0064H31.6716V34.0064ZM18.6653 34.0063H5.82745V36.0063H18.6653V34.0063ZM5.82745 34.0063C5.87768 34.0063 5.92238 34.0192 5.95552 34.036C5.98694 34.052 6.002 34.0682 6.00615 34.0731C6.01268 34.081 5.99377 34.0605 5.99377 34.006H3.99377C3.99377 34.9324 4.65183 36.0063 5.82745 36.0063V34.0063ZM5.99377 34.006V33.1937H3.99377V34.006H5.99377ZM5.99377 33.1961C5.99838 31.2582 7.27418 30.0084 8.48865 30.0043L8.48181 28.0043C5.84428 28.0133 4.00016 30.5071 3.99378 33.1913L5.99377 33.1961ZM8.48523 30.0043H16.0075V28.0043H8.48523V30.0043ZM16.0041 30.0043C17.2186 30.0084 18.4944 31.2582 18.499 33.1961L20.499 33.1913C20.4926 30.5071 18.6485 28.0133 16.011 28.0043L16.0041 30.0043ZM18.499 33.1937V34.006H20.499V33.1937H18.499ZM18.499 34.006C18.499 34.0605 18.4801 34.081 18.4866 34.0731C18.4908 34.0682 18.5058 34.052 18.5372 34.036C18.5704 34.0192 18.6151 34.0063 18.6653 34.0063V36.0063C19.8409 36.0063 20.499 34.9324 20.499 34.006H18.499ZM12 24.3395C10.7118 24.3395 9.66705 23.2961 9.66533 22.0079L7.66534 22.0106C7.66852 24.4023 9.60828 26.3395 12 26.3395V24.3395ZM9.66533 22.0079C9.66363 20.7197 10.7056 19.6735 11.9938 19.6701L11.9885 17.6701C9.59678 17.6765 7.66216 19.6188 7.66534 22.0106L9.66533 22.0079ZM11.9938 19.6701C13.282 19.6667 14.3296 20.7073 14.3348 21.9955L16.3348 21.9875C16.3252 19.5958 14.3802 17.6638 11.9885 17.6701L11.9938 19.6701ZM14.3348 21.9955C14.3373 22.6163 14.0924 23.2126 13.6542 23.6524L15.0713 25.0638C15.8847 24.2471 16.3393 23.1401 16.3348 21.9875L14.3348 21.9955ZM13.6542 23.6524C13.2161 24.0923 12.6209 24.3395 12 24.3395V26.3395C13.1527 26.3395 14.2579 25.8805 15.0713 25.0638L13.6542 23.6524Z" fill="#1E2134"/>
</svg>
