<svg width="24" height="24" viewBox="0 0 24 24" fill="none" xmlns="http://www.w3.org/2000/svg">
<path fill-rule="evenodd" clip-rule="evenodd" d="M12 2.25C6.61522 2.25 2.25 6.61522 2.25 12C2.25 17.3848 6.61522 21.75 12 21.75C17.3848 21.75 21.75 17.3848 21.75 12C21.75 6.61522 17.3848 2.25 12 2.25ZM8.65479 9.07454C8.65479 7.22454 10.1558 5.7312 12.0013 5.7312C13.8479 5.7312 15.3462 7.22728 15.3462 9.07611C15.3462 10.244 14.659 11.1076 13.7308 11.7317C13.1221 12.1404 12.7497 12.5192 12.7497 13.1851V13.5089C12.7497 13.9231 12.4139 14.2589 11.9997 14.2589C11.5855 14.2589 11.2497 13.9231 11.2497 13.5089V13.1851C11.2497 11.7303 12.1884 10.9606 12.8935 10.4871C13.487 10.0875 13.8462 9.72016 13.8462 9.07611C13.8462 8.0563 13.0201 7.2312 12.0013 7.2312C10.9812 7.2312 10.1548 8.05591 10.1548 9.07454C10.1548 9.48876 9.819 9.82454 9.40479 9.82454C8.99057 9.82454 8.65479 9.48876 8.65479 9.07454ZM13.1184 17.0428C13.1184 17.6603 12.6178 18.1609 12.0004 18.1609C11.3829 18.1609 10.8823 17.6603 10.8823 17.0428C10.8823 16.4254 11.3829 15.9248 12.0004 15.9248C12.6178 15.9248 13.1184 16.4254 13.1184 17.0428Z" fill="#1E2134"/>
</svg>
