<svg width="24" height="24" viewBox="0 0 24 24" fill="none" xmlns="http://www.w3.org/2000/svg">
<path d="M14.751 2.24609C14.9497 2.24609 15.1406 2.32537 15.2812 2.46582L20.0332 7.21777C20.1738 7.35839 20.2529 7.54919 20.2529 7.74805V19.0029C20.2528 20.5219 19.0219 21.7537 17.5029 21.7539H6.49805C4.97892 21.7538 3.74716 20.5221 3.74707 19.0029V4.99707C3.74714 3.47792 4.9789 2.24616 6.49805 2.24609H14.751ZM6.49805 3.74609C5.80733 3.74616 5.24714 4.30635 5.24707 4.99707V19.0029C5.24716 19.6936 5.80734 20.2538 6.49805 20.2539H17.5029C18.1935 20.2537 18.7528 19.6935 18.7529 19.0029V8.05859L14.4404 3.74609H6.49805ZM12 7.49512C14.9633 7.49518 17.3651 9.8971 17.3652 12.8604C17.3652 14.336 16.7686 15.6716 15.8047 16.6416C15.8008 16.6457 15.7979 16.6512 15.7939 16.6553C15.7898 16.6595 15.7846 16.6629 15.7803 16.667C14.8104 17.6301 13.475 18.2256 12 18.2256C9.03662 18.2255 6.63477 15.8237 6.63477 12.8604C6.63495 9.89711 9.03674 7.4952 12 7.49512ZM8.78711 10.709C8.37465 11.3238 8.13483 12.0643 8.13477 12.8604C8.13477 14.9953 9.86505 16.7255 12 16.7256C12.796 16.7256 13.5356 16.4846 14.1504 16.0723L8.78711 10.709ZM12 8.99512C11.2035 8.99515 10.4627 9.23555 9.84766 9.64844L15.2109 15.0117C15.6237 14.3967 15.8652 13.6568 15.8652 12.8604C15.8651 10.7255 14.1348 8.99518 12 8.99512Z" fill="#1E2134"/>
</svg>
