<svg width="24" height="24" viewBox="0 0 24 24" fill="none" xmlns="http://www.w3.org/2000/svg">
<path fill-rule="evenodd" clip-rule="evenodd" d="M11.7692 2.25C9.82561 2.25 8.25 3.82561 8.25 5.76923V8.25H5.76923C3.82561 8.25 2.25 9.82561 2.25 11.7692V18.2308C2.25 20.1744 3.82561 21.75 5.76923 21.75H12.2308C14.1744 21.75 15.75 20.1744 15.75 18.2308V15.75H18.2308C20.1744 15.75 21.75 14.1744 21.75 12.2308V5.76923C21.75 3.82561 20.1744 2.25 18.2308 2.25H11.7692ZM14.25 15.75H11.7692C9.82561 15.75 8.25 14.1744 8.25 12.2308V9.75H5.76923C4.65404 9.75 3.75 10.654 3.75 11.7692V18.2308C3.75 19.346 4.65404 20.25 5.76923 20.25H12.2308C13.346 20.25 14.25 19.346 14.25 18.2308V15.75ZM9.75 5.76923C9.75 4.65404 10.654 3.75 11.7692 3.75H18.2308C19.346 3.75 20.25 4.65404 20.25 5.76923V12.2308C20.25 13.346 19.346 14.25 18.2308 14.25H11.7692C10.654 14.25 9.75 13.346 9.75 12.2308V5.76923Z" fill="#1E2134"/>
</svg>
