<svg width="16" height="16" viewBox="0 0 16 16" fill="none" xmlns="http://www.w3.org/2000/svg">
<path fill-rule="evenodd" clip-rule="evenodd" d="M8 1.5C4.41015 1.5 1.5 4.41015 1.5 8C1.5 11.5899 4.41015 14.5 8 14.5C11.5899 14.5 14.5 11.5899 14.5 8C14.5 4.41015 11.5899 1.5 8 1.5ZM8.00057 5.4907C8.41222 5.4907 8.74593 5.15699 8.74593 4.74534C8.74593 4.33369 8.41222 3.99998 8.00057 3.99998C7.58892 3.99998 7.25521 4.33369 7.25521 4.74534C7.25521 5.15699 7.58892 5.4907 8.00057 5.4907ZM7.39974 7.26664C7.39974 6.93527 7.66837 6.66664 7.99974 6.66664C8.33111 6.66664 8.59974 6.93527 8.59974 7.26664V11.4C8.59974 11.7313 8.33111 12 7.99974 12C7.66837 12 7.39974 11.7313 7.39974 11.4V7.26664Z" fill="#C2C8D5"/>
</svg>
