<svg width="24" height="24" viewBox="0 0 24 24" fill="none" xmlns="http://www.w3.org/2000/svg">
<path fill-rule="evenodd" clip-rule="evenodd" d="M7.25051 9C7.25051 6.37665 9.37715 4.25 12.0005 4.25C14.6239 4.25 16.7505 6.37665 16.7505 9C16.7505 11.4162 17.2428 13.7922 18.9255 15.7499L5.07548 15.75C6.75824 13.7922 7.25051 11.4162 7.25051 9ZM12.0005 2.75C8.54873 2.75 5.75051 5.54822 5.75051 9C5.75051 11.3843 5.23141 13.4834 3.60739 15.1311L3.60571 15.1328C3.25027 15.4957 3.15216 16.0135 3.31718 16.456C3.4928 16.927 3.94057 17.25 4.49592 17.25L19.505 17.2499H19.5051C20.0605 17.25 20.5076 16.9265 20.6833 16.4565C20.8485 16.0144 20.7513 15.4963 20.3953 15.1328L20.3937 15.1311C18.7696 13.4834 18.2505 11.3843 18.2505 9C18.2505 5.54822 15.4523 2.75 12.0005 2.75ZM10.3067 18.9974C10.0291 18.69 9.55484 18.6657 9.24739 18.9433C8.93993 19.2209 8.9157 19.6951 9.19327 20.0026C9.91022 20.7967 10.9301 21.25 12 21.25C13.0699 21.25 14.0897 20.7967 14.8067 20.0026C15.0842 19.6951 15.06 19.2209 14.7525 18.9433C14.4451 18.6657 13.9708 18.69 13.6933 18.9974C13.2607 19.4765 12.6455 19.75 12 19.75C11.3545 19.75 10.7392 19.4765 10.3067 18.9974Z" fill="#1E2134"/>
</svg>
