<svg width="24" height="24" viewBox="0 0 24 24" fill="none" xmlns="http://www.w3.org/2000/svg">
<path d="M11.1072 5.70962L11.9897 7.72165C12.7752 9.51208 14.1888 10.9374 15.9522 11.7165L18.3814 12.7898C19.1537 13.131 19.1537 14.2493 18.3814 14.5905L16.028 15.6303C14.2193 16.4295 12.7803 17.9075 12.0083 19.7591L11.1143 21.9032C10.7826 22.6989 9.67806 22.6989 9.34633 21.9032L8.45233 19.7591C7.68034 17.9075 6.24131 16.4295 4.43259 15.6303L2.07925 14.5905C1.30692 14.2493 1.30692 13.131 2.07925 12.7898L4.50846 11.7165C6.27184 10.9374 7.68551 9.51208 8.47091 7.72165L9.35347 5.70962C9.69271 4.93631 10.7679 4.93631 11.1072 5.70962ZM19.9433 0.810858L20.1914 1.37707C20.6339 2.38659 21.4308 3.19042 22.4252 3.63013L23.1898 3.96833C23.6034 4.1512 23.6034 4.74944 23.1898 4.93231L22.468 5.2516C21.448 5.70261 20.6368 6.53617 20.2019 7.58002L19.9471 8.19188C19.7694 8.61827 19.1771 8.61827 18.9994 8.19188L18.7446 7.58002C18.3098 6.53617 17.4986 5.70261 16.4786 5.2516L15.7567 4.93231C15.3432 4.74944 15.3432 4.1512 15.7567 3.96833L16.5214 3.63013C17.5158 3.19042 18.3126 2.38659 18.7551 1.37707L19.0034 0.810858C19.185 0.396381 19.7616 0.396381 19.9433 0.810858Z" fill="#1E2134"/>
</svg>
