<svg width="40" height="40" viewBox="0 0 40 40" fill="none" xmlns="http://www.w3.org/2000/svg">
<path d="M19.9997 36.6663H30.2609C30.8132 36.6663 31.2609 36.2186 31.2609 35.6663V25.2118M19.9997 36.6663H9.73841C9.18613 36.6663 8.73841 36.2186 8.73841 35.6663V25.2118M19.9997 36.6663V25.2118M8.73841 25.2118L4.14817 20.4436C3.8424 20.126 4.0675 19.5968 4.50838 19.5968H13.9556C14.2204 19.5968 14.4743 19.7018 14.6618 19.8887L19.9997 25.2118M8.73841 25.2118H19.9997M31.2609 25.2118L35.8512 20.4436C36.1569 20.126 35.9318 19.5968 35.491 19.5968H26.0437C25.779 19.5968 25.525 19.7018 25.3376 19.8887L19.9997 25.2118M31.2609 25.2118H19.9997M19.7663 18.0732V14.6103M19.7663 14.6103C19.7663 14.6103 24.6953 14.3497 27.1425 12.1845C30.3171 9.37567 28.2258 2.9065 20.7933 3.35521M19.7663 14.6103C19.7663 6.13033 13.4254 5.11129 11.0164 7.79913C8.84262 10.2245 10.6146 15.3088 19.7663 14.6103Z" stroke="#1E2134" stroke-width="2" stroke-linecap="round"/>
</svg>
