<svg width="40" height="40" viewBox="0 0 40 40" fill="none" xmlns="http://www.w3.org/2000/svg">
<path d="M35.0237 4.30956L35.7308 3.60246L35.7308 3.60246L35.0237 4.30956ZM35.0237 9.02361L35.7308 9.73072L35.7308 9.73072L35.0237 9.02361ZM30.3096 9.02361L29.6025 9.73072L29.6025 9.73072L30.3096 9.02361ZM30.3096 4.30956L29.6025 3.60246L29.6025 3.60246L30.3096 4.30956ZM4 19C3.44772 19 3 19.4477 3 20C3 20.5523 3.44772 21 4 21V19ZM20 21C20.5523 21 21 20.5523 21 20C21 19.4477 20.5523 19 20 19V21ZM13.3079 25.2911C12.9174 25.6817 12.9174 26.3148 13.3079 26.7053C13.6984 27.0959 14.3316 27.0959 14.7221 26.7053L13.3079 25.2911ZM20 20.0132L20.7071 20.7203C20.8947 20.5328 21 20.2785 21 20.0132C21 19.748 20.8947 19.4937 20.7071 19.3061L20 20.0132ZM14.7221 13.3211C14.3316 12.9306 13.6984 12.9306 13.3079 13.3211C12.9174 13.7117 12.9174 14.3448 13.3079 14.7353L14.7221 13.3211ZM23.7462 5.76703C24.2803 5.90722 24.8271 5.58782 24.9672 5.05363C25.1074 4.51943 24.788 3.97273 24.2538 3.83254L23.7462 5.76703ZM36.1675 15.7462C36.0273 15.212 35.4806 14.8926 34.9464 15.0328C34.4122 15.1729 34.0928 15.7196 34.233 16.2538L36.1675 15.7462ZM4.57765 13.547C4.36427 14.0564 4.60424 14.6423 5.11364 14.8557C5.62304 15.0691 6.20897 14.8291 6.42235 14.3197L4.57765 13.547ZM6.42235 25.6803C6.20897 25.1709 5.62304 24.9309 5.11364 25.1443C4.60424 25.3577 4.36427 25.9436 4.57765 26.453L6.42235 25.6803ZM34.3166 5.01667C35.2278 5.92789 35.2278 7.40528 34.3166 8.31651L35.7308 9.73072C37.4231 8.03845 37.4231 5.29473 35.7308 3.60246L34.3166 5.01667ZM34.3166 8.31651C33.4053 9.22773 31.928 9.22773 31.0167 8.31651L29.6025 9.73072C31.2948 11.423 34.0385 11.423 35.7308 9.73072L34.3166 8.31651ZM31.0167 8.31651C30.1055 7.40528 30.1055 5.9279 31.0167 5.01667L29.6025 3.60246C27.9102 5.29473 27.9102 8.03845 29.6025 9.73072L31.0167 8.31651ZM31.0167 5.01667C31.928 4.10545 33.4053 4.10545 34.3166 5.01667L35.7308 3.60246C34.0385 1.91018 31.2948 1.91018 29.6025 3.60246L31.0167 5.01667ZM4 21H20V19H4V21ZM14.7221 26.7053L20.7071 20.7203L19.2929 19.3061L13.3079 25.2911L14.7221 26.7053ZM20.7071 19.3061L14.7221 13.3211L13.3079 14.7353L19.2929 20.7203L20.7071 19.3061ZM34.7139 20C34.7139 28.1262 28.1262 34.7139 20 34.7139V36.7139C29.2308 36.7139 36.7139 29.2308 36.7139 20H34.7139ZM20 5.28613C21.2959 5.28613 22.5512 5.45341 23.7462 5.76703L24.2538 3.83254C22.8946 3.47581 21.4687 3.28613 20 3.28613V5.28613ZM34.233 16.2538C34.5466 17.4488 34.7139 18.7041 34.7139 20H36.7139C36.7139 18.5313 36.5242 17.1054 36.1675 15.7462L34.233 16.2538ZM6.42235 14.3197C8.64571 9.01187 13.8889 5.28613 20 5.28613V3.28613C13.0549 3.28613 7.10148 7.52187 4.57765 13.547L6.42235 14.3197ZM20 34.7139C13.8889 34.7139 8.64571 30.9881 6.42235 25.6803L4.57765 26.453C7.10148 32.4781 13.0549 36.7139 20 36.7139V34.7139Z" fill="#1E2134"/>
</svg>
