<svg width="24" height="24" viewBox="0 0 24 24" fill="none" xmlns="http://www.w3.org/2000/svg">
<path fill-rule="evenodd" clip-rule="evenodd" d="M12.75 4C12.75 3.58579 12.4142 3.25 12 3.25C11.5858 3.25 11.25 3.58579 11.25 4V20C11.25 20.4142 11.5858 20.75 12 20.75C12.4142 20.75 12.75 20.4142 12.75 20V4ZM4.89594 7.78119C5.18883 7.4883 5.66371 7.4883 5.9566 7.78119L9.62966 11.4543C9.77453 11.591 9.86495 11.7848 9.86495 11.9998C9.86495 12.1073 9.8423 12.2096 9.80152 12.3021C9.7651 12.3849 9.71297 12.4625 9.64513 12.5304L5.9566 16.2189C5.66371 16.5118 5.18883 16.5118 4.89594 16.2189C4.60305 15.926 4.60305 15.4511 4.89594 15.1583L7.30444 12.7498L2.00342 12.7498C1.5892 12.7498 1.25342 12.414 1.25342 11.9998C1.25342 11.5855 1.5892 11.2498 2.00342 11.2498L7.30384 11.2498L4.89594 8.84185C4.60305 8.54896 4.60305 8.07409 4.89594 7.78119ZM19.1041 8.8421L16.6962 11.25L21.9963 11.25C22.4105 11.25 22.7463 11.5858 22.7463 12C22.7463 12.4142 22.4105 12.75 21.9963 12.75L16.6956 12.75L19.1041 15.1585C19.397 15.4514 19.397 15.9263 19.1041 16.2192C18.8112 16.5121 18.3363 16.5121 18.0435 16.2192L14.3646 12.5403C14.2229 12.4039 14.1348 12.2122 14.1348 12C14.1348 11.7825 14.2274 11.5866 14.3753 11.4496L18.0435 7.78144C18.3363 7.48854 18.8112 7.48854 19.1041 7.78144C19.397 8.07433 19.397 8.5492 19.1041 8.8421Z" fill="#1E2134"/>
</svg>
