<svg width="24" height="24" viewBox="0 0 24 24" fill="none" xmlns="http://www.w3.org/2000/svg">
<path fill-rule="evenodd" clip-rule="evenodd" d="M19.2806 5.78009C19.5735 5.48719 19.5735 5.01232 19.2806 4.71943C18.9877 4.42653 18.5129 4.42653 18.22 4.71943L11.9999 10.9395L5.77984 4.71943C5.48695 4.42653 5.01207 4.42653 4.71918 4.71943C4.42629 5.01232 4.42629 5.48719 4.71918 5.78009L10.9392 12.0001L4.71918 18.2202C4.42629 18.5131 4.42629 18.988 4.71918 19.2809C5.01207 19.5738 5.48695 19.5738 5.77984 19.2809L11.9999 13.0608L18.22 19.2809C18.5129 19.5738 18.9877 19.5738 19.2806 19.2809C19.5735 18.988 19.5735 18.5131 19.2806 18.2202L13.0606 12.0001L19.2806 5.78009Z" fill="#1E2134"/>
</svg>
