<svg width="24" height="24" viewBox="0 0 24 24" fill="none" xmlns="http://www.w3.org/2000/svg">
<path d="M3.52699 10.1962H6.06892V20.6036H3.52699C3.30227 20.6036 3.08676 20.5122 2.92786 20.3496C2.76896 20.1869 2.67969 19.9663 2.67969 19.7363V11.0635C2.67969 10.8335 2.76896 10.6129 2.92786 10.4502C3.08676 10.2876 3.30227 10.1962 3.52699 10.1962V10.1962ZM8.01179 9.07479L13.4346 3.52418C13.5066 3.4502 13.6024 3.40533 13.7042 3.39784C13.806 3.39036 13.907 3.42074 13.9887 3.48342L14.7115 4.03848C14.9122 4.19272 15.0638 4.40434 15.1472 4.64667C15.2306 4.88899 15.242 5.15116 15.18 5.40011L14.2031 9.32891H19.6258C20.0753 9.32891 20.5063 9.51165 20.8241 9.83695C21.1419 10.1622 21.3204 10.6034 21.3204 11.0635V12.8882C21.3207 13.1149 21.2775 13.3394 21.1934 13.5491L18.5709 20.0667C18.507 20.2256 18.3983 20.3615 18.2588 20.4571C18.1192 20.5527 17.9551 20.6037 17.7872 20.6036H8.61084C8.38612 20.6036 8.1706 20.5122 8.0117 20.3496C7.8528 20.1869 7.76353 19.9663 7.76353 19.7363V9.68796C7.76358 9.45796 7.85288 9.2374 8.01179 9.07479Z" fill="#1E2134"/>
</svg>
