<svg width="40" height="40" viewBox="0 0 40 40" fill="none" xmlns="http://www.w3.org/2000/svg">
<path d="M32 5C32 4.44772 31.5523 4 31 4C30.4477 4 30 4.44772 30 5H32ZM30 13C30 13.5523 30.4477 14 31 14C31.5523 14 32 13.5523 32 13H30ZM27 8C26.4477 8 26 8.44772 26 9C26 9.55228 26.4477 10 27 10V8ZM35 10C35.5523 10 36 9.55228 36 9C36 8.44772 35.5523 8 35 8V10ZM21.6653 5.9939C22.2176 5.9939 22.6653 5.54618 22.6653 4.9939C22.6653 4.44161 22.2176 3.9939 21.6653 3.9939V5.9939ZM35.0063 31.6717L34.0063 31.6717V31.6717H35.0063ZM36.0063 17.8989C36.0063 17.3466 35.5586 16.8989 35.0063 16.8989C34.454 16.8989 34.0063 17.3466 34.0063 17.8989L36.0063 17.8989ZM3.99377 14.1644C3.99377 14.7167 4.44149 15.1644 4.99377 15.1644C5.54606 15.1644 5.99377 14.7167 5.99377 14.1644H3.99377ZM25.8358 34.0064C25.2835 34.0064 24.8358 34.4541 24.8358 35.0064C24.8358 35.5587 25.2835 36.0064 25.8358 36.0064V34.0064ZM20 22H21C21 21.4477 20.5523 21 20 21V22ZM19 24C19 24.5523 19.4477 25 20 25C20.5523 25 21 24.5523 21 24H19ZM14.5 24C14.5 24.5523 14.9477 25 15.5 25C16.0523 25 16.5 24.5523 16.5 24H14.5ZM16.5 22C16.5 21.4477 16.0523 21 15.5 21C14.9477 21 14.5 21.4477 14.5 22H16.5ZM20 32H21C21 31.4477 20.5523 31 20 31V32ZM19 34C19 34.5523 19.4477 35 20 35C20.5523 35 21 34.5523 21 34H19ZM14.5 34C14.5 34.5523 14.9477 35 15.5 35C16.0523 35 16.5 34.5523 16.5 34H14.5ZM16.5 32C16.5 31.4477 16.0523 31 15.5 31C14.9477 31 14.5 31.4477 14.5 32H16.5ZM30 5V9H32V5H30ZM30 9V13H32V9H30ZM27 10H31V8H27V10ZM31 10H35V8H31V10ZM8.3285 3.9939C5.93449 3.9939 3.99377 5.93462 3.99377 8.32862H5.99377C5.99377 7.03919 7.03906 5.9939 8.3285 5.9939V3.9939ZM8.3285 5.9939H21.6653V3.9939H8.3285V5.9939ZM31.6716 36.0064C34.0656 36.0064 36.0063 34.0657 36.0063 31.6717H34.0063C34.0063 32.9611 32.961 34.0064 31.6716 34.0064V36.0064ZM36.0063 31.6717L36.0063 17.8989L34.0063 17.8989L34.0063 31.6717L36.0063 31.6717ZM3.99377 8.32862V14.1644H5.99377V8.32862H3.99377ZM31.6716 34.0064H25.8358V36.0064H31.6716V34.0064ZM10 22C10 23.1046 9.1046 24 8.00003 24L8.00003 26C10.2092 26 12 24.2091 12 22L10 22ZM8.00003 24C6.89546 24 6.00003 23.1046 6.00003 22L4.00003 22C4.00003 24.2091 5.79089 26 8.00003 26L8.00003 24ZM6.00003 22C6.00003 20.8954 6.89546 20 8.00003 20L8.00003 18C5.79089 18 4.00003 19.7909 4.00003 22L6.00003 22ZM8.00003 20C9.1046 20 10 20.8954 10 22L12 22C12 19.7909 10.2092 18 8.00003 18L8.00003 20ZM20 21H11V23H20V21ZM21 24V22H19V24H21ZM16.5 24V22H14.5V24H16.5ZM10 32C10 33.1046 9.1046 34 8.00003 34L8.00003 36C10.2092 36 12 34.2091 12 32L10 32ZM8.00003 34C6.89546 34 6.00003 33.1046 6.00003 32L4.00003 32C4.00003 34.2091 5.79089 36 8.00003 36L8.00003 34ZM6.00003 32C6.00003 30.8954 6.89546 30 8.00003 30L8.00003 28C5.79089 28 4.00003 29.7909 4.00003 32L6.00003 32ZM8.00003 30C9.1046 30 10 30.8954 10 32L12 32C12 29.7909 10.2092 28 8.00003 28L8.00003 30ZM20 31H11V33H20V31ZM21 34V32H19V34H21ZM16.5 34V32H14.5V34H16.5Z" fill="#1E2134"/>
</svg>
