<svg width="40" height="40" viewBox="0 0 40 40" fill="none" xmlns="http://www.w3.org/2000/svg">
<path d="M5 26.6667C13.2843 21.1111 26.7157 21.1111 35 26.6667M20 5H10C7.23858 5 5 7.23858 5 10V30C5 32.7614 7.23858 35 10 35H30C32.7614 35 35 32.7614 35 30V20M28.9033 5.6503C29.1225 5.24936 29.5431 5 30 5C30.457 5 30.8775 5.24936 31.0968 5.6503L32.0711 7.43197C32.1858 7.64175 32.3583 7.81422 32.5681 7.92893L34.3497 8.90327C34.7507 9.1225 35 9.54305 35 10C35 10.457 34.7507 10.8775 34.3497 11.0968L32.5681 12.0711C32.3583 12.1858 32.1858 12.3583 32.0711 12.5681L31.0968 14.3497C30.8775 14.7507 30.457 15 30 15C29.5431 15 29.1225 14.7507 28.9033 14.3497L27.9289 12.5681C27.8142 12.3583 27.6417 12.1858 27.432 12.0711L25.6503 11.0968C25.2494 10.8775 25 10.457 25 10C25 9.54305 25.2494 9.1225 25.6503 8.90327L27.432 7.92893C27.6417 7.81422 27.8142 7.64175 27.9289 7.43197L28.9033 5.6503ZM14.1674 13.3333C14.1674 12.8728 13.7941 12.4996 13.3337 12.4996C12.8733 12.4996 12.5 12.8728 12.5 13.3333C12.5 13.7937 12.8733 14.167 13.3337 14.167C13.7941 14.167 14.1674 13.7937 14.1674 13.3333Z" stroke="#1E2134" stroke-width="2" stroke-linecap="round" stroke-linejoin="round"/>
</svg>
