<svg width="24" height="24" viewBox="0 0 24 24" fill="none" xmlns="http://www.w3.org/2000/svg">
<path d="M18.2859 8.85725C20.0217 8.85725 21.4288 7.45014 21.4288 5.71439C21.4288 3.97864 20.0217 2.57153 18.2859 2.57153C16.5502 2.57153 15.1431 3.97864 15.1431 5.71439C15.1431 5.97533 15.1749 6.22885 15.2348 6.47127L8.15002 10.0137C7.57369 9.30787 6.69667 8.85725 5.71439 8.85725C3.97864 8.85725 2.57153 10.2644 2.57153 12.0001C2.57153 13.7359 3.97864 15.143 5.71439 15.143C6.69666 15.143 7.57369 14.6923 8.15001 13.9865L15.2348 17.5289C15.1749 17.7714 15.1431 18.0249 15.1431 18.2858C15.1431 20.0216 16.5502 21.4287 18.2859 21.4287C20.0217 21.4287 21.4288 20.0216 21.4288 18.2858C21.4288 16.5501 20.0217 15.143 18.2859 15.143C17.3037 15.143 16.4266 15.5936 15.8503 16.2994L8.76551 12.757C8.82545 12.5146 8.85725 12.261 8.85725 12.0001C8.85725 11.7392 8.82545 11.4856 8.76551 11.2432L15.8503 7.70082C16.4266 8.40662 17.3037 8.85725 18.2859 8.85725Z" fill="#1E2134"/>
</svg>
