<svg width="24" height="24" viewBox="0 0 24 24" fill="none" xmlns="http://www.w3.org/2000/svg">
<path fill-rule="evenodd" clip-rule="evenodd" d="M12 3.75C7.44021 3.75 3.75 7.44021 3.75 12C3.75 13.3239 4.08241 14.5683 4.64516 15.6883C4.83113 16.0584 4.68185 16.5092 4.31173 16.6952C3.94162 16.8811 3.49082 16.7319 3.30484 16.3617C2.64759 15.0537 2.25 13.5801 2.25 12C2.25 6.61179 6.61179 2.25 12 2.25C17.3882 2.25 21.75 6.61179 21.75 12C21.75 13.5774 21.3547 15.0528 20.6922 16.3617C20.5051 16.7313 20.0539 16.8792 19.6843 16.6922C19.3147 16.5051 19.1668 16.0538 19.3538 15.6843C19.9193 14.5672 20.25 13.3226 20.25 12C20.25 7.44021 16.5598 3.75 12 3.75ZM7.14095 18.5789C8.48947 19.6286 10.164 20.25 11.977 20.25C13.8109 20.25 15.5057 19.6138 16.859 18.542C15.5105 17.4923 13.836 16.871 12.023 16.871C10.1891 16.871 8.49434 17.5072 7.14095 18.5789ZM5.47726 18.0462C7.17849 16.3926 9.48621 15.371 12.023 15.371C14.5351 15.371 16.8176 16.3722 18.5177 17.9943C18.6652 18.135 18.749 18.3297 18.75 18.5335C18.7509 18.7373 18.6689 18.9327 18.5227 19.0748C16.8215 20.7283 14.5138 21.75 11.977 21.75C9.4649 21.75 7.18239 20.7487 5.48227 19.1266C5.3348 18.9859 5.25095 18.7913 5.25001 18.5874C5.24906 18.3836 5.33111 18.1882 5.47726 18.0462ZM10.409 8.40901C11.2877 7.53033 12.7123 7.53033 13.591 8.40901C14.4697 9.28768 14.4697 10.7123 13.591 11.591C12.7123 12.4697 11.2877 12.4697 10.409 11.591C9.53033 10.7123 9.53033 9.28768 10.409 8.40901ZM9.34835 7.34835C10.8128 5.88388 13.1872 5.88388 14.6516 7.34835C16.1161 8.81281 16.1161 11.1872 14.6516 12.6516C13.1872 14.1161 10.8128 14.1161 9.34835 12.6516C7.88388 11.1872 7.88388 8.81281 9.34835 7.34835Z" fill="#1E2134"/>
</svg>
