<svg width="24" height="24" viewBox="0 0 24 24" fill="none" xmlns="http://www.w3.org/2000/svg">
<path fill-rule="evenodd" clip-rule="evenodd" d="M20.4855 4.22177C18.4352 2.17152 15.1111 2.17152 13.0609 4.22177L11.6467 5.63598C11.3538 5.92888 11.3538 6.40375 11.6467 6.69664C11.9395 6.98954 12.4144 6.98954 12.7073 6.69664L14.1215 5.28243C15.586 3.81797 17.9604 3.81797 19.4248 5.28243C20.8893 6.7469 20.8893 9.12127 19.4248 10.5857L16.2428 13.7677C14.9736 15.0369 12.9159 15.0369 11.6467 13.7677L10.586 12.7071C10.2931 12.4142 9.81823 12.4142 9.52533 12.7071C9.23244 12.9999 9.23244 13.4748 9.52533 13.7677L10.586 14.8284C12.441 16.6834 15.4485 16.6834 17.3035 14.8284L20.4855 11.6464C22.5357 9.59614 22.5357 6.27202 20.4855 4.22177ZM7.75738 10.2322C9.02658 8.96297 11.0844 8.96297 12.3536 10.2322L13.4142 11.2928C13.7071 11.5857 14.182 11.5857 14.4749 11.2928C14.7678 10.9999 14.7678 10.5251 14.4749 10.2322L13.4142 9.17152C11.5592 7.31653 8.55171 7.31653 6.69672 9.17152L3.51474 12.3535C1.46449 14.4037 1.46449 17.7279 3.51474 19.7781C5.56499 21.8284 8.88911 21.8284 10.9394 19.7781L12.3536 18.3639C12.6465 18.071 12.6465 17.5961 12.3536 17.3032C12.0607 17.0104 11.5858 17.0104 11.2929 17.3032L9.8787 18.7175C8.41423 20.1819 6.03987 20.1819 4.5754 18.7175C3.11093 17.253 3.11093 14.8786 4.5754 13.4142L7.75738 10.2322Z" fill="#1E2134"/>
</svg>
