<svg width="24" height="24" viewBox="0 0 24 24" fill="none" xmlns="http://www.w3.org/2000/svg">
<path d="M20.2336 14.0584C19.0968 14.0584 18.1752 13.1369 18.1752 12C18.1752 10.8632 19.0968 9.94165 20.2336 9.94165C21.3704 9.94165 22.292 10.8632 22.292 12C22.292 13.1369 21.3704 14.0584 20.2336 14.0584Z" fill="#1E2134"/>
<path d="M12 14.0584C10.8632 14.0584 9.94163 13.1369 9.94163 12C9.94163 10.8632 10.8632 9.94165 12 9.94165C13.1368 9.94165 14.0584 10.8632 14.0584 12C14.0584 13.1369 13.1368 14.0584 12 14.0584Z" fill="#1E2134"/>
<path d="M3.76645 14.0584C2.62964 14.0584 1.70806 13.1369 1.70806 12C1.70806 10.8632 2.62964 9.94165 3.76646 9.94165C4.90327 9.94165 5.82485 10.8632 5.82485 12C5.82485 13.1369 4.90327 14.0584 3.76645 14.0584Z" fill="#1E2134"/>
</svg>
