<svg width="24" height="24" viewBox="0 0 24 24" fill="none" xmlns="http://www.w3.org/2000/svg">
<path d="M15.2925 6.29844C14.7958 6.01166 14.4119 5.54129 14.3344 4.97299L14.1552 3.65926C14.0996 3.25151 13.7514 2.94751 13.3398 2.94751L10.6618 2.94751C10.2503 2.94751 9.90202 3.25151 9.84641 3.65926L9.6673 4.97276C9.58976 5.54139 9.20804 6.00993 8.71066 6.29622C8.21372 6.58225 7.61188 6.68218 7.08114 6.46521L5.85479 5.96388C5.47387 5.80815 5.03647 5.95776 4.8307 6.31415L3.49169 8.6334C3.28592 8.98979 3.37506 9.44339 3.70038 9.69542L4.74774 10.5068C5.201 10.858 5.41538 11.4291 5.41614 12.0025C5.4169 12.5764 5.20199 13.1412 4.74832 13.4926L3.70036 14.3045C3.37503 14.5565 3.28589 15.0101 3.49166 15.3665L4.83067 17.6858C5.03644 18.0422 5.47384 18.1918 5.85477 18.0361L7.08195 17.5344C7.6129 17.3173 8.21225 17.4147 8.709 17.7015C9.20581 17.9883 9.58981 18.4587 9.66732 19.0271L9.84641 20.3405C9.90202 20.7482 10.2503 21.0522 10.6618 21.0522L13.3398 21.0522C13.7514 21.0522 14.0996 20.7482 14.1552 20.3405L14.3343 19.027C14.4119 18.4584 14.7936 17.9899 15.2909 17.7037C15.7878 17.4176 16.3896 17.3177 16.9203 17.5347L18.1467 18.036C18.5277 18.1918 18.9651 18.0421 19.1708 17.6858L20.5098 15.3665C20.7156 15.0101 20.6265 14.5565 20.3011 14.3045L19.2538 13.4931C18.8005 13.1419 18.5861 12.5708 18.5854 11.9974C18.5846 11.4236 18.7995 10.8587 19.2532 10.5073L20.3011 9.69546C20.6264 9.44342 20.7156 8.98982 20.5098 8.63343L19.1708 6.31418C18.965 5.95779 18.5276 5.80818 18.1467 5.96391L16.9197 6.46552C16.3887 6.68259 15.7893 6.58526 15.2925 6.29844Z" stroke="#1E2134" stroke-width="1.5" stroke-linecap="round" stroke-linejoin="round"/>
<path d="M14.1388 13.2343C13.4571 14.4152 11.9472 14.8197 10.7664 14.138C9.58555 13.4562 9.18097 11.9463 9.86271 10.7655C10.5445 9.58469 12.0544 9.18011 13.2352 9.86186C14.416 10.5436 14.8206 12.0535 14.1388 13.2343Z" stroke="#1E2134" stroke-width="1.5" stroke-linecap="round" stroke-linejoin="round"/>
</svg>
