<svg width="40" height="40" viewBox="0 0 40 40" fill="none" xmlns="http://www.w3.org/2000/svg">
<path fill-rule="evenodd" clip-rule="evenodd" d="M22.5076 4.47692C22.5331 4.4318 22.5907 4.3916 22.6667 4.3916C22.7426 4.3916 22.8002 4.4318 22.8257 4.47692L22.8257 4.47696L23.5473 5.75586C23.704 6.03357 23.9376 6.25844 24.2173 6.40673L24.2174 6.40674L25.5369 7.10613L25.5369 7.10615C25.596 7.13749 25.6197 7.18886 25.6197 7.23073C25.6197 7.27261 25.596 7.32397 25.5369 7.35532L25.5369 7.35534L24.2174 8.05473L24.2173 8.05474C23.9376 8.20302 23.704 8.42788 23.5473 8.70559L23.5473 8.70561L22.8257 9.98451L22.8257 9.98455C22.8002 10.0297 22.7426 10.0699 22.6667 10.0699C22.5907 10.0699 22.5331 10.0297 22.5076 9.98455L22.5076 9.98451L21.786 8.70561L21.786 8.70559C21.6293 8.42788 21.3958 8.20303 21.116 8.05474L21.1159 8.05473L19.7964 7.35534L19.7964 7.35532C19.7373 7.32398 19.7136 7.27261 19.7136 7.23073C19.7136 7.18885 19.7373 7.13749 19.7964 7.10615L19.7964 7.10613L21.1159 6.40674L21.116 6.40673C21.3958 6.25844 21.6293 6.03358 21.786 5.75588L21.786 5.75586L22.5076 4.47696L22.5076 4.47692ZM22.6667 2.8916C22.0657 2.8916 21.5005 3.20938 21.2012 3.73985L21.2012 3.73989L20.4796 5.01877L20.4796 5.01879C20.4663 5.04224 20.4444 5.06499 20.4135 5.08138L20.4135 5.08139L19.094 5.78077L19.094 5.78079C18.5592 6.0642 18.2136 6.61658 18.2136 7.23073C18.2136 7.84488 18.5592 8.39727 19.094 8.68067L19.094 8.68069L20.4135 9.38007L20.4135 9.38009C20.4444 9.39648 20.4663 9.41922 20.4796 9.44267L20.4796 9.44269L21.2012 10.7216L21.2012 10.7216C21.5005 11.2521 22.0657 11.5699 22.6667 11.5699C23.2676 11.5699 23.8328 11.2521 24.1321 10.7216L24.1321 10.7216L24.8537 9.44269L24.8537 9.44267C24.867 9.41923 24.8889 9.39648 24.9198 9.38009L24.9198 9.38007L26.2393 8.68069L26.2393 8.68067C26.7741 8.39727 27.1197 7.84489 27.1197 7.23073C27.1197 6.61658 26.7741 6.06419 26.2393 5.78079L26.2393 5.78077L24.9198 5.08139L24.9198 5.08138C24.8889 5.06499 24.867 5.04224 24.8537 5.01879L24.8537 5.01877L24.1321 3.73989C23.8329 3.20939 23.2676 2.8916 22.6667 2.8916ZM3.99999 7C3.99999 5.34315 5.34314 4 6.99999 4H15C15.5523 4 16 4.44772 16 5C16 5.55228 15.5523 6 15 6H6.99999C6.44771 6 5.99999 6.44772 5.99999 7V17.2834C8.68304 15.9549 11.8593 15.3077 15 15.3077C18.1407 15.3077 21.317 15.9549 24 17.2834V15C24 14.4477 24.4477 14 25 14C25.5523 14 26 14.4477 26 15V19V23C26 24.6569 24.6568 26 23 26H16V33C16 33.5523 16.4477 34 17 34H33C33.5523 34 34 33.5523 34 33V17C34 16.4477 33.5523 16 33 16H29C28.4477 16 28 15.5523 28 15C28 14.4477 28.4477 14 29 14H33C34.6568 14 36 15.3431 36 17V33C36 34.6569 34.6569 36 33 36H17C15.3431 36 14 34.6569 14 33V26H7C5.34314 26 3.99999 24.6569 3.99999 23V19.0162C3.99984 19.006 3.99984 18.9958 3.99999 18.9856V7ZM5.99999 19.5563V23C5.99999 23.5523 6.44771 24 7 24H15H23C23.5523 24 24 23.5523 24 23V19.5563C21.4926 18.0736 18.269 17.3077 15 17.3077C11.731 17.3077 8.50742 18.0736 5.99999 19.5563ZM9.32488 10.3846C9.32488 9.68914 9.89946 9.16724 10.5558 9.16724C11.2121 9.16724 11.7867 9.68914 11.7867 10.3846C11.7867 11.0801 11.2121 11.602 10.5558 11.602C9.89946 11.602 9.32488 11.0801 9.32488 10.3846Z" fill="#1E2134"/>
</svg>
