<svg width="24" height="24" viewBox="0 0 24 24" fill="none" xmlns="http://www.w3.org/2000/svg">
<path fill-rule="evenodd" clip-rule="evenodd" d="M12 2.25C6.61522 2.25 2.25 6.61522 2.25 12C2.25 17.3848 6.61522 21.75 12 21.75C17.3848 21.75 21.75 17.3848 21.75 12C21.75 6.61522 17.3848 2.25 12 2.25ZM12.0009 8.23605C12.6183 8.23605 13.1189 7.73549 13.1189 7.11801C13.1189 6.50053 12.6183 5.99997 12.0009 5.99997C11.3834 5.99997 10.8828 6.50053 10.8828 7.11801C10.8828 7.73549 11.3834 8.23605 12.0009 8.23605ZM11.0996 10.9C11.0996 10.4029 11.5026 9.99997 11.9996 9.99997C12.4967 9.99997 12.8996 10.4029 12.8996 10.9V17.1C12.8996 17.597 12.4967 18 11.9996 18C11.5026 18 11.0996 17.597 11.0996 17.1V10.9Z" fill="#1E2134"/>
</svg>
