<svg width="24" height="24" viewBox="0 0 24 24" fill="none" xmlns="http://www.w3.org/2000/svg">
<path fill-rule="evenodd" clip-rule="evenodd" d="M18.2808 6.77984C18.5737 6.48695 18.5737 6.01207 18.2808 5.71918C17.9879 5.42629 17.513 5.42629 17.2201 5.71918L12 10.9393L6.77984 5.71918C6.48695 5.42629 6.01207 5.42629 5.71918 5.71918C5.42629 6.01207 5.42629 6.48695 5.71918 6.77984L10.9393 12L5.71918 17.2201C5.42629 17.513 5.42629 17.9879 5.71918 18.2808C6.01207 18.5737 6.48695 18.5737 6.77984 18.2808L12 13.0606L17.2201 18.2808C17.513 18.5737 17.9879 18.5737 18.2808 18.2808C18.5737 17.9879 18.5737 17.513 18.2808 17.2201L13.0606 12L18.2808 6.77984Z" fill="#1E2134"/>
</svg>
