<svg width="24" height="24" viewBox="0 0 24 24" fill="none" xmlns="http://www.w3.org/2000/svg">
<path fill-rule="evenodd" clip-rule="evenodd" d="M11.2969 3.90062C11.2969 7.1746 11.2969 10.4487 11.2969 13.7224L8.46454 13.093C7.92837 12.9738 7.54689 12.4983 7.54688 11.9491V11.2365C8.49776 10.9378 9.1875 10.0494 9.1875 9C9.1875 7.70558 8.13817 6.65625 6.84375 6.65625C5.54933 6.65625 4.5 7.70558 4.5 9C4.5 10.0494 5.18974 10.9378 6.14062 11.2365V11.9491C6.14065 13.1574 6.9799 14.2036 8.15948 14.4658L11.2969 15.163V15.644C9.95311 15.9615 8.95312 17.1686 8.95312 18.6094C8.95312 20.2921 10.3173 21.6562 12 21.6562C13.6827 21.6562 15.0469 20.2921 15.0469 18.6094C15.0469 17.1686 14.0469 15.9615 12.7031 15.644C12.7031 14.9787 12.7031 14.3134 12.7031 13.6481L16.0221 12.6525C17.1126 12.3253 17.8594 11.3216 17.8594 10.1831V9.9375H18.7969C19.1852 9.9375 19.5 9.6227 19.5 9.23438V5.95312C19.5 5.5648 19.1852 5.25 18.7969 5.25H15.5156C15.1273 5.25 14.8125 5.5648 14.8125 5.95312V9.23438C14.8125 9.6227 15.1273 9.9375 15.5156 9.9375H16.4531V10.1831C16.4531 10.7006 16.1137 11.1568 15.618 11.3055L12.7031 12.18V3.90062L13.6122 4.80968C13.8868 5.08427 14.332 5.08427 14.6066 4.80968C14.8811 4.5351 14.8811 4.0899 14.6066 3.81532L12.4972 1.70594C12.4298 1.63853 12.3521 1.58766 12.2691 1.55335C12.1862 1.51897 12.0953 1.5 12 1.5C11.9047 1.5 11.8138 1.51897 11.7309 1.55335C11.6479 1.58766 11.5702 1.63853 11.5028 1.70594L9.39344 3.81532C9.11885 4.0899 9.11885 4.5351 9.39344 4.80968C9.66803 5.08427 10.1132 5.08427 10.3878 4.80968L11.2969 3.90062ZM18.0938 8.53125H17.1562H16.2188V6.65625H18.0938V8.53125ZM6.84375 9.9375C7.36152 9.9375 7.78125 9.51777 7.78125 9C7.78125 8.48223 7.36152 8.0625 6.84375 8.0625C6.32598 8.0625 5.90625 8.48223 5.90625 9C5.90625 9.51777 6.32598 9.9375 6.84375 9.9375ZM10.3594 18.6094C10.3594 17.7033 11.0939 16.9688 12 16.9688C12.9061 16.9688 13.6406 17.7033 13.6406 18.6094C13.6406 19.5155 12.9061 20.25 12 20.25C11.0939 20.25 10.3594 19.5155 10.3594 18.6094Z" fill="#1E2134"/>
</svg>
