<svg width="40" height="40" viewBox="0 0 40 40" fill="none" xmlns="http://www.w3.org/2000/svg">
<path d="M31 5V9M31 9V13M31 9H27M31 9H35M21.6653 4.9939H8.3285C6.48678 4.9939 4.99377 6.4869 4.99377 8.32862V14.1644M35.0063 17.8989L35.0063 31.6717C35.0063 33.5134 33.5133 35.0064 31.6716 35.0064H25.8358M18.6653 35.0063H5.82745C5.36703 35.0063 4.99377 34.5585 4.99377 34.006V33.1937C4.99927 30.8827 6.55923 29.0109 8.48523 29.0043H16.0075C17.9335 29.0109 19.4935 30.8827 19.499 33.1937V34.006C19.499 34.5585 19.1257 35.0063 18.6653 35.0063ZM12 25.3395C10.1601 25.3395 8.66778 23.8492 8.66533 22.0093C8.66289 20.1693 10.1512 18.675 11.9912 18.6701C13.8311 18.6652 15.3274 20.1515 15.3348 21.9915C15.3383 22.8782 14.9885 23.7298 14.3628 24.3581C13.737 24.9864 12.8868 25.3395 12 25.3395Z" stroke="#1E2134" stroke-width="2" stroke-linecap="round"/>
</svg>
