<svg width="40" height="40" viewBox="0 0 40 40" fill="none" xmlns="http://www.w3.org/2000/svg">
<path d="M8.9336 31.0683L9.64073 30.3612L8.9336 31.0683ZM12.8061 4.97757C12.308 5.21615 12.0976 5.81335 12.3362 6.31144C12.5748 6.80953 13.172 7.0199 13.6701 6.78132L12.8061 4.97757ZM33.2191 26.3316C32.9806 26.8297 33.191 27.4269 33.6891 27.6655C34.1872 27.904 34.7843 27.6936 35.0229 27.1955L33.2191 26.3316ZM20.0013 35.6531L20.0013 36.6531L20.0013 35.6531ZM13.2453 20.0004L12.2453 20.0004L13.2453 20.0004ZM4.99502 3.57905C4.60451 3.18851 3.97134 3.18849 3.58081 3.57901C3.19027 3.96952 3.19025 4.60268 3.58077 4.99322L4.99502 3.57905ZM35.0076 36.4218C35.3981 36.8123 36.0313 36.8123 36.4218 36.4218C36.8123 36.0313 36.8123 35.3982 36.4218 35.0076L35.0076 36.4218ZM13.8001 13.7989L14.5072 13.0918L14.5072 13.0918L13.8001 13.7989ZM26.2049 26.2044L26.9121 25.4973L26.9121 25.4973L26.2049 26.2044ZM30.3614 30.3612C24.6395 36.0834 15.3626 36.0834 9.64073 30.3612L8.22647 31.7754C14.7294 38.2786 25.2727 38.2786 31.7757 31.7754L30.3614 30.3612ZM9.64073 30.3612C3.91883 24.639 3.91883 15.3614 9.64073 9.63918L8.22647 8.22501C1.72358 14.7283 1.72358 25.2721 8.22647 31.7754L9.64073 30.3612ZM13.6701 6.78132C19.1199 4.17084 25.8478 5.12533 30.3614 9.63918L31.7757 8.22501C26.6436 3.09265 18.9971 2.01204 12.8061 4.97757L13.6701 6.78132ZM30.3614 9.63918C34.875 14.153 35.8295 20.8814 33.2191 26.3316L35.0229 27.1955C37.9882 21.0042 36.9077 13.3574 31.7757 8.22501L30.3614 9.63918ZM20.0013 34.6531C19.4041 34.6531 18.7533 34.3769 18.0715 33.7088C17.3852 33.0362 16.7214 32.014 16.1422 30.6722C14.9855 27.9921 14.2453 24.2198 14.2453 20.0004L12.2453 20.0004C12.2453 24.4258 13.0176 28.4798 14.306 31.4648C14.9495 32.9556 15.7414 34.2256 16.6717 35.1372C17.6064 36.0532 18.7329 36.6531 20.0013 36.6531L20.0013 34.6531ZM4.28613 21.0004H20.0013V19.0004H4.28613V21.0004ZM3.58077 4.99322L13.093 14.5059L14.5072 13.0918L4.99502 3.57905L3.58077 4.99322ZM14.2453 20.0004C14.2453 17.9751 14.3866 15.9438 14.7802 13.997L12.8199 13.6007C12.3922 15.7161 12.2453 17.8877 12.2453 20.0004L14.2453 20.0004ZM13.093 14.5059L25.4978 26.9115L26.9121 25.4973L14.5072 13.0918L13.093 14.5059ZM25.4978 26.9115L35.0076 36.4218L36.4218 35.0076L26.9121 25.4973L25.4978 26.9115ZM25.2361 25.9565C24.8281 27.5513 24.3141 29.7954 23.4212 31.6592C22.5066 33.5684 21.4036 34.6531 20.0013 34.6531L20.0013 36.6531C22.6453 36.6531 24.2476 34.5634 25.2249 32.5233C26.224 30.4378 26.7885 27.9576 27.1737 26.4523L25.2361 25.9565Z" fill="#1E2134"/>
</svg>
