<svg width="24" height="24" viewBox="0 0 24 24" fill="none" xmlns="http://www.w3.org/2000/svg">
<path fill-rule="evenodd" clip-rule="evenodd" d="M6.15039 9.10167C6.15039 5.87104 8.76933 3.25211 12 3.25211C15.2306 3.25211 17.8495 5.87104 17.8495 9.10167C17.8495 10.6748 17.2295 12.1016 16.219 13.1535C15.8239 13.5647 15.4234 14.036 15.0876 14.5623C15.059 14.5589 15.0299 14.5572 15.0004 14.5572H9.00039C8.97071 14.5572 8.94143 14.559 8.91265 14.5623C8.57689 14.0361 8.17635 13.565 7.78132 13.1539C6.77054 12.1019 6.15039 10.675 6.15039 9.10167ZM9.59555 16.0572C9.69419 16.4162 9.75039 16.7923 9.75039 17.1847V17.475H14.2504V17.1838C14.2504 16.7918 14.3065 16.416 14.405 16.0572H9.59555ZM12 1.75211C7.9409 1.75211 4.65039 5.04262 4.65039 9.10167C4.65039 11.0778 5.43126 12.873 6.69968 14.1932C7.60522 15.1356 8.25039 16.1363 8.25039 17.1847V18.225C8.25039 18.6392 8.58618 18.975 9.00039 18.975H15.0004C15.4146 18.975 15.7504 18.6392 15.7504 18.225V17.1838C15.7504 16.1356 16.3954 15.1351 17.3007 14.1927C18.5688 12.8726 19.3495 11.0775 19.3495 9.10167C19.3495 5.04262 16.059 1.75211 12 1.75211ZM8.25039 21.0001C8.25039 20.5858 8.58618 20.2501 9.00039 20.2501H15.0004C15.4146 20.2501 15.7504 20.5858 15.7504 21.0001C15.7504 21.4143 15.4146 21.7501 15.0004 21.7501H9.00039C8.58618 21.7501 8.25039 21.4143 8.25039 21.0001Z" fill="#1E2134"/>
</svg>
