<svg width="24" height="24" viewBox="0 0 24 24" fill="none" xmlns="http://www.w3.org/2000/svg">
<path fill-rule="evenodd" clip-rule="evenodd" d="M12.5303 2.46967C12.2374 2.17678 11.7626 2.17678 11.4697 2.46967L7.46967 6.46967C7.17678 6.76256 7.17678 7.23744 7.46967 7.53033C7.76256 7.82322 8.23744 7.82322 8.53033 7.53033L11.25 4.81066V14.5C11.25 14.9142 11.5858 15.25 12 15.25C12.4142 15.25 12.75 14.9142 12.75 14.5V4.81066L15.4697 7.53033C15.7626 7.82322 16.2374 7.82322 16.5303 7.53033C16.8232 7.23744 16.8232 6.76256 16.5303 6.46967L12.5303 2.46967ZM4.75 14C4.75 13.5858 4.41421 13.25 4 13.25C3.58579 13.25 3.25 13.5858 3.25 14V17.2308C3.25 19.1744 4.82561 20.75 6.76923 20.75H17.2308C19.1744 20.75 20.75 19.1744 20.75 17.2308V14.3846C20.75 13.9704 20.4142 13.6346 20 13.6346C19.5858 13.6346 19.25 13.9704 19.25 14.3846V17.2308C19.25 18.346 18.346 19.25 17.2308 19.25H6.76923C5.65404 19.25 4.75 18.346 4.75 17.2308V14Z" fill="#1E2134"/>
</svg>
