<svg width="40" height="40" viewBox="0 0 40 40" fill="none" xmlns="http://www.w3.org/2000/svg">
<path fill-rule="evenodd" clip-rule="evenodd" d="M22.5512 4.50144C22.5675 4.4725 22.6082 4.44155 22.6667 4.44155C22.7251 4.44155 22.7658 4.4725 22.7822 4.50144L22.7822 4.50148L23.5038 5.78038L23.5038 5.7804C23.6652 6.06658 23.9059 6.29817 24.1939 6.45086L24.194 6.45087L25.5134 7.15026L25.5135 7.15028C25.5568 7.17322 25.5697 7.20789 25.5697 7.23068C25.5697 7.25348 25.5568 7.28815 25.5135 7.31109L25.5134 7.31111L24.194 8.0105L24.1939 8.01051C23.9059 8.16319 23.6652 8.39478 23.5038 8.68097L23.5038 8.68099L22.7822 9.95989L22.7822 9.95993C22.7658 9.98887 22.7251 10.0198 22.6667 10.0198C22.6082 10.0198 22.5675 9.98887 22.5512 9.95993L22.5511 9.95989L21.8295 8.68099L21.8295 8.68097C21.6681 8.39479 21.4275 8.1632 21.1394 8.01051L21.1394 8.0105L19.8199 7.31111L19.8198 7.31109C19.7765 7.28815 19.7636 7.25349 19.7636 7.23068C19.7636 7.20788 19.7765 7.17322 19.8198 7.15028L19.8199 7.15026L21.1394 6.45087L21.1394 6.45086C21.4275 6.29817 21.6681 6.06658 21.8295 5.7804L21.8295 5.78038L22.5511 4.50148L22.5512 4.50144ZM22.6667 2.84155C22.0482 2.84155 21.4661 3.16858 21.1576 3.71523L21.1576 3.71527L20.436 4.99415L20.436 4.99418C20.4276 5.00915 20.4127 5.02516 20.3901 5.03715L20.3901 5.03716L19.0706 5.73654L19.0706 5.73656C18.52 6.02837 18.1636 6.59746 18.1636 7.23068C18.1636 7.86391 18.52 8.433 19.0706 8.7248L19.0706 8.72482L20.3901 9.4242L20.3901 9.42422C20.4127 9.43621 20.4276 9.45222 20.436 9.46719L20.436 9.46721L21.1576 10.7461L21.1576 10.7461C21.4661 11.2928 22.0482 11.6198 22.6667 11.6198C23.2851 11.6198 23.8673 11.2928 24.1757 10.7461L24.1757 10.7461L24.8973 9.46721L24.8973 9.46719C24.9057 9.45222 24.9206 9.43621 24.9432 9.42422L24.9432 9.4242L26.2627 8.72482L26.2628 8.7248C26.8133 8.433 27.1697 7.86392 27.1697 7.23068C27.1697 6.59745 26.8133 6.02837 26.2628 5.73656L26.2627 5.73654L24.9432 5.03716L24.9432 5.03715C24.9206 5.02515 24.9057 5.00915 24.8973 4.99418L24.8973 4.99415L24.1757 3.71527L24.1757 3.71523C23.8673 3.16858 23.2851 2.84155 22.6667 2.84155ZM3.99999 6.99995C3.99999 5.3431 5.34314 3.99995 6.99999 3.99995H15C15.5523 3.99995 16 4.44767 16 4.99995C16 5.55224 15.5523 5.99995 15 5.99995H6.99999C6.44771 5.99995 5.99999 6.44767 5.99999 6.99995V17.2833C8.68304 15.9548 11.8593 15.3076 15 15.3076C18.1407 15.3076 21.317 15.9548 24 17.2833V15C24 14.4477 24.4477 14 25 14C25.5523 14 26 14.4477 26 15V19V23C26 24.6568 24.6568 26 23 26H16V33C16 33.5522 16.4477 34 17 34H33C33.5523 34 34 33.5522 34 33V17C34 16.4477 33.5523 16 33 16H29C28.4477 16 28 15.5522 28 15C28 14.4477 28.4477 14 29 14H33C34.6568 14 36 15.3431 36 17V33C36 34.6568 34.6569 36 33 36H17C15.3431 36 14 34.6568 14 33V26H7C5.34314 26 3.99999 24.6568 3.99999 23V19.0162C3.99984 19.006 3.99984 18.9958 3.99999 18.9856V6.99995ZM5.99999 19.5563V23C5.99999 23.5522 6.44771 24 7 24H15H23C23.5523 24 24 23.5522 24 23V19.5563C21.4926 18.0736 18.269 17.3076 15 17.3076C11.731 17.3076 8.50742 18.0736 5.99999 19.5563ZM9.10467 10.3994C9.10467 9.57104 9.78205 8.94939 10.5558 8.94939C11.3295 8.94939 12.0069 9.57104 12.0069 10.3994C12.0069 11.2277 11.3295 11.8494 10.5558 11.8494C9.78205 11.8494 9.10467 11.2277 9.10467 10.3994Z" fill="#1E2134"/>
</svg>
