<svg width="24" height="24" viewBox="0 0 24 24" fill="none" xmlns="http://www.w3.org/2000/svg">
<path fill-rule="evenodd" clip-rule="evenodd" d="M4.7 3.75C4.20659 3.75 3.75 4.17813 3.75 4.778V17.222C3.75 17.8219 4.20659 18.25 4.7 18.25H10C10.4142 18.25 10.75 18.5858 10.75 19C10.75 19.4142 10.4142 19.75 10 19.75H4.7C3.31541 19.75 2.25 18.5861 2.25 17.222V4.778C2.25 3.41387 3.31541 2.25 4.7 2.25H18.3C19.6846 2.25 20.75 3.41387 20.75 4.778V9C20.75 9.41421 20.4142 9.75 20 9.75C19.5858 9.75 19.25 9.41421 19.25 9V4.778C19.25 4.17813 18.7934 3.75 18.3 3.75H4.7ZM8.25 7C8.25 6.58579 8.58579 6.25 9 6.25H15C15.4142 6.25 15.75 6.58579 15.75 7C15.75 7.41421 15.4142 7.75 15 7.75H9C8.58579 7.75 8.25 7.41421 8.25 7ZM7 10.25C6.58579 10.25 6.25 10.5858 6.25 11C6.25 11.4142 6.58579 11.75 7 11.75H15C15.4142 11.75 15.75 11.4142 15.75 11C15.75 10.5858 15.4142 10.25 15 10.25H7ZM6.25 15C6.25 14.5858 6.58579 14.25 7 14.25H10C10.4142 14.25 10.75 14.5858 10.75 15C10.75 15.4142 10.4142 15.75 10 15.75H7C6.58579 15.75 6.25 15.4142 6.25 15ZM19.6857 13.7973C19.7487 13.7342 19.8509 13.7342 19.9139 13.7973L21.2027 15.0861C21.2658 15.1491 21.2658 15.2513 21.2027 15.3143L16.3143 20.2027C16.284 20.233 16.243 20.25 16.2002 20.25H14.75V18.7998C14.75 18.757 14.767 18.716 14.7973 18.6857L19.6857 13.7973ZM20.9746 12.7366C20.3258 12.0878 19.2738 12.0878 18.625 12.7366L13.7366 17.6251C13.425 17.9366 13.25 18.3592 13.25 18.7998V21C13.25 21.4142 13.5858 21.75 14 21.75H16.2002C16.6408 21.75 17.0634 21.575 17.3749 21.2634L22.2634 16.3749C22.9122 15.7262 22.9122 14.6742 22.2634 14.0254L20.9746 12.7366Z" fill="#1E2134"/>
</svg>
