<svg width="24" height="24" viewBox="0 0 24 24" fill="none" xmlns="http://www.w3.org/2000/svg">
<path d="M16.7218 6.21979C17.0147 5.92713 17.4895 5.92699 17.7823 6.21979C18.0748 6.51263 18.0749 6.98753 17.7823 7.28033L13.0616 12.001L17.7823 16.7217L17.8341 16.7794C18.0737 17.0738 18.0563 17.5079 17.7823 17.7823C17.5078 18.0568 17.073 18.0742 16.7784 17.834L16.7218 17.7823L12.0011 13.0616L7.28039 17.7823C6.98757 18.0751 6.51276 18.075 6.21984 17.7823C5.92713 17.4894 5.92702 17.0146 6.21984 16.7217L10.9405 12.001L6.21984 7.28033L6.16809 7.22369C5.92778 6.92911 5.94524 6.49439 6.21984 6.21979C6.49446 5.9453 6.92922 5.92776 7.22375 6.16803L7.28039 6.21979L12.0011 10.9405L16.7218 6.21979Z" fill="#F44336"/>
</svg>
