<svg width="24" height="24" viewBox="0 0 24 24" fill="none" xmlns="http://www.w3.org/2000/svg">
<path d="M21.3449 17.1533L13.785 4.09082C13.6037 3.77799 13.3433 3.51831 13.03 3.33779C12.7167 3.15727 12.3614 3.06226 11.9998 3.06226C11.6382 3.06226 11.283 3.15727 10.9697 3.33779C10.6564 3.51831 10.396 3.77799 10.2146 4.09082L2.6548 17.1533C2.47329 17.4668 2.37755 17.8225 2.3772 18.1847C2.37685 18.547 2.4719 18.9029 2.6528 19.2167C2.8337 19.5305 3.09406 19.7911 3.40768 19.9724C3.7213 20.1536 4.07712 20.249 4.43934 20.2491H19.5603C19.9225 20.249 20.2784 20.1536 20.592 19.9724C20.9056 19.7911 21.166 19.5305 21.3469 19.2167C21.5278 18.9029 21.6228 18.547 21.6225 18.1847C21.6221 17.8225 21.5264 17.4668 21.3449 17.1533ZM11.3117 8.56226C11.3117 8.37992 11.3841 8.20505 11.513 8.07612C11.642 7.94719 11.8168 7.87476 11.9992 7.87476C12.1815 7.87476 12.3564 7.94719 12.4853 8.07612C12.6142 8.20505 12.6867 8.37992 12.6867 8.56226V13.3748C12.6867 13.5571 12.6142 13.732 12.4853 13.8609C12.3564 13.9898 12.1815 14.0623 11.9992 14.0623C11.8168 14.0623 11.642 13.9898 11.513 13.8609C11.3841 13.732 11.3117 13.5571 11.3117 13.3748V8.56226ZM11.9997 17.5C11.7957 17.5 11.5963 17.4395 11.4267 17.3262C11.2571 17.2129 11.125 17.0518 11.0469 16.8634C10.9689 16.675 10.9484 16.4676 10.9882 16.2676C11.028 16.0675 11.1262 15.8838 11.2705 15.7395C11.4147 15.5953 11.5984 15.4971 11.7985 15.4573C11.9985 15.4175 12.2059 15.4379 12.3943 15.516C12.5827 15.5941 12.7438 15.7262 12.8571 15.8958C12.9704 16.0654 13.0309 16.2648 13.0309 16.4688C13.0309 16.7423 12.9222 17.0045 12.7289 17.1979C12.5355 17.3913 12.2732 17.5 11.9997 17.5Z" fill="#FF9800"/>
</svg>
