<svg width="24" height="24" viewBox="0 0 24 24" fill="none" xmlns="http://www.w3.org/2000/svg">
<path d="M5.47089 3.83731C9.6499 0.497505 15.6741 0.842151 19.4445 4.63712C23.2148 8.43224 23.5205 14.4585 20.1535 18.6156C16.9137 22.6155 11.2764 23.6469 6.8498 21.1361L4.82831 21.474C4.19109 21.5805 3.54108 21.3722 3.08417 20.9154C2.62734 20.4586 2.41924 19.8085 2.52558 19.1713L2.8664 17.1283C0.381527 12.6848 1.44885 7.052 5.47089 3.83731ZM18.3801 5.69473C15.1494 2.44307 9.98812 2.14753 6.40741 5.00919C2.89755 7.81457 2.01174 12.7711 4.29511 16.6088C4.38551 16.7611 4.41902 16.9409 4.38983 17.1156L4.00507 19.4184C3.97859 19.5776 4.03058 19.7407 4.14472 19.8549C4.25893 19.9689 4.42201 20.0211 4.58124 19.9945L6.8664 19.6127L6.99921 19.602C7.13179 19.6036 7.26226 19.641 7.37714 19.7104C11.1997 22.0168 16.1609 21.1622 18.9885 17.6713C21.873 14.1094 21.6104 8.9464 18.3801 5.69473ZM17.5529 8.32266C17.6623 7.92337 18.0745 7.68817 18.4738 7.79727C18.873 7.90671 19.1082 8.3189 18.9992 8.71817L17.0646 15.7875C16.9754 16.1133 16.6788 16.3391 16.341 16.3393H15.1926C14.8537 16.3391 14.5571 16.1118 14.4689 15.7846L12.5685 8.71524L13.2932 8.5209L14.0178 8.32559L15.7678 14.8393H15.7697L17.5529 8.32266ZM7.92011 7.76993C9.217 7.77009 10.2673 8.23943 10.9846 9.05508C11.6899 9.8573 12.0148 10.9263 12.0148 12.0375C12.0148 14.3437 10.3254 16.3047 7.92011 16.3051H6.33222C5.89054 16.305 5.53252 15.9469 5.53241 15.5053V8.56973C5.53257 8.12811 5.89057 7.77003 6.33222 7.76993H7.92011ZM7.03241 14.8051H7.92011C9.3995 14.8047 10.5148 13.6163 10.5148 12.0375C10.5148 11.2062 10.2725 10.5162 9.85858 10.0453C9.45653 9.58811 8.83403 9.27008 7.92011 9.26993H7.03241V14.8051ZM13.0988 7.7963C13.4985 7.68933 13.9102 7.92596 14.0178 8.32559L12.5685 8.71524C12.4611 8.31525 12.6988 7.9038 13.0988 7.7963Z" fill="#E6007A"/>
</svg>
