<svg width="24" height="24" viewBox="0 0 24 24" fill="none" xmlns="http://www.w3.org/2000/svg">
<path fill-rule="evenodd" clip-rule="evenodd" d="M18.5303 3.46973C18.2374 3.17684 17.7626 3.17684 17.4697 3.46973C17.1768 3.76262 17.1768 4.2375 17.4697 4.53039L19.2026 6.2633L17.0275 6.254L17.0272 6.254C16.1426 6.24996 15.3109 6.67231 14.7913 7.387L7.99546 16.7308L7.99535 16.731C7.75956 17.0554 7.3817 17.247 6.97895 17.246L6.97833 17.246L3.00321 17.229C2.589 17.2272 2.25178 17.5616 2.25001 17.9758C2.24824 18.39 2.58258 18.7272 2.99679 18.729L6.97279 18.746L6.97367 18.746C7.85669 18.7487 8.68857 18.3284 9.20865 17.613L16.0045 8.26913L16.0047 8.26898C16.2411 7.94375 16.6192 7.75211 17.0205 7.75398L17.0208 7.75398L19.1762 7.7632L17.4697 9.46973C17.1768 9.76262 17.1768 10.2375 17.4697 10.5304C17.7626 10.8233 18.2374 10.8233 18.5303 10.5304L21.4148 7.64596C21.6159 7.51221 21.7489 7.2839 21.75 7.0242C21.75 7.01961 21.75 7.01504 21.7499 7.01048C21.7526 6.81508 21.6794 6.61883 21.5303 6.46973L18.5303 3.46973ZM9.20865 7.38699L9.2085 7.38678C8.68841 6.67144 7.8566 6.25123 6.97367 6.25398L6.97279 6.25398L2.99679 6.27098C2.58258 6.27275 2.24824 6.60997 2.25001 7.02418C2.25178 7.43839 2.589 7.77274 3.00321 7.77097L6.97833 7.75397L6.97868 7.75397C7.38153 7.75283 7.7595 7.94452 7.99535 8.26897L7.9955 8.26917L9.5755 10.4412C9.81916 10.7761 10.2882 10.8501 10.6232 10.6065C10.9582 10.3628 11.0322 9.89374 10.7885 9.55878L9.20865 7.38699ZM13.3768 14.3935C13.7118 14.1498 14.1808 14.2238 14.4245 14.5588L16.0045 16.7308L16.0046 16.731C16.2405 17.0555 16.6185 17.2472 17.0214 17.246H17.0217L20.9968 17.229C21.411 17.2272 21.7482 17.5616 21.75 17.9758C21.7518 18.39 21.4174 18.7272 21.0032 18.729L17.0272 18.746L17.0263 18.746C16.1434 18.7487 15.3116 18.3285 14.7915 17.6132L14.7913 17.613L13.2115 15.4412C12.9678 15.1062 13.0418 14.6372 13.3768 14.3935Z" fill="#1E2134"/>
</svg>
