<svg width="24" height="24" viewBox="0 0 24 24" fill="none" xmlns="http://www.w3.org/2000/svg">
<path fill-rule="evenodd" clip-rule="evenodd" d="M15.25 3C15.25 2.58579 15.5858 2.25 16 2.25H19C20.5192 2.25 21.75 3.48079 21.75 5V8C21.75 8.41421 21.4142 8.75 21 8.75C20.5858 8.75 20.25 8.41421 20.25 8V5C20.25 4.30921 19.6908 3.75 19 3.75H16C15.5858 3.75 15.25 3.41421 15.25 3ZM9 8.75C8.86221 8.75 8.75 8.86221 8.75 9V15C8.75 15.1378 8.86221 15.25 9 15.25H15C15.1378 15.25 15.25 15.1378 15.25 15V9C15.25 8.86221 15.1378 8.75 15 8.75H9ZM7.25 9C7.25 8.03379 8.03379 7.25 9 7.25H15C15.9662 7.25 16.75 8.03379 16.75 9V15C16.75 15.9662 15.9662 16.75 15 16.75H9C8.03379 16.75 7.25 15.9662 7.25 15V9ZM3.75 16C3.75 15.5858 3.41421 15.25 3 15.25C2.58579 15.25 2.25 15.5858 2.25 16V19C2.25 20.5192 3.48079 21.75 5 21.75H8C8.41421 21.75 8.75 21.4142 8.75 21C8.75 20.5858 8.41421 20.25 8 20.25H5C4.30921 20.25 3.75 19.6908 3.75 19V16ZM21 15.25C21.4142 15.25 21.75 15.5858 21.75 16V19C21.75 20.5192 20.5192 21.75 19 21.75H16C15.5858 21.75 15.25 21.4142 15.25 21C15.25 20.5858 15.5858 20.25 16 20.25H19C19.6908 20.25 20.25 19.6908 20.25 19V16C20.25 15.5858 20.5858 15.25 21 15.25ZM3.75 5C3.75 4.30921 4.30921 3.75 5 3.75H8C8.41421 3.75 8.75 3.41421 8.75 3C8.75 2.58579 8.41421 2.25 8 2.25H5C3.48079 2.25 2.25 3.48079 2.25 5V8C2.25 8.41421 2.58579 8.75 3 8.75C3.41421 8.75 3.75 8.41421 3.75 8V5Z" fill="#1E2134"/>
</svg>
