<svg width="24" height="24" viewBox="0 0 24 24" fill="none" xmlns="http://www.w3.org/2000/svg">
<path fill-rule="evenodd" clip-rule="evenodd" d="M5 3.25C4.0335 3.25 3.25 4.0335 3.25 5C3.25 5.9665 4.0335 6.75 5 6.75C5.9665 6.75 6.75 5.9665 6.75 5C6.75 4.0335 5.9665 3.25 5 3.25ZM1.75 5C1.75 3.20507 3.20507 1.75 5 1.75C6.79493 1.75 8.25 3.20507 8.25 5C8.25 5.62575 8.07315 6.2102 7.76672 6.70608L9.59624 8.5356C11.0369 7.5335 12.9631 7.5335 14.4037 8.5356L16.2333 6.70605C15.9268 6.21017 15.75 5.62574 15.75 5C15.75 3.20507 17.2051 1.75 19 1.75C20.7949 1.75 22.25 3.20507 22.25 5C22.25 6.79493 20.7949 8.25 19 8.25C18.3743 8.25 17.7898 8.07315 17.2939 7.76672L15.4644 9.59626C16.4665 11.0369 16.4665 12.9631 15.4644 14.4038L17.2939 16.2333C17.7898 15.9268 18.3743 15.75 19 15.75C20.7949 15.75 22.25 17.2051 22.25 19C22.25 20.7949 20.7949 22.25 19 22.25C17.2051 22.25 15.75 20.7949 15.75 19C15.75 18.3743 15.9268 17.7898 16.2333 17.294L14.4037 15.4644C12.9631 16.4665 11.0369 16.4665 9.59624 15.4644L7.76674 17.294C8.07317 17.7898 8.25 18.3743 8.25 19C8.25 20.7949 6.79493 22.25 5 22.25C3.20507 22.25 1.75 20.7949 1.75 19C1.75 17.2051 3.20507 15.75 5 15.75C5.62575 15.75 6.2102 15.9268 6.70609 16.2333L8.53558 14.4038C7.53347 12.9631 7.53347 11.0369 8.53558 9.59626L6.70605 7.76674C6.21017 8.07316 5.62574 8.25 5 8.25C3.20507 8.25 1.75 6.79493 1.75 5ZM13.9204 10.0796C12.8597 9.01885 11.1403 9.01885 10.0795 10.0796C9.01882 11.1403 9.01882 12.8597 10.0795 13.9205C11.1403 14.9812 12.8597 14.9812 13.9204 13.9205C14.9811 12.8597 14.9811 11.1403 13.9204 10.0796ZM17.25 5C17.25 4.0335 18.0335 3.25 19 3.25C19.9665 3.25 20.75 4.0335 20.75 5C20.75 5.9665 19.9665 6.75 19 6.75C18.0335 6.75 17.25 5.9665 17.25 5ZM19 17.25C18.0335 17.25 17.25 18.0335 17.25 19C17.25 19.9665 18.0335 20.75 19 20.75C19.9665 20.75 20.75 19.9665 20.75 19C20.75 18.0335 19.9665 17.25 19 17.25ZM3.25 19C3.25 18.0335 4.0335 17.25 5 17.25C5.9665 17.25 6.75 18.0335 6.75 19C6.75 19.9665 5.9665 20.75 5 20.75C4.0335 20.75 3.25 19.9665 3.25 19Z" fill="#1E2134"/>
</svg>
