<svg width="40" height="40" viewBox="0 0 40 40" fill="none" xmlns="http://www.w3.org/2000/svg">
<path fill-rule="evenodd" clip-rule="evenodd" d="M9.16667 5.66675C6.3132 5.66675 4 7.97994 4 10.8334V16.6667C4 17.219 4.44772 17.6667 5 17.6667C5.55228 17.6667 6 17.219 6 16.6667V10.8334C6 9.08451 7.41776 7.66675 9.16667 7.66675H30.8333C32.5822 7.66675 34 9.08451 34 10.8334V14.8333H30.5C27.6465 14.8333 25.3333 17.1464 25.3333 19.9999C25.3333 22.8534 27.6465 25.1666 30.5 25.1666H34V29.1667C34 30.9156 32.5823 32.3334 30.8334 32.3334H21.6667C21.1144 32.3334 20.6667 32.7811 20.6667 33.3334C20.6667 33.8857 21.1144 34.3334 21.6667 34.3334H30.8334C33.6868 34.3334 36 32.0202 36 29.1667V24.9727C36.9773 24.5771 37.6666 23.619 37.6666 22.4999V17.4999C37.6666 16.3808 36.9773 15.4227 36 15.0271V10.8334C36 7.97994 33.6868 5.66675 30.8333 5.66675H9.16667ZM30.5 16.8333H34.9818L35 16.8334L35.0114 16.8334C35.3743 16.8394 35.6666 17.1355 35.6666 17.4999V22.4999C35.6666 22.8681 35.3682 23.1666 35 23.1666H30.5C28.7511 23.1666 27.3333 21.7488 27.3333 19.9999C27.3333 18.251 28.7511 16.8333 30.5 16.8333ZM4.33331 27.5C4.33331 23.9101 7.24346 21 10.8333 21C14.4232 21 17.3333 23.9101 17.3333 27.5C17.3333 31.0899 14.4232 34 10.8333 34C7.24346 34 4.33331 31.0899 4.33331 27.5ZM10.8333 19C6.13889 19 2.33331 22.8056 2.33331 27.5C2.33331 32.1944 6.13889 36 10.8333 36C15.5277 36 19.3333 32.1944 19.3333 27.5C19.3333 22.8056 15.5277 19 10.8333 19ZM8.35836 25.0252C8.74889 24.6347 9.38205 24.6347 9.77258 25.0252L10.8332 26.0858L11.894 25.0251C12.2845 24.6345 12.9177 24.6345 13.3082 25.0251C13.6987 25.4156 13.6987 26.0488 13.3082 26.4393L12.2474 27.5001L13.3081 28.5607C13.6986 28.9513 13.6986 29.5844 13.3081 29.975C12.9176 30.3655 12.2844 30.3655 11.8939 29.975L10.8332 28.9143L9.77265 29.9748C9.38212 30.3653 8.74896 30.3653 8.35843 29.9748C7.96791 29.5843 7.96791 28.9511 8.35843 28.5606L9.41899 27.5001L8.35836 26.4394C7.96784 26.0489 7.96784 25.4157 8.35836 25.0252Z" fill="#1E2134"/>
</svg>
