<svg width="24" height="24" viewBox="0 0 24 24" fill="none" xmlns="http://www.w3.org/2000/svg">
<path fill-rule="evenodd" clip-rule="evenodd" d="M2.25 12C2.25 6.61584 6.61473 2.25 12 2.25C15.117 2.25 17.8903 3.71308 19.674 5.98655V4.80298C19.674 4.38876 20.0098 4.05298 20.424 4.05298C20.8382 4.05298 21.174 4.38876 21.174 4.80298V7.69598C21.174 8.11019 20.8382 8.44598 20.424 8.44598H19.9213C19.9109 8.4462 19.9004 8.4462 19.89 8.44598H17.531C17.1168 8.44598 16.781 8.11019 16.781 7.69598C16.781 7.28176 17.1168 6.94598 17.531 6.94598H18.5202C17.0106 5.00085 14.6514 3.75 12 3.75C7.44327 3.75 3.75 7.44416 3.75 12C3.75 16.5558 7.44327 20.25 12 20.25C16.5567 20.25 20.25 16.5558 20.25 12C20.25 11.5858 20.5858 11.25 21 11.25C21.4142 11.25 21.75 11.5858 21.75 12C21.75 17.3842 17.3853 21.75 12 21.75C6.61473 21.75 2.25 17.3842 2.25 12ZM10.4865 11.1257C10.9693 10.2893 12.0387 10.0028 12.875 10.4857C13.7113 10.9685 13.9979 12.0379 13.515 12.8742C13.0322 13.7105 11.9628 13.997 11.1265 13.5142C10.2902 13.0313 10.0036 11.962 10.4865 11.1257ZM13.625 9.18661C12.0713 8.28956 10.0845 8.82191 9.18744 10.3757C8.29038 11.9294 8.82274 13.9162 10.3765 14.8132C11.9302 15.7103 13.917 15.1779 14.814 13.6242C15.7111 12.0704 15.1788 10.0837 13.625 9.18661Z" fill="#1E2134"/>
</svg>
