<svg width="40" height="40" viewBox="0 0 40 40" fill="none" xmlns="http://www.w3.org/2000/svg">
<path fill-rule="evenodd" clip-rule="evenodd" d="M6 10C6 7.79086 7.79086 6 10 6H20C20.5523 6 21 5.55228 21 5C21 4.44772 20.5523 4 20 4H10C6.68629 4 4 6.68629 4 10V26.6532C3.99986 26.6628 3.99986 26.6724 4 26.682V30C4 33.3137 6.68629 36 10 36H30C33.3137 36 36 33.3137 36 30V26.682C36.0001 26.6724 36.0001 26.6628 36 26.6531V20C36 19.4477 35.5523 19 35 19C34.4477 19 34 19.4477 34 20V24.8851C29.9137 22.6149 24.9373 21.5 20 21.5C15.0627 21.5 10.0863 22.6149 6 24.8851V10ZM6 30V27.2089C9.88818 24.7537 14.9209 23.5 20 23.5C25.0791 23.5 30.1118 24.7537 34 27.2089V30C34 32.2091 32.2091 34 30 34H10C7.79086 34 6 32.2091 6 30ZM29.7807 6.13006C29.8245 6.04987 29.9086 6 30 6C30.0914 6 30.1755 6.04987 30.2194 6.13006L30.2194 6.13011L31.1937 7.91175C31.4002 8.28935 31.7106 8.59982 32.0883 8.80631L32.0883 8.80632L33.8699 9.78064L33.87 9.78067C33.9502 9.82451 34 9.90862 34 10C34 10.0914 33.9502 10.1755 33.87 10.2194L33.8699 10.2194L32.0883 11.1937L32.0883 11.1937C31.7106 11.4002 31.4002 11.7107 31.1937 12.0883L30.2194 13.8699L30.2194 13.87C30.1755 13.9502 30.0914 14 30 14C29.9086 14 29.8245 13.9502 29.7807 13.87L29.7806 13.8699L28.8063 12.0883L28.8063 12.0883C28.5998 11.7107 28.2894 11.4002 27.9118 11.1937L27.9117 11.1937L26.1301 10.2194L26.1301 10.2194C26.0499 10.1755 26 10.0914 26 10C26 9.90862 26.0499 9.82451 26.1301 9.78067L26.1301 9.78064L27.9117 8.80632L27.9118 8.80631C28.2894 8.59982 28.5998 8.28937 28.8063 7.91177L28.8063 7.91175L29.7806 6.13011L29.7807 6.13006ZM30 4C29.1775 4 28.4205 4.44882 28.0259 5.17049L28.0259 5.17054L27.0516 6.95216L27.0515 6.95219C27.0286 6.99413 26.9941 7.02861 26.9522 7.05154L26.9522 7.05156L25.1705 8.02587L25.1705 8.02589C24.4488 8.42052 24 9.1775 24 10C24 10.8225 24.4488 11.5795 25.1705 11.9741L25.1705 11.9742L26.9522 12.9485L26.9522 12.9485C26.9941 12.9714 27.0286 13.0059 27.0515 13.0478L27.0516 13.0479L28.0259 14.8295L28.0259 14.8295C28.4205 15.5512 29.1775 16 30 16C30.8225 16 31.5795 15.5512 31.9741 14.8295L31.9742 14.8295L32.9485 13.0479L32.9485 13.0478C32.9714 13.0059 33.0059 12.9714 33.0478 12.9485L33.0479 12.9485L34.8295 11.9742L34.8295 11.9741C35.5512 11.5795 36 10.8225 36 10C36 9.17749 35.5512 8.42052 34.8295 8.02589L34.8295 8.02587L33.0479 7.05156L33.0478 7.05154C33.0059 7.02861 32.9714 6.99413 32.9485 6.95219L32.9485 6.95216L31.9742 5.17054L31.9741 5.17049C31.5795 4.44882 30.8225 4 30 4ZM13.3337 11.4995C12.321 11.4995 11.5 12.3205 11.5 13.3332C11.5 14.3459 12.321 15.1669 13.3337 15.1669C14.3464 15.1669 15.1674 14.3459 15.1674 13.3332C15.1674 12.3205 14.3464 11.4995 13.3337 11.4995Z" fill="#1E2134"/>
</svg>
