<svg width="24" height="24" viewBox="0 0 24 24" fill="none" xmlns="http://www.w3.org/2000/svg">
<path fill-rule="evenodd" clip-rule="evenodd" d="M19.2168 10.4396L19.4634 9.8742C19.9029 8.86612 20.6945 8.0635 21.6823 7.62441L22.4419 7.28673C22.8527 7.10414 22.8527 6.50675 22.4419 6.32416L21.7248 6.00535C20.7116 5.55497 19.9058 4.72265 19.4738 3.68032L19.2206 3.06936C19.0442 2.64355 18.4558 2.64355 18.2793 3.06936L18.0261 3.68032C17.5942 4.72265 16.7884 5.55497 15.7752 6.00535L15.058 6.32416C14.6473 6.50675 14.6473 7.10414 15.058 7.28673L15.8177 7.62441C16.8055 8.0635 17.5971 8.86612 18.0366 9.8742L18.2831 10.4396C18.4636 10.8535 19.0364 10.8535 19.2168 10.4396ZM3.5 18.722C3.5 19.3219 3.95659 19.75 4.45 19.75H18.05C18.5434 19.75 19 19.3219 19 18.722V15C19 14.5858 19.3358 14.25 19.75 14.25C20.1642 14.25 20.5 14.5858 20.5 15V18.722C20.5 20.0861 19.4346 21.25 18.05 21.25H4.45C3.06541 21.25 2 20.0861 2 18.722V6.278C2 4.91387 3.06541 3.75 4.45 3.75H10.75C11.1642 3.75 11.5 4.08579 11.5 4.5C11.5 4.91421 11.1642 5.25 10.75 5.25H4.45C3.95659 5.25 3.5 5.67813 3.5 6.278V18.722ZM7 9.25C6.58579 9.25 6.25 9.58579 6.25 10C6.25 10.4142 6.58579 10.75 7 10.75H10.75C11.1642 10.75 11.5 10.4142 11.5 10C11.5 9.58579 11.1642 9.25 10.75 9.25H7ZM6.25 15C6.25 14.5858 6.58579 14.25 7 14.25H15.25C15.6642 14.25 16 14.5858 16 15C16 15.4142 15.6642 15.75 15.25 15.75H7C6.58579 15.75 6.25 15.4142 6.25 15Z" fill="#1E2134"/>
</svg>
