<svg width="24" height="24" viewBox="0 0 24 24" fill="none" xmlns="http://www.w3.org/2000/svg">
<path fill-rule="evenodd" clip-rule="evenodd" d="M12 3.75C7.44321 3.75 3.75 7.44321 3.75 12C3.75 16.5568 7.44321 20.25 12 20.25C16.5568 20.25 20.25 16.5568 20.25 12C20.25 7.44321 16.5568 3.75 12 3.75ZM12 2.25C6.61479 2.25 2.25 6.61479 2.25 12C2.25 17.3852 6.61479 21.75 12 21.75C17.3852 21.75 21.75 17.3852 21.75 12C21.75 6.61479 17.3852 2.25 12 2.25ZM8.25 8.584C8.25 7.84679 8.84679 7.25 9.584 7.25H15.415C16.4629 7.25 17.1038 8.40275 16.5452 9.29177L16.5449 9.29226L15.5253 10.9164L16.5439 12.5417L16.5444 12.5425C17.1027 13.4315 16.4608 14.584 15.415 14.584H9.75V17.0001C9.75 17.4143 9.41421 17.7501 9 17.7501C8.58579 17.7501 8.25 17.4143 8.25 17.0001V13.834V13.8301V8.584ZM9.75 8.75V13.084H15.1135L14.0045 11.3143C13.8517 11.0705 13.8518 10.7609 14.0048 10.5172L15.1142 8.75H9.75Z" fill="#1E2134"/>
</svg>
