<svg width="24" height="24" viewBox="0 0 24 24" fill="none" xmlns="http://www.w3.org/2000/svg">
<path fill-rule="evenodd" clip-rule="evenodd" d="M7.18359 7.18359C9.42836 4.9388 13.0679 4.9388 15.3126 7.18359C17.5369 9.40781 17.5572 13.0013 15.3737 15.2506C15.3512 15.2685 15.3295 15.2878 15.3087 15.3087C15.2878 15.3295 15.2685 15.3512 15.2506 15.3737C13.0013 17.5572 9.40781 17.5369 7.18359 15.3126C4.9388 13.0679 4.9388 9.42836 7.18359 7.18359ZM15.8159 16.8765C12.9691 19.1925 8.77442 19.0248 6.12292 16.3733C3.29236 13.5427 3.29236 8.95349 6.12292 6.12292C8.95349 3.29236 13.5427 3.29236 16.3733 6.12292C19.0248 8.77442 19.1925 12.9691 16.8765 15.8159L19.7758 18.7151C20.0686 19.008 20.0686 19.4829 19.7758 19.7758C19.4829 20.0686 19.008 20.0686 18.7151 19.7758L15.8159 16.8765Z" fill="#1E2134"/>
</svg>
