<svg width="40" height="40" viewBox="0 0 40 40" fill="none" xmlns="http://www.w3.org/2000/svg">
<path d="M23.7462 5.76703C24.2803 5.90722 24.8271 5.58782 24.9672 5.05363C25.1074 4.51943 24.788 3.97273 24.2538 3.83254L23.7462 5.76703ZM36.1675 15.7462C36.0273 15.212 35.4806 14.8926 34.9464 15.0328C34.4122 15.1729 34.0928 15.7196 34.233 16.2538L36.1675 15.7462ZM35.0237 4.30956L35.7308 3.60246L35.7308 3.60246L35.0237 4.30956ZM35.0237 9.02361L35.7308 9.73072V9.73072L35.0237 9.02361ZM30.3096 9.02361L29.6025 9.73072L29.6025 9.73072L30.3096 9.02361ZM30.3096 4.30956L29.6025 3.60246V3.60246L30.3096 4.30956ZM24.7071 16.7071C25.0976 16.3166 25.0976 15.6834 24.7071 15.2929C24.3166 14.9024 23.6834 14.9024 23.2929 15.2929L24.7071 16.7071ZM15.2929 23.2929C14.9024 23.6834 14.9024 24.3166 15.2929 24.7071C15.6834 25.0976 16.3166 25.0976 16.7071 24.7071L15.2929 23.2929ZM16.7071 15.2929C16.3166 14.9024 15.6834 14.9024 15.2929 15.2929C14.9024 15.6834 14.9024 16.3166 15.2929 16.7071L16.7071 15.2929ZM23.2929 24.7071C23.6834 25.0976 24.3166 25.0976 24.7071 24.7071C25.0976 24.3166 25.0976 23.6834 24.7071 23.2929L23.2929 24.7071ZM34.7139 20C34.7139 28.1262 28.1262 34.7139 20 34.7139V36.7139C29.2308 36.7139 36.7139 29.2308 36.7139 20H34.7139ZM20 34.7139C11.8738 34.7139 5.28613 28.1262 5.28613 20H3.28613C3.28613 29.2308 10.7692 36.7139 20 36.7139V34.7139ZM5.28613 20C5.28613 11.8738 11.8738 5.28613 20 5.28613V3.28613C10.7692 3.28613 3.28613 10.7692 3.28613 20H5.28613ZM20 5.28613C21.2959 5.28613 22.5512 5.45341 23.7462 5.76703L24.2538 3.83254C22.8946 3.47581 21.4687 3.28613 20 3.28613V5.28613ZM34.233 16.2538C34.5466 17.4488 34.7139 18.7041 34.7139 20H36.7139C36.7139 18.5313 36.5242 17.1054 36.1675 15.7462L34.233 16.2538ZM34.3166 5.01667C35.2278 5.92789 35.2278 7.40528 34.3166 8.31651L35.7308 9.73072C37.4231 8.03845 37.4231 5.29473 35.7308 3.60246L34.3166 5.01667ZM34.3166 8.31651C33.4053 9.22773 31.928 9.22773 31.0167 8.31651L29.6025 9.73072C31.2948 11.423 34.0385 11.423 35.7308 9.73072L34.3166 8.31651ZM31.0167 8.31651C30.1055 7.40528 30.1055 5.9279 31.0167 5.01667L29.6025 3.60246C27.9102 5.29473 27.9102 8.03845 29.6025 9.73072L31.0167 8.31651ZM31.0167 5.01667C31.928 4.10545 33.4053 4.10545 34.3166 5.01667L35.7308 3.60246C34.0385 1.91018 31.2948 1.91018 29.6025 3.60246L31.0167 5.01667ZM23.2929 15.2929L15.2929 23.2929L16.7071 24.7071L24.7071 16.7071L23.2929 15.2929ZM15.2929 16.7071L23.2929 24.7071L24.7071 23.2929L16.7071 15.2929L15.2929 16.7071Z" fill="#1E2134"/>
</svg>
