<svg width="24" height="24" viewBox="0 0 24 24" fill="none" xmlns="http://www.w3.org/2000/svg">
<path fill-rule="evenodd" clip-rule="evenodd" d="M4.24999 6.21795C4.24999 4.85455 5.35455 3.75 6.71794 3.75H9.41025C9.78198 3.75 10.0833 4.05135 10.0833 4.42308C10.0833 4.79481 9.78198 5.09615 9.41025 5.09615H6.71794C6.09801 5.09615 5.59615 5.59801 5.59615 6.21795V8.91026C5.59615 9.28199 5.2948 9.58333 4.92307 9.58333C4.55134 9.58333 4.24999 9.28199 4.24999 8.91026V6.21795ZM13.9167 4.42308C13.9167 4.05135 14.218 3.75 14.5897 3.75H17.282C18.6454 3.75 19.75 4.85455 19.75 6.21795V8.91026C19.75 9.28199 19.4486 9.58333 19.0769 9.58333C18.7052 9.58333 18.4038 9.28199 18.4038 8.91026V6.21795C18.4038 5.59801 17.902 5.09615 17.282 5.09615H14.5897C14.218 5.09615 13.9167 4.79481 13.9167 4.42308ZM3.25 12.0055C3.25 11.6338 3.55135 11.3325 3.92308 11.3325H20.0769C20.4487 11.3325 20.75 11.6338 20.75 12.0055C20.75 12.3773 20.4487 12.6786 20.0769 12.6786H3.92308C3.55135 12.6786 3.25 12.3773 3.25 12.0055ZM4.92307 14.4167C5.2948 14.4167 5.59615 14.718 5.59615 15.0897V17.7821C5.59615 18.402 6.09801 18.9038 6.71794 18.9038H9.41025C9.78198 18.9038 10.0833 19.2052 10.0833 19.5769C10.0833 19.9487 9.78198 20.25 9.41025 20.25H6.71794C5.35455 20.25 4.24999 19.1454 4.24999 17.7821V15.0897C4.24999 14.718 4.55134 14.4167 4.92307 14.4167ZM19.0769 14.4167C19.4486 14.4167 19.75 14.718 19.75 15.0897V17.7821C19.75 19.1454 18.6454 20.25 17.282 20.25H14.5897C14.218 20.25 13.9167 19.9487 13.9167 19.5769C13.9167 19.2052 14.218 18.9038 14.5897 18.9038H17.282C17.902 18.9038 18.4038 18.402 18.4038 17.7821V15.0897C18.4038 14.718 18.7052 14.4167 19.0769 14.4167Z" fill="#1E2134"/>
</svg>
