<svg width="24" height="24" viewBox="0 0 24 24" fill="none" xmlns="http://www.w3.org/2000/svg">
<path fill-rule="evenodd" clip-rule="evenodd" d="M4.32207 4.25C2.65108 4.25 1.81413 6.26972 2.99574 7.45133L8.06931 12.5249L9.79293 20.2807L9.79298 20.2809C10.161 21.9346 12.3592 22.2926 13.2312 20.8389L13.2313 20.8388L21.4798 7.0905C22.2316 5.84023 21.3309 4.25 19.8731 4.25H4.32207ZM4.0564 6.39067C3.82001 6.15428 3.98706 5.75 4.32207 5.75H18.9244L8.88693 11.2212L4.0564 6.39067ZM9.60844 12.5363L11.2572 19.9551C11.3311 20.2873 11.7709 20.3574 11.9449 20.0672L11.9449 20.0671L19.7944 6.98416L9.60844 12.5363Z" fill="#1E2134"/>
</svg>
