<svg width="24" height="24" viewBox="0 0 24 24" fill="none" xmlns="http://www.w3.org/2000/svg">
<path fill-rule="evenodd" clip-rule="evenodd" d="M2.75 4C2.75 3.58579 2.41421 3.25 2 3.25C1.58579 3.25 1.25 3.58579 1.25 4V20C1.25 20.4142 1.58579 20.75 2 20.75C2.41421 20.75 2.75 20.4142 2.75 20V4ZM22.75 4C22.75 3.58579 22.4142 3.25 22 3.25C21.5858 3.25 21.25 3.58579 21.25 4V20C21.25 20.4142 21.5858 20.75 22 20.75C22.4142 20.75 22.75 20.4142 22.75 20V4ZM15.3379 7.78119C15.0451 7.4883 14.5702 7.4883 14.2773 7.78119C13.9844 8.07409 13.9844 8.54896 14.2773 8.84185L16.6854 11.25L7.31535 11.25L9.72326 8.8421C10.0161 8.5492 10.0162 8.07433 9.72326 7.78144C9.43036 7.48854 8.95549 7.48854 8.6626 7.78144L4.99445 11.4496C4.84651 11.5866 4.75391 11.7825 4.75391 12C4.75391 12.2122 4.84206 12.4039 4.98374 12.5403L8.6626 16.2192C8.95549 16.5121 9.43036 16.5121 9.72326 16.2192C10.0161 15.9263 10.0161 15.4514 9.72326 15.1585L7.31476 12.75L16.6855 12.75L14.2773 15.1583C13.9844 15.4511 13.9844 15.926 14.2773 16.2189C14.5702 16.5118 15.0451 16.5118 15.3379 16.2189L19.0265 12.5304C19.1184 12.4385 19.1815 12.3286 19.2157 12.2121C19.2266 12.1749 19.2346 12.137 19.2397 12.0988C19.2484 12.0323 19.2483 11.9648 19.2393 11.8983C19.2327 11.8499 19.2215 11.8029 19.2061 11.7578C19.1703 11.6526 19.1104 11.5537 19.0265 11.4697L15.3379 7.78119Z" fill="#1E2134"/>
</svg>
