<svg width="24" height="24" viewBox="0 0 24 24" fill="none" xmlns="http://www.w3.org/2000/svg">
<path d="M22.9368 11.7022C22.9046 11.6298 22.1284 9.9077 20.4019 8.18116C18.1025 5.88152 15.1971 4.66595 12 4.66595C8.80283 4.66595 5.89742 5.88152 3.59805 8.18116C1.87159 9.90771 1.09538 11.6298 1.06315 11.7022C1.0215 11.796 0.999977 11.8974 0.999977 12C0.999977 12.1026 1.0215 12.2041 1.06315 12.2978C1.09538 12.3704 1.87169 14.092 3.59814 15.8182C5.89751 18.1173 8.80283 19.3327 12 19.3327C15.1971 19.3327 18.1024 18.1173 20.4018 15.8183C22.1283 14.092 22.9046 12.3704 22.9368 12.2979C22.9785 12.2041 23 12.1026 23 12C23 11.8974 22.9785 11.796 22.9368 11.7022V11.7022ZM12 8.7001C12.6527 8.7001 13.2907 8.89364 13.8334 9.25625C14.376 9.61886 14.799 10.1343 15.0488 10.7373C15.2986 11.3402 15.3639 12.0038 15.2366 12.6439C15.1092 13.284 14.7949 13.8721 14.3334 14.3336C13.8719 14.7951 13.2839 15.1094 12.6438 15.2367C12.0036 15.364 11.3401 15.2987 10.7371 15.0489C10.1341 14.7991 9.61873 14.3762 9.25612 13.8335C8.89351 13.2908 8.69997 12.6528 8.69997 12.0001C8.70096 11.1252 9.04895 10.2864 9.66761 9.66774C10.2863 9.04908 11.1251 8.70109 12 8.7001V8.7001Z" fill="#1E2134"/>
</svg>
