<svg width="24" height="24" viewBox="0 0 24 24" fill="none" xmlns="http://www.w3.org/2000/svg">
<path d="M17.2202 5.71923C17.5131 5.42636 17.9879 5.42635 18.2808 5.71923C18.5736 6.01212 18.5736 6.48689 18.2808 6.77978L13.0601 11.9995L18.2808 17.2202L18.3325 17.2769C18.5728 17.5714 18.5554 18.0062 18.2808 18.2808C18.0062 18.5554 17.5714 18.5728 17.2769 18.3325L17.2202 18.2808L11.9995 13.0601L6.77978 18.2808C6.48689 18.5736 6.01212 18.5736 5.71923 18.2808C5.42635 17.9879 5.42636 17.5131 5.71923 17.2202L10.939 11.9995L5.71923 6.77978L5.66748 6.72314C5.42717 6.42856 5.44463 5.99384 5.71923 5.71923C5.99384 5.44463 6.42856 5.42717 6.72314 5.66748L6.77978 5.71923L11.9995 10.939L17.2202 5.71923Z" fill="#F44336"/>
</svg>
