<svg width="24" height="24" viewBox="0 0 24 24" fill="none" xmlns="http://www.w3.org/2000/svg">
<path fill-rule="evenodd" clip-rule="evenodd" d="M8.11238 4.18933C8.69817 3.60355 9.64792 3.60356 10.2337 4.18935L12.0576 6.01327L13.8815 4.18935C14.4672 3.60356 15.417 3.60355 16.0028 4.18933C16.5886 4.77512 16.5886 5.72486 16.0028 6.31065L13.5576 8.75592V10.5H15.1864L17.6317 8.05473C18.2174 7.46894 19.1672 7.46894 19.753 8.05472C20.3388 8.64051 20.3388 9.59026 19.753 10.176L17.929 12L19.753 13.824C20.3388 14.4097 20.3388 15.3595 19.753 15.9453C19.1672 16.5311 18.2174 16.5311 17.6317 15.9453L15.1864 13.5H13.5576L13.5576 15.2441L16.0028 17.6894C16.5886 18.2751 16.5886 19.2249 16.0028 19.8107C15.417 20.3965 14.4672 20.3964 13.8815 19.8106L12.0576 17.9867L10.2337 19.8107C9.64791 20.3964 8.69816 20.3965 8.11237 19.8107C7.52658 19.2249 7.52658 18.2751 8.11236 17.6893L10.5576 15.2441L10.5576 13.5L8.81357 13.5L6.36831 15.9453C5.78252 16.5311 4.83277 16.5311 4.24699 15.9453C3.6612 15.3595 3.6612 14.4097 4.24699 13.824L6.07094 12L4.24698 10.176C3.6612 9.59025 3.6612 8.6405 4.24699 8.05472C4.83278 7.46894 5.78253 7.46894 6.36831 8.05473L8.81357 10.5L10.5576 10.5V8.75591L8.11235 6.31065C7.52657 5.72486 7.52658 4.77511 8.11238 4.18933Z" fill="#1FABE8"/>
</svg>
