<svg width="24" height="24" viewBox="0 0 24 24" fill="none" xmlns="http://www.w3.org/2000/svg">
<path d="M12 22H17.7568C18.309 22 18.7568 21.5523 18.7568 21V15.1273M12 22H6.24324C5.69096 22 5.24324 21.5523 5.24324 21V15.1273M12 22V15.1273M5.24324 15.1273L2.81516 12.6051C2.5094 12.2874 2.73449 11.7583 3.17537 11.7583H8.20822C8.47296 11.7583 8.72689 11.8633 8.91435 12.0502L12 15.1273M5.24324 15.1273H12M18.7568 15.1273L21.1848 12.6051C21.4906 12.2874 21.2655 11.7583 20.8246 11.7583H15.7918C15.527 11.7583 15.2731 11.8633 15.0857 12.0502L12 15.1273M18.7568 15.1273H12M11.86 10.8441V8.76635M11.86 8.76635C11.86 8.76635 14.8174 8.61 16.2857 7.31087C18.1905 5.6256 16.9356 1.7441 12.4762 2.01332M11.86 8.76635C11.86 3.67839 8.05545 3.06697 6.61002 4.67968C5.30576 6.13488 6.36898 9.18545 11.86 8.76635Z" stroke="#1E2134" stroke-width="1.5" stroke-linecap="round"/>
</svg>
