<svg width="24" height="24" viewBox="0 0 24 24" fill="none" xmlns="http://www.w3.org/2000/svg">
<path d="M9.22221 22C5.23444 22 2 18.7666 2 14.7778C2 10.7889 5.23444 7.55554 9.22221 7.55554C13.2111 7.55554 16.4444 10.7889 16.4444 14.7778C16.4444 18.7666 13.2111 22 9.22221 22" stroke="#1E2134" stroke-width="1.5" stroke-linecap="round" stroke-linejoin="round"/>
<path d="M9.22224 17.5556C7.68848 17.5556 6.44446 16.312 6.44446 14.7778C6.44446 13.2436 7.68848 12 9.22224 12C10.7564 12 12 13.2436 12 14.7778" stroke="#1E2134" stroke-width="1.5" stroke-linecap="round" stroke-linejoin="round"/>
<path d="M7.71558 7.71555C8.40891 4.45111 11.3067 2 14.7778 2C18.7667 2 22 5.23333 22 9.22221C22 12.6944 19.55 15.5911 16.2845 16.2844" stroke="#1E2134" stroke-width="1.5" stroke-linecap="round" stroke-linejoin="round"/>
</svg>
