<svg width="24" height="24" viewBox="0 0 24 24" fill="none" xmlns="http://www.w3.org/2000/svg">
<path d="M22.9369 11.7029C22.9047 11.6305 22.1285 9.90851 20.402 8.18188C18.1026 5.88224 15.1972 4.66667 12.0001 4.66667C11.3246 4.66592 10.6503 4.72089 9.98386 4.83103C9.8539 4.85273 9.73218 4.90904 9.6315 4.99405C9.53082 5.07905 9.45491 5.18961 9.41174 5.31411C9.36857 5.4386 9.35973 5.57242 9.38617 5.70151C9.4126 5.83059 9.47333 5.95017 9.56196 6.04767L18.847 16.2612C18.9772 16.4044 19.1588 16.4903 19.3521 16.5002C19.5454 16.5101 19.7348 16.4432 19.879 16.3141C21.9701 14.441 22.8984 12.3852 22.9369 12.2986C22.9786 12.2048 23.0001 12.1033 23.0001 12.0007C23.0001 11.8981 22.9786 11.7967 22.9369 11.7029Z" fill="#1E2134"/>
<path d="M5.20939 3.44001C5.07855 3.29608 4.89589 3.21003 4.7016 3.20078C4.50732 3.19153 4.31731 3.25984 4.17339 3.39068C4.02947 3.52152 3.94342 3.70418 3.93417 3.89846C3.92492 4.09275 3.99322 4.28275 4.12407 4.42668L5.88785 6.3668C2.55842 8.41015 1.12701 11.5595 1.06325 11.7029C1.0216 11.7967 1.00008 11.8981 1.00008 12.0007C1.00008 12.1033 1.0216 12.2048 1.06325 12.2986C1.09548 12.3711 1.87178 14.0927 3.59823 15.819C5.8976 18.118 8.80292 19.3334 12.0001 19.3334C13.6432 19.3429 15.2698 19.0045 16.7728 18.3402L18.7908 20.56C18.9216 20.7039 19.1042 20.79 19.2985 20.7992C19.4928 20.8085 19.6828 20.7402 19.8267 20.6093C19.9707 20.4785 20.0567 20.2959 20.066 20.1016C20.0752 19.9073 20.0069 19.7173 19.8761 19.5734L5.20939 3.44001ZM12.0001 15.3001C11.3969 15.3003 10.8052 15.1352 10.2894 14.8226C9.77354 14.5101 9.35325 14.0621 9.07424 13.5273C8.79522 12.9926 8.66816 12.3916 8.70687 11.7897C8.74557 11.1878 8.94857 10.608 9.29377 10.1134L13.6209 14.8732C13.1267 15.1534 12.5682 15.3005 12.0001 15.3001Z" fill="#1E2134"/>
</svg>
