<svg width="24" height="24" viewBox="0 0 24 24" fill="none" xmlns="http://www.w3.org/2000/svg">
<path fill-rule="evenodd" clip-rule="evenodd" d="M12 2.25C6.61522 2.25 2.25 6.61522 2.25 12C2.25 17.3848 6.61522 21.75 12 21.75C17.3848 21.75 21.75 17.3848 21.75 12C21.75 6.61522 17.3848 2.25 12 2.25ZM15.7607 8.1988C16.0535 8.49169 16.0535 8.96657 15.7607 9.25946L13.0404 11.9797L15.7607 14.7C16.0535 14.9929 16.0535 15.4678 15.7607 15.7607C15.4678 16.0535 14.9929 16.0535 14.7 15.7607L11.9797 13.0404L9.25946 15.7607C8.96657 16.0535 8.49169 16.0535 8.1988 15.7607C7.90591 15.4678 7.90591 14.9929 8.1988 14.7L10.9191 11.9797L8.1988 9.25946C7.90591 8.96657 7.90591 8.49169 8.1988 8.1988C8.49169 7.90591 8.96657 7.90591 9.25946 8.1988L11.9797 10.9191L14.7 8.1988C14.9929 7.90591 15.4678 7.90591 15.7607 8.1988Z" fill="#1E2134"/>
</svg>
