<svg width="40" height="40" viewBox="0 0 40 40" fill="none" xmlns="http://www.w3.org/2000/svg">
<path d="M26.3347 35.0064H31.6715C33.5132 35.0064 35.0063 33.5134 35.0063 31.6717V8.32862C35.0063 6.4869 33.5132 4.9939 31.6715 4.9939L8.32847 4.9939C6.48676 4.9939 4.99375 6.4869 4.99375 8.32862L4.99375 15.1014M20.3969 14.8327C21.2236 15.6594 21.2236 16.9998 20.3969 17.8266M23.5351 12.8597C25.3862 14.7756 25.3862 17.8818 23.5351 19.7976M27.0826 11.0358C29.8483 13.9592 29.8483 18.699 27.0826 21.6225M18.6653 35.0063H5.82742C5.367 35.0063 4.99374 34.5585 4.99374 34.006V33.1937C4.99924 30.8827 6.5592 29.0109 8.4852 29.0043H16.0075C17.9335 29.0109 19.4935 30.8827 19.499 33.1937V34.006C19.499 34.5585 19.1257 35.0063 18.6653 35.0063ZM12 25.3395C10.16 25.3395 8.66775 23.8492 8.6653 22.0093C8.66286 20.1693 10.1512 18.675 11.9911 18.6701C13.8311 18.6652 15.3274 20.1515 15.3347 21.9915C15.3383 22.8782 14.9885 23.7298 14.3627 24.3581C13.737 24.9864 12.8867 25.3395 12 25.3395Z" stroke="#1E2134" stroke-width="2" stroke-linecap="round" stroke-linejoin="round"/>
</svg>
