<svg width="24" height="24" viewBox="0 0 24 24" fill="none" xmlns="http://www.w3.org/2000/svg">
<path fill-rule="evenodd" clip-rule="evenodd" d="M2.25 12C2.25 6.61522 6.61522 2.25 12 2.25C17.3848 2.25 21.75 6.61522 21.75 12C21.75 17.3848 17.3848 21.75 12 21.75C6.61522 21.75 2.25 17.3848 2.25 12ZM12 3.75C7.44365 3.75 3.75 7.44365 3.75 12C3.75 16.5563 7.44365 20.25 12 20.25C16.5563 20.25 20.25 16.5563 20.25 12C20.25 7.44365 16.5563 3.75 12 3.75ZM8.1988 8.1988C8.49169 7.9059 8.96656 7.9059 9.25946 8.1988L11.9797 10.9191L14.7 8.1988C14.9929 7.9059 15.4678 7.9059 15.7607 8.1988C16.0535 8.49169 16.0535 8.96656 15.7607 9.25946L13.0404 11.9797L15.7607 14.7C16.0535 14.9929 16.0535 15.4678 15.7607 15.7607C15.4678 16.0535 14.9929 16.0535 14.7 15.7607L11.9797 13.0404L9.25946 15.7607C8.96656 16.0535 8.49169 16.0535 8.1988 15.7607C7.9059 15.4678 7.9059 14.9929 8.1988 14.7L10.9191 11.9797L8.1988 9.25946C7.9059 8.96656 7.9059 8.49169 8.1988 8.1988Z" fill="#1E2134"/>
</svg>
