<svg width="24" height="24" viewBox="0 0 24 24" fill="none" xmlns="http://www.w3.org/2000/svg">
<path d="M7.01 14.7715V9.27148H8.08727C9.512 9.27148 10.51 10.4019 10.51 12.0215C10.51 13.641 9.512 14.7715 8.08727 14.7715H7.01Z" fill="#E6007A"/>
<path fill-rule="evenodd" clip-rule="evenodd" d="M5.93928 4.42259C9.81919 1.32182 15.412 1.64211 18.9125 5.16555C22.4131 8.689 22.6969 14.2838 19.5709 18.1434C16.507 21.9263 11.1321 22.8513 6.9898 20.3517L4.70459 20.7335C4.30625 20.8001 3.90029 20.6701 3.61471 20.3845C3.32913 20.0989 3.19913 19.693 3.26568 19.2946L3.65047 16.9915C1.17605 12.8326 2.13571 7.46235 5.93928 4.42259ZM13.9845 8.32743C13.8773 7.92732 13.4661 7.68985 13.0659 7.79702C12.6658 7.9042 12.4284 8.31543 12.5355 8.71554L14.4105 15.7155C14.4984 16.0435 14.7955 16.2715 15.135 16.2715H16.385C16.7245 16.2715 17.0216 16.0435 17.1095 15.7155L18.9845 8.71554C19.0916 8.31543 18.8542 7.9042 18.4541 7.79702C18.0539 7.68985 17.6427 7.92732 17.5355 8.32743L15.8222 14.7237C15.8147 14.7519 15.7892 14.7715 15.76 14.7715C15.7308 14.7715 15.7053 14.7519 15.6978 14.7237L13.9845 8.32743ZM6.26 7.77148C5.84579 7.77148 5.51 8.10727 5.51 8.52148V15.5215C5.51 15.9357 5.84579 16.2715 6.26 16.2715H8.08727C10.5285 16.2715 12.01 14.2679 12.01 12.0215C12.01 9.77505 10.5285 7.77148 8.08727 7.77148H6.26Z" fill="#E6007A"/>
</svg>
