<svg width="24" height="24" viewBox="0 0 24 24" fill="none" xmlns="http://www.w3.org/2000/svg">
<path fill-rule="evenodd" clip-rule="evenodd" d="M3.5 5.25C3.08579 5.25 2.75 5.58579 2.75 6C2.75 6.41421 3.08579 6.75 3.5 6.75H4.5C4.91421 6.75 5.25 6.41421 5.25 6C5.25 5.58579 4.91421 5.25 4.5 5.25H3.5ZM8.5 5.25C8.08579 5.25 7.75 5.58579 7.75 6C7.75 6.41421 8.08579 6.75 8.5 6.75H20.5C20.9142 6.75 21.25 6.41421 21.25 6C21.25 5.58579 20.9142 5.25 20.5 5.25H8.5ZM2.75 12C2.75 11.5858 3.08579 11.25 3.5 11.25H4.5C4.91421 11.25 5.25 11.5858 5.25 12C5.25 12.4142 4.91421 12.75 4.5 12.75H3.5C3.08579 12.75 2.75 12.4142 2.75 12ZM3.5 17.25C3.08579 17.25 2.75 17.5858 2.75 18C2.75 18.4142 3.08579 18.75 3.5 18.75H4.5C4.91421 18.75 5.25 18.4142 5.25 18C5.25 17.5858 4.91421 17.25 4.5 17.25H3.5ZM7.75 12C7.75 11.5858 8.08579 11.25 8.5 11.25H20.5C20.9142 11.25 21.25 11.5858 21.25 12C21.25 12.4142 20.9142 12.75 20.5 12.75H8.5C8.08579 12.75 7.75 12.4142 7.75 12ZM8.5 17.25C8.08579 17.25 7.75 17.5858 7.75 18C7.75 18.4142 8.08579 18.75 8.5 18.75H20.5C20.9142 18.75 21.25 18.4142 21.25 18C21.25 17.5858 20.9142 17.25 20.5 17.25H8.5Z" fill="#1E2134"/>
</svg>
