<svg width="40" height="40" viewBox="0 0 40 40" fill="none" xmlns="http://www.w3.org/2000/svg">
<path d="M10 18C10 17.4477 9.55228 17 9 17C8.44772 17 8 17.4477 8 18H10ZM9 22.4L8 22.4L9 22.4ZM13.244 24.5C13.7963 24.5 14.244 24.0523 14.244 23.5C14.244 22.9477 13.7963 22.5 13.244 22.5V24.5ZM14.244 18C14.244 17.4477 13.7963 17 13.244 17C12.6918 17 12.244 17.4477 12.244 18H14.244ZM12.244 29C12.244 29.5523 12.6918 30 13.244 30C13.7963 30 14.244 29.5523 14.244 29H12.244ZM27.756 18C27.756 17.4477 27.3082 17 26.756 17C26.2037 17 25.756 17.4477 25.756 18H27.756ZM31 24.5C31.5523 24.5 32 24.0523 32 23.5C32 22.9477 31.5523 22.5 31 22.5V24.5ZM32 18C32 17.4477 31.5523 17 31 17C30.4477 17 30 17.4477 30 18H32ZM30 29C30 29.5523 30.4477 30 31 30C31.5523 30 32 29.5523 32 29H30ZM6 6H34V4H6V6ZM6 34C4.89543 34 4 33.1046 4 32H2C2 34.2091 3.79086 36 6 36V34ZM36 32C36 33.1046 35.1046 34 34 34V36C36.2091 36 38 34.2091 38 32H36ZM34 6C35.1046 6 36 6.89543 36 8H38C38 5.79086 36.2091 4 34 4V6ZM6 4C3.79086 4 2 5.79086 2 8H4C4 6.89543 4.89543 6 6 6V4ZM34 34H6V36H34V34ZM4 32V11.9231H2V32H4ZM4 11.9231V8H2V11.9231H4ZM36 8V11.9231H38V8H36ZM36 11.9231V32H38V11.9231H36ZM3 12.9231H37V10.9231H3V12.9231ZM8 18V22.4H10V18H8ZM8 22.4C8 22.9455 8.20869 23.4757 8.59101 23.8721L10.0305 22.4836C10.0149 22.4674 10 22.4379 10 22.4L8 22.4ZM8.59101 23.8721C8.97452 24.2697 9.50251 24.5 10.061 24.5V22.5C10.0581 22.5 10.0543 22.4995 10.0496 22.4974C10.0447 22.4953 10.038 22.4913 10.0305 22.4836L8.59101 23.8721ZM10.061 24.5H13.244V22.5H10.061V24.5ZM12.244 18V29H14.244V18H12.244ZM16.8515 19.1V27.9H18.8515V19.1H16.8515ZM16.8515 27.9C16.8515 28.4455 17.0602 28.9757 17.4425 29.3721L18.882 27.9836C18.8663 27.9674 18.8515 27.9379 18.8515 27.9H16.8515ZM17.4425 29.3721C17.826 29.7697 18.354 30 18.9125 30V28C18.9095 28 18.9058 27.9995 18.901 27.9974C18.8962 27.9953 18.8894 27.9913 18.882 27.9836L17.4425 29.3721ZM18.9125 30H21.0345V28H18.9125V30ZM21.0345 30C21.593 30 22.121 29.7696 22.5045 29.3721L21.065 27.9836C21.0575 27.9913 21.0508 27.9953 21.0459 27.9974C21.0412 27.9995 21.0374 28 21.0345 28V30ZM22.5045 29.3721C22.8868 28.9757 23.0955 28.4455 23.0955 27.9H21.0955C21.0955 27.9379 21.0806 27.9674 21.065 27.9836L22.5045 29.3721ZM23.0955 27.9V19.1H21.0955V27.9H23.0955ZM23.0955 19.1C23.0955 18.5545 22.8868 18.0243 22.5045 17.6279L21.065 19.0164C21.0806 19.0326 21.0955 19.0621 21.0955 19.1H23.0955ZM22.5045 17.6279C22.121 17.2304 21.593 17 21.0345 17V19C21.0374 19 21.0412 19.0005 21.0459 19.0026C21.0508 19.0047 21.0575 19.0087 21.065 19.0164L22.5045 17.6279ZM21.0345 17H18.9125V19H21.0345V17ZM18.9125 17C18.354 17 17.826 17.2304 17.4425 17.6279L18.882 19.0164C18.8894 19.0087 18.8962 19.0047 18.901 19.0026C18.9058 19.0005 18.9095 19 18.9125 19V17ZM17.4425 17.6279C17.0602 18.0243 16.8515 18.5545 16.8515 19.1H18.8515C18.8515 19.0621 18.8663 19.0326 18.882 19.0164L17.4425 17.6279ZM25.756 18V22.4H27.756V18H25.756ZM25.756 22.4C25.756 22.9455 25.9647 23.4757 26.347 23.8721L27.7865 22.4836C27.7708 22.4674 27.756 22.4379 27.756 22.4H25.756ZM26.347 23.8721C26.7305 24.2697 27.2585 24.5 27.817 24.5V22.5C27.814 22.5 27.8103 22.4995 27.8055 22.4974C27.8007 22.4953 27.7939 22.4913 27.7865 22.4836L26.347 23.8721ZM27.817 24.5H31V22.5H27.817V24.5ZM30 18V29H32V18H30Z" fill="#1E2134"/>
</svg>
