<svg width="24" height="24" viewBox="0 0 24 24" fill="none" xmlns="http://www.w3.org/2000/svg">
<path fill-rule="evenodd" clip-rule="evenodd" d="M2.25 12C2.25 6.61522 6.61522 2.25 12 2.25C17.3848 2.25 21.75 6.61522 21.75 12C21.75 17.3848 17.3848 21.75 12 21.75C6.61522 21.75 2.25 17.3848 2.25 12Z" fill="#F44336"/>
<path fill-rule="evenodd" clip-rule="evenodd" d="M11.9996 14C11.5026 14 11.0996 13.5971 11.0996 13.1V6.9C11.0996 6.40294 11.5026 6 11.9996 6C12.4967 6 12.8996 6.40294 12.8996 6.9V13.1C12.8996 13.5971 12.4967 14 11.9996 14ZM13.1189 16.882C13.1189 16.2645 12.6183 15.7639 12.0009 15.7639C11.3834 15.7639 10.8828 16.2645 10.8828 16.882C10.8828 17.4994 11.3834 18 12.0009 18C12.6183 18 13.1189 17.4994 13.1189 16.882Z" fill="white"/>
</svg>
