<svg width="24" height="24" viewBox="0 0 24 24" fill="none" xmlns="http://www.w3.org/2000/svg">
<path d="M6.36615 6.30566C9.61417 3.56601 14.3846 3.56626 17.6328 6.30566L18.4697 5.46973C18.7625 5.17711 19.2374 5.17709 19.5302 5.46973C19.8228 5.76257 19.8228 6.23743 19.5302 6.53027L18.6923 7.36719C21.4321 10.6153 21.4317 15.3836 18.6923 18.6318L20.5302 20.4697L20.582 20.5264C20.8223 20.8209 20.8048 21.2557 20.5302 21.5303C20.2556 21.8049 19.8209 21.8223 19.5263 21.582L19.4697 21.5303L17.1347 19.1953C17.132 19.1926 17.1286 19.1902 17.1259 19.1875C17.1228 19.1844 17.1202 19.1809 17.1171 19.1777L3.46967 5.53027C3.17678 5.23738 3.17678 4.76262 3.46967 4.46973C3.76257 4.17686 4.23733 4.17684 4.53022 4.46973L6.36615 6.30566ZM4.03022 9.4043C4.20106 9.02708 4.64608 8.85953 5.02338 9.03027C5.40051 9.20116 5.56813 9.64618 5.3974 10.0234C4.15523 12.7686 4.74242 15.9963 6.87299 18.127C9.00361 20.2575 12.2314 20.8447 14.9765 19.6025C15.3539 19.4318 15.7989 19.6002 15.9697 19.9775C16.14 20.3547 15.9727 20.799 15.5956 20.9697C12.2817 22.4694 8.3846 21.7596 5.81244 19.1875C3.24035 16.6154 2.53054 12.7183 4.03022 9.4043ZM17.1259 7.87305C14.4736 5.22122 10.277 5.05243 7.42963 7.36914L17.6288 17.5684C19.9453 14.7208 19.778 10.5252 17.1259 7.87305ZM13.9999 1.25C14.4141 1.25003 14.7499 1.58581 14.7499 2C14.7499 2.41419 14.4141 2.74997 13.9999 2.75H9.99994C9.58573 2.75 9.24994 2.41421 9.24994 2C9.24994 1.58579 9.58573 1.25 9.99994 1.25H13.9999Z" fill="#1E2134"/>
</svg>
