<svg width="24" height="24" viewBox="0 0 24 24" fill="none" xmlns="http://www.w3.org/2000/svg">
<path d="M7.69501 1.63491C7.81781 1.47278 7.83016 1.25243 7.72626 1.0776C7.62237 0.90276 7.42292 0.808275 7.22182 0.838624C3.97514 1.32859 1.5 4.19174 1.5 7.63229C1.5 11.413 4.49133 14.4997 8.20787 14.4997C11.0684 14.4997 13.5011 12.6688 14.4679 10.1044C14.54 9.91313 14.4884 9.69722 14.3376 9.5592C14.1868 9.42118 13.9671 9.38886 13.783 9.47759C13.1377 9.7885 12.4175 9.96225 11.6567 9.96225C8.89715 9.96225 6.63858 7.66411 6.63858 4.80233C6.63858 3.6067 7.03345 2.50839 7.69501 1.63491Z" fill="#1E2134"/>
</svg>
