<svg width="24" height="24" viewBox="0 0 24 24" fill="none" xmlns="http://www.w3.org/2000/svg">
<path fill-rule="evenodd" clip-rule="evenodd" d="M8.75016 1.33301C8.75016 0.918794 8.41438 0.583008 8.00016 0.583008C7.58595 0.583008 7.25016 0.918795 7.25016 1.33301L7.25016 2.66634C7.25016 3.08055 7.58595 3.41634 8.00017 3.41634C8.41438 3.41634 8.75016 3.08055 8.75016 2.66634L8.75016 1.33301ZM3.5305 2.46901C3.23761 2.17611 2.76273 2.17611 2.46984 2.469C2.17694 2.76189 2.17694 3.23676 2.46983 3.52966L3.46984 4.52969C3.76274 4.82259 4.23761 4.82259 4.5305 4.5297C4.8234 4.23681 4.8234 3.76193 4.53051 3.46904L3.5305 2.46901ZM13.5305 3.53C13.8234 3.23711 13.8234 2.76224 13.5305 2.46934C13.2376 2.17645 12.7627 2.17645 12.4698 2.46934L11.4698 3.46934C11.1769 3.76224 11.1769 4.23711 11.4698 4.53C11.7627 4.8229 12.2376 4.8229 12.5305 4.53L13.5305 3.53ZM1.3335 7.24967C0.919283 7.24967 0.583496 7.58546 0.583496 7.99967C0.583496 8.41389 0.919283 8.74967 1.3335 8.74967H2.66683C3.08104 8.74967 3.41683 8.41389 3.41683 7.99967C3.41683 7.58546 3.08104 7.24967 2.66683 7.24967H1.3335ZM13.3335 7.24968C12.9193 7.24968 12.5835 7.58546 12.5835 7.99968C12.5835 8.41389 12.9193 8.74968 13.3335 8.74968H14.6668C15.081 8.74968 15.4168 8.41389 15.4168 7.99968C15.4168 7.58546 15.081 7.24968 14.6668 7.24968H13.3335ZM12.5305 11.469C12.2376 11.1761 11.7627 11.1761 11.4698 11.469C11.1769 11.7619 11.1769 12.2368 11.4698 12.5297L12.4698 13.5297C12.7627 13.8226 13.2376 13.8226 13.5305 13.5297C13.8234 13.2368 13.8234 12.7619 13.5305 12.469L12.5305 11.469ZM4.53049 12.53C4.82339 12.2371 4.82339 11.7622 4.53049 11.4693C4.2376 11.1765 3.76273 11.1765 3.46983 11.4693L2.46983 12.4693C2.17694 12.7622 2.17694 13.2371 2.46983 13.53C2.76273 13.8229 3.2376 13.8229 3.53049 13.53L4.53049 12.53ZM8.75016 13.333C8.75017 12.9188 8.41438 12.583 8.00017 12.583C7.58595 12.583 7.25017 12.9188 7.25016 13.333L7.25016 14.6663C7.25016 15.0806 7.58595 15.4163 8.00016 15.4163C8.41438 15.4163 8.75016 15.0806 8.75016 14.6663L8.75016 13.333ZM4.16683 7.99967C4.16683 5.88258 5.88307 4.16634 8.00016 4.16634C10.1173 4.16634 11.8335 5.88258 11.8335 7.99967C11.8335 10.1168 10.1173 11.833 8.00016 11.833C5.88307 11.833 4.16683 10.1168 4.16683 7.99967Z" fill="#1E2134"/>
</svg>
