<svg width="24" height="24" viewBox="0 0 24 24" fill="none" xmlns="http://www.w3.org/2000/svg">
<path fill-rule="evenodd" clip-rule="evenodd" d="M1.3335 4C1.3335 3.46957 1.54421 2.96086 1.91928 2.58579C2.29436 2.21071 2.80306 2 3.3335 2H12.6668C13.1973 2 13.706 2.21071 14.081 2.58579C14.4561 2.96086 14.6668 3.46957 14.6668 4V9.33333C14.6668 9.86377 14.4561 10.3725 14.081 10.7475C13.706 11.1226 13.1973 11.3333 12.6668 11.3333H10.0002V12.6667H10.6668C10.8436 12.6667 11.0132 12.7369 11.1382 12.8619C11.2633 12.987 11.3335 13.1565 11.3335 13.3333C11.3335 13.5101 11.2633 13.6797 11.1382 13.8047C11.0132 13.9298 10.8436 14 10.6668 14H5.3335C5.15669 14 4.98712 13.9298 4.86209 13.8047C4.73707 13.6797 4.66683 13.5101 4.66683 13.3333C4.66683 13.1565 4.73707 12.987 4.86209 12.8619C4.98712 12.7369 5.15669 12.6667 5.3335 12.6667H6.00016V11.3333H3.3335C2.80306 11.3333 2.29436 11.1226 1.91928 10.7475C1.54421 10.3725 1.3335 9.86377 1.3335 9.33333V4ZM8.66683 11.3333H7.3335V12.6667H8.66683V11.3333Z" fill="#1E2134"/>
</svg>
