<svg width="24" height="24" viewBox="0 0 24 24" fill="none" xmlns="http://www.w3.org/2000/svg">
<path fill-rule="evenodd" clip-rule="evenodd" d="M5 4.75C4.58579 4.75 4.25 5.08579 4.25 5.5C4.25 5.91421 4.58579 6.25 5 6.25L14 6.25C14.4142 6.25 14.75 5.91421 14.75 5.5C14.75 5.08579 14.4142 4.75 14 4.75L5 4.75ZM18 4.75C17.5858 4.75 17.25 5.08579 17.25 5.5C17.25 5.91421 17.5858 6.25 18 6.25H19C19.4142 6.25 19.75 5.91421 19.75 5.5C19.75 5.08579 19.4142 4.75 19 4.75H18ZM4.25 12C4.25 11.5858 4.58579 11.25 5 11.25H14C14.4142 11.25 14.75 11.5858 14.75 12C14.75 12.4142 14.4142 12.75 14 12.75H5C4.58579 12.75 4.25 12.4142 4.25 12ZM5 17.75C4.58579 17.75 4.25 18.0858 4.25 18.5C4.25 18.9142 4.58579 19.25 5 19.25H14C14.4142 19.25 14.75 18.9142 14.75 18.5C14.75 18.0858 14.4142 17.75 14 17.75H5ZM17.25 12C17.25 11.5858 17.5858 11.25 18 11.25H19C19.4142 11.25 19.75 11.5858 19.75 12C19.75 12.4142 19.4142 12.75 19 12.75H18C17.5858 12.75 17.25 12.4142 17.25 12ZM18 17.75C17.5858 17.75 17.25 18.0858 17.25 18.5C17.25 18.9142 17.5858 19.25 18 19.25H19C19.4142 19.25 19.75 18.9142 19.75 18.5C19.75 18.0858 19.4142 17.75 19 17.75H18Z" fill="#1E2134"/>
</svg>
