<svg width="24" height="24" viewBox="0 0 24 24" fill="none" xmlns="http://www.w3.org/2000/svg">
<path d="M20.2139 11.0391C20.7348 10.7978 21.3448 10.8266 21.8428 11.1221C22.3738 11.4374 22.6992 12.0095 22.6992 12.627V18.6241L22.6953 18.7393C22.6576 19.3122 22.3406 19.8334 21.8428 20.129C21.3448 20.4245 20.7349 20.4534 20.2139 20.212L20.1104 20.1602L17.7812 18.8887L17.999 19.4415L18.0439 19.5665C18.2474 20.1954 18.1503 20.8871 17.7754 21.4376C17.4004 21.9879 16.7926 22.3313 16.1328 22.3721L16 22.376C15.1745 22.376 14.4271 21.9034 14.0693 21.17L14.0029 21.0196L13.0986 18.7393C11.9967 18.3809 11.1994 17.3475 11.1992 16.126V15.126C11.1992 14.2412 11.6184 13.4552 12.2676 12.9522C11.5325 12.808 10.7783 12.7413 10 12.7413C8.08495 12.7413 6.21997 13.2088 4.85938 14.001C3.49204 14.7972 2.75 15.8398 2.75 16.9835V17.9835C2.75023 18.1211 2.86236 18.2335 3 18.2335H10L10.0771 18.2374C10.4551 18.276 10.75 18.5953 10.75 18.9835C10.7498 19.3714 10.455 19.691 10.0771 19.7296L10 19.7335H3C2.03393 19.7335 1.25023 18.9495 1.25 17.9835V16.9835C1.25 15.1023 2.48408 13.6487 4.10449 12.7051C5.7319 11.7576 7.86705 11.2413 10 11.2413C11.7451 11.2413 13.417 11.5465 15.0361 12.2559L15.2998 12.376H17.7559L20.1104 11.0909L20.2139 11.0391ZM15.3975 20.4669L15.4404 20.5548C15.5554 20.7513 15.7674 20.876 16 20.876L16.0801 20.8712C16.2635 20.8483 16.4306 20.7477 16.5361 20.5928C16.6416 20.4379 16.6738 20.2456 16.6279 20.0665L16.6035 19.9903L16.165 18.876H14.7666L15.3975 20.4669ZM20.8896 12.3839L20.8291 12.4073L18.6992 13.5694V17.6807L20.8291 18.8438L20.8896 18.8673C20.9524 18.8826 21.0201 18.8728 21.0771 18.8389C21.1339 18.8051 21.1738 18.7507 21.1904 18.6885L21.1992 18.6241V12.627C21.1992 12.5389 21.1528 12.4572 21.0771 12.4122C21.0201 12.3784 20.9524 12.3685 20.8896 12.3839ZM13.9492 13.876C13.2589 13.8761 12.6992 14.4357 12.6992 15.126V16.126C12.6994 16.7565 13.1666 17.2758 13.7734 17.3614C13.7796 17.3624 13.7858 17.3632 13.792 17.3643C13.8436 17.3708 13.8959 17.376 13.9492 17.376H16.6797C16.6869 17.3761 16.694 17.3758 16.7012 17.376H17.1992V13.876H13.9492ZM7 2.49226C8.65647 0.835784 11.3424 0.836044 12.999 2.49226L13.1494 2.65046C14.6543 4.31566 14.604 6.88633 12.999 8.49128C11.3424 10.1478 8.65657 10.1479 7 8.49128C5.34382 6.83468 5.34362 4.14874 7 2.49226ZM11.7305 3.3653C10.6535 2.48683 9.06446 2.54889 8.06055 3.5528C6.98995 4.6235 6.99015 6.35992 8.06055 7.43073C9.13133 8.50152 10.8677 8.50146 11.9385 7.43073C12.9423 6.42691 13.0052 4.83877 12.127 3.76179L11.9385 3.5528L11.7305 3.3653Z" fill="#1E2134"/>
</svg>
