<svg width="24" height="24" viewBox="0 0 24 24" fill="none" xmlns="http://www.w3.org/2000/svg">
<path d="M12 1.75C17.6609 1.75 22.25 6.33908 22.25 12C22.25 17.6609 17.6609 22.25 12 22.25C6.33908 22.25 1.75 17.6609 1.75 12C1.75 6.33908 6.33908 1.75 12 1.75ZM12 3.25C7.16751 3.25 3.25 7.16751 3.25 12C3.25 16.8325 7.16751 20.75 12 20.75C16.8325 20.75 20.75 16.8325 20.75 12C20.75 7.16751 16.8325 3.25 12 3.25ZM13.5 5.75C14.3284 5.75 15 6.42157 15 7.25C15 8.0131 14.7067 8.74379 14.1865 9.29883C16.0754 10.2217 17.34 12.1966 17.249 14.4307L17.248 14.4297C17.233 15.8918 16.1188 17.0903 14.6914 17.2354L14.4004 17.25H9.59961C8.03576 17.2497 6.76797 15.9898 6.75195 14.4297L6.75098 14.4307C6.66 12.1967 7.92383 10.2208 9.8125 9.29785C9.31016 8.76147 9 8.04286 9 7.25C9 6.42157 9.67157 5.75 10.5 5.75H13.5ZM12 10.251C9.8354 10.3649 8.16085 12.1992 8.24902 14.3691L8.25 14.4004L8.25684 14.5381C8.32606 15.2188 8.90163 15.7499 9.60059 15.75H14.4004L14.5381 15.7432C15.2186 15.674 15.7497 15.0991 15.75 14.4004L15.751 14.3691C15.8392 12.1992 14.1646 10.3649 12 10.251ZM10.5 7.25C10.5 8.07843 11.1716 8.75 12 8.75C12.3978 8.75 12.7792 8.59185 13.0605 8.31055C13.3419 8.02924 13.5 7.64782 13.5 7.25H10.5Z" fill="#1E2134"/>
</svg>
