<svg width="24" height="24" viewBox="0 0 24 24" fill="none" xmlns="http://www.w3.org/2000/svg">
<path d="M12 17.791C13.2446 17.791 14.2537 18.8004 14.2539 20.0449C14.2539 21.2896 13.2447 22.2988 12 22.2988C10.7554 22.2987 9.74613 21.2896 9.74609 20.0449C9.74635 18.8005 10.7555 17.7911 12 17.791ZM12 19.291C11.5839 19.2911 11.2463 19.6289 11.2461 20.0449C11.2461 20.4612 11.5838 20.7987 12 20.7988C12.4163 20.7988 12.7539 20.4612 12.7539 20.0449C12.7537 19.6288 12.4162 19.291 12 19.291ZM4.7168 16.0947C5.5969 15.2147 7.02411 15.2148 7.9043 16.0947C8.78446 16.9749 8.78443 18.402 7.9043 19.2822C7.0241 20.1622 5.59691 20.1623 4.7168 19.2822C3.83694 18.4021 3.83692 16.9748 4.7168 16.0947ZM16.0957 16.0947C16.9759 15.2149 18.4031 15.2147 19.2832 16.0947C20.1632 16.9748 20.163 18.402 19.2832 19.2822C18.403 20.1624 16.9759 20.1623 16.0957 19.2822C15.2155 18.402 15.2155 16.9749 16.0957 16.0947ZM6.84375 17.1553C6.54944 16.8612 6.07266 16.8613 5.77832 17.1553C5.48394 17.4497 5.48397 17.9273 5.77832 18.2217C6.07267 18.5157 6.54943 18.5158 6.84375 18.2217C7.1381 17.9273 7.13813 17.4497 6.84375 17.1553ZM18.2227 17.1553C17.9284 16.861 17.4507 16.8612 17.1562 17.1553C16.8619 17.4497 16.8619 17.9273 17.1562 18.2217C17.4506 18.516 17.9283 18.5161 18.2227 18.2217C18.5167 17.9273 18.5169 17.4496 18.2227 17.1553ZM12 8.51855C13.8676 8.51861 15.3818 10.0328 15.3818 11.9004C15.3816 13.7678 13.8675 15.2822 12 15.2822C10.1326 15.2821 8.61839 13.7678 8.61816 11.9004C8.61816 10.0328 10.1324 8.5187 12 8.51855ZM20.0459 9.74609C21.2906 9.74613 22.2998 10.7553 22.2998 12C22.2997 13.2446 21.2906 14.2539 20.0459 14.2539C18.8012 14.2539 17.7921 13.2447 17.792 12C17.792 10.7553 18.8012 9.74609 20.0459 9.74609ZM3.9541 9.74512C5.19874 9.74515 6.20785 10.7544 6.20801 11.999C6.20801 13.2438 5.19884 14.2529 3.9541 14.2529C2.70955 14.2527 1.7002 13.2436 1.7002 11.999C1.70035 10.7545 2.70964 9.74536 3.9541 9.74512ZM12 10.0186C10.9609 10.0187 10.1182 10.8612 10.1182 11.9004C10.1184 12.9394 10.961 13.7821 12 13.7822C13.0391 13.7822 13.8816 12.9394 13.8818 11.9004C13.8818 10.8612 13.0392 10.0186 12 10.0186ZM20.0459 11.2461C19.6296 11.2461 19.292 11.5837 19.292 12C19.2921 12.4162 19.6296 12.7539 20.0459 12.7539C20.4621 12.7539 20.7997 12.4162 20.7998 12C20.7998 11.5837 20.4622 11.2461 20.0459 11.2461ZM3.9541 11.2451C3.53807 11.2454 3.20035 11.583 3.2002 11.999C3.2002 12.4152 3.53797 12.7527 3.9541 12.7529C4.37041 12.7529 4.70801 12.4153 4.70801 11.999C4.70785 11.5828 4.37031 11.2452 3.9541 11.2451ZM4.7168 4.7168C5.59687 3.83677 7.0241 3.83697 7.9043 4.7168C8.78442 5.59697 8.78442 7.02413 7.9043 7.9043C7.02412 8.78432 5.59694 8.78439 4.7168 7.9043C3.837 7.02414 3.83687 5.59688 4.7168 4.7168ZM16.0957 4.7168C16.9759 3.83681 18.4031 3.83672 19.2832 4.7168C20.1631 5.59694 20.1631 7.02419 19.2832 7.9043C18.4031 8.78439 16.9759 8.78422 16.0957 7.9043C15.2156 7.02411 15.2155 5.59696 16.0957 4.7168ZM6.84375 5.77734C6.54946 5.48341 6.07264 5.48345 5.77832 5.77734C5.48393 6.07174 5.48393 6.54936 5.77832 6.84375C6.07268 7.1379 6.54941 7.13794 6.84375 6.84375C7.13809 6.54937 7.13809 6.07173 6.84375 5.77734ZM18.2217 5.77734C17.9273 5.48328 17.4506 5.48322 17.1562 5.77734C16.8619 6.07172 16.8619 6.54935 17.1562 6.84375C17.4505 7.13777 17.9273 7.13771 18.2217 6.84375C18.516 6.54935 18.5161 6.07172 18.2217 5.77734ZM12 1.7002C13.2447 1.70023 14.2539 2.70936 14.2539 3.9541C14.2539 5.19882 13.2447 6.20797 12 6.20801C10.7554 6.20788 9.74613 5.19876 9.74609 3.9541C9.74609 2.70942 10.7553 1.70032 12 1.7002ZM12 3.2002C11.5838 3.20032 11.2461 3.53784 11.2461 3.9541C11.2461 4.37033 11.5838 4.70788 12 4.70801C12.4163 4.70797 12.7539 4.37039 12.7539 3.9541C12.7539 3.53779 12.4163 3.20023 12 3.2002Z" fill="#1E2134"/>
</svg>
