<svg width="24" height="24" viewBox="0 0 24 24" fill="none" xmlns="http://www.w3.org/2000/svg">
<path d="M5.1352 4.38887C9.15887 0.753664 15.3708 0.874443 19.2485 4.75215L19.6118 5.13497C23.1295 9.02877 23.1296 14.9717 19.6118 18.8654L19.2485 19.2482C16.4935 22.0032 12.5607 22.8608 9.07367 21.8254L8.73774 21.7189C7.96714 21.4609 7.24323 21.1113 6.56684 20.6838L6.27973 20.4953L6.21918 20.4494C5.92749 20.2055 5.86268 19.7758 6.08051 19.4543C6.2984 19.1329 6.72152 19.0337 7.0561 19.2141L7.12153 19.2541L7.3686 19.4152C7.94911 19.7822 8.56411 20.0793 9.2143 20.2971L9.50141 20.3879C12.4813 21.2725 15.8376 20.538 18.1879 18.1877L18.4975 17.8606C21.5006 14.5366 21.5005 9.46385 18.4975 6.13985L18.1879 5.8127C14.8777 2.50244 9.57492 2.39985 6.14008 5.50313L5.81293 5.8127C3.20186 8.42377 2.58566 12.276 3.96723 15.4738L3.99067 15.5148C3.99875 15.525 4.0068 15.5329 4.0141 15.5383C4.03044 15.5502 4.0547 15.5611 4.08637 15.5656C4.15192 15.5747 4.23855 15.5541 4.31098 15.4816L8.63227 11.1604L8.68891 11.1096C8.82654 10.9974 9.00098 10.9376 9.18012 10.9416C9.3844 10.9464 9.57831 11.034 9.71625 11.1848L11.4799 13.1135L15.184 9.41036H12.9096C12.4957 9.41014 12.1598 9.07425 12.1596 8.66036C12.1596 8.24627 12.4956 7.91057 12.9096 7.91036H16.9096C17.3238 7.91036 17.6596 8.24614 17.6596 8.66036V12.6604C17.6594 13.0744 17.3237 13.4104 16.9096 13.4104C16.4957 13.4101 16.1598 13.0743 16.1596 12.6604V10.5559L11.9858 14.7297C11.8412 14.8742 11.6433 14.9538 11.4389 14.9494C11.26 14.9454 11.0889 14.8769 10.9565 14.759L10.9018 14.7053L9.13813 12.7756L5.37153 16.5432C4.59981 17.3144 3.19515 17.2617 2.64106 16.177L2.59028 16.0695C0.973014 12.3264 1.69185 7.81269 4.75238 4.75215L5.1352 4.38887Z" fill="#1E2134"/>
</svg>
