<svg width="24" height="24" viewBox="0 0 24 24" fill="none" xmlns="http://www.w3.org/2000/svg">
<path d="M16.8613 13.1946C19.9983 13.1946 22.4736 15.6699 22.4736 18.8069C22.4734 19.2209 22.1377 19.5569 21.7236 19.5569C21.3098 19.5565 20.9738 19.2207 20.9736 18.8069C20.9736 16.4983 19.1699 14.6946 16.8613 14.6946C14.6252 14.695 12.8627 16.3875 12.7549 18.592L12.75 18.8069L12.7461 18.883C12.7078 19.2612 12.3882 19.5567 12 19.5569C11.5861 19.5567 11.2502 19.2208 11.25 18.8069C11.25 16.4984 9.44617 14.6947 7.1377 14.6946C4.82932 14.6948 3.02539 16.4984 3.02539 18.8069C3.0252 19.2209 2.68949 19.5569 2.27539 19.5569C1.86147 19.5567 1.52558 19.2208 1.52539 18.8069C1.52539 15.67 4.00089 13.1948 7.1377 13.1946C9.23539 13.1946 11.0355 14.3025 11.999 15.9739C12.9624 14.3023 14.7637 13.1948 16.8613 13.1946ZM4.75977 5.43968C6.09657 4.10313 8.22105 4.05623 9.50781 5.43284C9.51019 5.43515 9.51324 5.43736 9.51562 5.43968C10.8782 6.80222 10.8781 8.93063 9.51562 10.2932C8.15306 11.6557 6.02464 11.6557 4.66211 10.2932C3.26504 8.8956 3.43376 6.76576 4.75977 5.43968ZM14.3867 5.43968C15.7236 4.10299 17.9441 4.05598 19.2324 5.43284C19.2349 5.43524 19.2378 5.43725 19.2402 5.43968L19.3643 5.56956C20.6018 6.93437 20.5601 8.97316 19.2402 10.2932C17.8777 11.6558 15.7493 11.6558 14.3867 10.2932C13.0244 8.93063 13.0242 6.80215 14.3867 5.43968ZM8.30078 6.34691C7.62576 5.7462 6.56232 5.75919 5.82031 6.5012C5.00769 7.31412 4.98152 8.491 5.72266 9.23265C6.4994 10.0094 7.67831 10.0093 8.45508 9.23265C9.2317 8.45598 9.23153 7.27796 8.45508 6.5012C8.4494 6.49548 8.44394 6.48847 8.43848 6.48265L8.43066 6.47483L8.30078 6.34691ZM18.0244 6.34691C17.3388 5.74598 16.1904 5.75926 15.4482 6.5012C14.6715 7.27796 14.6715 8.45588 15.4482 9.23265C16.225 10.0092 17.403 10.0093 18.1797 9.23265C18.9562 8.45596 18.9561 7.27792 18.1797 6.5012L18.1631 6.48265L18.1553 6.47483L18.0244 6.34691Z" fill="#1E2134"/>
</svg>
