<svg width="24" height="24" viewBox="0 0 24 24" fill="none" xmlns="http://www.w3.org/2000/svg">
<path d="M4.75217 4.75162C8.75505 0.749043 15.2455 0.748902 19.2483 4.75162L19.6115 5.13443C23.1295 9.02817 23.1293 14.9711 19.6115 18.8649L19.2483 19.2477C16.4932 22.0027 12.5606 22.8604 9.07346 21.8249L8.73752 21.7184L8.66624 21.6911C8.31976 21.5346 8.14155 21.1374 8.26487 20.7692C8.38839 20.4014 8.76934 20.1925 9.13987 20.276L9.21409 20.2965L9.5012 20.3874C12.4811 21.2721 15.8373 20.5376 18.1877 18.1872L18.4973 17.86C21.5003 14.536 21.5005 9.46325 18.4973 6.13931L18.1877 5.81216C14.7707 2.39524 9.22981 2.39538 5.81272 5.81216C3.38656 8.23833 2.68224 11.7363 3.70334 14.7858L3.80979 15.0856C4.07149 15.7815 4.425 16.4509 4.87034 17.0749L4.95334 17.1647C5.1722 17.3527 5.56196 17.3774 5.87229 17.067L13.5295 9.40982H11.3498C10.9357 9.40972 10.5998 9.07397 10.5998 8.65982C10.5999 8.24576 10.9358 7.90992 11.3498 7.90982H15.3498L15.427 7.91373C15.8049 7.95234 16.0997 8.27175 16.0998 8.65982V12.6598C16.0998 13.074 15.764 13.4098 15.3498 13.4098C14.9357 13.4097 14.5998 13.074 14.5998 12.6598V10.4606L6.93284 18.1276C6.07841 18.982 4.57519 19.0988 3.72971 18.0514L3.64963 17.946C3.12761 17.2146 2.71329 16.4297 2.40647 15.6139L2.28147 15.2624C1.08668 11.6942 1.90839 7.5954 4.75217 4.75162Z" fill="#1E2134"/>
</svg>
