<svg width="24" height="24" viewBox="0 0 24 24" fill="none" xmlns="http://www.w3.org/2000/svg">
<path d="M14.001 2.24609C16.0725 2.24626 17.7517 3.92559 17.752 5.99707V6.24805H18.0039C20.0749 6.24813 21.7539 7.92703 21.7539 9.99805V18.0039C21.7538 20.0749 20.0749 21.7538 18.0039 21.7539H9.99805C7.92703 21.7539 6.24813 20.0749 6.24805 18.0039V17.752H5.99707C3.92561 17.7517 2.24626 16.0725 2.24609 14.001V5.99707C2.24631 3.92564 3.92564 2.24632 5.99707 2.24609H14.001ZM9.99805 7.74805C8.75541 7.74805 7.74805 8.75541 7.74805 9.99805V18.0039C7.74813 19.2465 8.75546 20.2539 9.99805 20.2539H18.0039C19.2464 20.2538 20.2538 19.2464 20.2539 18.0039V9.99805C20.2539 8.75546 19.2465 7.74813 18.0039 7.74805H9.99805ZM5.99707 3.74609C4.75407 3.74632 3.74631 4.75406 3.74609 5.99707V14.001C3.74626 15.244 4.75403 16.2517 5.99707 16.252H6.24805V9.99805C6.24805 7.92698 7.92698 6.24805 9.99805 6.24805H16.252V5.99707C16.2517 4.75402 15.244 3.74626 14.001 3.74609H5.99707ZM17.4473 13.1855C17.4492 13.1858 17.4512 13.1863 17.4531 13.1865C17.8664 13.2281 18.1893 13.5767 18.1895 14.001C18.1893 14.4531 17.8223 14.8203 17.3701 14.8203C16.9463 14.8202 16.5978 14.4977 16.5557 14.085L16.5518 14.001L16.5557 13.917C16.5951 13.5313 16.9021 13.225 17.2881 13.1865C17.315 13.1836 17.3424 13.1826 17.3701 13.1826L17.4473 13.1855ZM10.707 13.1865C10.7105 13.1869 10.7143 13.188 10.7178 13.1885C10.7361 13.1904 10.7544 13.1931 10.7725 13.1963C10.7773 13.1972 10.7823 13.1982 10.7871 13.1992C11.0104 13.2426 11.2068 13.3758 11.3271 13.5703L11.3848 13.6797L11.4238 13.7959C11.4952 14.0716 11.4188 14.3691 11.2148 14.5762C11.0107 14.783 10.7142 14.8643 10.4375 14.7969L10.3203 14.7588C10.0163 14.634 9.81782 14.3396 9.81348 14.0117L9.8125 14.0127C9.80928 13.7938 9.89435 13.5817 10.0479 13.4258L10.1074 13.3711C10.2423 13.2591 10.4103 13.1951 10.5859 13.1855C10.5969 13.1849 10.6081 13.1828 10.6191 13.1826L10.624 13.1836C10.6259 13.1836 10.6281 13.1827 10.6299 13.1826L10.707 13.1865ZM14.0781 13.1865C14.0816 13.1869 14.0854 13.1881 14.0889 13.1885C14.1072 13.1904 14.1256 13.1931 14.1436 13.1963C14.1483 13.1972 14.1535 13.1982 14.1582 13.1992C14.3813 13.2427 14.578 13.3759 14.6982 13.5703L14.7559 13.6797L14.7949 13.7959C14.8662 14.0716 14.7899 14.3691 14.5859 14.5762C14.3819 14.7832 14.0853 14.8641 13.8086 14.7969L13.6914 14.7588C13.3873 14.6341 13.1889 14.3396 13.1846 14.0117L13.1836 14.0127C13.1804 13.7936 13.2652 13.5818 13.4189 13.4258L13.4785 13.3711C13.6134 13.259 13.7812 13.1951 13.957 13.1855C13.968 13.1849 13.9792 13.1828 13.9902 13.1826L13.9951 13.1836C13.997 13.1835 13.9991 13.1826 14.001 13.1826L14.0781 13.1865Z" fill="#1E2134"/>
</svg>
