<svg width="24" height="24" viewBox="0 0 24 24" fill="none" xmlns="http://www.w3.org/2000/svg">
<path d="M2.47754 8.94563C2.69689 8.80873 2.97173 8.79411 3.2041 8.90755L10.6699 12.5521C10.9272 12.6779 11.0907 12.9396 11.0908 13.2259V21.8831C11.0908 22.1416 10.9575 22.3819 10.7383 22.5189C10.5191 22.6558 10.245 22.6701 10.0127 22.557L2.5459 18.9124C2.28847 18.7868 2.12521 18.525 2.125 18.2386V9.58137L2.13086 9.48567C2.15928 9.26447 2.28564 9.06561 2.47754 8.94563ZM20.8857 8.86946C21.0968 8.79832 21.3307 8.825 21.5225 8.94466C21.7417 9.08161 21.8749 9.32189 21.875 9.5804V18.2376C21.8749 18.5241 21.7115 18.7857 21.4541 18.9115L13.9883 22.556C13.7558 22.6695 13.4811 22.6549 13.2617 22.5179C13.0426 22.3808 12.9092 22.1406 12.9092 21.8822V13.2249L12.917 13.1195C12.9518 12.8757 13.1047 12.6611 13.3301 12.5511L20.7969 8.90657L20.8857 8.86946ZM3.625 17.7689L9.59082 20.682V13.6947L3.625 10.7816V17.7689ZM14.4092 13.6937V20.681L20.375 17.7679V10.7806L14.4092 13.6937ZM13.4395 8.65657C13.7973 8.52879 14.2012 8.6909 14.3682 9.04134C14.5461 9.41516 14.3873 9.86217 14.0137 10.0404L12.3223 10.846C12.144 10.9308 11.9404 10.9418 11.7559 10.8782L11.6777 10.846L9.98633 10.0404L9.91895 10.0042C9.59422 9.80692 9.46503 9.39182 9.63184 9.04134C9.79875 8.69086 10.2027 8.52888 10.5605 8.65657L10.6318 8.68684L12 9.33723L13.3682 8.68684L13.4395 8.65657ZM5.88086 6.42415C6.25462 6.60233 6.41339 7.05027 6.23535 7.42415C6.05718 7.79794 5.60924 7.95668 5.23535 7.77864L5.88086 6.42415ZM17.7646 4.86165C17.9316 4.51109 18.3354 4.35004 18.6934 4.47786L18.7646 4.50716L20.7773 5.46516L20.8711 5.51887C21.0777 5.65661 21.2051 5.88995 21.2051 6.1429C21.205 6.39586 21.0777 6.62922 20.8711 6.76692L20.7773 6.81966L18.7646 7.77864L18.6934 7.80794C18.3355 7.93568 17.9316 7.7745 17.7646 7.42415C17.5867 7.05032 17.7455 6.60233 18.1191 6.42415L18.71 6.14192L18.1191 5.86165L18.0518 5.82454C17.7271 5.62719 17.5978 5.21211 17.7646 4.86165ZM5.30664 4.47786C5.66455 4.34998 6.06836 4.51115 6.23535 4.86165C6.41336 5.23556 6.2547 5.68352 5.88086 5.86165L5.28906 6.14192L5.88086 6.42415L5.55762 7.10091L5.23535 7.77864L3.22266 6.81966C2.96164 6.69527 2.79499 6.43204 2.79492 6.1429C2.79494 5.8537 2.96159 5.58956 3.22266 5.46516L5.23535 4.50716L5.30664 4.47786ZM11.7559 1.40755C11.9405 1.34397 12.1439 1.35492 12.3223 1.43977L14.0137 2.24446L14.0811 2.28157C14.4058 2.47891 14.5351 2.89395 14.3682 3.24446C14.2011 3.59492 13.7973 3.75615 13.4395 3.62825L13.3682 3.59895L12 2.94661L10.6318 3.59895L10.5605 3.62825C10.2027 3.75607 9.79883 3.59489 9.63184 3.24446C9.45389 2.87059 9.61257 2.42261 9.98633 2.24446L11.6777 1.43977L11.7559 1.40755Z" fill="#1E2134"/>
</svg>
