<svg width="24" height="24" viewBox="0 0 24 24" fill="none" xmlns="http://www.w3.org/2000/svg">
<path d="M11.9991 1.75C17.6598 1.75028 22.2491 6.33925 22.2491 12C22.2491 17.6607 17.6598 22.2497 11.9991 22.25C8.10305 22.25 4.71613 20.0758 2.98253 16.8779L2.81945 16.5654C2.36024 15.6438 2.03533 14.6432 1.8712 13.5898L1.81163 13.1357C1.69258 12.0566 2.58292 11.25 3.5548 11.25H14.6954L13.1593 9.71387L13.1075 9.65723C12.8674 9.36277 12.885 8.92792 13.1593 8.65332C13.4339 8.37876 13.8686 8.36137 14.1632 8.60156L14.2198 8.65332L17.048 11.4814C17.3409 11.7743 17.3409 12.2491 17.048 12.542L14.2198 15.3711C13.927 15.6634 13.452 15.6636 13.1593 15.3711C12.8667 15.0784 12.8669 14.6035 13.1593 14.3105L14.7189 12.75H3.5548C3.46752 12.75 3.39646 12.7858 3.35265 12.8311C3.31231 12.8728 3.29604 12.9189 3.30187 12.9717L3.35363 13.3594C3.49368 14.2579 3.7707 15.1107 4.16222 15.8965L4.30089 16.1641C5.78242 18.8968 8.67525 20.75 11.9991 20.75C16.8314 20.7497 20.7491 16.8323 20.7491 12C20.7491 7.16768 16.8314 3.25028 11.9991 3.25C8.56795 3.25 5.5965 5.22505 4.16222 8.10352L3.49034 7.76855L2.81945 7.43457C4.49762 4.0666 7.97736 1.75 11.9991 1.75ZM4.16222 8.10352C3.97754 8.47412 3.52702 8.62489 3.15636 8.44043C2.78566 8.25572 2.63482 7.80529 2.81945 7.43457L4.16222 8.10352Z" fill="#1E2134"/>
</svg>
