<svg width="24" height="24" viewBox="0 0 24 24" fill="none" xmlns="http://www.w3.org/2000/svg">
<g clip-path="url(#clip0_11213_36840)">
<mask id="mask0_11213_36840" style="mask-type:luminance" maskUnits="userSpaceOnUse" x="0" y="0" width="24" height="24">
<path d="M24 0H0V24H24V0Z" fill="white"/>
</mask>
<g mask="url(#mask0_11213_36840)">
<path d="M0 6.62069C0 2.96418 2.96418 0 6.62069 0H17.3793C21.0358 0 24 2.96418 24 6.62069V17.3793C24 21.0358 21.0358 24 17.3793 24H6.62069C2.96418 24 0 21.0358 0 17.3793V6.62069Z" fill="url(#paint0_linear_11213_36840)"/>
<path d="M19.2042 4.25507L12.9609 8.89206L14.1155 6.1563L19.2042 4.25507Z" fill="#E2761B"/>
<path d="M4.79102 4.25507L10.9841 8.93598L9.88605 6.1563L4.79102 4.25507Z" fill="#E4761B"/>
<path d="M16.9577 15.0034L15.2949 17.5509L18.8527 18.5298L19.8754 15.0599L16.9577 15.0034Z" fill="#E4761B"/>
<path d="M4.13086 15.0599L5.14736 18.5298L8.7051 17.5509L7.04231 15.0034L4.13086 15.0599Z" fill="#E4761B"/>
<path d="M8.50507 10.6992L7.51367 12.1988L11.0463 12.3557L10.9208 8.55951L8.50507 10.6992Z" fill="#E4761B"/>
<path d="M15.4896 10.6992L13.0425 8.51556L12.9609 12.3557L16.4873 12.1988L15.4896 10.6992Z" fill="#E4761B"/>
<path d="M8.70508 17.5512L10.8259 16.5158L8.99371 15.0852L8.70508 17.5512Z" fill="#E4761B"/>
<path d="M13.168 16.5158L15.2951 17.5512L15.0002 15.0852L13.168 16.5158Z" fill="#E4761B"/>
<path d="M15.2951 17.5511L13.168 16.5158L13.3374 17.9025L13.3186 18.4861L15.2951 17.5511Z" fill="#D7C1B3"/>
<path d="M8.70508 17.5511L10.6816 18.4861L10.6691 17.9025L10.8259 16.5158L8.70508 17.5511Z" fill="#D7C1B3"/>
<path d="M10.7128 14.1691L8.94336 13.6483L10.192 13.0773L10.7128 14.1691Z" fill="#233447"/>
<path d="M13.2812 14.1691L13.802 13.0773L15.057 13.6483L13.2812 14.1691Z" fill="#233447"/>
<path d="M8.70576 17.5509L9.00694 15.0034L7.04297 15.0599L8.70576 17.5509Z" fill="#CD6116"/>
<path d="M14.9941 15.0034L15.2953 17.5509L16.9581 15.0599L14.9941 15.0034Z" fill="#CD6116"/>
<path d="M16.4873 12.1988L12.9609 12.3556L13.2872 14.169L13.808 13.0772L15.063 13.6482L16.4873 12.1988Z" fill="#CD6116"/>
<path d="M8.9443 13.6482L10.1992 13.0772L10.7138 14.169L11.0463 12.3556L7.51367 12.1988L8.9443 13.6482Z" fill="#CD6116"/>
<path d="M7.51367 12.1988L8.9945 15.0851L8.9443 13.6482L7.51367 12.1988Z" fill="#E4751F"/>
<path d="M15.0627 13.6482L15 15.0851L16.4871 12.1988L15.0627 13.6482Z" fill="#E4751F"/>
<path d="M11.0474 12.3555L10.7148 14.1689L11.129 16.3086L11.2231 13.4912L11.0474 12.3555Z" fill="#E4751F"/>
<path d="M12.9604 12.3555L12.791 13.4849L12.8663 16.3086L13.2867 14.1689L12.9604 12.3555Z" fill="#E4751F"/>
<path d="M13.2856 14.1691L12.8652 16.3088L13.1664 16.5158L14.9986 15.0852L15.0614 13.6483L13.2856 14.1691Z" fill="#F6851B"/>
<path d="M8.94336 13.6483L8.99356 15.0852L10.8258 16.5158L11.1269 16.3088L10.7128 14.1691L8.94336 13.6483Z" fill="#F6851B"/>
<path d="M13.317 18.486L13.3358 17.9025L13.1789 17.7644H10.8134L10.6691 17.9025L10.6816 18.486L8.70508 17.5511L9.39529 18.1158L10.7945 19.0884H13.1977L14.6033 18.1158L15.2935 17.5511L13.317 18.486Z" fill="#C0AD9E"/>
<path d="M13.1672 16.5156L12.8661 16.3085H11.128L10.8268 16.5156L10.6699 17.9023L10.8142 17.7643H13.1798L13.3367 17.9023L13.1672 16.5156Z" fill="#161616"/>
<path d="M19.4677 9.19324L20.0011 6.63317L19.2042 4.25507L13.168 8.73519L15.4896 10.6992L18.7713 11.6592L19.4991 10.8121L19.1854 10.5862L19.6874 10.1282L19.2983 9.82698L19.8003 9.44423L19.4677 9.19324Z" fill="#763D16"/>
<path d="M4 6.63317L4.53335 9.19324L4.19452 9.44423L4.69649 9.82698L4.31373 10.1282L4.81571 10.5862L4.50197 10.8121L5.22356 11.6592L8.50522 10.6992L10.8268 8.73519L4.79061 4.25507L4 6.63317Z" fill="#763D16"/>
<path d="M18.7711 11.659L15.4894 10.699L16.4871 12.1986L15 15.085L16.9577 15.0599H19.8754L18.7711 11.659Z" fill="#F6851B"/>
<path d="M8.50431 10.699L5.22265 11.659L4.13086 15.0599H7.04231L8.99373 15.085L7.51291 12.1986L8.50431 10.699Z" fill="#F6851B"/>
<path d="M12.9613 12.3556L13.1684 8.73515L14.1221 6.15625H9.88672L10.8279 8.73515L11.0475 12.3556L11.1228 13.4976L11.1291 16.3087H12.8672L12.8797 13.4976L12.9613 12.3556Z" fill="#F6851B"/>
</g>
</g>
<defs>
<linearGradient id="paint0_linear_11213_36840" x1="12" y1="0" x2="12" y2="24" gradientUnits="userSpaceOnUse">
<stop stop-color="#FFF6ED"/>
<stop offset="1" stop-color="#FFEAD7"/>
</linearGradient>
<clipPath id="clip0_11213_36840">
<rect width="24" height="24" fill="white"/>
</clipPath>
</defs>
</svg>
