<svg width="24" height="24" viewBox="0 0 24 24" fill="none" xmlns="http://www.w3.org/2000/svg">
<g clip-path="url(#clip0_11130_36804)">
<path d="M0 6.62069C0 2.96418 2.96418 0 6.62069 0H17.3793C21.0358 0 24 2.96418 24 6.62069V17.3793C24 21.0358 21.0358 24 17.3793 24H6.62069C2.96418 24 0 21.0358 0 17.3793V6.62069Z" fill="black"/>
<path d="M14.0448 9.74399H10.1664C10.0032 9.74399 9.86882 9.87839 9.86882 10.0416V13.92C9.86882 14.0832 10.0032 14.2176 10.1664 14.2176H14.0448C14.208 14.2176 14.3424 14.0832 14.3424 13.92V10.0416C14.3424 9.87839 14.208 9.74399 14.0448 9.74399Z" fill="white"/>
<path d="M9.56162 5.27039H5.68322C5.52002 5.27039 5.38562 5.40479 5.38562 5.56799V9.44639C5.38562 9.60959 5.52002 9.74399 5.68322 9.74399H9.56162C9.72482 9.74399 9.85922 9.60959 9.85922 9.44639V5.56799C9.85922 5.40479 9.72482 5.27039 9.56162 5.27039Z" fill="white"/>
<path d="M18.528 5.27039H14.6496C14.4864 5.27039 14.352 5.40479 14.352 5.56799V9.44639C14.352 9.60959 14.4864 9.74399 14.6496 9.74399H18.528C18.6912 9.74399 18.8256 9.60959 18.8256 9.44639V5.56799C18.8256 5.40479 18.6912 5.27039 18.528 5.27039Z" fill="white"/>
<path d="M9.56162 14.2272H5.68322C5.52002 14.2272 5.38562 14.3616 5.38562 14.5248V18.4032C5.38562 18.5664 5.52002 18.7008 5.68322 18.7008H9.56162C9.72482 18.7008 9.85922 18.5664 9.85922 18.4032V14.5248C9.85922 14.3616 9.72482 14.2272 9.56162 14.2272Z" fill="white"/>
<path d="M18.528 14.2272H14.6496C14.4864 14.2272 14.352 14.3616 14.352 14.5248V18.4032C14.352 18.5664 14.4864 18.7008 14.6496 18.7008H18.528C18.6912 18.7008 18.8256 18.5664 18.8256 18.4032V14.5248C18.8256 14.3616 18.6912 14.2272 18.528 14.2272Z" fill="white"/>
</g>
<defs>
<clipPath id="clip0_11130_36804">
<rect width="24" height="24" fill="white"/>
</clipPath>
</defs>
</svg>
