<svg width="142" height="48" viewBox="0 0 142 48" fill="none" xmlns="http://www.w3.org/2000/svg">
<path d="M121.471 44.9774V47.9993H142V34.3705H139.009V44.9774H121.471ZM121.471 0V3.02192H139.009V13.6295H142V0H121.471ZM110.885 23.3779V16.3559H115.577C117.865 16.3559 118.686 17.1261 118.686 19.2301V20.4743C118.686 22.6371 117.894 23.3779 115.577 23.3779H110.885ZM118.333 24.6221C120.474 24.0592 121.97 22.0441 121.97 19.6446C121.97 18.1337 121.383 16.7704 120.269 15.674C118.861 14.3107 116.984 13.6295 114.55 13.6295H107.952V34.3698H110.885V26.1037H115.284C117.542 26.1037 118.451 27.0517 118.451 29.4225V34.3705H121.442V29.8965C121.442 26.6372 120.68 25.393 118.333 25.0373V24.6221ZM93.6408 25.3034H102.674V22.5776H93.6408V16.3552H103.553V13.6295H90.649V34.3698H103.993V31.6441H93.6408V25.3034ZM83.8158 26.3998V27.8219C83.8158 30.8144 82.7305 31.7925 80.0034 31.7925H79.3582C76.6305 31.7925 75.311 30.9033 75.311 26.7849V21.2144C75.311 17.0666 76.6894 16.2068 79.4164 16.2068H80.0027C82.6716 16.2068 83.5219 17.2143 83.551 19.9996H86.777C86.4839 15.9106 83.7859 13.3333 79.7387 13.3333C77.774 13.3333 76.1315 13.9557 74.9 15.1404C73.0524 16.8887 72.026 19.8519 72.026 23.9996C72.026 27.9997 72.9062 30.9628 74.724 32.7993C75.9555 34.0141 77.6568 34.666 79.3284 34.666C81.088 34.666 82.7014 33.9546 83.5219 32.4143H83.9322V34.3698H86.6301V23.6741H78.6825V26.3998H83.8158ZM57.95 16.3552H61.1469C64.1678 16.3552 65.8103 17.1254 65.8103 21.2739V26.7254C65.8103 30.8732 64.1678 31.6441 61.1469 31.6441H57.95V16.3552ZM61.4103 34.3705C67.012 34.3705 69.0938 30.0743 69.0938 24.0004C69.0938 17.8375 66.8651 13.6302 61.3514 13.6302H55.0164V34.3705H61.4103ZM40.8524 25.3034H49.8853V22.5776H40.8524V16.3552H50.7647V13.6295H37.8606V34.3698H51.2048V31.6441H40.8524V25.3034ZM23.5497 13.6295H20.5586V34.3698H34.049V31.6441H23.5497V13.6295ZM0 34.3705V48H20.5288V44.9774H2.99109V34.3705H0ZM0 0V13.6295H2.99109V3.02192H20.5288V0L0 0Z" fill="#C2C8D5"/>
</svg>
