<svg width="25" height="24" viewBox="0 0 25 24" fill="none" xmlns="http://www.w3.org/2000/svg">
<g clip-path="url(#clip0_14501_138880)">
<path d="M0.936279 6.62069C0.936279 2.96418 3.90046 0 7.55697 0H18.3156C21.972 0 24.9363 2.96418 24.9363 6.62069V17.3793C24.9363 21.0358 21.972 24 18.3156 24H7.55697C3.90046 24 0.936279 21.0358 0.936279 17.3793V6.62069Z" fill="black"/>
<path fill-rule="evenodd" clip-rule="evenodd" d="M20.1529 8.57783L21 11.185L17.649 12.3693C16.5147 12.7702 16.0701 14.1385 16.7522 15.1295L18.7671 18.0573L16.5493 19.6686L14.3874 16.8476C13.6557 15.8927 12.217 15.8927 11.4853 16.8476L9.32343 19.6686L7.1056 18.0573L9.12054 15.1295C9.80257 14.1385 9.358 12.7702 8.22372 12.3693L4.87268 11.185L5.71981 8.57783L9.12695 9.58944C10.2803 9.93183 11.4441 9.08619 11.4749 7.88357L11.5657 4.33057H14.307L14.3979 7.88357C14.4286 9.08619 15.5925 9.93183 16.7458 9.58944L20.1529 8.57783Z" fill="#FD4848"/>
</g>
<defs>
<clipPath id="clip0_14501_138880">
<rect width="24" height="24" fill="white" transform="translate(0.936279)"/>
</clipPath>
</defs>
</svg>
