<svg width="24" height="24" viewBox="0 0 24 24" fill="none" xmlns="http://www.w3.org/2000/svg">
<g clip-path="url(#clip0_21185_136144)">
<path d="M0 6.62069C0 2.96418 2.96418 0 6.62069 0H17.3793C21.0358 0 24 2.96418 24 6.62069V17.3793C24 21.0358 21.0358 24 17.3793 24H6.62069C2.96418 24 0 21.0358 0 17.3793V6.62069Z" fill="black"/>
<path d="M3.95874 15.0247V19H10.008V18.1184H4.84013V15.0247H3.95874ZM19.1597 15.0247V18.1184H13.9918V18.9998H20.0411V15.0247H19.1597ZM10.0168 8.97526V15.0245H13.9918V14.2295H10.8982V8.97526H10.0168ZM3.95874 5V8.97526H4.84013V5.88139H10.008V5H3.95874ZM13.9918 5V5.88139H19.1597V8.97526H20.0411V5H13.9918Z" fill="white"/>
<path d="M19 24C21.7614 24 24 21.7614 24 19C24 16.2386 21.7614 14 19 14C16.2386 14 14 16.2386 14 19C14 21.7614 16.2386 24 19 24Z" fill="#E6007A"/>
<path d="M19.0001 16.9445C19.7061 16.9445 20.2784 16.6118 20.2784 16.2014C20.2784 15.791 19.7061 15.4583 19.0001 15.4583C18.2941 15.4583 17.7217 15.791 17.7217 16.2014C17.7217 16.6118 18.2941 16.9445 19.0001 16.9445Z" fill="white"/>
<path d="M19.0001 22.5416C19.7061 22.5416 20.2784 22.2089 20.2784 21.7985C20.2784 21.3881 19.7061 21.0554 19.0001 21.0554C18.2941 21.0554 17.7217 21.3881 17.7217 21.7985C17.7217 22.2089 18.2941 22.5416 19.0001 22.5416Z" fill="white"/>
<path d="M17.2184 17.9722C17.5714 17.3614 17.5691 16.6999 17.2134 16.4947C16.8576 16.2894 16.283 16.6183 15.93 17.2291C15.577 17.8399 15.5793 18.5015 15.935 18.7067C16.2908 18.9119 16.8654 18.5831 17.2184 17.9722Z" fill="white"/>
<path d="M22.0701 20.7708C22.4231 20.1599 22.4209 19.4984 22.0651 19.2932C21.7094 19.088 21.1348 19.4168 20.7818 20.0277C20.4288 20.6385 20.431 21.3 20.7868 21.5052C21.1426 21.7104 21.7171 21.3816 22.0701 20.7708Z" fill="white"/>
<path d="M17.2134 21.5052C17.5691 21.3 17.5713 20.6385 17.2184 20.0276C16.8654 19.4168 16.2908 19.088 15.935 19.2932C15.5793 19.4984 15.577 20.1599 15.93 20.7707C16.283 21.3816 16.8576 21.7104 17.2134 21.5052Z" fill="white"/>
<path d="M22.0651 18.7067C22.4209 18.5015 22.4231 17.84 22.0701 17.2291C21.7171 16.6183 21.1425 16.2895 20.7868 16.4947C20.431 16.6999 20.4288 17.3614 20.7818 17.9722C21.1348 18.5831 21.7093 18.9119 22.0651 18.7067Z" fill="white"/>
</g>
<defs>
<clipPath id="clip0_21185_136144">
<rect width="24" height="24" fill="white"/>
</clipPath>
</defs>
</svg>
