<svg width="25" height="24" viewBox="0 0 25 24" fill="none" xmlns="http://www.w3.org/2000/svg">
<g clip-path="url(#clip0_17341_145425)">
<path d="M0.936279 6.62069C0.936279 2.96418 3.90046 0 7.55697 0H18.3156C21.972 0 24.9363 2.96418 24.9363 6.62069V17.3793C24.9363 21.0358 21.972 24 18.3156 24H7.55697C3.90046 24 0.936279 21.0358 0.936279 17.3793V6.62069Z" fill="#0FFF7F"/>
<path d="M20.2331 11.9944H18.4411C17.9042 11.9944 17.4725 12.4297 17.4725 12.9629V15.5639C17.4725 16.1008 17.0372 16.5324 16.504 16.5324H9.36854C8.83166 16.5324 8.39998 16.9677 8.39998 17.501V19.2966C8.39998 19.8335 8.83529 20.2652 9.36854 20.2652H16.9139C17.4508 20.2652 17.8752 19.8299 17.8752 19.2966V17.8601C17.8752 17.3232 18.3105 16.946 18.8438 16.946H20.2331C20.77 16.946 21.2017 16.5107 21.2017 15.9774V12.9557C21.2017 12.4151 20.7664 11.9944 20.2331 11.9944Z" fill="black"/>
<path d="M8.39998 8.43208C8.39998 7.8952 8.83529 7.46352 9.36854 7.46352H16.4967C17.0336 7.46352 17.4653 7.02821 17.4653 6.49496V4.70294C17.4653 4.16606 17.03 3.73438 16.4967 3.73438H8.955C8.41812 3.73438 7.98644 4.16968 7.98644 4.70294V6.08504C7.98644 6.62192 7.55113 7.0536 7.01787 7.0536H5.6394C5.10252 7.0536 4.67084 7.48891 4.67084 8.02216V11.0476C4.67084 11.5844 5.10615 11.9944 5.64303 11.9944H7.43505C7.97193 11.9944 8.40361 11.559 8.40361 11.0258L8.39998 8.43208Z" fill="black"/>
<path d="M12.0892 10.1116H13.8123C14.3746 10.1116 14.828 10.5687 14.828 11.1274V12.8505C14.828 13.4127 14.371 13.8662 13.8123 13.8662H12.0892C11.5269 13.8662 11.0735 13.4091 11.0735 12.8505V11.1274C11.0735 10.5651 11.5306 10.1116 12.0892 10.1116Z" fill="black"/>
</g>
<defs>
<clipPath id="clip0_17341_145425">
<rect width="24" height="24" fill="white" transform="translate(0.936279)"/>
</clipPath>
</defs>
</svg>
