<svg width="24" height="24" viewBox="0 0 24 24" fill="none" xmlns="http://www.w3.org/2000/svg">
<g clip-path="url(#clip0_10929_2817)">
<path d="M0 6.62069C0 2.96418 2.96418 0 6.62069 0H17.3793C21.0358 0 24 2.96418 24 6.62069V17.3793C24 21.0358 21.0358 24 17.3793 24H6.62069C2.96418 24 0 21.0358 0 17.3793V6.62069Z" fill="#D5FF5C"/>
<path fill-rule="evenodd" clip-rule="evenodd" d="M17.2592 13.0615C17.4355 13.4452 17.9546 13.5808 18.2533 13.2822L18.8012 12.7346C19.3672 12.1688 20.2851 12.1688 20.8511 12.7346C21.4172 13.3004 21.4172 14.2178 20.8511 14.7836L16.4236 19.209C15.3601 20.471 13.7674 21.2727 11.9873 21.2727C10.1311 21.2727 8.47853 20.4009 7.4173 19.0445L3.15478 14.7839C2.58871 14.2181 2.5887 13.3007 3.15478 12.7349C3.72086 12.1691 4.63865 12.1691 5.20473 12.7349L5.74425 13.2741C6.03645 13.5662 6.54373 13.4348 6.71631 13.0595C6.7504 12.9854 6.76895 12.9058 6.76895 12.8242L6.76893 6.20453C6.76893 5.40436 7.41791 4.75568 8.21846 4.75568C9.01903 4.75568 9.66799 5.40436 9.66799 6.20453V9.55329C9.66799 9.84144 9.96332 10.037 10.2382 9.95022C10.4122 9.89525 10.5379 9.73695 10.5379 9.55457V4.17616C10.5379 3.37597 11.1868 2.7273 11.9874 2.72729C12.7879 2.72729 13.4369 3.37597 13.4369 4.17615V9.55468C13.4369 9.73701 13.5626 9.89528 13.7365 9.95022C14.0113 10.037 14.3065 9.8415 14.3065 9.55344V6.20453C14.3065 5.40436 14.9555 4.75568 15.7561 4.75568C16.5566 4.75568 17.2056 5.40436 17.2056 6.20453V12.8215C17.2056 12.9047 17.2245 12.9859 17.2592 13.0615Z" fill="#FD4848"/>
<path fill-rule="evenodd" clip-rule="evenodd" d="M9.80296 14.1551C9.56894 14.3012 9.34678 14.4615 9.139 14.6274C8.92284 15.0573 8.80115 15.5429 8.80115 16.0568C8.80115 16.5707 8.9228 17.0561 9.13888 17.486C9.34661 17.6519 9.56872 17.8121 9.80267 17.9582C9.35958 17.4493 9.09128 16.7844 9.09128 16.0568C9.09128 15.3291 9.35969 14.664 9.80296 14.1551ZM14.1812 17.9541C14.4146 17.8079 14.6362 17.6477 14.8434 17.4819C15.0582 17.0531 15.1791 16.569 15.1791 16.0568C15.1791 15.5445 15.0582 15.0604 14.8433 14.6314C14.636 14.4656 14.4144 14.3054 14.1809 14.1592C14.622 14.6676 14.889 15.331 14.889 16.0568C14.889 16.7824 14.6221 17.4457 14.1812 17.9541ZM14.3711 13.9363C13.6748 13.4941 12.8597 13.159 11.9886 13.159C10.7077 13.159 9.5481 13.8834 8.7087 14.6079C8.40773 14.8676 8.12523 15.1466 7.86006 15.4415C7.69702 15.6219 7.56963 15.7762 7.48318 15.8852C7.43769 15.9419 7.39276 15.999 7.34839 16.0566C7.39269 16.1143 7.43756 16.1714 7.483 16.2282C7.55955 16.3246 7.66825 16.4567 7.80541 16.6111C8.08629 16.9286 8.38713 17.2281 8.7087 17.5056C9.5481 18.23 10.7078 18.9544 11.9886 18.9544C12.8599 18.9544 13.675 18.6193 14.3714 18.177C14.3706 18.1779 14.3698 18.1788 14.369 18.1797C14.8267 17.8895 15.2332 17.5528 15.5709 17.2343C15.5712 17.2334 15.5714 17.2326 15.5717 17.2318C15.7202 17.0916 15.8554 16.9549 15.9757 16.8273C15.9755 16.8281 15.9754 16.8289 15.9752 16.8297C16.3904 16.3896 16.6289 16.0568 16.6289 16.0568C16.6289 16.0568 16.6289 16.0567 16.6288 16.0567C16.6288 16.0566 16.6289 16.0566 16.6289 16.0566C16.6284 16.056 16.6279 16.0553 16.6274 16.0547C16.6065 16.0259 16.3712 15.7036 15.9752 15.2838C15.9754 15.2846 15.9755 15.2854 15.9757 15.2861C15.8554 15.1585 15.7202 15.0219 15.5717 14.8817C15.5714 14.8809 15.5711 14.8801 15.5709 14.8793C15.2332 14.5607 14.8266 14.2241 14.3689 13.9338C14.3696 13.9346 14.3704 13.9355 14.3711 13.9363ZM15.7056 15.423C15.7405 15.6291 15.7587 15.8408 15.7587 16.0568C15.7587 16.2727 15.7405 16.4844 15.7056 16.6904C15.8333 16.5573 15.9455 16.4328 16.0402 16.3233C16.0459 16.2352 16.0488 16.1463 16.0488 16.0568C16.0488 15.9672 16.0459 15.8783 16.0402 15.7902C15.9454 15.6807 15.8333 15.5562 15.7056 15.423ZM7.94029 16.3269C8.03509 16.4364 8.14738 16.5609 8.27527 16.6941C8.23996 16.4869 8.22157 16.274 8.22157 16.0568C8.22157 15.8395 8.23997 15.6266 8.27529 15.4194C8.14739 15.5526 8.0351 15.6771 7.94029 15.7866C7.93442 15.8759 7.93143 15.966 7.93143 16.0568C7.93143 16.1476 7.93442 16.2376 7.94029 16.3269ZM9.67092 16.0568C9.67092 14.7765 10.7093 13.7386 11.9902 13.7386C13.2711 13.7386 14.3094 14.7765 14.3094 16.0568C14.3094 17.3371 13.2711 18.375 11.9902 18.375C10.7093 18.375 9.67092 17.3371 9.67092 16.0568ZM11.9902 14.0286C10.8695 14.0286 9.96106 14.9367 9.96106 16.0568C9.96106 17.1769 10.8695 18.085 11.9902 18.085C13.1108 18.085 14.0193 17.1769 14.0193 16.0568C14.0193 14.9367 13.1108 14.0286 11.9902 14.0286ZM11.9901 14.608C11.1896 14.608 10.5406 15.2567 10.5406 16.0569C10.5406 16.8571 11.1896 17.5058 11.9901 17.5058C12.7907 17.5058 13.4396 16.8571 13.4396 16.0569C13.4396 15.2567 12.7907 14.608 11.9901 14.608ZM10.8307 16.0569C10.8307 15.4169 11.3498 14.898 11.9901 14.898C12.6304 14.898 13.1495 15.4169 13.1495 16.0569C13.1495 16.6969 12.6304 17.2158 11.9901 17.2158C11.3498 17.2158 10.8307 16.6969 10.8307 16.0569ZM11.9902 16.6363C12.3104 16.6363 12.57 16.3768 12.57 16.0568C12.57 15.7367 12.3104 15.4772 11.9902 15.4772C11.67 15.4772 11.4104 15.7367 11.4104 16.0568C11.4104 16.3768 11.67 16.6363 11.9902 16.6363Z" fill="#D5FF5C"/>
</g>
<defs>
<clipPath id="clip0_10929_2817">
<rect width="24" height="24" fill="white"/>
</clipPath>
</defs>
</svg>
