<svg width="24" height="24" viewBox="0 0 24 24" fill="none" xmlns="http://www.w3.org/2000/svg">
<g clip-path="url(#clip0_11213_36884)">
<path d="M0 6.62069C0 2.96418 2.96418 0 6.62069 0H17.3793C21.0358 0 24 2.96418 24 6.62069V17.3793C24 21.0358 21.0358 24 17.3793 24H6.62069C2.96418 24 0 21.0358 0 17.3793V6.62069Z" fill="white"/>
<mask id="mask0_11213_36884" style="mask-type:alpha" maskUnits="userSpaceOnUse" x="0" y="0" width="24" height="24">
<path d="M0 6.62069C0 2.96418 2.96418 0 6.62069 0H17.3793C21.0358 0 24 2.96418 24 6.62069V17.3793C24 21.0358 21.0358 24 17.3793 24H6.62069C2.96418 24 0 21.0358 0 17.3793V6.62069Z" fill="white"/>
</mask>
<g mask="url(#mask0_11213_36884)">
<circle cx="2.57947" cy="21.505" r="13.4973" fill="url(#paint0_radial_11213_36884)"/>
<circle cx="22.6819" cy="28.4532" r="13.4973" fill="url(#paint1_radial_11213_36884)" fill-opacity="0.6"/>
<circle cx="4.46606" cy="6.59668" r="13.4973" fill="url(#paint2_radial_11213_36884)" fill-opacity="0.8"/>
<circle cx="17.9634" cy="4.6886" r="17.9382" fill="url(#paint3_radial_11213_36884)" fill-opacity="0.8"/>
</g>
<path d="M15.2052 9.71555L19.332 13.8125C19.6005 14.0786 19.6019 14.5124 19.3348 14.7801L14.0423 20.0939H9.88672L11.1431 18.8739L15.7558 14.2943L11.2016 9.71555" fill="black"/>
<path d="M8.79528 14.2844L4.6684 10.1883C4.39993 9.92142 4.39856 9.48832 4.66566 9.21992L9.95809 3.90607H14.1137L12.8574 5.12607L8.2446 9.70563L12.7989 14.2844" fill="black"/>
</g>
<defs>
<radialGradient id="paint0_radial_11213_36884" cx="0" cy="0" r="1" gradientUnits="userSpaceOnUse" gradientTransform="translate(2.57947 21.505) rotate(90) scale(13.4973)">
<stop stop-color="#9894FF"/>
<stop offset="1" stop-color="#9894FF" stop-opacity="0"/>
</radialGradient>
<radialGradient id="paint1_radial_11213_36884" cx="0" cy="0" r="1" gradientUnits="userSpaceOnUse" gradientTransform="translate(22.6819 28.4532) rotate(90) scale(13.4973)">
<stop stop-color="#02EDF8"/>
<stop offset="1" stop-color="#02EDF8" stop-opacity="0"/>
</radialGradient>
<radialGradient id="paint2_radial_11213_36884" cx="0" cy="0" r="1" gradientUnits="userSpaceOnUse" gradientTransform="translate(4.46606 6.59668) rotate(90) scale(13.4973)">
<stop stop-color="#02EDF8"/>
<stop offset="1" stop-color="#02EDF8" stop-opacity="0"/>
</radialGradient>
<radialGradient id="paint3_radial_11213_36884" cx="0" cy="0" r="1" gradientUnits="userSpaceOnUse" gradientTransform="translate(17.9634 0.650049) rotate(90) scale(18.8383 17.9382)">
<stop offset="0.185" stop-color="#25BAFF"/>
<stop offset="1" stop-color="#32B3FF" stop-opacity="0"/>
</radialGradient>
<clipPath id="clip0_11213_36884">
<rect width="24" height="24" fill="white"/>
</clipPath>
</defs>
</svg>
