<svg width="24" height="24" viewBox="0 0 24 24" fill="none" xmlns="http://www.w3.org/2000/svg">
<g clip-path="url(#clip0_35153_15796)">
<path d="M0 6.62069C0 2.96418 2.96418 0 6.62069 0H17.3793C21.0358 0 24 2.96418 24 6.62069V17.3793C24 21.0358 21.0358 24 17.3793 24H6.62069C2.96418 24 0 21.0358 0 17.3793V6.62069Z" fill="#111B24"/>
<path fill-rule="evenodd" clip-rule="evenodd" d="M6.62069 1C3.51647 1 1 3.51647 1 6.62069V17.3793C1 20.4835 3.51647 23 6.62069 23H17.3793C20.4835 23 23 20.4835 23 17.3793V6.62069C23 3.51647 20.4835 1 17.3793 1H6.62069ZM6.62069 0C2.96418 0 0 2.96418 0 6.62069V17.3793C0 21.0358 2.96418 24 6.62069 24H17.3793C21.0358 24 24 21.0358 24 17.3793V6.62069C24 2.96418 21.0358 0 17.3793 0H6.62069Z" fill="#01EAC7"/>
<path d="M16.5814 12.9932H18.8C18.8519 12.9932 18.9018 12.9731 18.9391 12.937C18.9764 12.9009 18.9983 12.8517 19 12.7999V11.1999C19 11.1468 18.9789 11.096 18.9414 11.0585C18.9039 11.021 18.8531 10.9999 18.8 10.9999H15.6907L13.2414 5.49192C13.2206 5.44509 13.1869 5.40522 13.1441 5.37708C13.1013 5.34895 13.0513 5.33373 13.0001 5.33325H11.0001C10.9486 5.33347 10.8983 5.34857 10.8553 5.37672C10.8122 5.40488 10.7782 5.44488 10.7574 5.49192L8.30942 10.9932H5.20011C5.17327 10.9932 5.14671 10.9986 5.122 11.0091C5.09729 11.0195 5.07494 11.0348 5.05628 11.0541C5.03762 11.0734 5.02303 11.0963 5.01338 11.1213C5.00373 11.1463 4.99922 11.173 5.00011 11.1999V12.7999C5.00011 12.8529 5.02118 12.9038 5.05869 12.9413C5.0962 12.9788 5.14707 12.9999 5.20011 12.9999H7.41876L5.01878 18.3918C5.00669 18.4218 5.00206 18.4543 5.00531 18.4866C5.00855 18.5188 5.01956 18.5497 5.03739 18.5767C5.05523 18.6037 5.07935 18.626 5.10769 18.6417C5.13603 18.6573 5.16775 18.6658 5.20011 18.6665H6.98543C7.0371 18.6665 7.08767 18.6515 7.13098 18.6234C7.17429 18.5952 7.2085 18.5551 7.22942 18.5078L12.0001 7.79323L16.7707 18.5078C16.7916 18.5551 16.8258 18.5952 16.8691 18.6234C16.9124 18.6515 16.963 18.6665 17.0147 18.6665H18.8C18.8333 18.6665 18.8661 18.6581 18.8954 18.6422C18.9247 18.6263 18.9495 18.6033 18.9677 18.5754C18.9858 18.5474 18.9967 18.5154 18.9993 18.4822C19.0019 18.449 18.9962 18.4156 18.9827 18.3851L16.5814 12.9932Z" fill="white"/>
</g>
<defs>
<clipPath id="clip0_35153_15796">
<rect width="24" height="24" fill="white"/>
</clipPath>
</defs>
</svg>
