<svg width="24" height="24" viewBox="0 0 24 24" fill="none" xmlns="http://www.w3.org/2000/svg">
<g clip-path="url(#clip0_11130_36801)">
<path d="M0 6.62069C0 2.96418 2.96418 0 6.62069 0H17.3793C21.0358 0 24 2.96418 24 6.62069V17.3793C24 21.0358 21.0358 24 17.3793 24H6.62069C2.96418 24 0 21.0358 0 17.3793V6.62069Z" fill="#0052FF"/>
<path fill-rule="evenodd" clip-rule="evenodd" d="M20.5238 12C20.5238 7.2922 16.7078 3.4762 11.9999 3.4762C7.29207 3.4762 3.47607 7.2922 3.47607 12C3.47607 16.7079 7.29207 20.5239 11.9999 20.5239C16.7078 20.5239 20.5238 16.7079 20.5238 12ZM14.0987 9.27551H9.90059C9.55595 9.27551 9.27563 9.57695 9.27563 9.94751V14.0515C9.27563 14.4221 9.555 14.7235 9.90059 14.7235H14.0987C14.4433 14.7235 14.7236 14.423 14.7236 14.0515V9.94751C14.7236 9.57695 14.4443 9.27551 14.0987 9.27551Z" fill="white"/>
</g>
<defs>
<clipPath id="clip0_11130_36801">
<rect width="24" height="24" fill="white"/>
</clipPath>
</defs>
</svg>
