<svg width="24" height="24" viewBox="0 0 24 24" fill="none" xmlns="http://www.w3.org/2000/svg">
<g clip-path="url(#clip0_10929_2812)">
<path d="M0 6.62069C0 2.96418 2.96418 0 6.62069 0H17.3793C21.0358 0 24 2.96418 24 6.62069V17.3793C24 21.0358 21.0358 24 17.3793 24H6.62069C2.96418 24 0 21.0358 0 17.3793V6.62069Z" fill="#FF8C00"/>
<path d="M5.92334 9.8818C5.92334 6.51752 8.65984 3.79712 12.008 3.79712C15.3562 3.79712 18.0927 6.51752 18.0927 9.8818C18.0927 13.0851 15.6138 15.7089 12.4748 15.9504C12.4748 15.9504 11.7183 15.9987 11.5251 16.0309C10.6559 16.1436 9.91541 16.8035 9.72224 17.705C9.72224 17.705 9.46469 18.8801 9.44859 18.9766C9.35201 19.4274 8.90129 19.7171 8.45058 19.6205C7.99986 19.5239 7.71011 19.0732 7.80669 18.6225C7.82279 18.5259 9.72224 9.67254 9.72224 9.67254C9.81883 9.22182 10.2695 8.93208 10.7203 9.02866C11.171 9.12524 11.4607 9.57596 11.3641 10.0267L10.5754 13.6646L10.4305 14.3729C10.4144 14.4212 10.4627 14.4695 10.511 14.4534C10.5645 14.4457 10.6289 14.4345 10.7042 14.4213C10.7874 14.4067 10.884 14.3898 10.9939 14.3729C11.4124 14.3085 12.2656 14.2602 12.2656 14.2602C14.5675 14.1314 16.4025 12.2159 16.4025 9.8818C16.4025 7.38676 14.3099 5.37463 11.7827 5.50341C9.51298 5.61609 7.67792 7.48334 7.61353 9.75303C7.59743 10.2842 7.67792 10.8154 7.85499 11.3144C7.99986 11.7652 7.7584 12.2481 7.32378 12.3929C6.87307 12.5378 6.39015 12.2964 6.24528 11.8617C6.03602 11.2179 5.92334 10.5579 5.92334 9.8818Z" fill="white"/>
<path d="M11.2354 18.5903C11.3481 18.0269 11.8954 17.6888 12.4427 17.8015C13.0061 17.9142 13.3441 18.4454 13.2314 19.0088C13.1188 19.5722 12.5715 19.9102 12.0242 19.7975C11.4608 19.6849 11.1227 19.1376 11.2354 18.5903Z" fill="white"/>
</g>
<defs>
<clipPath id="clip0_10929_2812">
<rect width="24" height="24" fill="white"/>
</clipPath>
</defs>
</svg>
