<svg width="24" height="24" viewBox="0 0 24 24" fill="none" xmlns="http://www.w3.org/2000/svg">
<g clip-path="url(#clip0_10929_2836)">
<path d="M0 6.62069C0 2.96418 2.96418 0 6.62069 0H17.3793C21.0358 0 24 2.96418 24 6.62069V17.3793C24 21.0358 21.0358 24 17.3793 24H6.62069C2.96418 24 0 21.0358 0 17.3793V6.62069Z" fill="black"/>
<path d="M13.5271 16.2118C18.247 14.0428 21.0438 10.0446 19.7741 7.28155C18.5379 4.59152 13.9032 4.0639 9.30376 6.03918C12.4721 5.33283 15.2606 5.98989 16.1036 7.85846C17.1791 10.2425 14.6804 13.6957 10.5226 15.5716C8.17898 16.6289 5.8085 16.9593 3.99341 16.6195C6.07238 17.9829 9.84112 17.9056 13.5271 16.2118Z" fill="#E30A7B"/>
<path d="M5.69466 18.4567L5.76817 18.5708C5.76817 18.5708 9.26667 14.0541 10.4056 13.9221L10.0173 14.389C10.063 14.3596 10.7002 14.1329 10.7002 14.1329C10.8254 14.2838 10.9851 14.4036 11.1679 14.4839C11.3506 14.5641 11.5519 14.6027 11.757 14.597C12.4693 14.5839 12.5892 14.7488 12.5892 14.7488C12.5892 14.7488 12.39 15.0202 12.4727 15.1486C12.6761 14.9243 12.908 14.7261 13.1624 14.5594C13.3979 14.4185 13.6488 14.3056 13.9092 14.2232C13.9092 14.2232 13.7994 14.1104 13.3794 14.2397C12.9594 14.369 12.389 14.2375 12.0899 14.1532C11.9055 14.0948 11.7428 13.99 11.6175 13.8488C11.4922 13.7076 11.4087 13.5349 11.3752 13.3477C11.3079 12.9727 11.7231 12.2814 12.3223 11.2936C12.907 10.2162 12.9909 9.51024 12.5593 8.13968C12.4427 7.76925 12.3827 7.53905 12.2353 7.24223C11.9891 6.74661 11.8252 6.30687 11.1869 6.17945C10.7165 6.08556 10.1931 6.10919 9.25741 6.36411C9.51786 6.68106 9.79965 6.9877 9.92338 7.33912C10.0683 7.75073 10.0534 8.21806 9.99097 8.35726C9.87522 8.6153 9.55312 8.97708 9.04065 9.96589C8.52818 10.9547 6.61917 14.7308 6.61917 14.7308L7.41308 14.3069L4.84766 18.4531L5.18904 18.3295L4.90062 19.0358C5.23911 18.908 5.52914 18.7668 5.70021 18.4531L5.69466 18.4567Z" fill="white"/>
</g>
<defs>
<clipPath id="clip0_10929_2836">
<rect width="24" height="24" fill="white"/>
</clipPath>
</defs>
</svg>
