<svg width="24" height="24" viewBox="0 0 24 24" fill="none" xmlns="http://www.w3.org/2000/svg">
<g clip-path="url(#clip0_35153_15738)">
<path d="M0 6.62069C0 2.96418 2.96418 0 6.62069 0H17.3793C21.0358 0 24 2.96418 24 6.62069V17.3793C24 21.0358 21.0358 24 17.3793 24H6.62069C2.96418 24 0 21.0358 0 17.3793V6.62069Z" fill="url(#paint0_linear_35153_15738)"/>
<path fill-rule="evenodd" clip-rule="evenodd" d="M5.5 8.00158C5.5 6.6199 6.62003 5.5 8.0016 5.5H18.5V7.41946C18.5 8.4125 17.695 9.21745 16.702 9.21745H11.7661C10.3844 9.21745 9.26448 10.3375 9.26448 11.7191V12.3556C9.26448 13.7373 10.3844 14.8572 11.7661 14.8572H16.702C17.695 14.8572 18.5 15.6623 18.5 16.6553V18.5H8.0016C6.62003 18.5 5.5 17.3798 5.5 15.9983V8.00158ZM11.8741 10.2636H16.9365C17.8001 10.2636 18.5 10.9637 18.5 11.8271V12.2476C18.5 13.1111 17.8001 13.8112 16.9365 13.8112H11.8741C11.0105 13.8112 10.3105 13.1111 10.3105 12.2476V11.8271C10.3105 10.9637 11.0105 10.2636 11.8741 10.2636Z" fill="white"/>
</g>
<defs>
<linearGradient id="paint0_linear_35153_15738" x1="0" y1="0" x2="24" y2="24" gradientUnits="userSpaceOnUse">
<stop stop-color="#C24AFF"/>
<stop offset="1" stop-color="#724CFF"/>
</linearGradient>
<clipPath id="clip0_35153_15738">
<rect width="24" height="24" fill="white"/>
</clipPath>
</defs>
</svg>
