<svg width="24" height="24" viewBox="0 0 24 24" fill="none" xmlns="http://www.w3.org/2000/svg">
<g clip-path="url(#clip0_20928_135970)">
<path d="M0 6.62069C0 2.96418 2.96418 0 6.62069 0H17.3793C21.0358 0 24 2.96418 24 6.62069V17.3793C24 21.0358 21.0358 24 17.3793 24H6.62069C2.96418 24 0 21.0358 0 17.3793V6.62069Z" fill="#E6007A"/>
<path fill-rule="evenodd" clip-rule="evenodd" d="M12 20C16.4183 20 20 16.4183 20 12C20 7.58172 16.4183 4 12 4C7.58172 4 4 7.58172 4 12C4 16.4183 7.58172 20 12 20ZM14.5 10C14.5 8.61929 13.3807 7.5 12 7.5C10.6193 7.5 9.5 8.61929 9.5 10C9.5 10.6336 9.7357 11.2122 10.1242 11.6528C10.4568 12.0299 10.75 12.4752 10.75 12.9781V15.25C10.75 15.9404 11.3096 16.5 12 16.5C12.6904 16.5 13.25 15.9404 13.25 15.25V12.9781C13.25 12.4752 13.5432 12.0299 13.8758 11.6528C14.2643 11.2122 14.5 10.6336 14.5 10Z" fill="white"/>
</g>
<defs>
<clipPath id="clip0_20928_135970">
<rect width="24" height="24" fill="white"/>
</clipPath>
</defs>
</svg>
