<svg width="24" height="24" viewBox="0 0 24 24" fill="none" xmlns="http://www.w3.org/2000/svg">
<g clip-path="url(#clip0_20928_135996)">
<path d="M0 6.62069C0 2.96418 2.96418 0 6.62069 0H17.3793C21.0358 0 24 2.96418 24 6.62069V17.3793C24 21.0358 21.0358 24 17.3793 24H6.62069C2.96418 24 0 21.0358 0 17.3793V6.62069Z" fill="black"/>
<path d="M3.95874 15.0247V19H10.008V18.1184H4.84013V15.0247H3.95874ZM19.1597 15.0247V18.1184H13.9918V18.9998H20.0411V15.0247H19.1597ZM10.0168 8.97526V15.0245H13.9918V14.2295H10.8982V8.97526H10.0168ZM3.95874 5V8.97526H4.84013V5.88139H10.008V5H3.95874ZM13.9918 5V5.88139H19.1597V8.97526H20.0411V5H13.9918Z" fill="white"/>
</g>
<defs>
<clipPath id="clip0_20928_135996">
<rect width="24" height="24" fill="white"/>
</clipPath>
</defs>
</svg>
