<svg width="24" height="24" viewBox="0 0 24 24" fill="none" xmlns="http://www.w3.org/2000/svg">
<g clip-path="url(#clip0_35153_15751)">
<path d="M0 6.62069C0 2.96418 2.96418 0 6.62069 0H17.3793C21.0358 0 24 2.96418 24 6.62069V17.3793C24 21.0358 21.0358 24 17.3793 24H6.62069C2.96418 24 0 21.0358 0 17.3793V6.62069Z" fill="url(#paint0_linear_35153_15751)"/>
<path fill-rule="evenodd" clip-rule="evenodd" d="M7.38648 18.5549C5.42108 17.0866 4.14862 14.7417 4.14862 12.0999C4.14862 7.65347 7.75357 4.04852 12.2 4.04852C15.8709 4.04852 19.878 6.24284 20.8473 9.60031C19.7646 5.84687 16.304 3.09985 12.2 3.09985C7.22974 3.09985 3.19995 7.12964 3.19995 12.0999C3.19995 17.0701 7.22974 21.0999 12.2 21.0999C17.1702 21.0999 21.2 17.0701 21.2 12.0999V11.6255H20.705C20.6906 11.6255 20.6679 11.6255 20.639 11.6255C20.5813 11.6255 20.4967 11.6235 20.3895 11.6193C20.177 11.6131 19.8821 11.5987 19.5522 11.5698C18.8778 11.5121 18.1065 11.3966 17.5826 11.1862C16.7391 10.8501 16.2627 10.4026 15.7183 9.88079L15.6873 9.84985C15.1429 9.32602 14.5304 8.73826 13.4683 8.23711C12.4227 7.74422 11.2657 7.82465 10.416 7.99788C9.98501 8.08656 9.61379 8.20412 9.35188 8.29898C9.21989 8.34642 9.11471 8.38973 9.04046 8.42066C8.61356 8.60008 8.19697 8.81456 7.77832 9.01049C7.77832 9.01049 8.60119 9.23734 9.00953 9.36314C9.02397 9.36727 9.04665 9.37552 9.07759 9.38583C9.13739 9.40645 9.22607 9.43739 9.33332 9.4807C9.5478 9.56732 9.83034 9.6993 10.1088 9.87873C10.548 10.1613 10.9131 10.516 11.0615 10.9532C10.1294 11.0749 9.25495 11.4853 8.59913 11.8709C8.20316 12.104 7.87319 12.337 7.64221 12.5123C7.52672 12.5989 7.43391 12.6732 7.37204 12.7247C7.31842 12.768 6.47699 13.5105 6.47699 13.5105C6.47699 13.5105 7.56384 13.626 8.10004 13.7332C8.45683 13.8054 8.93735 13.9209 9.43849 14.0962C9.9417 14.2715 10.4511 14.5025 10.8739 14.7974C11.2967 15.0923 11.6081 15.4346 11.7607 15.8244C12.2061 16.9628 11.7689 18.0724 10.8904 18.6952C10.0221 19.3139 8.70431 19.4603 7.38648 18.5549ZM10.4573 19.9635C10.812 19.848 11.142 19.681 11.441 19.4706C12.6351 18.6209 13.2641 17.0659 12.6434 15.4821C12.4 14.8592 11.9339 14.3829 11.4163 14.0219C10.8986 13.661 10.3026 13.395 9.74991 13.2032C9.38694 13.0774 9.03634 12.9784 8.73112 12.9042C8.84042 12.834 8.95797 12.7598 9.08171 12.6876C9.81178 12.2587 10.7295 11.8647 11.6101 11.8647C12.9383 11.8647 13.9261 12.271 14.8686 12.7082C14.9552 12.7474 15.0398 12.7887 15.1264 12.8299C15.9699 13.2259 16.8546 13.6404 17.8837 13.6404C18.8819 13.6404 19.6594 13.3579 20.1956 13.0671C19.7192 17.0598 16.3205 20.1532 12.2 20.1532C11.6019 20.1532 11.0182 20.0873 10.4573 19.9635ZM19.1727 12.4834C18.818 12.6051 18.389 12.6917 17.8858 12.6917C17.0794 12.6917 16.3844 12.368 15.5038 11.9576C15.4254 11.9204 15.3471 11.8854 15.2666 11.8482C14.384 11.4399 13.3652 11.0068 12.037 10.9285C11.8597 10.0499 11.1935 9.4477 10.6223 9.08267C10.5583 9.04142 10.4944 9.00224 10.4325 8.96718C10.4903 8.9548 10.548 8.94037 10.6078 8.92799C11.375 8.76919 12.2907 8.73001 13.0661 9.09504C13.9859 9.52813 14.5056 10.0272 15.046 10.5449L15.0645 10.5634C15.6214 11.0976 16.2091 11.6565 17.2341 12.0669C17.8012 12.2937 18.5395 12.4154 19.1727 12.4834Z" fill="white"/>
</g>
<defs>
<linearGradient id="paint0_linear_35153_15751" x1="-1.2631" y1="12" x2="25.6468" y2="12" gradientUnits="userSpaceOnUse">
<stop stop-color="#29CCB9"/>
<stop offset="0.4948" stop-color="#0091FF"/>
<stop offset="1" stop-color="#FF66B7"/>
</linearGradient>
<clipPath id="clip0_35153_15751">
<rect width="24" height="24" fill="white"/>
</clipPath>
</defs>
</svg>
