<svg width="24" height="24" viewBox="0 0 24 24" fill="none" xmlns="http://www.w3.org/2000/svg">
<g clip-path="url(#clip0_11344_49222)">
<path d="M0 6.62069C0 2.96418 2.96418 0 6.62069 0H17.3793C21.0358 0 24 2.96418 24 6.62069V17.3793C24 21.0358 21.0358 24 17.3793 24H6.62069C2.96418 24 0 21.0358 0 17.3793V6.62069Z" fill="#AB9FF2"/>
<path d="M6.02943 18.5228C8.0286 18.5228 9.53099 16.7842 10.4276 15.4103C10.3185 15.7143 10.258 16.0182 10.258 16.31C10.258 17.1125 10.7184 17.6839 11.6271 17.6839C12.875 17.6839 14.2078 16.5897 14.8984 15.4103C14.85 15.5806 14.8258 15.7386 14.8258 15.8845C14.8258 16.4438 15.1408 16.7964 15.7829 16.7964C17.8063 16.7964 19.8418 13.2097 19.8418 10.0729C19.8418 7.62916 18.606 5.47717 15.5043 5.47717C10.052 5.47717 4.17566 12.1398 4.17566 16.4438C4.17566 18.1338 5.08437 18.5228 6.02943 18.5228ZM13.6262 9.80547C13.6262 9.19757 13.9655 8.77203 14.4623 8.77203C14.9469 8.77203 15.2862 9.19757 15.2862 9.80547C15.2862 10.4134 14.9469 10.8511 14.4623 10.8511C13.9655 10.8511 13.6262 10.4134 13.6262 9.80547ZM16.2191 9.80547C16.2191 9.19757 16.5584 8.77203 17.0551 8.77203C17.5398 8.77203 17.879 9.19757 17.879 9.80547C17.879 10.4134 17.5398 10.8511 17.0551 10.8511C16.5584 10.8511 16.2191 10.4134 16.2191 9.80547Z" fill="white"/>
</g>
<defs>
<clipPath id="clip0_11344_49222">
<rect width="24" height="24" fill="white"/>
</clipPath>
</defs>
</svg>
