<svg width="24" height="24" viewBox="0 0 24 24" fill="none" xmlns="http://www.w3.org/2000/svg">
<g clip-path="url(#clip0_11213_36893)">
<path d="M0 6.62069C0 2.96418 2.96418 0 6.62069 0H17.3793C21.0358 0 24 2.96418 24 6.62069V17.3793C24 21.0358 21.0358 24 17.3793 24H6.62069C2.96418 24 0 21.0358 0 17.3793V6.62069Z" fill="#5570FF"/>
<path d="M6.84036 8.73859C9.69087 5.94912 14.3111 5.94912 17.1617 8.73859L17.5042 9.07522C17.6459 9.21499 17.6459 9.44138 17.5042 9.58115L16.3309 10.7288C16.26 10.7977 16.1439 10.7977 16.073 10.7288L15.6006 10.2662C13.6123 8.32126 10.3878 8.32126 8.39948 10.2662L7.89355 10.7603C7.82269 10.8292 7.70654 10.8292 7.63567 10.7603L6.46239 9.61264C6.32066 9.47287 6.32066 9.24649 6.46239 9.10672L6.83839 8.73859H6.84036ZM19.5889 11.1127L20.6323 12.1344C20.774 12.2742 20.774 12.5006 20.6323 12.6403L15.9234 17.2488C15.7817 17.3886 15.5494 17.3886 15.4076 17.2488L12.065 13.979C12.0296 13.9435 11.9725 13.9435 11.9351 13.979L8.5924 17.2488C8.45066 17.3886 8.21837 17.3886 8.07663 17.2488L3.36778 12.6403C3.22604 12.5006 3.22604 12.2742 3.36778 12.1344L4.41113 11.1127C4.55287 10.9729 4.78516 10.9729 4.9269 11.1127L8.26955 14.3825C8.30499 14.418 8.36208 14.418 8.39948 14.3825L11.7421 11.1127C11.8839 10.9729 12.1162 10.9729 12.2579 11.1127L15.6006 14.3845C15.636 14.4199 15.6931 14.4199 15.7305 14.3845L19.0731 11.1147C19.2149 10.9749 19.4472 10.9749 19.5889 11.1147V11.1127Z" fill="white"/>
</g>
<defs>
<clipPath id="clip0_11213_36893">
<rect width="24" height="24" fill="white"/>
</clipPath>
</defs>
</svg>
