<svg width="24" height="24" viewBox="0 0 24 24" fill="none" xmlns="http://www.w3.org/2000/svg">
<g clip-path="url(#clip0_35153_15768)">
<path d="M0 6.62069C0 2.96418 2.96418 0 6.62069 0H17.3793C21.0358 0 24 2.96418 24 6.62069V17.3793C24 21.0358 21.0358 24 17.3793 24H6.62069C2.96418 24 0 21.0358 0 17.3793V6.62069Z" fill="#1C0115"/>
<path d="M0 6.62069C0 2.96418 2.96418 0 6.62069 0H17.3793C21.0358 0 24 2.96418 24 6.62069V17.3793C24 21.0358 21.0358 24 17.3793 24H6.62069C2.96418 24 0 21.0358 0 17.3793V6.62069Z" fill="url(#paint0_radial_35153_15768)"/>
<path d="M0 6.62069C0 2.96418 2.96418 0 6.62069 0H17.3793C21.0358 0 24 2.96418 24 6.62069V17.3793C24 21.0358 21.0358 24 17.3793 24H6.62069C2.96418 24 0 21.0358 0 17.3793V6.62069Z" fill="url(#paint1_radial_35153_15768)" fill-opacity="0.8"/>
<path d="M0 6.62069C0 2.96418 2.96418 0 6.62069 0H17.3793C21.0358 0 24 2.96418 24 6.62069V17.3793C24 21.0358 21.0358 24 17.3793 24H6.62069C2.96418 24 0 21.0358 0 17.3793V6.62069Z" fill="url(#paint2_radial_35153_15768)"/>
<path d="M20.7927 9.27407L13.8335 10.1927C13.7938 10.198 13.7568 10.2162 13.7285 10.2446L13.1556 10.8167C13.0844 10.888 12.9692 10.888 12.8977 10.8167L12.7975 10.7164C12.7255 10.6446 12.7255 10.5276 12.7975 10.4558L13.4813 9.77306C13.5533 9.70124 13.5533 9.58429 13.4813 9.51247L12.1288 8.16164C12.0575 8.09032 11.9424 8.09032 11.8709 8.16164L10.5184 9.51247C10.4464 9.58429 10.4464 9.70124 10.5184 9.77306L11.2022 10.4558C11.2742 10.5276 11.2742 10.6446 11.2022 10.7164L11.1019 10.8167C11.0307 10.888 10.9155 10.888 10.844 10.8167L10.2711 10.2446C10.2426 10.2162 10.2059 10.198 10.1661 10.1927L3.20722 9.27407C3.03371 9.25113 2.93046 9.4626 3.05456 9.58653L4.57215 11.1022C4.68781 11.2177 4.6064 11.4161 4.44332 11.4161C4.28024 11.4161 4.19883 11.6146 4.3145 11.7301L5.73702 13.1508C5.76035 13.1739 5.78963 13.1906 5.8214 13.1986L10.6636 14.4181C10.7028 14.428 10.7378 14.4507 10.7629 14.4826L11.512 15.4387C11.6455 15.624 11.8711 15.8384 11.8711 15.8384C11.9424 15.9098 12.0575 15.9098 12.129 15.8384C12.129 15.8384 12.3157 15.6489 12.4882 15.4387L13.2373 14.4826C13.2624 14.4507 13.2971 14.428 13.3366 14.4181L18.1788 13.1986C18.2108 13.1906 18.2398 13.1739 18.2631 13.1508L19.6857 11.7301C19.8013 11.6146 19.7199 11.4161 19.5568 11.4161C19.3938 11.4161 19.3123 11.2177 19.428 11.1022L20.9456 9.58653C21.0695 9.4626 20.9662 9.25138 20.7927 9.27407Z" fill="white"/>
</g>
<defs>
<radialGradient id="paint0_radial_35153_15768" cx="0" cy="0" r="1" gradientUnits="userSpaceOnUse" gradientTransform="translate(1.18892 24) scale(13.864 16.8831)">
<stop stop-color="#3D085D"/>
<stop offset="1" stop-color="#3D085D" stop-opacity="0"/>
</radialGradient>
<radialGradient id="paint1_radial_35153_15768" cx="0" cy="0" r="1" gradientUnits="userSpaceOnUse" gradientTransform="translate(23.422 24) rotate(-180) scale(16.0619)">
<stop stop-color="#723507"/>
<stop offset="1" stop-color="#723507" stop-opacity="0"/>
</radialGradient>
<radialGradient id="paint2_radial_35153_15768" cx="0" cy="0" r="1" gradientUnits="userSpaceOnUse" gradientTransform="translate(23.3375) rotate(90) scale(19.9181)">
<stop stop-color="#5A042A"/>
<stop offset="1" stop-color="#5A042A" stop-opacity="0"/>
</radialGradient>
<clipPath id="clip0_35153_15768">
<rect width="24" height="24" fill="white"/>
</clipPath>
</defs>
</svg>
